<?xml version="1.0" encoding="UTF-8" standalone="no"?>
<svg
   xmlns:dc="http://purl.org/dc/elements/1.1/"
   xmlns:cc="http://creativecommons.org/ns#"
   xmlns:rdf="http://www.w3.org/1999/02/22-rdf-syntax-ns#"
   xmlns:svg="http://www.w3.org/2000/svg"
   xmlns="http://www.w3.org/2000/svg"
   xmlns:xlink="http://www.w3.org/1999/xlink"
   xmlns:sodipodi="http://sodipodi.sourceforge.net/DTD/sodipodi-0.dtd"
   xmlns:inkscape="http://www.inkscape.org/namespaces/inkscape"
   height="15.999998"
   width="21.333332"
   viewBox="0 0 21.333332 15.999998"
   version="1.1"
   id="svg155"
   sodipodi:docname="af.svg"
   inkscape:version="0.92.1 r">
  <metadata
     id="metadata161">
    <rdf:RDF>
      <cc:Work
         rdf:about="">
        <dc:format>image/svg+xml</dc:format>
        <dc:type
           rdf:resource="http://purl.org/dc/dcmitype/StillImage" />
        <dc:title></dc:title>
      </cc:Work>
    </rdf:RDF>
  </metadata>
  <defs
     id="defs159" />
  <sodipodi:namedview
     pagecolor="#ffffff"
     bordercolor="#666666"
     borderopacity="1"
     objecttolerance="10"
     gridtolerance="10"
     guidetolerance="10"
     inkscape:pageopacity="0"
     inkscape:pageshadow="2"
     inkscape:window-width="1920"
     inkscape:window-height="1025"
     id="namedview157"
     showgrid="false"
     fit-margin-top="0"
     fit-margin-left="0"
     fit-margin-right="0"
     fit-margin-bottom="0"
     inkscape:zoom="0.49166667"
     inkscape:cx="320"
     inkscape:cy="240"
     inkscape:window-x="0"
     inkscape:window-y="27"
     inkscape:window-maximized="1"
     inkscape:current-layer="svg155" />
  <g
     id="g8"
     transform="scale(0.03333333)"
     style="fill-rule:evenodd;stroke-width:1.00000003pt">
    <path
       d="M 0,0 H 640 V 480 H 0 Z"
       id="path2"
       inkscape:connector-curvature="0" />
    <path
       d="M 426.662,0 H 640 V 480 H 426.662 Z"
       id="path4"
       inkscape:connector-curvature="0"
       style="fill:#009900" />
    <path
       d="m 213.336,0 h 213.34 v 480 h -213.34 z"
       id="path6"
       inkscape:connector-curvature="0"
       style="fill:#bf0000" />
  </g>
  <g
     transform="matrix(0.03544867,0,0,0.03544867,0.03203333,0.91037)"
     id="g149"
     style="fill:#ffffff;fill-rule:evenodd;stroke:#bd6b00;stroke-width:0.5">
    <path
       d="m 319.5,225.84 8.354,0.001 c 0.031,3.157 1.881,6.549 4.48,8.493 h -16.008 c 2.505,-2.271 3.19,-4.963 3.174,-8.494 z"
       id="path10"
       inkscape:connector-curvature="0" />
    <path
       d="m 266.71,178.53 4.574,5.04 56.934,0.093 4.668,-5.04 -14.56,-0.186 -7.094,-4.947 -22.868,-0.093 -6.627,5.133 z"
       id="path12"
       inkscape:connector-curvature="0"
       style="stroke:none" />
    <path
       d="m 290.02,172.74 19.66,-0.02 c 2.662,-1.408 3.492,-5.902 3.479,-8.416 -0.037,-7.429 -5.233,-10.991 -10.447,-11.18 -0.781,-0.04 -1.688,-0.648 -1.895,-1.36 -0.514,-1.613 -0.381,-2.641 -0.944,-2.584 -0.5,-0.007 -0.353,0.94 -0.799,2.453 -0.245,0.752 -1.09,1.494 -1.934,1.537 -6.49,0.324 -10.676,5.062 -10.513,11.134 0.11,4.015 0.577,6.413 3.393,8.437 z"
       id="path14"
       inkscape:connector-curvature="0" />
    <path
       d="m 257.66,242.83 h 84.469 l -7.56,-6.16 H 265.22 Z"
       id="path16"
       inkscape:connector-curvature="0"
       style="stroke:none" />
    <path
       d="m 296.39,219.69 1.54,4.62 h 3.499 l -2.799,-4.621 h -2.24 z m -1.96,4.62 0.887,4.573 4.106,0.046 -1.493,-4.62 h -3.5 z m 6.953,0.046 2.847,4.527 h 5.834 l -4.573,-4.575 -4.107,0.048 z m -34.44,10.36 c 3.095,-2.878 5.07,-5.335 5.086,-8.866 h 7.56 c 0.015,1.976 0.73,3.157 1.82,3.08 l 7.654,-0.047 -0.046,-4.527 h -5.554 l -0.001,-24.688 c -0.202,-8.726 10.609,-13.813 15.028,-13.767 l -26.275,-0.046 v -0.793 h 55.255 l 0.047,0.793 -26.647,0.046 c 7.902,0.016 15.524,7.5 15.587,13.815 v 7 h -1.028 l -0.046,-6.906 c 0,-6.908 -8.7,-13.363 -15.681,-13.161 -6.037,0.173 -15.4,5.927 -15.307,13.115 v 2.146 l 14.327,0.094 -0.14,2.472 2.25,1.436 4.486,1.43 -0.065,3.71 3.213,0.947 0.028,3.706 3.855,1.654 v 3.836 l 2.445,1.507 -0.112,3.895 3.314,2.333 h -7.84 l 4.9,5.46 h -7.234 l -3.594,-5.46 h -4.76 l 2.147,5.413 -5.085,-0.046 -1.215,-5.367 h -6.206 l 0.046,5.786 h -22.214 z m 22.168,-14.98 v 4.572 h 5.32 l -1.075,-4.573 h -4.245 z"
       id="path18"
       inkscape:connector-curvature="0" />
    <path
       d="m 289.39,211.66 h 3.313 v 7.607 h -3.313 z"
       id="path20"
       inkscape:connector-curvature="0"
       style="fill:none" />
    <path
       d="m 284.71,219.8 h 3.234 l -0.02,-5.597 c -0.042,-2.433 2.142,-4.885 3.187,-4.967 1.159,-0.044 2.867,2.297 2.924,4.776 l 0.047,5.806 3.43,-0.007 v -14.41 l -12.802,0.067 z m 25.59,3.34 h 4.014 v 3.127 H 310.3 Z m -2.38,-5.37 h 4.014 v 3.127 h -4.014 z m -3.87,-5.37 h 4.014 v 3.127 h -4.014 z m -3.31,-4.52 h 4.014 v 3.127 h -4.014 z"
       id="path22"
       inkscape:connector-curvature="0"
       style="fill:none" />
    <path
       d="m 298.08,219.82 4.106,0.14 7.327,6.487 v -3.827 l -2.473,-1.773 v -3.034 l -3.594,-2.052 v -3.268 l -3.5,-1.166 v -4.434 l -1.774,-1.447 z"
       id="path24"
       inkscape:connector-curvature="0"
       style="fill:none" />
    <path
       d="m 315.43,210.35 h 0.98 v 7.047 h -0.98 z"
       id="path26"
       inkscape:connector-curvature="0" />
    <g
       id="a">
      <path
         d="m 257.32,186.53 c -1.234,-1.982 -2.712,2.749 -7.788,6.27 -2.363,1.609 -4.009,5.894 -4.025,8.713 -0.077,1.937 0.216,3.868 0,5.741 -0.137,1.186 -1.372,3.816 -0.527,4.489 2.234,1.66 5.126,5.43 6.467,6.731 1.16,1.017 2.165,-5.248 3.036,-8.051 0.933,-3.005 0.515,-6.596 3.102,-9.372 1.834,-1.875 6.46,-3.72 5.94,-4.554 z"
         id="path28"
         inkscape:connector-curvature="0" />
      <path
         d="m 257.06,201.88 a 10.09,10.09 0 0 0 -1.656,-2.594 c -0.699,-0.792 -1.525,-1.457 -2.438,-1.781 -0.881,-0.325 -1.779,-0.751 -2.406,-1.531 a 3.645,3.645 0 0 1 -0.719,-1.469 c -0.124,-0.544 -0.123,-1.21 -0.03,-1.969 -0.11,0.08 -0.169,0.172 -0.282,0.25 -2.363,1.608 -4.016,5.9 -4.031,8.719 a 28.487,28.487 0 0 0 0,2.313 c 0.175,0.485 0.343,0.955 0.593,1.25 0.326,0.383 0.714,0.636 1.125,0.812 0.824,0.352 1.775,0.425 2.657,0.75 0.912,0.324 1.851,1.058 2.656,1.938 a 10.51,10.51 0 0 1 1.75,2.656 c 0.066,-0.243 0.154,-0.604 0.219,-0.813 0.845,-2.721 0.697,-5.889 2.562,-8.531 z"
         id="path30"
         inkscape:connector-curvature="0"
         style="fill:#bf0000" />
      <path
         d="m 249.82,192.39 c -0.484,3.356 1.385,4.473 3.148,5.123 1.825,0.648 3.322,2.606 4.093,4.378 M 245.3,203.44 c 0.77,2.893 2.798,2.531 4.561,3.181 1.826,0.649 3.745,2.957 4.516,4.729"
         id="path32"
         inkscape:connector-curvature="0"
         style="fill:none" />
      <path
         d="m 255.61,184.48 0.925,-0.594 17.752,29.898 -0.924,0.594 z"
         id="path34"
         inkscape:connector-curvature="0" />
      <path
         d="m 257.52,183.29 a 2.046,2.046 0 1 1 -4.092,0 2.046,2.046 0 1 1 4.092,0 z m 15.18,-24.02 h 7.194 v 1.65 H 272.7 Z m 0,3.13 h 7.194 v 13.784 H 272.7 Z m -0.44,-5.01 7.98,0.047 c 0.312,-2.706 -2.39,-5.63 -3.966,-5.6 -1.56,0.076 -4.076,2.956 -4.014,5.553 z"
         id="path36"
         inkscape:connector-curvature="0" />
      <path
         d="m 292.62,155.76 c -1.521,0.64 -2.688,2.377 -3.406,4.375 -0.719,1.998 -0.992,4.267 -0.656,6.094 v 0.031 c 0.127,0.63 0.3,1.083 0.5,1.406 0.199,0.324 0.422,0.514 0.687,0.563 0.265,0.049 0.514,-0.093 0.656,-0.313 0.143,-0.22 0.212,-0.509 0.188,-0.844 -0.144,-1.878 -0.135,-3.732 0.312,-5.406 0.448,-1.674 1.338,-3.164 2.97,-4.375 0.294,-0.216 0.463,-0.463 0.5,-0.719 0.035,-0.255 -0.1,-0.474 -0.282,-0.625 -0.364,-0.301 -0.938,-0.407 -1.469,-0.187 z m 0.156,0.438 c 0.37,-0.154 0.842,-0.064 1.031,0.093 0.095,0.079 0.106,0.133 0.094,0.219 -0.012,0.086 -0.077,0.234 -0.312,0.406 -1.713,1.272 -2.657,2.872 -3.125,4.625 -0.47,1.754 -0.459,3.66 -0.313,5.563 a 0.927,0.927 0 0 1 -0.125,0.562 c -0.07,0.108 -0.107,0.14 -0.187,0.125 -0.081,-0.015 -0.248,-0.117 -0.407,-0.375 -0.158,-0.257 -0.317,-0.656 -0.437,-1.25 -0.315,-1.714 -0.037,-3.947 0.656,-5.875 0.694,-1.927 1.803,-3.538 3.125,-4.094 z"
         id="path38"
         inkscape:connector-curvature="0"
         style="fill:#bd6b00;stroke:none" />
      <path
         d="m 295.19,157.73 c -1.52,0.639 -2.501,2.292 -3.031,4.188 -0.53,1.895 -0.614,4.065 -0.281,5.874 0.26,1.284 0.934,1.962 1.593,2.063 0.33,0.05 0.648,-0.08 0.844,-0.344 0.196,-0.264 0.26,-0.619 0.156,-1.062 -0.372,-1.498 -0.515,-3.366 -0.25,-5.063 0.266,-1.696 0.94,-3.211 2.22,-4.125 0.295,-0.215 0.463,-0.463 0.5,-0.719 0.035,-0.255 -0.1,-0.505 -0.282,-0.656 -0.364,-0.302 -0.937,-0.376 -1.469,-0.156 z m 0.188,0.438 c 0.37,-0.154 0.81,-0.064 1,0.093 0.094,0.079 0.137,0.134 0.125,0.219 -0.012,0.085 -0.109,0.235 -0.344,0.406 -1.412,1.009 -2.129,2.664 -2.406,4.438 -0.278,1.773 -0.105,3.664 0.28,5.218 0.083,0.354 10e-4,0.592 -0.093,0.72 -0.094,0.127 -0.214,0.185 -0.406,0.155 -0.384,-0.059 -0.983,-0.554 -1.219,-1.718 -0.318,-1.732 -0.227,-3.868 0.281,-5.688 0.509,-1.82 1.457,-3.287 2.781,-3.844 z"
         id="path40"
         inkscape:connector-curvature="0"
         style="fill:#bd6b00;stroke:none" />
      <path
         d="m 272.31,187.39 h 8.027 v 11.107 h -8.027 z m 0.47,17.46 h 7.747 v 2.333 h -7.747 z m -0.19,4.1 h 7.933 v 8.68 h -7.933 z m -0.56,10.46 h 8.68 v 4.853 h -8.68 z m 1.07,-16.65 h 6.995 l 1.387,-2.31 h -9.636 z m 9.43,-8.51 0.066,-6.071 h 4.818 c -1.893,1.561 -3.652,3.454 -4.884,6.071 z"
         id="path42"
         inkscape:connector-curvature="0" />
      <path
         d="m 273.56,196.74 c 0.048,1.299 1.518,0.72 1.518,0.066 0,-2.004 0.027,-4.17 -0.053,-5.588 -0.01,-1.045 2.49,-0.783 2.476,-0.14 0.01,1.692 0.029,4.012 0.038,5.992 -0.018,0.964 1.615,0.88 1.593,0 -0.01,-2.212 -0.011,-5.425 0,-7.052 0.014,-2.096 -5.502,-2.05 -5.545,-0.047 0.002,1.645 -0.03,4.59 -0.027,6.769 z m 0.01,13.24 h 5.694 v 7.094 h -5.694 z"
         id="path44"
         inkscape:connector-curvature="0"
         style="fill:none" />
      <path
         d="m 277.21,212.92 h 2.007 v 1.167 h -2.007 z m -3.5,0 h 1.96 v 1.167 h -1.96 z"
         id="path46"
         inkscape:connector-curvature="0" />
      <path
         d="m 275.67,210.07 h 1.54 v 2.893 h -1.54 z m 0,3.97 h 1.54 v 3.08 h -1.54 z m -31.68,-75.07 c 0.356,5.567 -1.371,8.623 -4.32,8.158 -0.812,-3.088 1.036,-5.16 4.32,-8.158 z m -6.47,12.34 c -2.621,-1.333 -0.73,-11.513 0.276,-15.78 0.744,5.497 1.99,13.309 -0.276,15.78 z"
         id="path48"
         inkscape:connector-curvature="0" />
      <path
         d="m 238.45,151.79 c 4.406,1.533 7.894,-3.212 9.073,-8.708 -3.636,5.019 -9.554,5.025 -9.073,8.708 z m -3.34,5.14 c -3.445,-0.91 -1.37,-11.71 -0.744,-16.03 0.757,4.462 3.132,14.552 0.744,16.03 z m 1.18,-0.34 c 0.192,-3.725 3.905,-2.648 6.468,-4.636 -0.418,1.86 -1.994,5.16 -6.468,4.636 z m -4.22,4.99 c -3.414,-0.921 -1.362,-12.544 -1.555,-17.329 1,4.135 4.17,16.209 1.555,17.329 z m 1.59,-0.5 c 2.797,0.91 6.501,-0.908 6.793,-4.239 -2.409,1.635 -6.254,0.385 -6.793,4.239 z"
         id="path50"
         inkscape:connector-curvature="0" />
      <path
         d="m 229.52,166.71 c -3.265,0.26 -1.804,-9.638 -1.802,-18.857 1.2,8.617 4.467,16.505 1.802,18.857 z"
         id="path52"
         inkscape:connector-curvature="0" />
      <path
         d="m 230.65,166.26 c 2.205,1.106 6.156,-0.662 7.284,-4.387 -3.984,1.733 -6.648,0.04 -7.284,4.387 z m 25.63,-22.13 c -0.58,4.829 -2.554,7.638 -5.503,7.174 -0.812,-3.088 1.579,-5.062 5.503,-7.174 z m -7.8,12.39 c 4.898,0.695 6.662,-3.064 9.96,-7.87 -4.621,3.344 -10.146,4.039 -9.96,7.87 z"
         id="path54"
         inkscape:connector-curvature="0" />
      <path
         d="m 247.09,155.97 c -2.67,-3.204 -0.09,-7.228 1.95,-10.657 -0.438,5.102 1.3,7.94 -1.95,10.657 z m -1.18,5.29 c -0.301,-3.134 5.038,-3.83 7.452,-5.572 -0.812,1.811 -2.043,6.687 -7.452,5.572 z"
         id="path56"
         inkscape:connector-curvature="0" />
      <path
         d="m 244.79,161.33 c -3.691,-0.418 -2.159,-6.686 0.487,-10.17 -1.114,4.807 1.95,8.15 -0.487,10.17 z"
         id="path58"
         inkscape:connector-curvature="0" />
      <path
         d="m 242.01,166.55 c -4.202,-1.858 -1.509,-7.127 0.07,-10.238 -0.673,4.086 2.693,7.196 -0.07,10.238 z"
         id="path60"
         inkscape:connector-curvature="0" />
      <path
         d="m 242.84,166.06 c 2.205,2.879 6.501,-0.859 7.383,-5.224 -3.738,3.112 -6.5,2.6 -7.383,5.224 z m -9.6,20.26 c -0.432,-4.287 2.793,-12.084 0.504,-16.24 -0.312,-0.571 0.685,-2.087 1.33,-1.167 1.006,1.468 2.04,5.652 2.473,4.107 0.459,-1.68 0.53,-4.65 2.017,-5.228 0.949,-0.338 2.29,-0.559 1.924,0.934 -0.363,1.436 -1.177,3.42 -0.275,3.547 0.523,0.078 2.03,-1.954 3.3,-2.893 1.022,-0.838 2.548,0.473 1.053,1.726 -4.861,4.037 -9.57,5.854 -12.326,15.214 z m -8.73,64.53 c -0.57,-0.11 -1.352,-0.303 -0.64,0.584 5.678,6.996 7.321,8.924 15.602,7.94 8.365,-1.102 10.357,-3.364 16.214,-6.65 3.129,-1.836 7.703,-2.243 11.17,-1.106 1.614,0.528 2.59,0.56 1.434,-0.599 -1.158,-1.157 -2.525,-2.73 -3.949,-3.815 -3.118,-2.394 -8.407,-3.432 -12.723,-2.662 -6.104,0.958 -11.148,4.845 -17.176,6.313 -3.167,0.723 -6.64,0.614 -9.931,-0.005 z m 47.79,12.5 c 1.056,0.131 1.725,2.177 2.245,0.792 0.881,-2.242 0.264,-4.026 -0.727,-3.829 -1.17,0.312 -3.147,2.934 -1.518,3.037 z"
         id="path62"
         inkscape:connector-curvature="0" />
      <path
         d="m 220.6,182.92 c -1.215,-1.269 -0.864,-1.754 0.933,-1.774 1.425,-0.09 4.25,0.873 5.32,0.093 0.983,-0.713 0.592,-3.738 1.028,-5.133 0.19,-0.778 0.735,-1.999 1.96,-0.093 3.622,5.804 8.146,12.773 10.08,19.6 1.057,3.826 0.062,9.8 -3.454,13.814 0.124,-3.423 -1.152,-5.725 -2.707,-8.587 -1.921,-3.762 -9.057,-13.951 -13.16,-17.92 z"
         id="path64"
         inkscape:connector-curvature="0"
         style="stroke:none" />
      <path
         d="m 235.53,213.44 c 3.983,0.02 4.667,-5.32 4.667,-6.813 -1.96,0.373 -5.414,3.64 -4.667,6.813 z m 34.42,51.82 c 2.833,0.645 2.794,-6.178 -0.1,-9.07 1.274,4.382 -2.128,8.388 0.1,9.07 z m -1.1,-0.06 c 0.187,3.243 -7.959,-0.424 -10.052,-2.946 4.813,2.044 9.815,0.352 10.052,2.946 z m -3.57,-4.63 c 0.291,3.141 -7.064,0.38 -9.238,-2.074 4.83,1.56 8.917,-0.511 9.238,2.074 z m 1.35,0.44 c 2.833,0.645 2.374,-6.412 -0.38,-8.837 1.322,4.71 -1.848,8.155 0.38,8.837 z m -2.98,-4.29 c 2.833,0.645 1.207,-5.431 -0.893,-7.857 0.341,4.43 -1.055,7.502 0.893,7.857 z m -1.5,-0.02 c 0.292,3.235 -5.43,0.751 -7.65,-2.309 4.782,1.561 7.329,-0.276 7.65,2.309 z m -1.56,-2.46 c 1.856,-1.334 -0.113,-4.863 -3.645,-4.645 0.346,2.132 1.566,5.88 3.645,4.645 z m 13.95,14.63 c 0.187,3.243 -7.96,1.63 -10.519,-1.825 5.139,0.97 10.281,-0.769 10.519,1.825 z m -32.36,-5.8 c 0.292,3.235 -8.602,-0.322 -10.823,-3.383 4.783,1.561 10.502,0.798 10.823,3.383 z m 5.45,1.38 c 1.856,-1.334 -1.933,-4.77 -4.951,-5.578 0.346,2.131 2.872,6.813 4.951,5.578 z m 0.57,2.24 c 0.199,2.908 -9.537,1.313 -12.084,-1.374 8.377,1.514 11.81,-1.117 12.084,1.374 z"
         id="path66"
         inkscape:connector-curvature="0" />
      <path
         d="m 252.76,268.63 c 1.08,2.701 -8.264,2.042 -11.545,0.471 5.301,-0.046 10.802,-2.353 11.545,-0.471 z"
         id="path68"
         inkscape:connector-curvature="0" />
      <path
         d="m 257.13,270.6 c 1.034,2.421 -7.61,2.369 -11.824,1.03 5.581,-0.045 10.801,-3.426 11.824,-1.03 z m 6.29,1.3 c 1.531,2.865 -7.588,3.143 -10.547,1.733 5.273,-0.725 9.242,-3.988 10.547,-1.733 z M 252.74,267 c -2.901,1.83 -2.746,-3.564 -5.053,-7.3 3.625,3.302 7.02,5.556 5.053,7.3 z"
         id="path70"
         inkscape:connector-curvature="0" />
      <path
         d="m 257.88,268.94 c -2.433,2.156 -4.379,-5.246 -6.594,-9.399 3.58,3.954 8.84,7.609 6.594,9.399 z m 6.8,2.06 c -2.06,2.389 -8.02,-7.018 -10.187,-11.919 3.3,3.815 11.826,9.895 10.187,11.919 z m -5.8,7.18 c -1.028,3.632 -16.192,-3.423 -17.885,-7.079 8.677,4.598 18.092,3.636 17.885,7.079 z m -48.73,-73.8 c -0.355,-0.46 -1.374,0.012 -1.12,1.12 0.237,1.501 2.45,9.204 6.252,11.854 2.712,1.954 16.965,5.102 23.427,6.439 3.556,0.715 6.535,2.49 8.868,5.32 -0.965,-3.702 -1.74,-6.445 -2.987,-9.8 -1.211,-2.947 -4.421,-6.173 -7.746,-6.346 -6.175,-0.222 -14.167,-0.748 -19.974,-3.268 -2.997,-1.252 -4.792,-2.943 -6.72,-5.32 z"
         id="path72"
         inkscape:connector-curvature="0" />
      <path
         d="m 245.54,234.87 c 1.947,1.434 4.096,-3.704 1.623,-8.588 -0.078,4.701 -3.815,6.28 -1.623,8.588 z"
         id="path74"
         inkscape:connector-curvature="0" />
      <path
         d="m 247.41,239.58 c 2.693,0.827 3.536,-3.937 1.763,-7.747 0.295,4.093 -4.234,6.56 -1.763,7.747 z"
         id="path76"
         inkscape:connector-curvature="0" />
      <path
         d="m 249.46,243.36 c 2.6,1.295 3.585,-3.518 1.716,-7.092 0.204,4.56 -3.72,5.904 -1.716,7.092 z"
         id="path78"
         inkscape:connector-curvature="0" />
      <path
         d="m 248.39,243.65 c -1.03,3.08 -7.007,-2.655 -8.014,-5.775 3.71,3.685 8.757,3.278 8.014,5.775 z"
         id="path80"
         inkscape:connector-curvature="0" />
      <path
         d="m 245.68,238.94 c -1.171,3.08 -8.687,-4.85 -10.348,-8.668 3.71,3.685 11.184,6.498 10.348,8.668 z"
         id="path82"
         inkscape:connector-curvature="0" />
      <path
         d="m 244.19,234.32 c -1.17,3.5 -9.34,-5.829 -11.654,-9.135 3.897,3.639 12.537,6.592 11.654,9.135 z m -0.26,-3.46 c 2.877,-0.56 -0.163,-2.955 -3.69,-6.849 -0.164,4.1 0.509,6.966 3.69,6.849 z"
         id="path84"
         inkscape:connector-curvature="0" />
      <path
         d="m 239.08,228.53 c 1.242,-1.353 -1.19,-1.929 -4.203,-5.31 -0.444,2.28 2.794,6.454 4.203,5.31 z m 13.92,15.2 c 1.574,0.921 2.652,-2.304 0.69,-5.225 -0.45,3.16 -2.133,4.037 -0.69,5.225 z m -34.19,-20.35 c -3.342,2.004 -8.652,-5.992 -10.068,-9.282 2.933,3.776 10.699,7.224 10.068,9.282 z"
         id="path86"
         inkscape:connector-curvature="0" />
      <path
         d="m 221.65,228.04 c -1.85,2.05 -7.671,-3.519 -9.694,-6.341 3.12,2.702 10.512,3.023 9.694,6.341 z"
         id="path88"
         inkscape:connector-curvature="0" />
      <path
         d="m 224.82,232.22 c -0.61,2.801 -9.106,-3.495 -11.092,-6.476 3.663,3.452 11.649,3.14 11.092,6.476 z"
         id="path90"
         inkscape:connector-curvature="0" />
      <path
         d="m 223.52,235.25 c -1.31,2.522 -8.22,-3.727 -9.88,-6.987 4.223,3.685 10.95,4.493 9.88,6.987 z m -3.55,-12.28 c 2.18,-2.299 1.252,-3.376 -0.338,-7 -0.869,3.721 -2.18,5.206 0.338,7 z m 2.89,4.34 c 3.954,0.174 0.038,-4.638 -0.897,-8.68 0.344,4.607 -1.014,8.238 0.897,8.68 z"
         id="path92"
         inkscape:connector-curvature="0" />
      <path
         d="m 225.38,231.13 c 2.74,-0.62 1.95,-4.497 -0.15,-9.193 0.436,5.073 -2.321,8.005 0.15,9.193 z m -0.93,7.67 c -1.03,3.08 -8.826,-4.056 -10.067,-6.755 3.943,3.312 10.763,4.445 10.067,6.755 z"
         id="path94"
         inkscape:connector-curvature="0" />
      <path
         d="m 229.12,243.61 c -1.17,3.082 -9.34,-3.167 -11.839,-6.568 4.922,3.872 12.443,3.513 11.839,6.568 z"
         id="path96"
         inkscape:connector-curvature="0" />
      <path
         d="m 233.88,248.46 c -1.31,4.294 -9.853,-2.56 -12.399,-5.915 5.436,4.151 13.096,2.86 12.399,5.915 z m -8.03,-11.03 c 2.32,1.201 3.258,-5.384 1.949,-10.033 0.017,5.074 -4.654,8.845 -1.949,10.033 z"
         id="path98"
         inkscape:connector-curvature="0" />
      <path
         d="m 229.81,242.66 c 2.788,0.828 1.904,-6.27 -0.478,-10.873 -0.309,4.561 -2.366,8.892 0.478,10.873 z m 4.95,4.9 c 3.114,0.174 0.971,-6.084 -1.597,-9.613 0.437,4.607 -1.013,9.079 1.597,9.613 z m -5.46,2.67 c -0.936,1.586 -3.226,-1.347 -6.986,-3.489 3.382,0.885 7.402,2.019 6.986,3.489 z m -1.78,-52.74 c 2.906,-2.15 0.69,-6.173 0,-9.998 -0.935,3.628 -3.397,8.389 0,9.998 z m -0.1,5.36 c -4.366,-0.524 -3.71,-6.171 -3.84,-9.75 1.312,4.858 4.891,5.679 3.84,9.75 z m 0.69,-0.73 c 3.694,-0.214 3.498,-4.417 3.695,-8.668 -1.872,3.907 -4.09,4.514 -3.695,8.668 z"
         id="path100"
         inkscape:connector-curvature="0" />
      <path
         d="m 227.96,207.34 c -2.873,0.23 -4.366,-2.594 -5.023,-6.993 2.725,4.054 5.203,2.79 5.023,6.993 z m 1.03,-0.35 c 3.694,0.475 3.104,-3.825 2.955,-6.995 -1.132,3.022 -4.136,3.974 -2.955,6.995 z"
         id="path102"
         inkscape:connector-curvature="0" />
      <path
         d="m 223.23,205.17 c 0.295,2.807 2.07,7.634 4.926,6.55 1.181,-3.448 -2.513,-4.137 -4.926,-6.55 z"
         id="path104"
         inkscape:connector-curvature="0" />
      <path
         d="m 229.04,212.02 c -1.28,-2.462 2.905,-3.695 3.792,-6.895 0.509,4.58 0.082,7.584 -3.792,6.895 z m -11.91,-29.18 c 2.3,-2.477 0.269,-6.406 -0.42,-10.231 -0.936,3.628 -2.557,8.435 0.42,10.231 z m -0.07,4.61 c -4.039,0.41 -5.016,-7.804 -5.427,-11.337 1.313,4.859 5.965,7.08 5.427,11.337 z m 0.83,-0.08 c 2.854,-1.474 2.191,-4.65 3.088,-7.035 -1.919,2.928 -3.669,3.347 -3.088,7.035 z"
         id="path106"
         inkscape:connector-curvature="0" />
      <path
         d="m 217.09,192.75 c -4.225,0.362 -6.742,-8.739 -6.874,-12.318 1.313,4.859 7.366,7.5 6.874,12.318 z m 0.81,-0.14 c 3.973,-0.914 3.498,-3.483 2.902,-7.642 -1.265,4.188 -3.483,3.3 -2.902,7.642 z"
         id="path108"
         inkscape:connector-curvature="0" />
      <path
         d="m 217.04,198 c -4.646,0.788 -4.32,-6.56 -8.009,-11.893 3.191,3.96 8.936,8.95 8.009,11.893 z m 1.05,-0.25 c 3.507,0.102 3.85,-5.179 3.656,-7.32 -0.807,2.133 -4.93,4.159 -3.656,7.32 z"
         id="path110"
         inkscape:connector-curvature="0" />
      <path
         d="m 209.78,192.34 c 1.742,5.654 4.216,11.32 7.259,10.89 1.46,-3.215 -2.887,-3.624 -7.259,-10.89 z"
         id="path112"
         inkscape:connector-curvature="0" />
      <path
         d="m 218.14,202.4 c -1.28,-2.462 2.905,-3.695 3.792,-6.895 0.509,4.58 0.082,7.584 -3.792,6.895 z m -7.16,-3.6 c 2.487,5.094 3.609,10.948 7.024,10.097 1.275,-3.961 -3.771,-4.79 -7.024,-10.097 z"
         id="path114"
         inkscape:connector-curvature="0" />
      <path
         d="m 218.71,207.93 c -1.467,-2.695 2.719,-3.648 3.745,-7.362 0.556,4.86 0.036,8.33 -3.745,7.362 z m 7.16,-34.48 c 2.451,0.663 5.022,-2.09 4.131,-6.208 -2.801,0.697 -4.087,3.24 -4.131,6.208 z m -7.84,-2.06 c 0.214,1.159 1.623,1.264 1.214,-0.373 -0.342,-1.328 -0.4,-2.327 0,-3.407 0.548,-1.353 0.365,-3.658 -0.047,-4.62 -0.416,-1.015 -1.793,-0.42 -1.214,0.375 0.638,0.92 0.672,2.837 0.233,3.732 -0.577,1.32 -0.42,3.075 -0.186,4.293 z m 22.87,15.92 c -0.947,1.393 -2.881,0.541 -1.408,-1.372 1.208,-1.549 2.928,-2.814 3.055,-4.414 0.1,-2.029 1.291,-5.107 2.373,-6.145 1.118,-1.106 2.409,0.45 1.214,1.188 -1.342,0.872 -2.214,4.456 -2.185,5.836 -0.045,2.001 -2.041,3.447 -3.049,4.907 z m -2.98,-2.24 c -0.947,1.393 -2.457,0.585 -1.601,-1.652 0.722,-1.549 0.8,-3.468 1.604,-4.6 1.125,-1.717 3.03,-3.147 4.112,-4.186 1.118,-1.106 2.046,-0.04 1.021,0.908 -1.244,1.245 -2.595,2.795 -3.345,3.97 -1.4,2.28 -0.783,4.1 -1.79,5.56 z m -15.74,-7.21 c -0.112,1.967 1.47,2.443 1.4,-0.409 -0.072,-2.978 -2.179,-5.702 -0.886,-10.235 0.68,-2.217 0.691,-6.281 0.28,-8.441 -0.363,-2.142 -1.887,-0.743 -1.308,0.925 0.638,1.935 -0.12,5.645 -0.607,7.511 -1.463,5.434 1.207,8.08 1.121,10.65 z m 4.32,-10.88 c -0.232,1.81 -1.764,1.974 -1.319,-0.582 0.371,-2.075 0.435,-3.635 0,-5.321 -0.596,-2.114 -0.397,-5.714 0.05,-7.216 0.452,-1.585 1.95,-0.656 1.32,0.584 -0.694,1.439 -0.73,4.432 -0.254,5.83 0.627,2.063 0.457,4.802 0.203,6.705 z M 210.94,204 c 0.758,0.902 2.036,0.298 0.871,-0.923 -0.952,-0.987 -0.639,-1.298 -1.22,-2.5 -0.574,-1.343 -0.544,-2.084 -1.237,-3.044 -0.613,-0.91 -1.535,0.019 -0.917,0.785 0.775,0.906 0.561,1.574 1.035,2.45 0.877,1.5 0.663,2.288 1.468,3.232 z m 20.4,24.61 c 2.44,1.2 4.291,4.196 4.413,6.636 0.207,2.809 0.612,5.18 1.873,7.176 -2.008,-0.559 -2.97,-3.76 -3.255,-6.825 -0.29,-3.173 -1.999,-4.549 -3.031,-6.987 z m 5.08,5.88 c 1.688,3.116 4.049,4.304 4.17,6.617 0.204,2.66 0.406,2.797 1.127,5.413 -1.987,-0.53 -2.487,-0.703 -3.024,-4.684 -0.33,-2.798 -2.57,-4.772 -2.273,-7.346 z"
         id="path116"
         inkscape:connector-curvature="0" />
      <path
         d="m 288.97,263.32 c 0.949,1.788 2.038,4.51 4.013,4.013 0.03,-1.37 -2.131,-2.318 -4.013,-4.013 z m 2.94,0.61 c 3.835,1.572 7.147,1.184 7.56,3.595 -3.598,0.388 -4.914,-1.09 -7.56,-3.595 z m -16.06,-12.69 c 2.583,2.116 4.259,4.531 5.04,7.653 0.815,2.908 1.96,5.226 3.641,7.84 -2.738,-1.867 -4.46,-4.407 -5.32,-7.467 -0.757,-3.009 -1.65,-5.257 -3.361,-8.026 z m 3.18,-0.01 c 2.77,2.21 5.38,4.719 6.16,7.84 0.815,2.908 1.308,5.134 3.175,8.027 -2.925,-1.867 -4.086,-4.688 -4.947,-7.748 -0.756,-3.007 -2.49,-5.255 -4.388,-8.119 z m 9.14,7.24 c -0.076,-0.546 0.297,-1.023 0.747,-1.166 a 33.429,33.429 0 0 1 2.612,-0.84 c 0.986,-0.233 1.538,0.47 1.541,0.933 0.005,0.77 0.04,1.423 0,2.006 -0.053,0.726 -0.192,0.78 -0.653,0.888 -0.738,0.124 -1.685,0.25 -2.426,0.746 -0.588,0.361 -1.153,0.076 -1.447,-0.559 -0.19,-0.485 -0.294,-1.433 -0.374,-2.008 z m 10.63,0 c 0.068,-0.546 -0.22,-1.07 -0.621,-1.213 -0.781,-0.327 -1.56,-0.407 -2.38,-0.374 -0.912,-0.014 -1.141,0.192 -1.144,0.654 -0.004,0.77 -0.037,1.516 0,2.099 0.048,0.726 0.032,0.78 0.444,0.888 0.66,0.124 1.784,0.157 2.447,0.653 0.525,0.36 1.124,0.075 1.153,-0.606 -0.013,-0.513 0.03,-1.526 0.1,-2.101 z"
         id="path118"
         inkscape:connector-curvature="0"
         style="stroke:none" />
    </g>
    <use
       transform="scale(-1,1)"
       xlink:href="#a"
       x="-600"
       width="100%"
       height="100%"
       id="use121"
       y="0" />
    <g
       id="g147"
       style="stroke:none">
      <path
         d="m 328.54,286.65 c 0.047,1.181 0.188,2.131 0.888,3.08 -4.076,-1.633 -9.831,-0.759 -13.767,1.074 -1.756,0.838 -3.88,-0.958 -1.821,-2.66 2.93,-2.374 9.706,-1.028 14.7,-1.494 z m -57.505,-0.062 c 0.057,1.113 -0.072,2.133 -0.481,3.106 4.43,-1.835 9.187,-0.31 13.664,1.494 3.077,1.273 3.325,-0.93 2.782,-1.692 -0.934,-1.353 -2.742,-2.838 -5.028,-2.87 -1.522,-0.021 -7.382,-0.074 -10.937,-0.038 z m 3.74,-21.642 c -1.236,-0.533 -2.672,-0.02 -3.96,1.335 -4.327,4.24 -9.404,8.371 -13.502,11.584 -1.529,1.329 -3.091,3.712 3.431,6.094 0.237,0.09 4.991,1.852 8.004,1.964 1.23,-0.034 1.227,1.803 0.999,2.293 -0.52,0.978 -0.143,1.352 -1.193,2.293 -1.095,0.924 0.117,2.12 0.977,1.307 3.672,-3.188 9.627,-1.148 15.366,0.718 1.356,0.375 3.837,0.27 3.815,-1.6 0.024,-2.038 1.5,-3.48 2.404,-3.532 2.343,0.406 13.919,0.535 17.485,0.102 2.079,-0.27 2.204,2.848 3.316,4.077 0.767,0.815 3.72,1.031 5.743,0.137 4,-1.858 10.097,-1.858 12.582,-0.082 1.021,0.778 1.828,0.147 1.247,-0.643 -0.748,-1.08 -0.731,-1.58 -1.103,-2.433 -0.933,-1.898 -0.188,-2.363 0.79,-2.5 11.054,-1.426 14.582,-5.197 11.202,-8.272 -4.364,-3.828 -9.222,-7.676 -13.408,-12.198 -1.135,-1.2 -1.885,-1.68 -4.247,-0.699 -7.221,3.289 -16.388,5.687 -25.358,5.862 -8.347,0.072 -19.824,-3.79 -24.589,-5.807 z"
         id="path123"
         inkscape:connector-curvature="0" />
      <path
         d="m 326.62,265.54 c -0.58,0.058 -1.197,0.238 -1.656,0.406 -8.921,3.134 -17.117,5.328 -25.656,5.313 -8.335,-0.016 -17.066,-2.31 -24.906,-5.531 -0.446,-0.191 -0.96,-0.161 -1.469,-0.032 -0.509,0.13 -1.012,0.366 -1.344,0.688 -3.64,3.626 -7.582,7.148 -11.812,10.344 -0.639,0.488 -0.535,1.73 0.5,2.156 h 0.031 c 8.305,2.98 16.412,8.532 39.625,8.313 23.433,-0.222 31.746,-5.64 39.188,-8.125 0.525,-0.2 1.065,-0.5 1.313,-0.97 a 1.03,1.03 0 0 0 0.062,-0.812 c -0.095,-0.286 -0.283,-0.554 -0.625,-0.843 h -0.03 c -4.224,-3.453 -8.75,-6.207 -11.72,-10.406 -0.334,-0.48 -0.92,-0.558 -1.5,-0.5 z m 0.031,0.438 c 0.507,-0.051 0.895,0.027 1.094,0.312 3.041,4.301 7.621,7.074 11.812,10.5 0.3,0.254 0.442,0.48 0.5,0.656 a 0.498,0.498 0 0 1 -0.031,0.438 c -0.15,0.284 -0.59,0.57 -1.063,0.75 -7.534,2.515 -15.668,7.904 -39.03,8.125 -23.116,0.218 -31.095,-5.303 -39.47,-8.313 -0.754,-0.31 -0.687,-1.16 -0.406,-1.375 4.242,-3.206 8.227,-6.741 11.875,-10.375 0.25,-0.243 0.653,-0.45 1.094,-0.562 0.44,-0.113 0.912,-0.131 1.219,0 7.879,3.238 16.613,5.578 25.03,5.594 8.619,0.015 16.904,-2.204 25.845,-5.344 0.445,-0.163 1.024,-0.356 1.53,-0.406 z"
         id="path125"
         inkscape:connector-curvature="0"
         style="fill:#bd6b00" />
      <path
         d="m 269.71,114.56 c -0.068,-1.379 2.07,-1.484 1.824,0.412 -0.313,2.362 4.459,8.342 4.854,12.029 0.265,2.473 -1.453,4.637 -3.154,5.984 -2.086,1.616 -5.293,1.394 -6.794,0.467 -0.908,-0.731 -1.735,-3.234 -1.056,-4.224 0.24,-0.334 1.328,3.673 3.722,3.657 3.258,-0.02 5.896,-2.468 5.993,-4.65 0.167,-3.802 -5.33,-9.81 -5.389,-13.676 z m 9.53,9.39 c 0.539,-0.385 1.399,1.296 0.792,1.716 -0.505,0.337 -1.492,-1.25 -0.792,-1.716 z m 1.45,-3.41 c -0.272,0.132 -0.814,-0.056 -0.652,-0.287 0.762,-1.089 2.387,-2.728 3.565,-3.3 0.362,-0.176 0.995,0.463 0.776,0.776 -0.705,1.007 -2.42,2.195 -3.689,2.811 z m 12.59,-9.99 c 0.302,-0.63 2.117,-1.344 2.58,-1.77 0.427,-0.439 0.631,0.37 0.448,0.751 -0.302,0.63 -1.868,1.696 -2.555,1.724 -0.37,0.016 -0.656,-0.324 -0.473,-0.705 z m 4.31,0.2 c 0.393,-1.107 1.66,-2.786 2.533,-3.339 0.448,-0.283 1.252,-0.06 1.101,0.364 -0.333,0.94 -1.884,2.581 -2.927,3.355 -0.316,0.282 -0.798,-0.123 -0.707,-0.38 z m -3.69,2.77 c -0.263,0.132 -0.12,0.691 0.133,0.776 0.538,0.18 1.52,0.214 1.964,-0.03 0.645,-0.398 0.35,-2.845 -0.513,-1.538 -0.58,0.806 -1.002,0.547 -1.584,0.792 z m -7.29,5.62 c -1.318,-1.026 0.355,-2.464 1.732,-1.46 2.683,2.024 -4.003,9.778 -7.64,13.403 -0.666,0.71 -1.25,-1.078 -0.397,-1.848 2.608,-2.212 5.05,-4.855 6.747,-7.586 0.327,-0.525 0.64,-1.658 -0.442,-2.509 z m 15.27,-6.67 c 0.164,-0.982 -1.589,0.02 -1.621,-1.281 -0.017,-0.69 1.915,-1.173 2.722,-0.38 1.365,1.384 0.345,3.718 -1.924,3.865 -1.891,0.084 -5.046,2.685 -4.566,3.232 0.546,0.675 5.45,1.121 8.302,0.675 1.765,-0.248 1.395,1.331 -0.414,1.545 -1.747,0.201 -3.171,0.015 -4.805,0.528 -1.922,0.549 -2.76,3.13 -3.828,4.092 -0.238,0.167 -0.88,-0.846 -0.636,-1.227 0.77,-1.203 1.996,-3.045 3.346,-3.572 0.852,-0.345 -2.348,-0.454 -3.37,-0.745 -0.81,-0.244 -0.574,-1.274 -0.264,-1.848 0.412,-0.895 3.429,-3.916 4.645,-3.867 1.142,0.049 2.3,-0.284 2.413,-1.017 z m 5.08,0.26 c 0.567,-0.5 0.858,-1.338 1.453,-1.848 0.326,-0.327 0.847,0.065 0.76,0.853 -0.073,0.621 -0.907,1.156 -1.468,1.623 -0.456,0.342 -0.986,-0.396 -0.745,-0.628 z m 6.47,-2.3 c 0.845,-0.093 1.055,1.537 0.131,1.801 -0.56,0.187 -1.05,-1.705 -0.131,-1.801 z m -2.13,5.04 c -0.013,1.404 0.68,1.275 2.002,1.227 1.283,-0.049 2.412,0.033 2.407,-1.235 -0.006,-1.314 -0.727,-2.464 -0.939,-1.57 -0.186,0.84 -0.334,2.216 -0.823,1.617 -0.46,-0.515 -0.278,-0.628 -1.071,0.217 -0.44,0.466 -0.49,-0.226 -0.754,-0.66 -0.184,-0.257 -0.82,0.208 -0.822,0.404 z m -9.22,7.16 c -0.315,1.858 -0.026,4.459 0.925,4.488 1.175,0.038 3.607,-4.061 4.759,-6.188 0.69,-1.187 1.877,-1.394 1.382,-0.156 -0.749,1.91 -0.682,5.998 -0.024,7.199 0.354,0.647 2.964,-0.593 3.386,-1.515 0.767,-1.675 0.143,-4.762 0.412,-6.647 0.13,-1.237 1.263,-1.496 1.203,-0.349 -0.112,2.052 -0.307,5.815 -0.162,7.524 0.086,0.982 2.894,2.432 3.346,-0.543 0.238,-1.872 1.202,-3.719 -0.047,-5.793 -0.774,-1.297 1.136,-1.134 2.166,0.637 0.72,1.206 -0.607,3.202 -0.56,4.744 0.12,2.373 -1.726,3.722 -3.066,3.75 -1.197,0.024 -1.977,-1.446 -2.957,-1.467 -1.089,-0.07 -2.207,1.693 -3.106,1.63 -3.486,-0.238 -1.64,-5.333 -2.703,-5.395 -1.181,-0.07 -2.574,4.994 -4.03,4.813 -1.434,-0.172 -2.919,-4.127 -2.322,-5.8 0.54,-1.557 1.558,-1.922 1.398,-0.932 z"
         id="path127"
         inkscape:connector-curvature="0" />
      <path
         d="m 318.96,114.6 c -1.701,-1.038 0.108,-3.736 0.939,-2.788 1.606,1.923 3.224,6.487 4.356,6.864 0.716,0.24 0.683,-3.374 1.188,-5.016 0.326,-1.213 1.793,-0.817 1.513,0.737 -0.096,0.52 -1.917,6.422 -1.777,6.655 1.262,2.522 2.51,5.081 3.3,7.788 0.326,1.167 -1.075,0.381 -1.243,0.139 -0.894,-1.338 -2.46,-6.452 -2.46,-6.219 -0.72,3.598 -0.89,4.66 -1.655,7.717 -0.233,0.98 -1.675,0.802 -1.35,-0.924 0.313,-1.418 2.375,-8.392 2.259,-8.594 -1.621,-2.862 -3.104,-5.125 -5.07,-6.359 z"
         id="path129"
         inkscape:connector-curvature="0" />
      <path
         d="m 322.03,131.2 c -0.474,-0.054 -1.21,1.055 1.152,1.49 3.156,0.572 6.61,-0.491 7.67,-3.586 1.212,-3.687 2.013,-7.177 2.646,-8.493 0.791,-1.535 1.803,-1.411 1.056,-3.651 -0.526,-1.612 -1.51,-1.126 -1.716,-0.264 -0.552,2.35 -2.646,9.952 -3.3,11.352 -1.233,2.555 -3.718,3.565 -7.508,3.152 z"
         id="path131"
         inkscape:connector-curvature="0" />
      <path
         d="m 328.35,119.07 c -0.338,-0.725 -1.127,-0.164 -0.986,0.63 a 1.197,1.197 0 0 0 1.25,1.086 c 0.692,-0.024 2.155,0.023 2.159,-1.125 0.002,-0.807 -0.632,-1.481 -1.103,-0.591 -0.45,0.806 -1.03,0.722 -1.32,0 z m 0.79,-3.04 c -0.243,0.168 -0.025,1.066 0.264,1.056 1.031,-0.035 2.492,-0.363 3.275,-0.908 0.229,-0.16 0.133,-0.702 -0.193,-0.69 -0.994,0.032 -2.575,0.006 -3.346,0.542 z m 8.76,2.26 c 0.747,-1.167 2.806,-1.286 2.066,0.38 -0.525,1.148 -5.652,11.055 -6.352,12.315 -0.764,1.417 -1.389,0.715 -0.846,-0.388 0.73,-1.42 4.898,-11.962 5.132,-12.307 z"
         id="path133"
         inkscape:connector-curvature="0" />
      <path
         d="m 330.18,133.04 c -0.219,-0.788 -1.442,-1.954 -1.304,0.155 0.243,3.828 5.503,2.618 7.096,1.257 1.445,-1.28 0.19,4.323 2.112,4.922 1.058,0.34 3.05,-1.105 4.03,-2.376 2.717,-3.525 4.446,-8.578 7.058,-12.058 0.987,-1.36 -0.54,-2.332 -1.157,-1.25 -2.272,3.81 -5.094,11.586 -8.176,13.605 -2.513,1.608 -1.768,-2.07 -1.856,-3.176 -0.11,-0.81 -1.097,-2.003 -2.415,-0.908 -0.921,0.72 -2.352,1.305 -3.648,1.188 -0.752,-0.042 -1.386,-0.029 -1.74,-1.359 z"
         id="path135"
         inkscape:connector-curvature="0" />
      <path
         d="m 339.57,125.93 c 0.028,-0.216 -1.112,-0.314 -1.056,0.792 0.04,0.819 1.019,1.041 1.188,0.924 1.54,-1.12 -0.328,-0.562 -0.132,-1.716 z m -2.24,4.49 c -0.303,0.071 -0.582,1.04 0.133,1.095 0.653,0.046 3.213,-0.229 3.92,-0.187 0.458,-0.017 0.632,-0.892 -0.348,-0.845 -1.19,0.06 -2.754,-0.239 -3.705,-0.063 z m -61.96,-16.66 c 0.406,0.02 1.52,1.462 1.447,1.913 -0.05,0.213 -1.191,-0.031 -1.54,-0.326 -0.258,-0.219 -0.154,-1.599 0.093,-1.587 z m -5.369,10.452 c -1.017,0.555 0.162,1.651 0.924,1.188 2.86,-1.853 7.154,-3.799 8.052,-7.468 0.287,-1.243 1.443,-3.148 2.54,-3.573 1.059,-0.411 2.598,1.917 3.602,0.085 0.59,-1.047 2.654,0.687 3.152,-0.433 0.607,-1.354 0.318,-2.099 0.343,-3.395 -0.045,-0.85 -0.693,-1.103 -1.164,0.272 -0.245,0.623 0.043,1.251 -0.156,1.576 -0.152,0.247 -0.625,0.486 -0.9,0.28 -0.253,-0.19 -0.078,-0.72 -0.685,-0.955 -0.235,-0.118 -0.612,-0.216 -0.776,0.086 -0.72,1.284 -1.12,2.482 -2.128,1.117 -0.898,-1.176 -1.353,-3.209 -2.011,-0.427 -0.237,0.982 -1.73,2.407 -2.61,2.407 -1.099,0 -0.823,-2.894 -3.237,-2.453 -1.241,0.264 -1.155,2.64 -0.97,3.517 0.305,1.22 3.931,0.344 3.751,1.141 -0.62,2.771 -4.467,5.406 -7.727,7.035 z M 247.3,137.42 c -0.154,0.464 0.462,1.723 1.101,1.816 0.628,0.046 0.948,-1.36 0.746,-1.816 -0.15,-0.336 -1.737,-0.329 -1.847,0 z m 3.33,4.88 c -0.403,-0.434 -1.589,0.73 -0.63,1.553 0.54,0.436 2.513,1.07 3.053,0.148 0.73,-1.185 -0.72,-5.488 -0.078,-6.057 0.502,-0.444 2.828,2.875 3.976,3.114 2.697,0.373 2.05,-4.619 4.956,-4.28 1.98,0.264 2.198,-2.211 1.922,-3.756 -0.22,-1.483 -2.622,-3.624 -3.726,-4.582 -1.452,-1.21 -2.1,0.892 -1.188,1.584 1.173,0.94 3.236,2.837 3.565,4.093 0.155,0.592 -1.434,1.77 -2.02,1.451 -1.35,-0.737 -2.607,-3.898 -3.789,-4.62 -0.402,-0.246 -1.393,0.31 -0.916,1.296 0.536,1.057 2.905,2.693 3.044,3.821 0.125,1.029 -1.056,3.253 -1.831,3.253 -0.853,0 -3.028,-2.688 -3.706,-3.953 -0.34,-0.606 -1.515,-0.547 -1.638,0.29 -0.195,1.255 0.182,3.912 0.481,5.558 0.238,1.559 -0.878,1.638 -1.475,1.087 z m -4.07,-8.57 c -0.34,0.384 0.792,1.134 1.017,0.94 0.436,-0.378 2.128,-2.308 1.802,-2.983 -0.29,-0.601 -2.618,-1.918 -2.997,-1.266 -0.702,1.128 2.195,1.634 1.74,1.965 -0.223,0.128 -1.02,0.679 -1.562,1.344 z m 4.17,-8.46 c 0,0 0.728,2.49 1.32,1.452 0.48,-0.719 -1.32,-1.452 -1.32,-1.452 z m 1.19,3.96 c -0.266,0.146 -1.017,0.74 -0.528,1.056 0.773,0.457 2.875,0.82 2.421,-0.676 -0.275,-0.88 3.171,0.025 2.331,-2.36 -0.22,-0.66 -1.259,-1.612 -1.77,-1.747 -0.325,-0.085 -1.429,0.52 -0.738,0.854 0.504,0.26 2.024,1.154 1.46,1.74 -0.642,0.612 -1.089,-0.275 -1.887,-0.132 -0.401,0.076 -0.14,1.218 -0.366,1.53 -0.126,0.172 -0.706,-0.383 -0.923,-0.265 z m 5.48,-9.46 c -0.435,0.217 -1.214,1.396 -1.242,1.941 -0.016,0.291 0.303,0.691 0.552,0.567 0.456,-0.228 1.16,-1.344 1.187,-1.856 0.017,-0.324 -0.227,-0.787 -0.497,-0.652 z m 2.84,-0.31 c -0.84,-1.027 0.891,-2.55 1.67,-0.496 0.47,1.29 5.488,7.892 6.514,10.132 0.727,1.516 -0.026,2.142 -0.924,1.056 -2.541,-3.242 -4.626,-7.283 -7.26,-10.692 z m 5.15,0.14 c 0.895,-0.97 2.721,-2.95 2.23,-4.053 -0.378,-0.95 -1.488,-0.856 -1.678,-0.636 -1.086,1.296 0.772,0.97 0.504,1.413 -0.553,1.038 -1.104,1.61 -1.39,2.608 -0.066,0.234 0.173,0.843 0.334,0.668 z m 77.78,3.24 c -0.643,-0.52 0.632,-3.044 1.494,-2.053 2.368,2.74 3.469,11.636 4.153,18.294 0,0 -1.064,0.887 -1.073,0.746 0,-3.547 -1.425,-14.397 -4.574,-16.987 z m -53.1,-8.66 c -0.766,-1.76 1.15,-2.412 1.436,-1.157 1.33,5.783 4.517,10.16 6.942,14.093 0.73,1.23 0.145,1.962 -1.63,0.83 -1.23,-0.842 -2.478,-3.916 -3.083,-4.037 -1.094,-0.204 -3.713,4.993 -9.07,3.51 -1.385,-0.388 -1.293,-4.508 -1.32,-6.329 -0.058,-0.853 0.885,-1.078 0.917,0.086 0.049,1.678 -0.002,5.164 2.144,5.281 1.75,0.098 5.627,-2.376 6.444,-4.31 0.728,-1.99 -1.952,-5.942 -2.78,-7.967 z"
         id="path137"
         inkscape:connector-curvature="0" />
      <path
         d="m 344.61,138.38 c 0.428,-1.191 6.114,-10.735 6.86,-12.835 0.383,-1.013 2.015,1.737 0.421,3.22 -1.4,1.26 -5.53,8.034 -6.301,10.408 -0.355,1.072 -1.432,0.562 -0.98,-0.793 z"
         id="path139"
         inkscape:connector-curvature="0" />
      <path
         d="m 354.28,129.28 c 1.05,-3.935 3.593,0.607 1.353,2.847 -3.458,3.387 -4.5,9.854 -9.987,10.827 -1.479,0.318 -4.082,-0.666 -4.853,-1.214 -0.301,-0.214 0.194,-1.618 1.119,-0.933 1.337,1.044 4.098,1.28 5.555,0.093 3.118,-3.06 5.657,-7.113 6.813,-11.62 z m -57.01,12.74 c -0.247,0.284 -1.004,0.238 -1.072,0.637 -0.297,1.48 0,2.23 -0.326,3.655 -0.312,1.365 -1.259,1.416 -1.194,0.304 0.086,-1.442 1.274,-3.478 0.435,-3.618 -0.56,-0.13 -0.99,-0.879 -0.413,-1.248 1.092,-0.757 1.679,-0.641 2.43,-0.413 0.26,0.08 0.328,0.464 0.14,0.683 z"
         id="path141"
         inkscape:connector-curvature="0" />
      <path
         d="m 296.5,140.09 c -1.448,1.266 -2.79,1.784 -4.123,3.384 -0.544,0.656 -0.529,1.57 -0.854,2.406 -0.326,0.888 -1.375,1.062 -1.7,0.877 -0.543,-0.357 -0.465,-2.003 -1.071,-1.117 -0.515,0.816 -0.847,1.94 -1.608,1.926 -0.689,-0.014 -1.987,-1.422 -1.329,-1.49 2.252,-0.23 2.225,-2.033 3.068,-2.151 0.946,-0.127 1.008,1.488 1.592,1.165 0.46,-0.236 0.675,-2.117 1.173,-2.625 1.527,-1.56 2.735,-2.385 4.293,-3.531 0.788,-0.629 1.35,0.505 0.559,1.156 z m 5.28,4.85 c -1.159,0.234 -0.962,1.724 -0.621,1.909 0.561,0.262 1.43,0.372 1.755,-1.342 0.151,-0.703 0.289,3.498 1.831,1.88 0.888,-0.981 3.087,0.178 4.008,-1.056 0.66,-0.822 0.863,-1.396 0.349,-2.61 -0.15,-0.369 -1.053,-0.187 -1.001,0.709 0.045,0.755 -0.535,1.687 -1.29,1.528 -0.367,-0.067 0.206,-1.847 -0.162,-2.33 -0.203,-0.265 -0.511,-0.236 -0.713,0.039 -0.283,0.384 0.284,2.09 -0.646,2.315 -1.174,0.27 -0.56,-1.141 -1.056,-1.4 -1.599,-0.806 -1.753,0.21 -2.454,0.358 z m 9.05,-2.86 c 0.85,-0.239 0.584,-0.24 1.921,-1.334 0.52,-0.395 0.624,0.76 0.569,1.216 -0.097,0.775 -1.018,0.228 -1.304,0.91 -0.418,0.886 -0.248,2.948 -0.388,3.788 -0.096,0.431 -0.787,0.394 -0.853,0.054 -0.198,-1.024 0.14,-2.026 0.108,-3.307 -0.011,-0.435 -0.634,-1.117 -0.053,-1.327 z m -5,-2.62 c -0.205,0.927 -0.19,1.69 -0.19,2.325 0.047,0.514 0.986,0.183 0.982,0.118 -0.047,-0.814 0.139,-1.94 -0.102,-2.253 -0.13,-0.17 -0.642,-0.365 -0.69,-0.19 z"
         id="path143"
         inkscape:connector-curvature="0" />
      <path
         d="m 299.54,130.19 -1.458,5.594 -2.03,-3.75 v 3.844 l -4.374,-5.188 1.521,5.563 -3.93,-3.344 2.092,3.781 -6.975,-4.5 4.438,5.188 -5.58,-2.75 3.995,3.375 -9.13,-3.438 8.813,4.344 c 3.223,-1.588 7.64,-2.563 12.554,-2.563 4.896,0 9.335,0.985 12.554,2.563 0.012,0.006 0.052,-0.006 0.064,0 l 8.75,-4.344 -9.004,3.469 3.931,-3.406 -5.516,2.718 4.375,-5.156 -6.975,4.5 2.093,-3.781 -3.932,3.344 1.522,-5.563 -4.375,5.22 0.063,-3.876 -2.029,3.75 -1.458,-5.594 z"
         id="path145"
         inkscape:connector-curvature="0" />
    </g>
  </g>
  <path
     d="m 10.376667,9.83033 c 0,0.021 -0.0031,0.0514 -0.0095,0.091 h -0.01467 c 0,-0.027 -0.0013,-0.0478 -0.0038,-0.0623 a 0.30853333,0.30853333 0 0 0 -0.01423,-0.0519 0.242,0.242 0 0 0 -0.0192,-0.0431 c -0.007,-0.012 -0.0181,-0.028 -0.03343,-0.0479 l 0.0294,-0.0725 c 0.0136,0.0174 0.02323,0.0307 0.02893,0.0401 0.0065,0.0107 0.01257,0.0243 0.01823,0.0405 a 0.3121,0.3121 0 0 1 0.01827,0.1062 m 0.2304,-0.14036 c 0,0.0221 -0.0042,0.0387 -0.01257,0.0498 -0.0083,0.0111 -0.02267,0.019 -0.0429,0.0237 0.0059,0.0205 0.0097,0.0366 0.01163,0.0481 0.002,0.0115 0.0031,0.0244 0.0031,0.0387 0,0.009 -5.33e-4,0.0189 -0.0017,0.0294 a 0.74933333,0.74933333 0 0 1 -0.0054,0.0422 h -0.01327 a 0.27466667,0.27466667 0 0 0 -0.0026,-0.0408 0.18426667,0.18426667 0 0 0 -0.0073,-0.0325 c -8e-4,-0.003 -0.005,-0.0137 -0.01257,-0.0334 a 0.35083333,0.35083333 0 0 0 -0.0223,-0.0495 c -0.0073,-0.0133 -0.0192,-0.0315 -0.03577,-0.0548 l 0.02273,-0.0683 c 0.012,0.0172 0.02253,0.0291 0.03153,0.0358 0.009,0.006 0.01967,0.01 0.032,0.01 0.02687,0 0.04033,-0.0145 0.04033,-0.0436 h 0.01373 c 0,0.009 2.33e-4,0.0174 6.67e-4,0.0237 5e-4,0.006 7.33e-4,0.0135 7.33e-4,0.0218 M 10.81877,9.8506 10.8017,9.9217 C 10.79097,9.9187 10.7822,9.9103 10.77537,9.8964 10.76967,9.8848 10.76557,9.8702 10.76307,9.8525 a 0.41386667,0.41386667 0 0 1 -0.0036,-0.055 c -0.01437,0.004 -0.02573,0.006 -0.03413,0.006 -0.0166,0 -0.03033,-0.004 -0.04123,-0.013 A 0.0415,0.0415 0 0 1 10.66798,9.7571 c 0,-0.0289 0.0074,-0.0549 0.0223,-0.078 0.015,-0.0232 0.0319,-0.0348 0.05073,-0.0349 0.01453,0 0.02467,0.004 0.03033,0.0123 a 0.06666667,0.06666667 0 0 1 0.0116,0.0308 c 0.0014,0.0115 0.0021,0.0338 0.0021,0.0668 0,0.0296 0.0024,0.0504 0.0071,0.0626 0.0038,0.009 0.01263,0.0209 0.02653,0.0341 m -0.064,-0.11807 c -0.0028,-0.018 -0.01233,-0.027 -0.02843,-0.027 -0.007,0 -0.01333,0.002 -0.0192,0.006 -0.0059,0.004 -0.0088,0.007 -0.0088,0.01 0,0.009 0.01133,0.0142 0.03413,0.0142 0.0073,0 0.01467,-9.7e-4 0.02227,-0.003 m 0.288034,0.10034 -0.0085,0.0863 c -0.0169,-0.0119 -0.03253,-0.0333 -0.04693,-0.0642 -0.015,-0.0324 -0.03017,-0.0783 -0.0455,-0.13773 -0.01313,0.0572 -0.02397,0.0992 -0.0325,0.12587 -0.0083,0.0265 -0.01667,0.0453 -0.02487,0.0564 -0.0055,0.007 -0.0144,0.0149 -0.02657,0.0225 l 0.0019,-0.0825 c 0.01567,-0.0213 0.02663,-0.0376 0.03297,-0.0488 a 0.25433333,0.25433333 0 0 0 0.023,-0.0581 c 0.0061,-0.0223 0.01167,-0.0521 0.01657,-0.0894 h 0.01567 c 0.0096,0.0374 0.01897,0.0672 0.02797,0.0893 0.0084,0.0209 0.01817,0.0393 0.0294,0.0553 0.0079,0.0112 0.02037,0.0262 0.03743,0.045"
     id="path151"
     inkscape:connector-curvature="0"
     style="fill:#ffffff;stroke-width:0.03333334" />
  <path
     d="m 11.694,10.64637 c 0.0115,0.0135 0.0196,0.0268 0.02427,0.0398 0.0045,0.0128 0.0078,0.0312 0.0098,0.055 l -0.02573,0.002 c -0.01093,-0.0214 -0.0216,-0.0382 -0.03197,-0.0504 -0.0079,-0.009 -0.02067,-0.0224 -0.03827,-0.0395 a 1.5346,1.5346 0 0 0 -0.054,-0.0499 1.1461333,1.1461333 0 0 0 -0.07077,-0.0567 c -0.01007,-0.007 -0.01643,-0.0128 -0.01917,-0.016 -0.004,-0.005 -0.0072,-0.014 -0.0095,-0.0278 a 0.37366667,0.37366667 0 0 1 -0.0046,-0.0522 l 0.08977,0.073 a 1.4772333,1.4772333 0 0 1 0.0841,0.0739 c 0.0171,0.0164 0.03243,0.0327 0.046,0.0486 m -0.318333,-0.19187 -0.0054,0.066 -0.105733,-0.003 0.008,-0.0674 0.103134,0.004 m 0.2781,0.29553 -0.2519,0.0767 -0.04633,-0.0641 0.217734,-0.0663 c -0.0099,-0.0137 -0.0175,-0.0232 -0.02293,-0.0287 a 0.09446667,0.09446667 0 0 0 -0.02883,-0.0197 0.04743333,0.04743333 0 0 1 -0.01503,0.0319 c -0.0093,0.009 -0.02133,0.016 -0.0361,0.0205 a 0.11263333,0.11263333 0 0 1 -0.05803,0.002 c -0.01933,-0.004 -0.03353,-0.0127 -0.04263,-0.0252 -0.0134,-0.0185 -0.0206,-0.0432 -0.02157,-0.0739 -0.0011,-0.0338 0.0081,-0.0537 0.02773,-0.0596 0.0254,-0.008 0.05973,-6.6e-4 0.103033,0.0212 0.0433,0.0219 0.07653,0.0488 0.0997,0.0808 l 0.07517,0.10386 m -0.193467,-0.1345 c -0.01187,-0.005 -0.02133,-0.009 -0.0285,-0.01 a 0.03783333,0.03783333 0 0 0 -0.0192,4e-4 0.02283333,0.02283333 0 0 0 -0.015,0.0123 0.01643333,0.01643333 0 0 0 0.002,0.0175 c 0.0026,0.004 0.007,0.006 0.01317,0.007 0.0063,9.7e-4 0.013,3.7e-4 0.02,-0.002 0.0056,-0.002 0.01037,-0.004 0.01447,-0.008 0.0042,-0.004 0.0086,-0.01 0.01303,-0.0175 m -0.269833,-0.0516 -0.0154,0.0653 -0.104767,-0.01 0.0159,-0.066 0.104267,0.0103 m 0.248333,0.25513 -0.05597,0.0128 a 0.17633333,0.17633333 0 0 1 -0.0568,0.004 0.11863333,0.11863333 0 0 1 -0.05043,-0.0169 c -0.0093,0.0169 -0.02553,0.031 -0.0488,0.0424 a 0.247,0.247 0 0 1 -0.05377,0.0184 l -0.03967,0.009 -0.03637,-0.0667 0.03967,-0.009 c 0.02093,-0.005 0.0352,-0.009 0.0428,-0.012 0.0078,-0.003 0.0175,-0.009 0.0292,-0.0175 -0.01283,-0.008 -0.02317,-0.0133 -0.031,-0.0163 -0.0096,-0.004 -0.018,-0.004 -0.02533,-0.003 a 0.0134,0.0134 0 0 0 -0.0069,0.004 0.02033333,0.02033333 0 0 0 -0.0042,0.009 l -0.01743,0.002 c -0.01613,-0.0296 -0.0198,-0.0525 -0.01103,-0.0686 0.0089,-0.0164 0.0304,-0.0285 0.0644,-0.0363 0.03503,-0.008 0.06497,-0.01 0.08977,-0.005 0.02497,0.004 0.04167,0.0141 0.05013,0.0296 0.0046,0.008 0.0063,0.017 0.0052,0.0259 -0.0012,0.009 -0.0055,0.0213 -0.013,0.0377 0.0052,0.002 0.01133,0.004 0.01833,0.004 a 0.06666667,0.06666667 0 0 0 0.0189,-0.001 l 0.05593,-0.0128 0.03633,0.0667 m -0.2674,0.0622 -0.05457,0.009 c -0.0304,0.005 -0.05533,10e-5 -0.0749,-0.014 -0.02173,-0.0155 -0.04047,-0.0444 -0.05623,-0.0867 l -0.02687,-0.0721 c -0.0061,-0.0164 -0.01433,-0.0285 -0.02473,-0.0365 -0.005,-0.004 -0.01517,-0.009 -0.03043,-0.0153 l 0.01853,-0.0698 c 0.02007,0.0111 0.03557,0.0228 0.04643,0.035 0.01273,0.0142 0.02353,0.0332 0.0324,0.057 l 0.01853,0.0498 c 0.01313,0.0352 0.02587,0.0591 0.03823,0.0716 0.0098,0.01 0.02093,0.0141 0.0334,0.0121 l 0.05457,-0.009 0.02563,0.0688 m -0.233167,-0.25043 -0.03523,0.062 -0.09967,-0.023 0.0355,-0.0626 0.0994,0.0236 m 0.058,0.2808 -0.2486,0.0225 -0.01507,-0.0701 0.208867,-0.0189 a 0.0774,0.0774 0 0 0 -0.02227,-0.0282 c -0.0049,-0.004 -0.01583,-0.011 -0.03277,-0.0207 l 0.01857,-0.0642 c 0.023,0.0128 0.0398,0.0269 0.05037,0.0422 0.01087,0.0153 0.01967,0.0387 0.02643,0.0701 l 0.01447,0.0673 m -0.199567,0.0318 c -0.0299,-0.001 -0.05463,-0.003 -0.07417,-0.007 a 0.34966667,0.34966667 0 0 1 -0.0574,-0.0152 0.1871,0.1871 0 0 1 -0.04277,0.0127 c -0.01217,0.002 -0.03043,0.002 -0.0547,0.002 l -0.06527,-0.002 c -0.0179,-6e-4 -0.0318,-0.004 -0.04173,-0.0105 -0.0099,-0.006 -0.0185,-0.0167 -0.02567,-0.0311 a 0.13723333,0.13723333 0 0 1 -0.0517,0.0296 c -0.0159,0.005 -0.03467,0.007 -0.0563,0.006 l -0.05727,-0.002 0.0056,-0.0707 0.05727,0.002 c 0.028,9.3e-4 0.05177,-0.003 0.07127,-0.013 0.02533,-0.0125 0.0391,-0.0324 0.04123,-0.0596 l 0.02623,0.003 c -9.67e-4,0.006 -0.002,0.0118 -0.0031,0.0189 -0.0011,0.007 -0.002,0.015 -0.0027,0.0236 -6.67e-4,0.009 0.0034,0.0163 0.01227,0.0226 0.0089,0.006 0.01933,0.01 0.03133,0.01 l 0.04927,0.002 c 0.03257,0.001 0.056,-10e-4 0.07033,-0.007 0.0174,-0.007 0.02687,-0.0195 0.0284,-0.0389 3.33e-4,-0.004 0.0026,-0.008 0.0069,-0.011 0.0025,-0.002 0.0077,-0.005 0.01547,-0.008 l 0.01583,-0.007 c 3e-4,0.003 3.33e-4,0.008 1.67e-4,0.0135 a 0.29566667,0.29566667 0 0 1 -4.67e-4,0.0109 c -7.67e-4,0.01 -0.0039,0.0221 -0.0094,0.0377 0.0096,0.003 0.02047,0.007 0.0326,0.009 0.0121,0.003 0.0249,0.005 0.0384,0.007 4.67e-4,-0.006 -0.0023,-0.0136 -0.0082,-0.0232 -0.0059,-0.01 -0.0088,-0.016 -0.0085,-0.0193 a 0.0174,0.0174 0 0 1 0.0036,-0.0103 c 6e-4,-8.4e-4 0.0037,-0.003 0.0094,-0.008 l 0.0364,-0.0287 c 0.0063,0.0112 0.01063,0.0213 0.01287,0.0304 0.0025,0.009 0.0032,0.0201 0.0022,0.0334 l -0.0078,0.0982 m -0.377333,-0.29034 -0.0628,0.0444 -0.04733,-0.0292 -0.04663,0.0348 -0.06227,-0.0376 0.05947,-0.0423 0.05027,0.0281 0.04857,-0.0355 0.06073,0.0373 m -0.09873,0.27064 -0.243334,-0.0399 0.02667,-0.0686 0.2045,0.0335 c 0.0016,-0.0119 1.67e-4,-0.0224 -0.0043,-0.0316 -0.0022,-0.005 -0.0083,-0.0141 -0.01837,-0.0272 l 0.05447,-0.0549 c 0.01387,0.0175 0.02127,0.0346 0.02217,0.0514 0.0012,0.0168 -0.0042,0.0406 -0.0162,0.0714 l -0.02567,0.0658 m -0.204833,-0.0318 -0.05263,-0.0127 c -0.02933,-0.007 -0.046,-0.0199 -0.05013,-0.0387 -0.0047,-0.0208 0.0046,-0.0515 0.02797,-0.0923 l 0.0397,-0.0695 c 0.009,-0.0158 0.01267,-0.0289 0.0109,-0.0393 -8.33e-4,-0.005 -0.0049,-0.0129 -0.0121,-0.0237 l 0.07547,-0.0512 c 0.0071,0.0165 0.0099,0.0318 0.0084,0.0459 -0.0017,0.0164 -0.0091,0.0361 -0.0222,0.059 l -0.02747,0.0481 c -0.01943,0.034 -0.0294,0.0584 -0.0299,0.0733 -5.33e-4,0.0119 0.0052,0.0193 0.01727,0.0222 l 0.05263,0.0127 -0.03793,0.0663 m -0.1246333,-0.26337 -0.0854,0.036 -0.058667,-0.0571 0.086133,-0.0363 0.057933,0.0574 m -0.036333,0.22067 c -0.017733,0.021 -0.0352,0.0367 -0.052333,0.0472 a 0.14133333,0.14133333 0 0 1 -0.057133,0.0194 c -0.020867,0.003 -0.0473,0.001 -0.079267,-0.004 a 0.4946,0.4946 0 0 1 -0.092133,-0.023 c -0.056933,-0.0203 -0.095133,-0.0427 -0.1146,-0.0673 -0.019333,-0.0243 -0.018533,-0.0489 0.00243,-0.0737 a 0.2341,0.2341 0 0 1 0.0638,-0.0526 c 0.0271,-0.0155 0.069433,-0.033 0.1269667,-0.0527 l 0.012967,0.0171 c -0.044933,0.0174 -0.075933,0.0306 -0.093,0.0396 -0.0168,0.009 -0.0304,0.0197 -0.040833,0.032 -0.013533,0.016 -0.011467,0.0337 0.00613,0.0533 0.018,0.0195 0.0484,0.0368 0.0913,0.0521 0.042167,0.015 0.0821,0.0224 0.1197667,0.0222 0.0377,-2e-4 0.063,-0.008 0.075867,-0.0231 0.008,-0.009 0.013333,-0.0197 0.016,-0.0308 0.00293,-0.011 0.0047,-0.0297 0.00533,-0.056 l 0.083033,-0.0505 c 3.4e-5,0.0251 -0.0011,0.042 -0.0036,0.0507 -0.0042,0.0157 -0.01487,0.0338 -0.0321,0.0541 l -0.038633,0.0456"
     id="path153"
     inkscape:connector-curvature="0"
     style="fill:#bf0000;stroke-width:0.03333334" />
</svg>
