<?xml version="1.0" encoding="UTF-8" standalone="no"?>
<svg
   xmlns:dc="http://purl.org/dc/elements/1.1/"
   xmlns:cc="http://creativecommons.org/ns#"
   xmlns:rdf="http://www.w3.org/1999/02/22-rdf-syntax-ns#"
   xmlns:svg="http://www.w3.org/2000/svg"
   xmlns="http://www.w3.org/2000/svg"
   xmlns:sodipodi="http://sodipodi.sourceforge.net/DTD/sodipodi-0.dtd"
   xmlns:inkscape="http://www.inkscape.org/namespaces/inkscape"
   height="15.999998"
   width="21.333332"
   viewBox="0 0 21.333332 15.999998"
   version="1.1"
   id="svg14"
   sodipodi:docname="au.svg"
   inkscape:version="0.92.1 r">
  <metadata
     id="metadata20">
    <rdf:RDF>
      <cc:Work
         rdf:about="">
        <dc:format>image/svg+xml</dc:format>
        <dc:type
           rdf:resource="http://purl.org/dc/dcmitype/StillImage" />
        <dc:title></dc:title>
      </cc:Work>
    </rdf:RDF>
  </metadata>
  <defs
     id="defs18" />
  <sodipodi:namedview
     pagecolor="#ffffff"
     bordercolor="#666666"
     borderopacity="1"
     objecttolerance="10"
     gridtolerance="10"
     guidetolerance="10"
     inkscape:pageopacity="0"
     inkscape:pageshadow="2"
     inkscape:window-width="1920"
     inkscape:window-height="1025"
     id="namedview16"
     showgrid="false"
     fit-margin-top="0"
     fit-margin-left="0"
     fit-margin-right="0"
     fit-margin-bottom="0"
     inkscape:zoom="0.49166667"
     inkscape:cx="320"
     inkscape:cy="240"
     inkscape:window-x="0"
     inkscape:window-y="27"
     inkscape:window-maximized="1"
     inkscape:current-layer="svg14" />
  <g
     id="g12"
     transform="scale(0.03333333)"
     style="stroke-width:1.00000003pt">
    <path
       d="M 0,0 H 640 V 480 H 0 Z"
       id="path2"
       inkscape:connector-curvature="0"
       style="fill:#000066" />
    <path
       d="M 0,0 V 27.95 L 307.037,250 h 38.647 V 222.05 L 38.647,0 Z M 345.684,0 V 27.95 L 38.647,250 H 0 V 222.05 L 307.037,0 Z"
       id="path4"
       inkscape:connector-curvature="0"
       style="fill:#ffffff" />
    <path
       d="m 144.035,0 v 250 h 57.614 V 0 H 144.034 Z M 0,83.333 v 83.333 H 345.684 V 83.333 Z"
       id="path6"
       inkscape:connector-curvature="0"
       style="fill:#ffffff" />
    <path
       d="m 0,100 v 50 H 345.684 V 100 Z M 155.558,0 v 250 h 34.568 V 0 Z M 0,250 115.228,166.666 h 25.765 L 25.765,250 Z M 0,0 115.228,83.333 H 89.463 L 0,18.633 Z M 204.69,83.333 319.92,0 h 25.764 L 230.456,83.333 Z M 345.685,250 230.457,166.666 h 25.765 l 89.464,64.7 V 250 Z"
       id="path8"
       inkscape:connector-curvature="0"
       style="fill:#cc0000" />
    <path
       d="m 299.762,392.523 -43.653,3.795 6.013,43.406 -30.187,-31.764 -30.186,31.764 6.014,-43.406 -43.653,-3.795 37.68,-22.364 -24.244,-36.495 40.97,15.514 13.42,-41.713 13.42,41.712 40.97,-15.515 -24.242,36.494 m 224.444,62.372 -10.537,-15.854 17.81,6.742 5.824,-18.125 5.825,18.126 17.807,-6.742 -10.537,15.854 16.37,9.718 -18.965,1.65 2.616,18.85 -13.116,-13.793 -13.117,13.794 2.616,-18.85 -18.964,-1.65 m 16.368,-291.815 -10.537,-15.856 17.81,6.742 5.824,-18.122 5.825,18.12 17.807,-6.74 -10.537,15.855 16.37,9.717 -18.965,1.65 2.616,18.85 -13.116,-13.793 -13.117,13.794 2.616,-18.85 -18.964,-1.65 m -89.418,104.883 -10.537,-15.853 17.808,6.742 5.825,-18.125 5.825,18.125 17.808,-6.742 -10.536,15.853 16.37,9.72 -18.965,1.65 2.615,18.85 -13.117,-13.795 -13.117,13.795 2.617,-18.85 -18.964,-1.65 m 216.212,-37.929 -10.558,-15.854 17.822,6.742 5.782,-18.125 5.854,18.125 17.772,-6.742 -10.508,15.854 16.362,9.718 -18.97,1.65 2.608,18.85 -13.118,-13.793 -13.117,13.793 2.61,-18.85 -18.936,-1.65 m -22.251,73.394 -10.367,6.425 2.914,-11.84 -9.316,-7.863 12.165,-0.896 4.605,-11.29 4.606,11.29 12.165,0.897 -9.317,7.863 2.912,11.84"
       id="path10"
       inkscape:connector-curvature="0"
       style="fill:#ffffff;fill-rule:evenodd" />
  </g>
</svg>
