<?xml version="1.0" encoding="UTF-8" standalone="no"?>
<svg
   xmlns:dc="http://purl.org/dc/elements/1.1/"
   xmlns:cc="http://creativecommons.org/ns#"
   xmlns:rdf="http://www.w3.org/1999/02/22-rdf-syntax-ns#"
   xmlns:svg="http://www.w3.org/2000/svg"
   xmlns="http://www.w3.org/2000/svg"
   xmlns:sodipodi="http://sodipodi.sourceforge.net/DTD/sodipodi-0.dtd"
   xmlns:inkscape="http://www.inkscape.org/namespaces/inkscape"
   height="16"
   width="21.333332"
   viewBox="0 0 21.333332 16"
   version="1.1"
   id="svg196"
   sodipodi:docname="bm.svg"
   inkscape:version="0.92.1 r">
  <metadata
     id="metadata202">
    <rdf:RDF>
      <cc:Work
         rdf:about="">
        <dc:format>image/svg+xml</dc:format>
        <dc:type
           rdf:resource="http://purl.org/dc/dcmitype/StillImage" />
        <dc:title></dc:title>
      </cc:Work>
    </rdf:RDF>
  </metadata>
  <defs
     id="defs200" />
  <sodipodi:namedview
     pagecolor="#ffffff"
     bordercolor="#666666"
     borderopacity="1"
     objecttolerance="10"
     gridtolerance="10"
     guidetolerance="10"
     inkscape:pageopacity="0"
     inkscape:pageshadow="2"
     inkscape:window-width="1920"
     inkscape:window-height="1024"
     id="namedview198"
     showgrid="false"
     inkscape:zoom="0.49166667"
     inkscape:cx="320"
     inkscape:cy="240"
     inkscape:window-x="0"
     inkscape:window-y="0"
     inkscape:window-maximized="1"
     inkscape:current-layer="svg196"
     fit-margin-top="0"
     fit-margin-left="0"
     fit-margin-right="0"
     fit-margin-bottom="0" />
  <path
     d="M 0,0 H 21.333333 V 16 H 0 Z"
     id="path2"
     inkscape:connector-curvature="0"
     style="fill:#cf142b;stroke-width:0.03333334" />
  <path
     d="M 0,0 H 10.666667 V 5.33333 H 0 Z"
     id="path4"
     inkscape:connector-curvature="0"
     style="fill:#00247d;stroke-width:0.03333334" />
  <path
     d="M 0,0 V 0.59627 L 9.4741333,5.33333 H 10.666667 V 4.73707 L 1.1925333,0 Z M 10.666667,0 V 0.59627 L 1.1925333,5.33333 H 0 V 4.73707 L 9.4741333,0 Z"
     id="path6"
     inkscape:connector-curvature="0"
     style="fill:#ffffff;stroke-width:0.03333334" />
  <path
     d="m 4.4444333,0 v 5.33333 h 1.7778 V 0 Z M 0,1.77777 v 1.7778 h 10.666667 v -1.7778 z"
     id="path8"
     inkscape:connector-curvature="0"
     style="fill:#ffffff;stroke-width:0.03333334" />
  <path
     d="M 0,2.13333 V 3.2 H 10.666667 V 2.13333 Z M 4.8,0 V 5.33333 H 5.8666667 V 0 Z M 0,5.33333 3.5555667,3.55557 h 0.795 L 0.795,5.33333 Z M 0,0 3.5555667,1.77777 h -0.795 L 0,0.3975 Z M 6.3161,1.77777 9.8716667,0 H 10.666667 L 7.1111,1.77777 Z M 10.666667,5.33333 7.1111,3.55557 h 0.795 l 2.760567,1.38026 z"
     id="path10"
     inkscape:connector-curvature="0"
     style="fill:#cf142b;stroke-width:0.03333334" />
  <path
     d="m 18.461,4.942 v 4.5171 c 0,1.20657 -2.412,1.59857 -2.412,1.59857 0,0 -2.411933,-0.392 -2.411933,-1.59857 V 4.942 h 4.824 z"
     id="path12"
     inkscape:connector-curvature="0"
     style="fill:#ffffff;stroke-width:0.03333334" />
  <path
     d="m 18.461,9.4591 c 0,1.20657 -2.412,1.59857 -2.412,1.59857 0,0 -2.411933,-0.392 -2.411933,-1.59857 0,0 0,-0.0972 0.04907,-0.15243 0,0 -0.02657,0.20066 0.1276,0.35246 0,0 -0.120933,-0.2141 -0.0027,-0.42453 0,0 -0.04387,0.27073 0.124933,0.4262 0,0 -0.093,-0.22117 0.012,-0.46777 0,0 -0.05187,0.40347 0.131567,0.4839 0,0 0.05047,-0.23186 -0.0226,-0.38066 0,0 0.126233,0.0509 0.119566,0.38733 0,0 0.03987,-0.0496 0.0505,-0.29217 0,0 0.0053,0.27744 0.101,0.34177 0,0 0.02927,-0.0281 -0.0106,-0.15413 -0.03987,-0.126 0.01727,-0.17017 0.02657,-0.1675 0,0 -0.02093,0.13933 0.0959,0.24393 0,0 -0.05067,-0.21847 0.0198,-0.248 0,0 -0.0146,0.185 0.1316,0.22657 0,0 0.01067,-0.0537 -0.02127,-0.11394 0,0 -0.0279,-0.0715 -0.0067,-0.12623 0,0 0.04653,0.16777 0.110333,0.19593 0,0 -0.03857,-0.0983 -0.0027,-0.19593 0,0 0.008,0.13967 0.1329,0.19727 0,0 -0.08233,-0.1081 -0.0498,-0.227 l 0.8034,0.0393 0.416,0.0199 1.248067,-0.0882 0.215333,-0.185 c 0,0 0.085,0.118 -0.0492,0.30434 0,0 0.133,-0.0242 0.1755,-0.23194 0,0 0.05447,0.11527 -0.02,0.24267 0,0 0.1476,-0.14747 0.168834,-0.315 0,0 0.05717,0.16213 -0.0824,0.3364 0,0 0.124933,-0.0416 0.1781,-0.22653 0,0 0.04257,0.11143 -0.0784,0.26886 0,0 0.226,-0.12 0.219333,-0.368 0,0 0.09433,0.13667 -0.01333,0.32434 0,0 0.115666,-0.1032 0.126333,-0.25734 0,0 0.06377,0.0697 -0.0053,0.26134 0,0 0.140866,-0.13267 0.162133,-0.2761 0,0 0.03057,0.13266 -0.09033,0.30023 0,0 0.08233,-0.0201 0.1608,-0.18367 0,0 0.02127,0.0644 -0.0505,0.18234 0,0 0.07713,-0.0134 0.128933,-0.16084 0,0 0.0093,0.0885 -0.01327,0.16757 0,0 0.0598,-0.0389 0.0731,-0.20643 0,0 0.0334,0.0549 0.034,0.12326 5e-4,0.0684 -6.6e-5,0.0235 -6.6e-5,0.0235 z"
     id="path14"
     inkscape:connector-curvature="0"
     style="fill:#2f8f22;stroke-width:0.03333334" />
  <path
     d="m 17.219,6.84787 c 0,0 -0.08387,0.0142 -0.1915,-0.0186 -0.107667,-0.0328 -0.151167,-0.0195 -0.184567,0 0,0 0.04367,-0.0865 -0.06267,-0.15483 0,0 0.03457,0.0873 -0.01327,0.1281 0,0 -0.02127,0.02 -0.04653,-0.0101 0,0 -0.0372,-0.0382 -0.0764,-0.0677 0,0 0.09033,-0.0315 0.07377,-0.12334 -0.01667,-0.0918 -0.0658,-0.10386 -0.09233,-0.11523 0,0 0.0093,0.0415 0,0.0697 0,0 -0.0984,-0.0549 0.03517,-0.13267 0.133566,-0.0778 0.109,-0.12333 0.08507,-0.16287 -0.02393,-0.0395 -0.0751,-0.0831 -0.100333,-0.0985 0,0 0.02657,0.0416 0.0219,0.0771 -0.0047,0.0355 -0.06517,0.0583 -0.0532,-0.004 0.012,-0.0623 -6.67e-4,-0.0517 -0.002,-0.118 0,0 0.119,0.0402 0.1655,-0.0757 0,0 0.0458,-0.12 -0.1044,-0.17967 0,0 0.03657,0.0489 0.0186,0.0858 0,0 -0.03187,0.0603 -0.06977,0.0114 -0.0379,-0.0489 -0.0618,-0.0583 -0.0578,-0.116 0,0 0.1362,0.0188 0.099,-0.12933 0,0 -0.02193,0.0986 -0.198666,-0.0341 0,0 0.1149,-0.118 0.0704,-0.21313 0,0 -0.014,-0.0436 -0.1389,-0.0181 0,0 0.108333,-0.0683 0.06247,-0.12667 0,0 -0.02333,-0.0388 -0.124333,0.0121 0,0 0.03923,-0.0677 -0.0598,-0.14073 0,0 -0.06643,0.0349 -0.101667,0.067 0,0 -0.06777,-0.0858 -0.111,-0.11994 0,0 -0.0784,0.0302 -0.09833,0.12 0,0 -0.03653,-0.0436 -0.1196,-0.0637 0,0 -0.03987,0.0737 0.012,0.138 0,0 -0.0386,-10e-4 -0.109,-0.0322 0,0 -0.08043,-0.0382 -0.0685,0.0308 0.012,0.069 0.01793,0.0844 0.0339,0.1166 0,0 -0.180433,-0.0419 -0.172767,0.0557 0.0053,0.0677 0.03057,0.12593 0.0864,0.17487 0,0 -0.101066,0.132 -0.187466,0.0328 0,0 -0.0299,0.0322 0.03457,0.1166 0,0 0.06447,0.071 0.01133,0.116 0,0 -0.07113,0.0569 -0.105667,-0.0537 0,0 -0.115,0.1146 0.0206,0.2024 0,0 0.0871,0.0496 0.176133,-0.0268 0,0 -0.02723,0.2198 -0.112333,0.17756 0,0 -0.05117,-0.0375 0.04053,-0.0824 0,0 -0.132233,-0.0168 -0.1535,0.11124 0,0 -0.01633,0.10183 0.099,0.13873 0,0 0.08907,0.0322 -0.0033,0.1012 0,0 -0.06513,0.0496 -0.02257,0.12333 0,0 0.05117,0.0811 -0.07843,0.0891 0,0 -0.07043,-6.6e-4 -0.09567,-0.01 0,0 -0.02847,0.0528 -0.0086,0.11317 0,0 -0.06453,-0.0481 -0.2114,0.005 -0.146866,0.0532 -0.135566,0.0157 -0.147533,0.0318 -0.012,0.0161 -0.04057,0.0703 -0.04057,0.0703 0,0 0.0771,0.0938 0.0784,0.0918 0.0013,-0.002 -0.0146,0.10723 -0.0146,0.10723 l 0.0379,0.0181 0.302334,-0.13466 0.307066,-0.16 0.246834,0.0151 0.1566,0.0373 0.2056,0.015 0.147266,-0.0785 h 0.213334 l 0.2346,0.1169 0.2678,0.1598 0.139566,0.0245 0.1075,-0.006 V 6.92597 l -0.05233,-0.0785 z"
     id="path16"
     inkscape:connector-curvature="0"
     style="fill:#d40000;stroke:#000000;stroke-width:0.01773333;stroke-linejoin:round" />
  <path
     d="m 14.783433,7.10143 c 0,0 0.117,0.0597 0.1658,-0.0127 0,0 0.06383,-0.1216 -0.07627,-0.1638 0,0 0.07623,-0.0915 -0.0055,-0.17593 0,0 -0.04287,-0.0452 -0.117667,-0.012 0,0 -0.03087,-0.0644 -0.103667,-0.0624 0,0 -0.06377,-10e-4 -0.08567,0.0693 0,0 -0.08777,-0.0361 -0.1366,0.0161 0,0 -0.08077,0.0905 0.0319,0.16184 l 0.08107,0.007 0.07973,-0.0369 0.089,0.0255 c 1e-4,0 -0.02283,0.0901 0.07783,0.1836 z"
     id="path18"
     inkscape:connector-curvature="0"
     style="fill:#d40000;stroke:#000000;stroke-width:0.01773333;stroke-linejoin:round" />
  <path
     d="M 17.394333,6.88753 C 17.535233,6.87423 17.585,6.9932 17.585,6.9932 c 0.07383,0.17327 -0.083,0.26577 -0.083,0.26577 0.012,0.0388 0.01333,0.0897 0.01333,0.0897 0.220567,0.0268 0.182,0.2748 0.182,0.2748 l -0.07307,-0.0603 c -0.1276,-0.0496 -0.259167,0.059 -0.353534,0.24126 -0.09433,0.18234 -0.04917,0.26807 -0.03323,0.48387 0.016,0.21577 0.366833,0.34447 0.366833,0.34447 0,0 -0.166133,0.42756 -0.2738,0.70233 -0.107666,0.27477 -0.332266,0.16083 -0.3974,0.103 -0.06513,-0.0579 -0.0814,-0.0258 -0.114333,0 -0.03287,0.0257 0.147567,0.1664 -0.180733,0.2991 -0.328334,0.13267 -0.385434,0.23457 -0.439934,0.26807 -0.05447,0.0335 -0.281766,0.0107 -0.304333,-0.0175 -0.0226,-0.0281 -0.0093,-0.0281 -0.09433,-0.0804 -0.0851,-0.0523 -0.228667,-0.0978 -0.3855,-0.17424 -0.156867,-0.0764 -0.152867,-0.17426 -0.151534,-0.19433 0.0013,-0.0201 0.05447,-0.18367 -0.1292,-0.0537 -0.183666,0.13 -0.34,-0.0619 -0.34,-0.0619 -0.03587,-0.0472 -0.188733,-0.4568 -0.188733,-0.4568 -0.0412,-0.1528 -0.122267,-0.33107 -0.122267,-0.33107 0.004,-10e-4 -0.008,0.0188 0.1276,-0.059 0.135567,-0.0777 0.196267,-0.207 0.2432,-0.335 0.04693,-0.128 0.0013,-0.3472 -0.01593,-0.39143 -0.01733,-0.0442 -0.118333,-0.247 -0.2434,-0.28947 -0.125067,-0.0425 -0.208933,0.063 -0.208933,0.063 0,0 -0.0386,-0.248 0.182,-0.2748 0,0 0.0013,-0.0509 0.01333,-0.0898 0,0 -0.156833,-0.0925 -0.083,-0.26583 0,0 0.04977,-0.1189 0.190667,-0.10567 l -0.03407,0.0645 c 0,0 -0.0355,0.35387 0.482467,0.11667 0.517933,-0.23733 0.5024,-0.28153 0.797466,-0.13273 l 0.215334,-0.004 c 0,0 0.311,-0.1439 0.410666,-0.082 0.09967,0.0619 0.458534,0.26293 0.458534,0.26293 0,0 0.3469,0.1301 0.414666,-0.10987 l -0.03853,-0.11546 z"
     id="path20"
     inkscape:connector-curvature="0"
     style="fill:#64b4d1;stroke:#000000;stroke-width:0.0133" />
  <path
     stroke-miterlimit="10"
     d="m 15.835933,8.42167 c 0,0 -0.018,-0.1086 -0.0369,-0.17894 0,0 -0.03843,-0.11033 0.02717,-0.18786 l 0.08133,-0.0936 c 0,0 0.0505,-0.068 0.1131,-0.0773 0,0 0.06257,-0.002 0.06853,-0.0146 0.006,-0.0127 0.07443,-0.12533 0.237233,0 0,0 0.0519,-0.0831 0.131667,-0.0972 0,0 0.0861,-0.0262 0.127766,0.0382 0,0 0.0968,-0.0734 0.1799,0.0447 0,0 0.115,-0.0647 0.198667,0.0639 0,0 0.113667,-0.0554 0.183433,0.0627 0.0698,0.1182 0.05583,0.16643 0.05583,0.16643 l 0.0518,0.18767 0.183466,0.2265 -0.426666,0.16083 h -0.191334 l -0.3828,0.10253 -0.679833,0.0523 -0.1894,-0.22317 0.2671,-0.2332 z"
     id="path22"
     inkscape:connector-curvature="0"
     style="fill:#ffffff;stroke:#00247d;stroke-width:0.01773333;stroke-miterlimit:10" />
  <path
     d="m 15.261333,9.55157 c 0,0 -0.101666,0.006 -0.153533,0.0322 -0.05183,0.0261 -0.09167,0.0543 -0.1515,0.0925 0,0 -0.02793,0.0372 -0.145567,0.0146 0,0 -0.203333,-0.0487 -0.203333,0.1101 0,0 -0.243267,0.0201 -0.143567,0.2332 0,0 0.06777,0.16687 0.207334,0.0483 0,0 -0.08973,0.12866 0.08373,0.179 0,0 0.1236,0.0301 0.159467,-0.0965 0,0 0.02,-0.0503 -0.0279,-0.1126 0,0 0.05983,-0.0121 0.101666,-0.0764 0,0 -0.127566,0.16127 0.012,0.21934 0,0 0.175334,0.044 0.185334,-0.13894 0,0 -0.01427,-0.0844 0.05367,-0.1146 0,0 0.139767,-0.0322 0.203567,-0.188 0,0 -0.200933,-0.107 -0.181433,-0.202 z M 14.850667,7.948 c 0,0 -0.1568,-0.0722 -0.231234,0 0,0 -0.103666,-0.0642 -0.212666,0 0,0 -0.103667,0.0678 -0.175434,0.14233 0,0 -0.0505,0.0433 -0.0319,0.1796 0,0 0.0266,0.0961 0.01067,0.14434 0,0 -0.0346,-0.007 -0.103667,0.0751 0,0 -0.08777,0.1016 -0.164833,0.0119 0,0 0.0239,0.1248 0.168767,0.10467 0,0 -0.0704,0.055 -0.0093,0.19706 0,0 0.0452,0.10054 -0.02657,0.2265 0,0 0.126267,-0.0509 0.120934,-0.19966 0,0 -0.01067,-0.10054 0.02657,-0.1716 0,0 -0.0372,0.0646 0.0492,0.2024 0,0 0.06643,0.0992 0.012,0.20233 0,0 0.1249,-0.0455 0.112934,-0.197 -0.01193,-0.15147 -0.08773,-0.0885 -0.03853,-0.22787 0,0 0.012,0.0714 0.04917,0.1074 0.0372,0.036 0.08507,0.0963 0.06513,0.19687 0,0 0.07443,-0.0925 0.05713,-0.18767 -0.01723,-0.0952 -0.03583,-0.12393 -0.03583,-0.12393 l 0.235234,-0.1334 0.117,-0.21177 0.0053,-0.33766 z"
     id="path24"
     inkscape:connector-curvature="0"
     style="fill:#d40000;stroke:#000000;stroke-width:0.01773333;stroke-linejoin:round" />
  <path
     stroke-miterlimit="10"
     d="m 14.4932,8.54567 c 0,0 -0.097,-0.007 -0.113,-0.0818 m -0.170133,-0.0495 c 0,0 0.0338,-10e-4 0.0644,0.0295 0,0 0.02333,0.0348 0.05657,0.0308"
     id="path26"
     inkscape:connector-curvature="0"
     style="fill:none;stroke:#000000;stroke-width:0.01773333;stroke-miterlimit:10" />
  <path
     d="m 14.636667,8.26017 c 0,0 -0.05043,0 -0.07833,-0.0241 0,0 -0.02933,-0.0201 -0.04657,0.0121 0,0 -0.02657,0.0456 0.0226,0.0657 0,0 0.06117,0.0308 -0.03587,0.0925 0,0 0.115667,-0.0416 0.06913,-0.0978 0,0 -0.0505,-0.0362 -0.0319,-0.0496 0,0 0.0053,-0.0107 0.02533,0.003 0.0199,0.0134 0.05977,0.008 0.07567,-10e-4 z"
     id="path28"
     inkscape:connector-curvature="0"
     style="stroke-width:0.03333334" />
  <path
     d="m 16.162567,8.53633 0.05947,-0.0201 -0.3886,-1.34213 -0.01423,0.004 z"
     id="path30"
     inkscape:connector-curvature="0"
     style="fill:#784421;stroke:#000000;stroke-width:0.0133" />
  <path
     d="m 14.868567,10.022 c 0,0 -0.09167,-0.0516 -0.167467,0.009 0,0 0.0077,-0.0335 0.06567,-0.0483 0,0 0.03133,-0.0885 0.119066,-0.0804 0,0 -0.03587,0.0429 -0.08373,0.0791 0,0 0.05053,0.005 0.06647,0.0408 z"
     id="path32"
     inkscape:connector-curvature="0"
     style="stroke-width:0.03333334" />
  <path
     stroke-miterlimit="2.613"
     d="m 14.5456,10.23513 c 0,0 -0.145533,-0.0915 -0.0668,-0.24526 0,0 0.02293,-0.0442 0.0668,-0.0352 0,0 0.09067,0.0281 0.01993,0.15383 0,0 -0.0359,0.0814 -0.01993,0.12667 z m 0.295067,0.14477 c 0,0 -0.207334,-0.0945 -0.143567,-0.25533 0,0 0.01973,-0.0543 0.06567,-0.0503 0,0 0.08,0.004 0.064,0.11057 0,0 -0.024,0.10453 0.0139,0.195 z"
     id="path34"
     inkscape:connector-curvature="0"
     style="fill:#64b4d1;stroke:#00247d;stroke-width:0.0133;stroke-miterlimit:2.61299992" />
  <path
     d="m 14.7968,9.77967 c 0,0 -0.06233,0.046 -0.08767,0.0768 0,0 -0.02533,-0.0315 -0.05853,-0.0506 0,0 0.03827,-0.005 0.05857,0.0122 0,0 0.0318,-0.0308 0.08767,-0.0384 z"
     id="path36"
     inkscape:connector-curvature="0"
     style="stroke-width:0.03333334" />
  <path
     stroke-miterlimit="2.613"
     d="m 14.9812,10.33967 c 0,0 0.162467,-0.0412 0.1326,-0.20907 0,0 -0.016,-0.0733 -0.08473,-0.0633 0,0 -0.0829,0.0212 -0.02893,0.12786 0,0 0.0319,0.0762 -0.01893,0.14457 z"
     id="path38"
     inkscape:connector-curvature="0"
     style="fill:#64b4d1;stroke:#00247d;stroke-width:0.0133;stroke-miterlimit:2.61299992" />
  <path
     stroke-miterlimit="2.613"
     d="m 15.715333,6.78817 c 0,0 0.104667,0.0321 0.1615,0.0553 0,0 0.1515,0.0683 0.3439,0 0,0 0.1301,-0.0515 0.147467,-0.0553 l -0.09967,0.15176 -0.005,0.0784 0.06233,0.0915 c 0,0 -0.03733,0.0151 -0.149,-0.0533 0,0 -0.123667,-0.0955 -0.271167,0 0,0 -0.08067,0.0547 -0.148467,0.0533 L 15.852896,7.003 15.816026,6.9067 15.71536,6.78813 Z"
     id="path40"
     inkscape:connector-curvature="0"
     style="fill:#f5ce00;stroke:#000000;stroke-width:0.01773333;stroke-miterlimit:2.61299992" />
  <path
     d="m 15.044,10.13913 c 0,0 0.006,-0.008 -0.001,-0.0116 0,0 -0.007,-0.003 -0.012,0.007 0,0 -0.0169,0.0269 -0.0026,0.0637 0,0 0.01357,0.0255 0.007,0.0522 0,0 -9.33e-4,0.008 0.0051,0.009 0,0 0.0057,-0.002 0.0069,-0.007 0,0 0.0081,-0.026 -0.0058,-0.0515 0,0 -0.01693,-0.0395 0.0025,-0.0607 z"
     id="path42"
     inkscape:connector-curvature="0"
     style="fill:#ffffff;stroke-width:0.03333334" />
  <path
     d="m 17.294667,7.10143 c 0,0 -0.117,0.0597 -0.1658,-0.0127 0,0 -0.0638,-0.1216 0.07627,-0.1638 0,0 -0.07627,-0.0915 0.0055,-0.17593 0,0 0.04287,-0.0452 0.117667,-0.012 0,0 0.03087,-0.0644 0.103666,-0.0624 0,0 0.06377,-10e-4 0.08567,0.0693 0,0 0.08777,-0.0361 0.1366,0.0161 0,0 0.08073,0.0905 -0.0319,0.16184 l -0.0811,0.007 -0.07977,-0.0369 -0.089,0.0255 c -6.6e-5,0 0.02287,0.0901 -0.0778,0.1836 z"
     id="path44"
     inkscape:connector-curvature="0"
     style="fill:#d40000;stroke:#000000;stroke-width:0.01773333;stroke-linejoin:round" />
  <path
     stroke-miterlimit="2.613"
     d="m 16.368267,7.007 c 0,0 -0.003,0.0241 -0.0269,0.0268 0,0 -0.02493,0.008 -0.03947,-0.023 0,0 -0.0017,-0.007 -0.0021,-0.0105 -0.0017,-0.0145 -0.0067,-0.0563 0.03853,-0.0905 0,0 0.0738,-0.0603 0.214666,0.0127 0,0 0.111667,0.0536 0.188734,0.0992 0,0 0.199333,0.10727 0.223333,0.11533 0,0 0.08767,0.0442 0.221933,0.0496 0,0 0.1834,0.0134 0.261134,-0.11527 0,0 0.05917,-0.0979 0,-0.1602 0,0 -0.0239,-0.0281 -0.06323,-0.023 -0.0165,0.002 -0.03477,0.01 -0.05233,0.0303 0,0 -0.0286,0.0416 0.0046,0.0724 0,0 0.0432,0.0265 0.05847,-0.0295 0,0 6.66e-4,-0.004 0.002,0.001 8.33e-4,0.003 0.0106,0.0459 -0.01233,0.0821 0,0 -0.110666,0.16747 -0.415,-0.006 l -0.4014,-0.22513 c 0,0 -0.201333,-0.10323 -0.321666,0.0583 0,0 -0.097,0.134 0.02793,0.22183 0,0 0.093,0.0556 0.1515,-0.0328 0,0 0.04857,-0.0871 -0.02787,-0.12534 0,0 -0.0671,-0.0315 -0.09367,0.0355 -0.0266,0.067 0.0518,0.0844 0.0591,0.0369 0,0 0.002,-0.0114 0.004,-6.6e-4 z"
     id="path46"
     inkscape:connector-curvature="0"
     style="fill:#f5ce00;stroke:#000000;stroke-width:0.01773333;stroke-miterlimit:2.61299992" />
  <path
     stroke-miterlimit="2.613"
     d="M 14.777167,7.6979 V 7.44657 c 0,-0.0197 1.33e-4,-0.0362 0.03,-0.0603 0.02993,-0.0241 0.06183,-0.0623 0.107666,0.0463 0,0 0.08973,-0.0945 0.119667,-0.1086 0,0 0.0518,-0.0443 0.08767,0.0201 0,0 0.04787,-0.0724 0.08573,-0.0905 0,0 0.08973,-0.0583 0.09367,0.11667 l 0.06983,-0.0644 c 0,0 0.0538,-0.0442 0.113667,0.0161 0,0 0.101666,0.0985 0.1156,0.12667 0,0 0.02243,0.0305 0.02417,0.0786 0,0 -2.66e-4,0.0541 0.02767,0.0843 0,0 0.03187,0.0281 0.06277,0.0342 0,0 0.07277,0.002 0.09867,0.0703 0,0 0.012,-0.0118 0.04787,0.31577 v 0.59706 l -0.402733,0.4805 -0.645934,-0.185 -0.2572,-0.10653 -0.0578,-0.18893 0.2492,-0.16084 0.1356,-0.36593 -0.04387,-0.25733 z"
     id="path48"
     inkscape:connector-curvature="0"
     style="fill:#e4cb5e;stroke:#000000;stroke-width:0.0133;stroke-miterlimit:2.61299992" />
  <path
     d="m 16.557,8.01487 0.03057,-0.0456 0.0731,-0.0563 c 0,0 0.111666,0.293 0.117,0.35693 v 0.0909 c 0,0 0.167433,0.0427 0.196666,0.30007 L 16.836136,8.91554 16.61947,8.79487 16.55704,8.74937 V 8.01483 Z"
     id="path50"
     inkscape:connector-curvature="0"
     style="fill:#784421;stroke:#000000;stroke-width:0.0133" />
  <path
     d="m 14.5052,10.02657 c 0,0 0.008,-0.0106 0.0025,-0.0151 0,0 -0.0035,-0.005 -0.0129,0.007 0,0 -0.044,0.0492 -0.009,0.12493 0,0 0.004,0.0108 0.011,0.007 0,0 0.006,-0.003 4.67e-4,-0.012 0,0 -0.03133,-0.0623 0.008,-0.1121 z"
     id="path52"
     inkscape:connector-curvature="0"
     style="fill:#ffffff;stroke-width:0.03333334" />
  <path
     stroke-miterlimit="10"
     d="m 15.158333,9.97713 c 0,0 0.0066,-0.0228 -0.0093,-0.0469 0,0 -0.0106,-0.0174 -0.0067,-0.0402"
     id="path54"
     inkscape:connector-curvature="0"
     style="fill:none;stroke:#000000;stroke-width:0.01773333;stroke-miterlimit:10" />
  <path
     stroke-miterlimit="10"
     d="m 15.301667,7.3702 c 0,0 5.66e-4,0.0628 0.01853,0.1091 0.01793,0.0462 0.07853,0.12617 0.0825,0.1694"
     id="path56"
     inkscape:connector-curvature="0"
     style="fill:none;stroke:#000000;stroke-width:0.0133;stroke-miterlimit:10" />
  <path
     d="m 16.820833,9.55157 c 0,0 0.101667,0.006 0.1535,0.0322 0.05183,0.0261 0.09167,0.0543 0.1515,0.0925 0,0 0.0279,0.0372 0.145534,0.0146 0,0 0.2034,-0.0487 0.2034,0.1101 0,0 0.243233,0.0201 0.143533,0.2332 0,0 -0.06777,0.16687 -0.207333,0.0483 0,0 0.08973,0.12866 -0.08373,0.179 0,0 -0.1236,0.0301 -0.159466,-0.0965 0,0 -0.02,-0.0503 0.0279,-0.1126 0,0 -0.05987,-0.0121 -0.101667,-0.0764 0,0 0.127533,0.16127 -0.012,0.21934 0,0 -0.1754,0.044 -0.1854,-0.13894 0,0 0.01433,-0.0844 -0.05367,-0.1146 0,0 -0.139733,-0.0322 -0.203533,-0.188 0,0 0.200933,-0.107 0.181433,-0.202 z"
     id="path58"
     inkscape:connector-curvature="0"
     style="fill:#d40000;stroke:#000000;stroke-width:0.01773333;stroke-linejoin:round" />
  <path
     stroke-miterlimit="10"
     d="M 15.221433,7.64867 15.387367,8.988 m -0.1276,-1.34227 0.1861,1.24844 M 15.294667,7.63993 15.509,8.87807"
     id="path60"
     inkscape:connector-curvature="0"
     style="fill:none;stroke:#000000;stroke-width:0.0133;stroke-miterlimit:10" />
  <path
     d="m 15.633667,8.7715 0.0594,-0.0201 -0.388667,-1.34217 -0.01423,0.004 z"
     id="path62"
     inkscape:connector-curvature="0"
     style="fill:#784421;stroke:#000000;stroke-width:0.0133" />
  <path
     stroke-miterlimit="10"
     d="m 15.413567,7.59077 0.3925,0.99173 m -0.418734,-0.9757 0.378834,1.036"
     id="path64"
     inkscape:connector-curvature="0"
     style="fill:none;stroke:#000000;stroke-width:0.0133;stroke-miterlimit:10" />
  <path
     d="m 14.765567,10.28473 c 0,0 -0.04553,-0.0437 -0.0392,-0.122 0,0 0.0027,-0.0167 -0.0057,-0.019 0,0 -0.0089,-0.004 -0.01023,0.0157 0,0 -0.01267,0.0818 0.04253,0.12867 0,0 0.0037,0.005 0.0098,0.003 0,0 0.0065,-10e-4 0.0028,-0.007 z"
     id="path66"
     inkscape:connector-curvature="0"
     style="fill:#ffffff;stroke-width:0.03333334" />
  <path
     stroke-miterlimit="10"
     d="M 15.431267,7.57733 15.835933,8.482 M 15.3206,7.63353 15.5688,8.85187"
     id="path68"
     inkscape:connector-curvature="0"
     style="fill:none;stroke:#000000;stroke-width:0.0133;stroke-miterlimit:10" />
  <path
     stroke-miterlimit="2.613"
     d="M 17.351,8.53633 C 17.173667,8.43573 17.134833,8.21257 17.134833,8.21257 17.091963,7.9904 17.178703,7.8145 17.178703,7.8145 c 0.114667,-0.24227 0.3111,-0.28733 0.3111,-0.28733 0,0 -0.192433,0.1335 -0.246267,0.31346 0,0 -0.04187,0.15174 -0.01793,0.30154 0.0239,0.14976 0.01493,0.11156 0.05183,0.22716 z"
     id="path70"
     inkscape:connector-curvature="0"
     style="fill:#f5ce00;stroke:#000000;stroke-width:0.01773333;stroke-miterlimit:2.61299992" />
  <path
     d="m 16.587567,7.96933 -0.7449,0.23517 -0.04067,0.33183 c -0.176733,0.25607 -0.535933,0.3015 -0.535933,0.3015 l 0.279466,0.29757 0.537,0.1126 0.281734,-0.21713 0.2552,-0.2359 c -0.0266,-0.126 -0.012,-0.313 -0.012,-0.313 0,-0.0315 0.012,-0.10524 0.012,-0.10524 0,0 -0.04387,-0.3029 -0.0319,-0.40746 z"
     id="path72"
     inkscape:connector-curvature="0"
     style="fill:#784421;stroke:#000000;stroke-width:0.0081" />
  <path
     stroke-miterlimit="10"
     d="m 15.812267,8.453 c 0,0 0.4906,-0.15323 0.783133,-0.27623 m -1.018633,0.5559 c 0,0 0.612066,-0.11067 1.042666,-0.3559 l 0.1582,-0.10684"
     id="path74"
     inkscape:connector-curvature="0"
     style="fill:none;stroke:#000000;stroke-width:0.0133;stroke-miterlimit:10" />
  <path
     stroke-miterlimit="10"
     d="M 16.777667,8.36087 16.6075,8.482 c 0,0 -0.6845,0.31567 -1.205667,0.32407 m 1.2055,-0.0997 c 0,0 -0.526166,0.2709 -0.827866,0.27494"
     id="path76"
     inkscape:connector-curvature="0"
     style="fill:none;stroke:#000000;stroke-width:0.0133;stroke-miterlimit:10" />
  <path
     d="m 17.234833,7.948 c 0,0 0.156834,-0.0722 0.231267,0 0,0 0.103667,-0.0642 0.212667,0 0,0 0.103666,0.0678 0.175433,0.14233 0,0 0.0505,0.0433 0.0319,0.1796 0,0 -0.02657,0.0961 -0.01067,0.14434 0,0 0.0346,-0.007 0.103734,0.0751 0,0 0.08767,0.1016 0.1648,0.0119 0,0 -0.024,0.1248 -0.168834,0.10467 0,0 0.07043,0.055 0.0093,0.19706 0,0 -0.0452,0.10054 0.02657,0.2265 0,0 -0.126333,-0.0509 -0.121,-0.19966 0,0 0.01067,-0.10054 -0.02653,-0.1716 0,0 0.0372,0.0646 -0.04917,0.2024 0,0 -0.06643,0.0992 -0.01193,0.20233 0,0 -0.124933,-0.0455 -0.113,-0.197 0.012,-0.15147 0.08773,-0.0885 0.03857,-0.22787 0,0 -0.012,0.0713 -0.0492,0.1074 -0.03723,0.036 -0.08507,0.0963 -0.06513,0.19687 0,0 -0.07443,-0.0925 -0.05717,-0.18767 0.01727,-0.0952 0.0359,-0.12393 0.0359,-0.12393 l -0.235267,-0.1334 -0.117,-0.21177 -0.0053,-0.33766 z"
     id="path78"
     inkscape:connector-curvature="0"
     style="fill:#d40000;stroke:#000000;stroke-width:0.01773333;stroke-linejoin:round" />
  <path
     stroke-miterlimit="10"
     d="m 14.57,8.79567 c 0,0 0.0219,-0.10394 0.1216,-0.063 0,0 0.0339,-0.17027 0.215333,-0.17634 0.1814,-0.006 0.191334,0.177 0.191334,0.189 0,0 0.05333,-0.0785 0.142333,-0.0694 0,0 0.1534,-0.009 0.09627,0.23727 l 0.029,0.0309 c 0,0 0.1172,-0.27513 0.358433,-0.20277 0,0 0.235233,0.0717 0.08173,0.29957 0,0 0.1161,0.1508 0.214534,0.13667 0.09847,-0.014 0.1862,-0.0442 0.283866,-0.2171 0.09767,-0.1729 0.325,-0.199 0.3828,-0.189 0.0578,0.0101 0.103467,0.0476 0.1129,0.0885 0,0 0.120334,-0.40167 0.553,-0.33857 l 0.1734,0.0872 0.0658,0.0301 -0.098,0.2768 -0.239,0.54 L 17.074,9.5113 16.8846,9.40274 16.8188,9.43804 16.8135,9.59978 16.563666,9.77961 16.3902,9.85111 16.1988,9.98177 16.15427,10.09864 c 0,0 -0.105666,-0.0445 -0.225,0 l -0.03947,-0.0967 -0.111667,-0.1066 -0.433667,-0.2046 -0.07833,-0.25266 -0.0792,-0.0353 -0.08867,0.10154 -0.129533,0.0151 -0.1934,-0.13067 L 14.57,8.79562 Z"
     id="path80"
     inkscape:connector-curvature="0"
     style="fill:#ffffff;stroke:#00247d;stroke-width:0.01773333;stroke-miterlimit:10" />
  <path
     stroke-miterlimit="2.613"
     d="m 16.458667,6.82933 c 0,0 -0.165534,-0.007 -0.159567,0.16424"
     id="path82"
     inkscape:connector-curvature="0"
     style="fill:none;stroke:#000000;stroke-width:0.01773333;stroke-miterlimit:2.61299992" />
  <path
     stroke-miterlimit="2.613"
     d="M 17.547533,8.65187 C 17.259433,8.56337 17.1807,8.2538 17.1807,8.2538 17.1219,8.02157 17.2166,7.81853 17.2166,7.81853 c 0.1316,-0.309 0.354233,-0.309 0.354233,-0.309 0.111667,-0.003 0.125,0.0925 0.125,0.0925 0.01057,0.0677 -0.03693,0.0921 -0.03693,0.0921 -0.07643,0.0416 -0.1246,-0.0147 -0.1246,-0.0147 -0.0319,-0.0416 -0.0073,-0.0784 -0.0073,-0.0784 0.0196,-0.0275 0.05717,-0.0154 0.05717,-0.0154 0.02973,0.009 0.02657,0.0463 0.02657,0.0463 1.67e-4,0.001 8.33e-4,0.001 8.33e-4,0.001 0.0013,-3.4e-4 8.34e-4,-8e-4 8.34e-4,-8e-4 0,0 0.0067,-0.0456 -0.0379,-0.0503 0,0 -0.08667,-0.0188 -0.188334,0.1079 0,0 -0.133933,0.1709 -0.133666,0.39207 0,0 -0.0169,0.41516 0.415733,0.52273 0,0 -0.04687,0.0673 -0.129567,0.31057 0,0 -0.09367,0.31266 -0.183166,0.48166 0,0 -0.1189,0.2411 -0.384067,0.1426 0,0 -0.157833,-0.0693 -0.157467,-0.184 0,0 -0.011,-0.10453 0.08373,-0.11256 0,0 0.09273,-0.007 0.09167,0.0723 0,0 0.0025,0.086 -0.09867,0.0664 0,0 -0.03533,-0.008 -0.02887,-0.0422 0,0 0.0057,-0.0312 0.04833,-0.0176 0,0 0.0013,1.6e-4 0.0015,-5e-4 0,0 4.67e-4,-7.4e-4 -0.001,-10e-4 0,0 -0.01653,-0.007 -0.034,-10e-4 0,0 -0.0156,0.005 -0.01687,0.0297 0,0 -10e-4,0.0196 0.02,0.0307 0,0 0.02543,0.009 0.04533,0.007 0,0 0.02683,0.0541 0.0875,0.0725 0.08447,0.0255 0.154,9e-4 0.1966,-0.0331 0.04633,-0.0369 0.07627,-0.10153 0.08523,-0.11733 0.009,-0.0158 0.08673,-0.19 0.1452,-0.37734 0,0 0.05117,-0.1615 0.092,-0.24593 l 0.016,-0.0331 z"
     id="path84"
     inkscape:connector-curvature="0"
     style="fill:#f5ce00;stroke:#000000;stroke-width:0.01773333;stroke-miterlimit:2.61299992" />
  <path
     stroke-miterlimit="2.613"
     d="m 16.7346,9.439 c 0,0 0.0538,-0.007 0.0538,0.0407 0,0 -0.0033,0.0701 -0.08867,0.0548 0,0 -0.08427,-0.0184 -0.05433,-0.1126 0,0 0.0199,-0.0663 0.09967,-0.0568 0,0 0.07723,0.004 0.111133,0.10907 0,0 0.0259,0.089 -0.01843,0.16533 -0.04953,0.0853 -0.1748,0.14127 -0.235234,0.16607 0,0 -0.242266,0.0952 -0.3145,0.1496 0,0 -0.1108,0.0823 -0.06177,0.15883 0,0 0.01893,0.0292 0.04733,0.0292 0,0 0.03243,0.002 0.0379,-0.0317 0,0 1.67e-4,-6.7e-4 -3.33e-4,-10e-4 0,0 -5e-4,0 -6.67e-4,8.3e-4 0,0 -0.0023,0.0203 -0.01993,0.0278 0,0 -0.0236,0.0119 -0.04833,-0.009 0,0 -0.02627,-0.0251 -0.0043,-0.0642 0,0 0.02873,-0.0481 0.09567,-0.0197 0,0 0.059,0.0292 0.03477,0.0919 0,0 -0.02167,0.0577 -0.09273,0.0575 0,0 -0.05357,-0.002 -0.0878,-0.0377 -0.05343,-0.056 -0.05633,-0.16513 -0.0092,-0.22157 0,0 0.04453,-0.06 0.1339,-0.0965 0.05177,-0.0212 0.149533,-0.0637 0.2512,-0.10353 0.07147,-0.028 0.136933,-0.0616 0.179433,-0.11193 0,0 0.0379,-0.0422 0.04887,-0.1146 0,0 0.01043,-0.0543 -0.02267,-0.0662 0,0 -0.01677,-0.008 -0.0352,-0.005 0,0 -4.67e-4,0 -6e-4,3.3e-4 0,0 -8e-4,8e-4 0.0011,5e-4 z"
     id="path86"
     inkscape:connector-curvature="0"
     style="fill:#f5ce00;stroke:#000000;stroke-width:0.01773333;stroke-miterlimit:2.61299992" />
  <path
     stroke-miterlimit="2.613"
     d="m 16.7391,9.43867 c 0,0 0.05947,-0.0108 0.09667,0.06 0,0 0.02193,0.0455 0.02547,0.0719 m 0.01943,-0.2528 c 0,0 -0.0596,0.0103 -0.02893,0.0946 0.0289,0.0795 0.0826,0.1055 0.09853,0.11656"
     id="path88"
     inkscape:connector-curvature="0"
     style="fill:none;stroke:#000000;stroke-width:0.01773333;stroke-miterlimit:2.61299992" />
  <path
     stroke-miterlimit="2.613"
     d="m 15.715267,7.00693 c 0,0 0.0029,0.0241 0.02687,0.0268 0,0 0.025,0.008 0.03953,-0.023 0,0 0.0017,-0.007 0.0021,-0.0105 0.0017,-0.0145 0.0067,-0.0563 -0.03857,-0.0905 0,0 -0.07377,-0.0603 -0.214667,0.0127 0,0 -0.111667,0.0536 -0.188733,0.0992 0,0 -0.199334,0.10723 -0.223267,0.11527 0,0 -0.08773,0.0442 -0.222,0.0496 0,0 -0.1834,0.0134 -0.261133,-0.11524 0,0 -0.0591,-0.0979 0,-0.16023 0,0 0.024,-0.0281 0.06333,-0.0229 0.01647,0.002 0.03467,0.01 0.05233,0.0303 0,0 0.02857,0.0416 -0.0047,0.0723 0,0 -0.0432,0.0265 -0.05847,-0.0294 0,0 -6.67e-4,-0.004 -0.002,10e-4 -8.67e-4,0.003 -0.01067,0.0459 0.01233,0.0821 0,0 0.1106,0.16743 0.415,-0.006 L 15.514551,6.8133 c 0,0 0.2014,-0.1032 0.321666,0.0583 0,0 0.097,0.134 -0.0279,0.2218 0,0 -0.09307,0.0557 -0.151533,-0.0328 0,0 -0.04853,-0.0871 0.0279,-0.12534 0,0 0.06713,-0.0315 0.09373,0.0356 0.02657,0.067 -0.05187,0.0844 -0.05913,0.0368 0,0 -0.002,-0.0114 -0.004,-7.3e-4 z m -0.982734,1.5294 C 14.909867,8.43573 14.9487,8.21257 14.9487,8.21257 14.9916,7.9904 14.90487,7.8145 14.90487,7.8145 14.790203,7.57223 14.59377,7.52717 14.59377,7.52717 c 0,0 0.192466,0.1335 0.246333,0.31346 0,0 0.04183,0.15174 0.0179,0.30154 -0.024,0.14976 -0.015,0.11156 -0.05187,0.22716 z"
     id="path90"
     inkscape:connector-curvature="0"
     style="fill:#f5ce00;stroke:#000000;stroke-width:0.01773333;stroke-miterlimit:2.61299992" />
  <path
     stroke-miterlimit="2.613"
     d="m 15.624867,6.82933 c 0,0 0.165533,-0.007 0.159533,0.16424"
     id="path92"
     inkscape:connector-curvature="0"
     style="fill:none;stroke:#000000;stroke-width:0.01773333;stroke-miterlimit:2.61299992" />
  <path
     stroke-miterlimit="2.613"
     d="m 14.536,8.65187 c 0.2881,-0.0885 0.366833,-0.39807 0.366833,-0.39807 0.0588,-0.23223 -0.0359,-0.43527 -0.0359,-0.43527 -0.131566,-0.309 -0.3542,-0.309 -0.3542,-0.309 -0.111666,-0.003 -0.125,0.0925 -0.125,0.0925 -0.01057,0.0677 0.03693,0.0921 0.03693,0.0921 0.0764,0.0416 0.1246,-0.0147 0.1246,-0.0147 0.0319,-0.0416 0.0073,-0.0784 0.0073,-0.0784 -0.01967,-0.0275 -0.05717,-0.0154 -0.05717,-0.0154 -0.02973,0.009 -0.02657,0.0463 -0.02657,0.0463 -1.67e-4,0.001 -8.34e-4,0.001 -8.34e-4,0.001 -0.0013,-3.4e-4 -8e-4,-8e-4 -8e-4,-8e-4 0,0 -0.0067,-0.0456 0.03787,-0.0503 0,0 0.08673,-0.0188 0.1884,0.1079 0,0 0.1339,0.1709 0.133567,0.39207 0,0 0.017,0.41516 -0.415667,0.52273 0,0 0.04687,0.0673 0.1296,0.31057 0,0 0.09367,0.31266 0.183133,0.48166 0,0 0.118934,0.2411 0.384067,0.1426 0,0 0.1579,-0.0693 0.157533,-0.184 0,0 0.01093,-0.10453 -0.08373,-0.11256 0,0 -0.09273,-0.007 -0.09173,0.0723 0,0 -0.0025,0.086 0.09867,0.0664 0,0 0.03543,-0.008 0.02893,-0.0422 0,0 -0.0057,-0.0312 -0.04833,-0.0176 0,0 -0.0013,1.6e-4 -0.0015,-5e-4 0,0 -5.33e-4,-7.4e-4 10e-4,-10e-4 0,0 0.01647,-0.007 0.03393,-10e-4 0,0 0.01567,0.005 0.01687,0.0297 0,0 0.001,0.0196 -0.01993,0.0307 0,0 -0.02543,0.009 -0.04533,0.007 0,0 -0.02683,0.0541 -0.0875,0.0725 -0.08443,0.0255 -0.154,9e-4 -0.1966,-0.0331 -0.04633,-0.0369 -0.07627,-0.10153 -0.08523,-0.11733 -0.0089,-0.0158 -0.08667,-0.19 -0.145166,-0.37734 0,0 -0.0512,-0.1615 -0.092,-0.24593 l -0.016,-0.0331 z"
     id="path94"
     inkscape:connector-curvature="0"
     style="fill:#f5ce00;stroke:#000000;stroke-width:0.01773333;stroke-miterlimit:2.61299992" />
  <path
     stroke-miterlimit="2.613"
     d="m 15.348933,9.439 c 0,0 -0.05383,-0.007 -0.05383,0.0407 0,0 0.0033,0.0701 0.08873,0.0548 0,0 0.08423,-0.0184 0.05433,-0.1126 0,0 -0.01993,-0.0663 -0.09967,-0.0568 0,0 -0.07727,0.004 -0.111167,0.10907 0,0 -0.02593,0.089 0.01843,0.16533 0.0495,0.0853 0.174766,0.14127 0.235233,0.16607 0,0 0.242233,0.0952 0.3145,0.1496 0,0 0.1108,0.0823 0.0618,0.15883 0,0 -0.019,0.0292 -0.0474,0.0292 0,0 -0.0324,0.002 -0.03787,-0.0317 0,0 -1.66e-4,-6.7e-4 3.34e-4,-10e-4 0,0 5e-4,0 6.66e-4,8.3e-4 0,0 0.0023,0.0203 0.01993,0.0278 0,0 0.0236,0.0119 0.04833,-0.009 0,0 0.02623,-0.0251 0.0043,-0.0642 0,0 -0.02877,-0.0481 -0.09573,-0.0197 0,0 -0.059,0.0292 -0.03467,0.0919 0,0 0.02153,0.0577 0.09267,0.0575 0,0 0.05353,-0.002 0.0878,-0.0377 0.05343,-0.056 0.05633,-0.16513 0.0092,-0.22157 0,0 -0.04457,-0.06 -0.134,-0.0965 -0.05173,-0.0212 -0.149466,-0.0637 -0.251166,-0.10353 -0.07147,-0.028 -0.1369,-0.0616 -0.179434,-0.11193 0,0 -0.03787,-0.0422 -0.04883,-0.1146 0,0 -0.01047,-0.0543 0.0226,-0.0662 0,0 0.01677,-0.008 0.0352,-0.005 0,0 5.33e-4,0 6.67e-4,3.3e-4 0,0 8e-4,8e-4 -0.0011,5e-4 z"
     id="path96"
     inkscape:connector-curvature="0"
     style="fill:#f5ce00;stroke:#000000;stroke-width:0.01773333;stroke-miterlimit:2.61299992" />
  <path
     stroke-miterlimit="2.613"
     d="m 15.344433,9.43867 c 0,0 -0.0595,-0.0108 -0.09667,0.06 0,0 -0.022,0.0455 -0.0255,0.0719 m -0.01937,-0.25284 c 0,0 0.05957,0.0103 0.0289,0.0946 -0.02893,0.0794 -0.0826,0.10547 -0.09857,0.11654 m 0.7645,-2.545 c 0,0 0.144,-0.0902 0.2911,0.01"
     id="path98"
     inkscape:connector-curvature="0"
     style="fill:none;stroke:#000000;stroke-width:0.01773333;stroke-miterlimit:2.61299992" />
  <path
     stroke-miterlimit="2.613"
     d="m 15.078333,7.86477 c 0,0 0.02,-0.0804 -0.07173,-0.22117 0,0 -0.05983,-0.12867 -0.09173,-0.21107 m 0.207366,-0.0885 c 0,0 0.0519,0.12646 0.06977,0.1831 0,0 0.0644,0.15866 0.07807,0.19083"
     id="path100"
     inkscape:connector-curvature="0"
     style="fill:none;stroke:#000000;stroke-width:0.0133;stroke-miterlimit:2.61299992" />
  <path
     stroke-miterlimit="10"
     d="m 15.148133,7.95323 c 0,0 0.05413,0.0583 0.048,0.1568 M 14.968667,7.8909 c 0,0 0.05987,0.0288 0.0559,0.18767 0,0 -0.006,0.11593 0.08367,0.17423 m -0.147633,0.0409 c 0,0 0.1872,-0.0204 0.1975,0.0948 0,0 0.004,0.11057 0.06777,0.12267 0,0 0.09557,0.009 0.1145,0.0975 m -0.320834,-0.187 c 0,0 0.0329,0.0493 0.0648,0.0703 m 0.175434,-0.192 c 0,0 0.04757,0.0721 0.05653,0.11433 m 0.1495,-0.98183 c 0,0 0.04387,0.0597 0.0864,0.0878 m 0.08903,0.26537 c 0,0 0.093,0.0456 0.0771,0.28016 0,0 -0.012,0.13754 0.0266,0.21267"
     id="path102"
     inkscape:connector-curvature="0"
     style="fill:none;stroke:#000000;stroke-width:0.0133;stroke-miterlimit:10" />
  <path
     d="m 15.203,7.62653 0.0059,0.0221 c 0,0 0.1668,0.007 0.256867,-0.10656 l -0.0097,-0.0218 c 0,0 -0.145533,-0.007 -0.253166,0.1062 z"
     id="path104"
     inkscape:connector-curvature="0"
     style="fill:#784421;stroke:#000000;stroke-width:0.0133" />
  <path
     stroke-miterlimit="10"
     d="m 15.803867,8.52143 c 0,0 0.5769,-0.172 0.799233,-0.27226"
     id="path106"
     inkscape:connector-curvature="0"
     style="fill:none;stroke:#000000;stroke-width:0.0133;stroke-miterlimit:10" />
  <path
     d="m 15.742,7.45747 -0.0067,-0.0189 0.285333,-0.10856 0.0067,0.0191 z"
     id="path108"
     inkscape:connector-curvature="0"
     style="fill:#784421;stroke:#000000;stroke-width:0.0081" />
  <path
     stroke-miterlimit="10"
     d="m 15.766167,7.44827 0.1894,0.9285 M 15.799,7.4358 16.016,8.36003 M 15.835933,7.42177 16.0732,8.33927 M 15.929,7.38643 16.2524,8.0751 m -0.280633,-0.7049 0.3449,0.68467 m -0.313234,-0.6967 0.373067,0.6778 m -0.433733,0.34816 0.1464,-0.0482 m -0.257234,-0.0436 c 0,0 0.4291,-0.12534 0.753867,-0.25634 m -0.759633,0.30334 c 0,0 0.543833,-0.1439 0.7596,-0.2489 m -0.593634,0.6912 0.02847,0.0871 0.07787,-0.0249 -0.0266,-0.0863 m 0.1399,-0.0384 0.0285,0.0871 0.07787,-0.0249 -0.0266,-0.0863 m -0.448866,-0.49033 -0.0067,-0.11787 0.713067,-0.21653 0.03857,0.0992 m -0.449234,0.0256 0.03887,0.10407 m 0.210467,-0.17977 0.04533,0.099 m 0.01373,-0.11693 0.04247,0.0937 m 0.014,-0.11087 0.04467,0.0979"
     id="path110"
     inkscape:connector-curvature="0"
     style="fill:none;stroke:#000000;stroke-width:0.0133;stroke-miterlimit:10" />
  <path
     stroke-miterlimit="10"
     d="m 16.549,7.87013 0.07843,-0.0442 0.03323,0.0871 m -0.0731,-0.0646 0.03993,0.0902"
     id="path112"
     inkscape:connector-curvature="0"
     style="fill:none;stroke:#000000;stroke-width:0.0133;stroke-miterlimit:10" />
  <path
     stroke-miterlimit="10"
     d="m 14.819167,9.20577 c 0,0 -0.139567,-0.14134 0,-0.27977 0,0 -0.1515,-0.0741 -0.127567,-0.19333 m 0.3768,0.58506 c 0,0 -0.144533,0.0197 -0.101667,-0.26173 0,0 -0.05983,0.11157 -0.08043,0.1689 -0.01547,0.0429 -0.0053,0.11223 0.05593,0.14967 0.02443,0.015 0.154,0.0487 0.1959,-0.0371 M 14.9069,8.8871 c 0,0 -0.0588,0.0543 -0.01693,0.15383 m 0.0777,-0.14076 c 0,0 0.007,0.0965 0.05487,0.1508 M 15.009,8.862 c 0,0 -4e-4,0.11357 0.08133,0.18393 M 15.04966,8.82277 c 0,0 8e-4,0.12766 0.0955,0.2061 M 15.52,9.00977 c 0,0 0.0478,-0.10456 0.148467,-0.0995 0,0 -0.04883,0.0221 -0.04783,0.071 0,0 -0.006,0.0808 0.08067,0.0888 0,0 0.06983,0.009 0.104667,-0.0291"
     id="path114"
     inkscape:connector-curvature="0"
     style="fill:none;stroke:#00247d;stroke-width:0.01773333;stroke-miterlimit:10" />
  <path
     stroke-miterlimit="10"
     d="m 15.7582,9.48723 c 0,0 -0.2482,-0.1166 -0.222333,-0.28446 0,0 0.01,-0.10254 0.110266,-0.1508 m -0.0524,0.10653 c 0,0 -0.02193,0.0724 0.02693,0.12267 m 0.02887,-0.1719 c 0,0 -0.0299,0.0794 0.01993,0.13873 m 0.03987,-0.17733 c 0,0 -0.03587,0.0657 0.007,0.125 m -0.233266,0.30866 c 0,0 0.135566,0.1176 0.241233,0.1186 m -0.2841,-0.0814 c 0,0 0.126667,0.10253 0.2059,0.11767 M 15.392333,9.5706 c 0,0 0.156667,0.13784 0.253767,0.1479 m 0.383233,0.12667 c 0,0 -0.153933,0.083 -0.0346,0.17067 m -0.06307,-0.2621 c 0,0 0.174433,-0.0915 0.250166,-0.12567 m -0.187366,0.1729 c 0,0 0.2522,-0.15383 0.326933,-0.187 m -0.1974,0.19703 c 0,0 0.215333,-0.14373 0.331,-0.20606 m -0.188433,0.20103 c 0,0 0.148533,-0.1166 0.2921,-0.201 m 0.05083,-0.1458 c 0,0 -0.07277,-0.10657 -0.312,0 0,0 0.08767,-0.0796 0.261167,-0.14133 m 0.2415,-0.45777 c 0,0 0.0196,0.0864 -0.0013,0.13867"
     id="path116"
     inkscape:connector-curvature="0"
     style="fill:none;stroke:#00247d;stroke-width:0.01773333;stroke-miterlimit:10" />
  <path
     stroke-miterlimit="10"
     d="m 16.412133,9.27917 c 0,0 0.04983,-0.0734 0.176434,-0.10957 0,0 0.03413,0.0854 0.1326,0.0663 0,0 0.1485,-0.0292 0.103666,-0.192 0,0 -0.0309,-0.12166 -0.200533,-0.13366 M 17.128867,8.7063 c 0,0 0.172433,0.031 0.169466,0.17174 0,0 0.01393,0.2111 -0.208333,0.25233 m 0.183833,-0.3374 c 0,0 0.04733,-0.10293 0.153,-0.14517 M 17.298467,8.5875 c 0,0 0.0471,0.0755 0.07933,0.0865 M 17.27383,8.6478 c 0,0 0.0444,0.0542 0.05933,0.0633 M 17.25943,8.7 c 0,0 0.02333,0.0345 0.0441,0.0454 m -0.9313,-0.86153 c 0,0 0.03357,-0.0544 0.117,-0.0313 m 0.340567,0.4396 c 0,0 0.05283,-0.2204 0.237267,-0.139 m -0.0748,-0.018 c 0,0 0.019,-0.10166 -0.0269,-0.15333 m -0.0987,0.14623 c 0,0 0.0235,0.042 0.0034,0.0763"
     id="path118"
     inkscape:connector-curvature="0"
     style="fill:none;stroke:#00247d;stroke-width:0.01773333;stroke-miterlimit:10" />
  <path
     stroke-miterlimit="2.613"
     d="m 17.2415,10.3799 c 0,0 0.207333,-0.0945 0.143533,-0.25533 0,0 -0.01967,-0.0543 -0.06567,-0.0503 0,0 -0.07993,0.004 -0.06393,0.11053 0,0 0.024,0.10457 -0.0139,0.195 z"
     id="path120"
     inkscape:connector-curvature="0"
     style="fill:#64b4d1;stroke:#00247d;stroke-width:0.0133;stroke-miterlimit:2.61299992" />
  <path
     d="m 17.3166,10.28473 c 0,0 0.04557,-0.0437 0.0392,-0.122 0,0 -0.0027,-0.0167 0.0057,-0.019 0,0 0.0089,-0.004 0.01027,0.0157 0,0 0.01267,0.0818 -0.04253,0.12867 0,0 -0.0038,0.005 -0.0099,0.003 0,0 -0.0065,-10e-4 -0.0027,-0.007 z"
     id="path122"
     inkscape:connector-curvature="0"
     style="fill:#ffffff;stroke-width:0.03333334" />
  <path
     stroke-miterlimit="2.613"
     d="m 17.536567,10.23513 c 0,0 0.145533,-0.0915 0.06677,-0.24526 0,0 -0.02293,-0.0442 -0.06677,-0.0352 0,0 -0.09073,0.0281 -0.02,0.15383 0,0 0.03593,0.0814 0.02,0.12667 z"
     id="path124"
     inkscape:connector-curvature="0"
     style="fill:#64b4d1;stroke:#00247d;stroke-width:0.0133;stroke-miterlimit:2.61299992" />
  <path
     d="m 17.572933,10.02653 c 0,0 -0.008,-0.0105 -0.0025,-0.0151 0,0 0.0035,-0.005 0.01293,0.007 0,0 0.04407,0.0493 0.009,0.12493 0,0 -0.004,0.0108 -0.01093,0.007 0,0 -0.006,-0.003 -5e-4,-0.0121 0,0 0.0314,-0.0623 -0.008,-0.11213 z"
     id="path126"
     inkscape:connector-curvature="0"
     style="fill:#ffffff;stroke-width:0.03333334" />
  <path
     stroke-miterlimit="2.613"
     d="m 17.100933,10.33967 c 0,0 -0.162466,-0.0412 -0.1326,-0.20907 0,0 0.016,-0.0733 0.08473,-0.0633 0,0 0.0829,0.0212 0.02893,0.12786 0,0 -0.0319,0.0762 0.01893,0.14457 z"
     id="path128"
     inkscape:connector-curvature="0"
     style="fill:#64b4d1;stroke:#00247d;stroke-width:0.0133;stroke-miterlimit:2.61299992" />
  <path
     d="m 17.038133,10.13913 c 0,0 -0.006,-0.008 0.001,-0.0116 0,0 0.007,-0.003 0.012,0.007 0,0 0.0169,0.0269 0.0026,0.0637 0,0 -0.01353,0.0255 -0.0069,0.0522 0,0 9e-4,0.008 -0.0051,0.009 0,0 -0.0058,-0.002 -0.0069,-0.007 0,0 -0.0081,-0.026 0.0059,-0.0515 0,0 0.0169,-0.0395 -0.0025,-0.0607 z"
     id="path130"
     inkscape:connector-curvature="0"
     style="fill:#ffffff;stroke-width:0.03333334" />
  <path
     d="m 17.217567,10.022 c 0,0 0.09167,-0.0516 0.167466,0.009 0,0 -0.0077,-0.0335 -0.06567,-0.0483 0,0 -0.03133,-0.0885 -0.119067,-0.0804 0,0 0.0359,0.0429 0.08373,0.0791 0,0 -0.0505,0.005 -0.06643,0.0408 z m 0.06777,-0.24233 c 0,0 0.06233,0.046 0.08767,0.0768 0,0 0.02533,-0.0315 0.05857,-0.0506 0,0 -0.03827,-0.005 -0.05857,0.0122 0,0 -0.03183,-0.0308 -0.08767,-0.0384 z"
     id="path132"
     inkscape:connector-curvature="0"
     style="stroke-width:0.03333334" />
  <path
     stroke-miterlimit="10"
     d="m 16.923833,9.97713 c 0,0 -0.0067,-0.0228 0.0093,-0.0469 0,0 0.0106,-0.0174 0.0067,-0.0402 m 0.6525,-1.34433 c 0,0 0.09707,-0.007 0.113,-0.0818 m 0.170134,-0.0495 c 0,0 -0.0338,-0.001 -0.06433,0.0295 0,0 -0.02333,0.0348 -0.0566,0.0308"
     id="path134"
     inkscape:connector-curvature="0"
     style="fill:none;stroke:#000000;stroke-width:0.01773333;stroke-miterlimit:10" />
  <path
     d="m 17.448833,8.26017 c 0,0 0.0505,0 0.07843,-0.0241 0,0 0.02923,-0.0201 0.0465,0.0121 0,0 0.0266,0.0456 -0.02257,0.0657 0,0 -0.06117,0.0308 0.03587,0.0925 0,0 -0.115667,-0.0416 -0.0691,-0.0978 0,0 0.05043,-0.0362 0.03183,-0.0496 0,0 -0.0053,-0.0107 -0.02523,0.003 -0.02,0.0134 -0.05983,0.008 -0.07577,-10e-4 z"
     id="path136"
     inkscape:connector-curvature="0"
     style="stroke-width:0.03333334" />
  <path
     stroke-miterlimit="2.613"
     d="m 17.517533,7.0396 c 0,0 0.0228,-0.031 0.01347,-0.12417 -0.0093,-0.0932 0.07157,-0.10386 0.102667,-0.0771 0,0 0.03213,0.0279 0.0026,0.0869 -0.01707,0.0341 -0.04433,0.0782 -0.118666,0.11433 z"
     id="path138"
     inkscape:connector-curvature="0"
     style="fill:#64b4d1;stroke:#00247d;stroke-width:0.0133;stroke-miterlimit:2.61299992" />
  <path
     d="m 17.547933,6.97007 c 0,0 0.03033,-0.0326 0.01583,-0.10334 0,0 -1e-4,-0.007 0.0039,-0.007 0,0 0.0073,-0.002 0.0086,0.005 0,0 0.01633,0.0755 -0.01793,0.11646 0,0 -0.0062,0.006 -0.01043,0 0,0 -0.0046,-0.004 0,-0.0107 z"
     id="path140"
     inkscape:connector-curvature="0"
     style="fill:#ffffff;stroke-width:0.03333334" />
  <path
     stroke-miterlimit="2.613"
     d="m 17.491667,7.00573 c 0,0 -0.0023,-0.0376 -0.06727,-0.10133 -0.0649,-0.0638 -0.01153,-0.12267 0.0282,-0.12213 0,0 0.04117,6.6e-4 0.056,0.0633 0.0086,0.0363 0.0158,0.0864 -0.0169,0.16013 z"
     id="path142"
     inkscape:connector-curvature="0"
     style="fill:#64b4d1;stroke:#00247d;stroke-width:0.0133;stroke-miterlimit:2.61299992" />
  <path
     d="m 17.4816,6.9241 c 0,0 0.0012,-0.046 -0.0576,-0.094 0,0 -0.0048,-0.006 -0.002,-0.009 0,0 0.0043,-0.006 0.01,-0.001 0,0 0.06327,0.0507 0.0648,0.1059 0,0 -6.67e-4,0.009 -0.008,0.007 0,0 -0.0064,-5.6e-4 -0.0072,-0.009 z"
     id="path144"
     inkscape:connector-curvature="0"
     style="fill:#ffffff;stroke-width:0.03333334" />
  <path
     stroke-miterlimit="2.613"
     d="m 17.403567,6.9775 c 0,0 -0.017,-0.0306 -0.0971,-0.059 -0.08017,-0.0285 -0.0585,-0.0985 -0.02477,-0.11347 0,0 0.035,-0.0153 0.0725,0.0316 0.02167,0.0271 0.04767,0.0663 0.0494,0.14093 z"
     id="path146"
     inkscape:connector-curvature="0"
     style="fill:#64b4d1;stroke:#00247d;stroke-width:0.0133;stroke-miterlimit:2.61299992" />
  <path
     d="m 17.368433,6.92127 c 0,0 -0.0182,-0.0422 -0.0916,-0.0607 0,0 -0.0067,-0.003 -0.0054,-0.007 0,0 0.0013,-0.008 0.0085,-0.006 0,0 0.07857,0.0189 0.103133,0.0684 0,0 0.0031,0.008 -0.0043,0.009 0,7e-5 -0.0061,0.002 -0.01023,-0.005 z"
     id="path148"
     inkscape:connector-curvature="0"
     style="fill:#ffffff;stroke-width:0.03333334" />
  <path
     stroke-miterlimit="2.613"
     d="m 17.453767,7.00813 c 0,0 -0.03733,0.0105 -0.1232,-0.0309 -0.0858,-0.0414 -0.1234,0.0307 -0.108334,0.0692 0,0 0.01567,0.0399 0.08213,0.0329 0.0384,-0.004 0.08977,-0.0141 0.149433,-0.0712 z"
     id="path150"
     inkscape:connector-curvature="0"
     style="fill:#64b4d1;stroke:#00247d;stroke-width:0.0133;stroke-miterlimit:2.61299992" />
  <path
     d="m 17.2542,7.0355 c 0,0 0.03893,0.024 0.109533,-0.003 0,0 0.0072,-10e-4 0.0083,0.002 0,0 0.0032,0.007 -0.0038,0.009 0,0 -0.07513,0.0299 -0.1234,0.004 0,0 -0.0073,-0.005 -0.0018,-0.0103 0,0 0.0037,-0.005 0.0111,-0.002 z"
     id="path152"
     inkscape:connector-curvature="0"
     style="fill:#ffffff;stroke-width:0.03333334" />
  <path
     stroke-miterlimit="2.613"
     d="m 17.3282,6.7369 c 0,0 0.04287,0.0208 0.0329,0.071"
     id="path154"
     inkscape:connector-curvature="0"
     style="fill:none;stroke:#000000;stroke-width:0.01773333;stroke-miterlimit:2.61299992" />
  <path
     stroke-miterlimit="10"
     d="m 17.5176,6.74393 c 0,0 0.01677,0.0531 -0.0017,0.0817"
     id="path156"
     inkscape:connector-curvature="0"
     style="fill:none;stroke:#000000;stroke-width:0.01773333;stroke-miterlimit:10" />
  <path
     stroke-miterlimit="2.613"
     d="m 14.5606,7.0396 c 0,0 -0.0228,-0.031 -0.0135,-0.12417 0.0093,-0.0932 -0.07153,-0.10386 -0.102667,-0.0771 0,0 -0.03213,0.0279 -0.0026,0.0869 0.01707,0.0341 0.04433,0.0782 0.118733,0.11433 z"
     id="path158"
     inkscape:connector-curvature="0"
     style="fill:#64b4d1;stroke:#00247d;stroke-width:0.0133;stroke-miterlimit:2.61299992" />
  <path
     d="m 14.530167,6.97007 c 0,0 -0.03033,-0.0326 -0.01583,-0.10334 0,0 10e-5,-0.007 -0.0039,-0.007 0,0 -0.0073,-0.002 -0.0086,0.005 0,0 -0.01633,0.0755 0.01793,0.11646 0,0 0.0062,0.006 0.01043,0 0,0 0.0046,-0.004 0,-0.0107 z"
     id="path160"
     inkscape:connector-curvature="0"
     style="fill:#ffffff;stroke-width:0.03333334" />
  <path
     stroke-miterlimit="2.613"
     d="m 14.5864,7.00573 c 0,0 0.0024,-0.0376 0.06733,-0.10133 0.06487,-0.0638 0.0115,-0.12267 -0.02823,-0.12213 0,0 -0.04117,6.6e-4 -0.056,0.0633 -0.0086,0.0363 -0.0158,0.0864 0.0169,0.16013 z"
     id="path162"
     inkscape:connector-curvature="0"
     style="fill:#64b4d1;stroke:#00247d;stroke-width:0.0133;stroke-miterlimit:2.61299992" />
  <path
     d="m 14.596533,6.9241 c 0,0 -0.0012,-0.046 0.0576,-0.094 0,0 0.0048,-0.006 0.002,-0.009 0,0 -0.0043,-0.006 -0.01,-0.001 0,0 -0.06327,0.0507 -0.0648,0.1059 0,0 6.67e-4,0.009 0.008,0.007 0,0 0.0064,-5.6e-4 0.0072,-0.009 z"
     id="path164"
     inkscape:connector-curvature="0"
     style="fill:#ffffff;stroke-width:0.03333334" />
  <path
     stroke-miterlimit="2.613"
     d="m 14.674533,6.9775 c 0,0 0.017,-0.0306 0.0971,-0.059 0.08013,-0.0285 0.05847,-0.0985 0.02473,-0.11347 0,0 -0.035,-0.0153 -0.07247,0.0316 -0.02167,0.0271 -0.04767,0.0663 -0.0494,0.14093 z"
     id="path166"
     inkscape:connector-curvature="0"
     style="fill:#64b4d1;stroke:#00247d;stroke-width:0.0133;stroke-miterlimit:2.61299992" />
  <path
     d="m 14.709667,6.92127 c 0,0 0.0182,-0.0422 0.0916,-0.0607 0,0 0.0067,-0.003 0.0054,-0.007 0,0 -0.0013,-0.008 -0.0085,-0.006 0,0 -0.07857,0.0189 -0.103133,0.0684 0,0 -0.0031,0.008 0.0044,0.009 0,7e-5 0.0061,0.002 0.0102,-0.005 z"
     id="path168"
     inkscape:connector-curvature="0"
     style="fill:#ffffff;stroke-width:0.03333334" />
  <path
     stroke-miterlimit="2.613"
     d="m 14.624333,7.00813 c 0,0 0.03733,0.0105 0.1232,-0.0309 0.0858,-0.0414 0.1234,0.0307 0.108334,0.0692 0,0 -0.01567,0.0399 -0.08213,0.0329 -0.03833,-0.004 -0.08973,-0.0141 -0.1494,-0.0712 z"
     id="path170"
     inkscape:connector-curvature="0"
     style="fill:#64b4d1;stroke:#00247d;stroke-width:0.0133;stroke-miterlimit:2.61299992" />
  <path
     d="m 14.8239,7.0355 c 0,0 -0.03893,0.024 -0.109533,-0.003 0,0 -0.0072,-10e-4 -0.0083,0.002 0,0 -0.0032,0.007 0.0038,0.009 0,0 0.07513,0.0299 0.123334,0.004 0,0 0.0073,-0.005 0.0019,-0.0103 0,0 -0.0037,-0.005 -0.0111,-0.002 z"
     id="path172"
     inkscape:connector-curvature="0"
     style="fill:#ffffff;stroke-width:0.03333334" />
  <path
     stroke-miterlimit="2.613"
     d="m 14.7499,6.7369 c 0,0 -0.04287,0.0208 -0.0329,0.071"
     id="path174"
     inkscape:connector-curvature="0"
     style="fill:none;stroke:#000000;stroke-width:0.01773333;stroke-miterlimit:2.61299992" />
  <path
     stroke-miterlimit="10"
     d="m 14.5605,6.74393 c 0,0 -0.01677,0.0531 0.0017,0.0817"
     id="path176"
     inkscape:connector-curvature="0"
     style="fill:none;stroke:#000000;stroke-width:0.01773333;stroke-miterlimit:10" />
  <path
     d="m 16.4211,6.25633 c 0,0 0.02717,0.0776 0.01543,0.1478 -0.01047,0.0628 0.0038,0.0791 0.02653,0.0915 0.01967,0.0107 0.06517,-0.008 0.07067,-0.0573 0,0 0.0538,0.105 -0.05087,0.1759 0,0 -0.07527,0.0463 -0.139,-0.0156 -0.02253,-0.0218 -0.03243,-0.0819 -0.02147,-0.13773 0,0 0.01647,-0.0757 -0.011,-0.15333 0,0 0.04287,0.0458 0.03193,0.137 0,0 -0.02193,0.1636 0.09917,0.15556 0,0 0.08373,-0.001 0.08623,-0.10253 0,0 -0.0314,0.0361 -0.07027,0.0241 -0.02757,-0.009 -0.05287,-0.0352 -0.04833,-0.0772 0.0047,-0.044 0.01693,-0.12083 0.011,-0.1882 z M 16.283867,6.5251 c 0,0 -0.0067,0.12933 -0.124934,0.16083 0,0 0.01667,-0.0234 -0.01,-0.0878 0,0 -0.02587,-0.0375 -0.02387,-0.0958 0,0 -0.03767,0.0295 0.0053,0.1072 0.0259,0.0469 0.0033,0.10324 -0.0047,0.10524 -0.008,0.002 0.195334,-0.0268 0.158134,-0.18967 z M 16.130333,6.39643 c 0,0 -0.02857,-0.0322 -0.03057,-0.10656 -0.002,-0.0744 -0.01593,-0.0925 -0.0259,-0.1012 0,0 0.0146,0.0643 0.0106,0.10386 -0.004,0.0395 0.0027,0.0623 0.008,0.0811 0,0 -0.06447,0.01 -0.105,-0.0838 -0.03877,-0.0897 -0.07777,-0.0824 -0.097,-0.0818 0,0 0.02243,0.002 0.06773,0.0844 0.04527,0.0819 0.05783,0.0986 0.172133,0.10393 z M 15.828667,6.20207 c 0,0 0.0372,0.0891 0.03853,0.13606 0,0 -0.0864,-0.0288 -0.109667,-0.1039 0,0 -0.09233,0.0315 -0.05847,0.13807 0,0 -0.07973,-0.0282 -0.115667,-0.0932 0,0 0.04457,0.0335 0.08577,0.0483 0,0 -0.0047,-0.0858 0.103,-0.118 0,0 0.016,0.0769 0.06977,0.0952 0,0 -0.004,-0.0482 -0.01327,-0.10254 z m 0.1422,-0.15274 c 0,0 0.0299,0.0435 0.091,0.0455 0.02927,0.001 0.06067,-0.006 0.0911,-0.0456 0,0 -0.004,0.0757 -0.0911,0.0763 0,0 -0.091,0.003 -0.091,-0.0763 z M 15.594233,6.567 c 0,0 0.04533,0.0412 0.0548,0.0548 0,0 0.03193,0.0312 0.05933,-0.009 0,0 0.03493,-0.0645 0.07777,-0.0628 0,0 -0.0304,0.0211 -0.06457,0.082 0,0 -0.0092,0.0225 -0.03467,0.025 -0.01187,0.001 -0.02687,0.005 -0.0496,-0.0187 0,0 -0.01967,-0.024 -0.043,-0.0712 z M 16.0619,5.74567 c -0.091,0 -0.01433,0.0704 -0.01433,0.0704 0.002,0.11156 -0.0875,0.1459 -0.148467,0.1136 -0.061,-0.0323 -0.01333,-0.1136 -0.01333,-0.1136 0,0 -0.06873,0.0452 -0.02487,0.11056 0.04383,0.0653 0.1588,0.0361 0.201,-0.0242 0.0422,0.0603 0.157167,0.0895 0.201,0.0241 0.0439,-0.0654 -0.0249,-0.1106 -0.0249,-0.1106 0,0 0.04767,0.0812 -0.01327,0.1136 -0.061,0.0323 -0.150533,-0.002 -0.148533,-0.1136 0,0 0.07673,-0.0704 -0.01433,-0.0703 z m 0.05517,-0.1206 c 0,0 0.03187,0.0543 0.0249,0.13666 0,0 0.02887,-0.0824 -0.02493,-0.13666 z M 15.838,5.75273 c 0,0 -0.007,-0.0593 -0.06483,-0.0643 0,0 0.04883,0.0352 0.0648,0.0643 z m 0.448533,0 c 0,0 0.007,-0.0593 0.0648,-0.0643 0,0 -0.04887,0.0352 -0.0648,0.0643 z m -0.5403,0.0905 c 0,0 0.04587,0.0141 0.07377,-0.0201 0,0 -0.05283,0.0141 -0.07377,0.0201 z m -0.1485,-0.36387 c 0,0 0.05333,-0.006 0.106667,0.0733 0,0 -0.05287,0.0282 -0.0658,0.0453 0,0 0,-0.0261 0.0259,-0.0493 0,0 -0.01,-0.0402 -0.06677,-0.0693 z m 0.893134,0 c 0,0 -0.05333,-0.006 -0.106667,0.0733 0,0 0.05287,0.0282 0.0658,0.0453 0,0 0,-0.0261 -0.0259,-0.0493 0,0 0.0099,-0.0402 0.06677,-0.0693 z M 16.0792,5.53856 c 0,0 0.04783,0.0131 0.107667,-0.0201 0,0 0.07373,-0.0392 0.1206,0 0,0 -0.0409,-0.0182 -0.119667,0.0201 0,0 -0.07873,0.0432 -0.1086,0 z"
     id="path178"
     inkscape:connector-curvature="0"
     style="stroke-width:0.03333334" />
  <path
     d="m 16.129,5.58687 c 0,0 0.0409,-0.0717 0.1655,-0.0574 0,0 -0.0339,0.0997 -0.165467,0.0574 z"
     id="path180"
     inkscape:connector-curvature="0"
     style="fill:#ffffff;stroke-width:0.03333334" />
  <ellipse
     cx="16.214968"
     cy="5.5646362"
     rx="0.024633335"
     ry="0.031233333"
     id="ellipse182"
     style="fill:#784421;stroke-width:0.03333334" />
  <ellipse
     cx="16.214968"
     cy="5.5646362"
     rx="0.014633333"
     ry="0.019166667"
     id="ellipse184"
     style="stroke-width:0.03333334" />
  <path
     d="m 15.861867,5.43407 c 0,0 0.07873,0.005 0.1266,0.0352 0,0 0.05083,0.0302 0.108666,-0.0131 0,0 0.06283,-0.0362 0.1032,-0.0864 0,0 -0.09623,0.0663 -0.132133,0.0764 0,0 -0.0329,-0.0251 -0.04583,-0.0613 0,0 0.005,-0.0271 0.05683,-0.0773 0,0 -0.06977,0.0211 -0.08373,0.0803 0,0 0.013,0.0362 0.03987,0.0644 0,0 -0.013,0.006 -0.04687,-0.0151 0,0 -0.07377,-0.0251 -0.1266,-0.003 z M 16.0619,5.907 c -0.0681,0.0589 0,0.0528 0,0.0528 0,0 0.06813,0.006 0,-0.0528 z M 16.0225,5.53857 c 0,0 -0.04787,0.0131 -0.107667,-0.0201 0,0 -0.0738,-0.0392 -0.120666,0 0,0 0.0409,-0.0182 0.119666,0.0201 0,0 0.07873,0.0432 0.108667,0 z"
     id="path186"
     inkscape:connector-curvature="0"
     style="stroke-width:0.03333334" />
  <path
     d="m 15.972667,5.58687 c 0,0 -0.0409,-0.0717 -0.1655,-0.0574 0,0 0.0339,0.0997 0.1655,0.0574 z"
     id="path188"
     inkscape:connector-curvature="0"
     style="fill:#ffffff;stroke-width:0.03333334" />
  <ellipse
     cx="15.886701"
     cy="5.5646362"
     rx="0.024633335"
     ry="0.031233333"
     id="ellipse190"
     style="fill:#784421;stroke-width:0.03333334" />
  <ellipse
     cx="15.886701"
     cy="5.5646362"
     rx="0.014633333"
     ry="0.019166667"
     id="ellipse192"
     style="stroke-width:0.03333334" />
  <path
     d="m 18.468767,4.942 v 4.5171 c 0,1.20657 -2.412,1.59857 -2.412,1.59857 0,0 -2.412,-0.392 -2.412,-1.59857 V 4.942 Z"
     id="path194"
     inkscape:connector-curvature="0"
     style="fill:none;stroke:#000000;stroke-width:0.04266667" />
</svg>
