<?xml version="1.0" encoding="UTF-8" standalone="no"?>
<svg
   xmlns:dc="http://purl.org/dc/elements/1.1/"
   xmlns:cc="http://creativecommons.org/ns#"
   xmlns:rdf="http://www.w3.org/1999/02/22-rdf-syntax-ns#"
   xmlns:svg="http://www.w3.org/2000/svg"
   xmlns="http://www.w3.org/2000/svg"
   xmlns:sodipodi="http://sodipodi.sourceforge.net/DTD/sodipodi-0.dtd"
   xmlns:inkscape="http://www.inkscape.org/namespaces/inkscape"
   height="16"
   width="21.333523"
   viewBox="0 0 21.333523 16"
   version="1.1"
   id="svg111"
   sodipodi:docname="by.svg"
   inkscape:version="0.92.1 r">
  <metadata
     id="metadata115">
    <rdf:RDF>
      <cc:Work
         rdf:about="">
        <dc:format>image/svg+xml</dc:format>
        <dc:type
           rdf:resource="http://purl.org/dc/dcmitype/StillImage" />
        <dc:title></dc:title>
      </cc:Work>
    </rdf:RDF>
  </metadata>
  <sodipodi:namedview
     pagecolor="#ffffff"
     bordercolor="#666666"
     borderopacity="1"
     objecttolerance="10"
     gridtolerance="10"
     guidetolerance="10"
     inkscape:pageopacity="0"
     inkscape:pageshadow="2"
     inkscape:window-width="1920"
     inkscape:window-height="1024"
     id="namedview113"
     showgrid="false"
     inkscape:zoom="0.49166667"
     inkscape:cx="320"
     inkscape:cy="240"
     inkscape:window-x="0"
     inkscape:window-y="0"
     inkscape:window-maximized="1"
     inkscape:current-layer="svg111"
     fit-margin-top="0"
     fit-margin-left="0"
     fit-margin-right="0"
     fit-margin-bottom="0" />
  <defs
     id="defs5">
    <clipPath
       id="a">
      <path
         d="M 0,0 H 682.6 V 512 H 0 Z"
         id="path2"
         inkscape:connector-curvature="0"
         style="fill-opacity:0.67000002" />
    </clipPath>
  </defs>
  <g
     clip-path="url(#a)"
     transform="scale(0.03125333,0.03125)"
     id="g109"
     style="fill-rule:evenodd">
    <path
       d="M 0,0 H 1024 V 340.11 H 0 Z"
       id="path7"
       inkscape:connector-curvature="0"
       style="fill:#b20000" />
    <path
       d="M 0,340.11 H 1024 V 512 H 0 Z"
       id="path9"
       inkscape:connector-curvature="0"
       style="fill:#429f00" />
    <path
       d="M 0,0 H 113.37 V 512 H 0 Z"
       id="path11"
       inkscape:connector-curvature="0"
       style="fill:#ffffff" />
    <g
       id="g107"
       style="fill:#b20000;stroke-width:1.00000003pt">
      <path
         d="m 5.394,8.682 h 5.398 v 8.68 H 5.394 Z m 16.196,0 h 16.196 v 8.68 H 21.59 Z M 26.983,0 h 5.398 V 8.68 H 26.984 Z M 53.98,0 h 5.4 v 8.68 h -5.4 z m 21.59,8.682 h 16.197 v 8.68 H 75.57 Z M 80.98,0 h 5.398 V 8.68 H 80.98 Z"
         id="path13"
         inkscape:connector-curvature="0" />
      <path
         d="m 16.196,17.36 h 10.798 v 8.68 H 16.196 Z m 16.196,0 H 43.19 v 8.68 H 32.392 Z m 37.785,0 h 10.798 v 8.68 H 70.177 Z m 16.196,0 H 97.17 v 8.68 H 86.374 Z m -75.586,8.68 h 10.798 v 8.678 H 10.787 Z m 26.999,0 h 10.797 v 8.678 H 37.786 Z m 26.998,0 H 75.58 v 8.678 H 64.785 Z m 26.983,0 h 10.797 v 8.678 H 91.767 Z M 102.57,8.682 h 5.397 v 8.68 h -5.398 z M 5.394,34.718 h 10.798 v 8.678 H 5.394 Z m 37.786,0 h 10.797 v 8.678 H 43.18 Z m 53.995,0 h 10.798 v 8.678 H 97.175 Z M 10.787,60.75 h 10.798 v 8.68 H 10.787 Z m 5.409,8.68 h 10.798 v 8.677 H 16.196 Z m 21.59,-8.68 h 10.797 v 8.68 H 37.786 Z m -5.394,8.68 H 43.19 v 8.677 H 32.392 Z M 21.59,78.107 h 16.196 v 8.678 H 21.59 Z"
         id="path15"
         inkscape:connector-curvature="0" />
      <path
         d="m 26.983,86.784 h 5.398 v 8.68 H 26.984 Z M 64.784,60.752 H 75.58 V 69.43 H 64.785 Z m 5.393,8.678 h 10.798 v 8.677 H 70.177 Z m 21.59,-8.68 h 10.797 v 8.68 H 91.767 Z m -5.394,8.68 H 97.17 v 8.677 H 86.374 Z M 75.57,78.107 h 16.197 v 8.678 H 75.57 Z"
         id="path17"
         inkscape:connector-curvature="0" />
      <path
         d="m 80.98,86.784 h 5.398 v 8.68 H 80.98 Z m -27,-8.677 h 5.4 v 8.678 h -5.4 z m -53.98,0 h 5.398 v 8.678 H 0 Z m 107.963,0 h 5.398 v 8.678 h -5.397 z m -80.98,43.39 h 5.398 v 8.678 h -5.397 z"
         id="path19"
         inkscape:connector-curvature="0" />
      <path
         d="m 21.59,130.174 h 16.196 v 8.678 H 21.59 Z m -5.394,8.678 H 43.19 v 8.678 H 16.196 Z M 80.98,121.497 h 5.398 v 8.678 H 80.98 Z"
         id="path21"
         inkscape:connector-curvature="0" />
      <path
         d="m 75.57,130.174 h 16.197 v 8.678 H 75.57 Z m -5.393,8.678 H 97.17 v 8.678 H 70.178 Z m 5.393,43.39 h 26.994 v 8.678 H 75.57 Z M 64.784,147.53 h 37.79 v 8.68 h -37.79 z m -53.997,0 h 37.79 v 8.68 h -37.79 z m 5.409,43.39 h 16.196 v 8.678 H 16.196 Z m -5.409,-8.678 H 37.78 v 8.678 H 10.788 Z m 75.586,-17.356 h 26.994 v 8.678 H 86.373 Z M 80.98,190.92 h 16.195 v 8.678 H 80.98 Z"
         id="path23"
         inkscape:connector-curvature="0" />
      <path
         d="m 21.59,199.597 h 5.398 v 8.68 H 21.59 Z m 64.783,0 h 5.398 v 8.68 H 86.374 Z M 0,164.886 h 26.994 v 8.678 H 0 Z m 48.588,17.356 h 16.196 v 8.678 H 48.588 Z m 5.392,8.678 h 5.4 v 8.678 h -5.4 z M 37.786,164.886 h 37.79 v 8.678 H 37.786 Z M 59.375,34.718 h 10.798 v 8.678 H 59.375 Z"
         id="path25"
         inkscape:connector-curvature="0" />
      <path
         d="m 48.588,43.395 h 16.196 v 8.678 H 48.588 Z"
         id="path27"
         inkscape:connector-curvature="0" />
      <path
         d="m 43.18,52.073 h 10.797 v 8.68 H 43.18 Z m 16.195,0 h 10.798 v 8.68 H 59.375 Z M 0,43.395 h 10.798 v 8.678 H 0 Z"
         id="path29"
         inkscape:connector-curvature="0" />
      <path
         d="m 5.394,52.073 h 10.798 v 8.68 H 5.394 Z m 97.176,-8.678 h 10.797 v 8.678 H 102.57 Z m -5.395,8.678 h 10.798 v 8.68 H 97.175 Z M 0,130.174 h 5.398 v 8.678 H 0 Z m 107.963,0 h 5.398 v 8.678 h -5.397 z m -59.375,69.423 h 16.196 v 8.68 H 48.588 Z"
         id="path31"
         inkscape:connector-curvature="0" />
      <path
         d="m 43.18,208.276 h 10.797 v 8.678 H 43.18 Z m 16.195,0 h 10.798 v 8.678 H 59.375 Z m -21.589,8.678 h 10.797 v 8.678 H 37.786 Z m 26.998,0 H 75.58 v 8.678 H 64.785 Z"
         id="path33"
         inkscape:connector-curvature="0" />
      <path
         d="M 32.392,225.63 H 43.19 v 8.68 H 32.392 Z m 37.785,0 h 10.798 v 8.68 H 70.177 Z m -43.194,8.68 H 37.78 v 8.678 H 26.984 Z m 48.587,0 h 10.8 v 8.678 h -10.8 z"
         id="path35"
         inkscape:connector-curvature="0" />
      <path
         d="m 16.196,242.987 h 16.196 v 8.678 H 16.196 Z m 64.784,0 h 16.195 v 8.678 H 80.98 Z"
         id="path37"
         inkscape:connector-curvature="0" />
      <path
         d="m 91.767,234.31 h 10.797 v 8.678 H 91.767 Z m 5.408,-8.68 h 10.798 v 8.68 H 97.175 Z"
         id="path39"
         inkscape:connector-curvature="0" />
      <path
         d="m 102.57,216.954 h 10.797 v 8.678 H 102.57 Z M 10.787,234.31 h 10.798 v 8.678 H 10.787 Z m -5.393,-8.68 h 10.798 v 8.68 H 5.394 Z"
         id="path41"
         inkscape:connector-curvature="0" />
      <path
         d="m 0,216.954 h 10.798 v 8.678 H 0 Z m 21.59,34.711 h 5.398 v 8.678 H 21.59 Z m 64.783,0 h 5.398 v 8.678 H 86.374 Z M 53.98,225.63 h 5.4 v 8.68 h -5.4 z m -16.194,26.035 h 5.398 v 8.678 h -5.398 z m 32.391,0 h 5.398 v 8.678 h -5.398 z m -16.197,0 h 5.4 v 8.678 h -5.4 z m -53.98,0 h 5.398 v 8.678 H 0 Z m 107.963,0 h 5.398 v 8.678 h -5.397 z M 53.98,130.174 h 5.4 v 8.678 h -5.4 z M 26.983,43.395 h 5.398 v 8.678 h -5.397 z m 53.997,0 h 5.398 v 8.678 H 80.98 Z M 48.588,104.14 h 16.196 v 8.68 H 48.588 Z"
         id="path43"
         inkscape:connector-curvature="0" />
      <path
         d="M 37.786,112.818 H 53.98 v 8.68 H 37.787 Z"
         id="path45"
         inkscape:connector-curvature="0" />
      <path
         d="m 43.18,121.497 h 5.397 v 8.678 H 43.18 Z M 32.392,104.14 H 43.19 v 8.68 H 32.392 Z"
         id="path47"
         inkscape:connector-curvature="0" />
      <path
         d="M 37.786,95.463 H 53.98 v 8.678 H 37.787 Z"
         id="path49"
         inkscape:connector-curvature="0" />
      <path
         d="m 43.18,86.784 h 5.397 v 8.68 H 43.18 Z m 16.195,8.679 H 75.57 v 8.678 H 59.376 Z"
         id="path51"
         inkscape:connector-curvature="0" />
      <path
         d="m 64.784,86.784 h 5.398 v 8.68 h -5.398 z m 5.393,17.356 h 10.798 v 8.68 H 70.177 Z"
         id="path53"
         inkscape:connector-curvature="0" />
      <path
         d="M 59.375,112.818 H 75.57 v 8.68 H 59.376 Z"
         id="path55"
         inkscape:connector-curvature="0" />
      <path
         d="m 64.784,121.497 h 5.398 v 8.678 H 64.784 Z M 86.373,104.14 H 97.17 v 8.68 H 86.374 Z"
         id="path57"
         inkscape:connector-curvature="0" />
      <path
         d="m 91.767,95.463 h 16.196 v 8.678 H 91.767 Z"
         id="path59"
         inkscape:connector-curvature="0" />
      <path
         d="m 102.57,104.14 h 10.797 v 8.68 H 102.57 Z"
         id="path61"
         inkscape:connector-curvature="0" />
      <path
         d="m 91.767,112.818 h 16.196 v 8.68 H 91.767 Z"
         id="path63"
         inkscape:connector-curvature="0" />
      <path
         d="m 97.175,121.497 h 5.4 v 8.678 h -5.4 z m 0,-34.713 h 5.4 v 8.68 h -5.4 z M 0,104.14 h 10.798 v 8.68 H 0 Z"
         id="path65"
         inkscape:connector-curvature="0" />
      <path
         d="M 5.394,95.463 H 21.59 v 8.678 H 5.394 Z"
         id="path67"
         inkscape:connector-curvature="0" />
      <path
         d="m 16.196,104.14 h 10.798 v 8.68 H 16.196 Z"
         id="path69"
         inkscape:connector-curvature="0" />
      <path
         d="M 5.394,112.818 H 21.59 v 8.68 H 5.394 Z"
         id="path71"
         inkscape:connector-curvature="0" />
      <path
         d="m 10.787,121.497 h 5.398 v 8.678 h -5.398 z m 0,-34.713 h 5.398 v 8.68 h -5.398 z m -5.393,69.424 h 21.594 v 8.678 H 5.394 Z m 26.998,0 h 21.594 v 8.678 H 32.392 Z m 26.983,0 H 80.97 v 8.678 H 59.374 Z m 26.998,0 h 21.594 v 8.678 H 86.373 Z M 43.18,173.563 h 26.993 v 8.68 H 43.18 Z m -37.786,0 h 26.993 v 8.68 H 5.394 Z m 75.586,0 h 26.993 v 8.68 H 80.98 Z m 26.983,34.713 h 5.398 v 8.678 h -5.397 z M 0,208.276 h 5.398 v 8.678 H 0 Z m 5.394,295.051 h 5.398 v -8.678 H 5.394 Z m 16.196,0 h 16.196 v -8.678 H 21.59 Z"
         id="path73"
         inkscape:connector-curvature="0" />
      <path
         d="m 26.983,511.997 h 5.398 v -8.678 h -5.397 z m 26.997,0 h 5.4 v -8.678 h -5.4 z m 21.59,-8.67 h 16.197 v -8.678 H 75.57 Z"
         id="path75"
         inkscape:connector-curvature="0" />
      <path
         d="m 80.98,511.997 h 5.398 v -8.678 H 80.98 Z M 16.196,494.645 h 10.798 v -8.678 H 16.196 Z m 16.196,0 H 43.19 v -8.678 H 32.392 Z m 37.785,0 h 10.798 v -8.678 H 70.177 Z m 16.196,0 H 97.17 v -8.678 H 86.374 Z m -48.587,-8.682 h 10.797 v -8.678 H 37.786 Z m 26.998,0 H 75.58 v -8.678 H 64.785 Z m 26.983,0 h 10.797 v -8.678 H 91.767 Z m 10.803,17.364 h 5.397 v -8.678 h -5.398 z M 5.394,477.293 h 10.798 v -8.678 H 5.394 Z"
         id="path77"
         inkscape:connector-curvature="0" />
      <path
         d="m 43.18,477.293 h 10.797 v -8.678 H 43.18 Z m 53.995,0 h 10.798 v -8.678 H 97.175 Z M 10.787,451.26 h 10.798 v -8.68 H 10.787 Z m 5.409,-8.683 H 26.994 V 433.9 H 16.196 Z m 21.59,8.683 h 10.797 v -8.68 H 37.786 Z m -5.394,-8.683 H 43.19 V 433.9 H 32.392 Z M 21.59,433.895 h 16.196 v -8.678 H 21.59 Z"
         id="path79"
         inkscape:connector-curvature="0" />
      <path
         d="m 26.983,425.225 h 5.398 v -8.678 H 26.984 Z M 64.784,451.26 H 75.58 v -8.68 H 64.785 Z m 5.393,-8.683 H 80.975 V 433.9 H 70.177 Z m 21.59,8.683 h 10.797 v -8.68 H 91.767 Z m -5.394,-8.683 H 97.17 V 433.9 H 86.374 Z M 75.57,433.895 h 16.197 v -8.678 H 75.57 Z"
         id="path81"
         inkscape:connector-curvature="0" />
      <path
         d="m 80.98,425.225 h 5.398 v -8.678 H 80.98 Z m -27,8.67 h 5.4 v -8.678 h -5.4 z m -53.98,0 h 5.398 v -8.678 H 0 Z m 107.963,0 h 5.398 v -8.678 h -5.397 z M 26.983,390.51 h 5.398 v -8.68 h -5.397 z"
         id="path83"
         inkscape:connector-curvature="0" />
      <path
         d="m 21.59,381.84 h 16.196 v -8.68 H 21.59 Z m -5.394,-8.682 H 43.19 v -8.68 H 16.196 Z M 80.98,390.51 h 5.398 v -8.68 H 80.98 Z"
         id="path85"
         inkscape:connector-curvature="0" />
      <path
         d="m 75.57,381.84 h 16.197 v -8.68 H 75.57 Z m -5.393,-8.682 H 97.17 v -8.68 H 70.178 Z m 5.393,-43.386 h 26.994 v -8.68 H 75.57 Z m -10.786,34.703 h 37.79 v -8.678 h -37.79 z m -53.997,0 h 37.79 v -8.678 h -37.79 z m 5.409,-43.385 h 16.196 v -8.682 H 16.196 Z m -5.409,8.682 H 37.78 v -8.68 H 10.788 Z m 75.586,17.352 h 26.994 v -8.68 H 86.373 Z M 80.98,321.09 h 16.195 v -8.68 H 80.98 Z M 0,347.124 h 26.994 v -8.68 H 0 Z m 48.588,-17.352 h 16.196 v -8.68 H 48.588 Z m 5.392,-8.682 h 5.4 v -8.68 h -5.4 z m -16.194,26.034 h 37.79 v -8.68 h -37.79 z m 21.589,130.169 h 10.798 v -8.678 H 59.375 Z M 48.588,468.61 h 16.196 v -8.677 H 48.588 Z m -5.408,-8.68 h 10.797 v -8.68 H 43.18 Z m 16.195,0 h 10.798 v -8.68 H 59.375 Z M 0,468.61 h 10.798 v -8.677 H 0 Z m 5.394,-8.68 h 10.798 v -8.68 H 5.394 Z m 97.176,8.68 h 10.797 v -8.677 H 102.57 Z m -5.395,-8.68 h 10.798 v -8.68 H 97.175 Z M 0,381.84 h 5.398 v -8.68 H 0 Z m 107.963,0 h 5.398 v -8.68 h -5.397 z M 43.18,303.738 h 10.797 v -8.68 H 43.18 Z m 16.195,0 h 10.798 v -8.68 H 59.375 Z m -21.589,-8.682 h 10.797 v -8.68 H 37.786 Z m 26.998,0 H 75.58 v -8.68 H 64.785 Z M 32.392,286.374 H 43.19 v -8.68 H 32.392 Z m 37.785,0 h 10.798 v -8.68 H 70.177 Z"
         id="path87"
         inkscape:connector-curvature="0" />
      <path
         d="M 26.983,277.704 H 37.78 v -8.68 H 26.984 Z m 48.587,0 h 10.8 v -8.68 h -10.8 z m -59.374,-8.682 h 16.196 v -8.68 H 16.196 Z m 64.784,0 h 16.195 v -8.68 H 80.98 Z m 10.787,8.682 h 10.797 v -8.68 H 91.767 Z"
         id="path89"
         inkscape:connector-curvature="0" />
      <path
         d="m 97.175,286.374 h 10.798 v -8.68 H 97.175 Z m 5.395,8.682 h 10.797 v -8.68 H 102.57 Z M 10.787,277.704 h 10.798 v -8.68 H 10.787 Z"
         id="path91"
         inkscape:connector-curvature="0" />
      <path
         d="m 5.394,286.374 h 10.798 v -8.68 H 5.394 Z M 0,295.056 h 10.798 v -8.68 H 0 Z m 21.59,-34.713 h 5.398 v -8.678 H 21.59 Z m 32.39,26.031 h 5.4 v -8.68 h -5.4 z m 0,95.466 h 5.4 v -8.68 h -5.4 z m -26.997,86.77 h 5.398 v -8.677 h -5.397 z m 53.997,0 h 5.398 v -8.677 H 80.98 Z M 48.588,407.873 h 16.196 v -8.678 H 48.588 Z M 37.786,399.19 H 53.98 v -8.677 H 37.787 Z m 5.394,-8.68 h 5.397 v -8.68 H 43.18 Z M 32.392,407.873 H 43.19 v -8.678 H 32.392 Z"
         id="path93"
         inkscape:connector-curvature="0" />
      <path
         d="M 37.786,416.543 H 53.98 v -8.678 H 37.787 Z m 5.394,8.682 h 5.397 v -8.678 H 43.18 Z m 16.195,-8.682 H 75.57 v -8.678 H 59.376 Z m 5.409,8.682 h 5.398 v -8.678 h -5.398 z"
         id="path95"
         inkscape:connector-curvature="0" />
      <path
         d="m 70.177,407.873 h 10.798 v -8.678 H 70.177 Z M 59.375,399.19 H 75.57 v -8.677 H 59.376 Z m 5.409,-8.68 h 5.398 v -8.68 h -5.398 z m 21.589,17.363 H 97.17 v -8.678 H 86.374 Z"
         id="path97"
         inkscape:connector-curvature="0" />
      <path
         d="m 91.767,416.543 h 16.196 v -8.678 H 91.767 Z"
         id="path99"
         inkscape:connector-curvature="0" />
      <path
         d="m 102.57,407.873 h 10.797 v -8.678 H 102.57 Z M 91.767,399.19 h 16.196 v -8.677 H 91.767 Z m 5.408,-8.68 h 5.4 v -8.68 h -5.4 z m 0,34.715 h 5.4 v -8.678 h -5.4 z M 0,407.873 h 10.798 v -8.678 H 0 Z"
         id="path101"
         inkscape:connector-curvature="0" />
      <path
         d="M 5.394,416.543 H 21.59 v -8.678 H 5.394 Z"
         id="path103"
         inkscape:connector-curvature="0" />
      <path
         d="m 16.196,407.873 h 10.798 v -8.678 H 16.196 Z M 5.394,399.19 H 21.59 v -8.677 H 5.394 Z m 5.393,-8.68 h 5.398 v -8.68 h -5.398 z m 0,34.715 h 5.398 v -8.678 H 10.787 Z M 5.394,355.806 h 21.594 v -8.68 H 5.394 Z m 26.998,0 h 21.594 v -8.68 H 32.392 Z m 26.983,0 H 80.97 v -8.68 H 59.374 Z m 26.998,0 h 21.594 v -8.68 H 86.373 Z M 43.18,338.442 h 26.993 v -8.68 H 43.18 Z m -37.786,0 h 26.993 v -8.68 H 5.394 Z m 75.586,0 h 26.993 v -8.68 H 80.98 Z m 26.983,-34.704 h 5.398 v -8.68 h -5.397 z M 0,303.738 h 5.398 v -8.68 H 0 Z m 48.588,-43.395 h 5.398 v 8.68 h -5.398 z m 10.787,0 h 5.398 v 8.68 h -5.398 z m 0,-17.356 h 5.398 v 8.678 h -5.398 z m -10.787,0 h 5.398 v 8.678 H 48.588 Z M 10.787,477.293 h 10.798 v 8.68 H 10.787 Z M 86.373,312.408 h 5.398 v -8.68 h -5.397 z m -64.783,0 h 5.398 v -8.68 H 21.59 Z m 26.995,-8.674 H 64.78 v 8.677 H 48.585 Z"
         id="path105"
         inkscape:connector-curvature="0" />
    </g>
  </g>
</svg>
