<?xml version="1.0" encoding="UTF-8" standalone="no"?>
<svg
   xmlns:dc="http://purl.org/dc/elements/1.1/"
   xmlns:cc="http://creativecommons.org/ns#"
   xmlns:rdf="http://www.w3.org/1999/02/22-rdf-syntax-ns#"
   xmlns:svg="http://www.w3.org/2000/svg"
   xmlns="http://www.w3.org/2000/svg"
   xmlns:xlink="http://www.w3.org/1999/xlink"
   xmlns:sodipodi="http://sodipodi.sourceforge.net/DTD/sodipodi-0.dtd"
   xmlns:inkscape="http://www.inkscape.org/namespaces/inkscape"
   height="16"
   width="21.333332"
   viewBox="0 0 21.333332 16"
   version="1.1"
   id="svg30"
   sodipodi:docname="cc.svg"
   inkscape:version="0.92.1 r">
  <metadata
     id="metadata34">
    <rdf:RDF>
      <cc:Work
         rdf:about="">
        <dc:format>image/svg+xml</dc:format>
        <dc:type
           rdf:resource="http://purl.org/dc/dcmitype/StillImage" />
        <dc:title></dc:title>
      </cc:Work>
    </rdf:RDF>
  </metadata>
  <sodipodi:namedview
     pagecolor="#ffffff"
     bordercolor="#666666"
     borderopacity="1"
     objecttolerance="10"
     gridtolerance="10"
     guidetolerance="10"
     inkscape:pageopacity="0"
     inkscape:pageshadow="2"
     inkscape:window-width="1920"
     inkscape:window-height="1024"
     id="namedview32"
     showgrid="false"
     fit-margin-top="0"
     fit-margin-left="0"
     fit-margin-right="0"
     fit-margin-bottom="0"
     inkscape:zoom="0.49166667"
     inkscape:cx="320"
     inkscape:cy="240"
     inkscape:window-x="0"
     inkscape:window-y="0"
     inkscape:window-maximized="1"
     inkscape:current-layer="svg30" />
  <defs
     id="defs4">
    <path
       d="m 0,-360 69.42,215.845 212.04,-80.3 -125.473,188.851 194.986,115.71 -225.88,19.65 31.104,224.592 L 0,160 l -156.198,164.35 31.105,-224.592 -225.88,-19.65 194.985,-115.71 -125.47,-188.854 212.037,80.3 z"
       id="a"
       inkscape:connector-curvature="0" />
    <path
       d="M 0,-210 54.86,-75.508 199.722,-64.894 88.765,28.842 123.435,169.894 0,93.334 -123.435,169.894 -88.765,28.842 -199.722,-64.894 -54.86,-75.508 Z"
       id="b"
       inkscape:connector-curvature="0" />
  </defs>
  <path
     d="M 0,0 H 21.333333 V 16 H 0 Z"
     id="path6"
     inkscape:connector-curvature="0"
     style="fill:#008000;stroke-width:0.03333334" />
  <circle
     cx="10.666667"
     cy="8"
     r="2.2222333"
     id="circle8"
     style="fill:#ffe000;stroke-width:0.03333334" />
  <circle
     cx="11.359567"
     cy="8"
     r="1.8285667"
     id="circle10"
     style="fill:#008000;stroke-width:0.03333334" />
  <circle
     cx="3.6613667"
     cy="5.777771"
     r="2.3280334"
     id="circle12"
     style="fill:#ffe000;stroke-width:0.03333334" />
  <path
     d="m 3.5007333,7.53313 h 0.5813334 c 0,0 0.026233,-0.0533 -0.00587,-0.0799 -0.0321,-0.0267 -0.1571,-0.0325 -0.1233333,-0.12677 0.069433,-0.19376 0.079133,-0.134 0.1227333,-0.59423 0.0436,-0.4602 0.064567,-1.182 0.064567,-1.182 h -0.084 c 0,0 0.0162,0.22447 -0.032233,0.51673 -0.048467,0.29234 -0.063,0.3181 -0.1162666,0.54257 -0.053333,0.22443 -0.061333,0.2438 -0.1098,0.3746 -0.048433,0.1308 -0.053333,0.13727 -0.1292,0.25833 -0.075867,0.12114 -0.048433,0.0759 -0.0904,0.14857 -0.021,0.0363 -0.046833,0.0267 -0.061,0.0531 -0.0141,0.0264 -0.016533,0.089 -0.016533,0.089 z"
     id="path14"
     inkscape:connector-curvature="0"
     style="fill:#802000;stroke:#7b3100;stroke-width:0.04936666" />
  <path
     d="m 3.9443333,4.08167 c 0.00483,0.0903 -0.00423,0.20983 -0.041667,0.3071 -0.037933,0.1084 -0.0792,0.21646 -0.077167,0.32866 -0.060333,0.0206 -0.1224667,-0.1305 -0.1805333,-0.0417 0.0436,0.12283 0.1443333,0.22 0.2134333,0.33066 0.011667,0.0343 0.111,0.12387 0.0535,0.14467 C 3.7667993,5.10136 3.731666,4.91763 3.641666,4.80599 3.5371993,4.61819 3.3423326,4.48543 3.1253326,4.47626 3.0437656,4.47826 2.778666,4.45606 2.847666,4.59566 c 0.1015666,0.0691 0.2267333,0.1141 0.327,0.1916 0.074767,0.007 0.2102,0.13173 0.2023333,0.1789 -0.1314667,-0.0532 -0.193,-0.11707 -0.3345667,-0.173 -0.1919,-0.0742 -0.4573333,-0.0296 -0.5635,0.16083 -0.0198,0.0496 -0.049,0.19414 0.013233,0.20794 0.072767,-0.11367 0.1768666,-0.24067 0.3311,-0.20657 0.1211666,0.01 -0.1351667,0.22573 -0.037133,0.1822 0.031067,-0.0138 0.1028334,-0.0609 0.1526,-0.0658 0.049767,-0.005 0.077567,0.0323 0.1153334,0.0375 0.075533,0.0103 0.096333,0.042 0.089333,0.0604 -0.00827,0.0217 -0.032267,0.003 -0.109,0.0275 -0.038433,0.0122 -0.058467,0.0459 -0.1032667,0.0613 -0.044767,0.0155 -0.1379333,0.0165 -0.1727333,0.003 -0.1218,-0.0529 -0.3214667,-0.0437 -0.3594333,0.10893 -6.67e-5,0.0671 -0.0598,-0.007 -0.0874,0.0216 -0.020667,0.0732 -0.026,0.14844 -0.1346667,0.14177 -0.065933,0.0691 -0.1334667,0.14077 -0.2171667,0.19 0.049133,0.11277 0.2438,-0.11327 0.2346667,-0.018 -0.085067,0.11607 0.0438,0.1405 0.1002333,0.0512 0.095433,-0.10084 0.2136,-0.22354 0.356,-0.12194 0.067833,0.0638 0.1072334,-0.0338 0.1563334,-0.0285 0.0309,0.0793 0.069833,0.004 0.1049333,-0.0185 0.057433,-0.007 0.041267,0.0718 0.1095667,0.0232 0.1360666,-0.0901 0.3034666,-0.0144 0.4364,-0.102 0.1414666,-0.0645 0.019867,0.0519 -0.0192,0.0974 -0.062133,0.12056 -0.00823,0.27886 -0.1430667,0.35373 -0.054167,0.14367 0.064,0.33313 -0.056533,0.43943 -0.0175,0.0667 0.155,0.059 0.2034333,0.0864 0.084833,0.003 -0.00367,-0.1942 0.080533,-0.22067 0.1129334,0.0699 0.1076667,-0.125 0.084333,-0.1851 0.010933,-0.1366 0.018667,-0.286 0.086533,-0.40973 0.072167,-0.15167 0.139,0.0618 0.0582,0.12183 -0.0459,0.13943 -0.1126667,0.314 -0.00833,0.44367 0.030067,0.007 0.054767,0.0797 0.093667,0.102 0.039,0.0224 0.092167,-0.006 0.1018667,-0.072 0.049933,-0.19967 0.024767,-0.41447 0.0961,-0.60867 0.0504,-0.0602 0.1198333,-0.01 0.1510667,0.0456 0.1,0.116 0.1702333,0.2611 0.2912333,0.35673 0.1101667,0.0516 0.2076,0.12954 0.2583333,0.243 -6.666e-4,0.0875 0.2486667,0.1009 0.1741334,0.004 -0.071467,-0.0947 -0.024333,-0.18947 0.048067,-0.25243 0.038767,0.01 0.027333,-0.0599 -0.00307,-0.0324 -0.048667,-0.0115 -0.0518,-0.10057 0.015867,-0.0582 0.1139334,0.0368 -0.0089,-0.0825 -0.050067,-0.0861 -0.096333,-0.0597 -0.207,-0.12843 -0.2544,-0.23223 0.1254,0.001 0.2556,0.0689 0.3837333,0.027 0.1027333,-0.0528 0.2069333,0.004 0.2428,0.0949 0.0794,-0.0127 0.045567,-0.0923 0,-0.11883 0.0581,-0.0239 0.098267,-0.0737 0.027833,-0.11747 -0.0372,-0.0485 0.049867,-0.13133 -0.057133,-0.12786 0.00347,-0.0818 -0.028667,-0.15657 -0.1178,-0.1848 -0.089333,-0.0756 -0.3512667,0.11133 -0.3436667,-0.059 -0.0264,-0.0928 0.1064,-0.0124 0.1435334,-0.0587 0.038333,-0.0978 -0.1827334,-0.0882 -0.1098,-0.164 0.047667,-0.0307 0.2712333,-0.0748 0.0959,-0.10757 -0.087533,0.024 -0.1626667,0.006 -0.2315,-0.0371 -0.062767,0.105 -0.242,-0.057 -0.2100667,0.12967 -0.024533,0.0703 -0.1846667,0.253 -0.2280667,0.113 0.0369,-0.10967 0.2266667,-0.1456 0.1678334,-0.29353 -0.009,-0.0923 -0.0856,0.0161 -0.1216667,0.009 -0.018267,-0.0575 0.055267,-0.12524 0.1065,-0.13887 0.1016667,0.0782 0.1047333,-0.0987 0.2014333,-0.0843 0.0706,-0.0157 -0.0228,-0.046 -0.0425,-0.0593 0.019333,-0.0517 0.1277334,-0.0781 0.021467,-0.12294 -0.093767,-0.0696 -0.1632667,0.0692 -0.2406,0.0767 -0.074233,-0.0838 0.0674,-0.1241 0.1064667,-0.16823 0.0021,-0.0329 -0.082567,-0.01 -0.0571,-0.0386 C 4.426299,4.17505 4.5762326,4.17215 4.5060326,4.11278 4.400366,4.07648 4.263866,4.08548 4.162366,4.13258 4.098499,4.15328 4.079699,4.29778 4.024566,4.29178 3.998666,4.22748 4.032996,4.10051 3.944333,4.08191 Z m 0.5,1.41206 c 0.080567,-0.0137 0.00167,0.12234 -0.037,0.12034 0.0034,-0.0488 -0.1165666,-0.0441 -0.042133,-0.0867 a 0.24256667,0.24256667 0 0 1 0.079133,-0.0337 z"
     id="path16"
     inkscape:connector-curvature="0"
     style="fill:#008000;stroke-width:0.03333334" />
  <g
     transform="matrix(0.00211667,0,0,0.00211667,0,2.66667)"
     id="g28"
     style="fill:#ffe000">
    <use
       height="100%"
       width="100%"
       xlink:href="#a"
       x="7560"
       y="4200"
       id="use18" />
    <use
       height="100%"
       width="100%"
       xlink:href="#a"
       x="6300"
       y="2205"
       id="use20" />
    <use
       height="100%"
       width="100%"
       xlink:href="#a"
       x="7560"
       y="840"
       id="use22" />
    <use
       height="100%"
       width="100%"
       xlink:href="#a"
       x="8680"
       y="1869"
       id="use24" />
    <use
       height="100%"
       width="100%"
       xlink:href="#b"
       x="8064"
       y="2730"
       id="use26" />
  </g>
</svg>
