<?xml version="1.0" encoding="UTF-8" standalone="no"?>
<svg
   xmlns:dc="http://purl.org/dc/elements/1.1/"
   xmlns:cc="http://creativecommons.org/ns#"
   xmlns:rdf="http://www.w3.org/1999/02/22-rdf-syntax-ns#"
   xmlns:svg="http://www.w3.org/2000/svg"
   xmlns="http://www.w3.org/2000/svg"
   xmlns:xlink="http://www.w3.org/1999/xlink"
   xmlns:sodipodi="http://sodipodi.sourceforge.net/DTD/sodipodi-0.dtd"
   xmlns:inkscape="http://www.inkscape.org/namespaces/inkscape"
   height="16"
   width="21.333332"
   viewBox="0 0 21.333332 16"
   version="1.1"
   id="svg25"
   sodipodi:docname="cx.svg"
   inkscape:version="0.92.1 r">
  <metadata
     id="metadata31">
    <rdf:RDF>
      <cc:Work
         rdf:about="">
        <dc:format>image/svg+xml</dc:format>
        <dc:type
           rdf:resource="http://purl.org/dc/dcmitype/StillImage" />
        <dc:title></dc:title>
      </cc:Work>
    </rdf:RDF>
  </metadata>
  <defs
     id="defs29" />
  <sodipodi:namedview
     pagecolor="#ffffff"
     bordercolor="#666666"
     borderopacity="1"
     objecttolerance="10"
     gridtolerance="10"
     guidetolerance="10"
     inkscape:pageopacity="0"
     inkscape:pageshadow="2"
     inkscape:window-width="1920"
     inkscape:window-height="1024"
     id="namedview27"
     showgrid="false"
     fit-margin-top="0"
     fit-margin-left="0"
     fit-margin-right="0"
     fit-margin-bottom="0"
     inkscape:zoom="0.49166667"
     inkscape:cx="320"
     inkscape:cy="240"
     inkscape:window-x="0"
     inkscape:window-y="0"
     inkscape:window-maximized="1"
     inkscape:current-layer="svg25" />
  <path
     d="M 0,0 H 21.333333 V 16 H 0 Z"
     id="path2"
     inkscape:connector-curvature="0"
     style="fill:#0021ad;stroke-width:0.03333334" />
  <path
     d="M 0,0 H 21.333333 V 16 Z"
     id="path4"
     inkscape:connector-curvature="0"
     style="fill:#1c8a42;stroke-width:0.03333334" />
  <circle
     cx="10.666667"
     cy="8"
     r="1.9268334"
     id="circle6"
     style="fill:#ffc639;stroke-width:0.03333334" />
  <path
     d="m 9.4899333,7.1345 c 0.1318,0.18083 0.3315334,0.484 0.4922,0.4049 0.1253337,4.3e-4 0.1900667,0.009 0.2070667,0.0927 0.295667,0.0503 0.7926,-0.0744 1.1018,-0.47714 0,0 0.026,0.003 0.017,-0.14966 0.0017,-0.0667 0.09117,-0.0533 0.09333,-0.0316 0.01243,0.0331 0.01033,0.0578 0.02707,0.0587 0.03807,-0.0127 0.0901,-0.098 0.133733,-0.1522 0.01183,-0.0239 0.0054,-0.049 0.0082,-0.0791 0.023,-0.0566 0.0804,-0.0443 0.09243,-0.0147 0.011,0.0192 0.0112,0.0338 0.02193,0.0529 0.05833,0.0389 0.163466,0.003 0.171666,0.003 0.01033,-0.0475 0.04083,-0.043 0.04083,-0.043 0.0389,-0.009 0.02367,-0.005 0.04923,0.008 -0.02257,0.25613 0.05033,0.2675 0.04433,0.39887 0.0025,0.14666 -0.04433,0.18833 -0.04433,0.24426 0.01483,0.0684 0.231133,0.0708 0.155,0.1286 -0.06683,0.0357 2.33e-4,0.10257 -0.1004,0.1286 -0.292867,0.14857 -0.349,0.2761 -0.349,0.2761 0,0 -0.07353,0.1389 -0.08167,0.1389 -0.04907,0.0927 -0.1112,0.0421 -0.1458,0.0873 -0.0172,0.0567 -0.03657,0.18253 -0.0022,0.2479 0.01723,0.0899 -0.0021,0.1389 -0.0236,0.22876 -0.01933,0.1875 -0.09377,0.2159 -0.102334,0.28167 -0.03443,0.0703 0.0073,0.40067 -0.0254,0.40067 -0.218,0.004 -0.385133,-0.0418 -0.471333,-0.059 0.08407,-0.36234 0.05133,-0.6805 0.05133,-0.7132 -0.02147,-0.2591 -0.388066,-0.1961 -0.4442,-0.2305 -0.04643,-0.01 -0.07567,-0.0478 -0.092,-0.0641 -0.05187,-0.006 -0.0712,-0.0174 -0.123,-0.0228 -0.02583,0.0129 -0.01033,0.0262 -0.068,0.0441 -0.1461997,0.0177 -0.2106663,-0.1275 -0.2106663,-0.1275 0.00707,-0.0488 -0.3288,0.01 -0.5113334,-0.0325 -0.074867,0.0417 -0.1075666,0.16513 -0.1688333,0.17976 -0.00177,0.0382 -0.1009,-0.0314 -0.1208667,-0.0691 -0.0041,-0.10944 0.095467,-0.15784 0.095467,-0.15784 0.079133,-0.0557 0.126,-0.0647 0.1640667,-0.1032 0.019133,-0.0953 0.00943,-0.1658 0.0501,-0.2374 0.0344,-0.0547 0.085133,-0.029 0.1195333,-0.0535 0.037,-0.0246 0.052667,-0.185 0.018467,-0.22883 0,0 -0.1479334,-0.13354 -0.1561,-0.14167 -0.048133,-0.13807 0.056333,-0.2271 0.086267,-0.217 z"
     id="path8"
     inkscape:connector-curvature="0"
     style="fill:#1c8a42;stroke-width:0.03333334" />
  <path
     d="m 18.729167,4.74783 c -0.08733,-0.34546 -0.868667,-1.0895 -1.455934,-1.563 -0.1402,-0.0955 -0.231566,-0.0386 -0.213333,0.0976 0.07313,0.122 0.128,0.256 0.201067,0.378 0.0204,0.0812 0.0589,0.13813 0.07933,0.2194 0,0 0.006,0.1402 0.01827,0.1524 0.182766,0.20123 0.207333,0.37187 0.207333,0.37187 0.105533,0.20323 0.199067,0.35153 0.384,0.5182 0.207333,0.1301 0.05483,0.53433 0.06087,0.7498 0,0.1361 -0.09743,0.12 -0.1828,0.10366 -0.6726,-0.6178 -1.339167,-0.61973 -1.9264,-0.79866 -0.229667,-0.0243 -0.233734,0.0854 -0.158467,0.14623 0.410467,0.43907 0.796433,0.73773 1.304533,0.9876 l 0.2561,0.15867 c 0.09743,0.0813 0.195,0.16256 0.292434,0.24386 0.225566,0.1462 0.244066,0.28034 0.244066,0.29244 0.006,0.27433 -0.1404,0.48766 -0.183,0.573 -0.077,0.29093 -0.231566,0.3415 -0.231566,0.3415 -1.255934,0.8474 -1.914334,1.06673 -3.950467,0.8046 -0.03053,-0.0161 -0.225567,0.0163 0,0.0977 0.5182,0.17267 1.791167,0.4496 3.022733,-0.13356 0.295667,-0.20727 0.493467,-0.13934 0.707667,-0.2634 0.351767,-0.21694 0.854067,-0.487 0.945433,-0.51734 0.2744,-0.14643 1.0425,-0.31093 1.219467,-0.45733 0.203,-0.0163 0.413667,-0.043 0.4279,-0.21767 0.06667,-0.0432 0.164333,-0.0116 0.236767,-0.1539 0.161066,-0.028 0.134,-0.0856 0.134,-0.0856 -0.04067,-0.11373 -0.1912,-0.16066 -0.298667,-0.24383 -0.158733,-0.0529 -0.2684,-0.0692 -0.384333,-0.0123 -0.03653,0.0163 -0.07307,0.0325 -0.109667,0.0488 0,0 -0.170667,-0.0245 -0.170667,-0.0366 -0.379333,-0.0209 -0.342333,-1.2779 -0.476533,-1.8022 z"
     id="path10"
     inkscape:connector-curvature="0"
     style="fill:#ffc639;stroke-width:0.03333334" />
  <path
     d="m 19.618767,6.80553 a 0.09393333,0.05866667 15.947 1 1 -0.1791,-0.0562 0.09393333,0.05866667 15.947 0 1 0.1791,0.0562 z"
     id="path12"
     inkscape:connector-curvature="0"
     style="fill:#1c8a42;stroke-width:0.03333334" />
  <g
     transform="matrix(0.02133333,0,0,0.02133333,0,2.66667)"
     id="g23"
     style="fill:#ffffff">
    <path
       id="a"
       d="m 188.16,190.94 -12.75,-11.936 -12.905,11.77 1.383,-17.405 -17.25,-2.754 14.476,-9.774 -8.606,-15.197 16.668,5.22 6.518,-16.205 6.31,16.287 16.734,-5.007 -8.8,15.086 14.348,9.96 -17.283,2.53 1.158,17.424 z"
       inkscape:connector-curvature="0" />
    <path
       d="m 233.39,335.53 -13.752,-9.167 -13.39,9.664 4.71,-15.568 -13.58,-9.416 16.666,-0.446 4.988,-15.496 5.595,15.3 16.667,-0.156 -13.21,9.902 5.307,15.382 z"
       id="path15"
       inkscape:connector-curvature="0" />
    <use
       height="100%"
       width="100%"
       xlink:href="#a"
       x="2.5220001"
       y="269.061"
       id="use17" />
    <use
       height="100%"
       width="100%"
       xlink:href="#a"
       x="-112.066"
       y="123.223"
       id="use19" />
    <use
       height="100%"
       width="100%"
       xlink:href="#a"
       x="108.427"
       y="85.027"
       id="use21" />
  </g>
</svg>
