<?xml version="1.0" encoding="UTF-8" standalone="no"?>
<svg
   xmlns:dc="http://purl.org/dc/elements/1.1/"
   xmlns:cc="http://creativecommons.org/ns#"
   xmlns:rdf="http://www.w3.org/1999/02/22-rdf-syntax-ns#"
   xmlns:svg="http://www.w3.org/2000/svg"
   xmlns="http://www.w3.org/2000/svg"
   xmlns:xlink="http://www.w3.org/1999/xlink"
   xmlns:sodipodi="http://sodipodi.sourceforge.net/DTD/sodipodi-0.dtd"
   xmlns:inkscape="http://www.inkscape.org/namespaces/inkscape"
   height="16"
   width="21.333332"
   viewBox="0 0 21.333332 16"
   version="1.1"
   id="svg155"
   sodipodi:docname="fk.svg"
   inkscape:version="0.92.1 r">
  <metadata
     id="metadata159">
    <rdf:RDF>
      <cc:Work
         rdf:about="">
        <dc:format>image/svg+xml</dc:format>
        <dc:type
           rdf:resource="http://purl.org/dc/dcmitype/StillImage" />
        <dc:title></dc:title>
      </cc:Work>
    </rdf:RDF>
  </metadata>
  <sodipodi:namedview
     pagecolor="#ffffff"
     bordercolor="#666666"
     borderopacity="1"
     objecttolerance="10"
     gridtolerance="10"
     guidetolerance="10"
     inkscape:pageopacity="0"
     inkscape:pageshadow="2"
     inkscape:window-width="1920"
     inkscape:window-height="1024"
     id="namedview157"
     showgrid="false"
     fit-margin-top="0"
     fit-margin-left="0"
     fit-margin-right="0"
     fit-margin-bottom="0"
     inkscape:zoom="0.49166667"
     inkscape:cx="320"
     inkscape:cy="240"
     inkscape:window-x="0"
     inkscape:window-y="0"
     inkscape:window-maximized="1"
     inkscape:current-layer="svg155" />
  <defs
     id="defs16">
    <linearGradient
       id="a">
      <stop
         stop-color="#a43907"
         stop-opacity=".996"
         offset="0"
         id="stop2" />
      <stop
         stop-color="#fff"
         offset="1"
         id="stop4" />
    </linearGradient>
    <linearGradient
       id="b"
       y2="577.14001"
       xlink:href="#a"
       gradientUnits="userSpaceOnUse"
       x2="470.89999"
       y1="592.20001"
       x1="444.39999"
       gradientTransform="matrix(-0.04933333,0,0,0.05133333,35.787,-17.51433)" />
    <linearGradient
       id="c"
       y2="552.83002"
       xlink:href="#a"
       gradientUnits="userSpaceOnUse"
       x2="520.54999"
       gradientTransform="matrix(-0.04637333,0,0,0.05492666,35.787,-17.51433)"
       y1="562.51001"
       x1="458.23999" />
    <linearGradient
       id="d"
       y2="580.20001"
       xlink:href="#a"
       gradientUnits="userSpaceOnUse"
       x2="445.28"
       y1="578.67999"
       x1="472.38"
       gradientTransform="matrix(0.04933333,0,0,0.05133333,-3.326,-17.51433)" />
    <linearGradient
       id="e"
       y2="558.12"
       xlink:href="#a"
       gradientUnits="userSpaceOnUse"
       x2="456.44"
       gradientTransform="matrix(0.04637333,0,0,0.05492666,-3.326,-17.51433)"
       y1="553.73999"
       x1="517.96997" />
    <linearGradient
       id="f"
       y2="369.94"
       xlink:href="#a"
       gradientUnits="userSpaceOnUse"
       x2="646.19"
       y1="369.94"
       x1="851.78003"
       gradientTransform="matrix(0.039,0,0,0.039,-12.934667,-0.693)" />
    <linearGradient
       id="g"
       y2="508.75"
       xlink:href="#a"
       gradientUnits="userSpaceOnUse"
       x2="677.40002"
       gradientTransform="matrix(0.04045333,0,0,0.06262666,-3.2933333,-17.46867)"
       y1="507.23001"
       x1="388.53" />
    <linearGradient
       id="h"
       y2="505.85999"
       xlink:href="#a"
       gradientUnits="userSpaceOnUse"
       x2="556.79999"
       gradientTransform="matrix(0.04144,0,0,0.0616,-3.326,-17.51433)"
       y1="504.94"
       x1="579.84003" />
    <linearGradient
       id="i"
       y2="514.33002"
       xlink:href="#a"
       gradientUnits="userSpaceOnUse"
       x2="558.88"
       gradientTransform="matrix(-0.04045333,0,0,0.06262666,35.755667,-17.46867)"
       y1="512.01001"
       x1="581.42999" />
    <linearGradient
       id="j"
       y2="503.89999"
       xlink:href="#a"
       gradientUnits="userSpaceOnUse"
       x2="589.77002"
       gradientTransform="matrix(-0.04144,0,0,0.0616,35.787,-17.51433)"
       y1="517.88"
       x1="552" />
    <linearGradient
       inkscape:collect="always"
       xlink:href="#a"
       id="linearGradient161"
       gradientUnits="userSpaceOnUse"
       x1="444.39999"
       y1="592.20001"
       x2="470.89999"
       y2="577.14001"
       gradientTransform="matrix(0.039,0,0,0.039,-12.974333,-0.732)" />
  </defs>
  <path
     d="M 0,0 H 21.333333 V 16 H 0 Z"
     id="path18"
     inkscape:connector-curvature="0"
     style="fill:#000066;stroke-width:0.03333334" />
  <path
     d="M 0,0 H 13.333333 V 6.66667 H 0 Z"
     id="path20"
     inkscape:connector-curvature="0"
     style="fill:#000066;fill-rule:evenodd;stroke-width:0.03333334" />
  <g
     id="g28"
     transform="scale(0.03333333)"
     style="stroke-width:1.00000003pt">
    <path
       d="M 0,0 V 25.562 L 317.137,228.63 h 39.92 V 203.07 L 39.918,0 Z M 357.056,0 V 25.56 L 39.92,228.63 H 0 V 203.068 L 317.137,0 h 39.92 z"
       id="path22"
       inkscape:connector-curvature="0"
       style="fill:#ffffff" />
    <path
       d="m 148.773,0 v 228.63 h 59.51 V 0 Z M 0,76.21 v 76.21 H 357.056 V 76.21 Z"
       id="path24"
       inkscape:connector-curvature="0"
       style="fill:#ffffff" />
    <path
       d="m 0,91.452 v 45.726 H 357.056 V 91.452 Z M 160.675,0.002 v 228.627 h 35.706 V 0 H 160.676 Z M 0,228.63 119.02,152.42 h 26.61 L 26.614,228.63 Z M 0,0 119.02,76.21 H 92.405 L 0,17.042 V 0.002 Z M 211.425,76.21 330.445,0 h 26.61 L 238.038,76.21 h -26.612 z m 145.63,152.42 -119.018,-76.21 h 26.613 l 92.406,59.168 v 17.04 z"
       id="path26"
       inkscape:connector-curvature="0"
       style="fill:#cc0000" />
  </g>
  <path
     d="m 13.193497,11.80884 a 0.51558,0.51558 0 0 0 -0.07917,0.007 c -0.13221,0.023 -0.340626,0.45357 -0.45591,0.70567 -0.18018,0.22011 -0.276432,0.39117 -0.35217,0.51792 -0.02945,0.0493 -0.07488,0.10639 -0.06096,0.17187 -0.272844,0.067 -0.286416,0.30124 -0.286416,0.39234 0,0.0967 0.0305,0.14508 0.0305,0.14508 l 0.163293,0.30588 0.0012,0.004 c 0.173862,0.35943 0.431262,0.84342 0.57525,0.88359 0.204516,0.057 0.734058,-0.13845 1.131,-0.47409 0.65091,0.26813 1.484847,0.48992 2.41683,0.48992 0.931944,0 1.764672,-0.22191 2.415582,-0.48995 0.39702,0.33563 0.926562,0.5311 1.131,0.47408 0.144495,-0.0403 0.402636,-0.52748 0.57642,-0.88725 l 0.16341,-0.30592 c 0,0 0.03042,-0.0484 0.03042,-0.14508 0,-0.0912 -0.0147,-0.32541 -0.287625,-0.39242 0.01365,-0.0654 -0.03026,-0.12257 -0.05967,-0.17183 -0.07636,-0.12768 -0.17238,-0.3003 -0.354705,-0.52283 -0.115674,-0.25272 -0.32331,-0.6779 -0.454584,-0.70083 -0.184938,-0.0322 -0.58383,0.0616 -0.58383,0.0939 0,7.8e-4 -0.0022,0.0175 -0.0024,0.0195 l -0.80106,0.7566 c 0,0.0217 0.04251,0.56917 0.192582,1.053 -0.53625,0.19523 -1.194414,0.33275 -1.965834,0.33275 -0.771927,0 -1.431885,-0.13728 -1.96833,-0.33275 0.15015,-0.48383 0.19383,-1.03128 0.19383,-1.053 l -0.80067,-0.7566 c -1.95e-4,-0.002 -0.0025,-0.0187 -0.0025,-0.0195 0,-0.0282 -0.30537,-0.10432 -0.505752,-0.10113 z m 0.20475,0.93967 c 0.100698,-10e-4 0.207948,0.0817 0.296166,0.17433 -0.003,0.0181 -0.0061,0.0368 -0.0098,0.0536 -0.02434,0.11201 -0.06614,0.25986 -0.124332,0.41438 -0.22893,-0.13377 -0.41574,-0.27285 -0.558168,-0.40217 0.08689,-0.0924 0.226434,-0.21824 0.374166,-0.23884 0.0072,-10e-4 0.01463,-10e-4 0.02196,-10e-4 z m 5.75484,0 c 0.0073,7e-5 0.0147,1.9e-4 0.02196,0.001 0.147732,0.0207 0.288483,0.14652 0.375375,0.23891 -0.14274,0.12964 -0.329823,0.26949 -0.559416,0.40342 -0.05842,-0.15483 -0.09996,-0.30335 -0.124332,-0.41559 -0.0037,-0.0169 -0.0067,-0.0354 -0.0098,-0.0536 0.08834,-0.0928 0.195234,-0.1755 0.296166,-0.17433 z m -6.474,1.06762 c 0.10647,0.0815 0.245544,0.17453 0.413166,0.273 -0.04641,0.0294 -0.09578,0.0513 -0.14742,0.0633 -0.06887,0.016 -0.141258,0.0129 -0.2145,-0.002 -0.02293,-0.0566 -0.04224,-0.12769 -0.04758,-0.22296 a 2.741154,2.741154 0 0 1 -0.0037,-0.11092 z m 7.19433,0 c -5.46e-4,0.0342 -0.0027,0.0712 -0.0049,0.11088 -0.0053,0.0953 -0.0234,0.16641 -0.04633,0.22308 -0.07332,0.0153 -0.146874,0.0183 -0.21567,0.002 -0.05171,-0.012 -0.09984,-0.0338 -0.14625,-0.0633 0.1677,-0.0985 0.306618,-0.19141 0.413127,-0.273 z"
     id="path30"
     style="fill:url(#linearGradient161);fill-rule:evenodd;stroke:#ffffff;stroke-width:0.38999999"
     inkscape:connector-curvature="0" />
  <path
     d="m 13.802587,13.05364 c 0,0 -0.2775,-0.44917 -0.508775,-0.41708 -0.231225,0.0321 -0.447059,0.32083 -0.4625,0.33685 -0.01539,0.0161 -0.354559,-0.36894 -0.339167,-0.385 0.01544,-0.016 0.354608,-0.85019 0.539608,-0.88227 0.185,-0.0321 0.584452,0.0614 0.584452,0.0934 0,0.032 0.186382,1.25407 0.186382,1.25407 z"
     id="path32"
     style="fill:url(#b);fill-rule:evenodd;stroke:#000000;stroke-width:0.05837514"
     inkscape:connector-curvature="0" />
  <path
     d="m 14.419253,12.57265 c 0,0.0321 -0.0925,1.21916 -0.493333,1.63625 -0.400833,0.41708 -1.048333,0.67375 -1.279608,0.60958 -0.231225,-0.0642 -0.755392,-1.26727 -0.755392,-1.26727 0,0 0.555,0.5775 0.971225,0.48125 0.416275,-0.0962 0.662942,-0.81815 0.74,-1.17106 0.07711,-0.35292 0.01544,-1.04274 0.01544,-1.04274 z"
     id="path34"
     style="fill:url(#c);fill-rule:evenodd;stroke:#000000;stroke-width:0.05837514"
     inkscape:connector-curvature="0" />
  <path
     d="m 18.658413,13.05364 c 0,0 0.2775,-0.44917 0.508775,-0.41708 0.231225,0.0321 0.447059,0.32083 0.4625,0.33685 0.01539,0.0161 0.354559,-0.36894 0.339167,-0.385 -0.01544,-0.016 -0.354608,-0.85019 -0.539608,-0.88227 -0.185,-0.0321 -0.584452,0.0614 -0.584452,0.0934 0,0.032 -0.186382,1.25407 -0.186382,1.25407 z"
     id="path36"
     style="fill:url(#d);fill-rule:evenodd;stroke:#000000;stroke-width:0.05837514"
     inkscape:connector-curvature="0" />
  <path
     d="m 18.041747,12.57265 c 0,0.0321 0.0925,1.21916 0.493333,1.63625 0.400833,0.41708 1.048333,0.67375 1.279608,0.60958 0.231225,-0.0642 0.755392,-1.26727 0.755392,-1.26727 0,0 -0.555,0.5775 -0.971225,0.48125 -0.416275,-0.0962 -0.662942,-0.81815 -0.74,-1.17106 -0.07711,-0.35292 -0.01544,-1.04274 -0.01544,-1.04274 z"
     id="path38"
     style="fill:url(#e);fill-rule:evenodd;stroke:#000000;stroke-width:0.05837514"
     inkscape:connector-curvature="0" />
  <path
     d="m 12.666493,12.51084 c -0.184938,0.22562 -0.283686,0.40002 -0.36075,0.52892 -0.07706,0.12893 -0.03175,0.30833 0.14625,0.56433 0.19188,0.27581 1.769586,1.354 3.824418,1.354 2.05491,0 3.632538,-1.07819 3.824418,-1.35408 0.177996,-0.25592 0.222105,-0.43532 0.14508,-0.56425 -0.0771,-0.12894 -0.174642,-0.3033 -0.35958,-0.52892 0,0.3384 -1.306968,1.56117 -3.609918,1.56117 -2.30295,0 -3.609918,-1.22277 -3.609918,-1.56117 z"
     id="path40"
     style="fill:url(#f);fill-rule:evenodd;stroke:#000000;stroke-width:0.0585"
     inkscape:connector-curvature="0" />
  <path
     d="m 19.785787,14.63931 c 0.03083,-0.0481 0.354558,-0.60959 0.354558,-0.60959 l -0.177501,-0.13028 c -0.05456,0.15882 -0.254215,0.21047 -0.285048,0.40297 -0.03083,0.1925 0.138775,0.385 0.107941,0.3369 z"
     id="path42"
     style="fill:url(#g);fill-rule:evenodd;stroke:#000000;stroke-width:0.05837514"
     inkscape:connector-curvature="0" />
  <path
     d="m 20.107333,14.46531 c 0,0 0.06167,-0.27269 -0.138725,-0.30477 -0.200441,-0.0321 -0.306557,0.15261 -0.2775,0.0802 0.03226,-0.0804 0.154167,-0.16041 0.169559,-0.4331 0.01544,-0.27273 -0.01539,-0.41708 -0.01539,-0.41708 0,0 0.07706,-0.35297 0.400833,-0.30482 0.323725,0.0482 0.339167,0.30482 0.339167,0.40107 0,0.0962 -0.03083,0.14435 -0.03083,0.14435 z"
     id="path44"
     style="fill:url(#h);fill-rule:evenodd;stroke:#000000;stroke-width:0.05837514"
     inkscape:connector-curvature="0" />
  <path
     d="m 18.943333,13.5446 0.06577,0.1151 0.0444,-0.0277 -0.02947,-0.076 0.0055,-0.0149 0.07727,-0.0482 0.202233,0.3536 -0.005,0.0172 -0.04,0.0293 0.0182,0.0319 0.192567,-0.1202 -0.01823,-0.0318 -0.04367,0.0229 -0.0169,-0.004 -0.202267,-0.35367 0.07733,-0.0482 0.01447,0.002 0.05067,0.0628 0.0445,-0.0278 -0.06577,-0.11507 -0.3716,0.23193 z m -0.4751,0.2723 0.016,0.0331 0.04053,-0.0171 0.01593,0.005 0.173667,0.3588 -0.0055,0.0165 -0.03723,0.0239 0.016,0.0331 0.189567,-0.10007 -0.016,-0.0331 -0.04187,0.0179 -0.016,-0.005 -0.08233,-0.17027 0.193533,-0.10217 0.08233,0.17034 -0.0048,0.0161 -0.0386,0.0246 0.016,0.0331 0.1889,-0.0997 -0.016,-0.0331 -0.0405,0.0171 -0.01593,-0.005 -0.173667,-0.35883 0.0055,-0.0164 0.0372,-0.0239 -0.016,-0.0331 -0.188833,0.0997 0.016,0.0331 0.04187,-0.0178 0.01533,0.005 0.07157,0.148 -0.193566,0.10213 -0.0716,-0.14793 0.0055,-0.0165 0.03857,-0.0247 -0.016,-0.0331 -0.189566,0.1 z m -0.111233,0.30503 0.01017,0.0355 0.05427,-0.013 0.0144,0.007 0.0425,0.1479 c -0.01833,0.007 -0.03173,0.0123 -0.03893,0.0145 -0.110667,0.0346 -0.200133,-0.0204 -0.2376,-0.151 -0.03643,-0.12687 0.008,-0.2229 0.115167,-0.2564 a 0.15823333,0.15823333 0 0 1 0.063,-0.007 l 0.01447,0.01 0.03573,0.0726 0.05247,-0.0164 -0.03533,-0.12323 c -0.05783,6.6e-4 -0.111133,0.009 -0.1586,0.0235 -0.159567,0.0499 -0.233833,0.18134 -0.191133,0.33 0.04333,0.15077 0.175333,0.22334 0.326266,0.17617 0.05247,-0.0164 0.102767,-0.0432 0.1525,-0.0801 l -0.04847,-0.16893 0.0086,-0.0138 0.04067,-0.0167 -0.0102,-0.0355 -0.209933,0.0656 z m -0.4446,0.41707 0.214267,-0.0675 -0.01067,-0.0355 -0.0491,0.0115 -0.015,-0.008 -0.1161,-0.3859 0.0084,-0.0137 0.0469,-0.0188 -0.01067,-0.0355 -0.214267,0.0675 0.01067,0.0355 0.0484,-0.0113 0.0145,0.007 0.116133,0.38593 -0.008,0.0152 -0.04617,0.0185 0.01067,0.0355 z m -1.16,0.18977 0.3772,-0.0345 -0.0115,-0.1349 -0.04777,0.004 -0.0052,0.0811 -0.0081,0.0129 -0.162934,0.0149 -0.01673,-0.196 0.09133,-0.008 0.01073,0.01 0.01167,0.0537 0.0414,-0.004 -0.0149,-0.175 -0.04143,0.004 -0.0024,0.055 -0.0089,0.0113 -0.09133,0.008 -0.01527,-0.17944 0.1398,-0.0128 0.01,0.009 0.01613,0.0654 0.04917,-0.005 -0.01,-0.11833 -0.354066,0.0323 0.0032,0.037 0.04317,-1.7e-4 0.01213,0.01 0.03427,0.40187 -0.01023,0.0131 -0.04253,0.008 0.0032,0.0369 z m -0.5615,-0.4972 6.67e-4,0.0371 0.04093,0.003 0.0115,0.0119 0.007,0.40177 -0.01107,0.0123 -0.04083,0.004 6.67e-4,0.0371 0.1995,-0.003 -6.67e-4,-0.0371 -0.04233,-0.003 -0.0115,-0.0119 -0.0033,-0.19066 0.203734,-0.004 0.0033,0.19067 -0.01033,0.0123 -0.04223,0.004 6.67e-4,0.0371 0.198833,-0.003 -6.66e-4,-0.0371 -0.041,-0.003 -0.01143,-0.0119 -0.007,-0.4018 0.011,-0.0123 0.04087,-0.005 -6.67e-4,-0.0371 -0.198833,0.003 6.67e-4,0.0371 0.0424,0.003 0.01077,0.0119 0.0029,0.16566 -0.203766,0.004 -0.0029,-0.16566 0.01107,-0.0123 0.04223,-0.005 -6.67e-4,-0.0371 -0.1995,0.004 z m -0.428233,-0.0144 -0.0013,0.134 0.04867,5.7e-4 0.012,-0.0809 0.0114,-0.01 0.08467,10e-4 -0.0039,0.41167 -0.01213,0.012 -0.04587,0.003 -3.33e-4,0.0371 0.210867,0.003 3.33e-4,-0.0371 -0.04583,-0.004 -0.01187,-0.0122 0.0039,-0.41166 0.08467,10e-4 0.01047,0.01 0.01123,0.0811 0.0486,5.7e-4 0.0013,-0.13394 -0.406867,-0.005 z m -0.649434,0.42797 0.368667,0.0183 0.006,-0.13526 -0.04673,-0.002 -0.0152,0.0796 -0.0095,0.0117 -0.159267,-0.008 0.0086,-0.19657 0.08923,0.004 0.0092,0.0111 0.0045,0.0547 0.0405,0.002 0.0077,-0.17533 -0.04047,-0.002 -0.0093,0.0541 -0.0101,0.0101 -0.08923,-0.004 0.0079,-0.1799 0.136666,0.007 0.0085,0.0103 0.0073,0.0671 0.04807,0.002 0.0052,-0.11867 -0.346,-0.0171 -0.0017,0.037 0.04173,0.006 0.01053,0.0111 -0.01767,0.40293 -0.0115,0.0115 -0.04207,0.002 -0.0016,0.037 z m -0.8449,-0.21864 0.195667,0.066 0.0108,-0.0353 -0.04273,-0.0183 -0.0069,-0.015 0.117867,-0.38394 0.01357,-0.007 0.045,0.0112 0.0108,-0.0353 -0.195667,-0.066 -0.0108,0.0353 0.04207,0.0181 0.0073,0.0137 -0.117833,0.38384 -0.014,0.008 -0.04433,-0.011 -0.0108,0.0353 z M 13.9204,14.2914 a 0.37973333,0.37973333 0 0 0 0.119067,0.0663 c 0.107333,0.0362 0.192433,-0.003 0.218766,-0.0891 0.013,-0.0425 0.004,-0.0885 -0.02573,-0.12793 -0.0302,-0.0403 -0.0616,-0.0629 -0.07767,-0.0834 -0.0276,-0.0347 -0.03933,-0.0625 -0.02913,-0.0957 0.0122,-0.0396 0.05047,-0.0584 0.09827,-0.0423 0.02093,0.007 0.0349,0.0157 0.04467,0.0261 l 0.0061,0.0132 -0.01183,0.0787 0.0471,0.0159 0.0358,-0.11667 c -0.03633,-0.0298 -0.0749,-0.0523 -0.1155,-0.066 -0.09357,-0.0315 -0.173467,0.01 -0.198,0.0898 -0.01087,0.0353 -0.006,0.0759 0.0155,0.1141 0.0206,0.0363 0.04767,0.059 0.06933,0.0822 0.03853,0.0416 0.05417,0.0754 0.04223,0.11433 -0.0122,0.0396 -0.05247,0.0578 -0.1055,0.04 a 0.18446667,0.18446667 0 0 1 -0.05447,-0.0296 l -0.0052,-0.0137 0.01607,-0.0899 -0.0498,-0.0168 -0.04,0.1304 z m -0.4422,-0.18513 0.3332,0.16656 0.05573,-0.12216 -0.04217,-0.0211 -0.0436,0.0671 -0.01307,0.007 -0.143933,-0.0719 0.081,-0.17757 0.08067,0.0403 0.0043,0.0139 -0.01633,0.0522 0.03667,0.0183 0.07223,-0.15843 -0.03667,-0.0183 -0.0286,0.0461 -0.013,0.005 -0.08067,-0.0403 0.0741,-0.16243 0.123433,0.0617 0.004,0.0129 -0.018,0.0648 0.04333,0.0218 0.04893,-0.1072 -0.312767,-0.15633 -0.01527,0.0334 0.03633,0.0223 0.0055,0.0145 -0.1659,0.36387 -0.01493,0.006 -0.0394,-0.0156 -0.01523,0.0334 z m -0.05613,-0.60637 -0.167667,-0.11553 -0.0195,0.031 0.033,0.0273 0.0029,0.0164 -0.2111,0.3355 -0.01553,0.004 -0.037,-0.021 -0.0195,0.031 0.167667,0.1155 c 0.05743,0.0396 0.106467,0.0598 0.161167,0.054 0.0712,-0.007 0.1319,-0.0487 0.1788,-0.12317 0.08347,-0.13266 0.06,-0.26293 -0.07327,-0.35476 z m -0.06993,0.003 0.03333,0.023 c 0.09133,0.0629 0.09933,0.15087 0.02467,0.26967 -0.07467,0.1188 -0.155566,0.14633 -0.2469,0.0835 l -0.03333,-0.023 z m 1.335934,0.523 -0.0075,0.0363 0.0389,0.0125 0.0086,0.0128 -0.08127,0.39457 -0.01317,0.009 -0.04043,-0.005 -0.0075,0.0363 0.1895,0.0419 0.0075,-0.0363 -0.04023,-0.0127 -0.0083,-0.0142 0.03433,-0.1666 0.01143,0.002 c 0.06783,0.015 0.07877,0.0507 0.0851,0.12567 0.0035,0.0378 0.0027,0.0725 0.0315,0.10987 0.01327,0.0177 0.03627,0.032 0.0652,0.0384 a 0.45933333,0.45933333 0 0 0 0.0684,0.009 l 0.0073,-0.0356 -0.0087,-0.002 c -0.045,-0.01 -0.06287,-0.0255 -0.06867,-0.0693 -0.0051,-0.0398 -0.0022,-0.081 -0.01633,-0.1182 -0.01057,-0.0271 -0.03057,-0.0462 -0.06113,-0.0615 0.07913,10e-4 0.127667,-0.0329 0.141667,-0.101 0.01693,-0.0822 -0.02767,-0.13853 -0.131834,-0.16157 l -0.204266,-0.0452 z m 0.129066,0.0727 0.03093,0.007 c 0.06513,0.0144 0.0924,0.056 0.0799,0.11674 -0.01407,0.0682 -0.05473,0.0917 -0.1266,0.0758 -0.0074,-0.002 -0.01547,-0.003 -0.02407,-0.006 l 0.0398,-0.19323 z m 2.4698,0.043 0.0058,0.0366 0.04433,-0.004 0.01353,0.008 0.06277,0.3981 -0.01,0.014 -0.04313,0.0111 0.0058,0.0366 0.208833,-0.0357 -0.0058,-0.0366 -0.04577,0.004 -0.01377,-0.01 -0.0265,-0.16806 0.0126,-0.002 c 0.0748,-0.0128 0.0991,0.0161 0.133233,0.0831 0.0175,0.0338 0.02953,0.0663 0.07267,0.0896 0.02007,0.0111 0.04887,0.0154 0.08073,0.01 a 0.55066667,0.55066667 0 0 0 0.07307,-0.0187 l -0.0057,-0.0358 -0.0097,0.002 c -0.04957,0.008 -0.07353,10e-4 -0.0956,-0.0374 -0.01993,-0.0349 -0.0322,-0.0742 -0.06033,-0.1032 -0.0208,-0.021 -0.04827,-0.0308 -0.08507,-0.033 0.0812,-0.03 0.118066,-0.0808 0.107233,-0.14947 -0.0131,-0.0829 -0.0794,-0.11767 -0.194233,-0.098 l -0.225167,0.0384 z m 0.158567,0.0167 0.03407,-0.006 c 0.07183,-0.0123 0.115,0.0157 0.124666,0.0769 0.01083,0.0688 -0.022,0.10657 -0.1012,0.1201 -0.0081,0.001 -0.017,0.003 -0.02677,0.004 l -0.03073,-0.1949 z"
     id="path46"
     inkscape:connector-curvature="0"
     style="stroke-width:0.03333334" />
  <path
     d="m 12.676547,14.63931 c -0.03083,-0.0481 -0.354559,-0.60959 -0.354559,-0.60959 l 0.177501,-0.13028 c 0.05456,0.15882 0.254215,0.21047 0.285048,0.40297 0.03083,0.1925 -0.138774,0.385 -0.107941,0.3369 z"
     id="path48"
     style="fill:url(#i);fill-rule:evenodd;stroke:#000000;stroke-width:0.05837514"
     inkscape:connector-curvature="0" />
  <path
     d="m 12.353667,14.46531 c 0,0 -0.06167,-0.27269 0.138725,-0.30477 0.200441,-0.0321 0.306557,0.15261 0.2775,0.0802 -0.03226,-0.0804 -0.154167,-0.16041 -0.169559,-0.4331 -0.01544,-0.27273 0.01539,-0.41708 0.01539,-0.41708 0,0 -0.07706,-0.35297 -0.400833,-0.30482 -0.323725,0.0482 -0.339167,0.30482 -0.339167,0.40107 0,0.0962 0.03083,0.14435 0.03083,0.14435 z"
     id="path50"
     style="fill:url(#j);fill-rule:evenodd;stroke:#000000;stroke-width:0.05837514"
     inkscape:connector-curvature="0" />
  <path
     d="m 16.266933,13.72138 c 0,0 -3.721213,-1.09135 -3.699506,-5.24319 l 0.02861,-5.48804 h 7.341787 l 0.02881,5.45673 c 0.02171,4.15194 -3.699654,5.27501 -3.699654,5.27501 z"
     id="path52"
     inkscape:connector-curvature="0"
     style="fill:#0072c4;fill-opacity:0.99599998;fill-rule:evenodd;stroke:#ffffff;stroke-width:0.19460058" />
  <g
     id="g66"
     transform="scale(0.03333333)"
     style="fill-rule:evenodd">
    <path
       d="m 392.306,128.963 c 0.184,0 1.534,-1.282 2.77,-2.412 1.727,-0.864 3.324,-2.08 5.08,-2.896 1.307,-0.757 3.89,-1.344 5.077,-1.93 1.555,-0.815 2.824,-1.752 4.156,-3.38 0.158,-2.16 0.46,-3.71 0.46,-6.275 1.837,-0.885 3.467,-1.742 5.078,-2.415 2.31,-0.65 2.812,-1.574 5.08,-1.93 1.46,-0.51 3.87,-0.485 6,-0.485 2.297,0 3.747,1.633 5.81,2.02 2.447,0.986 3.59,1.67 5.54,3.38 1.102,1.394 1.788,2.528 3.667,3.578 1.488,0.763 2.88,1.92 4.617,2.413 1.905,1.105 3.597,1.745 5.077,3.38 1.355,0.965 1.915,2.397 3.23,3.38 1.526,1.264 2.972,2.403 4.618,3.38 1.978,1.324 3.94,2.33 7.143,2.043 1.697,-0.1 3.523,-0.296 5.54,0.08 2.26,0 4.464,-0.04 6.464,0.485 2.355,0 4.26,0.318 6.463,0.482 2.064,0.386 4.168,0.483 6.463,0.483 2.002,0.522 4.205,0.482 6.464,0.482 h 12.926 c 2.352,0 4.733,0.096 6.463,0.484 2.33,0 4.333,-0.22 6.463,-0.485 2.507,0 4.42,-0.46 6.926,-0.482 h 7.85 c 2.014,0.552 4.59,0.93 6,1.93 1.848,0.528 2.768,1.404 4.616,1.932 1.416,0.726 3.565,1.875 4.617,3.378 1.303,1.363 2.64,3.314 3.693,5.31 1.285,1.855 1.774,3.974 2.77,6.276 0.528,2.205 0.895,4.302 0.923,6.757 0.502,2.093 0.464,4.396 0.464,6.758 -0.528,2.2 -0.643,4.65 -1.386,6.758 -0.08,2.356 -0.55,4.487 -0.923,6.276 -0.41,1.975 -0.894,3.246 -0.924,5.792 v 6.758 c -0.16,2.217 -0.646,3.845 -0.922,6.275 -1.117,2.108 -2.186,4.573 -3.23,7.24 -1.537,1.072 -2.87,2.595 -3.694,3.863 -0.985,0.61 -1.556,1.532 -1.386,1.93 1.845,0.643 1.386,1.927 1.386,4.345 0.24,1.86 0.42,4.17 0.923,6.276 0.17,2.303 0.662,3.712 1.385,5.308 0.728,0.95 0.87,0.483 -0.924,0.483 -1.334,1.047 -2.684,0.5 -3.23,-1.448 -1.078,-1.3 -1.432,-2.87 -1.847,-5.31 -0.255,-2.234 -0.612,-4.412 -1.385,-5.79 -0.236,-2.722 -0.96,-2.694 -3.693,-2.898 -1.3,-1.152 -3.017,-1.45 -5.54,-1.45 -2.513,0 -2.724,-0.255 -2.77,2.416 v 6.758 c -0.434,1.96 -1.387,3.547 -1.847,5.31 -1.377,1.008 -2.093,2.7 -3.693,3.86 -0.762,2.193 -1.87,2.574 -4.156,2.897 -0.8,-0.998 -2.102,-2.3 -2.77,-3.378 1.293,-2.17 2.422,-2.496 3.233,-4.827 0.98,-1.922 1.556,-3.17 2.306,-4.828 -0.985,-1.516 -1.87,-2.2 -2.77,-4.345 -0.76,-1.168 -1.81,-3.68 -2.307,-5.31 -1.517,-0.527 -3.904,-0.612 -5.08,-1.448 -2.24,-0.522 -2.866,1.93 -5.54,1.93 h -6.462 c -2.858,0 -3.572,1.596 -6.002,1.45 -0.714,0.23 -2.445,-0.103 -5.08,0 -1.928,0.67 -4.252,0.48 -6.462,0.48 -2.342,-0.03 -4.258,-0.568 -6,-0.965 -2.122,-0.58 -4.232,-1.17 -6.464,-1.447 -2.71,0 -3.72,0.216 -5.54,1.447 -1.44,0.855 -3.528,2.807 -5.08,3.862 -0.655,1.602 -0.996,4.313 -1.846,6.276 -0.49,1.883 -1.288,3.077 -1.846,4.828 -0.625,1.633 -1.216,3.314 -1.385,5.793 -0.156,3.253 -0.867,2.855 -2.77,1.93 -0.793,-1.346 -2.057,-2.827 -2.77,-4.344 0.42,-2.457 0.893,-3.68 0.924,-6.276 -0.45,-1.874 -1.498,-1.813 -2.77,-0.483 0,2.528 0.117,4.477 -0.924,5.793 -0.52,1.995 -1.356,2.857 -2.77,3.862 -0.69,1.792 -2.226,2.612 -3.693,3.38 -0.235,-0.082 0,-0.647 0,-1.93 -1.106,-2.208 -0.08,-4.04 -0.08,-6.76 0.03,-2.437 -0.11,-4.052 0.597,-6.275 0,-2.34 -1.085,-4.566 -1.44,-6.275 -0.858,-1.793 -1.353,-2.68 -3.693,-3.38 -1.645,-0.653 -4.014,-1.537 -5.08,-2.896 -1.34,-1.74 -2.195,-2.454 -4.153,-3.38 -2.124,-0.77 -3.155,-1.473 -4.616,-2.414 -1.427,-1.574 -2.587,-2.256 -3.232,-4.343 -0.964,-1.485 -1.13,-4.242 -1.847,-6.277 -0.157,-2.12 -0.764,-4.088 -1.384,-5.792 -0.274,-2.12 -0.608,-3.67 -1.385,-5.793 -0.257,-1.984 -0.83,-4.06 -1.384,-6.273 0,-2.362 0.04,-4.667 -0.462,-6.76 v -6.757 c -0.332,-1.95 -0.455,-4.807 -0.923,-6.276 0,-2.626 -0.28,-4.11 -0.923,-5.793 -1.056,-1.704 -1.142,-2.47 -2.77,-2.895 -1.176,1.5 -3.114,2.112 -5.54,2.415 -1.695,-0.387 -4.086,-0.638 -6.002,-1.45 -1.85,-0.455 -3.117,-1.187 -4.617,-1.93 -0.82,-1.262 -1.8,-2.69 -2.77,-3.862 -0.286,-2.52 -0.836,-3.82 -0.923,-6.275 0,-1.843 0.044,-0.865 1.846,-3.38 z"
       id="path54"
       inkscape:connector-curvature="0"
       style="fill:#bcbcbc" />
    <path
       d="m 419.65,146.357 0.328,-0.34 c -0.742,0.774 -0.47,0.4 1.306,-0.343 0.993,-0.625 2.88,-1.727 3.59,-2.39 0.854,-0.39 2.21,-0.9 2.938,-1.705 0.91,-0.97 1.82,-1.776 2.938,-2.732 1.293,-1.097 2.498,-1.457 3.918,-2.39 1.847,-0.137 2.516,-0.928 4.243,-0.34 1.622,0.367 2.294,0.377 3.592,-1.025 1.31,-0.84 2.753,-1.654 3.265,-3.073 v -2.046 c -0.025,2.23 -0.427,2.953 -1.96,3.753 -1.067,1.224 -2.398,2.608 -2.937,3.756 -1.037,1.5 -1.257,2.34 -2.285,3.072 -0.844,1.075 -2.292,1.644 -2.61,3.412 0.464,0.813 0.04,1.258 0.977,1.366 0.946,0.812 1.93,0.466 3.265,0 1.328,-1.537 1.925,-2.53 2.612,-4.095 1.095,-1.497 1.708,-2.21 2.284,-3.414 1.135,-0.823 1.856,-1.464 2.286,-2.73 1.313,-0.77 2.393,-1.578 3.263,-2.39 0.976,-0.628 1.494,-1.138 2.938,-1.366 -0.02,1.833 -0.29,2.7 -0.978,3.755 -0.325,1.9 -0.26,2.802 0.326,4.096 0.938,0.58 0.772,1.084 1.306,2.39 0.532,-1.13 0.802,-3.415 0.98,-4.78 v -0.342 c 0,1.493 0.136,3.473 -0.327,4.438 0.022,1.99 0.464,2.878 0.98,4.437 0.55,0.752 0.938,1.24 1.632,1.707 0.064,-1.97 0.556,-3.267 0.652,-5.12 0.455,1.43 0.303,3.32 0.653,4.778 0.118,1.607 0.7,2.852 1.306,4.097 0.744,0.46 0.997,1.813 1.305,0.683 0.773,-2.402 0.792,-5.03 1.306,-7.51 0.094,-1.26 0.195,-3.133 0.654,-4.096 l -0.653,4.095 c 0.094,-1.26 0.195,-3.132 0.654,-4.095 v -0.34 c 0.305,1.797 0.593,3.533 0.653,5.46 0,1.536 -0.1,3.1 0.327,4.437 1.086,-0.503 1.715,-1.68 2.285,-3.073 0.87,-1.65 1.465,-2.382 2.61,-3.754 l -2.61,3.754 c 0.87,-1.65 1.465,-2.382 2.61,-3.754 v -0.34 c -0.18,1.573 -0.325,3.056 -0.325,4.777 0,1.574 -0.018,3.358 0.326,4.438 0.385,1.81 0.91,2.145 0.98,4.095 0,0.95 -0.124,1.92 0.327,2.39 1.406,0.367 1.41,-0.452 1.632,-2.39 0.017,-2.202 0.58,-3.703 0.65,-5.802 0,-2.59 0.367,0.316 0.654,1.366 0.66,1.52 0.864,2.872 0.98,4.437 0,0.95 -0.123,1.92 0.326,2.39 1.26,-0.523 1.76,-1.996 2.612,-2.732 0.65,-1.616 1.322,-2.33 1.96,-3.41 1.69,-0.355 1.607,-1.05 1.63,-3.073 0,-1.633 -0.127,-3.352 0.328,-4.78 0.523,-1.483 1.016,-3.134 1.305,-4.436 0.61,-0.364 1.27,0.538 1.63,1.366 0.716,1.1 0.654,2.705 0.654,4.437 0.314,1.51 0.942,2.69 1.632,4.096 0.818,1.577 1.483,2.533 2.285,3.413 0.344,1.08 0.327,2.864 0.327,4.437 1.272,-1.445 1.515,-3.598 1.632,-5.802 -0.17,-1.5 -0.202,-3.368 -0.653,-4.78 -0.052,-1.503 -0.32,-3.055 -0.653,-4.095 -1.102,-0.53 -1.276,-1 -0.326,-2.39 1.05,-0.908 2.185,-0.557 3.918,-0.34 0.876,0.915 1.236,1.405 1.305,3.41 0,1.82 0.077,3.218 0.653,4.44 0.64,0.982 1.272,1.657 1.63,3.413 0.502,0.428 0.89,1.12 1.634,0.342 0.41,-1 0.65,-3.062 0.98,-4.097 0.318,-1.295 0.893,-1.93 1.632,-2.39 0,1.9 -0.022,3.066 0.653,4.44 0.638,1.524 1.082,2.097 1.63,3.755 0.697,0.485 0.786,1.53 1.633,2.046 0.2,-1.602 0.327,-3.437 0.327,-5.46 v -4.78 c 0.12,-1.625 0.514,-2.54 0.98,-3.752 1.05,1.31 0.98,1.852 0.98,3.753 1.073,-0.4 1.253,-1.17 1.63,-2.387 0.767,-0.675 0.976,-0.99 1.306,0.68 0.23,1.787 0.665,3.395 0.98,5.122 0.67,0.788 1.447,2.696 2.285,3.414 0.575,0.975 1.22,1.92 1.96,2.73 0.508,1.123 0.638,1.71 1.958,2.047 0,-2.31 0.077,-4.627 -0.326,-6.826 0,-1.96 -0.428,-2.66 -0.653,-4.437 -0.545,-1.177 -0.865,-2.912 -0.654,-3.412 1.53,1.517 2.22,2.398 2.938,4.096 0.766,1.64 1.41,2.743 1.958,4.437 0.755,0.648 2.092,2.59 2.612,3.414 1.165,1.04 1.733,2.126 2.938,3.07 0.623,0.588 1.94,0.916 2.285,0.684 -0.06,-2 -0.364,-3.72 -0.98,-5.46 -0.02,-1.91 -0.458,-2.948 -0.978,-4.096 -1.285,-1.108 -2.26,-1.863 -2.94,-3.414 -0.505,-0.432 -0.604,-0.755 -0.653,-1.705 1.876,1.552 3.187,2.936 4.57,4.777 0.936,1.213 1.412,1.763 2.613,2.39 0.65,0.73 2.545,1.638 3.916,2.048 0.823,1.09 1.922,1.718 3.265,2.05 l -3.264,-2.05 c 0.823,1.09 1.922,1.718 3.265,2.05 v 0.34 c -0.163,-2.135 -0.947,-3.695 -1.958,-5.462 -0.85,-1.868 -1.63,-2.56 -2.938,-3.755 -0.854,-1.352 -1.81,-2.15 -3.264,-3.07 -0.9,-1.06 -2.25,-2.82 -2.938,-3.415 1.392,-0.874 3.027,0.592 4.57,1.366 1.274,1.38 2.465,3.18 3.264,4.095 0.87,1.753 1.537,2.838 2.94,4.437 1.405,0.834 2.38,1.66 3.59,2.73 1.87,0.518 1.124,-0.166 0.653,-1.706 -0.647,-1.926 -0.072,-1.956 1.305,-0.682 0.908,0.647 1.92,1.725 3.263,2.39 0.58,0.752 1.457,1.17 2.286,0.682 0.345,-0.482 0.326,-0.427 0.326,-1.024 -0.687,-2.118 -1.325,-3.767 -2.938,-4.438 -0.74,-0.942 -1.942,-2.063 -2.937,-3.072 -0.65,-1 -1.408,-1.576 -1.96,-2.73 l 1.96,2.73 c -0.65,-1 -1.408,-1.576 -1.96,-2.73 h -0.326 c 1.97,0.073 2.672,0.573 4.242,1.366 1.12,0.408 2.327,1.475 2.94,2.388 0.635,0.845 1.655,1.753 2.284,2.73 1.003,0.773 2.11,1.652 3.265,2.39 1.087,1.425 1.282,2.352 1.307,4.44 0.626,0.964 0.738,2.938 0.978,4.094 -0.24,1.877 -0.882,0.403 -0.978,-0.683 -0.277,-1.507 -0.85,-1.428 -1.96,-1.023 0,2.062 0.228,2.626 0.98,4.096 -0.204,1.41 -0.672,2.44 -1.306,3.414 -0.76,0.454 -0.925,-1.004 -1.63,-1.707 -0.076,-2.11 -0.67,-2.343 -1.96,-3.414 v 1.366 c 0.728,1.457 1.497,2.785 1.632,4.78 0.504,1.52 0.653,2.482 0.653,4.436 0,1.67 0.027,3.3 -0.326,4.78 0,1.85 -0.307,2.645 -0.328,4.437 v 9.558 c -0.25,1.207 -0.326,2.78 -0.326,4.436 l 0.326,-4.438 c -0.25,1.208 -0.326,2.782 -0.326,4.437 v 0.34 c -0.62,-1.715 -1.296,-3.267 -1.632,-5.12 -1.058,-1.047 -1.73,-2.126 -2.286,-3.413 -0.25,-1.464 -0.406,-3.253 -0.653,-4.438 -0.46,-1.203 -0.947,-2.486 -1.96,-1.706 -0.4,2.544 0.106,4.06 0.98,6.484 0.513,1.608 0.457,2.872 0.98,4.438 0.757,1.805 1.365,2.064 0,4.095 -0.673,1.084 -1.034,1.427 -1.306,2.732 -1.208,0.632 -1.51,0.913 -1.632,2.39 -0.406,-1.328 -1.393,-2.884 -1.96,-4.438 -0.584,-1.634 -1.306,-3.313 -1.63,-4.778 -0.793,-1.143 -1.722,-2.992 -2.613,-3.755 -0.82,-1.102 -1.997,-2.94 -2.612,-4.095 -1.25,-1.457 -1.526,-2.3 -2.61,-3.07 -0.28,-0.683 -0.612,-1.534 -1.306,-1.025 0,1.632 -0.13,3.35 0.326,4.777 0.33,2.013 0.91,3.13 0.98,5.12 v 3.756 c -0.785,-1.923 -1.622,-3.64 -2.286,-5.462 -0.713,-1.018 -1.41,-3.003 -2.285,-3.754 -0.555,-1.324 -0.988,-2.422 -1.632,-3.412 -0.167,-0.992 -0.606,-0.98 -0.98,-1.707 0.022,1.935 0.61,2.613 0.98,4.095 0.636,1.3 0.84,3.48 0.653,4.096 -0.823,-2.392 -1.568,-5.008 -2.612,-7.167 -0.99,-1.402 -1.955,-3.204 -2.61,-4.437 -0.972,-1.172 -1.97,-1.21 -2.938,-2.048 -0.882,-0.437 -1.726,-0.926 -2.285,-1.707 0.257,1.8 0.927,2.924 1.305,4.438 0.215,1.716 0.97,3.09 1.306,4.438 -0.363,2.335 -0.89,-0.648 -1.306,-1.707 -0.344,-1.922 -0.98,-2.99 -1.632,-4.097 -0.875,-0.622 -1.67,-1.727 -2.612,-2.39 -0.916,-0.367 -0.653,0.067 -0.653,1.366 0,2.112 0.077,3.507 0.653,4.78 0.652,1 0.653,2.306 0.653,4.094 -0.056,1.68 -0.325,3.03 -0.325,4.78 V 188 c -0.75,-1.45 -1.46,-2.275 -1.96,-4.096 -1.132,-1.55 -1.468,-2.688 -2.285,-4.436 -0.724,-0.305 -1.902,-0.556 -2.61,0 0.127,1.727 0.89,2.487 0.98,4.436 -1.302,1.333 -1.067,1.713 -1.96,-0.34 -0.744,-1.557 -1.61,-1.484 -2.61,-2.39 -1.64,-0.214 -1.12,-1.263 -1.634,-2.73 0,-1.315 0.13,-2.642 -0.326,-3.756 -1.79,0 -2.816,-0.064 -3.917,1.025 -0.518,1.08 -0.335,3.033 0,4.436 v 4.778 c -0.372,1.196 -1.11,1.26 -1.306,2.73 -0.63,1.458 -0.84,3.066 -1.305,4.098 -1.163,1.05 -0.658,1.182 -1.306,-0.683 v -10.925 c 0,-1.854 0.267,-2.758 0.326,-4.435 -0.677,-1.415 -0.86,-1.68 -2.938,-1.707 -0.506,0.882 -0.313,2.52 0,3.414 0,1.654 0.075,3.23 0.326,4.436 0,1.813 0.214,2.912 0.327,4.438 -0.062,1.81 -0.4,3.25 -1.306,4.096 -1.177,0.308 -0.128,1.057 -1.305,1.366 -1.18,-0.592 -2.568,-1.396 -3.59,-2.39 -1.27,-0.404 -2.466,-0.682 -4.244,-0.682 -2.164,-0.028 -2.2,-0.29 -2.938,-2.05 -0.662,-1.88 -0.973,-3.514 -1.306,-5.46 -0.718,-1.598 -0.886,-2.687 -1.306,-4.437 -0.548,-1.043 -1.133,-1.83 -1.957,-2.39 -0.473,1.726 -0.917,3.17 -0.98,5.12 -0.382,0.8 -0.462,2.834 -0.652,3.754 -0.655,-1.01 -0.912,-2.995 -1.305,-4.435 -0.62,-2.07 -1.148,-3.414 -3.265,-2.73 -2.197,0.027 -2.26,0.09 -2.286,2.39 0.946,1.48 1.956,2.918 2.612,4.094 v 4.778 c 0,1.973 0.115,2.544 -1.306,3.072 -0.54,-2.048 -1.688,-4.003 -2.938,-5.803 -0.17,-1.392 -0.6,-1.024 -1.957,-1.024 -0.91,0 -1.837,-0.128 -2.286,0.34 0,1.19 0.097,2.842 0,3.074 -0.788,0.145 -1.106,-0.008 -1.633,-0.683 -0.57,0.993 -0.14,2.393 0,3.755 -0.415,1.518 -0.91,2.905 -1.633,3.753 -0.144,-0.454 -0.47,-0.342 0,-0.342 -2.24,-0.86 -3.993,-1.39 -5.875,-2.045 -1.134,0.146 -1.957,1.19 -2.613,2.046 -1.66,0.56 -2.393,1.002 -4.244,1.025 -1.776,0 -2.64,0.28 -4.244,0.342 -1.155,0.262 -2.662,0.34 -4.244,0.34 -0.878,-0.26 -2.41,-0.268 -2.94,-0.682 0.675,-1.005 1.426,-1.513 1.96,-3.07 0.894,-0.637 1.732,-1.452 2.612,-2.39 0.86,-0.613 1.87,-1.883 2.61,-2.73 0.51,-1.645 1.21,-1.93 2.286,-2.732 1.94,0.076 2.32,0.692 4.244,1.024 1.88,0.712 2.92,0.922 3.918,-0.34 1.56,-0.66 2.882,-1.69 4.57,-2.05 1.307,-0.653 2.144,-1.288 3.264,-2.048 1.39,-0.837 2.05,-1.696 3.265,-2.73 0.347,-1.392 1.33,-2.467 0.98,-4.097 -1.767,-0.462 -2.89,-0.277 -3.918,0.683 -1.43,1.177 -1.7,1.666 -3.265,2.73 -1.352,0.385 -1.93,0.98 -3.59,1.366 -1.365,0.476 -3.01,0.342 -4.57,0.342 -1.428,0 -3.322,-0.142 -4.245,0.34 1.452,-0.977 3.197,-1.993 4.57,-2.39 1.318,-0.884 1.816,-1.332 3.592,-1.364 0.823,-1.078 1.673,-1.105 1.956,-2.73 0.553,-2.02 -1.204,-1.38 -2.61,-0.684 -1.327,0.244 -2.79,1.183 -3.918,1.707 -1.09,0.38 -2.68,0.663 -4.244,0.683 -0.412,-0.615 0.322,-1.106 0.653,-2.05 1.525,-0.54 1.77,-0.738 1.96,-2.388 -1.73,0.24 -2.39,0.808 -3.92,1.024 -1.665,0.436 -3.394,0.63 -5.22,0.683 h -4.572 c -1.604,-0.062 -2.47,-0.342 -4.243,-0.342 -1.3,-0.68 -1.306,-1.002 -1.306,-3.072 1.024,-1.176 2.02,-1.022 3.917,-1.022 1.46,-0.718 2.597,-1.1 3.59,-1.707 1.183,-0.254 1.99,-0.76 1.633,-1.364 h -4.57 c -1.76,-0.745 -0.08,-1.086 0.98,-1.707 1.587,0 3.225,0.093 4.243,0.682 1.963,-0.076 2.647,-0.697 4.242,-2.05 1.25,-1.03 1.864,-1.687 3.265,-2.388 1.006,-1.11 1.956,-1.723 2.612,-2.73 1.342,-1.28 2.23,-1.988 2.937,-3.072 0.864,-0.476 1.392,-1.09 0.98,-1.707 -2.046,0.25 -2.874,0.993 -4.245,2.048 -0.796,0.793 -1.57,1.503 -2.612,2.048 -1.47,0.874 -2.385,1.228 -4.242,1.365 -1.676,0 -2.964,-0.28 -4.57,-0.34 -1.774,-0.186 -0.142,-0.6 0.325,-1.365 0.686,-0.48 1.22,-1.542 0.653,-2.39 -1.365,-0.475 -3.008,-0.34 -4.57,-0.34 h -4.57 c -1.725,-0.067 -2.455,-0.463 -3.59,-1.025 -0.353,-0.958 0.062,-0.683 1.305,-0.683 1.574,-0.062 2.69,-0.276 4.245,-0.683 1.535,-0.438 1.727,-0.95 1.958,-2.732 -1.506,0 -3.21,0.02 -4.243,-0.34 h -2.94 z m -28.274,-7.739 c -0.287,-2.52 -0.836,-3.82 -0.924,-6.275 0,-1.843 0.045,-0.865 1.847,-3.38 0.182,0 1.532,-1.282 2.77,-2.412 1.726,-0.864 3.323,-2.08 5.078,-2.896 1.307,-0.757 3.89,-1.344 5.077,-1.93 1.556,-0.815 2.825,-1.752 4.156,-3.38 0.16,-2.16 0.464,-3.71 0.464,-6.275 1.836,-0.885 3.465,-1.742 5.077,-2.415 2.312,-0.65 2.812,-1.574 5.08,-1.93 1.46,-0.51 3.872,-0.485 6,-0.485 2.298,0 3.747,1.633 5.81,2.02 2.447,0.986 3.59,1.67 5.54,3.38 1.103,1.394 1.788,2.528 3.668,3.578 1.487,0.763 2.88,1.92 4.616,2.413 0.015,1.743 0.386,1.442 -0.858,1.442 -0.132,1.786 -0.56,1.675 -2.286,1.707 a 8.002,8.002 0 0 1 -2.938,-2.732 c 0.653,-1.773 0.22,1.435 0,2.048 -0.84,0.69 -1.338,1.426 -2.285,0.683 -0.53,-1.666 -0.978,-2.817 -0.978,-4.78 -0.25,-2.132 -0.846,-0.584 -1.307,0.343 -0.442,1.72 -0.24,2.343 0.326,3.753 -1.666,0 -2.942,-0.157 -4.245,-0.34 -1.21,-0.302 -2.572,0.068 -3.918,0.682 -1.71,1.073 -1.177,1.08 -0.326,2.39 1.51,0.444 2.593,1.28 3.92,2.048 1.505,-0.3 3.08,-0.635 4.57,-1.025 1.555,-0.54 2.98,-0.196 4.57,0 0.788,0.414 1.825,0.497 2.284,1.026 0,1.055 0.084,2.158 -0.326,2.73 -0.68,0.452 -1.324,1.7 -2.286,2.047 -1.44,0.825 -2.95,1.344 -4.57,1.707 -2,0.076 -2.73,0.515 -4.243,1.366 -0.25,1.725 -0.753,2.212 -2.287,2.73 -1.526,0.667 -2.74,1.025 -4.57,1.025 -0.908,0 -1.835,0.13 -2.285,-0.34 1.454,-1.66 1.89,-2.44 2.612,-4.097 0.282,-0.69 0.873,-1.134 0.327,-1.707 -1.934,0.076 -2.44,0.063 -2.612,2.048 -0.22,1.798 -0.91,2.1 -2.285,2.73 0.37,-1.664 0.432,-2.943 0.98,-4.436 -1.156,0.262 -2.662,0.34 -4.245,0.34 -0.99,0.628 -1.4,0.872 -0.98,2.05 -1.312,0.456 -2.91,0.175 -4.57,0 -1.386,-0.076 -0.62,-0.705 -1.63,-1.366 -0.663,-1.3 -1.424,-1.616 -2.94,-1.707 -0.752,0.94 -2.145,1.33 -2.938,2.048 -1.43,0.5 -2.34,0.085 -3.59,-0.683 -1.63,0.05 -1.412,0.576 -0.98,1.707 0.622,0.434 -0.038,0.907 0.98,1.024 0.938,0.852 1.74,1.025 3.59,1.025 1.415,-0.37 2.974,-0.34 4.57,-0.34 1.612,0.05 1.307,0.43 1.307,2.047 -1.054,0.746 -2.59,0.683 -4.245,0.683 -1.576,-0.196 -2.784,-0.604 -3.917,-1.024 -1.53,-0.113 -2.752,-0.405 -3.918,0 -0.526,0.583 -2.11,0.838 -0.326,1.025 0.7,0.66 4.478,0.342 4.747,1.466 0.89,0.99 0.692,2.29 -0.83,2.29 -0.925,-0.483 -1.64,-0.364 -2.286,0 -1.086,0.285 -2.377,0.078 -4.274,0.22 2.477,0.204 -1.8,-2.69 -2.77,-3.862 z"
       id="path56"
       inkscape:connector-curvature="0"
       style="fill:#fefefe" />
    <path
       d="m 401.687,127.25 c -0.108,0 -1.083,0.677 -1.96,1.364 -1.433,0.768 -2.965,2.075 -3.916,2.73 -0.748,0.6 -0.744,0.862 -1.63,1.026 1.555,-0.22 2.248,-0.617 3.59,-1.366 1.695,-0.204 3.338,-0.564 4.244,-1.365 0.85,-0.298 -0.064,-1.66 -0.327,-2.39 z m 15.025,-16.05 c 0.187,0 0.57,1.067 1.304,1.706 0.47,1.31 0.903,2.235 0.98,3.755 0.4,-1.667 1.084,-3.008 1.305,-4.778 -0.507,-0.9 -0.54,-1.32 -1.958,-1.365 0,0.922 0.108,0.32 -1.63,0.682 z"
       id="path58"
       inkscape:connector-curvature="0"
       style="fill:#bcbcbc" />
    <path
       d="m 349.36,417.73 c -0.494,0 0.87,-0.492 1.326,-0.663 0.364,-0.767 0.653,-1.31 1.326,-1.767 1.107,0.085 1.65,0.404 2.21,1.104 0.93,0.254 1.265,0.697 2.43,0.884 0.434,0.366 1.02,0.408 0,0.663 -0.692,0.367 -1.563,0.443 -2.65,0.443 -1.14,0.082 -1.955,0.333 -2.653,0.663 -1.48,0 -1.243,0.05 -1.99,-1.326 z"
       transform="matrix(1.48,0,0,1.54,-109.52,-520.08)"
       id="path60"
       inkscape:connector-curvature="0"
       style="fill:#c4c4c2;stroke:#000000;stroke-width:0.875" />
    <path
       d="m 422.576,111.54 v 0.34 c 0,-0.92 -0.02,-0.45 0.327,1.366 0.54,1.145 0.653,2.373 0.653,4.097 0.857,-0.64 1.572,-1.916 1.96,-3.073 0,-2.695 -0.366,-2.536 -2.94,-2.73 z m 12.084,39.25 h 0.327 c -0.96,0 -0.42,0.06 1.306,-1.024 1.117,-0.778 2.03,-1.93 3.592,-2.39 1.51,-1.24 2.673,-1.82 4.242,-2.388 0.766,-0.367 1.44,-1.005 2.286,-0.34 -0.243,1.683 -0.522,2.32 -1.96,3.07 -0.742,0.973 -1.912,1.54 -2.936,2.048 -1.062,0.488 -2.23,0.513 -2.612,1.707 -1.776,0.817 -1.994,0.68 -4.244,-0.683 z m 6.205,9.902 c 0.583,-0.46 2.627,-2.592 3.59,-3.412 1.09,-1.503 2.193,-2.653 3.265,-3.414 0.952,-1.465 2.17,-2.446 2.94,-3.755 0.906,-1.147 1.573,-2.12 2.61,-3.412 0,1.492 -0.136,3.47 0.325,4.437 0,2.062 -0.227,2.626 -0.978,4.096 -0.74,1.21 -1.294,2.01 -2.938,2.732 -1.484,0.822 -2.373,1.11 -3.592,2.047 -0.93,0.597 -1.897,1.192 -2.94,1.706 -0.932,0.42 -0.504,0.236 -2.283,-1.024 z m -10.119,7.848 h 0.326 c -0.96,0 -0.42,0.058 1.306,-1.025 1.393,-1.457 2.503,-1.963 4.245,-2.73 1.325,-0.108 2.928,-0.452 3.917,-1.025 0.79,-0.146 1.34,-0.648 1.958,0 1.025,1.45 1.307,1.858 -0.327,2.73 -0.78,0.694 -2.158,1.392 -3.262,1.708 -0.815,0.702 -2.43,0.746 -3.918,1.024 -1.334,0 -2.075,0.157 -2.612,-0.683 l 2.612,0.682 c -1.334,0 -2.075,0.157 -4.244,-0.683 z m 14.034,0 v -0.342 c 0,0.953 -0.04,0.448 0.653,-1.366 1.224,-1.91 1.684,-2.963 3.265,-3.414 0.74,-0.936 2.023,-1.178 3.59,-1.707 0.59,1.027 0.137,2.223 0,3.415 -0.425,1.275 -1.59,2.174 -2.284,3.073 -1.018,0.723 -1.433,1.418 -2.938,1.706 -1.246,0 -0.585,-0.032 -2.286,-1.365 z"
       id="path62"
       inkscape:connector-curvature="0"
       style="fill:#bcbcbc" />
    <path
       d="m 412.788,124.16 c 0,0.942 -0.73,1.706 -1.632,1.706 -0.9,0 -1.632,-0.764 -1.632,-1.707 0,-0.944 0.73,-1.708 1.632,-1.708 0.902,0 1.632,0.764 1.632,1.707 z"
       id="path64"
       inkscape:connector-curvature="0" />
  </g>
  <g
     id="g72"
     transform="scale(0.03333333)"
     style="fill:#005120;fill-opacity:0.99599998;fill-rule:evenodd;stroke:#002b0d;stroke-width:1.00000003pt;stroke-opacity:0.99599998">
    <path
       d="m 351.79,479.6 h 0.884 c -2.77,0 -1.115,-0.185 3.535,3.535 1.947,-1.623 1.924,-1.842 3.535,0.884 0.93,1.55 1.203,-0.16 2.65,-1.768 0.7,3.21 1.146,6.578 3.537,3.535 2.73,0 5.59,-0.227 7.07,0.884 1.79,3.326 1.205,-0.563 2.653,0.885 3.892,0.467 3.818,-3.338 8.057,-4.322 2.635,3.293 3.79,0.76 7.072,-0.883 2.438,0.682 4.736,4.38 5.2,0.785 1.996,-3.256 2.17,-2.98 3.536,0 1.94,1.748 2.76,-0.874 4.42,-1.767 2.958,1.73 6.258,1.97 10.606,0.884 0.736,2.944 2.592,1.667 4.42,0.883 3.91,1.643 5.273,2.146 9.722,0 2.204,-2.604 0.956,0.073 2.65,1.768 3.297,-1.023 2.387,-1.24 6.19,-0.884 3.82,0 4.13,-0.093 5.302,-2.652 1.92,1.92 2.614,3.304 5.303,0.884 4.12,0.12 2.846,0.52 5.304,-0.884 1.818,4.026 2.245,1.117 4.42,2.65 -1.433,3.632 -3.633,5.335 -6.188,7.072 -1.7,2.816 -2.764,5.857 -6.188,7.072 -2.498,2.548 -5.16,4.025 -7.955,6.187 -3.832,0.957 -8.05,0.883 -12.375,0.883 h -37.12 c -2.64,1.32 -6.96,1.948 -10.608,2.65 -4.075,0 -8.694,0.05 -11.49,-0.883 -1.895,-1.894 -5.22,-4.01 -7.07,-6.187 -1.875,-1.51 -1.93,-4.46 -3.537,-6.187 -1.48,-2.53 -1.936,-6.486 -3.535,-8.84 z"
       transform="matrix(1.48,0,0,1.54,-103,-521.43)"
       id="path68"
       inkscape:connector-curvature="0" />
    <path
       d="m 437.52,487.56 v 0.884 c 0,-2.47 0.11,-1.158 -1.768,3.535 -0.38,1.14 -1.212,1.407 -2.652,1.767 m -3.53,-2.656 h 0.884 c -3.273,3.09 -5.476,4.515 -6.188,7.955 l 6.188,-7.955 c -3.273,3.09 -5.476,4.515 -6.188,7.955 M 417.19,486.68 c 0,0.08 -0.124,3.153 -0.884,4.42 m -2.646,1.76 v 0.884 z m -7.07,-5.3 h 0.884 -0.884 c 0.294,0 0.59,0 0,0 z m -49.5,0 c 0.422,0 2.16,2.806 4.42,4.42 -0.563,2.585 -1.427,5.577 0,7.954 m 2.65,-7.074 c 0.422,0 2.16,2.807 4.42,4.42 l -4.42,-4.42 c 0.422,0 2.16,2.807 4.42,4.42 v 0.884 c 0,-2.73 -0.227,-5.59 0.883,-7.072 0.983,1.663 2.224,4.337 2.652,1.768 4.978,-0.178 7.38,-1.576 10.607,-2.65 0,1.3 -0.21,0.674 0.884,1.766 m 60.104,-3.536 h 0.884 c -1.667,1.39 -2.946,4.222 -4.42,6.187 M 407.47,485.79 h 7.07"
       transform="matrix(1.48,0,0,1.54,-103,-521.43)"
       id="path70"
       inkscape:connector-curvature="0" />
  </g>
  <path
     d="m 13.787,7.97807 c -0.5234,0 -0.696867,0.547 -1.220333,0.547 -0.01007,0 -0.0196,-8e-4 -0.02943,-10e-4 v 0.0331 c -0.002,0.37917 0.02783,0.73233 0.0822,1.06213 0.482834,-0.0353 0.6622,-0.547 1.1676,-0.547 0.523467,0 0.698167,0.5482 1.221667,0.5482 0.5235,0 0.6981,-0.54823 1.221533,-0.54823 0.523434,0 0.698134,0.54823 1.2216,0.54823 0.523467,0 0.698134,-0.54823 1.221567,-0.54823 0.5041,0 0.684,0.50813 1.164,0.54577 0.05747,-0.3386 0.08783,-0.70234 0.0858,-1.0928 v -10e-4 c -0.0098,4e-4 -0.01933,10e-4 -0.02943,10e-4 -0.5234,0 -0.696867,-0.547 -1.220334,-0.547 -0.523466,0 -0.698133,0.547 -1.221566,0.547 -0.523434,0 -0.698134,-0.547 -1.2216,-0.547 -0.523467,0 -0.698134,0.547 -1.221567,0.547 -0.523433,0 -0.698133,-0.547 -1.221567,-0.547 z m 0,2.13546 c -0.407133,0 -0.603,0.33007 -0.916167,0.4771 a 5.0477,5.0477 0 0 0 0.3888,0.82787 c 0.148667,-0.11247 0.306734,-0.20973 0.5274,-0.20973 0.523167,-4e-4 0.6978,0.54666 1.221334,0.54666 0.5235,0 0.698166,-0.547 1.221666,-0.547 0.5234,0 0.6981,0.547 1.221534,0.547 0.523433,0 0.698133,-0.547 1.2216,-0.547 0.215733,0 0.371666,0.0931 0.517566,0.20234 a 5.0927333,5.0927333 0 0 0 0.39,-0.82417 c -0.308133,-0.149 -0.5041,-0.47343 -0.907566,-0.47343 -0.523434,0 -0.698134,0.547 -1.221567,0.547 -0.523433,0 -0.698167,-0.547 -1.221667,-0.547 -0.5234,0 -0.6981,0.547 -1.221533,0.547 -0.523433,0 -0.698133,-0.547 -1.2216,-0.547 z m 2.4428,2.13507 c -0.523433,0 -0.698133,0.54827 -1.221567,0.54827 -0.495,0 -0.678233,-0.4901 -1.1394,-0.54334 0.616334,0.68657 1.315267,1.10227 1.7919,1.33067 0.1612,-0.12507 0.328134,0.15213 0.569067,0.15213 0.239267,0 0.405333,-0.27866 0.565433,-0.15453 0.471334,-0.2295 1.161767,-0.64583 1.774734,-1.32583 -0.446134,0.0652 -0.631067,0.54083 -1.1186,0.54083 -0.523434,0 -0.698134,-0.54823 -1.2216,-0.54823 z"
     id="path74"
     inkscape:connector-curvature="0"
     style="fill:#ffffff;fill-rule:evenodd;stroke-width:0.03333334" />
  <g
     transform="matrix(0.03933333,0,0,0.03933333,-13.564,-0.60733)"
     id="g153">
    <path
       d="m 332.54,541.35 c 1.744,-0.58 10.173,-3.197 10.464,-2.907 0.29,0.29 16.278,15.697 16.278,15.697 l -13.37,2.616 z"
       transform="matrix(1.25,0,0,1.3,259.35,-430)"
       id="path76"
       inkscape:connector-curvature="0"
       style="fill:none;stroke:#512007;stroke-width:0.47499999;stroke-opacity:0.99599998" />
    <path
       d="m 413.64,471.01 c 0.29,-4.65 8.72,-31.103 8.72,-31.103 m -5.82,31.413 c 0,-0.29 6.686,-31.127 6.686,-31.127 m -4.396,31.177 c 0.29,-1.744 5.558,-31.175 5.558,-31.175 M 413.93,467.23 c 1.453,-0.872 5.813,-2.035 5.813,-2.035 m -3.783,-2.615 c 1.453,0 4.36,-1.163 4.36,-1.163 m -3.49,-2.327 c 0,-0.29 4.36,-1.163 4.36,-1.163 m -3.78,-3.197 4.65,-0.872 m -2.61,-2.908 c 0,0.29 3.197,0.29 3.197,0.29 m -2.327,-3.78 c 0.58,0 3.197,0.58 3.197,0.58"
       transform="matrix(1.06,0,0,1.03,276.8,-177.96)"
       id="path78"
       inkscape:connector-curvature="0"
       style="fill:none;stroke:#512007;stroke-width:0.59399998;stroke-opacity:0.99599998" />
    <path
       d="m 413.64,471.01 c 0.29,-4.65 8.72,-31.103 8.72,-31.103 m -5.82,30.223 c 0,-0.29 6.686,-29.94 6.686,-29.94 m -3.776,27.62 c 0.29,-1.744 4.94,-27.614 4.94,-27.614 m -10.46,27.034 c 1.453,-0.872 5.813,-2.035 5.813,-2.035 m -3.783,-2.615 c 1.453,0 4.36,-1.163 4.36,-1.163 m -3.49,-2.327 c 0,-0.29 4.36,-1.163 4.36,-1.163 m -3.78,-3.197 4.65,-0.872 m -2.61,-2.908 c 0,0.29 3.197,0.29 3.197,0.29 m -2.327,-3.78 c 0.58,0 3.197,0.58 3.197,0.58"
       transform="matrix(-1.25,0,0,1.76,1290.4,-502.06)"
       id="path80"
       inkscape:connector-curvature="0"
       style="fill:none;stroke:#512007;stroke-width:0.41;stroke-opacity:0.99599998" />
    <path
       d="m 413.64,471.01 c 0.29,-4.65 8.72,-31.103 8.72,-31.103 m -5.82,30.223 c 0,-0.29 6.686,-29.94 6.686,-29.94 m -3.776,27.62 c 0.29,-1.744 4.94,-27.614 4.94,-27.614 m -10.46,27.034 c 1.453,-0.872 5.813,-2.035 5.813,-2.035 m -3.783,-2.615 c 1.453,0 4.36,-1.163 4.36,-1.163 m -3.49,-2.327 c 0,-0.29 4.36,-1.163 4.36,-1.163 m -3.78,-3.197 4.65,-0.872 m -2.61,-2.908 c 0,0.29 3.197,0.29 3.197,0.29 m -2.327,-3.78 c 0.58,0 3.197,0.58 3.197,0.58"
       transform="matrix(-1.25,0,0,1.3,1321.3,-301.92)"
       id="path82"
       inkscape:connector-curvature="0"
       style="fill:none;stroke:#512007;stroke-width:0.47499999;stroke-opacity:0.99599998" />
    <path
       d="m 395.32,572.16 c 0,-0.29 0.872,-72.96 0.872,-72.96 0,0 2.616,-0.29 2.616,0 0,0.29 -0.29,72.67 -0.58,72.96 -0.29,0.29 -3.2,0.58 -2.908,0 z m 28.49,-69.76 c 0,0.582 -0.582,61.333 -0.582,61.333 l -2.035,2.326 0.582,-63.66 h 2.035 z"
       transform="matrix(1.25,0,0,1.3,259.35,-430)"
       id="path84"
       inkscape:connector-curvature="0"
       style="fill:#dd8b59;fill-rule:evenodd;stroke:#512007;stroke-width:0.47499999;stroke-opacity:0.99599998" />
    <path
       d="m 363.06,560.24 c 0,0 2.907,29.94 36.335,29.068 33.428,-0.872 42.73,-30.23 42.73,-30.23 0,0 -14.244,-0.582 -14.535,-0.582 -0.29,0 -11.627,13.953 -26.16,13.662 -14.533,-0.291 -19.185,-3.78 -22.383,-6.685 -3.197,-2.907 -6.104,-7.267 -6.104,-7.267 l -16.86,-6.686 0.873,6.395 z m 90.24,-3.11 c -0.29,-0.872 -1.007,-3.866 -1.007,-3.866 v -3.488 l 1.61,-3.532 c 0,0 -25.29,3.623 -25.29,3.914 0,-0.335 -0.156,6.885 -0.156,6.885 z"
       transform="matrix(1.25,0,0,1.3,259.35,-430)"
       id="path86"
       inkscape:connector-curvature="0"
       style="fill:#dd8b59;fill-rule:evenodd;stroke:#512007;stroke-width:0.47499999;stroke-opacity:0.99599998" />
    <path
       d="m 448.52,549.78 -0.58,6.104 h 4.068 l -0.29,-6.104 z m -4.36,0.29 -0.29,6.394 2.615,-0.29 0.29,-6.104 z m -4.36,6.39 v -4.94 l 2.616,-0.873 0.29,4.94 z m -4.95,-0.28 0.582,-4.36 2.906,0.29 0.29,4.65 z m -5.52,0 0.29,-3.78 2.908,-0.29 v 4.36 z m -67.44,3.77 c 0.872,0 7.558,1.453 7.558,1.453 l 6.976,9.302"
       transform="matrix(1.25,0,0,1.3,259.35,-430)"
       id="path88"
       inkscape:connector-curvature="0"
       style="fill:none;stroke:#512007;stroke-width:0.47499999;stroke-opacity:0.99599998" />
    <path
       d="m 366.84,561.12 c 0.29,0.29 6.104,19.766 34.01,19.766 27.906,0 34.59,-22.09 34.59,-22.09"
       transform="matrix(1.25,0,0,1.3,259.35,-430)"
       id="path90"
       inkscape:connector-curvature="0"
       style="fill:none;stroke:#512007;stroke-width:0.47499999;stroke-opacity:0.99599998" />
    <path
       d="m 439.8,559.37 c 0,0 -13.37,29.068 -38.95,27.033 -25.58,-2.034 -29.65,-11.627 -31.685,-16.568 -2.035,-4.942 -3.197,-9.01 -3.197,-9.01"
       transform="matrix(1.25,0,0,1.3,259.35,-430)"
       id="path92"
       inkscape:connector-curvature="0"
       style="fill:none;stroke:#512007;stroke-width:0.47499999;stroke-opacity:0.99599998" />
    <path
       d="m 373.23,558.21 c 0.29,-1.745 0.29,-54.357 0.29,-54.357 l -1.744,-0.29 -0.29,53.775 z m -41.57,-17.15 22.09,10.755 -0.58,1.453 c 0,0 -21.22,-9.883 -21.22,-10.174 0,-0.29 0.29,-1.453 -0.29,-2.034 z"
       transform="matrix(1.25,0,0,1.3,259.35,-430)"
       id="path94"
       inkscape:connector-curvature="0"
       style="fill:#dd8b59;fill-rule:evenodd;stroke:#512007;stroke-width:0.47499999;stroke-opacity:0.99599998" />
    <path
       d="m 341.84,537.86 c 0,0.872 3.198,18.603 3.198,18.603 0,0 2.035,0.29 2.035,0 0,-0.29 -3.49,-18.312 -3.49,-18.312 l -1.743,-0.29 z m 20.34,0.58 c 1.163,0 20.93,-3.197 20.93,-3.197 l -0.292,3.197 -19.475,2.035 z"
       transform="matrix(1.25,0,0,1.3,259.35,-430)"
       id="path96"
       inkscape:connector-curvature="0"
       style="fill:#dd8b59;fill-rule:evenodd;stroke:#512007;stroke-width:0.47499999;stroke-opacity:0.99599998" />
    <path
       d="m 365.09,514.32 c 0.58,0 6.976,3.198 9.592,2.326 2.616,-0.872 0.872,-2.907 1.453,-2.907 0.582,0 2.616,1.452 3.78,0.29 1.162,-1.163 2.034,-4.65 1.453,-4.36 -0.582,0.29 -15.988,5.813 -16.278,4.65 z"
       transform="matrix(1.25,0,0,1.3,259.35,-430)"
       id="path98"
       inkscape:connector-curvature="0"
       style="fill:#fecf3e;fill-rule:evenodd;stroke:#512007;stroke-width:0.47499999;stroke-opacity:0.99599998" />
    <path
       d="m 362.48,521.58 c 1.163,0.29 23.836,-6.104 23.836,-6.104 0,0 0,2.035 -0.29,2.035 -0.29,0 -23.546,6.105 -23.546,6.105 v -2.035 z"
       transform="matrix(1.25,0,0,1.3,259.35,-430)"
       id="path100"
       inkscape:connector-curvature="0"
       style="fill:#dd8b59;fill-rule:evenodd;stroke:#512007;stroke-width:0.47499999;stroke-opacity:0.99599998" />
    <path
       d="m 415.09,512.57 c 0,0 1.454,3.488 2.907,2.907 1.453,-0.581 2.907,-1.744 2.907,-1.744 0,0 1.163,2.907 3.197,2.325 2.036,-0.58 3.2,-3.78 3.2,-3.78 0,0 2.033,0.583 2.905,0.292 0.873,-0.29 2.035,-4.94 2.035,-4.94 l -17.15,4.94 z m -1.75,28.2 c -0.29,0.58 1.454,2.035 2.907,2.035 1.453,0 2.035,-2.035 2.325,-1.454 0.29,0.583 0.29,3.2 4.07,2.327 3.78,-0.873 3.78,-3.488 3.78,-3.488 0,0 -1.164,0.87 1.452,1.16 2.616,0.292 5.232,-3.778 4.942,-3.778 -0.29,0 -18.894,3.49 -19.476,3.198 z"
       transform="matrix(1.25,0,0,1.3,259.35,-430)"
       id="path102"
       inkscape:connector-curvature="0"
       style="fill:#fecf3e;fill-rule:evenodd;stroke:#512007;stroke-width:0.47499999;stroke-opacity:0.99599998" />
    <path
       d="m 363.35,513.15 c -0.29,1.163 0.29,2.617 0.29,2.617 l 18.894,-6.395 c 0,0 0.872,-1.454 0,-1.454 -0.872,0 -19.475,5.814 -19.184,5.232 z m 25,-4.07 c 0.58,0 19.475,-6.104 19.475,-6.104 0,0 0.29,2.616 0,2.616 -0.29,0 -17.73,5.232 -17.73,5.232 z"
       transform="matrix(1.25,0,0,1.3,259.35,-430)"
       id="path104"
       inkscape:connector-curvature="0"
       style="fill:#dd8b59;fill-rule:evenodd;stroke:#512007;stroke-width:0.47499999;stroke-opacity:0.99599998" />
    <path
       d="m 413.34,521.88 c 0,0 -2.907,3.197 -2.035,7.557 0.872,4.36 2.035,8.14 2.326,8.14 0.291,0 3.49,-5.814 6.977,-6.105 3.487,-0.291 9.883,3.198 9.883,3.198 0,0 -0.872,-6.977 -0.58,-10.174 0.29,-3.198 5.23,-8.72 5.23,-8.72 l -21.8,6.104 z"
       transform="matrix(1.25,0,0,1.3,259.35,-430)"
       id="path106"
       inkscape:connector-curvature="0"
       style="fill:#fecf3e;fill-rule:evenodd;stroke:#512007;stroke-width:0.47499999;stroke-opacity:0.99599998" />
    <path
       d="m 386.89,516.64 c 0,0 -0.58,2.616 -0.29,2.616 0.29,0 24.707,-6.395 24.707,-6.395 v -1.743 l -24.417,5.523 z"
       transform="matrix(1.25,0,0,1.3,259.35,-430)"
       id="path108"
       inkscape:connector-curvature="0"
       style="fill:#dd8b59;fill-rule:evenodd;stroke:#512007;stroke-width:0.47499999;stroke-opacity:0.99599998" />
    <path
       d="m 355.5,551.82 c 0,0 -5.813,-0.872 -5.523,0.58 0.29,1.454 2.907,2.908 3.198,3.78 0.29,0.872 -0.872,4.07 0.872,3.78 1.744,-0.292 3.488,-1.455 3.488,-2.327 0,-0.872 -0.29,-4.94 -0.29,-4.94 z"
       transform="matrix(1.25,0,0,1.3,259.35,-430)"
       id="path110"
       inkscape:connector-curvature="0"
       style="fill:#b6b6b4;fill-opacity:0.99599998;fill-rule:evenodd;stroke:#512007;stroke-width:0.47499999;stroke-opacity:0.99599998" />
    <path
       d="m 387.76,537.28 v 2.034 l 20.93,-2.906 -0.582,-1.454 z"
       transform="matrix(1.25,0,0,1.3,259.35,-430)"
       id="path112"
       inkscape:connector-curvature="0"
       style="fill:#dd8b59;fill-rule:evenodd;stroke:#512007;stroke-width:0.47499999;stroke-opacity:0.99599998" />
    <path
       d="m 363.06,540.77 c 0.29,0 0,2.616 2.325,2.035 2.326,-0.582 2.907,-2.035 2.907,-2.035 0,0 0.58,3.197 3.78,2.907 3.196,-0.29 4.94,-3.78 4.94,-3.78 0,0 0.29,2.617 2.326,1.745 2.036,-0.872 2.616,-2.907 2.616,-2.907 l -18.313,2.616 -0.58,-0.58 z m 0,-17.15 c 0,0 -2.616,0.872 -1.744,6.104 0.872,5.232 2.907,8.14 3.197,8.14 0.29,0 2.616,-4.942 6.104,-5.814 3.49,-0.873 9.593,2.616 9.593,2.616 0,0 -0.582,-4.65 0.29,-9.01 0.873,-4.362 3.78,-7.56 3.78,-7.56 0,0 -20.348,5.524 -21.22,5.524 z"
       transform="matrix(1.25,0,0,1.3,259.35,-430)"
       id="path114"
       inkscape:connector-curvature="0"
       style="fill:#fecf3e;fill-rule:evenodd;stroke:#512007;stroke-width:0.47499999;stroke-opacity:0.99599998" />
    <path
       d="m 411.89,538.73 0.29,1.744 c 0,0 20.93,-2.616 20.93,-2.907 0,-0.29 0,-2.034 -0.29,-2.034 -0.292,0 -20.64,3.488 -20.93,3.197 z m -0.29,-18.6 0.29,2.034 24.708,-6.685 c 0,0 0.582,-1.745 0.29,-1.745 -0.292,0 -24.707,7.267 -25.288,6.395 z"
       transform="matrix(1.25,0,0,1.3,259.35,-430)"
       id="path116"
       inkscape:connector-curvature="0"
       style="fill:#dd8b59;fill-rule:evenodd;stroke:#512007;stroke-width:0.47499999;stroke-opacity:0.99599998" />
    <path
       d="m 414.22,510.83 c 0,0 -0.29,1.744 0,1.744 0.29,0 18.313,-4.36 18.313,-4.65 0,-0.29 1.744,-2.036 0.29,-1.745 -1.453,0.29 -18.02,5.522 -18.603,4.65 z m 38.66,33.72 -18.03,-28.49 m -2.32,19.77 c 0.29,-0.872 1.163,-18.312 1.163,-18.312"
       transform="matrix(1.25,0,0,1.3,259.35,-430)"
       id="path118"
       inkscape:connector-curvature="0"
       style="fill:none;stroke:#512007;stroke-width:0.47499999;stroke-opacity:0.99599998" />
    <path
       d="m 388.93,509.96 c 1.163,0.29 3.198,3.197 4.36,2.616 1.163,-0.58 2.907,-2.325 2.907,-2.325 0,0 -0.29,3.49 2.035,2.907 2.325,-0.58 2.616,-2.906 2.616,-2.906 0,0 1.744,0.873 3.197,0 1.454,-0.87 2.907,-5.232 2.326,-5.232 -0.581,0 -16.858,5.233 -17.44,4.942 z m -0.58,8.43 c 0,0.58 -2.907,5.232 -2.035,9.592 0.872,4.36 2.616,8.43 2.907,8.43 0.291,0 4.65,-4.65 8.43,-5.523 3.778,-0.873 9.3,2.906 9.01,2.906 -0.29,0 -1.453,-4.36 -1.453,-7.558 0,-3.198 4.36,-13.08 4.36,-13.08 l -21.22,5.232 z m 0,20.93 c 0,0.29 0.872,2.326 2.907,2.326 2.034,0 2.325,-2.035 2.325,-2.035 0,0 -0.29,3.49 2.907,3.2 3.196,-0.292 4.36,-3.49 4.36,-3.49 0,0 0.29,1.745 2.906,0.873 2.616,-0.873 6.104,-3.78 5.813,-3.78 -0.29,0 -20.93,3.78 -21.22,2.907 z"
       transform="matrix(1.25,0,0,1.3,259.35,-430)"
       id="path120"
       inkscape:connector-curvature="0"
       style="fill:#fecf3e;fill-rule:evenodd;stroke:#512007;stroke-width:0.47499999;stroke-opacity:0.99599998" />
    <use
       xlink:href="#k"
       transform="translate(-6.56,7.28)"
       height="496.06299"
       width="992.12598"
       id="use122"
       x="0"
       y="0" />
    <use
       xlink:href="#k"
       transform="translate(6.56,3.76)"
       height="496.06299"
       width="992.12598"
       id="use124"
       x="0"
       y="0" />
    <use
       xlink:href="#k"
       transform="translate(0,11.03)"
       height="496.06299"
       width="992.12598"
       id="use126"
       x="0"
       y="0" />
    <path
       id="k"
       d="m 408.98,476.96 a 1.89,1.89 0 1 1 -3.78,0 1.89,1.89 0 0 1 3.78,0 z"
       transform="matrix(0.04,-1.07,1.02,0.04,251.6,667.92)"
       inkscape:connector-curvature="0"
       style="fill:#be0f17;fill-opacity:0.99599998;fill-rule:evenodd;stroke:#512007;stroke-width:0.58099997;stroke-opacity:0.99599998" />
    <path
       d="m 398.23,500.07 c 0,-0.29 9.01,3.78 9.01,4.07 0,0.29 31.975,42.73 32.266,42.73 m -15.986,-42.73 8.14,3.49 2.615,6.393 M 372.94,503.56 c -0.29,0 9.01,6.976 9.01,6.976 l 1.164,5.814 M 341.26,546 c 4.07,-1.744 32.265,-26.452 32.265,-26.452 M 333.7,541.35 c 3.49,-2.907 31.684,-26.742 31.684,-26.742 m 21.216,4.072 29.94,49.706 m -3.53,-29.156 c 0,0 3.532,11.71 7.02,13.455 3.488,1.745 7.557,4.65 7.557,4.65"
       transform="matrix(1.25,0,0,1.3,259.35,-430)"
       id="path129"
       inkscape:connector-curvature="0"
       style="fill:none;stroke:#512007;stroke-width:0.47499999;stroke-opacity:0.99599998" />
    <path
       d="m 412.61,539.48 c 0,0 2.48,13.793 5.97,16.41 3.49,2.617 6.976,5.522 6.976,5.522"
       transform="matrix(1.25,0,0,1.3,259.35,-430)"
       id="path131"
       inkscape:connector-curvature="0"
       style="fill:none;stroke:#512007;stroke-width:0.47499999;stroke-opacity:0.99599998" />
    <path
       d="m 390.96,439.03 c 0,0 3.488,19.185 10.465,23.545 6.976,4.36 12.79,8.14 12.79,8.14"
       transform="matrix(1.25,0,0,1.3,256.26,-299.49)"
       id="path133"
       inkscape:connector-curvature="0"
       style="fill:none;stroke:#512007;stroke-width:0.47499999;stroke-opacity:0.99599998" />
    <path
       d="m 390.67,438.74 c 0,0 7.557,15.116 13.952,19.767 6.395,4.65 15.115,9.01 15.115,9.01 M 366.26,439.9 c 2.034,3.488 1.744,10.174 4.07,12.5 2.324,2.325 5.813,7.557 5.813,7.557"
       transform="matrix(1.25,0,0,1.3,256.26,-299.49)"
       id="path135"
       inkscape:connector-curvature="0"
       style="fill:none;stroke:#512007;stroke-width:0.47499999;stroke-opacity:0.99599998" />
    <path
       d="m 366.84,440.19 c 1.163,1.744 4.406,10.428 6.395,13.08 1.454,2.326 16.278,17.15 16.278,17.15"
       transform="matrix(1.25,0,0,1.3,256.26,-299.49)"
       id="path137"
       inkscape:connector-curvature="0"
       style="fill:none;stroke:#512007;stroke-width:0.47499999;stroke-opacity:0.99599998" />
    <path
       d="m 384.57,471.15 a 2.18,2.18 0 1 1 -4.36,0 2.18,2.18 0 0 1 4.36,0 z m 10.75,4.65 a 1.89,1.89 0 1 1 -3.78,0 1.89,1.89 0 0 1 3.78,0 z m 13.66,1.16 a 1.89,1.89 0 1 1 -3.78,0 1.89,1.89 0 0 1 3.78,0 z m 11.92,-4.5 c 0,0.963 -0.716,1.744 -1.6,1.744 -0.882,0 -1.597,-0.78 -1.597,-1.744 0,-0.963 0.715,-1.744 1.598,-1.744 0.884,0 1.6,0.78 1.6,1.744 z m 9.59,-5.67 c 0,0.883 -0.846,1.6 -1.89,1.6 -1.044,0 -1.89,-0.717 -1.89,-1.6 0,-0.883 0.847,-1.6 1.89,-1.6 1.043,0 1.89,0.717 1.89,1.6 z"
       transform="matrix(1.25,0,0,1.3,256.26,-299.49)"
       id="path139"
       inkscape:connector-curvature="0"
       style="fill-rule:evenodd;stroke:#512007;stroke-width:0.47499999;stroke-opacity:0.99599998" />
    <path
       d="m 374.1,404.44 c -0.872,0.582 -15.406,4.07 -13.37,3.78 2.033,-0.29 13.66,2.906 13.37,2.034 -0.29,-0.872 0,-5.232 0,-5.814 z m 24.71,-4.36 c -0.582,0 -9.012,3.198 -8.72,3.198 0.292,0 9.592,2.616 9.3,2.034 -0.29,-0.58 -0.29,-4.36 -0.58,-5.232 z m 25.29,2.91 c -0.582,0.29 -10.465,2.616 -8.72,2.907 1.745,0.291 8.43,2.616 8.43,2.035 0,-0.582 0,-4.65 0.29,-4.942 z"
       transform="matrix(1.25,0,0,1.3,256.26,-299.49)"
       id="path141"
       inkscape:connector-curvature="0"
       style="fill:#ff0000;fill-opacity:0.99599998;fill-rule:evenodd;stroke:#512007;stroke-width:0.47499999;stroke-opacity:0.99599998" />
    <path
       d="m 413.64,471.01 c 0.29,-4.65 8.72,-31.103 8.72,-31.103 m -5.82,30.223 c 0,-0.29 6.686,-29.94 6.686,-29.94 m -3.776,27.62 c 0.29,-1.744 4.94,-27.614 4.94,-27.614 m -10.46,27.034 c 1.453,-0.872 5.813,-2.035 5.813,-2.035 m -3.783,-2.615 c 1.453,0 4.36,-1.163 4.36,-1.163 m -3.49,-2.327 c 0,-0.29 4.36,-1.163 4.36,-1.163 m -3.78,-3.197 4.65,-0.872 m -2.61,-2.908 c 0,0.29 3.197,0.29 3.197,0.29 m -2.327,-3.78 c 0.58,0 3.197,0.58 3.197,0.58"
       transform="matrix(1.25,0,0,1.3,256.26,-299.49)"
       id="path143"
       inkscape:connector-curvature="0"
       style="fill:none;stroke:#512007;stroke-width:0.47499999;stroke-opacity:0.99599998" />
    <path
       d="m 413.64,471.01 c 0.29,-4.65 8.72,-31.103 8.72,-31.103 m -5.82,31.413 c 0,-0.29 6.686,-31.127 6.686,-31.127 m -4.396,31.177 c 0.29,-1.744 5.558,-31.175 5.558,-31.175 M 413.93,467.23 c 1.453,-0.872 5.813,-2.035 5.813,-2.035 m -3.783,-2.615 c 1.453,0 4.36,-1.163 4.36,-1.163 m -3.49,-2.327 c 0,-0.29 4.36,-1.163 4.36,-1.163 m -3.78,-3.197 4.65,-0.872 m -2.61,-2.908 c 0,0.29 3.197,0.29 3.197,0.29 m -2.327,-3.78 c 0.58,0 3.197,0.58 3.197,0.58"
       transform="matrix(1.25,0,0,1.36,225.31,-323.36)"
       id="path145"
       inkscape:connector-curvature="0"
       style="fill:none;stroke:#512007;stroke-width:0.47499999;stroke-opacity:0.99599998" />
    <path
       d="m 413.64,471.01 c 0.29,-4.65 8.72,-31.103 8.72,-31.103 m -5.82,30.223 c 0,-0.29 6.686,-29.94 6.686,-29.94 m -3.776,27.62 c 0.29,-1.744 4.94,-27.614 4.94,-27.614 m -10.46,27.034 c 1.453,-0.872 5.813,-2.035 5.813,-2.035 m -3.783,-2.615 c 1.453,0 4.36,-1.163 4.36,-1.163 m -3.49,-2.327 c 0,-0.29 4.36,-1.163 4.36,-1.163 m -3.78,-3.197 4.65,-0.872 m -2.61,-2.908 c 0,0.29 3.197,0.29 3.197,0.29 m -2.327,-3.78 c 0.58,0 3.197,0.58 3.197,0.58"
       transform="matrix(-1.25,0,0,1.32,1259.2,-307.28)"
       id="path147"
       inkscape:connector-curvature="0"
       style="fill:none;stroke:#512007;stroke-width:0.47400001;stroke-opacity:0.99599998" />
    <path
       d="m 426.42,558.5 27.614,0.582 0.29,-2.035 -28.486,-0.29 z m 1.17,-7.27 c 3.198,0 27.324,-4.65 27.324,-4.65 0,0 0.872,-2.907 0,-2.907 -0.872,0 -27.324,5.523 -27.324,5.523 z"
       transform="matrix(1.25,0,0,1.3,259.35,-430)"
       id="path149"
       inkscape:connector-curvature="0"
       style="fill:#dd8b59;fill-rule:evenodd;stroke:#512007;stroke-width:0.47499999;stroke-opacity:0.99599998" />
    <use
       xlink:href="#k"
       transform="translate(0,5.52)"
       height="496.06299"
       width="992.12598"
       id="use151"
       x="0"
       y="0" />
  </g>
</svg>
