<?xml version="1.0" encoding="UTF-8" standalone="no"?>
<svg
   xmlns:dc="http://purl.org/dc/elements/1.1/"
   xmlns:cc="http://creativecommons.org/ns#"
   xmlns:rdf="http://www.w3.org/1999/02/22-rdf-syntax-ns#"
   xmlns:svg="http://www.w3.org/2000/svg"
   xmlns="http://www.w3.org/2000/svg"
   xmlns:xlink="http://www.w3.org/1999/xlink"
   xmlns:sodipodi="http://sodipodi.sourceforge.net/DTD/sodipodi-0.dtd"
   xmlns:inkscape="http://www.inkscape.org/namespaces/inkscape"
   height="16"
   width="21.333332"
   viewBox="0 0 21.333332 16"
   version="1.1"
   id="svg338"
   sodipodi:docname="gs.svg"
   inkscape:version="0.92.1 r">
  <metadata
     id="metadata342">
    <rdf:RDF>
      <cc:Work
         rdf:about="">
        <dc:format>image/svg+xml</dc:format>
        <dc:type
           rdf:resource="http://purl.org/dc/dcmitype/StillImage" />
        <dc:title></dc:title>
      </cc:Work>
    </rdf:RDF>
  </metadata>
  <sodipodi:namedview
     pagecolor="#ffffff"
     bordercolor="#666666"
     borderopacity="1"
     objecttolerance="10"
     gridtolerance="10"
     guidetolerance="10"
     inkscape:pageopacity="0"
     inkscape:pageshadow="2"
     inkscape:window-width="1920"
     inkscape:window-height="1024"
     id="namedview340"
     showgrid="false"
     fit-margin-top="0"
     fit-margin-left="0"
     fit-margin-right="0"
     fit-margin-bottom="0"
     inkscape:zoom="0.49166667"
     inkscape:cx="320"
     inkscape:cy="240"
     inkscape:window-x="0"
     inkscape:window-y="0"
     inkscape:window-maximized="1"
     inkscape:current-layer="svg338" />
  <defs
     id="defs22">
    <linearGradient
       id="b">
      <stop
         stop-color="#d5dfff"
         offset="0"
         id="stop2" />
      <stop
         stop-color="#fff"
         offset="1"
         id="stop4" />
    </linearGradient>
    <linearGradient
       id="a">
      <stop
         stop-color="#474747"
         offset="0"
         id="stop7" />
      <stop
         stop-color="#f50"
         offset="1"
         id="stop9" />
    </linearGradient>
    <linearGradient
       id="c"
       y2="173.45"
       xlink:href="#a"
       gradientUnits="userSpaceOnUse"
       x2="110.94"
       gradientTransform="matrix(0.043,0,0,0.01863334,12.40362,0.39029)"
       y1="218.47"
       x1="109.34" />
    <linearGradient
       id="d"
       y2="337.23001"
       gradientUnits="userSpaceOnUse"
       x2="126.02"
       gradientTransform="matrix(0.03526,0,0,0.02293334,12.40362,0.39029)"
       y1="316.38"
       x1="125.91">
      <stop
         stop-color="#b50000"
         offset="0"
         id="stop13" />
      <stop
         stop-color="#ffc500"
         offset="1"
         id="stop15" />
    </linearGradient>
    <linearGradient
       id="e"
       y2="147.35001"
       xlink:href="#b"
       gradientUnits="userSpaceOnUse"
       x2="456.39999"
       gradientTransform="matrix(0.01605334,0,0,0.05045334,12.40362,0.39029)"
       y1="149.38"
       x1="407.87" />
    <linearGradient
       id="f"
       y2="102.99"
       xlink:href="#a"
       gradientUnits="userSpaceOnUse"
       x2="228.97"
       gradientTransform="matrix(0.02121334,0,0,0.03812667,12.40362,0.39029)"
       y1="102.99"
       x1="215.83" />
    <linearGradient
       id="g"
       y2="1003.7"
       xlink:href="#b"
       gradientUnits="userSpaceOnUse"
       x2="78.221001"
       gradientTransform="matrix(0.07338668,0,0,0.01089333,12.40362,0.39029)"
       y1="1040.4"
       x1="117.6" />
    <linearGradient
       id="h"
       y2="226.38"
       xlink:href="#b"
       gradientUnits="userSpaceOnUse"
       x2="255.03"
       gradientTransform="matrix(0.0258,0,0,0.03153334,12.40362,0.39029)"
       y1="245.98"
       x1="264.72" />
  </defs>
  <path
     d="M 0,0 H 21.333333 V 16 H 0 Z"
     id="path24"
     inkscape:connector-curvature="0"
     style="fill:#000066;stroke-width:0.03333334" />
  <g
     id="g32"
     transform="scale(0.03333333)"
     style="stroke-width:1.00000003pt">
    <path
       d="m 0,0 v 32.946 l 403.223,261.736 h 50.755 V 261.737 L 50.755,0 Z M 453.978,0 V 32.945 L 50.755,294.68 H 0 V 261.736 L 403.223,0 Z"
       id="path26"
       inkscape:connector-curvature="0"
       style="fill:#ffffff" />
    <path
       d="M 189.157,0 V 294.68 H 264.82 V 0 Z M 0,98.227 v 98.227 H 453.978 V 98.227 Z"
       id="path28"
       inkscape:connector-curvature="0"
       style="fill:#ffffff" />
    <path
       d="m 0,117.872 v 58.937 H 453.978 V 117.87 H 0 Z M 204.29,0 v 294.68 h 45.398 V 0 Z M 0,294.68 151.326,196.454 h 33.836 L 33.836,294.68 Z M 0,0 151.326,98.227 H 117.49 L 0,21.965 Z M 268.816,98.227 420.142,0 h 33.836 L 302.652,98.227 Z M 453.978,294.68 302.652,196.454 h 33.836 l 117.49,76.263 v 21.964 z"
       id="path30"
       inkscape:connector-curvature="0"
       style="fill:#cc0000" />
  </g>
  <path
     d="m 15.458333,11.6649 c 0,0 -0.09593,0.25367 -0.150766,0.25367 -0.05487,0 -0.253667,-0.10967 -0.253667,-0.10967 0,0 -0.144,0.233 -0.219333,0.24677 -0.07543,0.0137 -0.274234,-0.0343 -0.274234,-0.0343 0,0 -0.191933,0 -0.1988,-0.0273 -0.0069,-0.0275 0.0069,-0.0823 0.0069,-0.0823 0,0 -0.274233,0.2194 -0.335933,0.20566 -0.06167,-0.0137 -0.267334,-0.2742 -0.267334,-0.2742 l -0.03433,0.13744 -0.390767,-0.0138 -0.342766,-0.21947 c 0,0 -0.191934,0.31534 -0.1988,0.3085 -0.0068,-0.007 -0.3359,0.0754 -0.3359,0.0754 l -0.02057,-0.0617 -0.2194,-0.13027 c 0,0 0.171333,-0.24 0.171333,-0.24683 0,-0.007 -0.08223,-0.0343 -0.08223,-0.0343 l -0.123333,0.10283 -0.253667,0.1645 -0.253667,-0.11653 0.109734,-0.2056 0.01367,-0.15083 0.198834,-0.30167 2.4336,-2.365 1.199666,2.21423 -0.178233,0.66494 z"
     id="path34"
     inkscape:connector-curvature="0"
     style="fill:#6a4c2d;fill-rule:evenodd;stroke:#000000;stroke-width:0.03823333" />
  <path
     d="m 17.187333,11.80833 0.633434,-0.0227 -0.269667,-0.1332 2.413667,-0.091 L 19.6237,11.43153 19.3216,11.0222 18.070933,10.928 c 0,0 -0.09423,-0.0715 -0.2469,-0.0358 -0.0065,-0.0974 -0.123466,-0.22413 -0.123466,-0.22413 l -0.7699,-0.0585 -0.480834,0.32807 0.324867,0.8316 0.4126,0.039 z"
     id="path36"
     inkscape:connector-curvature="0"
     style="fill:#ffffff;fill-rule:evenodd;stroke:#000000;stroke-width:0.03823333" />
  <path
     d="m 14.720173,4.71179 0.06375,-0.21675 c 0,0 0.111571,-0.18811 0.111571,-0.27099 0,-0.0829 0.08285,-0.18174 0.08285,-0.18174 0,0 0.255048,-0.0733 0.309228,0.0829 0.274139,-0.41443 0.596094,-0.0191 0.596094,-0.0191 l 0.08927,-0.10521 0.181747,-0.22311 c 0,0 0.258172,0.24223 0.261354,0.28366 0.0032,0.0414 0.04463,0.0127 0.04463,0.0127 l 0.280532,-0.0223 c 0,0 0.133128,0.1042 0.105207,0.30284 0.09884,0.0583 0.188053,0.40162 0.188053,0.40162 l -2.31426,-0.0446 z"
     id="path38"
     style="fill:url(#c);fill-rule:evenodd;stroke:#000000;stroke-width:0.02866667pt"
     inkscape:connector-curvature="0" />
  <path
     d="m 17.1835,7.29067 c 0.04833,-0.0298 0.200767,-0.0781 0.182167,-0.30117 -0.01857,-0.22307 -0.2119,-0.2491 -0.319734,-0.24167 -0.107833,0.007 -0.2045,0.10034 -0.2045,0.10034 l -0.3569,-0.22674 c 0,0 0.178434,-1.12656 0.368067,-1.1972 0.180067,-0.12976 0.211933,-0.1859 0.211933,-0.21566 0,-0.0298 -0.06693,-0.10407 -0.06693,-0.10407 L 15.83387,4.96693 14.733336,5.09707 c 0,0 -0.08547,0.13013 -0.07433,0.18216 0.01113,0.052 0.01487,0.10784 0.211933,0.26027 0.218,0.16767 0.368067,1.13027 0.368067,1.13027 0,0 -0.3086,0.15243 -0.327167,0.13383 -0.0186,-0.0186 -0.111533,-0.0372 -0.159866,-0.0297 -0.04833,0.007 -0.208234,0.0892 -0.208234,0.30113 0,0.21193 0.159867,0.33467 0.159867,0.33467 0,0 1.052133,-0.12267 1.208333,0.16726 0.1524,-0.34946 1.152534,-0.22676 1.2715,-0.28626 z"
     id="path40"
     inkscape:connector-curvature="0"
     style="fill:#656263;fill-rule:evenodd;stroke:#000000;stroke-width:0.02866666pt" />
  <path
     d="m 18.317,6.1196 c 0,0 0.01167,-0.12233 0.099,-0.1805 0.08733,-0.0582 0.6696,-0.0873 0.809333,0 0.139734,0.0873 0.192167,0.51823 0.192167,0.51823 0,0 0.08733,0.1514 0.09317,0.262 0.0058,0.1106 0.01747,0.18634 0.01747,0.18634 0,0 0.465834,0.6056 0.471667,1.15293 0.0524,0.37267 0.04073,1.36833 -0.104833,1.74683 -0.0059,0.4716 -0.203834,0.78024 -0.203834,0.78024 0,0 0.0466,0.0815 0.04077,0.16886 -0.0058,0.0873 -0.05243,0.16887 -0.05243,0.16887 l 0.681266,0.33773 -0.250333,-0.0932 c 0,0 0.2562,0.21533 0.250333,0.20956 -0.0058,-0.006 -0.285333,-0.13393 -0.285333,-0.13393 l 0.1689,0.16883 c -0.0058,-0.006 -0.4134,-0.18633 -0.4134,-0.18633 0,0 0.1921,0.18053 0.180467,0.17467 -0.01167,-0.006 -0.3086,-0.14557 -0.3086,-0.14557 0,0 0.186333,0.198 0.180533,0.18633 -0.0058,-0.0117 -0.267867,-0.11643 -0.267867,-0.11643 l 0.01167,0.099 c 0,0 -0.209667,-0.0117 -0.209667,-0.1689 -0.104766,-0.0582 -0.174666,-0.13973 -0.174666,-0.13973 l -0.483267,-0.0815 -0.547333,-1.6362 0.1281,-2.7658 0.0349,-0.13977 -0.05827,-0.37267 z"
     id="path42"
     inkscape:connector-curvature="0"
     style="fill-rule:evenodd;stroke:#000000;stroke-width:0.03583334;stroke-linejoin:round;stroke-opacity:0.97899996" />
  <path
     d="m 17.9512,14.9584 c 0,0 -0.280333,-0.58993 -0.420133,-0.5982 -0.126134,-0.2404 0.438333,-2.20623 1.530233,-2.31833 0.600333,0.0495 0.04933,0.6921 -0.345333,0.49433 0.04927,0.173 0.246666,0.42017 0.246666,0.42017 0,0 -0.781266,0.33783 -1.011466,2.00206 z"
     id="path44"
     inkscape:connector-curvature="0"
     style="fill:#ffbb00;fill-rule:evenodd;stroke:#000000;stroke-width:0.03796667" />
  <path
     d="m 14.192433,15.0444 c 0,0 0.232,-0.67127 0.3729,-0.67953 0.140867,-0.008 -0.3729,-2.23754 -1.491666,-2.2541 -0.604934,0.0497 -0.04967,0.6961 0.348066,0.49723 -0.04967,0.174 -0.2486,0.42267 -0.2486,0.42267 0,0 0.787267,0.33973 1.019334,2.01373 z"
     id="path46"
     inkscape:connector-curvature="0"
     style="fill:#ffbb00;fill-rule:evenodd;stroke:#000000;stroke-width:0.02866666pt" />
  <path
     d="m 15.218667,10.85133 c -0.0027,-0.005 -0.277667,0.0863 -0.09967,0.3855 0.01343,-0.11593 0.137433,-0.186 0.137433,-0.186 0,0 -0.188666,0.22374 0.0108,0.41244 0.02423,-0.1779 0.137467,-0.2345 0.137467,-0.2345 0,0 -0.140133,0.41243 0.0027,0.496 0.01617,-0.16447 0.121334,-0.23724 0.121334,-0.23724 0,0 -0.126734,0.36934 -0.0135,0.4529 0.01347,-0.14016 0.107833,-0.2022 0.107833,-0.2022 0,0 -0.05667,0.38284 0.09167,0.40977 0.0027,-0.13477 0.1105,-0.26687 0.1105,-0.26687 0,0 -0.04853,0.31267 0.183333,0.3262 0.0027,-0.11866 0.04583,-0.25343 0.04583,-0.25343 0,0 0.105134,0.3316 0.258767,0.27767 -0.0027,-0.097 0.0027,-0.28034 0,-0.28034 -0.0027,0 0.09707,0.3154 0.280333,0.2561 -0.0269,-0.089 0.01083,-0.19413 0.01083,-0.19413 0,0 0.09707,0.1968 0.272333,0.1321 0.0296,-0.0593 -0.0082,-0.17523 -0.0082,-0.17523 0,0 0.256134,0.2642 0.334334,0.10513 0.07817,-0.15907 -0.204934,-0.213 -0.204934,-0.213 h 0.191434 c 0,0 -0.062,-0.16167 -0.320834,-0.19677 0.089,-0.0404 0.180667,-0.0108 0.180667,-0.0108 0,0 -0.05393,-0.20216 -0.318133,-0.22373 0.102466,-0.0351 0.215666,-0.0108 0.215666,-0.0108 0,0 -0.035,-0.19133 -0.326166,-0.24533 0.04587,-0.0512 0.169833,-0.035 0.169833,-0.035 0,0 -0.1159,-0.18067 -0.248,-0.16987 -0.1321,0.0108 -1.326333,-0.12133 -1.323667,-0.1186 z"
     id="path48"
     inkscape:connector-curvature="0"
     style="fill:#00713d;fill-rule:evenodd;stroke:#000000;stroke-width:0.02866666pt" />
  <path
     d="m 16.3966,11.82457 c 0,0 0.105133,0.0512 0.102433,0.0971 m -0.04023,-0.1805 c 0,0 0.1348,0.0943 0.1321,0.16444 m -0.0137,-0.21317 c 0,0 0.107833,0.0674 0.113233,0.17257 m 0.06737,-0.1293 c 0,0 0.05393,0.116 0.035,0.1375 m 0.07307,-0.0756 c 0.0081,0.0917 -0.0081,0.0997 -0.0081,0.0997 M 15.5366,11.218 c 0,0 0.126667,0.0808 0.115933,0.19407 m -0.123966,-0.0969 c 0,0 0.05933,0.0566 0.04583,0.0943 m 0.1107,-0.18867 c 0,0 0.08357,0.11594 0.0566,0.1968 m 0.08617,-0.1214 c 0,0 0.03773,0.0728 0.0027,0.11324 m 0.0647,-0.0783 c 0,0 0.04583,0.0728 0.0053,0.097 m -0.05637,0.14293 c 0,0 0.1186,0.027 0.1348,0.11594 m -0.06487,-0.19674 c 0,0 0.124,0.008 0.1375,0.14017 m 0.02703,-0.18607 c 0.0027,0 0.08357,0.14287 0.0701,0.18867 m 0.08903,-0.1752 c 0,0 0.03233,0.1375 0.0081,0.1806 m 0.09427,-0.1267 c 0,0.003 0.0027,0.159 0.0027,0.159 m -0.1589,-0.37457 c 0,0 0.07817,0.0297 0.07277,0.10514 m -2.34e-4,-0.17537 c 0,0 0.09973,0.0567 0.08893,0.16447 m 0.02717,-0.21004 c 0,0 0.08627,0.1024 0.0539,0.21567 m 0.0969,-0.1916 c 0,0 -0.0324,0.12667 -0.01893,0.17793 m 0.1106,-0.0916 c 0,0 -0.05657,0.0431 -0.02693,0.0971 m -0.4635,0.39626 c 0,0 0.01883,0.097 0,0.1132 m -0.124134,-0.16966 c 0,0 0.062,0.1078 0.0404,0.16173 m -0.172566,-0.16717 c 0,0 0.0701,0.0809 0.0674,0.14557 M 15.7605,11.73827 c 0,0 0.06467,0.062 0.05933,0.097 m -0.11583,-0.003 c 0,0 0.062,0.0647 0.05933,0.0782"
     id="path50"
     inkscape:connector-curvature="0"
     style="fill:none;stroke:#3ec26d;stroke-width:0.03583334;stroke-linecap:round" />
  <path
     d="m 14.363,7.407 0.8916,-0.0159 c 0,0 0.589133,0 0.652833,0.19107 0.111434,-0.25474 0.620934,-0.2388 0.620934,-0.2388 0.307866,-0.0106 0.615666,-0.0212 0.9235,-0.0318 l 0.016,2.2291 c -0.1805,0.8651 -0.806767,1.47544 -1.496734,1.7355 -0.822666,-0.2654 -1.342766,-0.96066 -1.5126,-1.75143 l -0.0955,-2.11767 z"
     id="path52"
     inkscape:connector-curvature="0"
     style="fill:#ffffff;fill-rule:evenodd;stroke:#000000;stroke-width:0.02866666pt" />
  <path
     d="M 14.6806,7.39867 15.9794,10.86 17.152733,7.3234 C 16.7888,7.3469 16.007833,7.2661 15.9108,7.5982 15.7607,7.30097 14.939133,7.4208 14.6806,7.3988 Z"
     id="path54"
     inkscape:connector-curvature="0"
     style="fill:#006b00;fill-rule:evenodd;stroke:#000000;stroke-width:0.02866666pt" />
  <path
     d="m 15.564667,9.27267 c 0.05,0.0261 0.0486,-0.93934 0.1142,-0.96934 0.01877,-0.0799 0.02817,-0.11493 0.05157,-0.19986 -0.05623,-0.0999 -0.309333,-0.0949 -0.403,-0.01 0.04213,0.13493 0.06087,0.1799 0.06087,0.1799 0.126533,0.20486 0.1014,1.0211 0.176333,0.99933 z"
     id="path56"
     inkscape:connector-curvature="0"
     style="fill:#ffc900;fill-rule:evenodd;stroke:#006b00;stroke-width:0.01976667;stroke-linecap:round" />
  <path
     d="m 15.216667,1.81033 c 0,0 0.09177,-0.10423 0.09593,-0.12923 0.0042,-0.025 0.417067,-0.0417 0.6631,-0.50047 0.137667,-0.24193 0,-0.10013 0,-0.10013 l -0.0083,-0.11677 c 0,0 0.171,-0.16266 0.1085,-0.25023 -0.06257,-0.0876 -0.04173,0.1126 -0.141834,0.10843 -0.100066,-0.004 -0.04587,-0.2169 -0.04587,-0.2169 0,0 -0.0083,-0.025 -0.03753,-0.0375 -0.04167,0.004 -0.0292,0.0792 -0.06673,0.0876 -0.0375,0.008 -0.07087,-0.17517 -0.07087,-0.17517 0,0 -0.06257,-0.0834 -0.1168,0.17933 0.0292,0.2794 0.208534,0.2252 0.208534,0.40867 0,0.1835 -0.1585,0.32533 -0.204334,0.32947 -0.0459,0.004 -0.02923,-0.15434 -0.02923,-0.15434 0,0 -0.025,-0.075 -0.04167,-0.075 -0.01667,0 0.09173,-0.0167 0.07507,-0.22523 -0.03757,-0.25023 -0.06673,0.0583 -0.133467,0.0459 -0.06673,-0.0125 -0.01667,-0.22934 0.0083,-0.2544 0.025,-0.0251 -0.0292,-0.12924 -0.175167,0.13766 -0.0125,0.12934 -0.0292,-0.0333 -0.05833,-0.025 -0.0501,0.10424 -0.04177,0.17934 0.02913,0.27524 0.104267,0.0959 0.171,0.19183 0.166833,0.24186 -0.0042,0.0501 -0.05833,0.16267 -0.133466,0.16267 -0.07513,0 0.0042,-0.13767 0,-0.1835 -0.0042,-0.0459 -0.129267,-0.21267 -0.129267,-0.21267 0,0 -0.0876,-0.14183 -0.07923,-0.146 0.0083,-0.004 -0.0083,-0.025 -0.05007,0.12094 -0.04173,0.14593 -0.09177,-0.0959 -0.09177,-0.0959 0,0 -0.05833,0.17933 0.06673,0.28766 -0.0959,-0.0125 -0.104267,0.0251 -0.104267,0.0251 0,0.0501 0.129333,0.0709 0.146,0.15847 0.01667,0.0876 -0.133467,0.13766 -0.133467,0.13766 0,0 0.06257,0.0876 0.237667,-0.0834 0.0042,0.10843 -0.06667,0.1835 -0.06667,0.1835 0.05833,0.0264 0.104234,0.0237 0.112567,0.0918 z"
     id="path58"
     inkscape:connector-curvature="0"
     style="fill:#cdad56;fill-rule:evenodd;stroke:#000000;stroke-width:0.03583334;stroke-linejoin:round" />
  <path
     d="m 14.6445,1.81033 c 0,0 -0.07793,-0.11566 -0.08147,-0.13846 -0.0035,-0.0228 -0.3834,0.0288 -0.563166,-0.4345 -0.116867,-0.2201 0,-0.0911 0,-0.0911 l 0.0071,-0.10623 c 0,0 -0.1244,-0.15217 -0.07127,-0.23184 0.05313,-0.0797 0.03127,0.10244 0.0996,0.10284 0.085,-0.004 0.03893,-0.19734 0.03893,-0.19734 0,0 0.0071,-0.0228 0.0319,-0.0342 0.0354,0.004 0.0498,0.118 0.08173,0.12556 0.03183,0.008 0.09767,-0.13433 0.118566,-0.16356 0.02917,-0.004 0.02807,-0.1176 0.07413,0.1215 -0.0248,0.25423 -0.235467,0.2049 -0.235467,0.37186 0,0.167 0.1346,0.296 0.173533,0.2998 0.039,0.004 0.0248,-0.1404 0.0248,-0.1404 0,0 0.02123,-0.0683 0.0354,-0.0683 0.0142,0 -0.123766,0.0265 -0.109666,-0.1632 0.03193,-0.17767 0.1026,0.0114 0.159266,0 0.05667,-0.0113 -0.0067,-0.18783 0.0096,-0.21477 0.0038,-0.027 0.08733,-0.14266 0.1196,0.11267 0.01067,0.11767 0.0748,-0.10123 0.0996,-0.0937 0.04253,0.0949 -0.0188,0.2216 -0.079,0.30887 -0.08853,0.0873 -0.128533,0.18293 -0.125,0.22847 0.0035,0.0455 0.02457,0.1021 0.08833,0.1021 0.06377,0 0.02147,-0.0793 0.025,-0.1211 0.0036,-0.0417 0.109833,-0.17684 0.109833,-0.17684 0.02087,-0.0333 0.0035,-0.0957 0.02567,-0.1245 0.03457,3.4e-4 0.04873,-0.0478 0.08417,0.085 0.0354,0.13287 0.0779,-0.0872 0.0779,-0.0872 0,0 0.0496,0.16317 -0.05667,0.26183 0.0815,-0.0113 0.08853,0.0228 0.08853,0.0228 0,0.0456 -0.03887,0.0646 -0.05307,0.14423 -0.01417,0.0797 0.04243,0.12524 0.04243,0.12524 0,0 -0.05313,0.0797 -0.2019,-0.0759 -0.0036,0.0987 0.05667,0.167 0.05667,0.167 -0.04957,0.024 -0.0885,0.0215 -0.09567,0.0835 z"
     id="path60"
     inkscape:connector-curvature="0"
     style="fill:#cdad56;fill-rule:evenodd;stroke:#000000;stroke-width:0.0315;stroke-linejoin:round" />
  <path
     d="M 16.9361,7.915 C 16.85843,7.8445 16.8492,7.906 16.810967,7.8903 c -0.01873,-0.008 -0.03343,-0.0254 -0.04967,-0.0413 -0.0142,-0.0146 -0.031,-0.0206 -0.04973,-0.0285 l -0.0212,0.0627 c -0.0071,0.0208 0.01967,0.0554 0.01907,0.0868 -0.0053,0.0465 -0.02427,0.0851 -0.08267,0.101 0.01667,-0.033 0.02607,-0.0346 0.021,-0.0749 -0.0025,-0.0201 -0.05883,-0.0558 -0.0519,-0.0749 0.01033,-0.0307 0.02793,-0.0661 0.01493,-0.0967 -0.024,0.0164 -0.05533,0.008 -0.07933,0.0178 -0.02013,0.009 -0.0215,0.0465 -0.04953,0.0621 -0.02877,0.0134 -0.09213,0.007 -0.145,-0.0233 0.03233,-0.0245 0.059,-0.008 0.09133,-0.0325 0.0162,-0.0123 0.01547,-0.0648 0.03167,-0.0771 0.0162,-0.0123 0.05483,-0.0253 0.071,-0.0376 -0.0145,-0.0166 -0.01373,-0.0428 -0.02827,-0.0593 -0.01457,-0.0166 -0.079,-0.013 -0.0936,-0.0296 -0.02907,-0.0331 -0.02353,-0.0767 -0.05267,-0.10983 0.07533,0.027 0.0644,0.0637 0.08327,0.0609 0.03567,-0.0171 0.07127,-0.0205 0.09,-0.0127 0.01867,0.008 0.05433,0.0544 0.073,0.0623 0.0071,-0.0209 0.01733,-0.0474 0.02443,-0.0683 0.0071,-0.0209 -0.03177,-0.0571 -0.02467,-0.078 0.0141,-0.0417 0.0492,-0.0786 0.06333,-0.12033 0.0051,0.0402 0.01177,0.0741 0.01683,0.11433 0.0025,0.0202 0.0421,0.0306 0.04467,0.0508 0.0025,0.0202 -0.02067,0.0669 -0.01817,0.087 0.02167,-0.004 0.0529,-0.001 0.0745,-0.006 0.0216,-0.004 0.036,-0.0546 0.05757,-0.0589 0.04323,-0.009 0.07433,-0.006 0.1184,0.002 -0.03233,0.0301 -0.05743,0.0281 -0.07767,0.0558 -0.0162,0.0122 0.0063,0.0527 -0.0405,0.0811 -0.01757,0.0102 -0.06373,-0.002 -0.0799,0.0102 l 0.0436,0.0497 c 0,0 0.07987,0.0243 0.0944,0.0408 0.02907,0.0332 0.04447,0.0727 0.0365,0.10823 z m -1.9972,0.0341 c 0.07767,-0.0705 0.08693,-0.009 0.125133,-0.0247 0.01873,-0.008 0.03343,-0.0254 0.04967,-0.0413 0.0142,-0.0146 0.031,-0.0206 0.04973,-0.0285 l 0.0212,0.0626 c 0,0 -0.01967,0.0554 -0.01907,0.0868 0.0053,0.0467 0.02427,0.0851 0.08267,0.10113 -0.01667,-0.033 -0.02607,-0.0347 -0.021,-0.0749 0.0025,-0.0201 0.05883,-0.0558 0.0519,-0.0749 -0.01033,-0.0306 -0.02793,-0.066 -0.01493,-0.0967 0.024,0.0164 0.05533,0.008 0.07933,0.0178 0.02013,0.009 0.0215,0.0465 0.04953,0.0621 0.02877,0.0135 0.09213,0.007 0.145,-0.0232 -0.03233,-0.0246 -0.059,-0.008 -0.09133,-0.0326 -0.0162,-0.0123 -0.01543,-0.0648 -0.0316,-0.077 -0.0162,-0.0123 -0.05493,-0.0253 -0.0711,-0.0377 0.01453,-0.0165 0.01373,-0.0428 0.02827,-0.0593 0.01457,-0.0165 0.079,-0.013 0.0936,-0.0295 0.02907,-0.0331 0.02353,-0.0767 0.0526,-0.10983 -0.07523,0.0271 -0.06433,0.0637 -0.08323,0.0609 -0.03567,-0.0171 -0.07123,-0.0205 -0.09,-0.0126 -0.01867,0.008 -0.05423,0.0544 -0.073,0.0623 -0.007,-0.0209 -0.01733,-0.0474 -0.0244,-0.0683 -0.0071,-0.0209 0.03177,-0.057 0.02467,-0.0779 -0.0141,-0.0418 -0.0492,-0.0787 -0.06333,-0.12043 -0.0051,0.0403 -0.01177,0.0741 -0.01683,0.11433 -0.0025,0.0202 -0.04213,0.0307 -0.04467,0.0508 -0.0025,0.0201 0.02067,0.0668 0.01817,0.087 -0.02167,-0.004 -0.0529,-10e-4 -0.0745,-0.006 -0.0216,-0.004 -0.036,-0.0546 -0.0576,-0.0589 -0.04323,-0.009 -0.07433,-0.006 -0.1184,0.002 0.03233,0.0301 0.05747,0.0281 0.07773,0.0558 0.01617,0.0123 -0.0063,0.0527 0.04043,0.0811 0.01753,0.0102 0.06377,-0.002 0.07993,0.0102 l -0.04367,0.0497 c -0.0145,0.0165 -0.0798,0.0243 -0.09433,0.0408 -0.0291,0.0331 -0.0445,0.0727 -0.03653,0.1082 z"
     id="path62"
     inkscape:connector-curvature="0"
     style="fill:#ffc900;fill-rule:evenodd;stroke-width:0.03333334" />
  <path
     d="m 16.866433,8.138 c -0.07033,0.055 -0.5249,0.16987 -0.529566,0.5646 -0.0047,0.39473 0.07967,0.48467 -0.0047,0.49467 -0.164067,0 -0.1875,-0.43967 -0.1828,-0.63454 0.0047,-0.1949 0.0093,-0.1649 0.0093,-0.1649 0,0 0.112467,0.03 0.103134,0.12494 -0.0093,0.0949 0.112466,-0.23484 0.07033,-0.3248 0.07493,0.0749 0.173333,0.0449 0.173333,0.0399 0,-0.005 -0.0562,-0.0649 -0.07967,-0.1099 -0.0234,-0.045 0.0844,0.025 0.0844,0.025 0,0 0.0047,-0.0749 -0.08907,-0.07 -0.121833,0 0.01877,-0.0399 0.01877,-0.0399 0,0 0.07027,0.0649 0.117133,-0.005 -0.05157,-0.0549 -0.126533,-0.0849 -0.126533,-0.0849 0,0 -0.06567,-0.1249 -0.154667,-0.14986 -0.1031,-0.025 -0.08907,0.0449 -0.206233,0.035 -0.02333,0.0449 -0.02333,0.0499 0.0235,0.0649 -0.07967,0.055 -0.0375,0.1649 -0.0375,0.1649 0,0 0.126533,-0.055 0.121833,0.035 -0.0047,0.0899 -0.075,0.0749 -0.121833,0.02 -0.04217,-0.025 -0.05623,0.0249 -0.05623,0.0249 l 0.0656,0.0699 c 0,0 -0.126533,-0.005 -0.159333,0.08 0.07033,-0.005 0.107833,0.015 0.107833,0.015 0,0 -0.145333,0.0649 -0.1594,0.0999 -0.014,0.035 -0.01867,-0.04 -0.0234,-0.04 -0.0047,0 -0.140566,-0.0499 -0.140566,-0.0499 l -0.04693,0.21607 c 0,0 0.0938,0.0937 0.145334,0.0637 0.0516,-0.03 0.145333,-0.1199 0.201533,-0.0949 -0.164,0.12493 -0.328,0.3048 -0.417067,0.3298 -0.02343,-0.02 -0.1031,-0.0999 -0.1359,-0.06 -0.03277,0.04 -0.0093,0.09 0.03283,0.085 0.04217,-0.005 -0.1359,0.0399 -0.0984,0.11487 0.0375,0.075 0.0328,0.07 0.0656,0.05 0.03283,-0.02 -0.02807,-0.025 0.09377,-0.06 0.121834,-0.0349 0.117134,-0.0699 0.117134,-0.0699 0,0 -0.0234,0.055 -0.089,0.07 -0.0656,0.015 -0.1172,0.015 -0.1031,0.0349 0.014,0.02 0.04213,0.055 0.03277,0.075 -0.0093,0.0199 0.135934,-0.105 0.173434,-0.005 0.09843,-0.005 0.164,-0.12494 0.117133,-0.1949 0.0047,0.0749 0.05157,0.0999 0.02343,0.1349 -0.02813,0.035 0.220267,-0.11494 0.0984,-0.20487 0.03283,0.075 0.03747,0.1349 0.03747,0.1349 0,0 0.05627,-0.005 0.07033,-0.025 0.014,-0.02 -0.02813,0.055 -0.0093,0.07 0.01867,0.015 0.107733,0.0999 0.07023,0.1599 -0.02333,-0.035 -0.02807,-0.09 -0.05617,-0.085 -0.02817,0.005 -0.145334,0.09 -0.2156,0.095 -0.07027,0.005 0.08433,0.2598 0.08433,0.2598 0,0 -0.1078,-0.015 -0.1218,-0.005 -0.01407,0.01 -0.08433,-0.0899 -0.09843,-0.03 -0.02347,0.075 0.0234,0.045 0.0234,0.045 0,0 -0.0609,-0.03 -0.09367,0.005 -0.03283,0.035 -0.06567,0.0699 -0.04223,0.0849 0.02343,0.015 0.126566,0.015 0.1406,0.01 0.01403,-0.005 -0.117167,0.01 -0.126534,0.025 -0.0094,0.015 -0.0281,0.07 0,0.09 0.0281,0.02 0.09843,-0.01 0.1031,-0.025 0.0047,-0.015 0.0094,0.055 0.0094,0.055 0,0 0.121834,0.01 0.121834,-0.115 0,-0.12493 0.0094,0.09 0.0094,0.09 0,0 0.1218,0.0199 0.126466,-0.105 0.0047,-0.12493 0.01407,0.085 0.01407,0.085 0,0 0.07967,-0.025 0.07967,-0.045 0,-0.02 -0.0047,0.24983 -0.0609,0.3248 -0.0891,-0.06 -0.145334,0.0399 -0.145334,0.0399 0,0 0.0047,0.14494 -0.0047,0.1799 -0.0093,0.0349 0.0609,-0.02 0.0656,-0.035 0.0047,-0.015 0.089,-0.055 0.09373,-0.065 l 0.0281,-0.0599 c 0,0 -0.01877,0.0699 -0.05153,0.0799 -0.03277,0.01 -0.06567,0.045 -0.0516,0.075 0.01407,0.0299 0.06567,0.0499 0.08433,0.0799 0.01877,0.03 0.08433,-0.17486 0.08433,-0.17486 l 0.0047,0.045 c 0,0 0.08433,-0.02 0.09373,-0.06 0.0093,-0.0399 -0.089,-0.0749 -0.0093,-0.13987 0.07967,-0.0649 0,0.06 0,0.06 0,0 0.02807,0.0949 0.04683,0.0949 0.01877,0 0.06553,-0.17983 0.01867,-0.22483 -0.04683,-0.0449 0.07033,0.055 0.07033,0.055 0,0 0.06567,-0.18487 -0.0047,-0.20987 -0.07033,-0.025 -0.103133,-0.035 -0.103133,-0.035 0,0 0.0375,-0.05 0.01877,-0.055 -0.01873,-0.005 0.09833,0.11 0.1171,0.08 0.01877,-0.03 0.0469,-0.12 -0.089,-0.1699 -0.135934,-0.05 -0.0047,-0.1899 -0.0047,-0.1899 0,0 0.08433,0.0999 0.145267,0.045 0.06093,-0.055 -0.0047,-0.055 -0.0047,-0.055 0,0 0.1734,-0.10987 0.178067,-0.16487 -0.0328,-0.005 -0.089,0.005 -0.089,0.005 0,0 0.0984,-0.0649 0.075,-0.16986 -0.03753,0.0549 -0.0891,0.055 -0.0891,0.055 0,0 0.08433,-0.085 0.07027,-0.16494 -0.05153,0.04 -0.04687,0.0699 -0.07967,0.06 -0.0328,-0.01 -0.089,-0.3248 0.04217,-0.34483 0.131234,-0.0199 0.06093,0.155 0.06567,0.155 0.0047,0 0.1968,-0.08 0,-0.2099 0.04683,-0.015 0.145233,0.075 0.145233,0.075 0,0 -0.04217,-0.21993 -0.253066,-0.085 0.05157,-0.0549 0.08433,-0.0899 0.126533,-0.0799 0.0422,0.01 0.1922,-0.005 0.1922,-0.05 -0.0375,-0.03 -0.1172,0.015 -0.1594,0 -0.04217,-0.015 0.299933,-0.04 0.271833,-0.2098 z"
     id="path64"
     inkscape:connector-curvature="0"
     style="fill:#ffc900;fill-rule:evenodd;stroke:#006b00;stroke-width:0.01976667;stroke-linecap:round;stroke-linejoin:round" />
  <path
     d="m 15.390933,8.313 c 0,0 0.187788,-0.10717 0.281674,0.0255 m 0.07513,0.20417 c -0.0047,0 -0.06572,0.0663 -0.07981,0.0663 m 0.206617,0.148 c 0,0 0.173696,0.0153 0.286365,-0.1735"
     id="path66"
     inkscape:connector-curvature="0"
     style="fill:none;stroke:#006b00;stroke-width:0.01998263;stroke-linecap:round" />
  <path
     d="m 16.062227,8.70083 c 0,0 0.01411,0.10205 0.04226,0.10205 0.02815,0 -0.04695,0.0255 -0.07513,0.005 0.03288,0.0459 0.05167,0.12757 0,0.15817"
     id="path68"
     inkscape:connector-curvature="0"
     style="fill:none;stroke:#006b00;stroke-width:0.01998263;stroke-linecap:round" />
  <path
     d="m 15.972987,9.98683 c 0,0 -0.06103,0.0714 -0.13616,0.0765"
     id="path70"
     inkscape:connector-curvature="0"
     style="fill:#e80000;fill-rule:evenodd;stroke:#006b00;stroke-width:0.01998263;stroke-linecap:round" />
  <path
     d="m 16.04352,9.66017 c 0,0 -0.03757,-0.20412 -0.01411,-0.25517 0.01411,-0.0663 0.07513,-0.0918 0.122084,-0.17858 m -0.126837,0.28575 c 0,0 -0.04695,0.12246 -0.253506,0.0817 m 0.309933,-0.38783 c 0,0 0.01411,0.16328 -0.173696,0.10205 m -0.05646,-0.83672 c 0,0 -0.07513,0.0714 -0.04695,0.1684"
     id="path72"
     inkscape:connector-curvature="0"
     style="fill:none;stroke:#006b00;stroke-width:0.01998263;stroke-linecap:round" />
  <path
     d="m 16.1244,8.2532 c 0,0 0.0985,-0.04 0.117233,-0.06 0.01873,-0.02 0.05157,-0.06 0.06093,-0.09 0.0094,-0.03 -0.06567,-0.075 -0.02813,-0.14 0.02347,-0.03 0.05627,-0.035 0.112567,0 0.05633,0.035 -0.05157,-0.11 -0.107833,-0.115 -0.05627,-0.005 -0.0938,0.04 -0.107867,0.03 -0.0141,-0.01 0.0047,0.04 -0.0188,0.04 -0.02347,0 0.0469,0.04 0.04223,0.065 -0.0047,0.025 0.075,0.11 0.07033,0.13 -0.0047,0.02 -0.117234,0.135 -0.140667,0.14 z"
     id="path74"
     inkscape:connector-curvature="0"
     style="fill:#006b00;fill-rule:evenodd;stroke-width:0.03333334" />
  <path
     d="m 16.20314,7.95587 c 0.04284,-0.0106 0.04973,0.001 0.04224,0.0408 -0.02009,-0.011 -0.02745,-0.0203 -0.04224,-0.0408 z"
     id="path76"
     inkscape:connector-curvature="0"
     style="fill:#ffc900;fill-rule:evenodd;stroke:#ffc900;stroke-width:0.01998263;stroke-linecap:round;stroke-linejoin:round" />
  <path
     d="m 15.90322,10.22933 c 0,0 -0.01584,0.10684 0.02285,0.11577 -0.0019,-0.0413 0.0082,-0.0696 0.01774,-0.0806 -0.0082,-0.004 -0.03867,-0.0345 -0.04059,-0.0352 z m -0.08709,-0.1315 c -0.03551,-0.005 -0.09553,0.0265 -0.07828,0.0652 0.02883,-0.027 0.0556,0.002 0.07575,-0.0253 0.0062,-0.008 0.0044,-0.0302 0.0025,-0.0399 z m -3.07e-4,-0.0763 c 0,0 -0.05597,-0.01 -0.06374,0.0325 0.03864,-0.005 0.0502,-0.01 0.06302,-10e-4 0.0037,-0.009 1.08e-4,-0.0294 7.21e-4,-0.0315 z"
     id="path78"
     inkscape:connector-curvature="0"
     style="fill:#e80000;fill-rule:evenodd;stroke:#006b00;stroke-width:0.01998263;stroke-linejoin:round" />
  <path
     d="m 15.578613,9.41967 c 0,0 0.03358,0.0138 0.04309,0.051 0.02663,-0.0179 0.03933,-0.0972 -0.04309,-0.051 z m -0.08311,0.0908 c 0.0013,-6.7e-4 0.07038,-0.0462 0.07736,-0.003 -0.0146,0.0158 -0.02093,0.0262 -0.03235,0.0296 -0.0089,0 -0.02662,-0.0296 -0.045,-0.0269 z m -0.0069,0.1475 c 0.0013,-7e-4 0.04437,-0.042 0.06087,-0.0145 0.01647,0.0276 -0.01334,0.0262 -0.01334,0.0262 0,0 -0.01521,-0.008 -0.04753,-0.0117 z m -0.06087,-0.82133 c -6.13e-4,0 -0.05515,-0.0227 -0.07797,0.0186 0.03614,0.005 0.04882,0.0186 0.06529,0.0324 -0.0044,-0.0172 -0.01204,-0.0434 0.01268,-0.051 z m -0.1058,0.30933 c 0,0 0.0025,-0.0696 0.03297,-0.0978 0.01711,0.0103 0.02217,0.0268 0.03358,0.0475 -0.0228,0.005 -0.05324,0.007 -0.06655,0.0503 z M 15.4676,9.09627 c 0,0 -0.06023,0.0303 -0.04057,0.0634 0.01966,-0.0227 0.04122,-0.0158 0.04122,-0.0165 0,-7e-4 0,-0.0462 -6.44e-4,-0.0469 z"
     id="path80"
     inkscape:connector-curvature="0"
     style="fill:#e80000;fill-rule:evenodd;stroke:#006b00;stroke-width:0.01598611pt;stroke-linejoin:round" />
  <path
     d="m 15.380813,8.43067 c -0.02156,0.0262 0.02662,0.0834 0.07734,0.0751 0.01268,-0.062 -0.06466,-0.0944 -0.07734,-0.0751 z"
     id="path82"
     inkscape:connector-curvature="0"
     style="fill:#ffc900;fill-rule:evenodd;stroke:#006b00;stroke-width:0.01598611pt;stroke-linejoin:round" />
  <path
     d="m 15.372767,8.271 c -0.01057,0.0286 0.03143,0.0687 0.05573,0.0573 0.0099,-0.0292 -0.04477,-0.0801 -0.05573,-0.0573 z"
     id="path84"
     inkscape:connector-curvature="0"
     style="fill:none;stroke-width:0.03333334" />
  <path
     d="m 15.436627,8.38317 c 0,0 0.0095,0.0489 0.05325,0.0358 -0.007,-0.0379 -0.03741,-0.0662 -0.03741,-0.0662 -0.0019,0.0111 0.0063,0.0283 -0.01584,0.0303 z m 0.02913,0.142 c 0,0 0.02407,0.0283 0.07164,-0.0296 -0.02154,0.007 -0.05959,-0.0138 -0.05959,-0.0138 0,0 0,0.04 -0.01205,0.0434 z"
     id="path86"
     inkscape:connector-curvature="0"
     style="fill:#e80000;fill-rule:evenodd;stroke:#006b00;stroke-width:0.01598611pt;stroke-linejoin:round" />
  <path
     d="m 15.378053,8.31833 c -0.02156,0.0262 0.0089,0.0627 0.05965,0.0544 0.0127,-0.062 -0.04697,-0.0737 -0.05965,-0.0544 z"
     id="path88"
     inkscape:connector-curvature="0"
     style="fill:#ffc900;fill-rule:evenodd;stroke:#006b00;stroke-width:0.01598611pt;stroke-linejoin:round" />
  <path
     d="m 15.388107,8.03311 c 0,0 0.201727,-0.0576 0.30874,0.0288 0.107012,0.0864 0.10707,0.008 0.10707,0.008 0,0 0.156434,0.0576 0.201727,0.0453 0.04529,-0.0123 -0.03291,0.004 0.02884,-0.033 0.06175,-0.037 -0.123554,0.008 -0.13998,-0.07 -0.02884,-0.0494 0.0041,-0.11117 -0.06175,-0.0906 -0.04529,-0.0576 0.02884,-0.0988 0.01233,-0.16054 -0.04524,0.0329 -0.06995,-0.0124 -0.107013,0.07 -0.08643,-0.0164 -0.01233,-0.13588 -0.107041,-0.14821 0,0.0865 -0.07,0.0906 -0.0741,0.13998 -0.04117,0.0288 -0.22231,0.13588 -0.16879,0.20999 z"
     id="path90"
     style="fill:url(#d);fill-rule:evenodd;stroke-width:0.02866667"
     inkscape:connector-curvature="0" />
  <path
     d="m 13.066233,14.59667 c 0.130867,-0.0317 0.8401,0.15653 1.1135,0.44966 -0.058,-0.52206 -0.202666,-0.922 -0.202666,-0.922 0,0 -0.422667,-0.1206 -0.480667,-0.0626 -0.08507,0.0896 -0.340667,0.3581 -0.430167,0.53486 z M 12.85,12.1852 c -0.04967,0.008 -0.09943,0.0414 -0.149133,0.12433 -0.058,0.14084 -0.09947,0.49717 -0.182334,0.58007 -0.08287,0.0829 -0.157466,0.0911 -0.157466,0.16573 0,0.0746 0.0083,0.2486 0.232066,0.3149 0.223734,0.008 0.5801,-0.35633 0.5801,-0.35633 0,0 0.182334,-0.1989 0.256867,-0.41433 -0.4309,0.14913 -0.737533,-0.24867 -0.580067,-0.41434 z"
     id="path92"
     inkscape:connector-curvature="0"
     style="fill:#c01500;fill-rule:evenodd;stroke:#000000;stroke-width:0.02866666pt" />
  <path
     d="M 19.082333,14.5135 C 18.9525,14.4821 18.2351,14.66917 17.9638,14.9606 c 0.0576,-0.519 0.201133,-0.91667 0.201133,-0.91667 0.05007,-0.0137 0.4148,-0.11986 0.4724,-0.0622 0.08443,0.0891 0.3562,0.356 0.445,0.53173 z m 0.201,-2.3974 c 0.04933,0.008 0.0668,0.0731 0.107067,0.15543 0.05753,0.14 0.116867,0.34407 0.199133,0.42644 0.0822,0.0824 0.156234,0.20443 0.156234,0.2786 0,0.0741 -0.01733,0.17433 -0.239334,0.2402 -0.222066,0.008 -0.5438,-0.27684 -0.5438,-0.27684 0,0 -0.180933,-0.1978 -0.255,-0.412 0.427667,0.14834 0.7046,-0.2335 0.575667,-0.4119 z"
     id="path94"
     inkscape:connector-curvature="0"
     style="fill:#c01500;fill-rule:evenodd;stroke:#000000;stroke-width:0.03796667" />
  <path
     d="m 12.601433,14.1411 c 0,0 0.447467,0.30667 0.4558,0.4475 1.201667,-1.78173 4.267867,-2.337 6.016534,-0.12433 0.232,-0.3066 0.472333,-0.406 0.472333,-0.406 -1.839767,-2.40344 -5.5028,-2.105 -6.944733,0.0828 z"
     id="path96"
     inkscape:connector-curvature="0"
     style="fill:#ffbb00;fill-rule:evenodd;stroke:#000000;stroke-width:0.02866666pt" />
  <g
     id="g104"
     transform="scale(0.03333333)"
     style="fill:#1e5aa6;fill-rule:evenodd;stroke:#000000">
    <path
       d="m 514.93,219.86 5.258,-0.124 -9.39,11.893 11.27,13.145 -22.162,27.92 20.91,25.166 c -2.296,5.635 -4.968,10.77 -8.515,15.4 l -12.018,-13.27 21.785,-27.17 -17.904,-20.282 10.767,-32.677 z m -75.12,2.376 -5.634,0.125 10.516,11.394 -11.143,13.898 23.16,25.165 -19.155,25.666 c 2.296,5.634 5.593,11.894 9.14,16.526 l 11.393,-14.4 -23.412,-26.04 17.152,-21.785 -12.02,-30.55 z"
       id="path98"
       inkscape:connector-curvature="0"
       style="stroke-width:1.14699996" />
    <path
       d="m 465.85,289.844 -8.263,11.018 29.548,34.18 c 5.217,-2.63 9.307,-5.634 13.772,-9.265 l -15.4,-17.78 6.26,-18.404 9.015,10.392 -28.17,35.933 c -4.716,-2.003 -9.933,-5.133 -14.65,-9.015 l 14.9,-18.905 -7.01,-18.154 z m -9.14,-17.152 5.385,6.76 -3.505,-9.14 z"
       id="path100"
       inkscape:connector-curvature="0"
       style="stroke-width:1.14699996" />
    <path
       d="m 495.274,278.673 c 0.118,-0.125 4.345,-5.76 4.345,-5.76 l -1.645,-2.253 z"
       id="path102"
       inkscape:connector-curvature="0"
       style="stroke-width:1.11099994" />
  </g>
  <text
     font-weight="bold"
     transform="rotate(-49.253836)"
     font-size="14"
     y="19.13596"
     x="-2.3477132"
     id="text108"
     style="font-weight:bold;font-size:0.40038261px;font-family:Timmons;stroke-width:0.02859876">
    <tspan
       y="19.13596"
       x="-2.3477132"
       id="tspan106"
       style="stroke-width:0.02859876">L</tspan>
  </text>
  <text
     font-weight="bold"
     transform="rotate(-45)"
     font-size="14"
     y="19.093983"
     x="-0.59471428"
     id="text112"
     style="font-weight:bold;font-size:0.39597979px;font-family:Timmons;stroke-width:0.02828427">
    <tspan
       y="19.093983"
       x="-0.59471428"
       id="tspan110"
       style="stroke-width:0.02828427">E</tspan>
  </text>
  <text
     font-weight="bold"
     transform="matrix(0.80995314,-0.57678482,0.61360087,0.79768113,0,0)"
     font-size="14"
     y="19.06889"
     x="2.2155635"
     id="text116"
     style="font-weight:bold;font-size:0.3802689px;font-family:Timmons;stroke-width:0.02716207">
    <tspan
       y="19.06889"
       x="2.2155635"
       id="tspan114"
       style="stroke-width:0.02716207">O</tspan>
  </text>
  <text
     font-weight="bold"
     transform="rotate(-34.438989)"
     font-size="14"
     y="18.843939"
     x="3.7175024"
     id="text120"
     style="font-weight:bold;font-size:0.39608976px;font-family:Timmons;stroke-width:0.02829213">
    <tspan
       y="18.843939"
       x="3.7175024"
       id="tspan118"
       style="stroke-width:0.02829213">T</tspan>
  </text>
  <text
     font-weight="bold"
     transform="rotate(-25.377744)"
     font-size="14"
     y="18.162842"
     x="6.6687217"
     id="text124"
     style="font-weight:bold;font-size:0.40287688px;font-family:Timmons;stroke-width:0.02877692">
    <tspan
       y="18.162842"
       x="6.6687217"
       id="tspan122"
       style="stroke-width:0.02877692">E</tspan>
  </text>
  <text
     font-weight="bold"
     transform="rotate(-23.629378)"
     font-size="14"
     y="18.050276"
     x="7.4041352"
     id="text128"
     style="font-weight:bold;font-size:0.40749913px;font-family:Timmons;stroke-width:0.02910708">
    <tspan
       y="18.050276"
       x="7.4041352"
       id="tspan126"
       style="stroke-width:0.02910708">R</tspan>
  </text>
  <text
     font-weight="bold"
     transform="rotate(-21.801409)"
     font-size="14"
     y="17.604874"
     x="8.3297253"
     id="text132"
     style="font-weight:bold;font-size:0.40209231px;font-family:Timmons;stroke-width:0.02872088">
    <tspan
       y="17.604874"
       x="8.3297253"
       id="tspan130"
       style="stroke-width:0.02872088">R</tspan>
  </text>
  <text
     font-weight="bold"
     transform="rotate(-4.6533516)"
     font-size="14"
     y="14.118776"
     x="14.395382"
     id="text136"
     style="font-weight:bold;font-size:0.40266061px;font-family:Timmons;stroke-width:0.02876147">
    <tspan
       y="14.118776"
       x="14.395382"
       id="tspan134"
       style="stroke-width:0.02876147">R</tspan>
  </text>
  <text
     font-weight="bold"
     font-size="14"
     y="12.73941"
     x="16.408783"
     id="text140"
     style="font-weight:bold;font-size:0.40133333px;font-family:Timmons;stroke-width:0.02866667">
    <tspan
       y="12.73941"
       x="16.408783"
       id="tspan138"
       style="stroke-width:0.02866667">R</tspan>
  </text>
  <text
     font-weight="bold"
     transform="rotate(29.827085)"
     font-size="14"
     y="2.6776135"
     x="21.899332"
     id="text144"
     style="font-weight:bold;font-size:0.40344405px;font-family:Timmons;stroke-width:0.02881743">
    <tspan
       y="2.6776135"
       x="21.899332"
       id="tspan142"
       style="stroke-width:0.02881743">R</tspan>
  </text>
  <text
     font-weight="bold"
     transform="rotate(39.805571)"
     font-size="14"
     y="-1.3690724"
     x="22.74338"
     id="text148"
     style="font-weight:bold;font-size:0.40092614px;font-family:Timmons;stroke-width:0.02863758">
    <tspan
       y="-1.3690724"
       x="22.74338"
       id="tspan146"
       style="stroke-width:0.02863758">E</tspan>
  </text>
  <text
     font-weight="bold"
     transform="matrix(0.99104919,0.19104563,-0.15522457,0.97910884,0,0)"
     font-size="14"
     y="9.7969437"
     x="19.697456"
     id="text152"
     style="font-weight:bold;font-size:0.39083159px;font-family:Timmons;stroke-width:0.02791654">
    <tspan
       y="9.7969437"
       x="19.697456"
       id="tspan150"
       style="stroke-width:0.02791654">O</tspan>
  </text>
  <text
     font-weight="bold"
     transform="matrix(0.95491912,-0.12242553,0.14691063,1.0283744,0,0)"
     font-size="14"
     y="14.253552"
     x="14.364493"
     id="text156"
     style="font-weight:bold;font-size:0.38118413px;font-family:Timmons;stroke-width:0.02722744">
    <tspan
       y="14.253552"
       x="14.364493"
       id="tspan154"
       style="stroke-width:0.02722744">O</tspan>
  </text>
  <text
     font-weight="bold"
     transform="rotate(-20.556045)"
     font-size="14"
     y="17.294786"
     x="9.0878248"
     id="text160"
     style="font-weight:bold;font-size:0.39872018px;font-family:Timmons;stroke-width:0.02848001">
    <tspan
       y="17.294786"
       x="9.0878248"
       id="tspan158"
       style="stroke-width:0.02848001">A</tspan>
  </text>
  <text
     font-weight="bold"
     transform="rotate(45)"
     font-size="14"
     y="-3.5803347"
     x="22.886463"
     id="text164"
     style="font-weight:bold;font-size:0.39597979px;font-family:Timmons;stroke-width:0.02828427">
    <tspan
       y="-3.5803347"
       x="22.886463"
       id="tspan162"
       style="stroke-width:0.02828427">A</tspan>
  </text>
  <text
     font-weight="bold"
     transform="rotate(11.441044)"
     font-size="14"
     y="9.2449846"
     x="18.843504"
     id="text168"
     style="font-weight:bold;font-size:0.39994723px;font-family:Timmons;stroke-width:0.02856766">
    <tspan
       y="9.2449846"
       x="18.843504"
       id="tspan166"
       style="stroke-width:0.02856766">A</tspan>
  </text>
  <text
     font-weight="bold"
     transform="rotate(-10.660348)"
     font-size="14"
     y="15.585849"
     x="12.138674"
     id="text172"
     style="font-weight:bold;font-size:0.40363294px;font-family:Timmons;stroke-width:0.02883093">
    <tspan
       y="15.585849"
       x="12.138674"
       id="tspan170"
       style="stroke-width:0.02883093">M</tspan>
  </text>
  <text
     font-weight="bold"
     transform="rotate(-6.6325146)"
     font-size="14"
     y="14.617369"
     x="13.84725"
     id="text176"
     style="font-weight:bold;font-size:0.40403742px;font-family:Timmons;stroke-width:0.02885981">
    <tspan
       y="14.617369"
       x="13.84725"
       id="tspan174"
       style="stroke-width:0.02885981">P</tspan>
  </text>
  <text
     font-weight="bold"
     font-size="14"
     y="12.934723"
     x="15.68819"
     id="text180"
     style="font-weight:bold;font-size:0.40133333px;font-family:Timmons;stroke-width:0.02866667">
    <tspan
       y="12.934723"
       x="15.68819"
       id="tspan178"
       style="stroke-width:0.02866667">P</tspan>
  </text>
  <text
     font-weight="bold"
     transform="rotate(29.248826)"
     font-size="14"
     y="2.7745473"
     x="21.607908"
     id="text184"
     style="font-weight:bold;font-size:0.40114337px;font-family:Timmons;stroke-width:0.0286531">
    <tspan
       y="2.7745473"
       x="21.607908"
       id="tspan182"
       style="stroke-width:0.0286531">P</tspan>
  </text>
  <text
     font-weight="bold"
     transform="rotate(6.7098368)"
     font-size="14"
     y="10.764637"
     x="17.832277"
     id="text188"
     style="font-weight:bold;font-size:0.39940232px;font-family:Timmons;stroke-width:0.02852874">
    <tspan
       y="10.764637"
       x="17.832277"
       id="tspan186"
       style="stroke-width:0.02852874">I</tspan>
  </text>
  <text
     font-weight="bold"
     transform="rotate(46.397181)"
     font-size="14"
     y="-4.0414429"
     x="23.417114"
     id="text192"
     style="font-weight:bold;font-size:0.40599999px;font-family:Timmons;stroke-width:0.029">
    <tspan
       y="-4.0414429"
       x="23.417114"
       id="tspan190"
       style="stroke-width:0.029">T</tspan>
  </text>
  <text
     font-weight="bold"
     transform="rotate(36.607075)"
     font-size="14"
     y="-0.039306656"
     x="22.74896"
     id="text196"
     style="font-weight:bold;font-size:0.40693763px;font-family:Timmons;stroke-width:0.02906697">
    <tspan
       y="-0.039306656"
       x="22.74896"
       id="tspan194"
       style="stroke-width:0.02906697">T</tspan>
  </text>
  <text
     font-weight="bold"
     transform="rotate(16.127576)"
     font-size="14"
     y="7.6762862"
     x="19.943533"
     id="text200"
     style="font-weight:bold;font-size:0.40320107px;font-family:Timmons;stroke-width:0.02880008">
    <tspan
       y="7.6762862"
       x="19.943533"
       id="tspan198"
       style="stroke-width:0.02880008">M</tspan>
  </text>
  <text
     font-weight="bold"
     transform="rotate(47.815557)"
     font-size="14"
     y="-4.5201612"
     x="22.628189"
     id="text204"
     style="font-weight:bold;font-size:0.40306604px;font-family:Timmons;stroke-width:0.02879043">
    <tspan
       y="-4.5201612"
       x="22.628189"
       id="tspan202"
       style="stroke-width:0.02879043">G</tspan>
  </text>
  <path
     d="m 18.579267,6.15027 c 0,0 0.172933,-0.14824 0.296466,-0.15234 m -0.2715,0.13174 c 0.0041,-0.004 1.033434,-0.14824 1.066334,-0.18117 M 18.608233,6.138 C 18.612333,6.134 19.7611,6.0391 19.7611,6.0391 m -1.156867,0.10287 c 0,0 1.222834,-0.0577 1.296934,0.004 m -1.301234,-0.008 c 0,0 1.198134,0.008 1.218734,0.037 m -1.214434,-0.037 1.1528,0.0947 M 18.5919,6.14627 c 0.0041,0 1.173433,0.10293 1.288667,0.25113 m 0.06153,0.20983 c -0.0041,-0.004 -0.399333,-0.4735 -1.3546,-0.46526 m 0.0044,0.008 c 0,0 0.662867,0.0453 0.872867,0.27586 M 18.604233,6.142 c 0,0 0.428167,-0.0823 0.877,0.457"
     id="path206"
     inkscape:connector-curvature="0"
     style="fill:none;stroke:#fff700;stroke-width:0.02866666pt;stroke-linecap:round" />
  <path
     d="m 18.334467,6.63188 c 0,0 0.593916,0.0233 0.593916,0.0815 0,0.0582 -0.442528,0.16884 -0.448347,0.41343 -0.0058,0.24453 0.337693,0.26201 0.360999,0.57061 0.02333,0.30865 -0.267804,0.35518 -0.326054,0.43674 -0.05819,0.0408 -0.197972,0.47747 -0.180486,0.73366 0.01749,0.25622 0.09317,1.12382 0.22704,1.29849 0.104863,0.0815 0.262071,0.34354 0.430918,0.26201 0.168846,-0.0815 0.0524,-0.37846 0.03497,-0.45999 -0.01743,-0.0815 0.06983,-0.21545 0.06983,-0.33769 0,-0.12232 -0.06404,-0.22131 -0.05819,-0.2504 0.0058,-0.0291 0.471624,0.11065 0.442498,0.57064 -0.0291,0.45995 -0.21543,0.3202 -0.21543,0.3202 0,0 0.05819,0.56482 -0.08738,0.6405 -0.262013,0.13975 -0.454166,-0.0291 -0.454166,-0.0291 l 0.0246,0.11486 -0.199319,-0.1032 c 0,0 -0.256194,-0.36687 -0.314416,-0.5299 -0.05822,-0.16303 -0.12814,-0.89087 -0.104805,-1.04805 0.02331,-0.15727 0.04076,-1.0773 0.02913,-1.12385 -0.01164,-0.0466 -0.05819,-0.81517 -0.0291,-0.93167 0.02913,-0.11638 0.20964,-0.62883 0.20382,-0.62883 z"
     id="path208"
     style="fill:url(#e);fill-rule:evenodd;stroke:#000000;stroke-width:0.02866667pt"
     inkscape:connector-curvature="0" />
  <path
     d="m 17.694067,6.48053 c 0,0 0.4134,-0.40176 0.652133,-0.3552 0.122267,0 0.0058,0.0873 0.0058,0.0873 0,0 0.209667,0.0175 0.238733,0.11066 0.0058,0.0407 -0.099,0.0523 -0.099,0.0523 0,0 0.08733,0.0175 0.0932,0.0932 0.0059,0.0757 -0.885066,0.0175 -0.890866,0.0117 z"
     id="path210"
     inkscape:connector-curvature="0"
     style="fill:#ff7000;fill-rule:evenodd;stroke:#000000;stroke-width:0.02866666pt" />
  <path
     d="m 17.717267,6.463 c 0,0 0.442533,-0.0582 0.628866,-0.24453 M 18.165667,6.3409 c 0,0 0.326,-0.0117 0.326,0.035"
     id="path212"
     inkscape:connector-curvature="0"
     style="fill:none;stroke:#000000;stroke-width:0.02866666pt" />
  <path
     d="m 19.324333,11.10387 c 0,0 0.2795,-0.064 0.355167,-0.163 0.04667,-0.035 0.291167,0.3668 -0.355167,0.163 z"
     id="path214"
     inkscape:connector-curvature="0"
     style="fill:#ffffff;fill-rule:evenodd;stroke:#000000;stroke-width:0.03583334;stroke-linejoin:round" />
  <path
     d="m 19.248667,8.7922 c 0,0 0.03493,0.21543 -0.0641,0.361 -0.0524,0.0582 -0.2096,0.1572 -0.2096,0.2271 0,0.0698 0.0582,0.163 0.04653,0.24453 -0.01167,0.0815 -0.099,0.163 -0.09317,0.2329 0,0.0699 0.099,0.44254 0.0874,0.44834 m -0.2794,-2.21247 c 0,0 -0.2212,0.0757 -0.2678,0.297"
     id="path216"
     inkscape:connector-curvature="0"
     style="fill:none;stroke:#ffffff;stroke-width:0.03583334;stroke-linecap:round" />
  <path
     d="m 18.642933,6.3409 c 0,0 0.07567,0.20967 0.320267,0.0117 -0.157233,-0.2154 -0.320267,-0.006 -0.320267,-0.0117 z"
     id="path218"
     inkscape:connector-curvature="0"
     style="fill:#c75b00;fill-rule:evenodd;stroke:#000000;stroke-width:0.02866666pt" />
  <path
     d="m 18.828833,6.3362 c 0,0.0113 -0.01173,0.0204 -0.02623,0.0204 -0.0145,0 -0.0262,-0.009 -0.0262,-0.0204 0,-0.0113 0.01173,-0.0204 0.0262,-0.0204 0.01447,0 0.02623,0.009 0.02623,0.0204 z"
     id="path220"
     inkscape:connector-curvature="0"
     style="fill-rule:evenodd;stroke-width:0.03333334" />
  <path
     d="m 16.643433,5.85443 c 0,0 0.463734,0.50194 0.763767,0.4965 0.05457,0.14734 -0.1362,0.28434 -0.2126,0.34977 -0.152733,-0.0491 -0.2908,0.009 -0.645433,-0.42747 0.02183,-0.27823 0.09967,-0.40783 0.09427,-0.41876 z m 0.6275,-1.1676 c 0.06,-0.18546 0.18,-0.33276 0.283667,-0.34913 -0.02723,-0.14183 0.218267,-0.76923 0.933,-1.00927 0.0436,0.32187 -0.305567,0.63834 -0.305567,0.63834 0,0 1.053,-0.18007 1.265734,-0.4474 -0.0218,0.12 -0.234567,0.86746 -1.358434,0.862 0.4255,0.40373 -0.136433,0.72566 -0.3765,0.6274 C 18.154767,4.6705 17.587367,4.46867 17.2709,4.68687 Z"
     id="path222"
     inkscape:connector-curvature="0"
     style="fill:#ffffff;fill-rule:evenodd;stroke:#000000;stroke-width:0.02866666pt" />
  <path
     d="m 17.631,4.42513 c 0.212767,-0.1364 0.289133,-0.1364 0.463733,-0.10913 -0.1255,0.0163 -0.1255,0.0218 -0.1255,0.0218 0,0 -0.0109,0.0163 0.06547,0.0873 -0.08723,-0.0219 -0.163667,-0.071 -0.403667,0 z"
     id="path224"
     inkscape:connector-curvature="0"
     style="fill:#cccccd;fill-rule:evenodd;stroke:#cccccc;stroke-width:0.02866666pt" />
  <path
     d="m 17.549,4.33767 c 0,0 0.420067,-0.22367 0.654667,-0.37644"
     id="path226"
     inkscape:connector-curvature="0"
     style="fill:none;stroke:#000000;stroke-width:0.02866666pt" />
  <path
     d="m 17.188933,6.7001 c 0,0 0.578334,0.15823 0.643767,-0.67107 -0.125433,-0.36 -0.3,-1.13473 -0.03267,-1.3584 -0.245533,-0.16913 -0.512866,0.005 -0.512866,0.005 -0.01633,0.0382 -0.2346,0.34913 0.06,0.89473 -0.698334,-0.1855 -0.414667,0.47467 -0.414667,0.47467 0.02733,-0.10367 0.398333,-0.2019 0.491,0.32733 0.03823,0.1309 -0.2509,0.33277 -0.234533,0.32734 z"
     id="path228"
     inkscape:connector-curvature="0"
     style="fill:#0000ff;fill-rule:evenodd;stroke:#000000;stroke-width:0.02866666pt" />
  <path
     d="m 17.838233,6.03447 c 0,0 0.611,-0.32734 0.594667,-1.0966 -0.518333,0.0109 -0.703767,0.682 -0.703767,0.682 l 0.109134,0.4146 z"
     id="path230"
     inkscape:connector-curvature="0"
     style="fill:#0000ff;fill-rule:evenodd;stroke:#000000;stroke-width:0.02866666pt" />
  <path
     d="m 15.099433,5.99633 c 0,0 -0.452833,0.39284 -0.709233,0.26734 -0.191,0.11456 -0.414667,-0.0873 -0.414667,-0.0873 0,0 0.2619,0.96567 1.200267,0.26734 -0.01633,-0.21274 -0.06547,-0.431 -0.07633,-0.44734 z"
     id="path232"
     inkscape:connector-curvature="0"
     style="fill:#ffffff;fill-rule:evenodd;stroke:#000000;stroke-width:0.02866666pt" />
  <path
     d="m 14.384767,6.24717 c 0.0382,-0.20187 0.1964,-0.3 0.3219,-0.1091 C 14.8758,6.17077 15.044933,5.47793 14.4448,5.5925 14.613933,4.68683 14.106567,4.3486 14.106567,4.3486 c 0,0 -0.18,1.00383 -0.0982,1.18933 0.08187,0.1855 -0.12,-0.34366 -0.769234,-0.491 -0.0109,0.75834 0.725667,1.113 0.725667,1.113 0,0 0.207267,0.1909 0.42,0.0873 z"
     id="path234"
     inkscape:connector-curvature="0"
     style="fill:#0000ff;fill-rule:evenodd;stroke:#000000;stroke-width:0.02866666pt" />
  <path
     d="m 14.444667,5.587 c 0,0 -0.283667,0.24 -0.2182,0.56733 m -0.212634,-0.6 c 0,0 -0.06547,0.23457 0.07633,0.56734 m -0.12,0.0765 c 0,0 0.130933,-0.21277 0.414666,0.06"
     id="path236"
     inkscape:connector-curvature="0"
     style="fill:none;stroke:#000000;stroke-width:0.02866666pt" />
  <path
     d="m 14.024733,4.725 c 0,-0.005 -0.431,0 -0.1746,0.43643 -0.190933,0.06 -0.6165,-0.21823 -0.3219,-0.58923 -0.965666,-0.0218 -1.358466,-0.48553 -1.358466,-0.91107 0.283666,0.2946 0.9602,0.17457 1.200266,0.3546 -0.294566,-0.2728 -0.234566,-0.6492 -0.234566,-0.6492 0,0 0.823833,0.2455 0.9711,0.97654 -0.0491,0.14186 -0.0709,0.39283 -0.08183,0.3819 z"
     id="path238"
     inkscape:connector-curvature="0"
     style="fill:#ffffff;fill-rule:evenodd;stroke:#000000;stroke-width:0.02866666pt" />
  <path
     d="m 13.362,3.99683 c 0.159,0.16177 0.5675,0.2101 0.7748,0.39014"
     id="path240"
     inkscape:connector-curvature="0"
     style="fill:none;stroke:#000000;stroke-width:0.02866666pt" />
  <path
     d="m 13.5501,4.47413 c 0,0 0.338167,-0.0437 0.436167,0.0764 -0.132334,0 -0.176434,-0.0328 -0.367567,0.0382 0.05393,-0.0272 0.03923,-0.0763 0.06867,-0.0763 0.02943,0 -0.122567,-0.0382 -0.137267,-0.0382 z"
     id="path242"
     inkscape:connector-curvature="0"
     style="fill:#cccccd;fill-rule:evenodd;stroke:#cccccc;stroke-width:0.02716667" />
  <path
     d="m 15.2359,1.8281 c 0,0 0.185467,-0.16367 0.387333,-0.0163 -0.0912,0.27246 -0.4201,0.16906 -0.4201,0.16906 0,0 0.01093,0.1364 -0.0218,0.20187 0.06583,0.0495 0.12,0.2128 0.12,0.2128 0,0 0.338334,-0.0818 0.4092,0.0655 0.129534,-0.0179 0.223667,0 0.223667,0 0,0 0.2619,-0.0655 0.354667,-0.0655 0.09267,0 0.387333,0.0764 0.4146,0.131 0.02727,0.0545 0.125466,0.42 0.190933,0.4146 0.06547,-0.005 -0.1582,0.0873 -0.2182,-0.005 -0.06,-0.0927 -0.04367,0.12 -0.04367,0.12 0,0 0.1855,0.19644 0.207334,0.24007 0.0218,0.0437 -0.114567,0.39827 -0.01093,0.64377 -0.0908,0.008 -0.0982,0.10366 -0.0982,0.10366 -0.005,0.10807 -0.141833,0.1364 -0.141833,0.1364 l -0.03273,-0.14733 -0.09277,0.0546 0.0382,-0.11457 c 0,0 0.1255,-0.30553 0.1364,-0.40367 0.0109,-0.0982 -0.114567,-0.27283 -0.212767,-0.27283 -0.0982,0 -0.169133,0.311 -0.169133,0.311 0,0 -0.0491,0.23457 -0.03273,0.2564 0.0164,0.0218 -0.06543,-0.0763 -0.06543,-0.0763 0,0 -0.04367,0.1418 -0.07633,0.18543 -0.03277,0.0437 -0.103667,0.06 -0.103667,0.06 0,0 -0.04913,-0.14183 -0.03277,-0.19633 0.01633,-0.0546 0.267333,-0.26734 0.2455,-0.42014 -0.02187,-0.15273 0,-0.11453 -0.0055,-0.12 -0.0054,-0.005 -0.130934,-0.11456 -0.136334,-0.17456 -0.0055,-0.06 -0.163733,0.0763 -0.371,0.0327 -0.06347,0.11087 -0.07093,0.38733 -0.07093,0.38733 0,0 -0.02183,0.3328 0.0218,0.371 0.04367,0.0382 -0.109067,0.12 -0.109067,0.12 L 15.41051,4.1801 c 0,0 -0.03817,-0.0928 -0.03817,-0.0873 0,0.005 -0.07643,0.0546 -0.07643,0.0546 l 0.04367,-0.1091 c -0.0027,-0.0827 0.106066,-0.3082 0.106066,-0.49917 0,-0.191 0.0139,-0.3956 0.0139,-0.3956 0,0 -0.201833,-0.0109 -0.1964,0.1964 0.0055,0.20727 -0.0491,0.2182 -0.03817,0.2782 0.0109,0.06 0.06547,0.22914 0.0491,0.27824 -0.01633,0.0491 -0.08183,0.0655 -0.08183,0.0655 l -0.01633,0.0273 c 0,0 -0.2019,0.0927 -0.196467,0.1309 0.0055,0.0382 -0.0054,-0.10914 -0.0054,-0.10914 l -0.0109,-0.1582 c 0,0 0.12,-0.0764 0.12,-0.26733 0,-0.191 -0.02767,-0.2181 -0.02217,-0.26173 0.0055,-0.0437 0.0331,-0.202 0.02767,-0.21834 -0.0055,-0.0164 -0.114567,0.0436 -0.147333,0.0436 -0.03277,0 0.06,-0.11456 0.07093,-0.1964 0.01093,-0.0818 -0.1091,0.0763 -0.207333,-0.0163 0.04567,-0.10077 0.1146,-0.131 0.1255,-0.20733 0.0109,-0.0763 -0.07633,0.0655 -0.152667,0.0109 0.0062,-0.0732 0.0818,-0.1364 0.0818,-0.1364 0,0 -0.06217,-0.008 -0.08733,0 -0.04907,-0.0163 0.0546,-0.0927 0.06,-0.20187 0.0055,-0.1091 -0.06,-0.15273 -0.06,-0.1582 0,-0.005 -0.109067,-0.0982 -0.125434,-0.13633 -0.01633,-0.0382 -0.01633,-0.0819 -0.01633,-0.0819 0,0 -0.180067,0.13093 -0.392833,-0.14733 0.194833,-0.16634 0.403666,-0.0436 0.403666,-0.0436 0,0 0.0546,-0.15277 0.305567,-0.14187 0.251,0.0109 0.300067,0.15277 0.289167,0.1364 z"
     id="path244"
     inkscape:connector-curvature="0"
     style="fill:#923f00;fill-rule:evenodd;stroke:#000000;stroke-width:0.02866666pt" />
  <path
     d="m 16.608433,4.65017 c 0.0046,0 0.463467,0.0136 0.468,0.259 0.0045,0.24533 -0.140866,0.18166 -0.1454,0.18166 -0.0045,0 -0.3362,-0.0408 -0.3362,-0.0408 l 0.01367,-0.39987 z"
     id="path246"
     inkscape:connector-curvature="0"
     style="fill:#0000ff;fill-rule:evenodd;stroke:#000000;stroke-width:0.02866666pt" />
  <path
     d="m 16.163,4.58193 c 0,0 0.572467,-0.005 0.540667,0.24534 -0.03183,0.2499 -0.177234,0.19993 -0.177234,0.19993 L 16.2493,5.0045 16.16297,4.58196 Z"
     id="path248"
     inkscape:connector-curvature="0"
     style="fill:#fffeff;fill-rule:evenodd;stroke:#000000;stroke-width:0.02866666pt" />
  <path
     d="m 15.840467,4.55467 0.331666,0.0273 c 0,0 0.199934,0.0272 0.190834,0.218 -0.0091,0.19087 -0.2045,0.19543 -0.2045,0.19543 L 15.8359,4.9772 15.8404,4.55467 Z"
     id="path250"
     inkscape:connector-curvature="0"
     style="fill:#0000ff;fill-rule:evenodd;stroke:#000000;stroke-width:0.02866666pt" />
  <path
     d="m 15.0636,4.65017 c -0.0045,0 -0.463467,0.0136 -0.468,0.259 -0.0045,0.24533 0.140867,0.18166 0.1454,0.18166 0.0045,0 0.336233,-0.0408 0.336233,-0.0408 l -0.01373,-0.3999 z"
     id="path252"
     inkscape:connector-curvature="0"
     style="fill:#ffffff;fill-rule:evenodd;stroke:#000000;stroke-width:0.02866666pt" />
  <path
     d="m 15.5088,4.58193 c 0,0 -0.5725,-0.005 -0.540667,0.24534 0.0318,0.2499 0.177167,0.19993 0.177167,0.19993 l 0.277133,-0.0227 0.08633,-0.42254 z"
     id="path254"
     inkscape:connector-curvature="0"
     style="fill:#0000ff;fill-rule:evenodd;stroke:#000000;stroke-width:0.02866666pt" />
  <path
     d="M 15.831567,4.55467 15.4999,4.582 c 0,0 -0.1999,0.0272 -0.190833,0.218 0.0091,0.19087 0.204466,0.19543 0.204466,0.19543 l 0.3226,-0.0182 -0.0046,-0.42253 z"
     id="path256"
     inkscape:connector-curvature="0"
     style="fill:#ffffff;fill-rule:evenodd;stroke:#000000;stroke-width:0.02866666pt" />
  <path
     d="m 16.719667,7.31333 c 0,0 0.2385,-0.35153 0.338933,-0.3139 0.08787,0.0293 0.02093,0.30134 -0.02093,0.3264 l -0.318,-0.0125 z M 15.0848,7.37603 c -0.07533,-0.1046 -0.1841,-0.39334 -0.284533,-0.31384 -0.08787,0.0293 -0.0209,0.30127 0.02093,0.3264 l 0.2636,-0.0126 z"
     id="path258"
     inkscape:connector-curvature="0"
     style="fill:#5e0043;fill-rule:evenodd;stroke:#000000;stroke-width:0.02866666pt" />
  <path
     d="m 15.242767,6.6809 c 0,0 0.464733,0.28633 0.6172,0.29373 0.1524,0.007 0.635733,-0.37186 0.635733,-0.37186"
     id="path260"
     inkscape:connector-curvature="0"
     style="fill:none;stroke:#000000;stroke-width:0.02866666pt" />
  <path
     d="m 15.2875,5.55833 0.08923,-0.11156 0.446167,0.2268 0.453567,-0.20077 0.08923,0.0929 -0.5056,0.35694 -0.572567,-0.36434 z"
     id="path262"
     inkscape:connector-curvature="0"
     style="fill:#5e0043;fill-rule:evenodd;stroke:#000000;stroke-width:0.02866666pt" />
  <path
     d="m 14.933167,5.55233 c 0.03623,0.0457 0.3246,0.39634 0.376666,0.68634 0.052,0.29 -0.02977,-0.3978 -0.02977,-0.3978 0,0 0.356933,0.17473 0.3681,0.28626 0.01113,0.11154 0.170666,-0.008 0.178266,-0.0266 L 14.793,5.42933 Z m 1.7633,-0.0201 c 0,0 -0.375534,0.4945 -0.3309,1.03357 -0.07747,-0.25813 -0.0149,-0.6841 -0.0149,-0.6841 l -0.08177,0.0521 c 0,0 -0.08553,0.36433 -0.193333,0.42013 -0.0182,-0.0434 -0.0149,-0.0595 -0.0149,-0.0595 0,0 -0.115234,0.14874 -0.137567,0.1636 -0.02233,0.0149 0.0075,0.50194 0.0075,0.50194 0,0 0.03867,0.353 0.08333,0.34933 -0.05077,0.0248 -0.1131,0.0634 -0.1131,0.0634 L 15.854597,6.43014 15.96033,6.3242 c 0,0 0.141233,-0.171 0.1524,-0.33833 -0.06133,0.052 -0.130133,0.0669 -0.130133,0.0669 0,0 -0.0186,0.23794 -0.07433,0.2714 -0.0558,0.0335 -0.05733,0.0955 -0.05733,0.0955 l -0.01323,-0.31094 0.858766,-0.5765 z"
     id="path264"
     inkscape:connector-curvature="0"
     style="fill:#474747;fill-rule:evenodd;stroke:#474747;stroke-width:0.03583334;stroke-linejoin:round" />
  <path
     d="m 15.8376,6.10467 0.07253,1.487"
     id="path266"
     inkscape:connector-curvature="0"
     style="fill:none;stroke:#000000;stroke-width:0.03583334;stroke-linecap:round" />
  <path
     d="m 14.923133,6.81477 c 0,0 0.171,0.1004 0.234234,0.40526 0.557666,-0.0409 0.732466,0.1562 0.732466,0.1562 0,0 0.457334,-0.21933 0.669234,-0.17846 C 16.633397,7.0416 16.8454,6.84083 16.8454,6.84083"
     id="path268"
     inkscape:connector-curvature="0"
     style="fill:none;stroke:#000000;stroke-width:0.02866666pt" />
  <path
     d="m 14.6898,5.35733 1.147933,0.75107 1.0336,-0.69527 c 0,0 0.215667,-0.119 0.197067,-0.20446 -0.0186,-0.0855 -0.09293,-0.0521 -0.130133,-0.0372 -0.03717,0.0149 -1.081934,0.75473 -1.081934,0.75473 L 14.744667,5.22353 c 0,0 -0.0818,-0.026 -0.09667,0.026 -0.01487,0.052 0.03067,0.0818 0.04177,0.10784 z"
     id="path270"
     inkscape:connector-curvature="0"
     style="fill:#b4b6b9;fill-rule:evenodd;stroke:#000000;stroke-width:0.02866666pt" />
  <path
     d="m 16.7426,5.16243 c 0,0 -0.293667,-0.12466 -0.293667,-0.0167 0,0.1081 0.0083,0.11916 0.05533,0.18846 0.04713,0.0693 -0.036,0.1136 -0.036,0.1136 0,0 -0.01107,-0.0305 -0.02767,-0.0776 -0.01667,-0.0471 -0.1746,-0.0803 -0.188433,-0.13576 -0.01387,-0.0554 0.03323,-0.1441 -0.061,-0.15517 -0.0942,-0.0111 -0.185667,0.0388 -0.205,0.14683 -0.01943,0.10807 -0.141334,0.36024 -0.141334,0.36024 l 0.01667,-0.5736 c 0.206833,0.0148 0.5911,0.06 0.886667,0.0942 -0.08867,-0.0138 0.03323,0.006 0.03047,0.036 -0.0083,0.025 -0.03883,0.0277 -0.03607,0.0194 z m -1.039167,-0.1442 c -0.05267,0 -0.315866,0.0305 -0.382333,0.0693 -0.06653,0.0388 0.108,0.0998 0.08587,0.1524 -0.0222,0.0527 -0.025,0.158 -0.1081,0.1358 -0.08313,-0.0221 -0.363,-0.16067 -0.371334,-0.2078 -0.0083,-0.0471 -0.06647,-0.0499 -0.06647,-0.0499 0,0 0.803566,-0.10806 0.842333,-0.0998 z"
     id="path272"
     inkscape:connector-curvature="0"
     style="fill:#474747;fill-rule:evenodd;stroke:#474747;stroke-width:0.03583334;stroke-linejoin:round" />
  <path
     d="m 15.830133,4.95233 -0.002,0.70467 M 15.2875,4.1221 c 0,0 -0.322,0.5228 -0.328333,0.53873"
     id="path274"
     inkscape:connector-curvature="0"
     style="fill:none;stroke:#000000;stroke-width:0.02866666pt" />
  <path
     d="m 15.8806,4.10921 c 0,0 0.140266,0.19127 0.124327,0.24545 0.05733,0.0446 0.121117,0.22314 0.121117,0.22314"
     id="path276"
     style="fill:url(#f);fill-rule:evenodd;stroke:#000000;stroke-width:0.02866667pt"
     inkscape:connector-curvature="0" />
  <path
     d="m 16.4224,4.0774 c 0,0 -0.302833,0.42717 -0.293267,0.459"
     id="path278"
     inkscape:connector-curvature="0"
     style="fill:none;stroke:#000000;stroke-width:0.02866666pt" />
  <path
     d="m 14.873767,2.04753 c -0.0069,0.0239 -0.04547,0.0332 -0.08627,0.0207 -0.0408,-0.0125 -0.06827,-0.042 -0.0614,-0.0659 0.0069,-0.0239 0.0455,-0.0332 0.08627,-0.0207 0.04077,0.0125 0.06833,0.042 0.06143,0.0659 z m 0.122433,-0.008 c 0.0069,0.0239 0.04547,0.0332 0.08627,0.0207 0.0408,-0.0125 0.06823,-0.042 0.0614,-0.0659 -0.0069,-0.0239 -0.0455,-0.0332 -0.08627,-0.0207 -0.04077,0.0125 -0.06827,0.042 -0.0614,0.0659 z"
     id="path280"
     inkscape:connector-curvature="0"
     style="fill-rule:evenodd;stroke-width:0.03333334" />
  <path
     d="m 18.537667,10.88573 c 0,0 -0.112234,0.021 -0.108734,0.0316 0.0035,0.0106 -0.326333,0.021 -0.333333,0.0105 -0.0071,-0.0105 -0.04917,0.0561 -0.04917,0.0561 l 0.05267,-0.0316 c 0,0 0.08067,0.0842 0.105267,0.0772 0.02457,-0.007 -0.0105,0.0316 -0.0035,0.0386 0.007,0.007 0.0316,-0.014 0.0316,-0.014 l 0.545333,-0.009 -0.24,-0.15927 z"
     id="path282"
     inkscape:connector-curvature="0"
     style="fill:#ff7000;fill-rule:evenodd;stroke:#000000;stroke-width:0.02866666pt;stroke-linejoin:round" />
  <path
     d="m 18.741,11.05543 -0.445433,0.0129 c 0,0 -0.112334,0.10177 -0.119334,0.12634 -0.007,0.0246 0.07367,0.0316 0.07367,0.0316 l 0.0246,0.0842 0.05617,-0.0211 c 0,0 0.378666,0.0563 0.726333,-0.0211 0.1755,-0.0614 0.2062,-0.1351 0.08333,-0.17983 -0.122766,-0.0447 -0.395866,-0.0313 -0.399333,-0.0331 z"
     id="path284"
     inkscape:connector-curvature="0"
     style="fill:#ff7000;fill-rule:evenodd;stroke:#000000;stroke-width:0.03583334;stroke-linejoin:round" />
  <path
     d="m 17.215607,11.96933 0.801806,-0.0357 -0.149296,-0.12659 2.168548,-0.0877 -0.07471,-0.17205 -2.428267,0.0974 0.292171,0.13633 -0.655779,0.0195 0.01949,0.0681 -0.172057,-0.007 c 0,0 0.191493,0.0747 0.198029,0.10713 z"
     id="path286"
     style="fill:url(#g);fill-rule:evenodd;stroke:#000000;stroke-width:0.02866667pt"
     inkscape:connector-curvature="0" />
  <path
     d="m 18.114593,7.54004 c -0.0637,-0.0318 -0.343942,-0.0701 -0.656008,0.13376 l 0.01273,0.7197 c 0,0 0.458581,-0.24839 0.681493,-0.19109 -0.01273,-0.22291 -0.01273,-0.50952 -0.03821,-0.66237 z"
     id="path288"
     style="fill:url(#h);fill-rule:evenodd;stroke:#000000;stroke-width:0.02866667pt"
     inkscape:connector-curvature="0" />
  <path
     d="m 13.681133,9.72533 -1.890766,1.877 m 2.733433,-1.86326 -1.534567,2.021 m 1.4661,-2.54847 -2.048433,2.47993 m -0.06163,-0.0344 0.198666,-0.2329 m 2.3018,-0.9659 -0.794666,1.0962 m -0.0343,0.1439 0.02057,0.41767 m 1.171334,-1.27423 -0.8426,1.055 m 0.6921,-0.0821 0.342533,-0.56173 M 15.18834,11.1434 14.777274,11.60924 m 0.287733,-0.90414 -0.280833,0.34254 m -0.08233,-0.84277 c 0,0 -0.856333,1.25367 -0.8426,1.3564 m 0.753434,-1.52063 c -0.02053,0.0137 -0.739867,0.9659 -0.739867,0.9659 m -0.04097,0.3011 -0.130166,0.1576 m -0.164434,0.24006 -0.198666,0.26027"
     id="path290"
     inkscape:connector-curvature="0"
     style="fill:none;stroke:#000000;stroke-width:0.02866666pt" />
  <path
     d="m 13.587567,6.84 c 0,0 -0.058,0.18233 0,0.27347 0.058,0.0911 0.422666,0.82866 0.422666,0.82866 0,0 0.2486,-0.30656 0.339767,-0.31486 0.09117,-0.008 0.04967,0.79556 0.04967,0.79556 0,0 -0.1491,0.1409 -0.240267,0.1326 -0.09117,-0.008 0.223733,0.3149 0.215467,0.5884 -0.0083,0.2735 -0.414334,1.63254 -0.563534,1.6574 -0.149166,0.0249 0.06633,-0.2486 0.058,-0.3232 -0.0083,-0.0745 -0.04973,-0.0248 -0.08287,-0.10766 -0.03317,-0.0829 0.04973,-0.2072 0.03313,-0.29007 -0.0166,-0.0829 -0.09113,-0.0663 -0.09943,-0.12433 -0.0083,-0.058 0.04973,-0.0746 0.04143,-0.14084 -0.0083,-0.0663 -0.09943,-0.0498 -0.09117,-0.10776 0.0083,-0.058 0.0166,-0.0331 0.0083,-0.14087 -0.0083,-0.10773 -0.0249,0.0746 -0.116067,0.0829 -0.0911,0.008 -0.165667,0.21546 -0.165667,0.21546 0,0 -0.182333,0.2569 -0.364666,0.14087 0.107733,0.232 0.02487,0.3315 -0.01657,0.33977 -0.04143,0.008 0.03313,0.18233 -0.06633,0.19066 -0.09947,0.008 0.0746,0.38944 -0.0414,0.42257 0.124333,0.058 0.0249,0.13267 0.0249,0.13267 0,0 -0.287267,0.0238 -0.223767,0.39773 -0.845333,-0.29783 -1.259667,-0.81153 -1.251333,-1.33357 0.0083,-0.52206 0.174,-0.99443 0.580066,-1.16846 0.116,-0.43094 0.3149,-0.895 0.3149,-0.895 0,0 -0.03313,-0.1906 -0.0083,-0.3149 0.02487,-0.12434 0.140866,-0.2486 0.140866,-0.2486 0,0 -0.01653,-0.29834 -0.0082,-0.4475 0.0083,-0.14917 0.06633,-0.2155 0.07457,-0.29834 0.0083,-0.0829 -0.02487,-0.50553 0.058,-0.5801 0.0829,-0.0746 0.240333,-0.0663 0.3232,-0.116 0.08287,-0.0497 0.1906,-0.1409 0.298333,-0.13266 0.107733,0.008 0.1989,0.0829 0.1989,0.0829 0,0 0.406067,0 0.4309,0.15747 0.02487,0.1574 -0.08287,0.2154 -0.08287,0.2154 0,0 0.058,0.22376 -0.1906,0.43093 z"
     id="path292"
     inkscape:connector-curvature="0"
     style="fill:#8a9396;fill-rule:evenodd;stroke:#2b2b2b;stroke-width:0.02866666pt" />
  <path
     d="m 13.2284,6.2699 c 0.013,0.0241 -0.01667,0.0653 -0.0662,0.0921 -0.04953,0.0268 -0.100333,0.0292 -0.113333,0.005 -0.013,-0.024 0.0166,-0.0653 0.0662,-0.0921 0.0496,-0.0269 0.100333,-0.0291 0.113333,-0.005 z"
     id="path294"
     inkscape:connector-curvature="0"
     style="fill:#cecfcf;fill-rule:evenodd;stroke:#2b2b2b;stroke-width:0.03823333" />
  <path
     d="m 13.159567,6.3118 c 0,0.0152 -0.0138,0.0275 -0.03083,0.0275 -0.017,0 -0.0308,-0.0123 -0.0308,-0.0275 0,-0.0151 0.0138,-0.0274 0.0308,-0.0274 0.017,0 0.03083,0.0123 0.03083,0.0275 z"
     id="path296"
     inkscape:connector-curvature="0"
     style="fill-rule:evenodd;stroke-width:0.03333334" />
  <path
     d="m 13.764167,6.582 c 0,0 0.100666,0.44933 -0.01967,0.75977 m 0.05063,-0.95644 c 0,0 0.196334,0.25974 0.171,0.58277 m -0.152,-0.63977 c 0.0063,0 0.164667,0.13934 0.158334,0.23434 m -0.120334,-0.2914 c 0,0 0.107667,0.076 0.133,0.152"
     id="path298"
     inkscape:connector-curvature="0"
     style="fill:none;stroke:#2b2b2b;stroke-width:0.0179" />
  <path
     d="m 13.801467,6.22683 c 0,0 -0.3864,0.6271 -0.335734,1.01984"
     id="path300"
     inkscape:connector-curvature="0"
     style="fill:none;stroke:#000000;stroke-width:0.02866666pt" />
  <path
     d="m 13.8268,6.2079 c 0,0 -0.5131,0.30407 -0.6081,1.29857"
     id="path302"
     inkscape:connector-curvature="0"
     style="fill:none;stroke:#2b2b2b;stroke-width:0.0179" />
  <path
     d="m 13.7698,6.39167 -0.202733,0.152"
     id="path304"
     inkscape:connector-curvature="0"
     style="fill:none;stroke:#000000;stroke-width:0.02866666pt" />
  <path
     d="m 13.028667,7.56353 c 0,0 0.285066,-1.18456 0.7918,-1.35556"
     id="path306"
     inkscape:connector-curvature="0"
     style="fill:none;stroke:#2b2b2b;stroke-width:0.0179" />
  <path
     d="m 14.016833,7.9626 c 0,0 0.2724,-0.34207 0.335734,-0.3294 0.06333,0.0127 0.04433,0.7918 0.04433,0.7918 0,0 -0.202667,0.152 -0.247067,0.14567 -0.04433,-0.006 0.228067,0.36743 0.221734,0.5068 -0.0063,0.13933 -0.01267,0.13933 -0.01267,0.13933 0,0 0,-0.0823 -0.06333,-0.21533 -0.06333,-0.133 -0.02533,-0.28507 -0.4371,-0.6208 -0.101334,-0.209 0.202666,0.12666 0.266,0.076 0.0634,-0.0507 -0.114,-0.48774 -0.107667,-0.49407 z"
     id="path308"
     inkscape:connector-curvature="0"
     style="fill:#2b2b2b;fill-rule:evenodd;stroke:#2b2b2b;stroke-width:0.02866666pt" />
  <path
     d="m 13.5326,6.0362 c 0,0 -0.1145,0.0312 -0.130133,0.0781 C 13.386867,6.1611 13.319197,6.208 13.2828,6.1924 13.24633,6.1768 13.178633,6.1195 13.178633,6.1195"
     id="path310"
     inkscape:connector-curvature="0"
     style="fill:none;stroke:#2b2b2b;stroke-width:0.02866666pt" />
  <path
     d="m 12.882,6.43693 c 0,0 -0.171833,0.1718 -0.08853,0.1926 0.08327,0.0208 0.171766,-0.13533 0.171766,-0.13533 0,0 0,0.26547 0.07287,0.22383 0.07287,-0.0416 0.286333,-0.19256 0.286333,-0.19256 0,0 0.07283,-0.005 0.08843,0 0.01567,0.005 0.1978,0.16133 0.317533,0.1041 -0.06767,0.177 -0.145767,0.1978 -0.145767,0.1978 0,0 -0.124933,0.16133 -0.286333,0.12493 -0.161333,-0.0364 -0.203,-0.1041 -0.203,-0.1041 0,0 -0.135333,0.0104 -0.176933,-0.0521 -0.04167,-0.0625 -0.05727,-0.0989 -0.05727,-0.0989 0,0 -0.07807,0.0781 -0.0989,0.0417 -0.02083,-0.0365 0,-0.24987 0.119667,-0.3019 z"
     id="path312"
     inkscape:connector-curvature="0"
     style="fill:#2b2b2b;fill-rule:evenodd;stroke:#2b2b2b;stroke-width:0.03583334;stroke-linejoin:round" />
  <path
     d="m 13.855333,6.19757 c 0,0 -0.317533,-0.0937 -0.426833,0.0625 -0.109333,0.1562 -0.08327,0.24467 -0.026,0.26034"
     id="path314"
     inkscape:connector-curvature="0"
     style="fill:none;stroke:#2b2b2b;stroke-width:0.02866666pt" />
  <path
     d="m 13.904333,6.18867 c 0,0.0375 -0.0268,0.0678 -0.05987,0.0678 -0.03307,0 -0.05987,-0.0303 -0.05987,-0.0678 0,-0.0374 0.0268,-0.0678 0.05987,-0.0678 0.03307,0 0.05987,0.0303 0.05987,0.0678 z"
     id="path316"
     inkscape:connector-curvature="0"
     style="fill-rule:evenodd;stroke-width:0.03333334" />
  <path
     d="m 12.980233,6.9988 c 0,0 0.129467,0.1992 0.283834,0.254 0.154366,0.0548 -0.107067,0.10207 -0.261434,-0.002 -0.112066,-0.15193 -0.0822,-0.26147 -0.0822,-0.26147 0,0 0.02987,-0.0299 0.05977,0.01 z m 1.108,1.17533 c 0,0 -0.363533,-0.5054 -0.4681,-0.5328 -0.1046,-0.0274 0.07967,-0.0498 0.191667,0.0573 C 13.923867,7.8057 13.78197,7.5243 13.78197,7.5243 l 0.3062,0.64986 z"
     id="path318"
     inkscape:connector-curvature="0"
     style="fill:#2b2b2b;fill-rule:evenodd;stroke:#2b2b2b;stroke-width:0.02866666pt" />
  <path
     d="m 12.9454,11.09467 c 0.139433,-0.0373 0.746933,0.34866 0.883867,0.44573 0.136933,0.0971 0.423266,0.0348 0.423266,0.0348 0,0 -0.132,0.0797 -0.214133,0.0996 -0.08213,0.0199 0.244,0.0199 0.244,0.0199 0,0 -0.776833,0.2141 -1.5661,-0.20167 -0.07223,-0.32367 0.169267,-0.3959 0.229,-0.3984 z"
     id="path320"
     inkscape:connector-curvature="0"
     style="fill:#2b2b2b;fill-rule:evenodd;stroke:#2b2b2b;stroke-width:0.03583334;stroke-linejoin:round" />
  <path
     d="m 13.834267,8.29857 c 0,0 -0.1021,-0.0199 -0.154334,-0.0797 -0.05233,-0.0598 -0.127,-0.20667 -0.2042,-0.26893 -0.0772,-0.0623 -0.463133,-0.2739 -0.602566,-0.259 -0.139434,0.015 -0.181734,-0.0149 -0.199167,-0.0323 -0.01743,-0.0174 -0.07467,0.007 -0.06473,0.0797 0.0099,0.0722 -0.107067,0.23157 -0.06473,0.30627 0.04233,0.0747 0.2415,0.37843 0.281334,0.3884 0.03983,0.01 0.01493,0.17676 0.01493,0.17676 0,0 0.1768,0.17927 0.2216,0.18924 0.04483,0.01 0.08967,0.0423 0.08467,0.0847 -0.005,0.0423 -0.1942,0.27387 -0.1942,0.27387 0,0 -0.204167,0.10707 -0.206667,0.16683 -0.0025,0.0598 0.0498,0.18427 0.211667,0.2241 0.1618,0.0398 0.597533,0.007 0.619933,-0.0299 0.0224,-0.0373 0.05727,-0.26144 0.04233,-0.28384 -0.01493,-0.0224 -0.122,-0.0897 -0.176766,-0.0797 -0.05477,0.01 -0.104567,0.0548 -0.09957,0.0647 0.005,0.01 -0.0772,0.0523 -0.0772,0.0125 0,-0.0398 0.161833,-0.2191 0.1768,-0.20416 0.015,0.0149 0.244,0.0373 0.286333,0.15186 0.04233,0.11454 0.04233,0.19667 0.161867,0.18427 0.1195,-0.0125 0.286333,-0.122 0.301233,-0.35107 0.015,-0.22906 -0.134433,-0.38343 -0.1718,-0.40583 -0.03733,-0.0224 -0.161866,-0.0971 -0.171833,-0.132 -0.0099,-0.0348 -0.03483,-0.14933 -0.01493,-0.17677 z"
     id="path322"
     inkscape:connector-curvature="0"
     style="fill:#2b2b2b;fill-rule:evenodd;stroke:#2b2b2b;stroke-width:0.02866666pt" />
  <path
     d="m 11.680533,9.30967 c 0,0 0.3859,-0.0997 0.485534,-0.0971 0.0996,0.002 0.475533,0.17677 0.5851,0.28384 0.109566,0.1071 0.333666,0.36106 0.480533,0.33866 0.146933,-0.0224 0.189267,-0.0523 0.189267,-0.0523 l -0.05727,0.10957 c 0,0 -0.1195,0.0323 -0.179267,0.0174 -0.05973,-0.0149 -0.176766,-0.0523 -0.2938,-0.1668 -0.117,-0.11453 -0.478,-0.42327 -0.784333,-0.40087 -0.3062,0.0224 -0.483,0.32367 -0.483,0.32367 0,0 0.0025,-0.1469 0.015,-0.17927 0.0124,-0.0323 -0.0648,0.0697 -0.0648,0.0697 L 11.680564,9.3097 Z"
     id="path324"
     inkscape:connector-curvature="0"
     style="fill:#2b2b2b;fill-rule:evenodd;stroke:#2b2b2b;stroke-width:0.02866666pt" />
  <path
     d="m 13.102233,9.60833 c 0.0025,0.002 0.0971,0.0274 0.256434,0.0274 0.159333,0 0.244,-0.0697 0.244,-0.0697 l -0.0099,-0.0622 0.0249,-0.0871 c 0,0 0.122,0.12444 0.119467,0.14934 -0.0025,0.0249 -0.0498,0.0349 -0.0498,0.0349 l -0.01743,-0.0598 -0.04233,0.0523 c 0,0 -0.231533,0.1842 -0.358533,0.15683 -0.126933,-0.0274 -0.244,-0.10956 -0.2116,-0.12946 0.0324,-0.0199 0.0498,-0.0125 0.04483,-0.0125 z m -0.5627,0.32624 c 0,0 -0.139433,-0.002 -0.201666,0.0274 -0.06227,0.0298 -0.08467,0.0672 -0.127,0.0622 -0.04233,-0.005 -0.07467,-0.0598 -0.06223,-0.0822 0.0174,-0.0348 0.09957,-0.0797 0.2564,-0.0672 0.156834,0.0125 0.134467,0.0598 0.134467,0.0598 z m 0.488034,0.37843 c 0,-0.007 -0.01,-0.2042 -0.08717,-0.28387 -0.07717,-0.0797 -0.1718,-0.0797 -0.214133,-0.0697 -0.04233,0.01 0.156866,0.0971 0.1768,0.15433 0.0199,0.0573 0.08467,0.21667 0.06723,0.2565 -0.01747,0.0398 -0.04983,-0.112 -0.171833,-0.15433 -0.122,-0.0423 -0.291334,-0.02 -0.256467,0.0348 0.03487,0.0548 0.171833,0.005 0.241533,0.122 0.0697,0.117 0.122,0.2415 0.122,0.2415 l 0.02243,-0.0847 0.0622,-0.0174 0.0075,-0.16187 0.0299,-0.0373 z"
     id="path326"
     inkscape:connector-curvature="0"
     style="fill:#2b2b2b;fill-rule:evenodd;stroke:#2b2b2b;stroke-width:0.02866666pt" />
  <path
     d="m 12.928,10.95023 -0.127,-0.254 c 0,0 -0.03987,-0.1618 -0.146933,-0.20666 -0.107067,-0.0448 -0.249,-0.0373 -0.251467,0.0175 -0.0025,0.0548 0.229067,0.12454 0.244,0.1544 0.015,0.0299 0.0075,0.0797 -0.01243,0.0822 -0.01993,0.002 -0.122,-0.0373 -0.174334,-0.0249 -0.05223,0.0125 -0.08213,0.0797 -0.159333,0.0598 -0.07717,-0.0199 -0.1419,-0.26644 -0.112,-0.29134 0.02987,-0.0249 -0.05727,0.0448 -0.07467,-0.0199 -0.01747,-0.0647 0.02487,-0.2664 -0.005,-0.29133 -0.0299,-0.0249 -0.174333,-0.112 -0.1768,-0.12943 -0.0025,-0.0174 0.0075,-0.991 0.821667,-0.18427 -0.348567,-0.41333 -0.485533,-0.36847 -0.550233,-0.371 -0.04733,0 -0.363534,0.0274 -0.4432,0.43077 -0.07967,0.40333 -0.174334,0.1519 -0.174334,0.1519 0,0 -0.0174,0.17426 0.06727,0.22406 0.08467,0.0498 -0.03983,0.1942 -0.03983,0.1942 0,0 -0.151867,-0.371 -0.129467,-0.53283 -0.0299,0.1295 -0.0274,0.45067 0.164333,0.80173 0.224067,0.23654 0.435734,0.45567 0.998434,0.70214 0.296266,-0.45317 0.281333,-0.5079 0.281333,-0.5129 z"
     id="path328"
     inkscape:connector-curvature="0"
     style="fill:#2b2b2b;fill-rule:evenodd;stroke:#2b2b2b;stroke-width:0.03583334;stroke-linejoin:round" />
  <path
     d="m 12.395133,10.9528 c 0,0 0.164334,0.0199 0.209134,0.10457 0.04483,0.0847 0.06473,0.21416 0.06473,0.21416 0.0274,-0.0548 0.03987,-0.10206 0.09467,-0.1419 0.0548,-0.0398 0.09457,-0.0448 0.0921,-0.0747 -0.0025,-0.0299 -0.174334,-0.21167 -0.261434,-0.22167 -0.08717,-0.01 -0.239,0.0947 -0.239,0.0947 0,0 -0.02743,0.0398 0.0398,0.0249 z"
     id="path330"
     inkscape:connector-curvature="0"
     style="fill:#8a9396;fill-rule:evenodd;stroke:#2b2b2b;stroke-width:0.03583334;stroke-linejoin:round" />
  <path
     d="m 12.770467,11.3811 c 0,0 0.425866,0.19413 1.127333,0.20667"
     id="path332"
     inkscape:connector-curvature="0"
     style="fill:none;stroke:#8a9396;stroke-width:0.03583334;stroke-linecap:round" />
  <path
     d="m 14.192133,9.40423 c 0,0 -0.03667,0.35734 -0.3115,1.06267"
     id="path334"
     inkscape:connector-curvature="0"
     style="fill:none;stroke:#2b2b2b;stroke-width:0.03583334;stroke-linecap:round" />
  <path
     d="m 14.137333,9.6241 c 0,0 -0.0824,0.25653 -0.311433,0.4489"
     id="path336"
     inkscape:connector-curvature="0"
     style="fill:none;stroke:#2b2b2b;stroke-width:0.02866666pt" />
</svg>
