<?xml version="1.0" encoding="UTF-8" standalone="no"?>
<svg
   xmlns:dc="http://purl.org/dc/elements/1.1/"
   xmlns:cc="http://creativecommons.org/ns#"
   xmlns:rdf="http://www.w3.org/1999/02/22-rdf-syntax-ns#"
   xmlns:svg="http://www.w3.org/2000/svg"
   xmlns="http://www.w3.org/2000/svg"
   xmlns:sodipodi="http://sodipodi.sourceforge.net/DTD/sodipodi-0.dtd"
   xmlns:inkscape="http://www.inkscape.org/namespaces/inkscape"
   height="16"
   width="21.333332"
   viewBox="0 0 21.333332 16"
   version="1.1"
   id="svg60"
   sodipodi:docname="gu.svg"
   inkscape:version="0.92.1 r">
  <metadata
     id="metadata66">
    <rdf:RDF>
      <cc:Work
         rdf:about="">
        <dc:format>image/svg+xml</dc:format>
        <dc:type
           rdf:resource="http://purl.org/dc/dcmitype/StillImage" />
        <dc:title></dc:title>
      </cc:Work>
    </rdf:RDF>
  </metadata>
  <defs
     id="defs64" />
  <sodipodi:namedview
     pagecolor="#ffffff"
     bordercolor="#666666"
     borderopacity="1"
     objecttolerance="10"
     gridtolerance="10"
     guidetolerance="10"
     inkscape:pageopacity="0"
     inkscape:pageshadow="2"
     inkscape:window-width="1920"
     inkscape:window-height="1024"
     id="namedview62"
     showgrid="false"
     fit-margin-top="0"
     fit-margin-left="0"
     fit-margin-right="0"
     fit-margin-bottom="0"
     inkscape:zoom="0.49166667"
     inkscape:cx="320"
     inkscape:cy="240"
     inkscape:window-x="0"
     inkscape:window-y="0"
     inkscape:window-maximized="1"
     inkscape:current-layer="svg60" />
  <path
     d="M 0,0 H 21.333333 V 16 H 0 Z"
     id="path2"
     inkscape:connector-curvature="0"
     style="fill:#be0027;fill-rule:evenodd;stroke-width:0.03333334" />
  <path
     d="M 0.85333333,0.91143 H 20.504667 v 14.279 H 0.85333333 Z"
     id="path4"
     inkscape:connector-curvature="0"
     style="fill:#3b5aa3;fill-rule:evenodd;stroke-width:0.03333334" />
  <path
     d="m 10.478167,13.7745 c 0.08077,0.0443 0.208566,0.042 0.280466,0.004 4.592934,-2.44333 4.5956,-9.14417 0.0067,-11.55307 -0.08523,-0.0449 -0.209167,-0.0425 -0.293867,0.003 -4.4756663,2.44867 -4.4876663,9.07353 0.0067,11.54643 z"
     id="path6"
     inkscape:connector-curvature="0"
     style="fill:#cbe0e5;fill-rule:evenodd;stroke-width:0.03333334" />
  <path
     d="m 10.478167,13.89533 c 0.0714,0.0583 0.2154,0.0527 0.280466,0.004 C 14.1433,11.36533 14.1631,9.78566 14.0131,9.78576 l -6.6988333,0.003 c -0.1024334,10e-5 0.059,1.60357 3.1638003,4.1066 z"
     id="path8"
     inkscape:connector-curvature="0"
     style="fill:#add2d9;fill-rule:evenodd;stroke-width:0.03333334" />
  <path
     d="m 7.8448333,11.04077 c 0.2904334,-0.0756 0.6412667,-0.0955 0.9271,0.0572 0.2539334,0.13267 0.4010667,0.1314 0.6746667,0.135 0.2863333,0.004 0.5114667,0.21434 0.8211,0.22254 0.570133,0.0149 0.810333,0.29766 0.367133,0.2982 -0.209533,3.3e-4 -0.6586663,-0.13967 -0.8753997,-0.10957 -0.4529,0.0467 -0.7403333,0.147 -1.1664666,0.62107 l 0.4925666,0.3375 c 0.4260667,-0.17367 0.4974667,-0.369 0.7334,-0.37677 0.2665337,-0.009 0.3570997,-0.17367 0.6653337,-0.17407 0.350166,0.0637 0.824466,-0.0435 1.102333,-0.10566 0.492767,-0.11467 0.258333,-0.459 -0.04033,-0.58387 -0.241534,-0.10283 -0.693667,-0.004 -0.9744,-0.1058 -0.2125,-0.0825 -0.03767,-0.21513 0.07643,-0.24347 0.115333,-0.0213 0.239,0.0165 0.382467,0.0395 0.256,0.0221 0.577666,-0.002 0.802433,-0.0377 0.4648,-0.072 0.4452,-0.20833 0.669667,-0.212 0.163666,-0.008 0.288233,-0.0568 0.399666,-0.13687 0.131067,-0.0877 0.267334,-0.26753 0.426167,-0.26076 l 0.425167,0.018 -0.598867,1.34683 -1.691867,1.72207 -0.8762,0.33233 -1.9259997,-1.25377 -0.9712,-1.48966 0.1551334,-0.0403 z"
     id="path10"
     inkscape:connector-curvature="0"
     style="fill:#fdf9a1;fill-rule:evenodd;stroke-width:0.03333334" />
  <path
     d="m 10.058233,9.73123 3.8672,-0.018 0.068,-0.34266 c 0,0 -0.138,-0.0206 -0.249333,-0.0271 C 13.6053,9.33447 13.3673,9.4887 13.207867,9.4878 13.0951,9.48697 12.965867,9.28513 12.852967,9.28933 12.655833,9.28733 12.6383,9.4649 12.452567,9.46977 12.302667,9.46477 12.2388,9.35017 12.0447,9.36153 11.841133,9.37303 11.8563,9.48507 11.599133,9.4787 11.259467,9.4707 11.123133,9.1755 10.851367,9.1722 10.3978,9.1672 10.383033,9.60503 10.0582,9.7312 Z"
     id="path12"
     inkscape:connector-curvature="0"
     style="fill:#179a3b;fill-rule:evenodd;stroke-width:0.03333334" />
  <path
     d="M 10.058233,9.81387 14.0387,9.79357 V 9.68544 l -4.071,0.0203 0.090567,0.10814 z"
     id="path14"
     inkscape:connector-curvature="0"
     style="fill:#fdf9a1;fill-rule:evenodd;stroke-width:0.03333334" />
  <path
     d="m 11.693933,11.0101 c 0.06133,0.2351 0.126,0.315 0.3732,0.375 0.2442,0.06 0.616734,-0.17807 0.385234,-0.4079 C 12.231933,10.76337 12.0003,10.70907 11.8028,10.51653 11.387133,10.10587 10.760967,9.09977 10.760367,8.3902 c -5e-4,-0.60927 -0.05927,-1.85987 -0.05967,-3.04433 3.33e-4,-0.0768 -0.231467,0.21516 -0.2311,0.29316 0.01067,1.045 0.009,1.83477 0.05147,2.8885 0.06583,0.77027 0.433433,1.28894 0.756166,1.75707 0.1446,0.22433 0.3536,0.46623 0.416734,0.72557 z"
     id="path16"
     inkscape:connector-curvature="0"
     style="fill:#a79270;fill-rule:evenodd;stroke-width:0.03333334" />
  <text
     font-size="25.614"
     y="8.3452454"
     x="8.5177212"
     id="text20"
     style="font-size:1.13555396px;font-family:helvetica;fill:#bd0728;stroke:#ffffff;stroke-width:0.072618">
    <tspan
       id="tspan18"
       style="stroke-width:0.072618">G</tspan>
  </text>
  <text
     font-size="25.614"
     y="8.3505859"
     x="9.5352154"
     id="text24"
     style="font-size:1.13555396px;font-family:helvetica;fill:#bd0728;stroke:#ffffff;stroke-width:0.072618">
    <tspan
       id="tspan22"
       style="stroke-width:0.072618">U</tspan>
  </text>
  <text
     font-size="25.614"
     y="8.349823"
     x="10.776015"
     id="text28"
     style="font-size:1.13555396px;font-family:helvetica;fill:#bd0728;stroke:#ffffff;stroke-width:0.072618">
    <tspan
       id="tspan26"
       style="stroke-width:0.072618">A</tspan>
  </text>
  <text
     font-size="25.614"
     y="8.3476868"
     x="11.816917"
     id="text32"
     style="font-size:1.13555396px;font-family:helvetica;fill:#bd0728;stroke:#ffffff;stroke-width:0.072618">
    <tspan
       id="tspan30"
       style="stroke-width:0.072618">M</tspan>
  </text>
  <path
     d="M 8.6541,5.3631 C 8.602767,5.4622 8.7743,5.3342 8.8131667,5.3204 9.0355,5.2413 9.1226,4.96043 9.5056,5.12953 9.8071,5.25977 10.211833,5.18403 10.000267,5.31597 9.7388667,5.47243 9.2182,5.64583 9.2079333,6.42187 c 0.043533,0.0759 0.046667,0.0639 0.083,-0.0174 0.079133,-0.18086 0.4565,-0.67206 0.6432334,-0.6312 0.075166,0.0195 0.2959003,-0.222 0.3010663,-0.15306 0.02,0.1938 -0.2997663,0.58583 -0.296333,1.1106 7.667e-4,0.12153 0.150267,0.1609 0.222333,0.0754 0.0716,-0.0754 0.111934,-0.15334 0.237334,-0.2524 0.221766,-0.182 0.160566,-0.95367 0.187933,-0.9174 0.157,0.20323 0.181067,0.77643 0.4149,1.01153 0.194333,0.19533 0.3514,0.10183 0.309,-0.16953 -0.0844,-0.544 -0.341533,-0.38847 -0.4639,-0.9511 -0.02487,-0.1096 -0.031,-0.2086 0.1141,-0.16277 0.177333,0.0514 0.281467,0.1338 0.4138,0.3339 0.132267,0.19087 0.380333,0.37377 0.523667,0.48607 0.250133,0.1922 0.337933,0.0244 0.2186,-0.22227 -0.1321,-0.27673 -0.429934,-0.5062 -0.700767,-0.60657 -0.2052,-0.0709 -0.278333,-0.0777 -0.459133,-0.11233 -0.05027,-0.0107 -0.102167,-0.11367 -0.01283,-0.1705 0.191467,-0.117 0.420567,-0.24923 0.652834,-0.2559 0.223666,-0.006 0.4008,0.1736 0.557666,0.21847 0.312734,0.082 0.311134,-0.11654 0.173267,-0.26377 -0.1132,-0.12433 -0.352733,-0.3328 -0.576333,-0.30513 -0.451267,0.0553 -0.4228,0.0427 -0.699567,0.22633 -0.101567,0.0598 -0.214333,0.12587 -0.172233,0.0533 0.101266,-0.1822 0.0069,-0.1509 0.163333,-0.33626 0.121667,-0.13584 0.211,-0.2336 0.3316,-0.2675 0.114567,-0.0276 0.265867,-0.14927 0.312667,-0.211 0.1124,-0.15547 0.0155,-0.2442 -0.158167,-0.19214 -0.150733,0.0415 -0.2318,0.1418 -0.3354,0.16954 -0.243,0.0766 -0.439133,0.6326 -0.469067,0.71133 -0.03873,0.0941 -0.08157,0.0475 -0.07367,-0.0322 0.0351,-0.3926 0.06827,-1.04993 -0.07033,-1.32053 -0.208733,-0.399 -0.1894,-0.21294 -0.269533,-0.0236 -0.120667,0.3008 -0.07873,0.58116 -0.0028,0.876 0.0332,0.14713 0.156467,0.31456 0.178567,0.43006 0.0159,0.0907 -0.05267,-0.0283 -0.09257,-0.0827 C 10.263201,4.2666 10.167368,4.13097 9.953968,4.0218 9.8082013,3.9295 9.415468,3.91707 9.2787347,3.9591 c -0.0592,0.0182 0.065667,0.10266 0.1185333,0.14466 0.1430667,0.11377 0.4142,0.1492 0.5966667,0.26134 0.1566663,0.0963 0.2759333,0.15833 0.3278663,0.29143 0.02167,0.0989 0.05373,0.2456 -0.0114,0.242 -0.170933,-0.01 -0.436533,-0.15767 -0.9818997,-0.0969 -0.2785,0.0369 -0.5203333,0.2751 -0.6744333,0.56144 z"
     id="path34"
     inkscape:connector-curvature="0"
     style="fill:#239e46;fill-rule:evenodd;stroke-width:0.03333334" />
  <path
     d="M 9.8426667,10.35193 H 10.0009 v 0.26374 H 9.8426667 Z"
     id="path36"
     inkscape:connector-curvature="0"
     style="fill-rule:evenodd;stroke-width:0.03333334" />
  <path
     d="M 9.0570667,8.595 C 9.6845667,9.46387 10.6904,9.97043 10.7105,10.365 10.075033,10.363 9.3861667,10.36533 8.7507,10.363 9.2009667,9.82166 9.4753667,9.45616 9.0571,8.5951 Z"
     id="path38"
     inkscape:connector-curvature="0"
     style="fill:#fdf9ff;fill-rule:evenodd;stroke-width:0.03333334" />
  <path
     d="m 8.4865,10.38473 c 0.8525333,0.19007 1.870333,0.29484 2.5204,-0.0266 0.0053,0.19 -0.211333,0.46357 -0.389,0.46357 H 8.982 c 0.19,-0.0272 0.2983333,-0.0852 0.6075333,-0.10123 l -0.8685,0.0107 c -0.095933,0.004 -0.2665,-0.25406 -0.2345333,-0.3464 z"
     id="path40"
     inkscape:connector-curvature="0"
     style="fill:#a68861;fill-rule:evenodd;stroke-width:0.03333334" />
  <path
     d="m 10.4199,14.16857 c 0.08667,0.0475 0.223667,0.045 0.300767,0.004 4.925433,-2.62167 4.9281,-9.81094 0.0072,-12.396 -0.09147,-0.0482 -0.224334,-0.0456 -0.315167,0.004 -4.7995,2.62734 -4.8123333,9.7352 0.0072,12.38857 z m 0.02447,-0.59184 c 0.07573,0.0419 0.195266,0.0397 0.2626,0.003 4.122866,-2.42643 4.173333,-8.83653 0.0063,-11.13433 -0.07977,-0.0586 -0.195766,-0.0402 -0.275066,0.003 -3.948667,2.3351 -4.168867,8.48093 0.0062,11.12767 z"
     id="path42"
     inkscape:connector-curvature="0"
     style="fill:#be0027;fill-rule:evenodd;stroke-width:0.03333334" />
  <text
     font-size="25.614"
     y="8.3452454"
     x="8.5177212"
     id="text46"
     style="font-size:1.13555396px;font-family:helvetica;fill:#bd0728;stroke-width:0.04433334">
    <tspan
       id="tspan44"
       style="stroke-width:0.04433334">G</tspan>
  </text>
  <text
     font-size="25.614"
     y="8.3505859"
     x="9.5352154"
     id="text50"
     style="font-size:1.13555396px;font-family:helvetica;fill:#bd0728;stroke-width:0.04433334">
    <tspan
       id="tspan48"
       style="stroke-width:0.04433334">U</tspan>
  </text>
  <text
     font-size="25.614"
     y="8.349823"
     x="10.776015"
     id="text54"
     style="font-size:1.13555396px;font-family:helvetica;fill:#bd0728;stroke-width:0.04433334">
    <tspan
       id="tspan52"
       style="stroke-width:0.04433334">A</tspan>
  </text>
  <text
     font-size="25.614"
     y="8.3476868"
     x="11.816917"
     id="text58"
     style="font-size:1.13555396px;font-family:helvetica;fill:#bd0728;stroke-width:0.04433334">
    <tspan
       id="tspan56"
       style="stroke-width:0.04433334">M</tspan>
  </text>
</svg>
