<?xml version="1.0" encoding="UTF-8" standalone="no"?>
<svg
   xmlns:dc="http://purl.org/dc/elements/1.1/"
   xmlns:cc="http://creativecommons.org/ns#"
   xmlns:rdf="http://www.w3.org/1999/02/22-rdf-syntax-ns#"
   xmlns:svg="http://www.w3.org/2000/svg"
   xmlns="http://www.w3.org/2000/svg"
   xmlns:xlink="http://www.w3.org/1999/xlink"
   xmlns:sodipodi="http://sodipodi.sourceforge.net/DTD/sodipodi-0.dtd"
   xmlns:inkscape="http://www.inkscape.org/namespaces/inkscape"
   height="16"
   width="21.333332"
   viewBox="0 0 21.333332 16"
   version="1.1"
   id="svg224"
   sodipodi:docname="ht.svg"
   inkscape:version="0.92.1 r">
  <metadata
     id="metadata230">
    <rdf:RDF>
      <cc:Work
         rdf:about="">
        <dc:format>image/svg+xml</dc:format>
        <dc:type
           rdf:resource="http://purl.org/dc/dcmitype/StillImage" />
        <dc:title></dc:title>
      </cc:Work>
    </rdf:RDF>
  </metadata>
  <defs
     id="defs228" />
  <sodipodi:namedview
     pagecolor="#ffffff"
     bordercolor="#666666"
     borderopacity="1"
     objecttolerance="10"
     gridtolerance="10"
     guidetolerance="10"
     inkscape:pageopacity="0"
     inkscape:pageshadow="2"
     inkscape:window-width="1920"
     inkscape:window-height="1024"
     id="namedview226"
     showgrid="false"
     fit-margin-top="0"
     fit-margin-left="0"
     fit-margin-right="0"
     fit-margin-bottom="0"
     inkscape:zoom="0.49166667"
     inkscape:cx="320"
     inkscape:cy="240"
     inkscape:window-x="0"
     inkscape:window-y="0"
     inkscape:window-maximized="1"
     inkscape:current-layer="svg224" />
  <path
     d="M 0,0 H 21.333333 V 16 H 0 Z"
     id="path2"
     inkscape:connector-curvature="0"
     style="fill:#d21034;stroke-width:0.03333334" />
  <path
     d="M 0,0 H 21.333333 V 8 H 0 Z"
     id="path4"
     inkscape:connector-curvature="0"
     style="fill:#00209f;stroke-width:0.03333334" />
  <g
     id="g222"
     transform="scale(0.03333333)"
     style="fill:#f1b517;stroke:#000000;stroke-width:0.183">
    <path
       d="M 244.286,179.654 H 395.714 V 300.2 H 244.286 Z"
       id="path6"
       inkscape:connector-curvature="0"
       style="fill:#ffffff;stroke:none" />
    <path
       d="m 350.475,266.826 -30.902,0.897 -30.764,0.35 c 0,0 -15.806,5.845 -22.266,7.157 -6.442,1.308 -5.605,3.424 -10.59,4.538 -3.992,0.892 -4.453,1.174 -6.796,1.328 -1.417,0.093 -3.163,1.183 -4.87,2.385 v 16.72 h 151.425 v -15.902 c -1.64,-0.895 -3.205,-1.51 -4.806,-2.054 -2.224,-0.757 -3.724,-1.584 -7.716,-2.476 -4.984,-1.114 -4.147,-3.23 -10.588,-4.538 -6.46,-1.312 -22.127,-8.404 -22.127,-8.404 z"
       id="path8"
       inkscape:connector-curvature="0"
       style="fill:#016a16;stroke:#016a16;stroke-width:0.29300001" />
    <g
       transform="matrix(1.6,0,0,1.6,-80,0)"
       id="g65">
      <g
         id="a">
        <path
           d="m 244.53,143.512 1.396,-0.033 2.555,10.748 -0.544,3.386 -3.407,-14.102 z"
           id="path10"
           inkscape:connector-curvature="0" />
        <path
           d="m 243.064,136.346 0.954,8.284 1.022,-0.066 z"
           id="path12"
           inkscape:connector-curvature="0"
           style="fill:#ffffff" />
        <path
           d="m 245.722,154.59 -4.293,-11.54 1.6,-0.098 5.01,14.102 -2.318,-2.465 z"
           id="path14"
           inkscape:connector-curvature="0" />
        <path
           d="m 239.42,136.477 1.77,8.02 h 1.432 l -3.203,-8.02 z"
           id="path16"
           inkscape:connector-curvature="0"
           style="fill:#ffffff" />
        <path
           d="m 241.906,150.546 -2.52,-5.424 1.09,-0.23 4.6,9.007 -3.17,-3.354 z"
           id="path18"
           inkscape:connector-curvature="0" />
        <path
           d="m 236.08,138.778 2.794,7.626 h 1.43 z"
           id="path20"
           inkscape:connector-curvature="0"
           style="fill:#ffffff" />
        <path
           d="M 242.25,151.364 230.813,138.88 c -3.57,2.828 -2.908,8.02 -2.908,8.02 l 12.957,10.167 1.387,-5.703 z"
           id="path22"
           inkscape:connector-curvature="0"
           style="fill:#0a328c" />
        <path
           d="m 248.86,158.235 -8.482,-8.594 c -3.587,0.126 -0.74,5.48 -0.56,6.153 l 9.043,7.734 v -5.292 z"
           id="path24"
           inkscape:connector-curvature="0"
           style="fill:#d20014" />
        <path
           d="m 248.14,156.757 -17.54,-18.78 -0.685,0.483 18.56,20.622 -0.336,-2.325 z m -18.554,-19.985 -0.385,-0.446 0.04,-0.89 -3.62,-2.304 1.617,3.64 1.232,0.223 0.384,0.446 0.732,-0.668 z"
           id="path26"
           inkscape:connector-curvature="0" />
        <path
           d="m 227.738,138.11 c 0.616,-0.743 1.348,-1.486 2.657,-2.192 l 1,1.45 -2.155,1.82 z"
           id="path28"
           inkscape:connector-curvature="0" />
        <path
           d="m 225.81,141.278 0.59,1.026 c 0.363,-0.135 4.03,-3.457 4.03,-3.457 l 2.632,-0.08 0.756,-0.838 c -1.932,-2.08 -3.752,0.296 -3.752,0.296 l -4.255,3.052 z"
           id="path30"
           inkscape:connector-curvature="0"
           style="fill:#0a328c;stroke:#0a328c" />
        <path
           d="m 227.91,143.007 c 0.14,-0.918 1.877,-3.214 2.13,-3.295 1.302,0.39 2.514,1.14 3.834,-1.837 -1.148,1.46 -3.47,-0.027 -3.47,-0.027 l -1.01,0.838 0.03,0.405 -3.053,2.837 1.54,1.08 z"
           id="path32"
           inkscape:connector-curvature="0"
           style="fill:#d20014;stroke:#d20014" />
        <g
           id="g46">
          <path
             d="m 237.252,154.672 -14.367,-11.41 c -2.46,2.502 -0.415,10.23 -0.415,10.23 l 14.043,7.608 0.74,-6.428 z"
             id="path34"
             inkscape:connector-curvature="0"
             style="fill:#0a328c" />
          <path
             d="m 249.166,163.917 -11.818,-9.467 c -4.036,0.566 -0.864,6.506 -0.623,7.16 l 12.48,6.77 -0.04,-4.463 z"
             id="path36"
             inkscape:connector-curvature="0"
             style="fill:#d20014" />
          <path
             d="m 248.697,162.005 -25.554,-19.182 -0.587,0.59 26.837,20.956 -0.696,-2.365 z m -26.769,-20.198 -0.46,-0.374 -0.122,-0.885 -3.98,-1.662 2.25,3.314 1.253,0.014 0.458,0.374 0.6,-0.78 z"
             id="path38"
             inkscape:connector-curvature="0" />
          <path
             d="m 220.35,143.433 c 0.472,-0.835 1.06,-1.69 2.22,-2.603 l 1.247,1.26 -1.795,2.152 -1.673,-0.81 z"
             id="path40"
             inkscape:connector-curvature="0" />
          <path
             d="m 218.925,146.64 0.16,1.06 c 0.337,-0.187 3.56,-3.725 3.56,-3.725 l 2.586,-0.477 0.528,-0.833 c -1.797,-2.114 -3.713,0.698 -3.713,0.698 l -3.12,3.278 z"
             id="path42"
             inkscape:connector-curvature="0"
             style="fill:#0a328c;stroke:#0a328c" />
          <path
             d="m 220.97,148.545 c -0.122,-0.982 1.22,-3.863 1.456,-3.98 1.547,0.46 2.894,1.152 3.462,-2.07 -0.897,1.614 -3.46,0.363 -3.46,0.363 l -0.86,0.98 0.12,0.53 -2.61,3.37 1.893,0.807 z"
             id="path44"
             inkscape:connector-curvature="0"
             style="fill:#d20014;stroke:#d20014" />
        </g>
        <g
           id="g60">
          <path
             d="m 236.224,161.65 c -0.19,-0.045 -18.517,-10.44 -18.517,-10.44 -1.334,2.25 -0.128,5.52 0.457,6.028 0.034,1.5 -0.602,2.306 0.707,5.44 0.387,2.035 1.33,3.912 2.7,5.026 1.672,6.417 8.223,6.848 10.747,1.624 l 3.907,-7.677 z"
             id="path48"
             inkscape:connector-curvature="0"
             style="fill:#0a328c" />
          <path
             d="m 248.352,168.512 -12.548,-7.355 c -4.036,0.567 0.085,8.056 0.326,8.71 l 12.116,4.304 0.106,-5.658 z"
             id="path50"
             inkscape:connector-curvature="0"
             style="fill:#d20014" />
          <path
             d="m 246.243,165.846 -28.35,-15.09 -0.484,0.673 29.904,16.646 -1.07,-2.23 z m -29.715,-15.909 -0.514,-0.3 -0.265,-0.856 -4.2,-1.04 2.757,2.935 1.24,-0.177 0.515,0.3 0.466,-0.86 z"
             id="path52"
             inkscape:connector-curvature="0" />
          <path
             d="m 215.232,151.782 c 0.332,-0.896 0.773,-1.828 1.772,-2.907 l 1.436,1.056 -1.425,2.4 -1.783,-0.548 z"
             id="path54"
             inkscape:connector-curvature="0" />
          <path
             d="m 214.1,155.18 0.593,1.168 c 0.307,-0.232 3.004,-4.578 3.004,-4.578 l 2.492,-0.82 0.468,-1.014 c -2.002,-1.85 -3.498,1.342 -3.498,1.342 l -3.06,3.903 z"
             id="path56"
             inkscape:connector-curvature="0"
             style="fill:#0a328c;stroke:#0a328c" />
          <path
             d="m 216.772,156.836 c -0.2,-1 0.484,-4.197 0.7,-4.345 1.56,0.466 2.863,0.598 3.223,-2.62 -0.907,1.528 -3.328,0.952 -3.328,0.952 l -0.71,1.085 0.15,0.38 -2.06,3.95 2.025,0.6 z"
             id="path58"
             inkscape:connector-curvature="0"
             style="fill:#d20014;stroke:#d20014" />
        </g>
      </g>
      <use
         height="100%"
         width="100%"
         xlink:href="#a"
         transform="matrix(-1,0,0,1,499.86,0)"
         id="use63"
         x="0"
         y="0" />
    </g>
    <g
       transform="matrix(1.6,0,0,1.6,-80,0)"
       id="g100">
      <path
         d="m 248.757,125.603 -0.465,9.07 h 2.9 l -0.425,-8.992 3.023,-0.423 -0.335,-3.582 -7.51,0.29 0.04,3.253 2.772,0.385 z"
         id="path67"
         inkscape:connector-curvature="0"
         style="fill:#016a16;stroke:#016a16" />
      <g
         id="b"
         style="fill:#016a16">
        <path
           d="m 249.817,121.898 c -7.764,-7.77 -13.878,-3.98 -15.334,-2.902 0.963,0.187 1.826,-0.412 2.273,-0.48 -0.28,0.353 -0.865,1.23 -0.865,1.23 0,0 2.4,-1.135 2.67,-1.03 -0.347,0.275 -0.728,0.935 -0.728,0.935 0.178,0.07 1.528,-1.056 1.795,-1.076 -0.41,0.466 -0.54,1.528 -0.54,1.528 l 1.17,-0.545 c 0.305,0.216 -0.084,0.63 0.18,0.61 1.945,-0.16 4.678,1.776 5.054,2.37"
           id="path69"
           inkscape:connector-curvature="0" />
        <path
           d="m 247.895,123.32 c -0.81,-1.853 -15.588,-5.004 -18.56,0.245 1.164,0.293 2.276,-0.976 2.276,-0.976 l -0.1,1.17 1.972,-1.512 -0.708,1.56 1.568,-1.268 -0.05,1.27 1.92,-2.1 -0.252,1.22 1.72,-0.73 -0.203,1.023"
           id="path71"
           inkscape:connector-curvature="0" />
        <path
           d="m 247.238,123.614 c -3.793,-2.537 -9.66,-0.83 -9.66,-0.83 -3.74,2.1 -5.736,1.72 -6.22,5.61 0.355,-0.145 1.366,-1.365 1.366,-1.365 l 0.76,1.512 0.25,-2.147 0.608,1.66 0.91,-2.733 0.203,1.854 1.416,-1.854 0.658,0.536 0.607,-1.415 0.556,0.927 c 0,0 0.962,-0.585 1.52,-0.244 l 1.06,-1.22 0.253,0.88 0.91,-1.074 0.355,0.78 0.91,-0.83 -0.05,0.586 3.135,0.05"
           id="path73"
           inkscape:connector-curvature="0" />
        <path
           d="m 246.38,124.053 c -2.643,-0.05 -10.226,2.812 -12.188,5.806 a 13.29,13.29 0 0 1 1.263,-0.636 l 0.387,1.203 0.473,-1.203 0.1,0.927 c 0.29,-0.723 0.618,-0.805 1.164,-0.048 l 0.2,-1.122 0.305,1.073 0.505,-1.17 c 0,0 0.318,1.27 0.506,1.22 0,0 0.838,-2.195 1.214,-2.294 l 0.1,1.365 0.506,-1.366 0.456,1.024 0.1,-1.464 0.506,1.122 c 0,0 0.266,-1.103 0.658,-1.317 l 0.758,0.683 3.378,-2.427"
           id="path75"
           inkscape:connector-curvature="0" />
        <path
           d="m 246.888,124.678 c -3.52,1.35 -6.67,6.18 -6.43,8.226 1.565,-1.94 1.23,-1.674 1.928,0.56 0,0 0.264,-1.955 0.53,-2.187 l 0.46,1.446 0.17,-1.892 0.47,0.023 -0.12,-1.187 0.698,0.535 c -0.163,-0.677 -0.338,-0.906 0.386,-1.488 0,0 -0.917,0.117 -0.193,-1.535 l 0.675,0.65 c 0,0 -0.12,-0.72 0.12,-1 l 2.485,-0.86"
           id="path77"
           inkscape:connector-curvature="0" />
        <path
           d="m 247.23,125.04 -1.33,2.534 0.68,0.197 -1.534,1.153 1.296,-0.132 c 0,0 -1.978,0.725 -2.217,2.666 l 2.013,-0.888 c 0,0 -1.706,1.744 -1.945,2.797 l 1.16,-1.02 c 0,0 -1.125,1.217 -0.955,3.06 l 0.853,-0.954 c -0.204,2.238 -0.136,2.436 0.888,4.147 0,0 -0.273,-2.633 0.034,-2.962 l 2.25,2.337 -1.26,-3.324 c 0,0 1.397,2.106 2.25,1.91 l -1.774,-2.7 1.74,1.415 -1.978,-2.96 1.84,0.558 c 0,0 -1.33,-1.677 -1.227,-2.73 l 1.262,1.382 c 0,0 -0.477,-1.58 -0.34,-2.04 l 0.647,0.132 -1.262,-1.448 0.853,-0.165 -0.102,-0.953 0.615,-0.197 -0.034,-1.053 m -1.093,-0.005 c -2.184,2.96 -1.058,7.535 -2.354,9.87"
           id="path79"
           inkscape:connector-curvature="0" />
      </g>
      <use
         height="100%"
         width="100%"
         xlink:href="#b"
         transform="matrix(-1,0,0,1,499.86,0)"
         id="use82"
         x="0"
         y="0" />
      <path
         d="m 250.945,166.535 c 0,0 1.19,-9.945 1.186,-14.225 0,-3.37 -0.813,-10.835 -0.813,-10.835 H 247.9 c 0,0 -0.52,7.43 -0.442,10.79 0.1,4.28 1.186,14.27 1.186,14.27 h 2.3 z"
         id="path84"
         inkscape:connector-curvature="0" />
      <path
         d="m 247.674,141.953 h 3.96 l -0.465,-2.666 h -2.87 l -0.626,2.666 z"
         id="path86"
         inkscape:connector-curvature="0" />
      <path
         d="m 247.927,139.816 h 3.54 l -0.668,-2.666 h -2.18 l -0.693,2.666 z"
         id="path88"
         inkscape:connector-curvature="0" />
      <path
         d="m 248.155,137.655 h 2.95 l -0.5,-2.666 h -1.876 l -0.575,2.665 z"
         id="path90"
         inkscape:connector-curvature="0" />
      <path
         d="m 250.71,134.673 h -2.064 l -0.21,0.964 h 2.442 l -0.17,-0.964 z m 0.422,29.694 h -2.62 m 2.763,-1.947 h -2.94 m 3.329,-1.976 h -3.727 m 3.919,-2.154 h -3.9 m 3.927,-2.15 h -4.102 m 4.262,-1.97 h -4.45 m 4.46,-1.79 h -4.65 m 4.622,-2.16 h -4.65 m 4.495,-2.136 h -4.495 m 4.289,-2.17 H 247.6 m 3.867,-1.959 h -3.672"
         id="path92"
         inkscape:connector-curvature="0" />
      <path
         d="m 249.91,119.044 c -0.69,-0.324 -2.246,-1.313 -1.784,-1.903 l 0.713,-1.213 c 1.01,-2.277 -0.02,-1.395 -0.127,-2.106 -0.103,-0.68 3.865,-0.148 3.924,1.398 0.016,0.426 -0.295,0.176 -0.252,2.61 l -0.755,1.46 c -0.565,0.052 -1.234,-0.015 -1.72,-0.244 z"
         id="path94"
         inkscape:connector-curvature="0"
         style="fill:#0a328c;stroke:#0a328c" />
      <path
         d="m 250.392,124.934 -0.986,-0.83 0.273,-7.105 0.964,0.282 -0.252,7.652 z"
         id="path96"
         inkscape:connector-curvature="0" />
      <path
         d="m 251.672,119.246 c 0.62,-0.362 1.024,-1.443 0.65,-2.085 -1.016,-1.286 -1.673,-0.755 -3.378,-1.335 -0.34,0.362 -1.055,1.06 -0.902,1.58 2.242,1.055 1.372,0.155 2.114,0.287 0.4,0.07 0.658,0.545 1.516,1.554 z"
         id="path98"
         inkscape:connector-curvature="0"
         style="fill:#d20014;stroke:#d20014" />
    </g>
    <g
       transform="matrix(1.6,0,0,1.6,-80,0)"
       id="g208">
      <use
         height="100%"
         width="100%"
         xlink:href="#c"
         transform="matrix(1,0,0,-1,-0.002,320.37)"
         id="use102"
         x="0"
         y="0" />
      <path
         d="m 238.358,161.75 c 0,1.3 -0.815,2.353 -1.818,2.353 -1.004,0 -1.82,-1.054 -1.82,-2.353 v -1.276 h 3.638 z"
         id="path104"
         inkscape:connector-curvature="0"
         style="fill:#016a16;stroke:#ffffff;stroke-width:0.18099999;stroke-linecap:round" />
      <ellipse
         cx="236.539"
         cy="160.063"
         rx="1.806"
         ry="0.898"
         id="ellipse106"
         style="fill:#ffffff;stroke:none" />
      <path
         d="m 236.126,161.075 -0.31,-3.297 h 1.382 l -0.226,3.297 z"
         id="path108"
         inkscape:connector-curvature="0"
         style="fill:#016a16;stroke:#f1b517" />
      <path
         id="c"
         d="m 238.538,160.118 c -0.265,0.493 -1.06,0.852 -2,0.852 -0.937,0 -1.727,-0.36 -1.992,-0.852 a 0.756,0.756 0 0 0 -0.1,0.36 c 0,0.668 0.938,1.21 2.093,1.21 1.154,0 2.09,-0.542 2.09,-1.21 a 0.748,0.748 0 0 0 -0.092,-0.36 z"
         inkscape:connector-curvature="0"
         style="fill:#016a16;stroke:#ffffff;stroke-width:0.237;stroke-linecap:round" />
      <g
         id="d">
        <path
           d="m 246.035,172.786 -7.06,-2.19 -3.076,-5.254 -10.894,-0.535 0.378,3.94 9.28,1.777 0.882,1.58 10.666,2.97 -0.177,-2.288 z"
           id="path111"
           inkscape:connector-curvature="0" />
        <path
           d="m 238.662,174.254 -11.149,-16.398 -0.547,0.41 11.06,16.468 z"
           id="path113"
           inkscape:connector-curvature="0"
           style="fill:#503200" />
        <path
           d="m 228.55,158.5 -1.19,-1.992 c -0.222,-0.368 -0.56,-0.49 -1.058,-0.228 -0.484,0.255 -0.437,0.76 -0.24,1.123 l 1.1,1.852 1.39,-0.755 z"
           id="path115"
           inkscape:connector-curvature="0"
           style="fill:#ffffff" />
        <path
           d="m 239.986,164.127 -22.496,-2.286 -0.547,3.272 22.387,2.25 0.656,-3.235 z"
           id="path117"
           inkscape:connector-curvature="0" />
        <path
           d="m 217.09,160.997 -0.584,4.538 h 0.948 l 0.656,-4.15 z m 3.754,0.738 -0.255,4.08 0.582,0.07 0.474,-3.622 -0.802,-0.528 z m 15.241,1.759 -0.547,3.834 1.094,-0.035 0.437,-3.8 h -0.985 z m 3.351,0.106 -0.78,4.433 1.24,0.18 0.353,-2.332 c 0.1,0.47 0.53,0.825 1.045,0.825 0.59,0 1.07,-0.464 1.07,-1.032 0,-0.568 -0.48,-1.026 -1.07,-1.026 -0.41,0 -0.78,0.24 -0.94,0.687 l 0.23,-1.662 -1.15,-0.073 z m -8.119,0.72 -3.094,3.48 0.36,0.424 3.972,-2.71 -1.238,-1.195 z m -7.193,8.68 3.094,-3.482 -0.36,-0.423 -3.972,2.71 z m 8.096,-0.87 -3.764,-2.91 -0.387,0.272 2.964,3.756 1.186,-1.12 z m -9.282,-6.717 3.816,2.81 0.464,-0.348 -2.99,-3.755 z m 4.152,-2.319 0.365,4.573 0.513,-0.022 1.207,-4.452 -2.085,-0.1 z m 1.25,11.096 -0.364,-4.574 -0.565,-0.053 -0.69,4.626 h 1.62 z m 5.06,-6.164 -4.794,0.51 -0.073,0.457 4.85,0.634 0.018,-1.6 z m -11.407,1.584 4.68,-0.74 0.1,-0.365 -4.842,-0.54 0.063,1.644 z"
           id="path119"
           inkscape:connector-curvature="0" />
        <ellipse
           cx="227.69299"
           cy="168.548"
           rx="1.27"
           ry="1.225"
           id="ellipse121" />
        <path
           d="m 234.438,168.548 c 0,3.592 -3.022,6.507 -6.745,6.507 -3.723,0 -6.745,-2.915 -6.745,-6.507 0,-3.592 3.022,-6.507 6.745,-6.507 3.723,0 6.745,2.916 6.745,6.508 z m -1.347,0 c 0,2.874 -2.418,5.207 -5.397,5.207 -2.98,0 -5.398,-2.333 -5.398,-5.207 0,-2.874 2.42,-5.207 5.398,-5.207 2.98,0 5.398,2.334 5.398,5.208 z"
           id="path123"
           inkscape:connector-curvature="0"
           style="fill-rule:evenodd;stroke-linecap:round" />
        <path
           d="m 223.48,165.264 -1.057,-0.796 m 8.611,0.025 0.902,-0.92 m 1.031,9.127 -1.11,-0.87 m -8.377,1.866 0.954,-1.02 m 21.762,-10.554 1.155,5.886 -0.94,0.497 -1.015,-6.3 z"
           id="path125"
           inkscape:connector-curvature="0" />
        <path
           d="m 245.592,161.364 c -0.535,-0.224 -1.232,0.155 -2.374,-1.292 -1.878,1.723 -0.107,1.98 0.18,3.686 0.53,0.218 0.857,-1.323 2.3,-1.48 0.18,-0.02 2.3,-0.204 2.3,-0.204 l -0.533,-0.726 c 0,0 -1.474,0.04 -1.873,0.016 z"
           id="path127"
           inkscape:connector-curvature="0"
           style="fill:#ffffff" />
        <path
           d="m 246.36,162.518 -0.215,-1.756 c -0.232,-0.62 -1,-0.087 -1,0.275 l 0.197,1.62 1.017,-0.14 z"
           id="path129"
           inkscape:connector-curvature="0"
           style="fill:#ffffff" />
        <path
           d="m 240.765,167.372 0.02,1.637 c -0.537,0.182 -0.455,0.584 -0.438,1.167 l 0.02,4.772 c -0.19,0.315 -0.78,0.33 -1.055,0.578 -0.277,0.248 -0.242,0.73 1.02,1.047 l 0.975,0.035 c 1.486,-0.325 1.793,-0.818 1.048,-1.095 -0.397,-0.148 -0.92,-0.324 -1.117,-0.557 l 0.033,-1.137 0.965,0.036 c 0.26,0 0.753,-0.652 0.77,-1.185 l 0.005,-2.47 c -0.035,-1.4 -1.085,-1.558 -1.38,-1.54 l 0.02,-1.29 -0.885,0.002 z m 1.63,2.73 c 0.018,-0.4 -0.555,-0.757 -0.786,-0.767 -0.23,-0.01 -0.735,0.467 -0.752,0.867 v 1 c 0.034,0.367 0.327,1.61 0.915,1.7 0.28,0.044 0.64,-0.4 0.64,-0.766 z"
           id="path131"
           inkscape:connector-curvature="0"
           style="fill-rule:evenodd" />
        <path
           d="m 234.275,172.328 c -0.636,-0.257 -0.63,1.172 -0.63,1.172 l 1.002,0.01 c 0.44,0.2 0.792,0.843 0.512,1.16 -0.232,0.26 -2.178,-0.442 -2.31,-0.038 0.345,1.94 2.918,2.688 3.85,1.84 0.91,-0.832 1.14,-3.05 -1.818,-3.63 l -0.607,-0.514 z m 0.595,0.528 -0.292,0.64"
           id="path133"
           inkscape:connector-curvature="0"
           style="fill:#ffffff" />
        <path
           d="m 214.943,173.055 -0.963,-4.05 m 2.132,3.817 -1.48,-3.153 m 4.026,2.324 -3.337,-1.792 m 4.782,1.427 -6.192,-2.688"
           id="path135"
           inkscape:connector-curvature="0" />
        <path
           d="m 210.215,166.013 c 0,0 -2.254,-0.036 -2.656,0.122 -0.163,0.064 0.566,0.825 0.415,1.115 -0.563,1.083 -4.394,0.934 -4.697,0.698 -0.52,-0.405 3.568,-0.753 3.595,-1.03 0.03,-0.315 -0.605,-1.145 -0.506,-1.654 0.128,-0.66 1.788,-0.907 1.788,-0.907 l 2.06,1.656 z"
           id="path137"
           inkscape:connector-curvature="0"
           style="fill:#d20014;stroke:#d20014" />
        <path
           d="m 213.233,168.05 -5.102,-4.222 c 0,0 -0.224,-0.238 -0.412,-0.033 -0.184,0.2 0.07,0.43 0.07,0.43 l 5.262,4.35 0.183,-0.525 z"
           id="path139"
           inkscape:connector-curvature="0"
           style="fill:#503200" />
        <path
           d="m 218.146,172.217 c -0.09,-0.087 -4.155,-3.608 -4.155,-3.608 l -0.27,-1.03 c 0,0 -0.628,0.426 -0.858,0.646 -0.23,0.22 -0.587,0.82 -0.587,0.82 l 1.138,0.05 3.595,3.295 1.138,-0.173 z"
           id="path141"
           inkscape:connector-curvature="0" />
        <g
           id="g167">
          <ellipse
             cx="232.534"
             cy="177.056"
             rx="0.74000001"
             ry="0.71499997"
             id="ellipse143" />
          <ellipse
             cx="230.64101"
             cy="175.716"
             rx="0.74000001"
             ry="0.71499997"
             id="ellipse145" />
          <ellipse
             cx="228.091"
             cy="176.593"
             rx="0.74000001"
             ry="0.71499997"
             id="ellipse147" />
          <ellipse
             cx="224.153"
             cy="177.44501"
             rx="0.74000001"
             ry="0.71499997"
             id="ellipse149" />
          <ellipse
             cx="222.487"
             cy="177.64"
             rx="0.74000001"
             ry="0.71499997"
             id="ellipse151" />
          <ellipse
             cx="220.84599"
             cy="177.64"
             rx="0.74000001"
             ry="0.71499997"
             id="ellipse153" />
          <ellipse
             cx="219.17999"
             cy="177.591"
             rx="0.74000001"
             ry="0.71499997"
             id="ellipse155" />
          <ellipse
             cx="219.98801"
             cy="176.325"
             rx="0.74000001"
             ry="0.71499997"
             id="ellipse157" />
          <ellipse
             cx="221.604"
             cy="176.39799"
             rx="0.74000001"
             ry="0.71499997"
             id="ellipse159" />
          <ellipse
             cx="223.144"
             cy="176.203"
             rx="0.74000001"
             ry="0.71499997"
             id="ellipse161" />
          <ellipse
             cx="222.36099"
             cy="174.961"
             rx="0.74000001"
             ry="0.71499997"
             id="ellipse163" />
          <ellipse
             cx="220.84599"
             cy="174.937"
             rx="0.74000001"
             ry="0.71499997"
             id="ellipse165" />
        </g>
        <path
           d="m 236.47,177.99 c 0,-0.315 -0.77,-0.18 -0.77,-0.55 0,-0.41 1.174,-0.11 1.336,0.253 0.66,-0.596 0.944,-0.16 1.348,0.02 0.575,-0.855 1.287,-0.823 1.98,-0.197 0.402,-0.443 1.41,-0.297 1.758,0.197 0.664,-0.66 1.255,-0.497 1.715,-0.02 0.186,-0.346 0.458,-0.27 0.654,-0.02 0.355,-0.628 1.243,-0.44 1.617,-0.024 0.332,-0.367 0.673,-0.08 1.114,0.19 0.298,-0.28 0.78,-0.228 0.78,0.05 0,0.288 -0.63,0.187 -0.63,0.473 0,0.256 0.46,0.127 0.46,0.45 0,0.255 -0.68,0.35 -0.786,-0.056 -0.23,0.44 -1.062,0.27 -1.144,-0.138 -0.276,0.334 -0.897,0.435 -1.246,-0.06 -0.286,0.234 -0.63,0.267 -0.787,0.03 -0.517,0.557 -1.388,0.443 -1.688,-0.17 l -0.295,0.013 c -0.508,0.69 -1.302,0.37 -1.52,-0.01 -0.853,0.615 -1.362,0.42 -1.838,0.02 -0.548,0.666 -1.38,0.62 -1.573,0 -0.368,0.267 -1.137,0.33 -1.137,0.017 0,-0.3 0.653,-0.192 0.653,-0.47 z m 1.655,0.15 c 0,0.144 -0.195,0.26 -0.436,0.26 -0.24,0 -0.436,-0.116 -0.436,-0.26 0,-0.142 0.195,-0.26 0.435,-0.26 0.24,0 0.435,0.118 0.435,0.26 z m 1.82,-0.217 c 0,0.172 -0.235,0.312 -0.524,0.312 -0.288,0 -0.523,-0.14 -0.523,-0.312 0,-0.173 0.235,-0.312 0.524,-0.312 0.29,0 0.525,0.14 0.525,0.313 z m 3.575,0.197 c 0,0.175 -0.212,0.316 -0.474,0.316 -0.262,0 -0.474,-0.14 -0.474,-0.316 0,-0.174 0.212,-0.316 0.474,-0.316 0.262,0 0.474,0.142 0.474,0.316 z m -1.904,-0.083 c 0,0.22 -0.207,0.4 -0.463,0.4 -0.256,0 -0.464,-0.18 -0.464,-0.4 0,-0.22 0.207,-0.4 0.463,-0.4 0.256,0 0.463,0.18 0.463,0.4 z m 4.06,0.01 c 0,0.198 -0.186,0.358 -0.414,0.358 -0.23,0 -0.415,-0.16 -0.415,-0.358 0,-0.197 0.186,-0.357 0.415,-0.357 0.228,0 0.414,0.16 0.414,0.357 z m -1.244,0.083 c 0,0.128 -0.12,0.23 -0.267,0.23 -0.148,0 -0.268,-0.102 -0.268,-0.23 0,-0.127 0.12,-0.23 0.268,-0.23 0.147,0 0.267,0.103 0.267,0.23 z m 2.422,0.094 c 0,0.183 -0.135,0.33 -0.302,0.33 -0.166,0 -0.3,-0.147 -0.3,-0.33 0,-0.183 0.134,-0.332 0.3,-0.332 0.167,0 0.302,0.15 0.302,0.332 z"
           id="path169"
           inkscape:connector-curvature="0"
           style="fill-rule:evenodd" />
      </g>
      <use
         height="100%"
         width="100%"
         xlink:href="#d"
         transform="matrix(-1,0,0,1,499.86,0)"
         id="use172"
         x="0"
         y="0" />
      <g
         id="g192"
         style="stroke-width:0.23100001">
        <path
           d="m 249.837,165.718 c -2.512,0 -4.55,0.944 -4.55,2.102 0,0.2 0.057,0.39 0.17,0.572 0.542,0.63 2.306,1.087 4.397,1.087 1.957,0 3.625,-0.403 4.277,-0.97 0.165,-0.217 0.257,-0.447 0.257,-0.69 0,-1.158 -2.038,-2.102 -4.55,-2.102 z"
           id="path174"
           inkscape:connector-curvature="0"
           style="fill:#0a328c;stroke:#0a328c" />
        <path
           d="m 254.427,167.98 v 7.06 c 0,0.827 -2.048,1.498 -4.572,1.498 -2.524,0 -4.573,-0.67 -4.573,-1.5 v -7.057 c 0,0.83 2.05,1.5 4.573,1.5 2.524,0 4.572,-0.67 4.572,-1.5 z"
           id="path176"
           inkscape:connector-curvature="0"
           style="stroke-width:0.18700001" />
        <path
           d="m 245.282,167.982 v 1.082 l 2.22,6.845 1.772,-5.265 1.946,5.465 1.425,-5.16 1.783,3.47 v -1.92 l -1.656,-3.363 a 8.25,8.25 0 0 1 -0.593,0.134 l -1.03,3.813 -1.446,-3.604 a 14.522,14.522 0 0 1 -0.715,-0.024 l -1.454,3.627 -1.66,-4.367 c -0.377,-0.217 -0.594,-0.466 -0.594,-0.734 z"
           id="path178"
           inkscape:connector-curvature="0"
           style="fill:#d20014;stroke:#d20014;stroke-width:0.183" />
        <path
           d="m 254.427,173.72 v 1.32 c 0,0.826 -2.048,1.498 -4.572,1.498 -2.524,0 -4.573,-0.672 -4.573,-1.5 v -1.317 c 0,0.83 2.05,1.5 4.573,1.5 2.524,0 4.572,-0.67 4.572,-1.5 z"
           id="path180"
           inkscape:connector-curvature="0"
           style="fill:#0a328c;stroke:#0a328c;stroke-width:0.18700001" />
        <path
           d="m 251.737,175.085 c -0.372,0.055 -0.77,0.097 -1.185,0.118 l 0.01,1.317 c 0.418,-0.02 0.815,-0.062 1.187,-0.118 l -0.013,-1.317 z m -4.869,-0.23 -0.012,1.312 c 0.353,0.1 0.75,0.185 1.186,0.246 v -1.317 a 8.907,8.907 0 0 1 -1.174,-0.24 z m -1.586,-1.132 v 1.317 c 0,0.246 0.185,0.474 0.506,0.68 l 0.023,-1.302 c -0.335,-0.21 -0.528,-0.443 -0.528,-0.695 z m 9.146,0.14 -0.023,0.006 c -0.08,0.266 -0.38,0.515 -0.83,0.722 l 0.005,1.312 c 0.53,-0.245 0.848,-0.54 0.848,-0.863 z"
           id="path182"
           inkscape:connector-curvature="0"
           style="stroke-width:0.18700001" />
        <path
           d="m 254.427,168.027 v 7.012 c 0,0.827 -2.048,1.498 -4.572,1.498 -2.524,0 -4.573,-0.67 -4.573,-1.5 v -7.01"
           id="path184"
           inkscape:connector-curvature="0"
           style="fill:none;stroke-width:0.18700001" />
        <path
           d="m 253.392,167.52 c 0,0.5 -1.584,0.907 -3.537,0.907 -1.954,0 -3.538,-0.406 -3.538,-0.907 0,-0.5 1.584,-0.907 3.538,-0.907 1.953,0 3.537,0.406 3.537,0.907 z"
           id="path186"
           inkscape:connector-curvature="0"
           style="fill:#ffffff;stroke:#ffffff;stroke-width:0.192" />
        <path
           d="m 248.698,168.19 0.157,1.25 c 0.307,0.022 0.626,0.038 0.953,0.04 l 0.232,-1.29 z m 4.102,-0.303 -0.91,0.247 0.057,1.177 c 0.31,-0.052 0.602,-0.116 0.866,-0.19 l -0.012,-1.233 z m -5.403,-1.907 c -0.26,0.075 -0.5,0.164 -0.72,0.262 l 0.127,0.945 0.58,-0.185 0.013,-1.023 z m 2.44,-0.374 c -0.122,0 -0.24,0.007 -0.36,0.01 l 0.197,1.184 0.605,-0.012 0.237,-1.154 a 9.727,9.727 0 0 0 -0.68,-0.028 z m 2.673,0.418 -0.122,1.034 0.69,0.244 0.077,-1.015 a 5.26,5.26 0 0 0 -0.645,-0.263 z"
           id="path188"
           inkscape:connector-curvature="0" />
        <path
           d="m 245.993,168.8 0.184,-1.288 -0.935,-0.506 0.028,1.465 0.723,0.33 z m 8.403,-0.278 0.042,-1.288 -0.876,0.262 z"
           id="path190"
           inkscape:connector-curvature="0"
           style="stroke-width:0.183" />
      </g>
      <path
         d="m 263.686,160.03 c 0.83,-0.116 2.062,1.023 2.136,2.432 0.06,1.118 -1.69,1.06 -1.69,1.06 -0.09,0.458 -1.055,0.88 -1.84,0.916 -0.763,0.033 0.207,-1.432 0.207,-1.432 -0.476,-1.26 0.147,-2.748 0.147,-2.748 l 1.04,-0.23 z"
         id="path194"
         inkscape:connector-curvature="0" />
      <path
         d="m 262.5,162.948 0.8,-0.03 c 0,0 0.06,0.415 0.208,0.43 0.157,0.018 0.326,-0.4 0.326,-0.4 l 1.217,-0.03"
         id="path196"
         inkscape:connector-curvature="0" />
      <path
         d="m 264.13,160.86 c 0.68,-0.492 0.085,-1.48 -0.385,-1.49 l -1.098,0.03 c -0.517,0.01 -1.392,0.572 -1.276,1.058 0.103,0.424 0.388,0.618 0.832,0.544 0.202,-0.033 0.626,-0.563 0.83,-0.572 0.276,-0.013 0.88,0.588 1.1,0.43 z"
         id="path198"
         inkscape:connector-curvature="0"
         style="fill:#d20014;stroke:#f1b517" />
      <path
         d="m 214.242,174.855 c -0.617,0.078 -0.73,0.788 -0.5,1.44 -2.686,0.756 -5.086,1.74 -7.455,2.406 -0.095,-0.473 1.174,-1.844 1.174,-1.844 0.337,0.162 0.588,0.93 0.588,0.93 0.084,-1.578 1.64,-2.628 1.64,-2.628 -0.925,-0.122 -3.733,0.967 -4.07,1.412 0,0 1.088,-0.12 1.256,0 0,0 -2.14,2.312 -2.237,3 0.333,0.75 4.027,1.31 4.027,1.31 -0.058,0.196 -1.087,0.932 -1.087,0.932 1.47,0.322 3.685,-0.718 4.347,-1.35 0,0 -1.728,-0.144 -3.074,-1.235 0,0 0.277,0.68 0.11,1.004 0,0 -2.1,-0.604 -2.318,-0.952 0.006,-0.03 4.966,-1.315 7.368,-2 0.088,0.428 0.565,1.238 1.138,1.047 0.374,-0.125 0.256,-0.866 0.117,-1.39 a 0.77,0.77 0 0 0 0.505,0.185 c 0.422,0 0.767,-0.327 0.767,-0.735 0,-0.407 -0.345,-0.74 -0.767,-0.74 a 0.755,0.755 0 0 0 -0.72,0.505 c -0.096,-0.453 -0.345,-1.354 -0.808,-1.295 z m 1.89,1.528 c 0,0.19 -0.162,0.345 -0.36,0.345 a 0.352,0.352 0 0 1 -0.357,-0.345 c 0,-0.19 0.16,-0.345 0.358,-0.345 0.197,0 0.358,0.154 0.358,0.345 z"
         id="path200"
         inkscape:connector-curvature="0"
         style="fill-rule:evenodd" />
      <g
         id="g206">
        <path
           d="m 293.068,177.884 c 0.183,-0.367 -0.162,-2.212 -0.162,-2.212 -0.373,0.042 -0.882,0.68 -0.882,0.68 0.48,-1.51 -0.865,-4.036 -0.865,-4.036 0.91,0.19 3.944,3.128 4.102,3.657 0,0 -1.33,-0.474 -1.53,-0.415 0.217,1.506 1.258,2.205 1.65,2.988 0,0 -1.726,0.38 -1.553,1.822 l -1.128,0.02 c -0.39,-0.48 0.152,-1.275 0.152,-1.275 l -7.74,-3.24 c -0.498,-0.21 -1.62,-0.72 -1.45,-1.32 0.168,-0.603 2.015,0.252 2.47,0.4 l 6.934,2.93 z"
           id="path202"
           inkscape:connector-curvature="0" />
        <path
           d="m 285.635,176.54 0.91,-1.672 c 0.326,-0.44 -0.346,-0.92 -0.823,-0.356 l -1.02,1.527 c -0.454,0.836 0.5,1.066 0.933,0.5 z"
           id="path204"
           inkscape:connector-curvature="0" />
      </g>
    </g>
    <g
       id="g218"
       style="fill:#ffffff;stroke-width:0.29300001">
      <path
         d="m 290.187,288.586 -0.1,-2.92 -3.532,0.195 -0.2,3.18 3.832,-0.454 z"
         id="path210"
         inkscape:connector-curvature="0" />
      <path
         d="m 264.38,292.678 -4.722,-2.648 c 19.47,1.784 23.446,-5.006 28.15,-5.37 2.893,-0.226 3.344,3.203 -2.26,1.572 l 1.45,3.586 c 0,0 -13.822,7.776 -27.407,4.564 l 4.79,-1.704 z m 84.818,-4.092 0.1,-2.92 4.32,0.1 0.202,3.18 z"
         id="path212"
         inkscape:connector-curvature="0" />
      <path
         d="m 375.902,291.963 4.443,-2.424 c -22.302,0.663 -17.224,-3.664 -28.383,-4.878 -2.883,-0.313 -5.05,3.393 2.26,1.572 l -1.448,3.586 3.507,0.003 c 7.598,5.003 17.85,5.45 24.643,3.843 l -5.02,-1.703 z"
         id="path214"
         inkscape:connector-curvature="0" />
      <path
         d="m 285.47,286.253 v 5.047 c 0,0 12.364,4.587 34.43,4.587 22.16,0 34.43,-4.587 34.43,-4.587 v -5.047 c 0,0 -9.36,4.312 -34.43,4.312 -24.978,0 -34.43,-4.312 -34.43,-4.312 z"
         id="path216"
         inkscape:connector-curvature="0" />
    </g>
    <path
       d="m 287.317,291.328 1.09,-3.695 0.508,0.14 -0.963,3.258 1.887,0.52 -0.13,0.436 -2.393,-0.658 z m 3.578,-1.625 0.06,-0.726 0.164,-0.622 0.54,0.13 -0.164,0.624 -0.31,0.664 z m 5.32,-0.25 0.517,0.102 -0.46,2.175 c -0.08,0.38 -0.187,0.67 -0.322,0.876 a 1.158,1.158 0 0 1 -0.596,0.448 c -0.26,0.094 -0.58,0.104 -0.955,0.03 -0.367,-0.07 -0.653,-0.19 -0.86,-0.358 a 1.056,1.056 0 0 1 -0.386,-0.625 c -0.05,-0.25 -0.034,-0.574 0.05,-0.972 l 0.46,-2.176 0.515,0.102 -0.46,2.172 c -0.068,0.327 -0.088,0.575 -0.057,0.742 a 0.7,0.7 0 0 0 0.25,0.422 c 0.135,0.114 0.313,0.193 0.535,0.236 0.38,0.075 0.668,0.045 0.865,-0.09 0.196,-0.134 0.344,-0.437 0.444,-0.91 l 0.458,-2.172 z m 0.582,4.017 0.642,-3.792 0.533,0.085 1.56,3.302 0.504,-2.977 0.5,0.08 -0.644,3.79 -0.534,-0.084 -1.56,-3.305 -0.505,2.98 -0.498,-0.08 z m 4.065,0.614 0.547,-3.806 0.52,0.07 -0.546,3.806 -0.522,-0.07 z m 1.5,-1.68 c 0.075,-0.632 0.31,-1.11 0.706,-1.428 0.395,-0.32 0.87,-0.45 1.43,-0.388 0.364,0.04 0.683,0.16 0.957,0.362 0.273,0.2 0.47,0.46 0.587,0.778 0.118,0.318 0.155,0.668 0.11,1.05 a 2.212,2.212 0 0 1 -0.367,1.012 1.657,1.657 0 0 1 -0.77,0.618 2.046,2.046 0 0 1 -0.99,0.13 1.923,1.923 0 0 1 -0.966,-0.37 1.69,1.69 0 0 1 -0.584,-0.785 2.097,2.097 0 0 1 -0.114,-0.978 z m 0.54,0.07 c -0.055,0.46 0.03,0.835 0.255,1.128 0.225,0.293 0.53,0.46 0.918,0.504 0.394,0.043 0.734,-0.055 1.02,-0.294 0.286,-0.24 0.46,-0.605 0.517,-1.096 0.037,-0.31 0.014,-0.588 -0.067,-0.832 -0.08,-0.243 -0.22,-0.44 -0.414,-0.59 a 1.33,1.33 0 0 0 -0.682,-0.27 c -0.37,-0.04 -0.704,0.047 -1,0.263 -0.297,0.216 -0.48,0.61 -0.547,1.186 z m 3.693,2.265 0.324,-3.83 0.538,0.042 1.83,3.17 0.255,-3.006 0.503,0.04 -0.324,3.83 -0.54,-0.043 -1.83,-3.174 -0.254,3.008 -0.503,-0.04 z m 5.582,0.387 0.174,-3.838 2.685,0.112 -0.02,0.453 -2.158,-0.09 -0.053,1.187 1.867,0.08 -0.02,0.452 -1.867,-0.08 -0.08,1.745 -0.525,-0.023 z m 2.934,0.125 1.607,-3.813 0.568,0.01 1.552,3.872 -0.6,-0.01 -0.44,-1.173 -1.666,-0.032 -0.46,1.155 -0.56,-0.01 z m 1.182,-1.556 1.35,0.025 -0.395,-1.07 a 9.822,9.822 0 0 1 -0.266,-0.802 c -0.055,0.245 -0.13,0.488 -0.23,0.73 l -0.458,1.118 z m 3.06,1.617 0.01,-3.842 0.526,0.002 -0.008,3.842 h -0.527 z m 2.47,-0.01 -0.05,-3.39 -1.313,0.02 -0.008,-0.454 3.156,-0.045 0.007,0.454 -1.317,0.017 0.05,3.388 -0.527,0.008 z m 3.906,-0.093 -0.186,-3.838 0.526,-0.024 0.165,3.385 1.96,-0.088 0.02,0.453 z m 2.68,-0.117 1.242,-3.937 0.567,-0.04 1.908,3.72 -0.598,0.043 -0.55,-1.13 -1.66,0.114 -0.35,1.19 -0.56,0.04 z m 1.03,-1.652 1.346,-0.092 -0.493,-1.033 c -0.15,-0.314 -0.262,-0.572 -0.34,-0.775 a 4.75,4.75 0 0 1 -0.16,0.746 l -0.352,1.154 z m 4.675,1.213 -0.437,-3.818 2.67,-0.285 0.052,0.45 -2.147,0.23 0.136,1.182 1.858,-0.198 0.052,0.45 -1.858,0.2 0.198,1.734 -0.524,0.056 z m 2.92,-2.192 c -0.094,-0.63 0.01,-1.15 0.307,-1.554 0.3,-0.406 0.726,-0.647 1.282,-0.723 0.364,-0.05 0.704,-0.01 1.02,0.116 0.318,0.126 0.576,0.33 0.773,0.61 0.198,0.278 0.325,0.607 0.38,0.988 0.06,0.386 0.03,0.742 -0.088,1.068 -0.116,0.327 -0.31,0.59 -0.583,0.786 a 2.02,2.02 0 0 1 -0.923,0.367 c -0.37,0.05 -0.714,0.008 -1.032,-0.124 a 1.736,1.736 0 0 1 -0.77,-0.616 2.124,2.124 0 0 1 -0.365,-0.92 z m 0.54,-0.065 c 0.067,0.458 0.248,0.802 0.542,1.03 0.295,0.23 0.635,0.317 1.02,0.264 0.393,-0.056 0.696,-0.233 0.91,-0.534 0.215,-0.302 0.286,-0.697 0.213,-1.187 a 1.922,1.922 0 0 0 -0.282,-0.79 1.25,1.25 0 0 0 -0.556,-0.47 1.348,1.348 0 0 0 -0.73,-0.094 c -0.37,0.05 -0.67,0.217 -0.9,0.498 -0.23,0.28 -0.303,0.708 -0.218,1.28 z m 4.18,1.29 -0.71,-3.78 1.737,-0.305 c 0.35,-0.06 0.62,-0.074 0.815,-0.038 0.195,0.036 0.363,0.13 0.504,0.284 0.14,0.153 0.23,0.333 0.27,0.54 0.05,0.27 0.002,0.51 -0.143,0.727 -0.146,0.215 -0.402,0.38 -0.768,0.496 a 1.4,1.4 0 0 1 0.347,0.133 c 0.177,0.107 0.35,0.25 0.525,0.427 l 0.875,0.91 -0.652,0.114 -0.667,-0.696 a 7.436,7.436 0 0 0 -0.472,-0.455 1.198,1.198 0 0 0 -0.31,-0.207 0.818,0.818 0 0 0 -0.256,-0.06 c -0.06,0 -0.16,0.01 -0.292,0.034 l -0.602,0.105 0.316,1.68 -0.518,0.09 z m 0.122,-2.203 1.114,-0.195 a 1.74,1.74 0 0 0 0.542,-0.17 0.588,0.588 0 0 0 0.302,-0.636 0.573,0.573 0 0 0 -0.284,-0.405 c -0.156,-0.09 -0.38,-0.112 -0.67,-0.06 l -1.24,0.216 0.235,1.252 z m 6.29,-0.42 0.543,0.016 c -0.013,0.43 -0.134,0.783 -0.364,1.058 -0.23,0.275 -0.548,0.456 -0.952,0.544 -0.42,0.09 -0.78,0.082 -1.08,-0.025 a 1.63,1.63 0 0 1 -0.765,-0.585 2.57,2.57 0 0 1 -0.44,-0.96 c -0.09,-0.39 -0.093,-0.747 -0.006,-1.072 0.087,-0.324 0.256,-0.592 0.506,-0.805 0.25,-0.213 0.547,-0.357 0.89,-0.43 0.388,-0.085 0.737,-0.06 1.047,0.073 0.31,0.133 0.557,0.36 0.74,0.685 l -0.478,0.226 c -0.154,-0.254 -0.33,-0.424 -0.53,-0.51 a 1.098,1.098 0 0 0 -0.69,-0.047 c -0.3,0.064 -0.533,0.187 -0.702,0.368 a 1.102,1.102 0 0 0 -0.292,0.648 c -0.027,0.25 -0.01,0.5 0.047,0.747 a 2.3,2.3 0 0 0 0.34,0.803 c 0.15,0.217 0.342,0.362 0.572,0.435 0.23,0.075 0.464,0.086 0.7,0.035 a 1.14,1.14 0 0 0 0.676,-0.4 c 0.162,-0.203 0.242,-0.47 0.24,-0.8 z m 1.463,1.046 -1.07,-3.7 2.773,-0.748 0.127,0.437 -2.265,0.61 0.328,1.134 2.12,-0.57 0.127,0.433 -2.122,0.572 0.365,1.26 2.354,-0.635 0.127,0.437 -2.86,0.77 z"
       id="path220"
       inkscape:connector-curvature="0"
       style="fill:#000000;stroke:none" />
  </g>
</svg>
