<?xml version="1.0" encoding="UTF-8" standalone="no"?>
<svg
   xmlns:dc="http://purl.org/dc/elements/1.1/"
   xmlns:cc="http://creativecommons.org/ns#"
   xmlns:rdf="http://www.w3.org/1999/02/22-rdf-syntax-ns#"
   xmlns:svg="http://www.w3.org/2000/svg"
   xmlns="http://www.w3.org/2000/svg"
   xmlns:xlink="http://www.w3.org/1999/xlink"
   xmlns:sodipodi="http://sodipodi.sourceforge.net/DTD/sodipodi-0.dtd"
   xmlns:inkscape="http://www.inkscape.org/namespaces/inkscape"
   height="16"
   width="21.333334"
   viewBox="0 0 1 0.6"
   version="1.1"
   id="svg46"
   sodipodi:docname="je.svg"
   inkscape:version="0.92.1 r">
  <metadata
     id="metadata50">
    <rdf:RDF>
      <cc:Work
         rdf:about="">
        <dc:format>image/svg+xml</dc:format>
        <dc:type
           rdf:resource="http://purl.org/dc/dcmitype/StillImage" />
        <dc:title></dc:title>
      </cc:Work>
    </rdf:RDF>
  </metadata>
  <sodipodi:namedview
     pagecolor="#ffffff"
     bordercolor="#666666"
     borderopacity="1"
     objecttolerance="10"
     gridtolerance="10"
     guidetolerance="10"
     inkscape:pageopacity="0"
     inkscape:pageshadow="2"
     inkscape:window-width="1920"
     inkscape:window-height="1024"
     id="namedview48"
     showgrid="false"
     fit-margin-top="0"
     fit-margin-left="0"
     fit-margin-right="0"
     fit-margin-bottom="0"
     inkscape:zoom="0.49166667"
     inkscape:cx="320.01067"
     inkscape:cy="193.6"
     inkscape:window-x="0"
     inkscape:window-y="0"
     inkscape:window-maximized="1"
     inkscape:current-layer="svg46" />
  <defs
     id="defs5">
    <clipPath
       id="a">
      <path
         d="m -5.254,-6 h 40 v 30 h -40 z"
         id="path2"
         inkscape:connector-curvature="0"
         style="fill-opacity:0.67000002" />
    </clipPath>
  </defs>
  <g
     clip-path="url(#a)"
     transform="matrix(0.025,0,0,0.025,0.13135,0.07500001)"
     id="g44">
    <path
       d="m -10.254,-6 h 50 v 30 h -50 z"
       id="path7"
       inkscape:connector-curvature="0"
       style="fill:#ffffff" />
    <path
       d="m -10.254,-6 v 1.927 L 11.517,9 -10.254,22.073 V 24 h 3.281 L 14.747,10.927 36.464,24 h 3.281 V 22.073 L 17.976,9 39.746,-4.073 V -6 h -3.28 L 14.745,7.073 -6.973,-6 Z"
       id="path9"
       inkscape:connector-curvature="0"
       style="fill:#df112d;fill-rule:evenodd" />
    <g
       transform="matrix(0.20361,0,0,0.20361,-9.649,-6.038)"
       id="g42">
      <path
         d="m 132.66,22.233 c 3.156,12.778 1.425,28.56 -12.829,37.316 -14.255,-8.756 -15.986,-24.538 -12.829,-37.316 3.36,-3.055 18.632,-4.938 25.658,0 z"
         id="path11"
         inkscape:connector-curvature="0"
         style="fill:#e8112d;stroke:#000000;stroke-width:0.125" />
      <path
         d="m 119.81,19.667 c 5.226,0 10.093,1.383 12.962,3.176 0.563,-4.405 2.561,-8.811 4.918,-12.142 -2.459,-0.05 -3.561,1.256 -3.586,2.613 -0.615,-1.742 -3.023,-1.64 -3.766,-0.691 2.69,1.818 0.615,5.046 -1.818,4.38 -1.143,-0.313 -1.747,-1.11 -1.961,-2.267 a 1.322,1.322 0 1 0 -0.564,-0.088 c -0.769,1.256 -2.148,1.632 -3.136,1.356 -1.281,-0.359 -1.819,-1.512 -1.819,-2.536 0,-2.664 2.561,-3.074 3.33,-2.613 -0.051,-1.793 -2.869,-3.227 -3.74,-1.742 0.973,-1.742 0.922,-4.2 -0.82,-5.84 -1.741,1.64 -1.793,4.098 -0.819,5.84 -0.871,-1.485 -3.689,-0.051 -3.74,1.742 0.768,-0.461 3.33,-0.051 3.33,2.613 0,1.024 -0.538,2.177 -1.819,2.536 -0.988,0.276 -2.367,-0.1 -3.137,-1.356 a 1.31,1.31 0 0 0 0.552,-0.398 1.322,1.322 0 1 0 -1.115,0.486 c -0.214,1.157 -0.819,1.954 -1.961,2.267 -2.433,0.666 -4.508,-2.562 -1.819,-4.38 -0.742,-0.948 -3.15,-1.05 -3.765,0.691 -0.026,-1.357 -1.127,-2.664 -3.586,-2.613 2.356,3.33 4.354,7.736 4.918,12.142 2.869,-1.793 7.736,-3.176 12.961,-3.176 z"
         id="path13"
         inkscape:connector-curvature="0"
         style="fill:#f9dd16;stroke:#000000;stroke-width:0.125" />
      <g
         id="b"
         style="stroke:#000000">
        <g
           id="g23"
           style="fill:#f9dd16;stroke-width:0.125">
          <path
             d="m 130.65,32.2 c -0.315,0.075 -0.315,0.481 -0.48,0.481 0.819,-0.023 1.217,-0.248 1.465,-0.661 -0.18,0.165 -0.023,0.48 -0.083,0.556 0.601,-0.21 0.887,-0.722 0.677,-1.067 0.135,0.195 0.526,0.3 0.646,0.315 -0.421,-0.33 -0.12,-1.082 -0.797,-1.473 0.226,-0.015 0.662,0.24 0.782,0.541 -0.105,-0.676 -0.211,-1.112 -0.767,-1.488 0.06,0.068 0.376,0.128 0.511,0 -0.36,-0.225 -0.466,-0.6 -0.435,-0.841 0.042,-0.337 -0.181,-0.406 -0.602,-0.3 -0.379,0.094 -1.247,0.15 -1.758,0.15 -1.052,0 -1.969,0 -2.841,-0.602 1.308,0.541 2.976,-0.601 2.976,-1.548 0,-1.052 -1.293,-1.909 -3.908,-1.338 -2.615,0.572 -5.801,0.331 -5.801,-0.54 0,-0.872 2.284,-0.993 3.457,-0.812 1.172,0.18 2.013,0.3 4.208,-0.481 -0.541,0.21 -2.285,0.27 -3.667,-0.12 -1.383,-0.391 -4.78,-0.391 -4.81,1.442 -0.03,1.834 3.617,1.667 6.764,1.203 1.833,-0.27 2.795,-0.09 2.795,0.51 0,0.572 -1.683,0.812 -2.976,0.662 -1.292,-0.15 -2.615,-0.12 -4.148,0.33 -1.28,0.377 -2.164,0 -3.577,0.241 -0.685,0.117 -2.345,0 -3.164,-1.352 -0.504,0.36 -2.022,1.116 -2.277,1.852 -0.361,0.676 -0.12,1.349 0.36,2.01 0.606,0.833 -0.3,0.707 -0.946,0.737 -0.886,0.041 -2.072,-0.094 -2.691,-0.797 -0.548,-0.622 -1.278,-1.121 -1.861,-0.66 -0.3,0.238 -0.012,0.55 0.225,0.463 0.235,-0.087 0.513,0.087 0.764,0.197 -0.401,-0.172 -0.842,-0.038 -1.014,0.115 -0.237,0.213 0.051,0.619 0.338,0.475 0.225,-0.112 0.687,-0.187 0.987,0.088 -0.325,-0.063 -0.663,-0.05 -0.825,0.125 -0.162,0.175 -0.037,0.428 0.313,0.412 0.562,-0.025 0.706,0.37 1.269,0.288 -0.346,0.045 -0.542,0.226 -0.632,0.36 0.526,-0.24 1.107,0.409 1.789,0.256 -0.266,0.11 -0.695,0.371 -0.691,0.572 0.405,-0.466 3.126,0.36 3.186,-0.662 0.075,0.21 0.06,0.526 -0.15,0.797 0.348,-0.21 1.473,-0.286 1.818,-1.097 0.03,0.24 -0.015,0.556 -0.225,0.63 0.361,0.119 0.836,-0.15 1.322,-0.87 0.193,-0.287 0.239,-0.477 0.206,-0.692 0.482,0.018 0.831,-0.103 1.207,-0.421 0.391,-0.33 0.812,0.27 1.473,-0.15 0.662,-0.421 1.233,-0.06 1.593,-0.27 0.361,-0.211 0.857,0.074 1.248,-0.166 0.391,-0.24 0.997,0.118 1.644,-0.393 1.018,0.372 2.206,1.063 5.12,0.528 1.67,-0.307 2.194,0.256 2.194,1.022 0,0.526 -0.308,0.572 -0.541,0.586 -0.929,0.057 -1.328,-0.347 -1.695,-0.218 -0.246,0.088 -0.396,0.488 -0.04,0.625 -0.294,0.15 -0.256,0.432 -0.106,0.535 0.15,0.103 0.537,0.01 0.8,-0.113 -0.338,0.153 -0.688,0.428 -0.488,0.716 0.121,0.174 0.427,0.322 0.713,-0.05 0.287,-0.375 0.812,-0.688 1.146,-0.638 z m -18.51,-7.936 c -0.842,-0.346 -1.126,-0.355 -0.932,0.33 0.083,0.294 0.285,0.707 0.488,0.895 0.008,-0.285 0.113,-1.075 0.444,-1.225 z"
             id="path15"
             inkscape:connector-curvature="0" />
          <path
             d="m 114.77,24.264 c 0.842,-0.346 1.126,-0.355 0.932,0.33 -0.083,0.294 -0.286,0.707 -0.489,0.895 -0.007,-0.285 -0.112,-1.075 -0.443,-1.225 z"
             id="path17"
             inkscape:connector-curvature="0" />
          <path
             d="m 113.46,23.802 c 1.593,0 1.792,0.748 1.784,1.68 -0.007,1.007 -0.548,0.66 -0.856,1.953 -0.12,0.506 -0.523,0.534 -0.928,0.534 -0.406,0 -0.808,-0.028 -0.929,-0.534 -0.307,-1.292 -0.849,-0.946 -0.856,-1.953 -0.008,-0.932 0.191,-1.68 1.785,-1.68 z"
             id="path19"
             inkscape:connector-curvature="0" />
          <path
             d="m 109.36,27.495 c -0.406,-0.24 -0.668,-0.074 -0.833,-0.029 0.526,0.135 0.547,0.81 1.75,1.126 -0.271,-0.075 -0.421,0.075 -0.677,-0.06 0.496,0.39 1.052,0.843 2.225,0.857 0.654,0.007 0.202,0.346 -0.226,0.15 0.444,0.459 1.323,0.083 1.879,0.917 0.105,-0.646 -1.037,-1.668 -0.511,-2.405 -1.622,-0.069 -1.755,-0.968 -2.69,-1.683 -0.761,-0.582 -0.829,-1.173 -1.165,-2.28 -0.153,-0.501 -0.74,-0.814 -1.065,-0.695 -0.284,0.104 -0.388,0.35 -0.144,0.535 0.244,0.184 0.556,0.209 0.623,0.676 -0.317,-0.38 -0.792,-0.517 -1.02,-0.28 -0.139,0.145 -0.083,0.482 0.216,0.513 0.487,0.05 0.137,0.525 0.691,0.99 -0.491,-0.552 -0.916,-0.602 -1.179,-0.302 -0.157,0.18 0,0.5 0.338,0.465 0.489,-0.05 1.056,1.19 1.788,1.505 z m 13.07,4.644 c -0.256,0.045 -0.18,0.466 -0.526,0.496 0.827,0 1.247,-0.195 1.638,-0.511 -0.18,0.105 -0.255,0.376 -0.27,0.526 0.436,-0.376 1.473,-0.406 2.014,-0.3 0.541,0.106 0.631,-0.15 0.826,-0.496 0.196,-0.346 -0.075,-0.542 -0.345,-0.812 -0.271,-0.27 -0.331,-0.646 -0.271,-1.278 -1.443,-1.923 -4.028,-0.992 -4.058,-0.15 0.932,1.082 1.052,0.962 1.834,1.112 0.781,0.15 1.26,0.15 0.736,0.586 -0.18,0.15 -0.932,0.08 -1.518,0.106 -1.311,0.057 -1.911,-0.906 -2.298,-0.406 -0.319,0.411 0.01,0.593 0.66,0.57 -0.45,0.004 -1.047,-0.02 -0.945,0.399 0.172,0.706 0.847,-0.131 1.11,0.16 -0.225,-0.054 -0.575,0.084 -0.588,0.296 -0.012,0.213 0.5,0.488 1.063,0.04 a 1.64,1.64 0 0 1 0.938,-0.338 z"
             id="path21"
             inkscape:connector-curvature="0" />
        </g>
        <g
           id="g29"
           style="fill:none;stroke-width:0.125">
          <path
             d="m 123.55,29.206 c -0.469,-0.172 -0.899,-0.277 -1.449,-0.163 m -5.621,-0.06 c -0.386,0.83 -0.152,1.239 -0.095,1.624 m -4.015,-5.555 c 0.265,0.133 0.414,-0.242 0.803,0.156 -0.107,-0.116 -0.24,0.308 -0.538,0.026 m 1.895,-0.182 c -0.265,0.133 -0.414,-0.242 -0.803,0.156 0.107,-0.116 0.24,0.308 0.538,0.026"
             id="path25"
             inkscape:connector-curvature="0" />
          <path
             d="m 113.73,25.207 c -0.091,0.075 -0.1,-0.06 -0.031,0.295 0.128,0.651 0.279,0.956 -0.248,0.956 -0.538,0 -0.375,-0.305 -0.248,-0.956 0.07,-0.355 0.061,-0.22 -0.03,-0.295"
             id="path27"
             inkscape:connector-curvature="0" />
        </g>
        <path
           d="m 113.46,27.706 c 0.428,0 0.676,-0.007 0.609,-0.609 -0.028,-0.241 0.293,-0.337 0.18,-0.729 0.12,0.481 -0.789,0.435 -0.789,0.217 0,0.218 -0.909,0.264 -0.789,-0.217 -0.113,0.392 0.207,0.488 0.18,0.73 -0.067,0.6 0.181,0.608 0.609,0.608 z"
           id="path31"
           inkscape:connector-curvature="0"
           style="fill:#ff0016;stroke-width:0.063" />
        <path
           d="m 113.07,26.489 -1.028,-0.287 m 1.028,0.341 -1.148,-0.01 m 1.158,0.069 -0.979,0.262 m 1.739,-0.375 1.028,-0.287 m -1.028,0.341 1.148,-0.01 m -1.158,0.069 0.979,0.262"
           id="path33"
           inkscape:connector-curvature="0"
           style="stroke-width:0.063" />
        <path
           d="m 108.13,23.414 c -0.299,-0.372 -1.048,-0.058 -1.063,0.404 0.253,-0.3 0.666,0.132 0.891,0.041 0.156,-0.063 0.293,-0.294 0.172,-0.445 z m -0.38,0.881 c -0.299,-0.372 -1.047,-0.058 -1.062,0.404 0.252,-0.3 0.665,0.132 0.891,0.041 0.156,-0.062 0.293,-0.293 0.171,-0.445 z m -0.2,1.184 c -0.339,-0.336 -1.047,0.06 -1.01,0.52 0.218,-0.325 0.676,0.057 0.89,-0.058 0.148,-0.08 0.258,-0.325 0.12,-0.462 z m 0.36,3.669 c -0.376,-0.295 -1.033,0.18 -0.944,0.634 0.179,-0.349 0.678,-0.022 0.877,-0.161 0.138,-0.097 0.22,-0.353 0.067,-0.473 z m -0.02,0.803 c -0.448,-0.165 -0.928,0.49 -0.703,0.893 0.062,-0.387 0.638,-0.23 0.785,-0.423 0.102,-0.134 0.1,-0.403 -0.082,-0.47 z m 0.57,0.6 c -0.448,-0.165 -0.928,0.49 -0.704,0.893 0.063,-0.387 0.639,-0.23 0.786,-0.423 0.102,-0.134 0.1,-0.403 -0.082,-0.47 z m 11.74,1.163 c -0.448,-0.165 -0.928,0.49 -0.703,0.893 0.063,-0.387 0.638,-0.23 0.785,-0.423 0.102,-0.134 0.1,-0.403 -0.082,-0.47 z m 0.61,0.544 c -0.464,-0.113 -0.866,0.592 -0.597,0.968 0.018,-0.392 0.608,-0.301 0.732,-0.51 0.086,-0.145 0.054,-0.412 -0.135,-0.458 z m -0.43,-1.316 c -0.414,-0.239 -0.998,0.325 -0.845,0.76 0.128,-0.37 0.668,-0.117 0.846,-0.283 0.123,-0.115 0.167,-0.38 -0.001,-0.477 z m 8.35,0.941 c -0.464,-0.113 -0.866,0.592 -0.597,0.968 0.019,-0.392 0.609,-0.301 0.732,-0.51 0.086,-0.145 0.054,-0.412 -0.135,-0.458 z m 0.02,-0.737 c -0.421,-0.225 -0.985,0.359 -0.818,0.79 0.115,-0.375 0.664,-0.141 0.836,-0.313 0.119,-0.12 0.154,-0.385 -0.018,-0.477 z m 0.32,1.396 c -0.468,-0.093 -0.839,0.63 -0.554,0.993 0.002,-0.392 0.595,-0.327 0.709,-0.542 0.08,-0.149 0.036,-0.413 -0.155,-0.451 z m -15.58,-5.197 c 0.294,0 0.413,0.086 0.413,0.617 0,1.125 -0.013,1.609 -0.375,1.609 -0.363,0 -0.338,-0.46 -0.338,-1.286 0,-0.43 0,-0.646 -0.087,-0.61 0,-0.282 0.125,-0.33 0.387,-0.33 z"
           id="path35"
           inkscape:connector-curvature="0"
           style="fill:#0051ba;stroke-width:0.013" />
      </g>
      <use
         xlink:href="#b"
         transform="matrix(0.9,0,0,0.9,11.6,13.7)"
         height="18"
         width="30"
         id="use38"
         x="0"
         y="0" />
      <use
         xlink:href="#b"
         transform="matrix(0.67,0,0,0.75,39.2,27.5)"
         height="18"
         width="30"
         id="use40"
         x="0"
         y="0" />
    </g>
  </g>
</svg>
