<?xml version="1.0" encoding="UTF-8" standalone="no"?>
<svg
   xmlns:dc="http://purl.org/dc/elements/1.1/"
   xmlns:cc="http://creativecommons.org/ns#"
   xmlns:rdf="http://www.w3.org/1999/02/22-rdf-syntax-ns#"
   xmlns:svg="http://www.w3.org/2000/svg"
   xmlns="http://www.w3.org/2000/svg"
   xmlns:xlink="http://www.w3.org/1999/xlink"
   xmlns:sodipodi="http://sodipodi.sourceforge.net/DTD/sodipodi-0.dtd"
   xmlns:inkscape="http://www.inkscape.org/namespaces/inkscape"
   height="16"
   width="21.357567"
   viewBox="0 0 21.357567 16"
   version="1.1"
   id="svg34"
   sodipodi:docname="ke.svg"
   inkscape:version="0.92.1 r">
  <metadata
     id="metadata38">
    <rdf:RDF>
      <cc:Work
         rdf:about="">
        <dc:format>image/svg+xml</dc:format>
        <dc:type
           rdf:resource="http://purl.org/dc/dcmitype/StillImage" />
        <dc:title></dc:title>
      </cc:Work>
    </rdf:RDF>
  </metadata>
  <sodipodi:namedview
     pagecolor="#ffffff"
     bordercolor="#666666"
     borderopacity="1"
     objecttolerance="10"
     gridtolerance="10"
     guidetolerance="10"
     inkscape:pageopacity="0"
     inkscape:pageshadow="2"
     inkscape:window-width="1920"
     inkscape:window-height="1024"
     id="namedview36"
     showgrid="false"
     fit-margin-top="0"
     fit-margin-left="0"
     fit-margin-right="0"
     fit-margin-bottom="0"
     inkscape:zoom="0.49166667"
     inkscape:cx="320.227"
     inkscape:cy="240"
     inkscape:window-x="0"
     inkscape:window-y="0"
     inkscape:window-maximized="1"
     inkscape:current-layer="svg34" />
  <defs
     id="defs3">
    <path
       stroke-miterlimit="10"
       d="m -28.58,47.5 1.733,1 46.713,-80.91 c 2.732,-0.73 4.232,-3.33 5.732,-5.927 1,-1.732 5,-8.66 6.734,-17.663 -6.93,6.003 -10.93,12.93 -11.93,14.663 -1.5,2.598 -3,5.196 -2.268,7.928 z"
       id="a"
       inkscape:connector-curvature="0"
       style="stroke-miterlimit:10" />
  </defs>
  <path
     d="M 0.00756667,0 H 21.3409 V 16 H 0.00756667 Z"
     id="path5"
     inkscape:connector-curvature="0"
     style="fill:#ffffff;stroke-width:0.03333334" />
  <path
     d="M 0.00756667,0 H 21.3409 V 4.8 H 0.00756667 Z"
     id="path7"
     inkscape:connector-curvature="0"
     style="stroke-width:0.03333334" />
  <path
     d="M 0.00756667,11.2 H 21.3409 V 16 H 0.00756667 Z"
     id="path9"
     inkscape:connector-curvature="0"
     style="fill:#006600;stroke-width:0.03333334" />
  <g
     id="b"
     transform="matrix(0.1,0,0,0.1,10.674233,8)">
    <use
       height="100%"
       width="100%"
       xlink:href="#a"
       id="use11"
       style="stroke:#000000"
       x="0"
       y="0" />
    <use
       height="100%"
       width="100%"
       xlink:href="#a"
       id="use13"
       style="fill:#ffffff"
       x="0"
       y="0" />
  </g>
  <use
     height="100%"
     width="100%"
     xlink:href="#b"
     transform="matrix(-1,0,0,1,21.348467,0)"
     id="use16"
     x="0"
     y="0" />
  <path
     d="m 21.357567,5.6 h -8.783334 c -0.3,-0.8 -1.3,-2.4 -1.9,-2.4 -0.6,0 -1.5999997,1.6 -1.8999997,2.4 H 0 v 4.8 h 8.7742333 c 0.3,0.8 1.2999997,2.4 1.8999997,2.4 0.6,0 1.6,-1.6 1.9,-2.4 h 8.783334 z"
     id="path18"
     inkscape:connector-curvature="0"
     style="fill:#bb0000;stroke-width:0.03333334" />
  <path
     id="c"
     d="m 12.574233,10.4 c 0.3,-0.8 0.5,-1.6 0.5,-2.4 0,-0.8 -0.2,-1.6 -0.5,-2.4 -0.3,0.8 -0.5,1.6 -0.5,2.4 0,0.8 0.2,1.6 0.5,2.4"
     inkscape:connector-curvature="0"
     style="stroke-width:0.03333334" />
  <use
     height="100%"
     width="100%"
     xlink:href="#c"
     transform="matrix(-1,0,0,1,21.348467,0)"
     id="use21"
     x="0"
     y="0" />
  <g
     transform="matrix(0.1,0,0,0.1,10.674233,8)"
     id="g32"
     style="fill:#ffffff">
    <ellipse
       rx="4"
       ry="6"
       id="ellipse23"
       cx="0"
       cy="0" />
    <path
       id="d"
       d="m 1,5.85 c 0,0 4,8 4,21 0,13 -4,21 -4,21 z"
       inkscape:connector-curvature="0" />
    <use
       height="100%"
       width="100%"
       xlink:href="#d"
       transform="scale(-1)"
       id="use26"
       x="0"
       y="0" />
    <use
       height="100%"
       width="100%"
       xlink:href="#d"
       transform="scale(-1,1)"
       id="use28"
       x="0"
       y="0" />
    <use
       height="100%"
       width="100%"
       xlink:href="#d"
       transform="scale(1,-1)"
       id="use30"
       x="0"
       y="0" />
  </g>
</svg>
