<?xml version="1.0" encoding="UTF-8" standalone="no"?>
<svg
   xmlns:dc="http://purl.org/dc/elements/1.1/"
   xmlns:cc="http://creativecommons.org/ns#"
   xmlns:rdf="http://www.w3.org/1999/02/22-rdf-syntax-ns#"
   xmlns:svg="http://www.w3.org/2000/svg"
   xmlns="http://www.w3.org/2000/svg"
   xmlns:sodipodi="http://sodipodi.sourceforge.net/DTD/sodipodi-0.dtd"
   xmlns:inkscape="http://www.inkscape.org/namespaces/inkscape"
   height="16"
   width="21.333437"
   viewBox="0 0 21.333437 16"
   version="1.1"
   id="svg63"
   sodipodi:docname="ki.svg"
   inkscape:version="0.92.1 r">
  <metadata
     id="metadata67">
    <rdf:RDF>
      <cc:Work
         rdf:about="">
        <dc:format>image/svg+xml</dc:format>
        <dc:type
           rdf:resource="http://purl.org/dc/dcmitype/StillImage" />
        <dc:title></dc:title>
      </cc:Work>
    </rdf:RDF>
  </metadata>
  <sodipodi:namedview
     pagecolor="#ffffff"
     bordercolor="#666666"
     borderopacity="1"
     objecttolerance="10"
     gridtolerance="10"
     guidetolerance="10"
     inkscape:pageopacity="0"
     inkscape:pageshadow="2"
     inkscape:window-width="1920"
     inkscape:window-height="1024"
     id="namedview65"
     showgrid="false"
     fit-margin-top="0"
     fit-margin-left="0"
     fit-margin-right="0"
     fit-margin-bottom="0"
     inkscape:zoom="0.49166667"
     inkscape:cx="319.99969"
     inkscape:cy="240"
     inkscape:window-x="0"
     inkscape:window-y="0"
     inkscape:window-maximized="1"
     inkscape:current-layer="svg63" />
  <defs
     id="defs5">
    <clipPath
       id="a">
      <path
         d="m -86.325,0 h 682.67 v 512 h -682.67 z"
         id="path2"
         inkscape:connector-curvature="0"
         style="fill-opacity:0.67000002" />
    </clipPath>
  </defs>
  <g
     clip-path="url(#a)"
     transform="matrix(0.03125,0,0,0.03125,2.6976563,0)"
     id="g61">
    <path
       d="M -164.28,0 H 671.51 V 306.49 H -164.28 Z"
       id="path7"
       inkscape:connector-curvature="0"
       style="fill:#e73e2d;fill-rule:evenodd" />
    <path
       d="m 204.3,282.11 c -19.435,-15.174 -55.633,-10.041 -61.596,-51.286 27.717,21.469 22.686,-1.227 64.082,19.229 z"
       id="path9"
       inkscape:connector-curvature="0"
       style="fill:#fec74a;fill-rule:evenodd;stroke:#d8aa3f;stroke-width:1.66499996" />
    <path
       d="m 209.47,263.35 c -13.852,-20.398 -49.882,-26.602 -42.922,-67.69 19.807,28.928 21.971,5.782 55.109,37.936 z"
       id="path11"
       inkscape:connector-curvature="0"
       style="fill:#fec74a;fill-rule:evenodd;stroke:#d8aa3f;stroke-width:1.66499996" />
    <path
       d="m 215.77,250.01 c -5,-24.145 -35.922,-43.653 -13.782,-78.958 7.242,34.303 18.091,13.743 36.418,56.124 l -22.637,22.834 z"
       id="path13"
       inkscape:connector-curvature="0"
       style="fill:#fec74a;fill-rule:evenodd;stroke:#d8aa3f;stroke-width:1.66499996" />
    <path
       d="m 230.32,237.61 c 2.653,-24.514 -20.786,-52.572 11.123,-79.376 -3.638,34.87 12.998,18.633 17.431,64.594 l -28.553,14.782 z"
       id="path15"
       inkscape:connector-curvature="0"
       style="fill:#fec74a;fill-rule:evenodd;stroke:#d8aa3f;stroke-width:1.66499996" />
    <path
       d="m 243.26,227.67 c 12.457,-21.279 2.56,-56.474 42.646,-67.864 -17.596,30.324 4.23,22.321 -10.543,66.068 z"
       id="path17"
       inkscape:connector-curvature="0"
       style="fill:#fec74a;fill-rule:evenodd;stroke:#d8aa3f;stroke-width:1.66499996" />
    <path
       d="m 262.07,230.29 c 18.559,-16.234 20.327,-52.751 61.957,-50.849 -26.3,23.183 -3.062,22.511 -30.94,59.321 l -31.017,-8.471 z"
       id="path19"
       inkscape:connector-curvature="0"
       style="fill:#fec74a;fill-rule:evenodd;stroke:#d8aa3f;stroke-width:1.66499996" />
    <path
       d="m 278.57,239.87 c 22.506,-10.072 34.914,-44.463 74.152,-30.426 -31.946,14.444 -9.534,20.621 -46.987,47.628 z"
       id="path21"
       inkscape:connector-curvature="0"
       style="fill:#fec74a;fill-rule:evenodd;stroke:#d8aa3f;stroke-width:1.66499996" />
    <path
       d="m 292.49,254.93 c 24.431,-3.33 46.018,-32.837 79.718,-8.323 -34.72,4.867 -14.953,17.104 -58.494,32.476 z"
       id="path23"
       inkscape:connector-curvature="0"
       style="fill:#fec74a;fill-rule:evenodd;stroke:#d8aa3f;stroke-width:1.66499996" />
    <path
       d="m 379.46,259.6 -112.06,2.46 4.705,30.194 107.36,-32.654 z"
       id="path25"
       inkscape:connector-curvature="0"
       style="fill:#fec74a;fill-rule:evenodd;stroke:#d8aa3f;stroke-width:1.66499996" />
    <path
       d="m 363,218.41 -103.84,39.859 17.386,33.373 86.458,-73.232 z"
       id="path27"
       inkscape:connector-curvature="0"
       style="fill:#fec74a;fill-rule:evenodd;stroke:#d8aa3f;stroke-width:1.66499996" />
    <path
       d="m 280.58,280.67 53.722,-97.54 -82.407,76.705 28.684,20.835 z"
       id="path29"
       inkscape:connector-curvature="0"
       style="fill:#fec74a;fill-rule:evenodd;stroke:#d8aa3f;stroke-width:1.66499996" />
    <path
       d="m 279.46,272.63 17.268,-109.47 -53.811,97.285 36.543,12.187 z"
       id="path31"
       inkscape:connector-curvature="0"
       style="fill:#fec74a;fill-rule:evenodd;stroke:#d8aa3f;stroke-width:1.66499996" />
    <path
       d="m 273.01,263.74 -18.035,-110.25 -19.989,110.73 38.025,-0.482 z"
       id="path33"
       inkscape:connector-curvature="0"
       style="fill:#fec74a;fill-rule:evenodd;stroke:#d8aa3f;stroke-width:1.66499996" />
    <path
       d="m 263.68,254.29 -52.292,-92.072 20.095,111.92 32.197,-19.845 z"
       id="path35"
       inkscape:connector-curvature="0"
       style="fill:#fec74a;fill-rule:evenodd;stroke:#d8aa3f;stroke-width:1.66499996" />
    <path
       d="m 255.56,253.6 -81.101,-68.479 57.667,98.003 23.435,-29.524 z"
       id="path37"
       inkscape:connector-curvature="0"
       style="fill:#fec74a;fill-rule:evenodd;stroke:#d8aa3f;stroke-width:1.66499996" />
    <path
       d="m 145.95,218.89 87.069,71.891 13.387,-37.606 -100.46,-34.285 z"
       id="path39"
       inkscape:connector-curvature="0"
       style="fill:#fec74a;fill-rule:evenodd;stroke:#d8aa3f;stroke-width:1.66499996" />
    <path
       d="m 232.1,260.85 -102.31,-1.438 101.88,34.01 0.429,-32.572 z"
       id="path41"
       inkscape:connector-curvature="0"
       style="fill:#fec74a;fill-rule:evenodd;stroke:#d8aa3f;stroke-width:1.66499996" />
    <path
       d="m 315.121,279.224 c 0,33.896 -27.478,61.374 -61.374,61.374 -33.896,0 -61.373,-27.478 -61.373,-61.374 0,-33.896 27.478,-61.374 61.373,-61.374 33.895,0 61.374,27.478 61.374,61.374 z"
       id="path43"
       inkscape:connector-curvature="0"
       style="fill:#fec74a;fill-rule:evenodd;stroke:#d8aa3f;stroke-width:1.66512358" />
    <path
       d="m -165.12,303.4 h 839.9 V 512 h -839.9 z"
       id="path45"
       inkscape:connector-curvature="0"
       style="fill:#005989;fill-rule:evenodd" />
    <path
       d="m -165.6,454 c 15.618,7.228 37.991,25.319 61.922,25.303 40.042,-0.26 41.108,-27.425 81.669,-26.133 40.667,1.035 33.311,29.634 88.224,29.491 45.369,-0.119 60.026,-34.665 99.134,-30.526 28.963,-1.49 40.817,32.714 85.334,33.148 46.172,0.987 63.126,-37.28 92.09,-34.112 30.856,0 40.964,30.821 84.253,31.043 55.136,0.278 64.829,-32.078 99.323,-30.008 24.55,-0.518 43.91,23.714 79.887,24.317 28.707,0.489 52.74,-21.214 68.975,-28.974 l 0.803,-36.827 c -17.015,6.327 -42.386,27.073 -67.756,27.301 -36.51,1.336 -59.094,-23.946 -84.464,-23.718 -30.397,0.273 -42.51,31.284 -94.076,31.284 -47.11,0 -57.918,-31.284 -88.316,-31.284 -29.712,0.228 -38.815,34.026 -90.253,33.4 -41.96,-0.505 -58.31,-32.262 -88.023,-32.034 -31.5,0 -64.072,30.881 -98.951,29.39 -48.14,-2.034 -58.541,-29.39 -90.041,-29.39 -23.542,0 -48.948,25.635 -77.31,26.062 -28.205,0.434 -59.891,-25.508 -62.826,-26.062 l 0.402,38.33 z m 0,-72.93 c 15.618,7.228 37.991,25.319 61.922,25.303 40.042,-0.26 41.108,-27.425 81.669,-26.133 40.667,1.035 33.311,29.634 88.224,29.491 45.369,-0.119 60.026,-34.665 99.134,-30.526 28.963,-1.49 40.817,32.714 85.334,33.148 46.172,0.987 63.126,-37.28 92.09,-34.112 30.856,0 40.964,30.821 84.253,31.043 55.136,0.278 64.829,-32.078 99.323,-30.008 24.55,-0.518 43.91,23.714 79.887,24.317 28.707,0.489 52.74,-21.214 68.975,-28.974 l 0.803,-36.827 c -17.015,6.327 -42.386,27.073 -67.756,27.301 -36.51,1.336 -59.094,-23.946 -84.464,-23.718 -30.397,0.273 -42.51,31.284 -94.076,31.284 -47.11,0 -57.918,-31.284 -88.316,-31.284 -29.712,0.228 -38.815,34.026 -90.253,33.4 -41.96,-0.505 -58.31,-32.262 -88.023,-32.034 -31.5,0 -64.072,30.881 -98.951,29.39 -48.14,-2.034 -58.541,-29.39 -90.041,-29.39 -23.542,0 -48.948,25.635 -77.31,26.062 -28.205,0.434 -59.891,-25.508 -62.826,-26.062 l 0.402,38.33 z"
       id="path47"
       inkscape:connector-curvature="0"
       style="fill:#ffffff;fill-rule:evenodd" />
    <path
       d="m -165.6,308.92 c 15.603,7.228 37.955,25.319 61.865,25.303 40.004,-0.26 41.07,-27.425 81.593,-26.133 40.629,1.035 33.28,29.634 88.141,29.491 45.327,-0.119 59.97,-34.665 99.042,-30.526 28.936,-1.49 40.779,32.714 85.254,33.148 46.129,0.987 63.067,-37.28 92.004,-34.112 30.827,0 40.926,30.821 84.174,31.043 55.085,0.278 64.769,-32.078 99.23,-30.008 24.528,-0.518 43.869,23.714 79.813,24.317 28.68,0.489 52.691,-21.214 68.911,-28.974 l 0.802,-36.827 c -17,6.327 -42.346,27.073 -67.693,27.301 -36.475,1.336 -59.038,-23.946 -84.385,-23.718 -30.369,0.273 -42.471,31.284 -93.988,31.284 -47.065,0 -57.864,-31.284 -88.234,-31.284 -29.684,0.228 -38.779,34.026 -90.169,33.4 -41.921,-0.505 -58.255,-32.262 -87.941,-32.034 -31.47,0 -64.012,30.881 -98.859,29.39 -48.095,-2.034 -58.486,-29.39 -89.957,-29.39 -23.52,0 -48.903,25.635 -77.237,26.062 -28.15,0.44 -59.81,-25.5 -62.74,-26.06 l 0.401,38.33 z"
       id="path49"
       inkscape:connector-curvature="0"
       style="fill:#ffffff;fill-rule:evenodd" />
    <path
       d="m 136.81,75.956 c 61.048,-4.18 49.921,-9.394 74.493,-13.316 30.964,4.257 34.505,23.004 51.758,34.505 0,0 -6.485,21.926 -27.706,18.822 -2.853,-8.796 10.273,-11.515 -27.497,-34.54 -21.958,-1.307 -61.25,3.854 -71.048,-5.472 z m 189.26,33.934 -43.979,1.81 v 10.866 c 29.664,0.949 35.011,-3.018 43.979,-12.676 z"
       id="path51"
       inkscape:connector-curvature="0"
       style="fill:#ffc84b;fill-rule:evenodd;stroke:#d8aa3f;stroke-width:1.77600002" />
    <path
       d="m 174.84,108.07 c 7.665,-3.92 11.477,-2.32 18.118,-2.579 4.57,8.278 8.882,9.054 18.885,10.09 15.263,21.471 36.735,21.73 39.839,21.73 29.923,-0.778 39.409,-21.73 59.501,-24.06 h 21.214 c -3.535,-6.036 -6.295,-9.486 -13.97,-9.83 -15.781,-0.863 -36.217,-0.431 -54.067,3.621 l -25.094,6.21 c -7.33,-3.536 -25.266,-22.335 -36.735,-21.99 -6.726,1.81 -6.726,4.139 -10.089,6.726 -6.467,2.76 -12.936,1.437 -17.601,10.08 z"
       id="path53"
       inkscape:connector-curvature="0"
       style="fill:#ffc84b;fill-rule:evenodd;stroke:#d8aa3f;stroke-width:1.66499996;stroke-linejoin:round" />
    <path
       d="m 205.104,98.914 a 3.174,3.174 0 1 1 -6.348,0 3.174,3.174 0 0 1 6.348,0 z"
       id="path55"
       inkscape:connector-curvature="0"
       style="fill:#ffc84b;fill-rule:evenodd;stroke:#d8aa3f;stroke-width:1.66488194" />
    <path
       d="m 225.56,107.82 c 44.927,-54.154 84.163,-47.514 135.3,-51.222 1.725,6.295 1.122,15.695 -23.282,24.059 -33.372,4.915 -93.132,40.097 -93.39,40.097 -11.126,-0.517 -18.886,-12.158 -18.627,-12.935 z"
       id="path57"
       inkscape:connector-curvature="0"
       style="fill:#ffc84b;fill-rule:evenodd;stroke:#d8aa3f;stroke-width:1.77600002" />
    <path
       d="m 317.87,72.536 33.134,1.436 m -36.744,3.97 24.152,1.97"
       id="path59"
       inkscape:connector-curvature="0"
       style="fill:none;stroke:#d9a43e;stroke-width:1.77600002;stroke-linecap:round" />
  </g>
</svg>
