<?xml version="1.0" encoding="UTF-8" standalone="no"?>
<svg
   xmlns:dc="http://purl.org/dc/elements/1.1/"
   xmlns:cc="http://creativecommons.org/ns#"
   xmlns:rdf="http://www.w3.org/1999/02/22-rdf-syntax-ns#"
   xmlns:svg="http://www.w3.org/2000/svg"
   xmlns="http://www.w3.org/2000/svg"
   xmlns:sodipodi="http://sodipodi.sourceforge.net/DTD/sodipodi-0.dtd"
   xmlns:inkscape="http://www.inkscape.org/namespaces/inkscape"
   height="16"
   width="21.333437"
   viewBox="0 0 21.333437 16"
   version="1.1"
   id="svg39"
   sodipodi:docname="kr.svg"
   inkscape:version="0.92.1 r">
  <metadata
     id="metadata43">
    <rdf:RDF>
      <cc:Work
         rdf:about="">
        <dc:format>image/svg+xml</dc:format>
        <dc:type
           rdf:resource="http://purl.org/dc/dcmitype/StillImage" />
        <dc:title></dc:title>
      </cc:Work>
    </rdf:RDF>
  </metadata>
  <sodipodi:namedview
     pagecolor="#ffffff"
     bordercolor="#666666"
     borderopacity="1"
     objecttolerance="10"
     gridtolerance="10"
     guidetolerance="10"
     inkscape:pageopacity="0"
     inkscape:pageshadow="2"
     inkscape:window-width="1920"
     inkscape:window-height="1024"
     id="namedview41"
     showgrid="false"
     fit-margin-top="0"
     fit-margin-left="0"
     fit-margin-right="0"
     fit-margin-bottom="0"
     inkscape:zoom="0.49166667"
     inkscape:cx="320"
     inkscape:cy="239.9995"
     inkscape:window-x="0"
     inkscape:window-y="0"
     inkscape:window-maximized="1"
     inkscape:current-layer="svg39" />
  <defs
     id="defs5">
    <clipPath
       id="a">
      <path
         d="m -95.808,-0.44 h 682.67 v 512 h -682.67 z"
         id="path2"
         inkscape:connector-curvature="0"
         style="fill-opacity:0.67000002" />
    </clipPath>
  </defs>
  <g
     clip-path="url(#a)"
     transform="matrix(0.03125,0,0,0.03125,2.994,0.01375)"
     id="g37"
     style="fill-rule:evenodd">
    <path
       d="m 610.61,511.56 h -730.17 v -512 h 730.17 z"
       id="path7"
       inkscape:connector-curvature="0"
       style="fill:#ffffff" />
    <path
       d="m 251.871,256.021 c 0,62.137 -50.372,112.508 -112.507,112.508 -62.137,0 -112.507,-50.372 -112.507,-112.508 0,-62.137 50.371,-112.507 112.507,-112.507 62.137,0 112.507,50.372 112.507,112.507 z"
       id="path9"
       inkscape:connector-curvature="0"
       style="fill:#ffffff" />
    <path
       d="m 393.011,262.55 c 0,81.079 -65.034,146.803 -145.261,146.803 -80.227,0 -145.262,-65.723 -145.262,-146.803 0,-81.08 65.034,-146.804 145.262,-146.804 80.228,0 145.26,65.725 145.26,146.804 z"
       id="path11"
       inkscape:connector-curvature="0"
       style="fill:#c70000" />
    <path
       d="m -49.417,126.44 83.66,-96.77 19.821,17.135 -83.66,96.771 z m 27.399,23.687 83.66,-96.77 19.82,17.135 -83.66,96.77 z"
       id="path13"
       inkscape:connector-curvature="0" />
    <path
       d="m -49.417,126.44 83.66,-96.77 19.821,17.135 -83.66,96.771 z"
       id="path15"
       inkscape:connector-curvature="0" />
    <path
       d="m -49.417,126.44 83.66,-96.77 19.821,17.135 -83.66,96.771 z m 55.384,47.88 83.66,-96.77 19.82,17.136 -83.66,96.77 z"
       id="path17"
       inkscape:connector-curvature="0" />
    <path
       d="m -49.417,126.44 83.66,-96.77 19.821,17.135 -83.66,96.771 z"
       id="path19"
       inkscape:connector-curvature="0" />
    <path
       d="m -49.417,126.44 83.66,-96.77 19.821,17.135 -83.66,96.771 z m 508.83,-96.802 83.002,97.335 -19.937,17 -83.002,-97.334 z m -55.706,47.503 83.002,97.335 -19.936,17 -83.002,-97.334 z"
       id="path21"
       inkscape:connector-curvature="0" />
    <path
       d="m 417.55,133.19 78.602,-67.814 14.641,16.953 -83.996,75.519 -9.247,-24.659 z"
       id="path23"
       inkscape:connector-curvature="0"
       style="fill:#ffffff" />
    <path
       d="m 514.228,372.013 -80.416,95.829 -19.716,-16.4 80.417,-95.828 z M 431.853,53.14 l 83.002,97.334 -19.936,17.001 -83.002,-97.334 z m 109.622,341.536 -80.417,95.829 -19.715,-16.399 80.417,-95.829 z m -55.085,-45.819 -80.417,95.83 -19.715,-16.4 80.416,-95.829 z"
       id="path25"
       inkscape:connector-curvature="0" />
    <path
       d="m 104.6,236.68 c 4.592,36.974 11.297,78.175 68.199,82.455 21.328,1.278 62.817,-5.074 77.061,-63.19 18.688,-55.829 74.975,-71.88 113.28,-41.613 21.718,14.166 27.727,36.666 29.283,53.557 -1.739,54.243 -32.874,101.2 -72.823,122.14 -45.93,27.3 -109.56,27.87 -165.3,-13.49 -25.12,-23.57 -60.219,-67.02 -49.7,-139.86 z"
       id="path27"
       inkscape:connector-curvature="0"
       style="fill:#3d5897" />
    <path
       d="m 435.91,370.59 78.734,67.661 -14.591,16.997 -87.156,-71.851 z"
       id="path29"
       inkscape:connector-curvature="0"
       style="fill:#ffffff" />
    <path
       d="m -1.887,357.197 83.002,97.335 -19.937,17 -83.002,-97.334 z"
       id="path31"
       inkscape:connector-curvature="0" />
    <path
       d="m -16.188,437.25 78.602,-67.814 14.641,16.953 -83.996,75.519 -9.247,-24.659 z"
       id="path33"
       inkscape:connector-curvature="0"
       style="fill:#ffffff" />
    <path
       d="m 25.672,333.696 83.003,97.334 -19.937,17 -83.002,-97.334 z m -55.705,47.503 83.002,97.334 -19.936,17 L -49.97,398.2 Z"
       id="path35"
       inkscape:connector-curvature="0" />
  </g>
</svg>
