<?xml version="1.0" encoding="UTF-8" standalone="no"?>
<svg
   xmlns:dc="http://purl.org/dc/elements/1.1/"
   xmlns:cc="http://creativecommons.org/ns#"
   xmlns:rdf="http://www.w3.org/1999/02/22-rdf-syntax-ns#"
   xmlns:svg="http://www.w3.org/2000/svg"
   xmlns="http://www.w3.org/2000/svg"
   xmlns:sodipodi="http://sodipodi.sourceforge.net/DTD/sodipodi-0.dtd"
   xmlns:inkscape="http://www.inkscape.org/namespaces/inkscape"
   height="15.999998"
   width="21.333332"
   viewBox="0 0 21.333332 15.999998"
   version="1.1"
   id="svg128"
   sodipodi:docname="md.svg"
   inkscape:version="0.92.1 r">
  <metadata
     id="metadata134">
    <rdf:RDF>
      <cc:Work
         rdf:about="">
        <dc:format>image/svg+xml</dc:format>
        <dc:type
           rdf:resource="http://purl.org/dc/dcmitype/StillImage" />
        <dc:title></dc:title>
      </cc:Work>
    </rdf:RDF>
  </metadata>
  <defs
     id="defs132" />
  <sodipodi:namedview
     pagecolor="#ffffff"
     bordercolor="#666666"
     borderopacity="1"
     objecttolerance="10"
     gridtolerance="10"
     guidetolerance="10"
     inkscape:pageopacity="0"
     inkscape:pageshadow="2"
     inkscape:window-width="1920"
     inkscape:window-height="1024"
     id="namedview130"
     showgrid="false"
     fit-margin-top="0"
     fit-margin-left="0"
     fit-margin-right="0"
     fit-margin-bottom="0"
     inkscape:zoom="0.49166667"
     inkscape:cx="320"
     inkscape:cy="240"
     inkscape:window-x="0"
     inkscape:window-y="0"
     inkscape:window-maximized="1"
     inkscape:current-layer="svg128" />
  <g
     id="g8"
     transform="scale(0.03333333)"
     style="fill-rule:evenodd;stroke-width:1.00000003pt">
    <path
       d="M 0,0 H 213.337 V 480 H 0 Z"
       id="path2"
       inkscape:connector-curvature="0"
       style="fill:#00319c" />
    <path
       d="M 213.337,0 H 426.675 V 480 H 213.337 Z"
       id="path4"
       inkscape:connector-curvature="0"
       style="fill:#ffde00" />
    <path
       d="M 426.662,0 H 640 V 480 H 426.662 Z"
       id="path6"
       inkscape:connector-curvature="0"
       style="fill:#de2110" />
  </g>
  <path
     d="m 12.012533,10.67923 0.8089,1.16707 c 0.04493,0.0648 0.08987,0.12967 0.022,0.1726 -0.06783,0.043 -0.0458,0.21557 -8.66e-4,0.2804 0.08987,0.12967 0.202666,0.15157 0.270533,0.10863 l 0.610633,-0.38646 c 0.06787,-0.0429 0.09077,-0.15074 9e-4,-0.2804 -0.0516,-0.0653 -0.202666,-0.15157 -0.270533,-0.10864 -0.06787,0.043 -0.1128,-0.0219 -0.157733,-0.0867 l -0.8089,-1.16707"
     id="path10"
     inkscape:connector-curvature="0"
     style="fill:#ff1900;fill-rule:evenodd;stroke:#000000;stroke-width:0.02431893" />
  <path
     d="m 12.328174,9.85468 c 0.36168,0.41083 0.487598,0.87836 0.281221,1.04425 -0.20636,0.16589 -0.666873,-0.0327 -1.028553,-0.4435 -0.36168,-0.41083 -0.487598,-0.87836 -0.281221,-1.04426 0.20636,-0.16589 0.666872,0.0327 1.028553,0.44351 z"
     id="path12"
     inkscape:connector-curvature="0"
     style="fill:#a77b3b;fill-rule:evenodd;stroke:#000000;stroke-width:0.05702858" />
  <path
     d="M 8.7317333,10.20473 8.0176667,11.427 c -0.039667,0.0679 -0.079333,0.1358 -0.1504,0.0979 -0.071067,-0.0379 -0.2215,0.06 -0.2611667,0.12787 -0.079333,0.13583 -0.047967,0.24163 0.0231,0.27953 l 0.6395333,0.3412 c 0.071067,0.0379 0.1818,0.008 0.2611334,-0.1279 0.037133,-0.0738 0.048,-0.2416 -0.0231,-0.27953 -0.071067,-0.0379 -0.031367,-0.1058 0.0083,-0.1737 l 0.7141,-1.22224"
     id="path14"
     inkscape:connector-curvature="0"
     style="fill:#ff1900;fill-rule:evenodd;stroke:#000000;stroke-width:0.02431893" />
  <path
     d="M 11.038967,9.35257 H 10.3879 c -0.02153,0.0206 -0.206667,1.1866 -0.4069333,1.6331 -0.2441334,0.54433 -0.9753334,1.0247 -0.9753334,1.0247 0,0 0.4380667,0.13266 0.5684334,0.21953 0.0324,-0.009 0.7312003,-0.1555 0.8125663,-1.01097 0.0814,0.85547 -0.4869997,1.2443 -0.4869997,1.2443 0,0 0.8138337,0.2333 0.8138337,0.77767 0,-0.54437 0.813833,-0.77767 0.813833,-0.77767 0,0 -0.4082,-0.38883 -0.489567,-1.2443 0.162734,0.85547 0.782667,1.00187 0.8151,1.011 0.130334,-0.0869 0.568434,-0.21956 0.568434,-0.21956 0,0 -0.7312,-0.48034 -0.975334,-1.0247 -0.200233,-0.4465 -0.3854,-1.61254 -0.4069,-1.6331 z M 8.2708,5.46357 9.4915667,5.8524 c 0.4069,0 0.8138333,-0.3884 0.8138333,-0.77727 0.01353,-0.865 -0.3255333,-1.1669 -0.4069333,-1.1669 L 10.061267,3.7527 9.8171,3.51937 c 0,0 0.081633,-0.4034 0.8952,-0.3884 0.813567,0.015 0.813867,0.38883 0.813867,0.77766 0,0.38884 -0.406934,0.38884 -0.406934,1.16654 0,0.38883 0.406934,0.77766 0.813867,0.77766 L 13.153867,5.464 V 9.35237 H 8.2708 V 5.4636 Z"
     id="path16"
     inkscape:connector-curvature="0"
     style="fill:#a77b3b;fill-rule:evenodd;stroke:#000000;stroke-width:0.05704491" />
  <g
     id="g22"
     transform="scale(0.03333333)"
     style="fill:none;stroke:#000000">
    <path
       d="m 302.16,292.24 14.645,14.964 14.644,-14.964 14.645,14.964 29.29,-14.964 14.261,15.809 15.028,-15.809 21.605,15.809 22.329,-15.809 14.645,14.964 14.645,-14.964"
       transform="matrix(0.16672,0,0,0.46773,253.9,31.899)"
       id="path18"
       inkscape:connector-curvature="0"
       style="stroke-width:0.49000001" />
    <path
       d="m 432.28,435.83 -7.086,38.976 M 435.83,435.83 v 38.976 m 7.08,-38.976 v 38.976 m 7.09,-38.976 3.543,38.976 m 3.547,-38.976 3.543,38.976"
       transform="matrix(0.68905,0,0,0.65843,16.176,-144.034)"
       id="path20"
       inkscape:connector-curvature="0"
       style="stroke-width:0.20299999" />
  </g>
  <g
     id="g38"
     transform="scale(0.03333333)"
     style="stroke:#000000;stroke-width:2.53999996">
    <path
       d="m 318.9,361.42 c 35.433,17.717 35.433,53.149 35.433,70.866 -1.251,16.117 0,354.33 0,354.33 0,0 -2.306,-20.022 -17.717,-35.433 L 318.9,733.467 301.183,715.75 C 288.232,703.976 283.467,680.317 283.467,662.6 V 414.57 c 0,0 0,-17.717 35.433,-53.15 z"
       transform="matrix(-0.68905,0,0,0.65843,443.445,-144.034)"
       id="path24"
       inkscape:connector-curvature="0"
       style="fill:#a77b3b;fill-rule:evenodd" />
    <path
       d="m 283.46,574.02 c 0.417,0 17.716,-17.717 17.716,-17.717 l 17.717,17.717 17.716,-17.717 17.717,17.717"
       transform="matrix(-0.68905,0,0,0.65843,443.445,-237.354)"
       id="path26"
       inkscape:connector-curvature="0"
       style="fill:none" />
    <path
       d="m 283.46,574.02 c 0.417,0 17.716,-17.717 17.716,-17.717 l 17.717,17.717 17.716,-17.717 17.717,17.717"
       transform="matrix(-0.68905,0,0,-0.65843,443.445,530.2)"
       id="path28"
       inkscape:connector-curvature="0"
       style="fill:none" />
    <path
       d="m 283.46,574.02 c 0.417,0 17.716,-17.717 17.716,-17.717 l 17.717,17.717 17.716,-17.717 17.717,17.717"
       transform="matrix(-0.68905,0,0,0.65843,443.445,-190.695)"
       id="path30"
       inkscape:connector-curvature="0"
       style="fill:none" />
    <path
       d="m 301.39,556.99 -0.208,158.76"
       transform="matrix(-0.68905,0,0,1.24911,443.445,-566.794)"
       id="path32"
       inkscape:connector-curvature="0"
       style="fill:none" />
    <path
       d="m 301.39,539.27 -0.208,176.48"
       transform="matrix(-0.68905,0,0,1.12111,431.38,-463.993)"
       id="path34"
       inkscape:connector-curvature="0"
       style="fill:none" />
    <path
       d="m 301.39,539.27 -0.208,176.48"
       transform="matrix(-0.68905,0,0,1.2559,419.17,-548.331)"
       id="path36"
       inkscape:connector-curvature="0"
       style="fill:none" />
  </g>
  <g
     id="g54"
     transform="scale(0.03333333)"
     style="stroke:#000000;stroke-width:2.53999996">
    <path
       d="m 318.9,361.42 c 35.433,17.717 35.433,53.149 35.433,70.866 -1.251,16.117 0,354.33 0,354.33 0,0 -2.306,-20.022 -17.717,-35.433 L 318.9,733.467 301.183,715.75 C 288.232,703.976 283.467,680.317 283.467,662.6 V 414.57 c 0,0 0,-17.717 35.433,-53.15 z"
       transform="matrix(0.68905,0,0,0.65843,199.292,-144.034)"
       id="path40"
       inkscape:connector-curvature="0"
       style="fill:#a77b3b;fill-rule:evenodd" />
    <path
       d="m 283.46,574.02 c 0.417,0 17.716,-17.717 17.716,-17.717 l 17.717,17.717 17.716,-17.717 17.717,17.717"
       transform="matrix(0.68905,0,0,0.65843,199.292,-237.354)"
       id="path42"
       inkscape:connector-curvature="0"
       style="fill:none" />
    <path
       d="m 283.46,574.02 c 0.417,0 17.716,-17.717 17.716,-17.717 l 17.717,17.717 17.716,-17.717 17.717,17.717"
       transform="matrix(0.68905,0,0,-0.65843,199.292,530.2)"
       id="path44"
       inkscape:connector-curvature="0"
       style="fill:none" />
    <path
       d="m 283.46,574.02 c 0.417,0 17.716,-17.717 17.716,-17.717 l 17.717,17.717 17.716,-17.717 17.717,17.717"
       transform="matrix(0.68905,0,0,0.65843,199.292,-190.695)"
       id="path46"
       inkscape:connector-curvature="0"
       style="fill:none" />
    <path
       d="m 301.39,556.99 -0.208,158.76"
       transform="matrix(0.68905,0,0,1.24911,199.292,-566.794)"
       id="path48"
       inkscape:connector-curvature="0"
       style="fill:none" />
    <path
       d="m 301.39,539.27 -0.208,176.48"
       transform="matrix(0.68905,0,0,1.12111,211.358,-463.993)"
       id="path50"
       inkscape:connector-curvature="0"
       style="fill:none" />
    <path
       d="m 301.39,539.27 -0.208,176.48"
       transform="matrix(0.68905,0,0,1.2559,223.56,-548.331)"
       id="path52"
       inkscape:connector-curvature="0"
       style="fill:none" />
  </g>
  <path
     d="M 9.6439051,10.09422 C 9.4278166,10.58979 9.050841,10.91119 8.801891,10.81207 8.5529622,10.71297 8.5263218,10.23087 8.74241,9.73531 8.9584985,9.23975 9.3354742,8.91835 9.5844242,9.01746 c 0.2489287,0.0991 0.2755692,0.5812 0.059481,1.07676 z"
     id="path56"
     inkscape:connector-curvature="0"
     style="fill:#a77b3b;fill-rule:evenodd;stroke:#000000;stroke-width:0.05702848" />
  <path
     d="M 8.2706333,5.85293 H 13.153733 V 8.18597 H 8.2706333 Z"
     id="path58"
     inkscape:connector-curvature="0"
     style="fill:#ff0000;fill-rule:evenodd;stroke-width:0.03333334" />
  <path
     d="m 8.2706667,8.186 h 4.8830663 v 1.16653 c 0,0.77767 -1.220766,0.77767 -2.441533,1.55534 C 9.4914,10.1302 8.2706333,10.1302 8.2706333,9.35253 V 8.186 Z"
     id="path60"
     inkscape:connector-curvature="0"
     style="fill:#564dff;fill-rule:evenodd;stroke-width:0.03333334" />
  <path
     d="m 8.270604,5.85292 h 4.883068 v 3.49956 c 0,0.77767 -1.220767,0.77767 -2.441534,1.55534 C 9.4913939,10.13015 8.270604,10.13015 8.270604,9.35248 Z"
     id="path62"
     inkscape:connector-curvature="0"
     style="fill:none;stroke:#ffff00;stroke-width:0.04562287" />
  <path
     d="m 9.8169494,6.00844 c 0,0 -0.8138363,0.57142 -0.8138363,1.11919 0,0.54774 0.8545297,0.73033 0.8545297,0.73033 0,0 -0.284854,0 -0.284854,0.73032 0,0.36516 0.8545462,0.18258 0.8545462,0.36516 0,0.18258 -0.01207,0.62429 0,0.91291 0,0.18257 -0.5696922,0 -0.5696922,0.18257 0,0.0913 0.4272732,0.54775 0.8545452,0.54775 0.427257,0 0.85453,-0.45645 0.85453,-0.54775 0,-0.18257 -0.569692,0 -0.569692,-0.18257 V 8.95344 c 0,-0.18258 0.854546,0 0.854546,-0.36516 0,-0.73032 -0.284854,-0.73032 -0.284854,-0.73032 0,0 0.854546,-0.18259 0.854546,-0.73033 0,-0.54773 -0.813852,-1.11919 -0.813852,-1.11919 0,-1e-5 0.457788,0.75399 0.457788,1.11919 0,0.18259 -0.213628,0.54774 -0.78332,0.54774 0,0 -0.144075,-0.18257 -0.284854,0 0,0 -0.163818,-0.18257 -0.284838,0 -0.04177,0.063 -0.115874,-0.18257 -0.284853,0 -0.07179,0.0484 -0.128367,-0.18257 -0.284854,0 -0.2848382,0 -0.8545139,-0.18257 -0.85453,-0.54774 0,-0.36516 0.5289984,-1.11919 0.5289984,-1.11919 z"
     id="path64"
     inkscape:connector-curvature="0"
     style="fill:#ffff00;fill-rule:evenodd;stroke:#000000;stroke-width:0.03151124" />
  <path
     d="m 9.8314957,9.27578 c -0.056964,0.0365 0.073653,0.63147 0.1139448,0.65729 0.056964,0.0365 0.3987825,0.0365 0.4557465,0 0.0406,-0.026 0,-0.58426 -0.05696,-0.62078 -0.05696,-0.0365 -0.4724358,-0.0623 -0.5127273,-0.0365 z"
     id="path66"
     inkscape:connector-curvature="0"
     style="fill:#ffff00;fill-rule:evenodd;stroke:#000000;stroke-width:0.03151124" />
  <path
     d="m 11.593071,9.27578 c 0.05696,0.0365 -0.07365,0.63147 -0.113945,0.65729 -0.05696,0.0365 -0.398782,0.0365 -0.455747,0 -0.0406,-0.026 0,-0.58426 0.05696,-0.62078 0.05696,-0.0365 0.472435,-0.0623 0.512727,-0.0365 z"
     id="path68"
     inkscape:connector-curvature="0"
     style="fill:#ffff00;fill-rule:evenodd;stroke:#000000;stroke-width:0.03151124" />
  <path
     d="m 10.417587,9.06036 c 0,0.11314 -0.131929,0.20485 -0.294664,0.20485 -0.1627345,0 -0.2946633,-0.0917 -0.2946633,-0.20485 0,-0.11313 0.1319288,-0.20485 0.2946633,-0.20485 0.162735,0 0.294664,0.0917 0.294664,0.20485 z"
     id="path70"
     inkscape:connector-curvature="0"
     style="fill:#ffff00;fill-rule:evenodd;stroke:#000000;stroke-width:0.03771976" />
  <path
     d="m 11.596258,9.06044 c 0,0.11314 -0.131931,0.20486 -0.294668,0.20486 -0.162738,0 -0.294669,-0.0917 -0.294669,-0.20486 0,-0.11314 0.131931,-0.20486 0.294669,-0.20486 0.162737,0 0.294668,0.0917 0.294668,0.20486 z"
     id="path72"
     inkscape:connector-curvature="0"
     style="fill:#ffff00;fill-rule:evenodd;stroke:#000000;stroke-width:0.03772059" />
  <path
     d="m 11.2251,10.24993 c 0,0.0504 -0.06377,0.0913 -0.142433,0.0913 -0.07867,0 -0.1424,-0.0409 -0.1424,-0.0913 0,-0.0504 0.06377,-0.0913 0.1424,-0.0913 0.07867,0 0.142433,0.0409 0.142433,0.0913 z m -0.740733,0 c 0,0.0504 -0.06377,0.0913 -0.142434,0.0913 -0.07867,0 -0.1424,-0.0409 -0.1424,-0.0913 0,-0.0504 0.06377,-0.0913 0.1424,-0.0913 0.07867,0 0.142434,0.0409 0.142434,0.0913 z"
     id="path74"
     inkscape:connector-curvature="0"
     style="fill-rule:evenodd;stroke-width:0.03333334" />
  <path
     d="m 10.712283,7.33054 -0.174337,-0.21969 -0.286154,0.0375 0.03944,-0.27322 -0.229909,-0.16659 0.229909,-0.1668 -0.03944,-0.27322 0.286154,0.0377 0.174337,-0.2199 0.174337,0.2199 0.286154,-0.0377 -0.03944,0.27322 0.22991,0.1668 -0.22991,0.16659 0.03944,0.27322 -0.286154,-0.0375 z"
     id="path76"
     inkscape:connector-curvature="0"
     style="fill:#ffff00;fill-rule:evenodd;stroke:#000000;stroke-width:0.02374467" />
  <path
     d="m 11.932871,8.18596 0.488307,0.2333 0.488307,-0.2333 -0.488307,-0.2333 z"
     id="path78"
     inkscape:connector-curvature="0"
     style="fill:#ffff00;fill-rule:evenodd;stroke:#000000;stroke-width:0.02433819" />
  <path
     d="M 8.4334048,8.18596 8.9217115,8.41926 9.4100183,8.18596 8.9217115,7.95266 Z"
     id="path80"
     inkscape:connector-curvature="0"
     style="fill:#ffff00;fill-rule:evenodd;stroke:#000000;stroke-width:0.02433819" />
  <path
     d="m 12.690549,9.57846 c -0.151622,-0.0961 -0.403886,-0.0474 -0.545022,0.0301 -0.141157,0.0775 -0.282313,0.15492 -0.301857,0.43469 -0.16212,-0.26975 -0.03401,-0.51942 0.180264,-0.637 0.214234,-0.11757 0.54357,-0.0325 0.666615,0.17226 z"
     id="path82"
     inkscape:connector-curvature="0"
     style="fill:#ffff00;fill-rule:evenodd;stroke:#000000;stroke-width:0.02433826" />
  <path
     d="m 9.328663,9.11922 a 0.16277658,0.15554311 0 1 1 -0.3255302,0 0.16277658,0.15554311 0 0 1 0.3255302,0 z"
     id="path84"
     inkscape:connector-curvature="0"
     style="fill:#ffff00;fill-rule:evenodd;stroke:#000000;stroke-width:0.02433819" />
  <path
     d="m 9.165863,9.66362 a 0.16277658,0.15554311 0 1 1 -0.3255302,0 0.16277658,0.15554311 0 0 1 0.3255302,0 z"
     id="path86"
     inkscape:connector-curvature="0"
     style="fill:#ffff00;fill-rule:evenodd;stroke:#000000;stroke-width:0.02433819" />
  <path
     d="m 9.0844964,9.35255 a 0.16277658,0.15554311 0 1 1 -0.3255302,0 0.16277658,0.15554311 0 0 1 0.3255302,0 z"
     id="path88"
     inkscape:connector-curvature="0"
     style="fill:#ffff00;fill-rule:evenodd;stroke:#000000;stroke-width:0.02433819" />
  <path
     d="m 9.4914297,9.66362 a 0.16277658,0.15554311 0 1 1 -0.3255302,0 0.16277658,0.15554311 0 0 1 0.3255302,0 z"
     id="path90"
     inkscape:connector-curvature="0"
     style="fill:#ffff00;fill-rule:evenodd;stroke:#000000;stroke-width:0.02433819" />
  <path
     d="m 9.5728297,9.35255 a 0.16277658,0.15554311 0 1 1 -0.3255302,0 0.16277658,0.15554311 0 0 1 0.3255302,0 z"
     id="path92"
     inkscape:connector-curvature="0"
     style="fill:#ffff00;fill-rule:evenodd;stroke:#000000;stroke-width:0.02433819" />
  <path
     d="m 9.328663,9.43032 a 0.16277658,0.15554311 0 1 1 -0.3255302,0 0.16277658,0.15554311 0 0 1 0.3255302,0 z"
     id="path94"
     inkscape:connector-curvature="0"
     style="fill:#ffff00;fill-rule:evenodd;stroke:#000000;stroke-width:0.02433819" />
  <g
     id="g104"
     transform="scale(0.03333333)"
     style="fill-rule:evenodd">
    <path
       d="m 297.774,120.38 c -12.323,0 -13.952,1.945 -19.533,3.89 0,-5.366 13.722,-11.666 26.044,-11.666 0,3.889 -3.256,7.778 -6.511,7.777 z"
       id="path96"
       inkscape:connector-curvature="0"
       style="fill:#da4500" />
    <path
       d="m 316.484,107.932 c 0,2.577 -2.186,4.666 -4.883,4.666 -2.697,0 -4.883,-2.089 -4.883,-4.666 0,-2.577 2.186,-4.666 4.883,-4.666 2.697,0 4.883,2.09 4.883,4.666 z"
       id="path98"
       inkscape:connector-curvature="0"
       style="fill:#cac9c7" />
    <path
       d="m 361.42,357.87 v 10.63 h 17.717 v 53.15 h 10.63 V 368.5 h 17.716 v -10.63 h -17.716 v -14.173 h -10.63 v 14.173 z"
       transform="matrix(0.68905,0,0,0.65843,16.176,-144.034)"
       id="path100"
       inkscape:connector-curvature="0"
       style="fill:#ffff00;stroke:#000000;stroke-width:1.08399999" />
    <path
       d="m 304.263,112.607 c -14.375,0 -22.787,1.294 -29.298,3.887 0,-7.155 8.412,-15.553 22.787,-15.553 3.255,0 6.51,7.776 6.51,11.666 z"
       id="path102"
       inkscape:connector-curvature="0"
       style="fill:#da4500" />
  </g>
  <g
     id="g112"
     transform="scale(0.03333333)"
     style="fill-rule:evenodd">
    <path
       d="M 67.323,612.99 C 53.15,598.82 50.689,591.63 70.866,602.89 l 283.75,247.5 -3.366,6.968 -283.93,-244.37 z"
       transform="matrix(0.38821,0.29653,-0.14073,0.23692,237.452,71.286)"
       id="path106"
       inkscape:connector-curvature="0"
       style="fill:#008500;stroke:#000000;stroke-width:0.71100003" />
    <path
       d="m 228.398,330.405 c 0.77,-10.585 -18.61,-22.036 -19.377,-21.292 -0.767,0.744 1.178,6.907 4.854,10.119 -7.038,-3.626 -14.41,-5.859 -14.564,-4.285 -0.574,2.122 10.937,7.19 11.893,9.148 0.156,1.399 -8.454,1.216 -8.297,2.615 0.156,1.4 24.25,13.573 25.49,3.694 z M 209.035,299.57 c 0.769,-10.584 -18.611,-22.035 -19.378,-21.29 -0.767,0.743 1.178,6.906 4.854,10.117 -7.038,-3.625 -14.41,-5.858 -14.564,-4.284 -0.574,2.122 10.938,7.19 11.893,9.147 0.156,1.4 -8.453,1.217 -8.297,2.616 0.156,1.399 24.25,13.573 25.491,3.694 z m -14.818,-27.996 c 0.77,-10.585 -18.611,-22.035 -19.377,-21.291 -0.767,0.743 1.178,6.906 4.853,10.118 -7.038,-3.626 -14.409,-5.859 -14.563,-4.285 -0.574,2.123 10.937,7.19 11.893,9.148 0.156,1.399 -8.454,1.216 -8.298,2.615 0.157,1.4 24.25,13.573 25.492,3.695 z M 179.568,241.24 c 0.769,-10.585 -18.611,-22.035 -19.378,-21.291 -0.767,0.743 1.179,6.906 4.854,10.118 -7.038,-3.626 -14.41,-5.859 -14.564,-4.285 -0.574,2.123 10.938,7.19 11.894,9.148 0.156,1.399 -8.454,1.216 -8.298,2.615 0.156,1.4 24.25,13.573 25.491,3.695 z"
       id="path108"
       inkscape:connector-curvature="0"
       style="fill:#008f00" />
    <path
       d="m 184.603,239.866 c 9.377,-5.682 7.54,-27.385 6.46,-27.533 -1.082,-0.15 -5.124,5 -5.652,9.733 -1.116,-7.565 -3.603,-14.562 -5.022,-13.748 -2.129,0.816 0.423,12.68 -0.66,14.575 -1.087,0.95 -6.036,-5.784 -7.123,-4.835 -1.086,0.95 2.935,26.709 11.997,21.808 z m 13.582,26.631 c 10.825,-2.365 16.676,-23.408 15.709,-23.893 -0.967,-0.486 -6.576,3.08 -8.728,7.372 1.592,-7.487 1.692,-14.876 0.07,-14.561 -2.291,0.09 -4.03,12.087 -5.714,13.528 -1.356,0.549 -3.669,-7.378 -5.025,-6.83 -1.356,0.549 -6.565,26.112 3.689,24.384 z m 16.225,27.242 c 9.872,-4.857 10.078,-26.63 9.015,-26.87 -1.063,-0.241 -5.57,4.542 -6.54,9.21 -0.403,-7.63 -2.224,-14.812 -3.713,-14.122 -2.197,0.63 -0.767,12.665 -2.024,14.46 -1.171,0.853 -5.47,-6.278 -6.64,-5.426 -1.172,0.853 0.418,26.853 9.902,22.747 z m 17.562,35.568 c 10.336,-3.878 12.845,-25.519 11.813,-25.861 -1.032,-0.343 -6.023,3.98 -7.482,8.53 0.408,-7.63 -0.644,-14.95 -2.198,-14.408 -2.253,0.415 -2.105,12.526 -3.545,14.19 -1.255,0.735 -4.776,-6.775 -6.032,-6.04 -1.255,0.736 -2.426,26.756 7.444,23.588 z"
       id="path110"
       inkscape:connector-curvature="0"
       style="fill:#008f00" />
  </g>
  <path
     d="m 8.4903392,12.21346 c -0.087647,0.15001 -0.3654941,0.16128 -0.6205694,0.0252 -0.2550953,-0.1361 -0.390825,-0.36802 -0.3031886,-0.51801 0.087648,-0.15001 0.365494,-0.16128 0.6205693,-0.0252 0.2550954,0.13609 0.390825,0.36802 0.3031887,0.51801 z"
     id="path114"
     inkscape:connector-curvature="0"
     style="fill:#ff1900;fill-rule:evenodd;stroke:#000000;stroke-width:0.02433833" />
  <g
     id="g124"
     transform="scale(0.03333333)"
     style="fill:#ffff00;fill-rule:evenodd;stroke:#000000">
    <path
       d="m 155.91,414.57 v -7.087 h 7.086 v -7.086 h 7.087 v 7.086 h 7.086 v 7.087 h -7.086 v 17.716 h -7.087 V 414.57 Z"
       transform="matrix(0.49887,0.1571,-0.1826,0.4713,451.443,-3.726)"
       id="path116"
       inkscape:connector-curvature="0"
       style="stroke-width:0.50800002" />
    <path
       d="m 162.99,474.8 h 7.087 v 205.51 h -7.087 z"
       transform="matrix(0.49887,0.1571,-0.1826,0.4713,451.443,-3.726)"
       id="path118"
       inkscape:connector-curvature="0"
       style="stroke-width:0.51200002" />
    <path
       d="m 159.45,676.77 h 14.173 v 56.693 H 159.45 Z m -3.54,-237.4 h 21.259 c 14.174,0 -3.543,38.976 -3.543,38.976 h -14.173 c 0,0 -17.717,-38.976 -3.543,-38.976 z"
       transform="matrix(0.49887,0.1571,-0.1826,0.4713,451.443,-3.726)"
       id="path120"
       inkscape:connector-curvature="0"
       style="stroke-width:0.50800002" />
    <path
       d="m 173.62,434.06 c 0,2.935 -3.173,5.315 -7.087,5.315 -3.914,0 -7.086,-2.38 -7.086,-5.315 0,-2.935 3.173,-5.315 7.086,-5.315 3.913,0 7.087,2.38 7.087,5.315 z"
       transform="matrix(0.49887,0.1571,-0.1826,0.4713,451.443,-3.726)"
       id="path122"
       inkscape:connector-curvature="0"
       style="stroke-width:0.50800002" />
  </g>
  <path
     d="m 13.769625,11.80594 c 0.09928,0.14324 -0.01772,0.38432 -0.261285,0.53846 -0.243583,0.15415 -0.52152,0.16299 -0.620787,0.0198 -0.09928,-0.14324 0.01772,-0.38432 0.261285,-0.53846 0.243583,-0.15415 0.52152,-0.16299 0.620787,-0.0198 z"
     id="path126"
     inkscape:connector-curvature="0"
     style="fill:#ff1900;fill-rule:evenodd;stroke:#000000;stroke-width:0.02433835" />
</svg>
