<?xml version="1.0" encoding="UTF-8" standalone="no"?>
<svg
   xmlns:dc="http://purl.org/dc/elements/1.1/"
   xmlns:cc="http://creativecommons.org/ns#"
   xmlns:rdf="http://www.w3.org/1999/02/22-rdf-syntax-ns#"
   xmlns:svg="http://www.w3.org/2000/svg"
   xmlns="http://www.w3.org/2000/svg"
   xmlns:sodipodi="http://sodipodi.sourceforge.net/DTD/sodipodi-0.dtd"
   xmlns:inkscape="http://www.inkscape.org/namespaces/inkscape"
   height="15.999998"
   width="21.333332"
   viewBox="0 0 21.333332 15.999998"
   version="1.1"
   id="svg161"
   sodipodi:docname="mp.svg"
   inkscape:version="0.92.1 r">
  <metadata
     id="metadata165">
    <rdf:RDF>
      <cc:Work
         rdf:about="">
        <dc:format>image/svg+xml</dc:format>
        <dc:type
           rdf:resource="http://purl.org/dc/dcmitype/StillImage" />
        <dc:title></dc:title>
      </cc:Work>
    </rdf:RDF>
  </metadata>
  <sodipodi:namedview
     pagecolor="#ffffff"
     bordercolor="#666666"
     borderopacity="1"
     objecttolerance="10"
     gridtolerance="10"
     guidetolerance="10"
     inkscape:pageopacity="0"
     inkscape:pageshadow="2"
     inkscape:window-width="1920"
     inkscape:window-height="1024"
     id="namedview163"
     showgrid="false"
     fit-margin-top="0"
     fit-margin-left="0"
     fit-margin-right="0"
     fit-margin-bottom="0"
     inkscape:zoom="0.49166667"
     inkscape:cx="320"
     inkscape:cy="240"
     inkscape:window-x="0"
     inkscape:window-y="0"
     inkscape:window-maximized="1"
     inkscape:current-layer="svg161" />
  <defs
     id="defs5">
    <clipPath
       id="a">
      <path
         d="M 0,0 H 640 V 480 H 0 Z"
         id="path2"
         inkscape:connector-curvature="0"
         style="fill-opacity:0.67000002" />
    </clipPath>
  </defs>
  <g
     clip-path="url(#a)"
     id="g159"
     transform="scale(0.03333333)">
    <path
       d="M -160,0 H 800 V 480 H -160 Z"
       id="path7"
       inkscape:connector-curvature="0"
       style="fill:#0071bc;fill-rule:evenodd" />
    <path
       d="m 369.927,365.661 c 0,0 15.223,-16.1 29.86,-13.027 4.392,-16.98 20.932,-18.297 20.932,-18.297 0,0 -1.61,-18.736 19.615,-22.834 0.585,-12.735 13.467,-23.274 13.467,-23.274 0,0 -2.635,-19.76 10.832,-24.298 -8.198,-15.662 2.78,-27.08 2.634,-27.372 -0.146,-0.293 -13.905,-24.738 -1.61,-31.764 -13.027,-10.978 -8.782,-23.42 -8.782,-23.42 0,0 -14.2,-3.66 -9.076,-20.64 -11.71,-2.049 -14.052,-20.931 -14.052,-20.931 0,0 -18.004,3.659 -20.2,-12.004 -11.856,1.903 -13.174,-9.806 -13.32,-9.806 -0.146,0 -23.567,6.294 -28.25,-11.418 -9.075,4.684 -13.028,-3.66 -13.028,-3.66 0,0 -13.027,6.441 -20.785,-6 -15.516,9.66 -24.152,-0.44 -24.152,-0.44 0,0 -20.346,13.467 -27.08,3.074 -12.003,12.15 -22.688,6.88 -22.688,6.88 0,0 -9.075,16.1 -23.713,12.002 -3.366,14.93 -20.2,15.223 -20.2,15.223 0,0 1.757,13.174 -18.443,16.687 -2.634,15.516 -13.173,18.15 -13.173,18.15 0,0 1.024,15.078 -8.49,19.907 3.366,8.49 -5.416,18.883 -5.416,18.883 0,0 9.368,11.71 -3.367,24.884 12.296,3.22 3.367,24.445 3.367,24.445 0,0 16.98,7.611 6.294,21.663 12.15,3.953 8.343,13.613 8.49,19.322 7.758,3.513 14.637,1.757 11.271,17.419 23.86,2.635 12.588,15.809 12.588,15.809 0,0 11.124,0.439 6.734,9.222 20.346,-0.44 23.273,15.223 23.273,15.223 0,0 18.883,-4.977 21.372,2.342 2.488,7.319 -8.197,56.647 -8.197,56.647 0,0 -15.955,0 -27.812,-12.734 -27.81,-0.732 -21.663,-19.029 -22.103,-19.029 -0.439,0 -9.222,3.367 -13.76,-11.856 -18.59,3.806 -18.004,-11.856 -18.15,-12.002 -0.146,-0.147 -8.343,-3.806 -5.27,-11.564 -19.174,1.756 -17.71,-16.98 -17.71,-16.98 -4.197,-1.707 -5.758,-5.61 -5.124,-9.514 -2.488,-0.878 -19.468,-1.17 -10.685,-23.566 -16.248,-9.807 -6.148,-21.078 -6.148,-21.078 0,0 -22.396,-11.563 -5.123,-24.883 -12.882,-19.029 1.024,-28.543 1.024,-28.543 0,0 -17.858,-18.151 0.293,-31.032 -2.927,-27.519 13.467,-34.106 13.467,-34.106 0,0 -8.636,-22.395 14.784,-31.764 1.463,-22.688 17.858,-23.273 17.858,-23.273 0,0 0.439,-18.005 26.201,-16.248 4.977,-16.1 22.542,-12.881 22.542,-12.881 0,0 5.416,-19.468 29.275,-10.1 12.15,-23.713 30.154,-11.564 30.154,-11.564 0,0 11.417,-7.465 17.126,-5.123 7.249,-12.457 22.68,-0.483 32.66,1.928 3.615,-1.406 16.522,-11.15 26.476,1.146 13.174,-8.636 24.445,6.88 24.445,6.88 0,0 18.15,-9.221 26.64,11.856 38.498,-3.513 32.935,21.664 32.935,21.664 0,0 30.3,-6.88 23.713,23.273 27.519,1.903 24.738,20.054 24.738,20.054 0,0 17.418,13.174 9.806,25.03 15.516,0.732 9.807,15.662 9.807,15.662 0,0 11.856,4.538 2.05,22.982 22.687,18.15 4.39,36.155 4.244,36.009 -0.146,-0.147 12.15,14.637 1.025,31.617 3.367,26.933 -10.246,33.813 -10.246,33.813 0,0 3.513,17.419 -11.71,22.396 -0.293,20.492 -19.615,22.981 -19.615,22.981 0,0 5.124,8.902 -14.051,18.27 -0.757,13.712 -20.786,14.812 -20.786,14.812 0,0 -1.903,25.176 -27.373,18.443 -6.181,20.2 -36.008,14.198 -36.593,13.905 -0.586,-0.293 -5.709,-43.327 -5.709,-43.474 z"
       id="path9"
       inkscape:connector-curvature="0"
       style="fill:#ffffff;fill-rule:evenodd;stroke:#000000;stroke-width:1.85709214" />
    <path
       d="m 184.94,124.083 c 0.074,0 6.455,5.534 5.264,13.875 -1.192,8.34 -6.009,19.935 -5.04,28.573 0.591,3.463 0.367,9.669 0.367,9.669 0,0 -5.784,-8.22 -5.859,-17.008 -0.075,-8.788 6.264,-17.131 6.264,-23.61 0,-6.479 -1.145,-11.648 -0.996,-11.5 z m -3.168,2.489 c 0,0 -8.373,7.993 -9.451,15.761 -0.797,4.004 -1.106,22.662 -1.2,30.943 -0.188,2.54 -1.24,12.57 -1.464,16.218 -0.224,3.65 6.159,-6.229 6.524,-14.272 -0.2,-8.325 -0.2,-25.86 0.646,-28.496 0.753,-3.387 0.59,-7.13 1.754,-10.528 1.54,-4.715 3.266,-9.552 3.191,-9.626 z"
       id="path11"
       inkscape:connector-curvature="0"
       style="fill:#217900;fill-rule:evenodd;stroke:#000000;stroke-width:1.85709214;stroke-linejoin:round" />
    <g
       id="g19"
       style="fill:#ffd200;fill-rule:evenodd;stroke:#ef8a10">
      <path
         d="m 365.965,100.453 c 0,0 10.856,-5.008 13.96,-14.335 3.104,-9.327 -9.396,-9.416 -11.047,-6.451 -1.651,2.964 1.408,10.345 0.62,12.296 -0.788,1.952 -5.204,6.662 -3.533,8.49 z"
         id="path13"
         inkscape:connector-curvature="0"
         style="stroke-width:1.85760713" />
      <path
         d="m 269.745,103.855 c 0,0 7.048,-9.657 5.22,-19.316 -1.827,-9.657 -12.79,-3.654 -12.79,-0.26 0,3.393 6.265,8.352 6.526,10.44 0.26,2.088 -1.305,8.353 1.044,9.136 z m -19.054,5.744 c 0,0 7.048,-9.658 5.22,-19.316 -1.827,-9.658 -12.79,-3.655 -12.79,-0.261 0,3.393 6.265,8.352 6.526,10.44 0.261,2.089 -1.305,8.353 1.044,9.136 z m -21.141,6.525 c 0,0 7.047,-9.658 5.22,-19.316 -1.828,-9.658 -12.79,-3.655 -12.79,-0.261 0,3.393 6.264,8.352 6.525,10.44 0.261,2.089 -1.305,8.353 1.044,9.136 z m -14.878,14.877 c 0,0 7.047,-9.657 5.22,-19.316 -1.827,-9.657 -12.79,-3.654 -12.79,-0.26 0,3.392 6.264,8.352 6.526,10.44 0.26,2.088 -1.306,8.353 1.044,9.136 z m -15.662,14.357 c 0,0 7.048,-9.658 5.22,-19.316 -1.826,-9.658 -12.789,-3.655 -12.789,-0.261 0,3.393 6.264,8.352 6.525,10.44 0.261,2.089 -1.305,8.353 1.045,9.136 z"
         id="path15"
         inkscape:connector-curvature="0"
         style="stroke-width:2.47736645" />
      <path
         d="m 235.018,61.727 c 0,0 -9.385,7.406 -10.222,17.2 -0.837,9.793 11.336,6.959 12.248,3.69 0.913,-3.268 -3.787,-9.73 -3.477,-11.81 0.31,-2.082 3.504,-7.695 1.451,-9.08 z m 31.322,-9.659 c 0,0 -9.385,7.407 -10.222,17.2 -0.837,9.793 11.336,6.959 12.249,3.69 0.912,-3.268 -3.788,-9.73 -3.478,-11.81 0.31,-2.082 3.504,-7.694 1.451,-9.08 z m -116.723,84.555 c 0,0 1.982,11.79 10.167,17.233 8.185,5.442 11.552,-6.595 9.125,-8.966 -2.427,-2.371 -10.352,-1.357 -12.028,-2.63 -1.676,-1.272 -5.062,-6.77 -7.264,-5.637 z m -15.643,40.033 c 0,0 0.097,11.956 7.32,18.622 7.224,6.665 12.449,-4.689 10.426,-7.414 -2.023,-2.725 -10.009,-2.973 -11.463,-4.494 -1.454,-1.522 -3.93,-7.485 -6.283,-6.714 z m 36.09,44.725 c 0,0 -4.267,-11.169 -13.364,-14.891 -9.097,-3.723 -10.026,8.741 -7.18,10.588 2.848,1.847 10.417,-0.71 12.311,0.207 1.894,0.918 6.298,5.64 8.233,4.096 z m -7.497,-19.328 c 0,0 7.234,-9.519 5.595,-19.21 -1.639,-9.692 -12.716,-3.903 -12.782,-0.51 -0.066,3.392 6.1,8.472 6.32,10.565 0.22,2.093 -1.467,8.326 0.867,9.154 z M 388.15,110.11 c 0,0 10.856,-5.008 13.959,-14.334 3.103,-9.326 -9.395,-9.417 -11.047,-6.452 -1.65,2.964 1.409,10.345 0.62,12.297 -0.788,1.95 -5.204,6.661 -3.533,8.489 z m 32.825,16.374 c 0,0 6.386,-10.107 3.917,-19.622 -2.47,-9.514 -13.006,-2.79 -12.779,0.595 0.227,3.386 6.809,7.915 7.21,9.981 0.4,2.066 -0.744,8.421 1.652,9.046 z m 89.606,93.026 c 0,0 -4.282,-11.162 -13.384,-14.873 -9.102,-3.71 -10.014,8.755 -7.165,10.598 2.85,1.843 10.416,-0.724 12.311,0.19 1.895,0.916 6.305,5.633 8.238,4.085 z m -43.817,6.933 c 0,0 0.248,-11.953 7.555,-18.528 7.307,-6.574 12.388,4.845 10.331,7.545 -2.057,2.698 -10.045,2.846 -11.519,4.349 -1.473,1.502 -4.024,7.434 -6.367,6.633 z m -7.05,-126.759 c 0,0 -11.176,-4.245 -20.008,0.069 -8.832,4.314 -0.145,13.3 3.128,12.404 3.272,-0.897 6.4,-8.248 8.345,-9.052 1.946,-0.803 8.401,-0.948 8.536,-3.42 z M 434.139,78.28 c 0,0 -11.177,-4.246 -20.008,0.068 -8.832,4.315 -0.146,13.301 3.127,12.405 3.273,-0.897 6.4,-8.249 8.346,-9.052 1.945,-0.804 8.4,-0.948 8.535,-3.421 z M 396,57.87 c 0,0 -9.474,7.29 -10.432,17.072 -0.957,9.783 11.25,7.098 12.202,3.841 0.953,-3.257 -3.667,-9.775 -3.332,-11.853 0.336,-2.077 3.598,-7.65 1.563,-9.061 z m -24.84,-5.976 c 0,0 -4.32,11.148 -0.066,20.008 4.254,8.86 13.299,0.236 12.425,-3.043 -0.875,-3.28 -8.205,-6.457 -8.996,-8.407 -0.79,-1.95 -0.89,-8.407 -3.363,-8.558 z m -70.445,42.957 c 0,0 7.728,-9.121 6.605,-18.886 -1.123,-9.765 -12.491,-4.572 -12.737,-1.187 -0.246,3.384 5.643,8.784 5.752,10.886 0.11,2.101 -1.907,8.236 0.38,9.187 z"
         id="path17"
         inkscape:connector-curvature="0"
         style="stroke-width:1.85760713" />
    </g>
    <path
       d="m 342.775,114.432 c 0,0 18.526,1.166 19.433,11.789 0.907,10.623 -4.405,17.1 -4.405,17.1 0,0 2.332,22.932 -15.805,29.668 -19.433,2.332 -49.877,0.519 -49.877,0.519 0,0 -8.94,2.202 -12.566,-16.324 -3.628,-18.525 -4.664,-31.61 -4.664,-31.61 0,0 1.814,-10.365 14.898,-11.012 13.085,-0.648 52.857,0.13 52.987,-0.13 z"
       id="path21"
       inkscape:connector-curvature="0"
       style="fill:#8c8a8c;fill-rule:evenodd;stroke:#000000;stroke-width:1.85709214" />
    <path
       d="m 357.674,143.193 c 0,0 -9.976,12.437 -8.94,17.49"
       id="path23"
       inkscape:connector-curvature="0"
       style="fill:none;stroke:#000000;stroke-width:1.85709214;stroke-linecap:round" />
    <path
       d="m 344.333,172.337 c 2.462,2.073 4.793,4.405 5.312,12.049 l 1.036,15.287 12.955,116.595 11.4,84.339 0.778,13.085 c 0,0 -2.72,9.586 -10.364,10.363 -5.57,11.66 -35.756,15.028 -38.736,14.899 -2.72,-0.13 -12.308,-4.146 -18.138,-3.628 -5.83,0.518 -15.935,4.405 -20.469,3.757 -4.534,-0.647 -14.768,-4.145 -16.582,-11.53 -12.696,-4.016 -14.769,-13.732 -14.769,-13.732 l 13.733,-97.554 13.343,-123.33 c 0,0 1.555,-16.453 8.162,-18.915 6.866,-0.648 42.363,0.648 52.338,-1.684 z"
       id="path25"
       inkscape:connector-curvature="0"
       style="fill:#8c8a8c;fill-rule:evenodd;stroke:#000000;stroke-width:1.85709214" />
    <path
       d="m 274.375,341.147 -2.721,86.281 m 86.542,-74.881 7.644,71.124"
       id="path27"
       inkscape:connector-curvature="0"
       style="fill:none;stroke:#000000;stroke-width:1.85709214" />
    <path
       d="m 136.572,296.312 -0.284,0.995 m 358.684,-4.119 0.284,0.995"
       id="path29"
       inkscape:connector-curvature="0"
       style="fill:none;stroke:#000000;stroke-width:0.96770686" />
    <path
       d="m 126.965,179.83 c 0,0 5.675,7.86 6.694,12.37 1.019,4.512 2.91,13.39 5.385,17.028 2.474,3.638 16.591,23.868 17.319,32.308 0.145,5.53 -5.822,14.99 -14.7,15.136 -5.53,-0.146 -19.792,-3.784 -20.375,-16.01 -0.582,-12.225 4.366,-12.515 4.949,-19.937 0.582,-7.423 0.727,-40.75 0.727,-40.896 z"
       id="path31"
       inkscape:connector-curvature="0"
       style="fill:none;stroke:#6b18b5;stroke-width:1.85709214;stroke-linejoin:round" />
    <path
       d="m 224.466,72.814 c 0,0 -5.876,0.42 -10.4,2.872 -3.505,2.161 -9.443,5.271 -13.592,11.024 -10.554,8.227 -26.43,12.066 -31.438,18.9 -2.997,4.65 -2.813,15.834 4.697,20.57 4.801,2.749 18.878,7.05 25.726,-3.094 6.849,-10.144 2.772,-12.963 6.13,-19.608 5.542,-15.23 18.802,-30.54 18.878,-30.664 z M 367.012,57.968 c 0,0 -4.39,-3.93 -9.298,-5.474 -3.991,-1.015 -10.638,-0.573 -17.516,-1.248 -13.251,-1.859 -26.913,-11.442 -35.306,-10.285 -5.425,1.081 -13.331,8.993 -11.51,17.683 1.365,5.36 7.361,16.203 19.412,14.068 12.051,-2.136 11.947,-4.765 19.056,-6.974 17.34,-9.724 35.02,-7.738 35.162,-7.77 z m 141.361,137.396 c 0.99,-2.261 -0.832,-6.512 -2.127,-11.492 -1.256,-3.922 -3.132,-10.009 -7.72,-15.42 -5.452,-12.22 -4.517,-28.977 -9.95,-35.48 -3.793,-4.026 -14.693,-6.533 -21.094,-0.38 -3.822,4 -11.377,16.632 -3.175,25.716 8.202,9.084 11.776,5.663 17.42,10.518 13.454,9.038 20.043,24.88 26.646,26.537 z m -4.821,106.752 c 1.838,-2.544 5.127,-7.446 4.736,-11.53 -0.31,-3.233 1.482,-13.037 1.678,-17.315 1.216,-13.326 9.557,-24.142 7.289,-35.72 -1.342,-5.366 -9.203,-13.022 -17.794,-10.783 -5.289,1.623 -17.065,8.103 -14.35,20.036 2.717,11.934 6.573,11.736 9.123,18.73 7.321,14.46 2.636,31.637 9.318,36.581 z"
       id="path33"
       inkscape:connector-curvature="0"
       style="fill:none;stroke:#6b18b5;stroke-width:0.96770686;stroke-linejoin:round" />
    <path
       d="m 405.485,386.834 c 0,0 -2.259,4.344 6.777,8.167 m 11.298,-18.418 c 0,0 10.078,-2.433 16.855,0 m 13.203,-25.376 c 0,0.174 -1.39,4.518 6.603,10.773 m -0.868,-22.06 c 0,0 5.908,4.344 15.812,4.17 m -75.415,8.509 c 0,0 0.348,11.468 -5.56,16.855 m 25.367,-34.582 c 0,0 9.73,2.433 17.724,-1.564 m 44.663,-15.284 c 0,0 2.085,2.954 12.859,2.433 m -54.909,-9.212 c 0.348,0.174 12.685,4.17 20.505,0.522 m 4.167,-47.785 c 0,0 0.52,-0.695 4.344,12.685 m 5.21,-50.392 c 0,0 -0.52,7.124 -6.255,10.252 m 42.919,-39.449 c 0,0 -8.34,6.777 -6.777,9.557 m -34.751,-14.421 c 0,0 4.344,7.298 -2.78,12.337 m -18.245,-43.614 c 0,0 7.472,-0.347 10.774,6.082 M 434.16,139.738 h 5.734 m 23.976,-26.063 c 0,0.173 1.563,1.563 -1.39,4.517 m -51.956,-3.822 c 0,0 3.996,6.256 3.301,13.902 M 433.637,93.17 c 1.738,-0.174 7.646,-2.78 7.646,-2.78 M 407.922,68.321 c -0.174,0 -2.26,7.82 1.564,10.6 m -11.128,25.023 c 0,8.34 6.603,6.255 2.085,14.248 m -18.246,-21.2 c -0.173,0 -10.425,7.993 -10.425,9.383 M 355.437,92.649 c 0,0 4.344,4.344 3.302,10.252 M 342.758,89.173 c 0,0 -2.259,6.603 -5.213,8.34 M 319.644,87.435 c -0.173,0.348 -3.649,7.82 -6.081,9.21 M 288.02,87.61 c 0.174,0 3.475,6.95 -0.869,11.99 m -6.432,-47.96 c 0.173,0.173 0.695,5.386 -2.607,9.904 m -28.67,1.912 c 0,0.173 1.39,5.908 -7.82,7.82 m -9.898,45.174 c 0.174,0.348 8.862,1.738 8.862,1.738 m -30.583,18.426 c 0.174,-0.174 10.6,-3.301 10.6,-3.301 m -27.457,16.329 c 0.348,0 7.298,1.216 9.036,0.347 m -13.9,6.084 c 0,0 2.259,1.216 0.347,12.858 m -34.234,-43.439 4.17,6.256 m -18.416,25.892 c 0,-0.175 4.17,6.254 9.73,7.47 m 23.113,25.198 c 0.173,0 6.776,-1.39 7.82,-2.085 m -10.779,25.712 c 0.174,0 -0.174,-4.344 5.213,-7.298 m -12.34,18.072 c 0,0.173 5.039,6.429 8.514,7.298 m -11.465,4.693 c 0.522,-0.173 5.908,-4.865 12.164,-4.518 m -13.904,20.678 c 0,0 0.174,5.388 16.16,3.998 m -14.594,14.939 c 0,-0.174 4.692,-10.773 14.249,-14.77 m -1.386,28.329 c 0,0 1.39,-4.518 9.382,-7.646 m -0.523,25.538 c 0,0 5.734,-4.692 7.819,-5.387 m -0.692,19.293 c 0,0 3.475,3.65 12.163,-2.606 m -54.048,5.556 c 1.043,-0.174 13.727,-3.127 18.072,3.476 m -13.024,6.95 c 0,0 13.38,-1.738 15.117,-0.348 m 32.667,3.132 c 0,0 -1.737,3.65 14.77,-2.432 m 5.733,9.038 c -2.954,5.039 0.695,9.035 -3.128,11.294 m -47.093,-4.35 c 0.521,-0.347 6.082,-2.259 5.213,-10.252 m -0.175,22.244 c 0.696,-0.174 9.905,-4.17 11.817,-2.085 m 6.258,13.729 c 0,0 1.217,-8.167 3.823,-9.036 m 10.075,21.367 c 0,0 7.646,-0.174 10.948,-2.606 m 3.82,-25.015 c 0.174,0.173 7.124,3.822 21.894,0.173 m -16.333,33.009 c 0,0 2.085,10.6 1.911,13.033"
       id="path35"
       inkscape:connector-curvature="0"
       style="fill:none;stroke:#000000;stroke-width:1.85709214" />
    <g
       id="g95"
       style="fill:#de2010;fill-rule:evenodd;stroke:#000000;stroke-width:1.48300004">
      <path
         d="m 232.84,119.03 c 0.002,-2.109 -0.794,-4.058 -2.087,-5.114 -1.294,-1.055 -2.888,-1.055 -4.18,0 -1.292,1.055 -2.09,3.005 -2.088,5.114 -0.002,2.109 0.794,4.058 2.087,5.114 1.293,1.055 2.887,1.055 4.18,0 1.293,-1.055 2.09,-3.005 2.088,-5.114 z"
         transform="matrix(1.60885,-0.2011,0.2072,1.65762,94.795,74.927)"
         id="path37"
         inkscape:connector-curvature="0" />
      <path
         d="m 232.84,119.03 c 0.002,-2.109 -0.794,-4.058 -2.087,-5.114 -1.294,-1.055 -2.888,-1.055 -4.18,0 -1.292,1.055 -2.09,3.005 -2.088,5.114 -0.002,2.109 0.794,4.058 2.087,5.114 1.293,1.055 2.887,1.055 4.18,0 1.293,-1.055 2.09,-3.005 2.088,-5.114 z"
         transform="matrix(1.60885,-0.2011,0.2072,1.65762,93.358,57.275)"
         id="path39"
         inkscape:connector-curvature="0" />
      <path
         d="m 232.84,119.03 c 0.002,-2.109 -0.794,-4.058 -2.087,-5.114 -1.294,-1.055 -2.888,-1.055 -4.18,0 -1.292,1.055 -2.09,3.005 -2.088,5.114 -0.002,2.109 0.794,4.058 2.087,5.114 1.293,1.055 2.887,1.055 4.18,0 1.293,-1.055 2.09,-3.005 2.088,-5.114 z"
         transform="matrix(1.58497,-0.3417,0.35206,1.633,78.089,74.089)"
         id="path41"
         inkscape:connector-curvature="0" />
      <path
         d="m 232.84,119.03 c 0.002,-2.109 -0.794,-4.058 -2.087,-5.114 -1.294,-1.055 -2.888,-1.055 -4.18,0 -1.292,1.055 -2.09,3.005 -2.088,5.114 -0.002,2.109 0.794,4.058 2.087,5.114 1.293,1.055 2.887,1.055 4.18,0 1.293,-1.055 2.09,-3.005 2.088,-5.114 z"
         transform="matrix(1.4455,-0.73446,0.7567,1.4893,55.863,162.938)"
         id="path43"
         inkscape:connector-curvature="0" />
      <path
         d="m 232.84,119.03 c 0.002,-2.109 -0.794,-4.058 -2.087,-5.114 -1.294,-1.055 -2.888,-1.055 -4.18,0 -1.292,1.055 -2.09,3.005 -2.088,5.114 -0.002,2.109 0.794,4.058 2.087,5.114 1.293,1.055 2.887,1.055 4.18,0 1.293,-1.055 2.09,-3.005 2.088,-5.114 z"
         transform="matrix(1.4455,-0.73446,0.7567,1.4893,48.885,147.133)"
         id="path45"
         inkscape:connector-curvature="0" />
      <path
         d="m 232.84,119.03 c 0.002,-2.109 -0.794,-4.058 -2.087,-5.114 -1.294,-1.055 -2.888,-1.055 -4.18,0 -1.292,1.055 -2.09,3.005 -2.088,5.114 -0.002,2.109 0.794,4.058 2.087,5.114 1.293,1.055 2.887,1.055 4.18,0 1.293,-1.055 2.09,-3.005 2.088,-5.114 z"
         transform="matrix(1.3781,-0.85423,0.88011,1.41987,39.958,167.39)"
         id="path47"
         inkscape:connector-curvature="0" />
      <path
         d="m 232.84,119.03 c 0.002,-2.109 -0.794,-4.058 -2.087,-5.114 -1.294,-1.055 -2.888,-1.055 -4.18,0 -1.292,1.055 -2.09,3.005 -2.088,5.114 -0.002,2.109 0.794,4.058 2.087,5.114 1.293,1.055 2.887,1.055 4.18,0 1.293,-1.055 2.09,-3.005 2.088,-5.114 z"
         transform="matrix(1.28907,-0.98346,1.01327,1.32812,33.795,193.08)"
         id="path49"
         inkscape:connector-curvature="0" />
      <path
         d="m 232.84,119.03 c 0.002,-2.109 -0.794,-4.058 -2.087,-5.114 -1.294,-1.055 -2.888,-1.055 -4.18,0 -1.292,1.055 -2.09,3.005 -2.088,5.114 -0.002,2.109 0.794,4.058 2.087,5.114 1.293,1.055 2.887,1.055 4.18,0 1.293,-1.055 2.09,-3.005 2.088,-5.114 z"
         transform="matrix(1.1329,-1.15994,1.19508,1.16722,35.345,239.043)"
         id="path51"
         inkscape:connector-curvature="0" />
      <path
         d="m 232.84,119.03 c 0.002,-2.109 -0.794,-4.058 -2.087,-5.114 -1.294,-1.055 -2.888,-1.055 -4.18,0 -1.292,1.055 -2.09,3.005 -2.088,5.114 -0.002,2.109 0.794,4.058 2.087,5.114 1.293,1.055 2.887,1.055 4.18,0 1.293,-1.055 2.09,-3.005 2.088,-5.114 z"
         transform="matrix(1.02138,-1.25922,1.29739,1.05234,34.295,262.698)"
         id="path53"
         inkscape:connector-curvature="0" />
      <path
         d="m 232.84,119.03 c 0.002,-2.109 -0.794,-4.058 -2.087,-5.114 -1.294,-1.055 -2.888,-1.055 -4.18,0 -1.292,1.055 -2.09,3.005 -2.088,5.114 -0.002,2.109 0.794,4.058 2.087,5.114 1.293,1.055 2.887,1.055 4.18,0 1.293,-1.055 2.09,-3.005 2.088,-5.114 z"
         transform="matrix(0.79817,-1.41132,1.45408,0.82236,51.907,315.002)"
         id="path55"
         inkscape:connector-curvature="0" />
      <path
         d="m 232.84,119.03 c 0.002,-2.109 -0.794,-4.058 -2.087,-5.114 -1.294,-1.055 -2.888,-1.055 -4.18,0 -1.292,1.055 -2.09,3.005 -2.088,5.114 -0.002,2.109 0.794,4.058 2.087,5.114 1.293,1.055 2.887,1.055 4.18,0 1.293,-1.055 2.09,-3.005 2.088,-5.114 z"
         transform="matrix(0.66642,-1.4781,1.52289,0.6866,56.808,337.386)"
         id="path57"
         inkscape:connector-curvature="0" />
      <path
         d="m 232.84,119.03 c 0.002,-2.109 -0.794,-4.058 -2.087,-5.114 -1.294,-1.055 -2.888,-1.055 -4.18,0 -1.292,1.055 -2.09,3.005 -2.088,5.114 -0.002,2.109 0.794,4.058 2.087,5.114 1.293,1.055 2.887,1.055 4.18,0 1.293,-1.055 2.09,-3.005 2.088,-5.114 z"
         transform="matrix(0.56582,-1.51945,1.5655,0.58296,57.907,352.404)"
         id="path59"
         inkscape:connector-curvature="0" />
      <path
         d="m 232.84,119.03 c 0.002,-2.109 -0.794,-4.058 -2.087,-5.114 -1.294,-1.055 -2.888,-1.055 -4.18,0 -1.292,1.055 -2.09,3.005 -2.088,5.114 -0.002,2.109 0.794,4.058 2.087,5.114 1.293,1.055 2.887,1.055 4.18,0 1.293,-1.055 2.09,-3.005 2.088,-5.114 z"
         transform="matrix(0.4482,-1.5582,1.60543,0.46178,63.012,370.362)"
         id="path61"
         inkscape:connector-curvature="0" />
      <path
         d="m 232.84,119.03 c 0.002,-2.109 -0.794,-4.058 -2.087,-5.114 -1.294,-1.055 -2.888,-1.055 -4.18,0 -1.292,1.055 -2.09,3.005 -2.088,5.114 -0.002,2.109 0.794,4.058 2.087,5.114 1.293,1.055 2.887,1.055 4.18,0 1.293,-1.055 2.09,-3.005 2.088,-5.114 z"
         transform="matrix(0.20288,-1.60864,1.65738,0.20903,94.656,408.901)"
         id="path63"
         inkscape:connector-curvature="0" />
      <path
         d="m 232.84,119.03 c 0.002,-2.109 -0.794,-4.058 -2.087,-5.114 -1.294,-1.055 -2.888,-1.055 -4.18,0 -1.292,1.055 -2.09,3.005 -2.088,5.114 -0.002,2.109 0.794,4.058 2.087,5.114 1.293,1.055 2.887,1.055 4.18,0 1.293,-1.055 2.09,-3.005 2.088,-5.114 z"
         transform="matrix(0.06506,-1.62008,1.66918,0.06703,106.295,427.394)"
         id="path65"
         inkscape:connector-curvature="0" />
      <path
         d="m 232.84,119.03 c 0.002,-2.109 -0.794,-4.058 -2.087,-5.114 -1.294,-1.055 -2.888,-1.055 -4.18,0 -1.292,1.055 -2.09,3.005 -2.088,5.114 -0.002,2.109 0.794,4.058 2.087,5.114 1.293,1.055 2.887,1.055 4.18,0 1.293,-1.055 2.09,-3.005 2.088,-5.114 z"
         transform="matrix(0.06506,-1.62008,1.66918,0.06703,88.849,428.012)"
         id="path67"
         inkscape:connector-curvature="0" />
      <path
         d="m 232.84,119.03 c 0.002,-2.109 -0.794,-4.058 -2.087,-5.114 -1.294,-1.055 -2.888,-1.055 -4.18,0 -1.292,1.055 -2.09,3.005 -2.088,5.114 -0.002,2.109 0.794,4.058 2.087,5.114 1.293,1.055 2.887,1.055 4.18,0 1.293,-1.055 2.09,-3.005 2.088,-5.114 z"
         transform="matrix(-0.36132,-1.5806,1.62852,-0.37226,172.505,473.533)"
         id="path69"
         inkscape:connector-curvature="0" />
      <path
         d="m 232.84,119.03 c 0.002,-2.109 -0.794,-4.058 -2.087,-5.114 -1.294,-1.055 -2.888,-1.055 -4.18,0 -1.292,1.055 -2.09,3.005 -2.088,5.114 -0.002,2.109 0.794,4.058 2.087,5.114 1.293,1.055 2.887,1.055 4.18,0 1.293,-1.055 2.09,-3.005 2.088,-5.114 z"
         transform="matrix(-0.49045,-1.54542,1.59227,-0.50531,188.286,485.828)"
         id="path71"
         inkscape:connector-curvature="0" />
      <path
         d="m 232.84,119.03 c 0.002,-2.109 -0.794,-4.058 -2.087,-5.114 -1.294,-1.055 -2.888,-1.055 -4.18,0 -1.292,1.055 -2.09,3.005 -2.088,5.114 -0.002,2.109 0.794,4.058 2.087,5.114 1.293,1.055 2.887,1.055 4.18,0 1.293,-1.055 2.09,-3.005 2.088,-5.114 z"
         transform="matrix(-0.67103,-1.476,1.52073,-0.69138,221.877,499.092)"
         id="path73"
         inkscape:connector-curvature="0" />
      <path
         d="m 232.84,119.03 c 0.002,-2.109 -0.794,-4.058 -2.087,-5.114 -1.294,-1.055 -2.888,-1.055 -4.18,0 -1.292,1.055 -2.09,3.005 -2.088,5.114 -0.002,2.109 0.794,4.058 2.087,5.114 1.293,1.055 2.887,1.055 4.18,0 1.293,-1.055 2.09,-3.005 2.088,-5.114 z"
         transform="matrix(-0.7945,-1.41337,1.4562,-0.81858,241.371,508.33)"
         id="path75"
         inkscape:connector-curvature="0" />
      <path
         d="m 232.84,119.03 c 0.002,-2.109 -0.794,-4.058 -2.087,-5.114 -1.294,-1.055 -2.888,-1.055 -4.18,0 -1.292,1.055 -2.09,3.005 -2.088,5.114 -0.002,2.109 0.794,4.058 2.087,5.114 1.293,1.055 2.887,1.055 4.18,0 1.293,-1.055 2.09,-3.005 2.088,-5.114 z"
         transform="matrix(-0.94339,-1.31867,1.35863,-0.97197,271.636,515.396)"
         id="path77"
         inkscape:connector-curvature="0" />
      <path
         d="m 232.84,119.03 c 0.002,-2.109 -0.794,-4.058 -2.087,-5.114 -1.294,-1.055 -2.888,-1.055 -4.18,0 -1.292,1.055 -2.09,3.005 -2.088,5.114 -0.002,2.109 0.794,4.058 2.087,5.114 1.293,1.055 2.887,1.055 4.18,0 1.293,-1.055 2.09,-3.005 2.088,-5.114 z"
         transform="matrix(-1.05159,-1.2341,1.27151,-1.08344,292.379,520.207)"
         id="path79"
         inkscape:connector-curvature="0" />
      <path
         d="m 232.84,119.03 c 0.002,-2.109 -0.794,-4.058 -2.087,-5.114 -1.294,-1.055 -2.888,-1.055 -4.18,0 -1.292,1.055 -2.09,3.005 -2.088,5.114 -0.002,2.109 0.794,4.058 2.087,5.114 1.293,1.055 2.887,1.055 4.18,0 1.293,-1.055 2.09,-3.005 2.088,-5.114 z"
         transform="matrix(-1.13737,-1.15553,1.19056,-1.17183,308.9,526.104)"
         id="path81"
         inkscape:connector-curvature="0" />
      <path
         d="m 232.84,119.03 c 0.002,-2.109 -0.794,-4.058 -2.087,-5.114 -1.294,-1.055 -2.888,-1.055 -4.18,0 -1.292,1.055 -2.09,3.005 -2.088,5.114 -0.002,2.109 0.794,4.058 2.087,5.114 1.293,1.055 2.887,1.055 4.18,0 1.293,-1.055 2.09,-3.005 2.088,-5.114 z"
         transform="matrix(-1.2301,-1.05628,1.08829,-1.26738,331.402,529.562)"
         id="path83"
         inkscape:connector-curvature="0" />
      <path
         d="m 232.84,119.03 c 0.002,-2.109 -0.794,-4.058 -2.087,-5.114 -1.294,-1.055 -2.888,-1.055 -4.18,0 -1.292,1.055 -2.09,3.005 -2.088,5.114 -0.002,2.109 0.794,4.058 2.087,5.114 1.293,1.055 2.887,1.055 4.18,0 1.293,-1.055 2.09,-3.005 2.088,-5.114 z"
         transform="matrix(-1.33573,-0.91908,0.94693,-1.3762,362.524,526.12)"
         id="path85"
         inkscape:connector-curvature="0" />
      <path
         d="m 232.84,119.03 c 0.002,-2.109 -0.794,-4.058 -2.087,-5.114 -1.294,-1.055 -2.888,-1.055 -4.18,0 -1.292,1.055 -2.09,3.005 -2.088,5.114 -0.002,2.109 0.794,4.058 2.087,5.114 1.293,1.055 2.887,1.055 4.18,0 1.293,-1.055 2.09,-3.005 2.088,-5.114 z"
         transform="matrix(-1.47374,-0.67597,0.69645,-1.51841,415.897,504.087)"
         id="path87"
         inkscape:connector-curvature="0" />
      <path
         d="m 232.84,119.03 c 0.002,-2.109 -0.794,-4.058 -2.087,-5.114 -1.294,-1.055 -2.888,-1.055 -4.18,0 -1.292,1.055 -2.09,3.005 -2.088,5.114 -0.002,2.109 0.794,4.058 2.087,5.114 1.293,1.055 2.887,1.055 4.18,0 1.293,-1.055 2.09,-3.005 2.088,-5.114 z"
         transform="matrix(-1.52895,-0.53958,0.55593,-1.5753,438.682,497.522)"
         id="path89"
         inkscape:connector-curvature="0" />
      <path
         d="m 232.84,119.03 c 0.002,-2.109 -0.794,-4.058 -2.087,-5.114 -1.294,-1.055 -2.888,-1.055 -4.18,0 -1.292,1.055 -2.09,3.005 -2.088,5.114 -0.002,2.109 0.794,4.058 2.087,5.114 1.293,1.055 2.887,1.055 4.18,0 1.293,-1.055 2.09,-3.005 2.088,-5.114 z"
         transform="matrix(-1.61445,-0.12005,0.15429,-1.33344,500.491,405.96)"
         id="path91"
         inkscape:connector-curvature="0" />
      <path
         d="m 232.84,119.03 c 0.002,-2.109 -0.794,-4.058 -2.087,-5.114 -1.294,-1.055 -2.888,-1.055 -4.18,0 -1.292,1.055 -2.09,3.005 -2.088,5.114 -0.002,2.109 0.794,4.058 2.087,5.114 1.293,1.055 2.887,1.055 4.18,0 1.293,-1.055 2.09,-3.005 2.088,-5.114 z"
         transform="matrix(-1.58082,-0.36035,0.37125,-1.62873,468.417,480.766)"
         id="path93"
         inkscape:connector-curvature="0" />
    </g>
    <path
       d="m 480.012,194.65 c 2.146,-2.297 4.143,-2.946 6.669,-2.109 -0.891,-6.06 -2.809,-8.116 -5.145,-7.386 -2.336,0.73 -3.393,3.845 -1.524,9.496 z m 3.281,18.284 c 2.313,-2.129 4.353,-2.626 6.809,-1.6 -0.432,-6.11 -2.19,-8.305 -4.574,-7.754 -2.384,0.552 -3.673,3.579 -2.235,9.354 z M 475.53,177.95 c 1.493,-2.766 3.259,-3.902 5.915,-3.733 -2.4,-5.635 -4.778,-7.137 -6.852,-5.838 -2.074,1.3 -2.305,4.58 0.938,9.572 z m -8.136,-16.638 c 1.492,-2.767 3.258,-3.903 5.914,-3.734 -2.4,-5.635 -4.777,-7.137 -6.852,-5.838 -2.074,1.3 -2.305,4.581 0.938,9.572 z m -19.52,-30.494 c 1.028,-2.97 2.59,-4.375 5.238,-4.635 -3.275,-5.176 -5.863,-6.277 -7.701,-4.661 -1.838,1.616 -1.54,4.892 2.463,9.296 z M 435.117,117.53 c 0.915,-3.008 2.421,-4.47 5.058,-4.83 -3.468,-5.05 -6.095,-6.05 -7.871,-4.367 -1.777,1.684 -1.354,4.947 2.813,9.197 z m -26.83,-22.635 c -0.056,-3.143 0.927,-4.999 3.325,-6.154 -4.855,-3.735 -7.663,-3.878 -8.834,-1.73 -1.17,2.15 0.236,5.124 5.509,7.884 z m 13.959,10.465 c 0.49,-3.105 1.779,-4.762 4.34,-5.484 -4.135,-4.52 -6.875,-5.147 -8.4,-3.234 -1.526,1.914 -0.656,5.087 4.06,8.718 z M 392.362,86.106 c -0.38,-3.12 0.406,-5.067 2.672,-6.463 -5.214,-3.215 -8.022,-3.068 -8.965,-0.81 -0.943,2.259 0.763,5.072 6.293,7.273 z m -16.274,-7.104 c -0.822,-3.035 -0.323,-5.074 1.72,-6.78 -5.62,-2.435 -8.378,-1.888 -8.989,0.482 -0.61,2.37 1.481,4.91 7.269,6.298 z m -17.535,-5.433 c -1.076,-2.954 -0.751,-5.028 1.14,-6.901 -5.807,-1.95 -8.509,-1.172 -8.916,1.241 -0.408,2.414 1.891,4.767 7.776,5.66 z M 341.33,70.234 c -1.286,-2.868 -1.112,-4.96 0.638,-6.965 -5.932,-1.526 -8.57,-0.554 -8.802,1.883 -0.232,2.436 2.231,4.617 8.165,5.082 z m -18.24,-1.398 c -1.577,-2.719 -1.62,-4.818 -0.087,-6.993 -6.059,-0.902 -8.582,0.338 -8.56,2.785 0.022,2.447 2.698,4.362 8.648,4.208 z m -35.714,2.69 c -2.186,-2.258 -2.735,-4.285 -1.772,-6.766 -6.097,0.585 -8.247,2.397 -7.635,4.767 0.611,2.37 3.67,3.582 9.407,2 z m 17.579,-2.314 c -1.86,-2.534 -2.13,-4.616 -0.84,-6.943 -6.12,-0.246 -8.495,1.259 -8.21,3.69 0.285,2.43 3.151,4.045 9.05,3.253 z m -34.827,6.041 c -2.488,-1.922 -3.321,-3.85 -2.723,-6.443 -5.95,1.454 -7.819,3.555 -6.874,5.813 0.945,2.257 4.146,3.019 9.597,0.63 z m -33.026,15.184 c -2.808,-1.413 -3.992,-3.147 -3.899,-5.806 -5.565,2.559 -6.999,4.977 -5.642,7.013 1.357,2.037 4.644,2.176 9.542,-1.207 z m 15.926,-8.135 c -2.616,-1.744 -3.581,-3.608 -3.165,-6.237 -5.835,1.864 -7.552,4.09 -6.452,6.277 1.1,2.186 4.345,2.723 9.617,-0.04 z m -45.548,28.759 c -3.041,-0.797 -4.561,-2.246 -5.024,-4.866 -4.91,3.662 -5.808,6.326 -4.057,8.035 1.752,1.71 4.996,1.16 9.08,-3.169 z m 14.132,-11.566 c -2.97,-1.033 -4.37,-2.596 -4.627,-5.245 -5.182,3.267 -6.286,5.852 -4.673,7.693 1.612,1.841 4.89,1.548 9.3,-2.448 z m -26.69,23.935 c -3.101,-0.518 -4.746,-1.822 -5.445,-4.39 -4.557,4.094 -5.21,6.829 -3.31,8.371 1.9,1.543 5.08,0.701 8.755,-3.981 z m -11.252,14.603 c -3.135,-0.234 -4.892,-1.384 -5.822,-3.878 -4.166,4.49 -4.567,7.273 -2.535,8.637 2.032,1.364 5.123,0.237 8.356,-4.76 z m -9.417,14.933 c -3.133,0.249 -5.045,-0.618 -6.346,-2.94 -3.43,5.075 -3.4,7.886 -1.183,8.923 2.217,1.037 5.099,-0.55 7.53,-5.983 z m -8.267,15.951 c -3.075,0.654 -5.083,0.042 -6.674,-2.091 -2.742,5.477 -2.348,8.26 -0.015,9 2.333,0.741 4.984,-1.207 6.69,-6.909 z m -6.614,16.37 c -2.932,1.132 -5.012,0.846 -6.92,-1.008 -1.84,5.842 -1.01,8.528 1.41,8.89 2.42,0.362 4.73,-1.982 5.51,-7.882 z m -4.429,18.231 c -2.85,1.326 -4.945,1.18 -6.973,-0.542 -1.444,5.952 -0.437,8.577 2.003,8.775 2.44,0.199 4.586,-2.294 4.97,-8.233 z m -1.802,15.186 c -2.683,1.421 -4.774,1.589 -6.967,0.515 -0.798,4.85 0.48,6.768 2.918,6.595 2.438,-0.173 4.3,-2.412 4.05,-7.11 z m 306.986,-72.221 c 1.073,-2.955 2.655,-4.336 5.307,-4.556 -3.196,-5.225 -5.766,-6.364 -7.629,-4.777 -1.863,1.587 -1.613,4.868 2.322,9.332 z m 25.168,84.987 c 2.313,-2.129 4.352,-2.626 6.808,-1.6 -0.431,-6.11 -2.189,-8.305 -4.573,-7.753 -2.384,0.551 -3.673,3.578 -2.235,9.353 z"
       id="path97"
       inkscape:connector-curvature="0"
       style="fill:#ffe300;fill-rule:evenodd" />
    <path
       d="m 461.32,132.01 c -0.075,0 -6.926,6.852 -5.735,15.192 1.192,8.341 6.48,18.618 5.511,27.257 -0.968,8.639 -2.532,14.373 -2.532,14.373 0,0 8.043,-9.16 8.118,-17.948 0.074,-8.788 -5.511,-20.33 -5.511,-26.81 0,-6.48 0.298,-12.212 0.149,-12.063 z m 12.731,27.996 c 0,0 -5.362,3.947 -4.84,13.033 0.52,9.085 9.904,25.767 9.904,25.767 0,0 6.851,14.075 6.628,17.724 -0.224,3.649 1.266,-3.5 0.596,-11.543 -0.67,-8.043 -11.022,-25.767 -11.022,-25.767 0,0 -2.234,-3.649 -2.01,-9.681 0.223,-6.032 0.818,-9.458 0.744,-9.533 z"
       id="path99"
       inkscape:connector-curvature="0"
       style="fill:#217900;fill-rule:evenodd;stroke:#000000;stroke-width:1.85709214;stroke-linejoin:round" />
    <path
       d="m 312.926,47.43 c 0,-1.88 -2.114,-3.405 -4.724,-3.405 -2.61,0 -4.724,1.525 -4.723,3.405 -10e-4,1.88 2.114,3.405 4.723,3.405 2.609,0 4.725,-1.524 4.724,-3.405 z m 2.019,7.92 c 0,-1.804 -2.177,-3.266 -4.863,-3.266 -2.685,0 -4.862,1.462 -4.862,3.265 0,1.803 2.177,3.265 4.862,3.265 2.686,0 4.863,-1.461 4.863,-3.265 z m 6.04,-9.378 c 0,0 -5.558,4.168 -3.265,5.835 2.292,1.667 8.614,-3.612 8.614,-3.612 l -5.35,-2.223 z M 484.32,141.4 c 0.002,-1.184 -0.554,-2.28 -1.457,-2.873 a 2.616,2.616 0 0 0 -2.918,0 c -0.902,0.593 -1.458,1.689 -1.456,2.873 -0.002,1.185 0.554,2.28 1.456,2.874 a 2.616,2.616 0 0 0 2.918,0 c 0.903,-0.593 1.459,-1.689 1.457,-2.874 z m -2.123,-7.945 c 0,-1.976 -1.365,-3.578 -3.048,-3.578 -1.683,0 -3.048,1.602 -3.048,3.578 0,1.976 1.364,3.578 3.048,3.578 1.684,0 3.048,-1.602 3.048,-3.578 z m 1.462,16.161 c 0,-1.025 -0.534,-1.856 -1.193,-1.856 -0.659,0 -1.193,0.83 -1.193,1.856 0,1.026 0.534,1.855 1.193,1.855 0.659,0 1.193,-0.83 1.193,-1.855 z m 4.899,-14.446 c 0,-1.172 -0.534,-2.12 -1.193,-2.12 -0.658,0 -1.192,0.948 -1.192,2.12 0,1.172 0.534,2.12 1.192,2.12 0.659,0 1.193,-0.95 1.193,-2.12 z m -13.384,1.462 c 0,-0.952 -0.534,-1.723 -1.193,-1.723 -0.659,0 -1.193,0.771 -1.193,1.723 0,0.951 0.534,1.722 1.193,1.722 0.659,0 1.193,-0.771 1.193,-1.722 z m 2.123,11.4 c 0,-1.538 -1.127,-2.784 -2.518,-2.784 -1.391,0 -2.518,1.246 -2.518,2.784 0,1.537 1.127,2.784 2.518,2.784 1.391,0 2.519,-1.247 2.518,-2.784 z m -6.631,-5.039 c 0,-1.317 -0.95,-2.385 -2.12,-2.385 -1.172,0 -2.12,1.068 -2.12,2.385 0,1.317 0.948,2.385 2.12,2.385 1.17,0 2.12,-1.068 2.12,-2.385 z m -1.053,-6.762 c 0,-0.71 -0.353,-1.368 -0.927,-1.724 a 1.749,1.749 0 0 0 -1.857,0 c -0.574,0.356 -0.928,1.013 -0.927,1.724 0,0.711 0.353,1.368 0.927,1.724 a 1.749,1.749 0 0 0 1.857,0 c 0.574,-0.356 0.928,-1.013 0.927,-1.724 z m 30.206,34.366 c -2.737,-3.613 -7.12,-5.135 -9.789,-3.4 -2.668,1.735 -2.612,6.07 0.125,9.682 2.737,3.613 7.12,5.135 9.789,3.4 2.668,-1.735 2.612,-6.07 -0.125,-9.682 z m 7.78,66.652 c 0.53,-4.433 -1.632,-8.337 -4.83,-8.72 -3.197,-0.383 -6.22,2.9 -6.75,7.334 -0.53,4.433 1.632,8.337 4.83,8.72 3.197,0.382 6.22,-2.901 6.75,-7.334 z m 1.645,38.795 c 0.91,-4.37 -0.906,-8.447 -4.059,-9.104 -3.152,-0.657 -6.447,2.353 -7.358,6.724 -0.911,4.37 0.906,8.447 4.058,9.104 3.153,0.657 6.447,-2.353 7.359,-6.724 z m 7.475,-36.315 c 0,-1.757 -1.187,-3.18 -2.65,-3.18 -1.463,0 -2.651,1.423 -2.651,3.18 0,1.756 1.187,3.18 2.65,3.18 1.463,0 2.651,-1.424 2.651,-3.18 z m -6.492,7.292 -5.433,6.163 c 0,0 -5.102,0.132 -4.837,1.789 0.265,1.656 7.023,6.626 6.957,8.614 -0.066,1.988 4.506,-0.464 4.506,-0.464 0,0 3.644,-11.066 3.644,-11.132 0,-0.066 -0.199,-7.687 -2.186,-7.554 -1.988,0.133 -2.527,2.444 -2.65,2.585 z m -357.39,-2.436 a 2.586,2.586 0 1 0 -5.172,0 2.586,2.586 0 0 0 5.172,0 z m 2.437,-7.902 c 0,-1.508 -1.158,-2.73 -2.586,-2.73 -1.428,0 -2.586,1.222 -2.586,2.73 0,1.508 1.157,2.73 2.586,2.73 1.428,0 2.586,-1.222 2.586,-2.73 z M 134.04,199.106 c -0.97,-2.174 -2.99,-3.386 -4.512,-2.707 -1.521,0.68 -1.968,2.992 -0.999,5.166 0.97,2.173 2.99,3.385 4.512,2.706 1.521,-0.679 1.968,-2.991 0.999,-5.165 z m 6.413,23.41 c -1.332,-2.818 -4.106,-4.389 -6.197,-3.509 -2.091,0.88 -2.705,3.878 -1.372,6.695 1.333,2.817 4.107,4.388 6.197,3.508 2.09,-0.88 2.705,-3.877 1.372,-6.694 z m 6.867,17.169 c 0.431,-3.519 -1.027,-6.751 -3.257,-7.22 -2.23,-0.468 -4.389,2.004 -4.82,5.523 -0.432,3.52 1.026,6.752 3.256,7.22 2.23,0.47 4.389,-2.004 4.82,-5.523 z m -11.018,2.507 c 1.38,-3.266 0.863,-6.775 -1.153,-7.837 -2.016,-1.062 -4.77,0.725 -6.15,3.991 -1.38,3.266 -0.862,6.775 1.154,7.836 2.016,1.061 4.77,-0.724 6.15,-3.99 z"
       id="path101"
       inkscape:connector-curvature="0"
       style="fill:#6b18b5;fill-rule:evenodd" />
    <path
       d="m 131.281,234.812 c 0,-1.666 -1.286,-3.017 -2.873,-3.017 -1.587,0 -2.874,1.35 -2.874,3.017 0,1.667 1.287,3.017 2.874,3.017 1.587,0 2.873,-1.35 2.873,-3.017 z m -2.297,-7.467 c 0,-1.507 -1.158,-2.73 -2.586,-2.73 -1.429,0 -2.586,1.223 -2.586,2.73 0,1.508 1.157,2.73 2.586,2.73 1.429,0 2.586,-1.222 2.586,-2.73 z m 2.445,-14.367 c 0,-2.54 -1.126,-4.598 -2.514,-4.598 -1.389,0 -2.514,2.059 -2.514,4.598 0,2.539 1.125,4.597 2.514,4.597 1.389,0 2.514,-2.058 2.514,-4.597 z m 7.736,-1.106 c 0.335,-2.516 -0.509,-4.705 -1.885,-4.888 -1.377,-0.184 -2.764,1.708 -3.099,4.225 -0.335,2.517 0.51,4.706 1.886,4.889 1.376,0.183 2.763,-1.709 3.098,-4.226 z m 55.121,-109.978 c 1.025,-3.564 -0.032,-7.147 -2.36,-8.001 -2.328,-0.855 -5.047,1.342 -6.071,4.906 -1.025,3.565 0.032,7.147 2.36,8.002 2.329,0.854 5.047,-1.343 6.071,-4.907 z m -10.469,15.862 c 3.071,-2.613 4.383,-6.227 2.93,-8.071 -1.452,-1.845 -5.119,-1.221 -8.19,1.392 -3.071,2.613 -4.382,6.227 -2.93,8.072 1.453,1.844 5.12,1.22 8.19,-1.393 z m -6.109,-8.804 c 3.037,-2.244 4.334,-5.346 2.898,-6.93 -1.436,-1.584 -5.063,-1.047 -8.1,1.196 -3.036,2.244 -4.333,5.346 -2.897,6.93 1.436,1.584 5.063,1.047 8.1,-1.196 z m 23.549,-15.485 c 2.048,-1.566 2.923,-3.73 1.954,-4.835 -0.969,-1.105 -3.414,-0.731 -5.462,0.834 -2.048,1.565 -2.922,3.73 -1.954,4.835 0.969,1.105 3.414,0.731 5.462,-0.834 z"
       id="path103"
       inkscape:connector-curvature="0"
       style="fill:#6b18b5;fill-rule:evenodd" />
    <path
       d="m 188.978,108.47 c 1.4,-2.163 1.494,-4.496 0.21,-5.21 -1.284,-0.713 -3.46,0.462 -4.86,2.626 -1.4,2.164 -1.495,4.497 -0.211,5.21 1.284,0.714 3.46,-0.461 4.86,-2.625 z m 17.718,-9.272 c 2.202,-1.856 3.06,-4.314 1.916,-5.49 -1.143,-1.178 -3.856,-0.627 -6.058,1.229 -2.202,1.856 -3.06,4.314 -1.916,5.49 1.143,1.178 3.856,0.627 6.058,-1.229 z m -32.016,21.63 c 2.059,-0.103 3.612,-1.128 3.47,-2.29 -0.141,-1.163 -1.925,-2.022 -3.983,-1.919 -2.059,0.103 -3.613,1.128 -3.471,2.29 0.142,1.163 1.925,2.022 3.984,1.919 z m 38.76,-33.125 c 1.4,-2.164 1.495,-4.497 0.21,-5.21 -1.284,-0.714 -3.46,0.462 -4.86,2.626 -1.4,2.164 -1.495,4.497 -0.21,5.21 1.284,0.714 3.46,-0.462 4.86,-2.626 z"
       id="path105"
       inkscape:connector-curvature="0"
       style="fill:#6b18b5;fill-rule:evenodd" />
    <path
       d="m 446.83,153.375 c 0,0 6.386,-10.108 3.917,-19.621 -2.47,-9.515 -13.006,-2.791 -12.78,0.595 0.228,3.385 6.81,7.915 7.21,9.981 0.4,2.066 -0.744,8.422 1.653,9.045 z"
       id="path107"
       inkscape:connector-curvature="0"
       style="fill:#ffd200;fill-rule:evenodd;stroke:#ef8a10;stroke-width:0.96770686" />
    <path
       d="m 324.883,69.303 c 0,0 23.012,0.894 23.16,15.788 -0.074,2.308 0,5.064 -0.818,11.691 4.542,-2.457 7.596,-9.309 7,-13.702 0.074,-15.118 -20.554,-25.47 -29.342,-13.778 z"
       id="path109"
       inkscape:connector-curvature="0"
       style="fill:#217900;fill-rule:evenodd;stroke:#000000;stroke-width:2.32180023;stroke-linejoin:round" />
    <path
       d="m 310.29,68.633 c 0,0 18.542,-3.873 18.691,11.021 0.15,14.894 -5.883,17.277 -5.883,17.277 0,0 14.224,-3.053 14.298,-18.17 0.075,-15.118 -18.32,-21.82 -27.107,-10.128 z"
       id="path111"
       inkscape:connector-curvature="0"
       style="fill:#217900;fill-rule:evenodd;stroke:#000000;stroke-width:2.32180023;stroke-linejoin:round" />
    <path
       d="m 373.282,389.952 c 0,0 86.796,-24.518 113.005,-131.041 C 471.069,368.252 376.1,402.915 376.1,402.915 Z"
       id="path113"
       inkscape:connector-curvature="0"
       style="fill:#f7df73;fill-rule:evenodd;stroke:#000000;stroke-width:2.47736645;stroke-linejoin:round" />
    <path
       d="m 382.186,396.584 c 2.682,0 9.32,-7.343 13.132,-8.19 3.812,-0.847 4.236,-4.66 -0.142,-4.8 -4.377,-0.142 -8.19,4.942 -8.19,4.942 0,0 -3.812,3.247 -7.766,3.671 -3.953,0.424 -1.412,5.366 2.966,4.377 z"
       id="path115"
       inkscape:connector-curvature="0"
       style="fill:#8c1800;fill-rule:evenodd" />
    <path
       d="m 432.167,359.298 c 0,0 -9.037,5.225 -7.766,6.496 1.271,1.27 9.32,-4.942 9.46,-5.084 0.142,-0.14 3.39,-4.094 -1.694,-1.412 z"
       id="path117"
       inkscape:connector-curvature="0"
       style="fill:#8c1800;fill-rule:evenodd;stroke:#8c1800;stroke-width:2.47736645" />
    <path
       d="m 400.678,383.036 c 0,0 -2.683,-0.988 4.236,-3.67 6.92,-2.684 6.496,-5.79 8.755,-7.061 2.26,-1.27 7.06,-4.66 8.048,-2.683 0.988,1.977 -5.083,5.93 -6.495,6.354 -1.412,0.424 -8.331,6.778 -10.308,7.343 -1.977,0.565 -3.389,0.282 -4.236,-0.283 z"
       id="path119"
       inkscape:connector-curvature="0"
       style="fill:#8c1800;fill-rule:evenodd" />
    <path
       d="m 445.582,346.035 c -5.93,6.636 -5.93,6.495 -5.93,6.495"
       id="path121"
       inkscape:connector-curvature="0"
       style="fill:none;stroke:#8c1800;stroke-width:3.01861167;stroke-linecap:round" />
    <path
       d="m 454.485,335.16 -5.648,6.919"
       id="path123"
       inkscape:connector-curvature="0"
       style="fill:none;stroke:#8c1800;stroke-width:2.78641057;stroke-linecap:round" />
    <path
       d="m 463.373,321.044 -6.355,10.166"
       id="path125"
       inkscape:connector-curvature="0"
       style="fill:none;stroke:#8c1800;stroke-width:2.55420971;stroke-linecap:round" />
    <path
       d="m 470.856,306.644 -5.224,10.449 m 8.616,-18.083 -1.695,3.67"
       id="path127"
       inkscape:connector-curvature="0"
       style="fill:none;stroke:#8c1800;stroke-width:2.32200885;stroke-linecap:round" />
    <path
       d="m 478.056,288.987 -1.412,4.377"
       id="path129"
       inkscape:connector-curvature="0"
       style="fill:none;stroke:#8c1800;stroke-width:1.39320529;stroke-linecap:round" />
    <g
       id="g149">
      <path
         d="m 160.26,215.97 c 0,0 51.958,-14.677 67.647,-78.444 -9.11,65.454 -65.96,86.204 -65.96,86.204 z"
         transform="matrix(-1.65528,0,0,1.70062,524.795,20.382)"
         id="path131"
         inkscape:connector-curvature="0"
         style="fill:#f7df73;fill-rule:evenodd;stroke:#000000;stroke-width:1.48300004;stroke-linejoin:round" />
      <path
         d="m 250.697,394.416 c -2.658,0 -9.234,-7.475 -13.012,-8.337 -3.778,-0.862 -4.197,-4.744 0.14,-4.888 4.337,-0.143 8.115,5.032 8.115,5.032 0,0 3.778,3.306 7.695,3.737 3.918,0.432 1.4,5.462 -2.938,4.456 z"
         id="path133"
         inkscape:connector-curvature="0"
         style="fill:#8c1800;fill-rule:evenodd" />
      <path
         d="m 195.51,197.62 c 0,0 -5.41,3.127 -4.649,3.888 0.76,0.761 5.579,-2.958 5.663,-3.043 0.085,-0.084 2.029,-2.451 -1.014,-0.845 z"
         transform="matrix(-1.65528,0,0,1.70062,524.795,20.382)"
         id="path135"
         inkscape:connector-curvature="0"
         style="fill:#8c1800;fill-rule:evenodd;stroke:#8c1800;stroke-width:1.48300004" />
      <path
         d="m 232.373,380.624 c 0,0 2.659,-1.006 -4.197,-3.737 -6.856,-2.731 -6.436,-5.894 -8.675,-7.188 -2.239,-1.293 -6.996,-4.743 -7.975,-2.73 -0.979,2.013 5.037,6.037 6.436,6.468 1.4,0.431 8.255,6.9 10.214,7.475 1.959,0.575 3.358,0.287 4.197,-0.288 z"
         id="path137"
         inkscape:connector-curvature="0"
         style="fill:#8c1800;fill-rule:evenodd" />
      <path
         d="m 203.54,189.68 c -3.55,3.973 -3.55,3.888 -3.55,3.888"
         transform="matrix(-1.65528,0,0,1.70062,524.795,20.382)"
         id="path139"
         inkscape:connector-curvature="0"
         style="fill:none;stroke:#8c1800;stroke-width:1.80700004;stroke-linecap:round" />
      <path
         d="m 208.87,183.17 -3.381,4.142"
         transform="matrix(-1.65528,0,0,1.70062,524.795,20.382)"
         id="path141"
         inkscape:connector-curvature="0"
         style="fill:none;stroke:#8c1800;stroke-width:1.66799998;stroke-linecap:round" />
      <path
         d="m 214.19,174.72 -3.804,6.086"
         transform="matrix(-1.65528,0,0,1.70062,524.795,20.382)"
         id="path143"
         inkscape:connector-curvature="0"
         style="fill:none;stroke:#8c1800;stroke-width:1.52900004;stroke-linecap:round" />
      <path
         d="m 218.67,166.1 -3.127,6.255 m 5.157,-10.825 -1.014,2.198"
         transform="matrix(-1.65528,0,0,1.70062,524.795,20.382)"
         id="path145"
         inkscape:connector-curvature="0"
         style="fill:none;stroke:#8c1800;stroke-width:1.38999999;stroke-linecap:round" />
      <path
         d="m 222.98,155.53 -0.845,2.62"
         transform="matrix(-1.65528,0,0,1.70062,524.795,20.382)"
         id="path147"
         inkscape:connector-curvature="0"
         style="fill:none;stroke:#8c1800;stroke-width:0.83399999;stroke-linecap:round" />
    </g>
    <path
       d="m 490.42,239.302 c 0.427,6.682 6.967,13.08 4.408,24.738 -3.27,13.221 -14.786,44.641 -12.795,50.186 -3.412,-4.692 -2.844,-9.1 -3.128,-15.64 -0.285,-6.539 9.525,-30.85 10.378,-39.096 0,-7.392 0.711,-17.486 1.137,-20.188 z"
       id="path151"
       inkscape:connector-curvature="0"
       style="fill:#217900;fill-rule:evenodd;stroke:#000000;stroke-width:2.32180023;stroke-linejoin:round" />
    <path
       d="m 490.42,239.442 c 0,0 10.663,13.506 10.094,24.169 -0.568,10.663 -6.54,23.173 -4.55,28.718 -3.411,-4.692 -4.264,-7.678 -4.549,-14.217 -0.284,-6.54 5.26,-13.791 4.123,-20.9 -1.137,-7.108 -5.26,-17.77 -5.118,-17.77 z m -349.297,2.985 c -0.426,6.682 -5.402,12.652 -2.843,24.31 3.27,13.222 14.928,29.999 13.08,49.192 3.412,-4.692 4.407,-9.952 4.691,-16.492 0.285,-6.54 -12.938,-28.576 -13.79,-36.822 0,-7.392 -0.711,-17.486 -1.138,-20.188 z"
       id="path153"
       inkscape:connector-curvature="0"
       style="fill:#217900;fill-rule:evenodd;stroke:#000000;stroke-width:2.32180023;stroke-linejoin:round" />
    <path
       d="m 141.123,242.575 c 0,0 -10.378,13.08 -9.81,23.742 0.142,7.109 13.222,36.822 11.232,42.367 3.412,-4.691 4.407,-4.123 4.264,-11.231 -3.838,-18.198 -10.663,-29.856 -9.525,-36.965 1.137,-7.108 3.98,-17.913 3.839,-17.913 z"
       id="path155"
       inkscape:connector-curvature="0"
       style="fill:#217900;fill-rule:evenodd;stroke:#000000;stroke-width:2.32180023;stroke-linejoin:round" />
    <path
       transform="matrix(1.16516,0,0,1.16534,201.97,-23.618)"
       d="m 99.959,125.78 22.172,68.231 71.743,0.003 -58.04,42.172 22.167,68.233 -58.041,-42.15 -58.044,42.16 22.168,-68.23 -58.04,-42.17 h 71.743 z"
       id="path157"
       inkscape:connector-curvature="0"
       style="fill:#ffffff;stroke:#000000;stroke-width:1.66100001;stroke-linecap:square;stroke-linejoin:round;stroke-dashoffset:1" />
  </g>
</svg>
