<?xml version="1.0" encoding="UTF-8" standalone="no"?>
<svg
   xmlns:dc="http://purl.org/dc/elements/1.1/"
   xmlns:cc="http://creativecommons.org/ns#"
   xmlns:rdf="http://www.w3.org/1999/02/22-rdf-syntax-ns#"
   xmlns:svg="http://www.w3.org/2000/svg"
   xmlns="http://www.w3.org/2000/svg"
   xmlns:sodipodi="http://sodipodi.sourceforge.net/DTD/sodipodi-0.dtd"
   xmlns:inkscape="http://www.inkscape.org/namespaces/inkscape"
   height="16"
   width="21.333332"
   viewBox="0 0 21.333332 16"
   version="1.1"
   id="svg70"
   sodipodi:docname="ms.svg"
   inkscape:version="0.92.1 r">
  <metadata
     id="metadata76">
    <rdf:RDF>
      <cc:Work
         rdf:about="">
        <dc:format>image/svg+xml</dc:format>
        <dc:type
           rdf:resource="http://purl.org/dc/dcmitype/StillImage" />
        <dc:title></dc:title>
      </cc:Work>
    </rdf:RDF>
  </metadata>
  <defs
     id="defs74" />
  <sodipodi:namedview
     pagecolor="#ffffff"
     bordercolor="#666666"
     borderopacity="1"
     objecttolerance="10"
     gridtolerance="10"
     guidetolerance="10"
     inkscape:pageopacity="0"
     inkscape:pageshadow="2"
     inkscape:window-width="1920"
     inkscape:window-height="1024"
     id="namedview72"
     showgrid="false"
     fit-margin-top="0"
     fit-margin-left="0"
     fit-margin-right="0"
     fit-margin-bottom="0"
     inkscape:zoom="0.49166667"
     inkscape:cx="320"
     inkscape:cy="240"
     inkscape:window-x="0"
     inkscape:window-y="0"
     inkscape:window-maximized="1"
     inkscape:current-layer="svg70" />
  <path
     d="M 0,0 H 21.333333 V 16 H 0 Z"
     id="path2"
     inkscape:connector-curvature="0"
     style="fill:#000066;stroke-width:0.03333334" />
  <g
     id="g10"
     transform="scale(0.03333333)"
     style="fill-rule:evenodd">
    <path
       d="m 408.303,192.25 h 214.293 l -0.255,153.441 c 1.782,61.682 -36.423,99.957 -106.72,117.214 -49.926,-12.476 -107.489,-38.28 -107.573,-115.464 l 0.255,-155.193 z"
       id="path4"
       inkscape:connector-curvature="0"
       style="fill:#ffffff" />
    <path
       d="m 44.069,22.713 h 169.3 l -0.201,120.79 c 1.408,48.558 -28.777,78.69 -84.317,92.276 -39.437,-9.82 -84.916,-30.13 -84.982,-90.9 L 44.07,22.709 Z"
       transform="matrix(1.2096,0,0,1.2172,359.74,169.23)"
       id="path6"
       inkscape:connector-curvature="0"
       style="fill:#00a2bd;stroke:#000000;stroke-width:1.00000003pt" />
    <path
       d="m 616.248,361.329 c -7.45,56.418 -50.63,81.069 -100.65,94.152 -44.276,-11.951 -91.91,-31.032 -101.143,-93.869 l 201.798,-0.283 z"
       id="path8"
       inkscape:connector-curvature="0"
       style="fill:#a53d08" />
  </g>
  <g
     id="g16"
     transform="scale(0.03333333)"
     style="fill-rule:evenodd;stroke:#000000">
    <path
       d="m 155.77,197.17 c 0.094,0.094 0.658,9.295 -4.319,14.929 4.413,1.409 7.418,-0.282 8.826,-2.066 1.409,-1.784 1.879,-4.037 1.879,-4.037 0,0 1.22,-0.751 1.408,-2.441 0.094,-2.348 -0.939,-2.348 -1.784,-2.817 l 0.187,-5.258 c 0,0 -5.07,-3.099 -6.197,1.69 z"
       transform="matrix(1.2096,0,0,1.2172,359.74,169.23)"
       id="path12"
       inkscape:connector-curvature="0"
       style="fill:#ffc6b5;stroke-width:1.25;stroke-linejoin:round" />
    <path
       d="m 155.49,210.32 -1.503,-1.221"
       transform="matrix(1.2096,0,0,1.2172,359.74,169.23)"
       id="path14"
       inkscape:connector-curvature="0"
       style="fill:#ff9a08;stroke-width:1.00000003pt;stroke-linecap:round" />
  </g>
  <path
     d="m 17.702258,8.45651 c 0,0 0.0047,0.22822 -0.0095,0.252 -0.01415,0.0238 -0.143297,0.084 -0.143297,0.084 l 0.110235,0.23614 c 0,0 0.310262,-0.0444 0.311834,-0.0444 0.0016,0 0.133903,-0.35343 0.133903,-0.35343 0,0 -0.06931,-0.11726 -0.05197,-0.2393 -0.103945,-0.33128 -0.34651,0.0665 -0.351228,0.065 z"
     id="path18"
     inkscape:connector-curvature="0"
     style="fill:#ffc6b5;fill-rule:evenodd;stroke:#000000;stroke-width:0.04044647pt" />
  <path
     d="m 17.291397,13.88104 c 0,0 0.174142,0.17523 0.374775,0.15239 0.454325,-0.0495 0.586817,-0.45714 0.726889,-0.46095 0.140071,-0.004 0.227163,0.24762 0.359654,0.21715 -0.113581,-0.20952 -0.234703,-0.67429 -0.215793,-1.00192 0.01895,-0.32763 0.01895,-1.70672 0.01895,-1.70672 0,0 -0.227163,-0.71239 -0.333164,-0.83049 0.106001,-0.1143 0.177932,-0.31619 0.174142,-0.53715 -0.0038,-0.22097 0,-0.46477 0,-0.46477 0,0 0.05298,-0.0609 0.04923,-0.23237 -0.0038,-0.17146 -0.287723,-0.41904 -0.325584,-0.40764 -0.03786,0.0114 -0.393724,0.32001 -0.424005,0.39235 -0.03032,0.0724 -0.07193,-0.26284 -0.0038,-0.29335 0.06814,-0.0304 -0.159022,-0.0495 -0.302884,0.12193 -0.143861,0.17146 -0.102211,5.05908 -0.09842,5.05138 z"
     id="path20"
     inkscape:connector-curvature="0"
     style="fill:#005121;fill-rule:evenodd;stroke:#000000;stroke-width:0.05055809;stroke-linejoin:round" />
  <path
     d="m 15.583933,7.47073 1.332334,0.005 -0.0095,-0.6177 0.4854,0.005 0.0047,0.6129 h 1.3276 l 0.0047,0.47884 -1.332333,0.005 -0.01067,5.647 -0.4734,0.003 -0.0061,-5.6547 -1.3231,0.005 3e-4,-0.4884 z"
     id="path22"
     inkscape:connector-curvature="0"
     style="fill-rule:evenodd;stroke-width:0.03333334" />
  <path
     d="m 16.911583,8.96635 c 0,0 -0.09104,-0.0161 -0.160635,0.005 -0.06959,0.0215 0.10709,-0.79467 0.10709,-0.86202 0.06157,-0.0296 0.369412,-0.0862 0.361388,-0.30443 -0.02141,-0.13198 -0.476502,0.008 -0.468478,0.17512 -0.02943,0.0835 -0.326552,0.93473 -0.267684,1.21489 0.104388,0.0835 0.297158,0.0673 0.428319,0.0458 z"
     id="path24"
     inkscape:connector-curvature="0"
     style="fill:#ffc6b5;fill-rule:evenodd;stroke:#000000;stroke-width:0.04044647pt" />
  <path
     d="m 16.999884,7.79995 c 0,0 -0.02677,0.15085 0.109751,0.17243"
     id="path26"
     inkscape:connector-curvature="0"
     style="fill:none;stroke:#000000;stroke-width:0.02527904;stroke-linecap:round" />
  <path
     d="m 17.200677,7.79723 c -0.0054,0.003 -0.176682,0.11044 -0.176682,0.11044 m 0.166199,-0.0431 -0.120476,0.0889 m 0.07491,-0.18855 -0.133863,0.0808"
     id="path28"
     inkscape:connector-curvature="0"
     style="fill:none;stroke:#000000;stroke-width:0.01516743" />
  <path
     d="m 15.84149,12.27717 1.215245,1.26861 c 0.420215,-0.46477 0.128742,-2.202 -0.423965,-2.52196 -0.06625,0.20571 -0.1789,0.45236 -0.29865,0.53188 -0.263451,0.18067 -0.909055,0.3919 -0.693262,0.52717 0.04919,-0.0686 0.177932,-0.13333 0.238493,0.0191 0.07193,0.23999 -0.268774,0.25525 -0.268774,0.25525 0,0 -0.215792,-0.0267 -0.253653,-0.24766 -0.03786,-0.22093 0.321431,-0.42266 0.352075,-0.43807 0.03028,-0.0115 0.499726,-0.13714 0.579237,-0.55622 0.09842,-0.41146 0.200632,-0.35048 0.219582,-0.3581 0.613268,0.0609 1.014573,1.16575 1.037313,1.94289 0.0227,0.77714 -0.314214,1.29145 -0.374815,1.32573 -0.06056,0.0343 -1.461317,-1.67239 -1.461317,-1.67239 z"
     id="path30"
     inkscape:connector-curvature="0"
     style="fill:#ff9a08;fill-rule:evenodd;stroke:#000000;stroke-width:0.04044647pt" />
  <path
     d="m 16.727321,11.09608 0.0075,2.28956 M 16.591,11.13788 l 0.0075,2.08007 m -0.155111,-1.77902 0.0075,1.65336 m -0.1285,-1.53529 0.0076,1.36768 m -0.136604,-1.30642 v 1.15431 m -0.139911,-1.06302 v 0.91428 m -0.121202,-0.84206 v 0.70095"
     id="path32"
     inkscape:connector-curvature="0"
     style="fill:none;stroke:#000000;stroke-width:0.04044647pt" />
  <path
     d="m 15.82258,12.42202 1.253105,1.4436 m 0.06048,-2.35406 c 0,0 0.567908,1.24957 0.04165,2.27815 m -1.502888,-1.6306 c 0,0 0.04165,-0.11049 0.09463,-0.0648 m -0.193052,-0.25537 c 0,0 -0.227163,0.2019 -0.102211,0.33145"
     id="path34"
     inkscape:connector-curvature="0"
     style="fill:none;stroke:#ffdf00;stroke-width:0.05055809;stroke-linecap:round" />
  <path
     d="m 17.677663,9.00855 c 0,0 0.01895,0.17527 -0.01891,0.30856 -0.03786,0.13328 0.143862,0.50286 0.07568,0.57906 m 0.01903,0.35802 0.477025,-0.004"
     id="path36"
     inkscape:connector-curvature="0"
     style="fill:none;stroke:#000000;stroke-width:0.04044647pt" />
  <path
     d="m 17.579282,10.44853 c 0.0038,0.008 0.05677,0.25144 0.04161,0.41905 m 0.113622,-0.33141 c -0.01512,0.0495 -0.212002,0.61335 -0.204422,0.63619 m 0.321753,-0.89139 c 0.0038,0.0114 -0.01512,0.3581 -0.06814,0.40764 m 0.310464,-0.43442 c 0,0 0.310464,0.72383 0.306673,1.00954 -0.0038,0.28572 0.106002,0.86478 0.03407,1.12003 m -0.242364,-1.12741 c 0,0 -0.02274,0.53715 -0.246073,0.74667 -0.223372,0.20956 0.533797,0.80765 0.533797,0.80765"
     id="path38"
     inkscape:connector-curvature="0"
     style="fill:none;stroke:#000000;stroke-width:0.04044647pt;stroke-linecap:round" />
  <path
     d="m 18.184889,12.77623 c 0,0 0.0833,0.73904 0.223372,0.79239 m -0.908409,-2.03069 c 0.0038,0.008 -0.07572,0.49905 -0.01137,0.57906 0.06439,0.08 0.598188,0.8305 0.575448,1.60768 m -0.151604,-0.23232 c 0,0 -0.01516,0.46858 -0.446745,0.50668 m 0.318125,-0.81504 c 0,0 0.128741,0.48761 -0.310424,0.79621"
     id="path40"
     inkscape:connector-curvature="0"
     style="fill:none;stroke:#000000;stroke-width:0.05055809;stroke-linecap:round" />
  <path
     d="m 17.953855,12.00655 c 0,0 0.495936,0.51812 0.518676,0.74671 m -0.374734,-2.48771 c 0,0 0.08709,0.3695 0.05302,0.4343"
     id="path42"
     inkscape:connector-curvature="0"
     style="fill:none;stroke:#000000;stroke-width:0.04044647pt;stroke-linecap:round" />
  <path
     d="m 16.568057,11.02468 c 0,0 -0.0531,-0.0935 -0.04645,-0.19707 0.0067,-0.10354 -0.01661,-0.26381 0.315302,-0.39409 0.202447,-0.20704 0.428118,-0.33063 0.550892,-0.39405 0.179223,-0.11689 0.295425,-0.0902 0.401588,-0.13028 0.06971,-0.0801 0.06637,-0.25715 0.139386,-0.41409 0.07302,-0.15698 0.202447,-0.48091 0.341833,-0.43081 0.139426,0.0501 0.02988,0.4709 -0.02322,0.61785 -0.0531,0.14696 -0.09955,0.30057 -0.192488,0.39073 -0.09294,0.0902 -0.514403,0.25382 -0.597381,0.28389 -0.08298,0.0301 -0.461301,0.11685 -0.557545,0.2505 -0.09628,0.13356 -0.08963,0.33063 -0.331914,0.41746 z"
     id="path44"
     inkscape:connector-curvature="0"
     style="fill:#ffc6b5;fill-rule:evenodd;stroke:#000000;stroke-width:0.04044647pt" />
  <path
     d="m 16.541445,10.74431 c 0.01,-0.003 0.165917,-0.0534 0.238937,0.0869"
     id="path46"
     inkscape:connector-curvature="0"
     style="fill:none;stroke:#000000;stroke-width:0.04044647pt" />
  <path
     d="m 17.713145,7.88065 c 0,0 -0.07016,0.1151 -0.08959,0.18505 -0.01508,0.0523 -0.06371,-0.004 -0.08943,0.10988 l 0.04173,0.007 c -0.01661,0.0334 -0.02201,0.0898 -0.02532,0.10318 -0.0033,0.0134 -0.02669,0.0744 -0.02322,0.12026 0.0019,0.0236 0.04645,0.12691 0.408199,-0.0301 C 18.297265,8.21894 17.819352,7.77341 17.71315,7.88028 Z"
     id="path48"
     inkscape:connector-curvature="0"
     style="fill:#ffc6b5;fill-rule:evenodd;stroke:#000000;stroke-width:0.05055809;stroke-linejoin:round" />
  <path
     d="m 17.672421,7.89538 c 0.03713,-0.02 0.300667,-0.0434 0.256758,0.47422 0.05068,-0.007 0.08108,-0.0134 0.111445,0.0367 0.0304,0.0501 0.02705,0.11023 0.08108,0.11023 0.05407,0 0.06084,-0.01 0.07435,-0.0501 0.01347,-0.0401 0.22297,0.0467 0.276958,-0.14027 -0.0094,-0.0364 -0.128338,-0.0935 -0.141886,-0.1603 0.03044,-0.0935 -0.01351,-0.39742 -0.398563,-0.41413 -0.199342,-0.003 -0.239823,0.0801 -0.260145,0.14363 z"
     id="path50"
     inkscape:connector-curvature="0"
     style="fill:#c59200;fill-rule:evenodd;stroke:#000000;stroke-width:0.051003;stroke-linecap:round;stroke-linejoin:round" />
  <path
     d="m 17.653068,7.99892 c 0.0033,0.003 0.119508,0.0367 0.132773,0.0935"
     id="path52"
     inkscape:connector-curvature="0"
     style="fill:none;stroke:#000000;stroke-width:0.04044647pt;stroke-linecap:round" />
  <path
     d="m 17.724433,8.13637 c 0,0.0175 -0.0134,0.0317 -0.02993,0.0317 -0.01653,0 -0.0299,-0.0142 -0.0299,-0.0317 0,-0.0175 0.01337,-0.0317 0.0299,-0.0317 0.01653,0 0.02993,0.0142 0.02993,0.0317 z"
     id="path54"
     inkscape:connector-curvature="0"
     style="fill-rule:evenodd;stroke-width:0.03333334" />
  <path
     d="m 18.215935,8.13796 c 0,0 -0.04254,0.20604 0.14491,0.28686 m -0.283611,-0.2615 c 0,0 0.06943,0.003 0.06943,0.0682 0,0.065 -0.05701,0.0729 -0.05225,0.1252 0.0047,0.0523 0.09778,0.0697 0.100921,0.1141 m -0.42211,-0.68784 c 0.0031,0 0.332358,0.0381 0.313448,0.12046 -0.01891,0.0824 -0.07088,0.0491 -0.06931,0.12042 0.0016,0.0713 0.13229,0.0286 0.13229,0.0286 0,0 0.0079,-0.0602 0.06302,-0.0555 0.05512,0.005 0.02992,0.0682 0.105517,0.0665"
     id="path56"
     inkscape:connector-curvature="0"
     style="fill:none;stroke:#000000;stroke-width:0.05055809;stroke-linecap:round;stroke-linejoin:round" />
  <path
     d="m 17.572025,8.29685 0.07806,-0.003"
     id="path58"
     inkscape:connector-curvature="0"
     style="fill:none;stroke:#000000;stroke-width:0.05055809;stroke-linecap:round" />
  <path
     d="m 17.775237,8.63109 c 0,0 0.02903,0.13633 -0.08064,0.12335"
     id="path60"
     inkscape:connector-curvature="0"
     style="fill:none;stroke:#000000;stroke-width:0.04044647pt;stroke-linecap:round" />
  <g
     id="g68"
     transform="scale(0.03333333)"
     style="stroke-width:1.00000003pt">
    <path
       d="m 0,0.063 v 28.44 l 343.648,225.93 h 43.256 V 225.995 L 43.256,0.064 H 0 Z m 386.904,0 V 28.502 L 43.256,254.433 H 0 V 225.994 L 343.648,0.063 Z"
       id="path62"
       inkscape:connector-curvature="0"
       style="fill:#ffffff" />
    <path
       d="m 161.21,0.063 v 254.37 h 64.484 V 0.063 Z M 0,84.853 v 84.79 h 386.904 v -84.79 z"
       id="path64"
       inkscape:connector-curvature="0"
       style="fill:#ffffff" />
    <path
       d="m 0,101.811 v 50.874 H 386.904 V 101.811 Z M 174.107,0.063 v 254.37 h 38.69 V 0.063 Z M 0,254.433 128.968,169.643 h 28.837 L 28.837,254.433 Z M 0,0.063 128.968,84.853 H 100.131 L 0,19.023 Z m 229.099,84.79 128.968,-84.79 h 28.837 l -128.968,84.79 z m 157.805,169.58 -128.968,-84.79 h 28.837 l 100.131,65.831 z"
       id="path66"
       inkscape:connector-curvature="0"
       style="fill:#cc0000" />
  </g>
</svg>
