<?xml version="1.0" encoding="UTF-8" standalone="no"?>
<svg
   xmlns:dc="http://purl.org/dc/elements/1.1/"
   xmlns:cc="http://creativecommons.org/ns#"
   xmlns:rdf="http://www.w3.org/1999/02/22-rdf-syntax-ns#"
   xmlns:svg="http://www.w3.org/2000/svg"
   xmlns="http://www.w3.org/2000/svg"
   xmlns:sodipodi="http://sodipodi.sourceforge.net/DTD/sodipodi-0.dtd"
   xmlns:inkscape="http://www.inkscape.org/namespaces/inkscape"
   height="15.999998"
   width="21.333265"
   viewBox="0 0 21.333265 15.999998"
   version="1.1"
   id="svg18"
   sodipodi:docname="mw.svg"
   inkscape:version="0.92.1 r">
  <metadata
     id="metadata24">
    <rdf:RDF>
      <cc:Work
         rdf:about="">
        <dc:format>image/svg+xml</dc:format>
        <dc:type
           rdf:resource="http://purl.org/dc/dcmitype/StillImage" />
        <dc:title></dc:title>
      </cc:Work>
    </rdf:RDF>
  </metadata>
  <defs
     id="defs22" />
  <sodipodi:namedview
     pagecolor="#ffffff"
     bordercolor="#666666"
     borderopacity="1"
     objecttolerance="10"
     gridtolerance="10"
     guidetolerance="10"
     inkscape:pageopacity="0"
     inkscape:pageshadow="2"
     inkscape:window-width="1920"
     inkscape:window-height="1024"
     id="namedview20"
     showgrid="false"
     fit-margin-top="0"
     fit-margin-left="0"
     fit-margin-right="0"
     fit-margin-bottom="0"
     inkscape:zoom="0.49166667"
     inkscape:cx="320"
     inkscape:cy="240"
     inkscape:window-x="0"
     inkscape:window-y="0"
     inkscape:window-maximized="1"
     inkscape:current-layer="svg18" />
  <g
     id="g16"
     transform="scale(0.03333333)"
     style="fill-rule:evenodd;stroke-width:1.00000003pt">
    <path
       d="M 0,0 H 639.998 V 480 H 0 Z"
       id="path2"
       inkscape:connector-curvature="0"
       style="fill:#f41408" />
    <path
       d="M 0,319.997 H 639.998 V 480 H 0 Z"
       id="path4"
       inkscape:connector-curvature="0"
       style="fill:#21873b" />
    <path
       d="M 0,0 H 639.998 V 160.003 H 0 Z"
       id="path6"
       inkscape:connector-curvature="0" />
    <g
       id="g14">
      <path
         d="m 220.479,141.06 c 22.308,-49.262 84.502,-72.826 138.83,-52.597 27.36,10.188 46.74,27.754 57.987,52.56 l -196.81,0.037 z m -25.97,6.365 c -23.45,-1.577 -48.376,-6.456 -52.443,-7.798 -4.066,-1.343 -4.223,-3.585 -3.722,-5.303 0.501,-1.717 3.096,-3.667 6.127,-2.94 5.682,1.363 28.788,6.905 50.034,16.044 z m 124.63,-85.911 c -4.208,-20.98 -5.27,-44.078 -4.86,-47.985 0.41,-3.906 2.765,-4.608 4.724,-4.6 1.96,0.008 4.693,1.796 4.68,4.638 -0.027,5.33 -0.132,27.003 -4.544,47.948 z m 11.54,0.487 c -2.21,-21.23 -1.086,-44.326 -0.308,-48.186 0.778,-3.86 3.19,-4.376 5.141,-4.216 1.952,0.16 4.507,2.153 4.224,4.984 -0.53,5.308 -2.682,26.893 -9.057,47.418 z m 10.46,1.285 c -0.276,-21.322 2.94,-44.256 4.066,-48.046 1.126,-3.789 3.576,-4.123 5.506,-3.818 1.93,0.305 4.295,2.483 3.757,5.283 -1.01,5.25 -5.113,26.601 -13.329,46.581 z m 11.01,2.233 c 1.793,-21.262 7.222,-43.85 8.711,-47.536 1.49,-3.684 3.963,-3.821 5.855,-3.364 1.894,0.458 4.039,2.816 3.23,5.562 -1.514,5.15 -7.673,26.09 -17.796,45.338 z m 10.85,3.134 c 3.867,-21.034 11.486,-43.097 13.33,-46.647 1.844,-3.55 4.321,-3.488 6.161,-2.88 1.841,0.609 3.747,3.13 2.674,5.8 -2.01,5.007 -10.2,25.37 -22.16,43.726 z m 10.11,3.831 c 5.836,-20.657 15.507,-42.048 17.679,-45.443 2.172,-3.394 4.634,-3.14 6.41,-2.39 1.777,0.748 3.438,3.407 2.117,5.985 -2.478,4.833 -12.552,24.486 -26.206,41.848 z m 9.95,4.723 c 7.808,-20.113 19.507,-40.655 21.999,-43.863 2.491,-3.21 4.92,-2.76 6.617,-1.873 1.697,0.887 3.095,3.668 1.53,6.13 -2.935,4.618 -14.868,23.396 -30.146,39.607 z m 9.41,5.468 c 9.712,-19.42 23.341,-38.958 26.131,-41.958 2.79,-3 5.166,-2.36 6.771,-1.343 1.606,1.018 2.732,3.899 0.936,6.228 -3.367,4.368 -17.06,22.132 -33.838,37.074 z m 8.86,6.2 c 11.544,-18.577 27.001,-36.963 30.07,-39.73 3.068,-2.768 5.374,-1.943 6.875,-0.802 1.502,1.14 2.345,4.1 0.332,6.278 -3.775,4.085 -19.126,20.697 -37.277,34.254 z m 8.25,6.89 c 13.292,-17.59 30.464,-34.68 33.787,-37.192 3.324,-2.514 5.54,-1.51 6.926,-0.254 1.386,1.256 1.94,4.27 -0.275,6.281 -4.154,3.77 -21.049,19.1 -40.439,31.166 z m 7.58,7.545 c 14.943,-16.466 33.701,-32.123 37.255,-34.362 3.554,-2.24 5.665,-1.062 6.924,0.299 1.259,1.36 1.52,4.408 -0.881,6.235 -4.504,3.424 -22.815,17.352 -43.298,27.828 z m 6.52,7.735 c 16.41,-15.274 36.549,-29.451 40.297,-31.413 3.748,-1.961 5.743,-0.629 6.872,0.823 1.129,1.452 1.108,4.508 -1.454,6.146 -4.803,3.071 -24.338,15.56 -45.715,24.444 z m 5.9,8.388 c 17.791,-13.944 39.193,-26.508 43.113,-28.172 3.92,-1.664 5.782,-0.18 6.77,1.353 0.987,1.534 0.678,4.578 -2.03,6.01 -5.075,2.688 -25.715,13.615 -47.853,20.808 z m 5.47,9.557 c 19.138,-12.39 41.731,-23.103 45.804,-24.43 4.073,-1.328 5.775,0.304 6.602,1.915 0.827,1.61 0.208,4.615 -2.633,5.814 -5.329,2.25 -26.996,11.397 -49.773,16.701 z m 4.18,9.231 c 20.24,-10.856 43.763,-19.771 47.946,-20.778 4.183,-1.006 5.725,0.753 6.396,2.422 0.672,1.67 -0.229,4.614 -3.173,5.588 -5.522,1.827 -27.974,9.255 -51.17,12.768 z m 3.36,9.785 c 21.216,-9.197 45.514,-16.198 49.779,-16.867 4.265,-0.667 5.63,1.208 6.136,2.924 0.507,1.716 -0.676,4.578 -3.704,5.313 -5.678,1.378 -28.765,6.984 -52.21,8.63 z M 307.849,61.912 c -6.33,-20.538 -9.744,-43.448 -9.733,-47.373 0.01,-3.924 2.283,-4.82 4.234,-4.976 1.952,-0.157 4.856,1.394 5.132,4.225 0.518,5.309 2.624,26.898 0.367,48.123 z m -11.1,1.301 C 288.466,43.255 282.86,20.702 282.493,16.792 c -0.367,-3.91 1.81,-4.982 3.739,-5.293 1.93,-0.31 4.972,1.005 5.52,3.803 1.026,5.248 5.203,26.587 4.997,47.91 z m -11.03,2.2 c -10.19,-19.218 -17.97,-41.235 -18.72,-45.102 -0.746,-3.865 1.32,-5.107 3.21,-5.57 1.892,-0.464 5.05,0.602 5.868,3.346 1.532,5.146 7.766,26.07 9.633,47.325 z m -10.4,2.946 c -11.95,-18.365 -21.76,-39.703 -22.86,-43.498 -1.105,-3.794 0.836,-5.19 2.677,-5.797 1.841,-0.608 5.088,0.212 6.16,2.883 2.009,5.008 10.179,25.376 14.03,46.412 z m -10.16,3.772 c -13.65,-17.369 -25.44,-37.867 -26.9,-41.562 -1.46,-3.695 0.343,-5.237 2.12,-5.985 1.777,-0.748 5.09,-0.184 6.409,2.395 2.475,4.834 12.539,24.492 18.362,45.152 z m -10.27,4.803 c -15.313,-16.183 -29.09,-35.636 -30.91,-39.196 -1.82,-3.56 -0.179,-5.243 1.516,-6.133 1.696,-0.89 5.051,-0.599 6.622,1.86 2.944,4.613 14.92,23.369 22.773,43.47 z m -9.35,5.372 c -16.8,-14.924 -32.37,-33.226 -34.53,-36.63 -2.153,-3.404 -0.677,-5.21 0.927,-6.229 1.605,-1.02 4.975,-0.992 6.774,1.336 3.372,4.364 17.089,22.113 26.826,41.524 z m -8.76,5.976 c -18.139,-13.57 -35.382,-30.6 -37.847,-33.825 -2.465,-3.226 -1.165,-5.139 0.337,-6.278 1.503,-1.14 4.864,-1.374 6.875,0.806 3.771,4.088 19.108,20.71 30.635,39.297 z m -8.51,6.948 c -19.4,-12.053 -38.25,-27.621 -41.02,-30.634 -2.772,-3.014 -1.665,-5.024 -0.281,-6.28 1.385,-1.258 4.709,-1.762 6.926,0.247 4.158,3.766 21.068,19.083 34.377,36.663 z m -7.35,7.128 C 200.472,91.825 180.251,77.744 177.21,74.952 c -3.041,-2.792 -2.124,-4.88 -0.86,-6.237 1.263,-1.358 4.529,-2.112 6.924,-0.28 4.492,3.438 22.758,17.416 37.645,33.922 z m -7.04,8.142 c -21.398,-8.842 -42.92,-21.237 -46.223,-23.772 -3.303,-2.536 -2.594,-4.69 -1.469,-6.143 1.126,-1.454 4.305,-2.47 6.87,-0.837 4.811,3.062 24.376,15.511 40.822,30.753 z m -6.31,8.824 c -22.191,-7.056 -44.858,-17.638 -48.4,-19.893 -3.542,-2.255 -3.05,-4.457 -2.074,-5.997 0.976,-1.54 4.041,-2.812 6.759,-1.396 5.096,2.655 25.819,13.453 43.716,27.287 z m -5.24,8.968 c -22.785,-5.275 -46.383,-14.025 -50.128,-15.992 -3.745,-1.967 -3.467,-4.2 -2.643,-5.811 0.825,-1.612 3.756,-3.12 6.6,-1.925 5.331,2.243 27.014,11.362 46.17,23.728 z m -4.2,8.986 c -23.192,-3.524 -47.516,-10.45 -51.43,-12.126 -3.914,-1.675 -3.843,-3.922 -3.17,-5.59 0.672,-1.669 3.454,-3.395 6.398,-2.419 5.52,1.83 27.969,9.268 48.202,20.135 z"
         id="path8"
         inkscape:connector-curvature="0"
         style="fill:#f31509" />
      <path
         d="m 194.509,147.425 c -23.45,-1.577 -48.376,-6.456 -52.443,-7.798 -4.066,-1.343 -4.223,-3.585 -3.722,-5.303 0.501,-1.717 3.096,-3.667 6.127,-2.94 5.682,1.363 28.788,6.905 50.034,16.044 z"
         id="path10"
         inkscape:connector-curvature="0"
         style="fill:#f31509" />
      <path
         d="m 129.386,141.522 h 381.23 v 12.562 h -381.23 z"
         id="path12"
         inkscape:connector-curvature="0" />
    </g>
  </g>
</svg>
