<?xml version="1.0" encoding="UTF-8" standalone="no"?>
<svg
   xmlns:dc="http://purl.org/dc/elements/1.1/"
   xmlns:cc="http://creativecommons.org/ns#"
   xmlns:rdf="http://www.w3.org/1999/02/22-rdf-syntax-ns#"
   xmlns:svg="http://www.w3.org/2000/svg"
   xmlns="http://www.w3.org/2000/svg"
   xmlns:xlink="http://www.w3.org/1999/xlink"
   xmlns:sodipodi="http://sodipodi.sourceforge.net/DTD/sodipodi-0.dtd"
   xmlns:inkscape="http://www.inkscape.org/namespaces/inkscape"
   width="21.32889"
   height="16"
   viewBox="0 0 21.32889 16"
   version="1.1"
   id="svg25"
   sodipodi:docname="my.svg"
   inkscape:version="0.92.1 r">
  <metadata
     id="metadata31">
    <rdf:RDF>
      <cc:Work
         rdf:about="">
        <dc:format>image/svg+xml</dc:format>
        <dc:type
           rdf:resource="http://purl.org/dc/dcmitype/StillImage" />
        <dc:title></dc:title>
      </cc:Work>
    </rdf:RDF>
  </metadata>
  <defs
     id="defs29" />
  <sodipodi:namedview
     pagecolor="#ffffff"
     bordercolor="#666666"
     borderopacity="1"
     objecttolerance="10"
     gridtolerance="10"
     guidetolerance="10"
     inkscape:pageopacity="0"
     inkscape:pageshadow="2"
     inkscape:window-width="1920"
     inkscape:window-height="1024"
     id="namedview27"
     showgrid="false"
     fit-margin-top="0"
     fit-margin-left="0"
     fit-margin-right="0"
     fit-margin-bottom="0"
     inkscape:zoom="0.49166667"
     inkscape:cx="320"
     inkscape:cy="240.05"
     inkscape:window-x="0"
     inkscape:window-y="0"
     inkscape:window-maximized="1"
     inkscape:current-layer="svg25" />
  <path
     d="M 0,0 H 21.32889 V 16 H 0 Z"
     id="path2"
     inkscape:connector-curvature="0"
     style="fill:#cc0001;stroke-width:0.03332639" />
  <path
     d="M 0,14.85714 H 21.32889 V 16 H 0 Z"
     id="a"
     inkscape:connector-curvature="0"
     style="fill:#ffffff;stroke-width:0.03332639" />
  <use
     xlink:href="#a"
     transform="translate(0,-2.28572)"
     width="100%"
     height="100%"
     id="use5"
     x="0"
     y="0" />
  <use
     xlink:href="#a"
     transform="translate(0,-4.57138)"
     width="100%"
     height="100%"
     id="use7"
     x="0"
     y="0" />
  <use
     xlink:href="#a"
     transform="translate(0,-6.85714)"
     width="100%"
     height="100%"
     id="use9"
     x="0"
     y="0" />
  <use
     xlink:href="#a"
     transform="translate(0,-9.14286)"
     width="100%"
     height="100%"
     id="use11"
     x="0"
     y="0" />
  <use
     xlink:href="#a"
     transform="translate(0,-11.42862)"
     width="100%"
     height="100%"
     id="use13"
     x="0"
     y="0" />
  <use
     xlink:href="#a"
     transform="translate(0,-13.71428)"
     width="100%"
     height="100%"
     id="use15"
     x="0"
     y="0" />
  <path
     d="M 0,0 H 12.419246 V 9.14286 H 0 Z"
     id="path17"
     inkscape:connector-curvature="0"
     style="fill:#010066;stroke-width:0.03332639" />
  <g
     id="g23"
     transform="matrix(0.03332639,0,0,0.03332639,0,0.00167)"
     style="fill:#ffcc00">
    <path
       d="m 149.71,48.531 c -49.063,0 -88.886,39.69 -88.886,88.59 0,48.9 39.823,88.591 88.886,88.591 17.726,0 34.242,-5.187 48.113,-14.11 a 78.856,78.856 0 0 1 -25.772,4.312 c -43.506,0 -78.815,-35.192 -78.815,-78.554 0,-43.36 35.31,-78.553 78.815,-78.553 9.615,0 18.825,1.717 27.346,4.863 C 185.21,54.115 168.109,48.531 149.71,48.531 Z"
       id="path19"
       inkscape:connector-curvature="0" />
    <path
       d="m 297.115,183.24 -37.441,-19.535 11.07,39.98 -25.043,-33.444 -7.813,40.706 -7.684,-40.729 -25.148,33.369 11.197,-39.947 -37.503,19.422 27.86,-31.253 -42.43,1.63 39.004,-16.37 -38.952,-16.486 42.424,1.757 -27.76,-31.337 37.44,19.535 -11.07,-39.98 25.043,33.444 7.813,-40.706 7.684,40.729 25.148,-33.369 -11.196,39.947 37.503,-19.422 -27.86,31.253 42.43,-1.63 -39.005,16.37 38.953,16.486 -42.425,-1.757 z"
       id="path21"
       inkscape:connector-curvature="0" />
  </g>
</svg>
