<?xml version="1.0" encoding="UTF-8" standalone="no"?>
<svg
   xmlns:dc="http://purl.org/dc/elements/1.1/"
   xmlns:cc="http://creativecommons.org/ns#"
   xmlns:rdf="http://www.w3.org/1999/02/22-rdf-syntax-ns#"
   xmlns:svg="http://www.w3.org/2000/svg"
   xmlns="http://www.w3.org/2000/svg"
   xmlns:xlink="http://www.w3.org/1999/xlink"
   xmlns:sodipodi="http://sodipodi.sourceforge.net/DTD/sodipodi-0.dtd"
   xmlns:inkscape="http://www.inkscape.org/namespaces/inkscape"
   height="16"
   width="21.333332"
   viewBox="0 0 21.333332 16"
   version="1.1"
   id="svg201"
   sodipodi:docname="ni.svg"
   inkscape:version="0.92.1 r">
  <metadata
     id="metadata205">
    <rdf:RDF>
      <cc:Work
         rdf:about="">
        <dc:format>image/svg+xml</dc:format>
        <dc:type
           rdf:resource="http://purl.org/dc/dcmitype/StillImage" />
        <dc:title></dc:title>
      </cc:Work>
    </rdf:RDF>
  </metadata>
  <sodipodi:namedview
     pagecolor="#ffffff"
     bordercolor="#666666"
     borderopacity="1"
     objecttolerance="10"
     gridtolerance="10"
     guidetolerance="10"
     inkscape:pageopacity="0"
     inkscape:pageshadow="2"
     inkscape:window-width="1920"
     inkscape:window-height="1024"
     id="namedview203"
     showgrid="false"
     fit-margin-top="0"
     fit-margin-left="0"
     fit-margin-right="0"
     fit-margin-bottom="0"
     inkscape:zoom="0.49166667"
     inkscape:cx="320"
     inkscape:cy="240"
     inkscape:window-x="0"
     inkscape:window-y="0"
     inkscape:window-maximized="1"
     inkscape:current-layer="svg201" />
  <defs
     id="defs43">
    <linearGradient
       y2="283.42001"
       x2="500.62601"
       y1="289.05499"
       x1="498.73801"
       gradientUnits="userSpaceOnUse"
       id="f">
      <stop
         offset="0"
         stop-color="#510000"
         id="stop2" />
      <stop
         offset=".3"
         stop-color="#8a0000"
         id="stop4" />
      <stop
         offset="1"
         stop-color="#a00"
         id="stop6" />
    </linearGradient>
    <linearGradient
       y2="287.44901"
       x2="502.927"
       y1="291.37299"
       x1="501.444"
       gradientUnits="userSpaceOnUse"
       id="g">
      <stop
         offset="0"
         stop-color="#ff2a2a"
         id="stop9" />
      <stop
         offset="1"
         stop-color="red"
         id="stop11" />
    </linearGradient>
    <linearGradient
       y2="317.647"
       x2="484.76401"
       y1="311.70901"
       x1="484.76401"
       gradientUnits="userSpaceOnUse"
       id="b">
      <stop
         offset="0"
         stop-color="#F5F549"
         id="stop14" />
      <stop
         offset="1"
         stop-color="#97C924"
         id="stop16" />
    </linearGradient>
    <linearGradient
       id="a">
      <stop
         offset="0"
         stop-color="#025"
         id="stop19" />
      <stop
         offset=".5"
         stop-color="#04a"
         id="stop21" />
      <stop
         offset="1"
         stop-color="#025"
         id="stop23" />
    </linearGradient>
    <linearGradient
       y2="317.48599"
       x2="634.41101"
       y1="317.48599"
       x1="444.509"
       gradientUnits="userSpaceOnUse"
       xlink:href="#a"
       id="h" />
    <clipPath
       id="c">
      <path
         d="m 500,226.375 -63.702,110.332 h 127.4 z"
         id="path27"
         inkscape:connector-curvature="0" />
    </clipPath>
    <linearGradient
       xlink:href="#a"
       id="o"
       gradientUnits="userSpaceOnUse"
       x1="444.509"
       y1="317.48599"
       x2="634.41101"
       y2="317.48599" />
    <linearGradient
       xlink:href="#a"
       id="p"
       gradientUnits="userSpaceOnUse"
       x1="444.509"
       y1="317.48599"
       x2="634.41101"
       y2="317.48599" />
    <linearGradient
       xlink:href="#a"
       id="q"
       gradientUnits="userSpaceOnUse"
       x1="444.509"
       y1="317.48599"
       x2="634.41101"
       y2="317.48599" />
    <linearGradient
       xlink:href="#a"
       id="r"
       gradientUnits="userSpaceOnUse"
       x1="444.509"
       y1="317.48599"
       x2="634.41101"
       y2="317.48599" />
    <linearGradient
       xlink:href="#b"
       id="u"
       gradientUnits="userSpaceOnUse"
       x1="484.76401"
       y1="311.70901"
       x2="484.76401"
       y2="317.647" />
    <linearGradient
       xlink:href="#a"
       id="x"
       gradientTransform="scale(4.45715,0.22436)"
       x1="98.901001"
       y1="1440.155"
       x2="124.971"
       y2="1440.155"
       gradientUnits="userSpaceOnUse" />
    <linearGradient
       xlink:href="#a"
       id="j"
       gradientUnits="userSpaceOnUse"
       x1="444.509"
       y1="317.48599"
       x2="634.41101"
       y2="317.48599" />
    <linearGradient
       xlink:href="#a"
       id="l"
       gradientUnits="userSpaceOnUse"
       x1="444.509"
       y1="317.48599"
       x2="634.41101"
       y2="317.48599" />
    <linearGradient
       xlink:href="#a"
       id="m"
       gradientUnits="userSpaceOnUse"
       x1="444.509"
       y1="317.48599"
       x2="634.41101"
       y2="317.48599" />
    <linearGradient
       xlink:href="#a"
       id="i"
       gradientUnits="userSpaceOnUse"
       x1="444.509"
       y1="317.48599"
       x2="634.41101"
       y2="317.48599" />
    <linearGradient
       xlink:href="#b"
       id="s"
       gradientUnits="userSpaceOnUse"
       x1="484.76401"
       y1="311.70901"
       x2="484.76401"
       y2="317.647" />
    <linearGradient
       xlink:href="#b"
       id="v"
       gradientUnits="userSpaceOnUse"
       x1="484.76401"
       y1="311.70901"
       x2="484.76401"
       y2="317.647" />
    <linearGradient
       xlink:href="#a"
       id="y"
       gradientUnits="userSpaceOnUse"
       gradientTransform="scale(9.12405,0.1096)"
       x1="47.855"
       y1="3054.2141"
       x2="61.744999"
       y2="3054.2141" />
    <linearGradient
       inkscape:collect="always"
       xlink:href="#a"
       id="linearGradient221"
       gradientUnits="userSpaceOnUse"
       x1="444.509"
       y1="317.48599"
       x2="634.41101"
       y2="317.48599" />
    <linearGradient
       inkscape:collect="always"
       xlink:href="#a"
       id="linearGradient223"
       gradientUnits="userSpaceOnUse"
       x1="444.509"
       y1="317.48599"
       x2="634.41101"
       y2="317.48599" />
    <linearGradient
       inkscape:collect="always"
       xlink:href="#a"
       id="linearGradient225"
       gradientUnits="userSpaceOnUse"
       x1="444.509"
       y1="317.48599"
       x2="634.41101"
       y2="317.48599" />
    <linearGradient
       inkscape:collect="always"
       xlink:href="#a"
       id="linearGradient227"
       gradientUnits="userSpaceOnUse"
       x1="444.509"
       y1="317.48599"
       x2="634.41101"
       y2="317.48599" />
    <linearGradient
       inkscape:collect="always"
       xlink:href="#b"
       id="linearGradient229"
       gradientUnits="userSpaceOnUse"
       x1="484.76401"
       y1="311.70901"
       x2="484.76401"
       y2="317.647" />
    <linearGradient
       inkscape:collect="always"
       xlink:href="#b"
       id="linearGradient231"
       gradientUnits="userSpaceOnUse"
       x1="484.76401"
       y1="311.70901"
       x2="484.76401"
       y2="317.647" />
    <linearGradient
       inkscape:collect="always"
       xlink:href="#a"
       id="linearGradient233"
       gradientUnits="userSpaceOnUse"
       gradientTransform="scale(9.12405,0.1096)"
       x1="47.855"
       y1="3054.2141"
       x2="61.744999"
       y2="3054.2141" />
  </defs>
  <path
     d="M 0,0 H 21.333333 V 16 H 0 Z"
     id="path45"
     inkscape:connector-curvature="0"
     style="fill:#0067c6;stroke-width:0.03333334" />
  <path
     d="m 0,5.33333 h 21.333333 v 5.33334 H 0 Z"
     id="path47"
     inkscape:connector-curvature="0"
     style="fill:#ffffff;stroke-width:0.03333334" />
  <path
     d="m 8.2666667,7.9821 0.2661,0.0178 c 9e-4,-0.013 0.00167,-0.0259 0.00267,-0.0389 L 8.4307701,7.954 c 0.0026,-0.0427 0.00617,-0.0854 0.00807,-0.12823 0.037,-0.0268 0.074067,-0.0535 0.111,-0.0805 l 0.00327,-0.0493 -0.117,0.085 c -0.004,-0.0277 -0.019267,-0.0562 -0.0471,-0.0658 -0.024333,-0.009 -0.054167,-0.0103 -0.075267,0.007 -0.026767,0.0197 -0.031567,0.0549 -0.035,0.0856 -0.00467,0.0581 -0.008,0.11627 -0.012067,0.17434 z m 0.040533,-0.0363 c 0.0032,-0.0437 0.00517,-0.0874 0.00933,-0.131 0.00333,-0.0216 0.00727,-0.0465 0.026133,-0.0602 0.017,-0.0113 0.042233,-0.003 0.049233,0.0163 0.0139,0.0333 0.00773,0.07 0.00593,0.10483 l -0.005,0.0758 -0.085667,-0.006 z m -0.00587,-0.37227 c 0.086533,0.0202 0.1731,0.0404 0.2596667,0.0607 l 0.059,-0.2528 c -0.012333,-0.003 -0.0246,-0.006 -0.0369,-0.009 l -0.0502,0.215 -0.079,-0.0185 c 0.015,-0.0646 0.0301,-0.1292 0.0452,-0.19376 l -0.036667,-0.009 -0.045333,0.19373 -0.0699,-0.0163 0.048333,-0.20694 -0.0371,-0.009 c -0.019,0.0816 -0.038067,0.16313 -0.057133,0.24466 z M 8.3948627,7.2248 8.6467293,7.3124 8.6594963,7.2756 c -0.033,-0.0115 -0.066,-0.023 -0.099067,-0.0344 0.012933,-0.0381 0.0271,-0.0758 0.039,-0.11424 0.00853,-0.0314 0.0151,-0.0681 -0.00333,-0.0973 -0.015,-0.0216 -0.041667,-0.0354 -0.068,-0.0346 -0.029,0.001 -0.052667,0.0226 -0.065567,0.0473 -0.019,0.0358 -0.029667,0.0752 -0.043567,0.11307 l -0.024133,0.0693 z m 0.048667,-0.0243 c 0.013467,-0.0378 0.025667,-0.076 0.040233,-0.11343 0.0091,-0.02 0.020167,-0.0437 0.043133,-0.05 0.0189,-0.004 0.038667,0.0102 0.040333,0.0296 0.00467,0.0356 -0.010933,0.0692 -0.021867,0.10233 l -0.020767,0.0597 -0.081,-0.0282 z M 8.534,6.9022 c 0.047467,0.0276 0.094533,0.0558 0.1423333,0.0829 0.0269,0.0145 0.061067,0.0228 0.089233,0.007 0.038433,-0.0213 0.0625,-0.0605 0.081333,-0.0988 0.0149,-0.0323 0.025667,-0.0723 0.00673,-0.10534 -0.020433,-0.033 -0.057533,-0.0481 -0.0892,-0.0678 l -0.0922,-0.0539 c -0.0065,0.0112 -0.013,0.0223 -0.019567,0.0335 0.045233,0.0266 0.090733,0.0527 0.1356666,0.0797 0.021533,0.0131 0.039333,0.0368 0.035667,0.0631 -0.00427,0.0314 -0.022233,0.059 -0.040133,0.0843 -0.014733,0.0206 -0.039533,0.0372 -0.065833,0.0317 -0.0274,-0.005 -0.049667,-0.0232 -0.0738,-0.0362 l -0.090667,-0.053 c -0.0065,0.0111 -0.013,0.0223 -0.019567,0.0334 z m 0.1920667,-0.31387 0.2117666,0.162 c 0.032867,-0.0429 0.0656,-0.0859 0.098667,-0.1286 0.019,-0.0272 0.0365,-0.0627 0.023667,-0.0961 -0.011667,-0.0267 -0.0391,-0.0472 -0.068467,-0.0486 -0.013233,-0.002 -0.030533,0.008 -0.037667,0.0127 0.0075,-0.0284 -0.015767,-0.0552 -0.042,-0.0627 -0.031467,-0.0112 -0.063433,0.009 -0.084267,0.0314 -0.024567,0.0267 -0.045067,0.0568 -0.0675,0.0852 l -0.034167,0.0447 z m 0.053667,-0.008 c 0.024833,-0.0317 0.048267,-0.0645 0.074233,-0.0953 0.012067,-0.0134 0.031433,-0.0287 0.050167,-0.0188 0.017067,0.007 0.021267,0.0289 0.013133,0.0444 -0.013,0.0277 -0.034333,0.0502 -0.052167,0.0748 -0.00967,0.0127 -0.019333,0.0253 -0.029067,0.038 -0.0188,-0.0143 -0.037567,-0.0287 -0.056333,-0.0431 z m 0.086333,0.0661 c 0.025667,-0.0329 0.049933,-0.067 0.077067,-0.0987 0.013833,-0.0145 0.031267,-0.0328 0.053233,-0.0286 0.018833,0.004 0.0325,0.0247 0.026,0.0437 -0.010567,0.0349 -0.036667,0.0616 -0.057667,0.0905 l -0.033133,0.0433 -0.065467,-0.0501 z M 8.9661667,6.3055 9.1493,6.49933 9.3061333,6.3511 l -0.026,-0.0275 -0.1255,0.11854 -0.00323,0.003 -0.00233,-0.002 L 8.9943,6.27883 Z M 9.2009333,6.1001 9.3634667,6.3115 9.3951997,6.2871 9.232633,6.0757 Z M 9.4397667,5.9379 c -0.026333,0.0164 -0.0476,0.0356 -0.063933,0.058 -0.016333,0.0223 -0.0251,0.0457 -0.0264,0.0699 -0.00127,0.0243 0.00523,0.0479 0.019567,0.0709 a 0.1372,0.1372 0 0 0 0.052667,0.0492 0.11966667,0.11966667 0 0 0 0.071333,0.0131 c 0.0258,-0.003 0.054867,-0.0143 0.087233,-0.0345 0.031067,-0.0193 0.0531,-0.0417 0.066667,-0.0673 0.013,-0.0246 0.016667,-0.0507 0.0111,-0.0786 L 9.6211337,6.033 c 0.00967,0.0533 -0.024733,0.0789 -0.0632,0.10333 -0.060233,0.0367 -0.1189333,0.034 -0.1549,-0.0211 -0.037267,-0.0621 0.0035,-0.11334 0.054733,-0.14667 C 9.4941,5.94593 9.53,5.9304 9.5641,5.95213 L 9.592967,5.92643 A 0.1065,0.1065 0 0 0 9.524834,5.90773 c -0.027,0.002 -0.055167,0.0114 -0.085,0.0301 z m 0.3151,-0.15727 -0.0279,0.29883 0.0415,-0.0167 0.0084,-0.0927 H 9.777 l 0.1349333,-0.0544 0.070333,0.0609 0.0415,-0.0168 -0.2273328,-0.19587 -0.041567,0.0167 z m 0.0365,0.0307 0.088667,0.0767 -0.099267,0.04 0.010667,-0.11677 z m 0.5479663,-0.1955 0.01667,0.26613 c 0.04813,-0.003 0.09633,-0.005 0.144333,-0.009 0.03783,-0.004 0.0784,-0.0141 0.104267,-0.0442 0.03333,-0.037 0.0381,-0.0923 0.0235,-0.13834 -0.01227,-0.0406 -0.04873,-0.0712 -0.09,-0.079 -0.04067,-0.008 -0.08213,-0.002 -0.123067,2e-4 l -0.07567,0.005 z m 0.04107,0.0354 c 0.03833,-0.002 0.07657,-0.006 0.114933,-0.006 a 0.098,0.098 0 0 1 0.061,0.0187 c 0.02667,0.0183 0.04233,0.0511 0.03887,0.0833 -0.0019,0.0371 -0.02917,0.0712 -0.0652,0.0806 -0.0206,0.005 -0.042,0.007 -0.0631,0.009 l -0.0746,0.005 c -0.004,-0.0635 -0.008,-0.12694 -0.01193,-0.1904 z M 10.711,5.6 c -0.005,0.0887 -0.0101,0.1775 -0.01517,0.26623 l 0.2591,0.0148 0.0022,-0.0378 c -0.07347,-0.004 -0.146933,-0.008 -0.220433,-0.0126 l 0.0047,-0.0811 c 0.06617,0.004 0.1324,0.008 0.1986,0.0113 l 0.0022,-0.0377 c -0.06623,-0.004 -0.132433,-0.008 -0.198667,-0.0113 0.0013,-0.0239 0.0028,-0.0478 0.0041,-0.0717 0.07073,0.004 0.141467,0.008 0.212167,0.0121 l 0.0022,-0.038 -0.250866,-0.0143 z m 0.696333,0.1111 -0.09647,0.2486 0.03433,0.0133 0.07643,-0.1971 0.0039,-0.0102 0.0043,0.0113 0.09193,0.26454 0.04493,0.0174 0.09643,-0.2486 -0.0344,-0.0133 -0.0764,0.197 -0.0039,0.0101 -0.0042,-0.0113 -0.0921,-0.26434 z m 0.3582,0.1539 -0.1212,0.2375 -0.03567,-0.0182 0.121266,-0.23753 z m 0.201134,0.11783 c -0.02587,-0.0171 -0.05217,-0.0284 -0.07933,-0.0339 -0.02713,-0.006 -0.052,-0.004 -0.0746,0.005 -0.02267,0.009 -0.04133,0.0247 -0.05623,0.0473 a 0.1372,0.1372 0 0 0 -0.02267,0.0684 c -0.0015,0.0248 0.0043,0.048 0.0178,0.0703 0.01333,0.0222 0.0358,0.0438 0.06767,0.0649 0.03053,0.0202 0.06,0.0309 0.089,0.0325 a 0.11486667,0.11486667 0 0 0 0.076,-0.0227 l -0.0285,-0.0275 c -0.0444,0.0311 -0.082,0.0105 -0.120267,-0.0143 -0.05843,-0.0394 -0.0805,-0.0939 -0.0455,-0.1495 0.04087,-0.0598 0.104467,-0.0442 0.156134,-0.0115 0.0358,0.0236 0.06483,0.0497 0.05933,0.0898 l 0.03543,0.0155 c 0.0041,-0.0238 4.67e-4,-0.047 -0.01153,-0.0698 -0.0126,-0.0239 -0.0334,-0.0453 -0.06277,-0.0647 z m 0.253933,0.1915 -0.278767,0.1112 0.0338,0.0293 0.08633,-0.0347 10e-5,1.3e-4 0.109833,0.0953 -0.02223,0.0903 0.03383,0.0293 0.0709,-0.29166 -0.03383,-0.0293 z m -0.01067,0.0464 -0.028,0.1139 -0.0808,-0.0702 z m 0.212067,0.1389 -0.205767,0.16966 0.02477,0.03 0.08093,-0.0667 c 0.02743,0.0329 0.05413,0.0664 0.08213,0.0988 -0.0086,0.0449 -0.01717,0.0898 -0.0255,0.13466 l 0.0314,0.0381 c 0.0089,-0.0474 0.01787,-0.0948 0.0268,-0.14214 0.023,0.0189 0.05673,0.0283 0.08427,0.0134 0.02367,-0.0112 0.04453,-0.0327 0.04577,-0.0602 0.0029,-0.0367 -0.02333,-0.0665 -0.04433,-0.0938 -0.03347,-0.0407 -0.067,-0.0813 -0.1005,-0.1219 z m -0.0045,0.0542 c 0.0288,0.0356 0.059,0.07 0.08657,0.10666 0.01267,0.0188 0.0285,0.0453 0.014,0.0673 -0.012,0.0189 -0.03833,0.0172 -0.0544,0.005 -0.03267,-0.022 -0.05423,-0.0557 -0.07973,-0.0849 l -0.0326,-0.0396 0.0662,-0.0546 z m 0.316466,0.37013 -0.2998,0.0138 0.02233,0.0388 0.09293,-0.005 6.7e-5,1.6e-4 0.07257,0.126 -0.05057,0.0781 0.02233,0.0388 0.1625,-0.25234 -0.02233,-0.0388 z m -0.02527,0.0404 -0.06373,0.0984 -0.0534,-0.0928 z M 12.905,7.137 C 12.88833,7.0918 12.86207,7.0454 12.81757,7.0228 12.76807,6.9979 12.70217,7.01 12.66707,7.0536 c -0.0306,0.0362 -0.03217,0.0875 -0.024,0.132 0.0097,0.0512 0.0331,0.0999 0.06833,0.13834 -0.0067,0.002 -0.01327,0.005 -0.0199,0.007 l 0.01277,0.0355 c 0.04167,-0.015 0.08327,-0.03 0.1249,-0.0449 -0.0162,-0.045 -0.03233,-0.0899 -0.04857,-0.1349 -0.0097,0.003 -0.01923,0.007 -0.02887,0.0103 l 0.03573,0.0995 c -0.0141,0.005 -0.0282,0.0101 -0.04233,0.0152 -0.03733,-0.0321 -0.05813,-0.0795 -0.069,-0.1266 -0.008,-0.0354 -0.0083,-0.0778 0.01853,-0.10566 0.0308,-0.032 0.08533,-0.0419 0.122333,-0.0147 0.03643,0.0267 0.057,0.07 0.0674,0.11293 0.0071,0.0283 0.006,0.0619 -0.01547,0.0839 -0.006,0.005 0.0035,0.0108 0.0051,0.0161 l 0.0102,0.0168 a 0.0941,0.0941 0 0 0 0.0358,-0.0746 c 7.66e-4,-0.0284 -0.0055,-0.0566 -0.015,-0.0832 z m 0.07667,0.20827 -0.149167,0.029 c -0.02767,0.005 -0.04843,0.0142 -0.06227,0.0258 -0.0138,0.0117 -0.02267,0.0281 -0.0269,0.0499 -0.0042,0.0216 -0.0036,0.0481 0.0026,0.0803 a 0.00656667,0.00656667 0 0 1 1.33e-4,7.4e-4 c 0.0063,0.0322 0.01573,0.057 0.02777,0.0754 0.01213,0.0187 0.02647,0.0306 0.04367,0.0362 0.01717,0.006 0.03967,0.006 0.06733,6e-4 l 0.149167,-0.029 -0.0074,-0.0381 -0.145534,0.0283 c -0.06533,0.0127 -0.08733,-0.0217 -0.09857,-0.0805 l -1.34e-4,-7.3e-4 c -0.01167,-0.0588 -0.0042,-0.0989 0.06117,-0.1116 l 0.145533,-0.0283 -0.0073,-0.038 z m 0.08177,0.45386 -0.275933,-0.118 0.0032,0.0447 0.08567,0.0363 v 1.7e-4 l 0.01047,0.145 -0.0795,0.0483 0.0033,0.0447 0.256067,-0.15657 -0.0032,-0.0447 z m -0.04033,0.0253 -0.100167,0.0609 -0.0077,-0.10677 z m -4.5497667,0.66446 -0.038667,0.0102 0.0428,0.16247 0.038667,-0.0102 z m 4.3875337,0 0.03867,0.0102 -0.04273,0.16247 -0.03867,-0.0102 z M 8.8858,9.173 8.5876333,9.2073 l 0.0249,0.0372 0.0924,-0.0109 L 8.705,9.23374 8.786,9.3545 8.740933,9.4358 8.765866,9.473 8.910666,9.21013 8.885733,9.17293 Z M 8.863333,9.2151 8.806533,9.31766 8.746866,9.22876 8.8633326,9.21506 Z m 0.1366,0.12086 -0.1900666,0.17774 0.025333,0.0271 0.1602,-0.14977 -0.084,0.23124 0.0291,0.0311 0.2296667,-0.0697 -0.1573334,0.14707 0.0254,0.0271 0.19,-0.17773 -0.0385,-0.0412 -0.2333333,0.0697 0.087333,-0.2258 z m 0.2768,0.2824 -0.1604,0.21307 0.2073334,0.15613 0.0228,-0.0303 L 9.170133,9.82442 9.218933,9.75962 9.3778664,9.87929 9.4005334,9.84919 9.2416,9.7295 9.2848,9.6721 c 0.0566,0.0427 0.1131667,0.0852 0.1697667,0.12783 l 0.0229,-0.0304 -0.2007334,-0.15116 z m 0.2609334,0.191 -0.1256,0.23527 0.034333,0.0183 0.0494,-0.0925 c 0.0379,0.02 0.075333,0.0408 0.1136,0.0601 0.0092,0.0448 0.018333,0.0895 0.027733,0.13424 l 0.043567,0.0233 -0.029333,-0.14156 c 0.028533,0.009 0.063267,0.005 0.083,-0.0197 0.016833,-0.0188 0.028233,-0.0451 0.0202,-0.0703 -0.00933,-0.0348 -0.043567,-0.053 -0.072467,-0.0698 -0.048067,-0.0259 -0.096333,-0.0514 -0.1444,-0.0772 z m 0.016433,0.0519 c 0.0402,0.0219 0.081333,0.0423 0.1206667,0.0657 0.018267,0.0123 0.041433,0.0291 0.039133,0.054 -0.002,0.0218 -0.025533,0.0334 -0.045433,0.0288 -0.0389,-0.006 -0.071733,-0.0297 -0.1064,-0.047 l -0.048333,-0.0258 0.040333,-0.0757 z m 0.2847667,0.10563 -0.1007667,0.2469 0.037,0.0151 0.1008,-0.2469 z m 0.2404659,0.0831 c -0.02947,-0.01 -0.0578,-0.0139 -0.085466,-0.0121 -0.0276,0.002 -0.051133,0.01 -0.070667,0.0244 -0.0195,0.0145 -0.033467,0.0346 -0.042,0.0603 a 0.1372,0.1372 0 0 0 -0.0042,0.0719 c 0.005,0.0243 0.016733,0.0452 0.0355,0.0633 0.018667,0.018 0.046,0.0331 0.082167,0.0451 0.034766,0.0115 0.066,0.0142 0.0944,0.008 a 0.11483333,0.11483333 0 0 0 0.06757,-0.0417 l -0.03473,-0.0191 c -0.0348,0.0415 -0.07647,0.0314 -0.119867,0.0174 -0.066666,-0.023 -0.1020993,-0.0698 -0.082733,-0.13267 0.023933,-0.0683 0.089433,-0.0697 0.147767,-0.0516 0.04067,0.0135 0.07553,0.0311 0.08067,0.0712 l 0.0382,0.006 a 0.1064,0.1064 0 0 0 -0.02923,-0.0643 c -0.01833,-0.0198 -0.044,-0.0351 -0.07743,-0.0462 z m 0.2681,0.06 -0.1744,0.24424 0.04433,0.006 0.05387,-0.0758 h 2e-4 l 0.143934,0.0208 0.03013,0.088 0.04433,0.006 -0.098,-0.28367 -0.04433,-0.006 z m 0.01613,0.0448 0.038,0.11094 -0.1059,-0.0153 z m 0.608966,-0.0429 c -0.03047,0.006 -0.05717,0.0162 -0.08047,0.0313 -0.02323,0.015 -0.0398,0.0336 -0.04967,0.0558 -0.0099,0.0223 -0.01233,0.0466 -0.0072,0.0732 0.0047,0.0244 0.01533,0.046 0.0316,0.0648 0.01623,0.0188 0.03673,0.0313 0.0619,0.0378 0.02507,0.007 0.05633,0.006 0.09373,-9e-4 0.036,-0.007 0.0645,-0.0199 0.08633,-0.039 a 0.11483333,0.11483333 0 0 0 0.03857,-0.0693 l -0.0396,2.3e-4 c -0.01007,0.0532 -0.05133,0.0648 -0.096,0.0738 -0.06933,0.0127 -0.1232,-0.0109 -0.137067,-0.0751 -0.01257,-0.0713 0.04383,-0.10457 0.103667,-0.11733 0.042,-0.008 0.08107,-0.01 0.105133,0.0227 l 0.03617,-0.0137 a 0.1061,0.1061 0 0 0 -0.057,-0.0418 c -0.02567,-0.008 -0.05557,-0.009 -0.09013,-0.002 z m 0.178067,-0.0315 c 0.02533,0.0852 0.05057,0.17043 0.07587,0.25566 0.08293,-0.0247 0.165866,-0.0492 0.248833,-0.0738 -0.0037,-0.0121 -0.0072,-0.0242 -0.01083,-0.0363 l -0.211667,0.0628 c -0.0077,-0.0259 -0.01533,-0.0519 -0.02307,-0.0778 0.06357,-0.0189 0.127167,-0.0377 0.190734,-0.0566 l -0.01073,-0.0362 -0.190733,0.0566 -0.0204,-0.0688 0.203733,-0.0605 -0.01083,-0.0365 -0.2409,0.0715 z m 0.2885,-0.0907 c 0.03733,0.0807 0.07467,0.16133 0.111933,0.242 l 0.03343,-0.0154 -0.09333,-0.20187 c 0.08627,0.0391 0.1721,0.0794 0.2582,0.119 0.0057,0.005 0.01147,0.002 0.0172,-10e-4 l 0.03357,-0.0155 c -0.03733,-0.0807 -0.07467,-0.16133 -0.111933,-0.242 l -0.0335,0.0154 0.09327,0.2016 c -0.08867,-0.0402 -0.176766,-0.0814 -0.2652,-0.122 -0.01457,0.007 -0.0291,0.0134 -0.04367,0.0201 z m 0.292833,-0.13753 0.02087,0.0317 0.09527,-0.0627 0.0036,-0.002 0.0018,0.003 0.1239,0.18826 0.03243,-0.0213 -0.123933,-0.18823 -0.0018,-0.003 0.0037,-0.002 0.09567,-0.063 -0.02083,-0.0317 z m 0.2683,-0.18374 0.180734,0.1961 c 0.0095,-0.009 0.01907,-0.0176 0.02867,-0.0263 l -0.07113,-0.0772 c 0.03133,-0.0292 0.06333,-0.0577 0.0942,-0.0874 0.04527,0.006 0.09057,0.0122 0.135867,0.0181 l 0.03633,-0.0335 -0.143333,-0.019 c 0.01753,-0.024 0.02513,-0.0582 0.0087,-0.0849 -0.01247,-0.023 -0.0351,-0.0427 -0.06257,-0.0423 -0.03683,-9e-4 -0.06517,0.0269 -0.09123,0.0493 z m 0.0544,0.002 c 0.0339,-0.0307 0.06667,-0.0628 0.101667,-0.0923 0.01817,-0.0137 0.04377,-0.031 0.06657,-0.0177 0.01947,0.011 0.01927,0.0373 0.008,0.054 -0.0202,0.0339 -0.05267,0.0573 -0.08053,0.0844 l -0.03757,0.0347 c -0.01933,-0.0211 -0.03877,-0.0421 -0.05813,-0.0631 z m 0.255834,-0.31207 0.119333,0.2754 0.02833,-0.0347 -0.03723,-0.0852 10e-5,-1.7e-4 0.0921,-0.1126 0.09093,0.0196 0.0284,-0.0347 -0.293566,-0.0623 -0.02833,0.0347 z m 0.04673,0.009 0.114667,0.0246 -0.0678,0.0829 -0.04687,-0.1075 z m 0.0694,-0.1604 0.223767,0.1451 0.117433,-0.18106 -0.0318,-0.0207 -0.09393,0.1449 -0.0024,0.004 -0.0028,-0.002 -0.189133,-0.12267 z"
     id="path49"
     inkscape:connector-curvature="0"
     style="fill:#c8a400;stroke-width:0.03333334" />
  <g
     clip-path="url(#c)"
     transform="matrix(0.02666667,0,0,0.02666667,-2.6666667,0)"
     id="g197">
    <path
       d="m 500,226.408 -31.478,54.535 -15.42,26.702 H 546.9 L 532.185,282.161 500,226.41 Z"
       id="path51"
       inkscape:connector-curvature="0"
       style="fill:#ffffff" />
    <g
       id="e">
      <g
         id="d">
        <path
           d="m 500,226.408 -2.356,4.082 2.356,54.977 2.358,-54.977 z"
           id="path53"
           inkscape:connector-curvature="0"
           style="opacity:0.62000002;fill:#17c0eb;stroke:#17c0eb;stroke-width:0.12899999" />
        <path
           d="m 500,277.475 -0.133,0.003 0.134,3.11 0.135,-3.11 c -0.045,0 -0.09,-0.003 -0.134,-0.003 z"
           id="path55"
           inkscape:connector-curvature="0"
           style="fill:#ffffff" />
      </g>
      <use
         height="100%"
         width="100%"
         xlink:href="#d"
         transform="rotate(72,500,285.467)"
         id="use58"
         x="0"
         y="0" />
      <use
         height="100%"
         width="100%"
         xlink:href="#d"
         transform="rotate(144,500,285.467)"
         id="use60"
         x="0"
         y="0" />
      <use
         height="100%"
         width="100%"
         xlink:href="#d"
         transform="rotate(-144,500,285.467)"
         id="use62"
         x="0"
         y="0" />
      <use
         height="100%"
         width="100%"
         xlink:href="#d"
         transform="rotate(-72,500,285.467)"
         id="use64"
         x="0"
         y="0" />
    </g>
    <use
       height="100%"
       width="100%"
       xlink:href="#e"
       transform="rotate(8,500,285.467)"
       id="use67"
       x="0"
       y="0" />
    <use
       height="100%"
       width="100%"
       xlink:href="#e"
       transform="rotate(16,500,285.467)"
       id="use69"
       x="0"
       y="0" />
    <use
       height="100%"
       width="100%"
       xlink:href="#e"
       transform="rotate(24,500,285.467)"
       id="use71"
       x="0"
       y="0" />
    <use
       height="100%"
       width="100%"
       xlink:href="#e"
       transform="rotate(32,500,285.467)"
       id="use73"
       x="0"
       y="0" />
    <use
       height="100%"
       width="100%"
       xlink:href="#e"
       transform="rotate(40,500,285.467)"
       id="use75"
       x="0"
       y="0" />
    <use
       height="100%"
       width="100%"
       xlink:href="#e"
       transform="rotate(48,500,285.467)"
       id="use77"
       x="0"
       y="0" />
    <use
       height="100%"
       width="100%"
       xlink:href="#e"
       transform="rotate(56,500,285.467)"
       id="use79"
       x="0"
       y="0" />
    <use
       height="100%"
       width="100%"
       xlink:href="#e"
       transform="rotate(64,500,285.467)"
       id="use81"
       x="0"
       y="0" />
    <path
       d="m 500,265.844 a 44.236,44.236 0 0 0 -28.97,10.75 L 456.376,302 c -0.5,2.67 -0.75,5.434 -0.75,8.25 h 5.03 c 0,-21.726 17.62,-39.344 39.345,-39.344 21.727,0 39.344,17.618 39.344,39.344 h 5.03 c 0,-2.813 -0.248,-5.582 -0.75,-8.25 L 528.97,276.594 A 44.25,44.25 0 0 0 500,265.844 Z"
       id="path83"
       inkscape:connector-curvature="0"
       style="fill:#ff0000" />
    <path
       d="m 500,266.656 c -11.764,0 -22.44,4.675 -30.28,12.25 l -12.032,20.844 a 43.596,43.596 0 0 0 -1.28,10.5 h 4.25 c 0,-21.726 17.616,-39.344 39.342,-39.344 21.727,0 39.344,17.618 39.344,39.344 h 4.25 a 43.86,43.86 0 0 0 -1.28,-10.53 l -12.032,-20.814 c -7.84,-7.574 -18.518,-12.25 -30.282,-12.25 z"
       id="path85"
       inkscape:connector-curvature="0"
       style="fill:#ff6600" />
    <path
       d="m 500,267.47 c -12.702,0 -24.1,5.52 -31.938,14.31 l -8.718,15.095 a 42.733,42.733 0 0 0 -2.125,13.375 h 3.436 c 0,-21.726 17.618,-39.344 39.344,-39.344 21.726,0 39.344,17.618 39.344,39.344 h 3.437 c 0,-4.673 -0.74,-9.165 -2.124,-13.375 l -8.72,-15.095 c -7.835,-8.788 -19.236,-14.312 -31.937,-14.312 z"
       id="path87"
       inkscape:connector-curvature="0"
       style="fill:#ffff00" />
    <path
       d="m 500,268.25 c -14.55,0 -27.372,7.414 -34.906,18.656 l -2.813,4.875 a 41.818,41.818 0 0 0 -4.28,18.47 h 2.656 c 0,-21.726 17.617,-39.344 39.343,-39.344 21.726,0 39.343,17.618 39.343,39.344 H 542 a 41.82,41.82 0 0 0 -4.282,-18.437 l -2.844,-4.937 C 527.338,275.65 514.537,268.25 500,268.25 Z"
       id="path89"
       inkscape:connector-curvature="0"
       style="fill:#00ff00" />
    <path
       d="m 500,269.062 c -22.747,0 -41.188,18.44 -41.188,41.188 h 1.844 c 0,-21.727 17.618,-39.344 39.344,-39.344 21.726,0 39.344,17.617 39.344,39.344 h 1.844 c 0,-22.748 -18.44,-41.188 -41.188,-41.188 z"
       id="path91"
       inkscape:connector-curvature="0"
       style="fill:#00ccff" />
    <path
       d="m 500,269.844 c -22.306,0 -40.375,18.1 -40.375,40.406 h 1.344 c 0,-21.56 17.47,-39.03 39.03,-39.03 21.56,0 39.03,17.47 39.03,39.03 h 1.376 c 0,-22.306 -18.1,-40.406 -40.406,-40.406 z"
       id="path93"
       inkscape:connector-curvature="0"
       style="fill:#0000ff" />
    <path
       d="m 500,270.657 c -21.863,0 -39.588,17.725 -39.588,39.59 0,0.244 0.003,0.49 0.007,0.732 h 0.8 c -0.005,-0.245 -0.007,-0.49 -0.007,-0.734 0,-21.422 17.366,-38.788 38.788,-38.788 21.423,0 38.79,17.366 38.79,38.788 0,0.245 -0.003,0.49 -0.008,0.733 h 0.797 c 0.003,-0.244 0.006,-0.49 0.006,-0.734 0,-21.864 -17.72,-39.59 -39.585,-39.59 z"
       id="path95"
       inkscape:connector-curvature="0"
       style="fill:#800080" />
    <g
       id="g111">
      <path
         d="m 500.395,288.134 c -0.644,-0.124 -1.226,-0.484 -1.775,-0.61 -0.756,0.725 -0.835,1.457 -0.73,2.08 0.26,0.14 0.31,0.353 0.877,0.86 0.567,0.507 0.496,0.773 0.462,1.965 -0.016,0.502 0.07,1.58 0.578,1.68 0.548,0.11 0.932,-0.345 1.09,-1.16 0.152,-0.79 0.417,-1.215 0.698,-1.7 0.306,-1.853 -0.193,-2.51 -1.2,-3.116 z"
         id="path97"
         inkscape:connector-curvature="0"
         style="fill:#510000" />
      <path
         d="m 497.168,283.524 c -0.595,0.015 -1.528,1.012 -1.943,0.475 -0.24,-0.31 -0.28,-0.903 -0.037,-1.4 0.56,-1.152 1.124,-1.717 2.167,-2.33 2.378,-1.402 3.89,-0.952 5.074,1.062 1.097,1.772 2.15,3.73 2.245,5.37 0.03,0.502 0.283,1.41 -0.156,1.86 -1.35,1.39 -4.597,-1.434 -6.498,-0.987 -0.64,0.15 -1.377,0.617 -1.98,0.218 -0.47,-0.31 -0.078,-0.997 0.272,-1.294 0.612,-0.52 1.5,-2.366 1.38,-3.166 -0.067,-0.446 -0.08,0.18 -0.526,0.19 z"
         id="path99"
         inkscape:connector-curvature="0"
         style="fill:#ff0000" />
      <path
         d="m 496.927,282.548 c -1.083,0.445 -0.966,1.076 -1.51,1.59 0.154,0.058 0.766,0.31 1.364,-0.3 0.26,-0.215 0.55,-0.294 0.678,-0.363 -0.305,0.22 -0.523,0.554 -0.684,0.684 -0.404,0.328 -1.034,1.082 -1.34,1.845 -0.307,0.764 -0.43,1.673 -0.376,1.782 0.056,0.11 0.426,0.78 1.566,1.232 2.03,0.806 2.417,2.438 4.477,2.438 1.615,0 1.356,-1.056 2.647,-0.832 1.12,0.194 1.714,-0.696 0.636,-1.232 -1.37,-0.468 -4.092,-0.192 -5.372,0.033 -0.413,-4.083 -0.055,-2.65 -0.15,-4.405 -0.098,-1.755 -0.624,-1.86 0.07,-3.28 -0.577,0.87 -1.276,0.733 -2.003,0.806 z"
         id="path101"
         style="fill:url(#f)"
         inkscape:connector-curvature="0" />
      <path
         d="m 500.938,279.795 c -0.04,0.223 -0.077,0.516 -0.056,0.6 0.087,0.34 0.175,0.693 0.278,0.994 0.115,0.335 0.162,0.578 0.24,0.927 0.082,0.36 0.4,0.5 0.694,0.722 0.37,0.28 0.084,1.036 0.315,1.067 0.183,0.025 0.487,-1.07 0.49,-1.246 0,-0.236 -0.002,-0.426 -0.038,-0.646 a 15.3,15.3 0 0 0 -0.426,-0.872 c -0.002,-0.004 -0.007,-0.006 -0.01,-0.01 a 3.652,3.652 0 0 0 -0.193,-0.327 4.204,4.204 0 0 0 -0.786,-0.863 c -0.02,-0.015 -0.037,-0.032 -0.056,-0.047 a 3.936,3.936 0 0 0 -0.258,-0.187 c -0.062,-0.04 -0.13,-0.076 -0.194,-0.113 z"
         id="path103"
         inkscape:connector-curvature="0"
         style="fill:#ff2a2a" />
      <path
         d="m 501.25,287.398 c -0.72,-0.188 -1.427,-0.543 -2.038,-0.725 -1.2,-0.36 -2.48,-1.134 -3.366,-0.814 -0.317,0.14 -0.29,0.455 -0.39,0.91 -0.042,0.532 -0.596,1.318 -0.136,1.06 0.685,-0.382 2.49,0.734 3.095,1.107 0.287,0.177 0.892,0.524 1.082,1.022 0.19,0.497 0.092,1.755 0.04,2.295 -0.052,0.566 0.12,1.835 0.687,1.987 0.61,0.163 1.078,-0.323 1.316,-1.23 0.23,-0.88 0.405,-1.387 0.757,-1.915 0.352,-0.528 0.756,-0.756 1.32,-0.863 0.564,-0.106 1.382,0.462 1.382,-0.203 0,-0.436 -0.385,-0.854 -0.22,-1.453 0.127,-0.472 -0.403,-0.378 -0.843,-0.572 -1.036,-0.32 -1.97,-0.42 -2.688,-0.607 z"
         id="path105"
         style="fill:url(#g)"
         inkscape:connector-curvature="0" />
      <path
         d="m 498.363,288.902 c -0.327,-0.178 -2.315,-1.478 -3.043,-1.07 -0.23,0.127 -0.317,-0.017 -0.32,-0.258 -0.004,-0.24 0.11,-0.594 0.184,-0.866 0.074,-0.273 0.195,-0.792 0.516,-1.062 0.687,-0.58 2.27,0.575 3.108,0.886 -0.072,0.436 -0.47,2.356 -0.445,2.37 z"
         id="path107"
         inkscape:connector-curvature="0"
         style="fill:#910000" />
      <path
         d="m 501.763,291.36 c 0.916,-1.602 1.508,-1.396 2.613,-1.373 0.37,0.008 0.477,-0.33 0.393,-0.667 -0.28,0.624 -1.663,-0.07 -2.416,0.263 -1.573,0.692 -1.28,3.77 -2.027,4.07 0.776,0.65 1.124,-1.746 1.436,-2.292 z"
         id="path109"
         inkscape:connector-curvature="0"
         style="fill:#ff3a3a" />
    </g>
    <g
       id="g129"
       style="fill:url(#h)">
      <path
         d="m 453.103,307.645 -9.955,17.237 H 556.856 L 546.9,307.645 Z"
         id="path113"
         inkscape:connector-curvature="0"
         style="fill:#ffffff" />
      <g
         id="n"
         style="fill:url(#linearGradient227)">
        <path
           id="k"
           d="m 449.705,321.364 c -1.658,0 -3.197,0.167 -4.71,0.353 l -0.486,0.846 c 2.432,-0.216 4.696,-0.65 7.14,-0.71 3.292,0.08 6.282,0.83 9.785,0.83 1.518,0.015 3.027,-0.03 4.526,0 3.5,0 6.49,-0.75 9.784,-0.83 3.295,0.08 6.304,0.83 9.803,0.83 1.518,0.005 3.178,-0.023 4.53,0 3.5,0 6.474,-0.75 9.765,-0.83 3.293,0.08 6.27,0.83 9.77,0.83 1.53,0.015 3.032,-0.03 4.542,0 3.5,0 6.49,-0.75 9.787,-0.83 3.297,0.08 6.282,0.83 9.783,0.83 1.516,0.015 3.03,-0.03 4.53,0 3.5,0 6.475,-0.75 9.765,-0.83 2.55,0.063 4.92,0.52 7.486,0.725 l -0.515,-0.893 c -1.404,-0.168 -2.836,-0.32 -4.37,-0.32 -1.528,-0.022 -3.035,0.03 -4.546,0 -3.5,0 -6.474,0.747 -9.765,0.828 -3.297,-0.08 -6.284,-0.83 -9.787,-0.83 -1.513,-0.02 -3.03,0.032 -4.526,0 -3.5,0 -6.493,0.75 -9.786,0.83 -3.293,-0.08 -6.283,-0.83 -9.782,-0.83 -1.522,-0.02 -3.042,0.032 -4.547,0 -3.498,0 -6.475,0.75 -9.764,0.83 -3.294,-0.08 -6.27,-0.83 -9.77,-0.83 -1.52,-0.02 -3.025,0.032 -4.525,0 -3.5,0 -6.49,0.75 -9.785,0.83 -3.294,-0.08 -6.283,-0.83 -9.783,-0.83 -1.52,-0.02 -3.043,0.032 -4.547,0 z"
           style="fill:url(#linearGradient221)"
           inkscape:connector-curvature="0" />
        <use
           height="100%"
           width="100%"
           xlink:href="#k"
           y="-1.113"
           id="use116"
           style="fill:url(#linearGradient223)"
           x="0" />
        <use
           height="100%"
           width="100%"
           xlink:href="#k"
           y="-2.23"
           id="use118"
           style="fill:url(#linearGradient225)"
           x="0" />
      </g>
      <use
         height="100%"
         width="100%"
         xlink:href="#n"
         y="-3.3440001"
         id="use121"
         style="fill:url(#o)"
         x="0" />
      <use
         height="100%"
         width="100%"
         xlink:href="#n"
         y="-6.691"
         id="use123"
         style="fill:url(#p)"
         x="0" />
      <path
         d="m 453.23,307.458 -0.123,0.215 h 93.79 l -0.124,-0.215 z m -0.22,0.377 -0.126,0.22 h 94.235 l -0.128,-0.22 h -93.98 z m -0.2,0.346 -0.204,0.357 h 94.792 l -0.205,-0.356 H 452.81 Z m -0.317,0.552 -0.25,0.433 h 95.518 l -0.25,-0.433 h -95.017 z m -0.4,0.69 -0.25,0.435 h 96.317 l -0.25,-0.434 h -95.816 z m -0.398,0.692 -0.247,0.43 h 97.107 l -0.247,-0.43 z m -0.398,0.692 -0.25,0.43 h 97.91 l -0.25,-0.43 z m -0.43,0.744 -0.304,0.53 h 98.877 l -0.303,-0.53 z"
         id="path125"
         style="fill:url(#q)"
         inkscape:connector-curvature="0" />
      <path
         d="m 457.357,312.287 c 3.45,0.662 3.782,0 3.782,0 z m 81.503,0 c 0,0 0.33,0.662 3.782,0 z"
         id="path127"
         style="fill:url(#r)"
         inkscape:connector-curvature="0" />
    </g>
    <g
       id="g175"
       style="fill:#ccd11e">
      <g
         id="t">
        <path
           d="m 530.63,297.043 c -1.708,0 -2.23,0.862 -2.23,0.862 -2.737,10.576 -11.808,21.333 -22.6,21.333 h -8.082 v 10.768 c 0,0.003 0.012,0 0.017,0 h 61.498 l -6.187,-10.954 c -9.707,-1.45 -17.64,-11.373 -20.166,-21.147 0,0 -0.54,-0.862 -2.25,-0.862 z"
           id="path131"
           style="fill:url(#linearGradient229)"
           inkscape:connector-curvature="0" />
        <path
           d="m 530.63,297.465 c -0.783,0 -1.26,0.18 -1.537,0.355 -0.264,0.165 -0.315,0.276 -0.32,0.288 0,0.007 -0.016,0.01 -0.02,0.016 -1.4,5.323 -4.35,10.67 -8.333,14.707 -4.012,4.07 -9.07,6.83 -14.605,6.83 h -7.674 v 9.923 h 60.856 l -5.68,-10.058 c -4.687,-0.612 -8.973,-3.163 -12.458,-6.694 -3.986,-4.037 -6.932,-9.383 -8.334,-14.706 l -0.017,-0.016 c -0.007,-0.012 -0.07,-0.105 -0.338,-0.27 -0.284,-0.177 -0.755,-0.373 -1.54,-0.373 z"
           id="path133"
           inkscape:connector-curvature="0"
           style="fill:#97c924" />
        <path
           d="m 530.63,297.465 c 0.147,0 0.28,0.02 0.406,0.034 0.024,3.016 0,8.108 0,10.8 -0.03,2.34 -0.83,4.223 -2.012,6.44 -0.547,1.555 -0.986,0.964 -2.35,2.858 -1.83,0.654 -3.186,0.91 -5.138,1.216 -2.517,0.398 -8.12,0.75 -10.887,0.136 3.64,-1.068 6.96,-3.27 9.77,-6.12 a 30.57,30.57 0 0 0 2.13,-2.4 33.663,33.663 0 0 0 3.01,-4.48 c 0.352,-0.626 0.686,-1.248 0.997,-1.893 a 33.86,33.86 0 0 0 1.25,-2.94 c 0.124,-0.33 0.245,-0.667 0.356,-0.998 0.222,-0.665 0.417,-1.33 0.592,-1.996 0.002,-0.006 0.015,-0.01 0.016,-0.017 0.007,-0.012 0.06,-0.122 0.322,-0.287 0.136,-0.085 0.332,-0.17 0.575,-0.237 h 0.017 c 0.252,-0.067 0.554,-0.118 0.946,-0.118 z"
           id="path135"
           inkscape:connector-curvature="0"
           style="fill:#ede71f" />
        <path
           d="m 529.938,298.902 c -0.412,6.034 -2.277,13.192 -6.644,17.81 -1.607,1.337 -3.66,2.55 -5.646,2.255 6.77,-5.51 10.885,-13.947 12.29,-20.065 z"
           id="path137"
           inkscape:connector-curvature="0"
           style="fill:#c6cb24" />
        <path
           d="m 524.494,309.28 c -1.002,2.722 -4.788,6.747 -8.84,10.046 -1.15,0.035 -1.76,0.1 -2.804,0.038 2.468,-0.225 8.22,-5.083 11.644,-10.083 z"
           id="path139"
           inkscape:connector-curvature="0"
           style="fill:#9ecb34" />
      </g>
      <use
         height="100%"
         width="100%"
         xlink:href="#t"
         x="-15.341"
         id="use142"
         y="0" />
      <g
         id="g158"
         style="fill:#c6cb24">
        <path
           d="m 502.218,297.91 c 2.735,10.576 11.79,21.334 22.583,21.334 h 8.09 v 10.768 c 0,0.003 -0.015,0 -0.017,0 h -65.795 c -0.006,0 -0.017,0.003 -0.017,0 v -10.768 h 8.073 c 10.792,0 19.863,-10.758 22.6,-21.333 0,0 0.534,-0.865 2.243,-0.865 1.708,0 2.243,0.866 2.243,0.866 z"
           id="path144"
           style="fill:url(#u)"
           inkscape:connector-curvature="0" />
        <path
           d="m 499.975,297.465 c 0.784,0 1.255,0.196 1.538,0.372 0.27,0.166 0.332,0.26 0.34,0.27 l 0.016,0.017 c 1.4,5.323 4.347,10.67 8.332,14.707 4.017,4.07 9.087,6.83 14.623,6.83 h 7.64 v 9.923 h -64.98 v -9.923 h 7.675 c 5.535,0 10.593,-2.76 14.605,-6.83 3.982,-4.037 6.934,-9.383 8.334,-14.706 0.002,-0.007 0.014,-0.01 0.016,-0.016 0.006,-0.012 0.057,-0.123 0.32,-0.288 0.28,-0.174 0.755,-0.355 1.54,-0.355 z"
           id="path146"
           inkscape:connector-curvature="0"
           style="fill:#97c924" />
        <path
           d="m 499.263,297.53 a 3.4,3.4 0 0 0 -0.242,0.055 h -0.017 c -0.243,0.066 -0.436,0.15 -0.572,0.236 -0.263,0.166 -0.313,0.275 -0.32,0.287 -0.002,0.006 -0.016,0.01 -0.017,0.017 a 28.878,28.878 0 0 1 -0.949,2.993 34.22,34.22 0 0 1 -1.25,2.942 34.21,34.21 0 0 1 -0.997,1.894 33.634,33.634 0 0 1 -3.01,4.477 30.73,30.73 0 0 1 -2.13,2.402 c -2.81,2.85 -6.128,5.05 -9.77,6.117 2.766,0.614 4.033,-0.057 6.55,-0.455 1.952,-0.308 4.21,-0.563 6.043,-1.217 1.364,-1.894 0.9,-1.3 1.446,-2.854 1.18,-2.218 2.906,-4.222 3.334,-6.68 1.62,-3.023 1.903,-8.615 1.903,-10.214 z"
           id="path148"
           inkscape:connector-curvature="0"
           style="fill:#ede71f" />
        <path
           d="m 499.275,298.902 c -0.412,6.034 -2.277,13.192 -6.644,17.81 -1.605,1.337 -3.66,2.55 -5.645,2.255 6.77,-5.51 10.885,-13.947 12.29,-20.065 z"
           id="path150"
           inkscape:connector-curvature="0" />
        <path
           d="m 493.832,309.28 c -1.002,2.722 -4.788,6.748 -8.84,10.046 -1.15,0.035 -1.76,0.1 -2.804,0.038 2.467,-0.225 8.222,-5.083 11.644,-10.083 z"
           id="path152"
           inkscape:connector-curvature="0"
           style="fill:#9ecb34" />
        <path
           d="m 500.95,297.584 h 0.02 c 0.24,0.067 0.434,0.15 0.57,0.236 0.264,0.165 0.315,0.274 0.32,0.286 0.003,0.006 0.017,0.01 0.02,0.018 0.174,0.665 0.37,1.333 0.59,1.996 0.112,0.332 0.235,0.665 0.358,0.995 a 33.6,33.6 0 0 0 1.25,2.942 c 0.31,0.645 0.644,1.268 0.997,1.895 a 33.634,33.634 0 0 0 3.01,4.477 30.73,30.73 0 0 0 2.13,2.4 c 2.81,2.85 6.128,5.446 9.768,6.513 -7.245,0.028 -10.39,-0.63 -13.022,-4.016 -2.632,-3.387 -3.605,-4.868 -4.14,-6.937 -0.534,-2.068 -2.025,-6.57 -1.87,-10.806 z"
           id="path154"
           inkscape:connector-curvature="0"
           style="fill:#ede71f" />
        <path
           d="m 501.476,298.902 c 0.412,6.034 2.22,12.006 6.587,16.625 1.607,1.337 3.66,2.55 5.646,2.255 -7.336,-5.002 -10.83,-12.762 -12.234,-18.88 z"
           id="path156"
           inkscape:connector-curvature="0" />
      </g>
      <g
         id="w">
        <path
           d="m 484.75,297.043 c -1.71,0 -2.25,0.862 -2.25,0.862 -2.522,9.747 -11.824,22.318 -21.496,23.81 l -4.79,8.29 h 49.015 V 318.66 c -8.826,-2.37 -15.89,-11.63 -18.25,-20.753 0,0 -0.522,-0.862 -2.23,-0.862 z"
           id="path160"
           style="fill:url(#linearGradient231)"
           inkscape:connector-curvature="0" />
        <path
           d="m 484.75,297.465 c -0.785,0 -1.256,0.196 -1.54,0.372 -0.268,0.166 -0.33,0.26 -0.337,0.27 l -0.017,0.017 c -1.402,5.323 -4.678,10.705 -8.08,14.99 -3.402,4.283 -9.72,8.617 -14.042,9.076 l -4.282,7.393 h 48.06 V 318.89 c -3.554,-1.09 -6.8,-3.267 -9.552,-6.06 -3.982,-4.037 -6.934,-9.383 -8.334,-14.706 -0.002,-0.007 -0.015,-0.01 -0.017,-0.016 -0.007,-0.012 -0.06,-0.123 -0.322,-0.288 -0.28,-0.174 -0.755,-0.355 -1.54,-0.355 z"
           id="path162"
           inkscape:connector-curvature="0"
           style="fill:#97c924" />
        <path
           d="m 483.445,298.903 c -0.617,9.043 -5.653,20.454 -11.34,22.42 -1.855,0.64 -5.1,0.864 -6.227,1.008 9.948,-4.73 15.828,-15.852 17.567,-23.427 z"
           id="path164"
           inkscape:connector-curvature="0"
           style="fill:#93bc30" />
        <path
           d="m 484.746,297.465 c -0.147,0 -0.28,0.02 -0.406,0.034 -0.023,3.016 0,8.108 0,10.8 0.03,2.34 0.83,4.223 2.012,6.44 0.07,0.195 0.136,0.355 0.203,0.49 0.41,1.087 0.713,1.464 2.282,2.655 4.987,3.787 11.17,4.353 14.808,4.04 -1.14,-0.898 -2.358,-1.715 -3.43,-2.467 1.71,-0.056 3.35,-0.25 4.512,-0.508 -3.64,-1.067 -6.96,-3.27 -9.77,-6.12 a 30.523,30.523 0 0 1 -1.403,-1.554 c -0.21,-0.292 -0.5,-0.698 -0.592,-0.812 -1.118,-1.4 -2.263,-2.947 -3.145,-4.513 a 34.164,34.164 0 0 1 -0.997,-1.893 34.023,34.023 0 0 1 -1.606,-3.938 31.676,31.676 0 0 1 -0.592,-1.996 c -0.002,-0.006 -0.015,-0.01 -0.017,-0.017 -0.006,-0.012 -0.057,-0.122 -0.32,-0.287 a 2.207,2.207 0 0 0 -0.576,-0.237 h -0.018 a 3.614,3.614 0 0 0 -0.946,-0.118 z"
           id="path166"
           inkscape:connector-curvature="0"
           style="fill:#ede71f" />
        <path
           d="m 485.446,298.902 c 0.412,6.034 2.277,13.192 6.644,17.81 1.606,1.337 3.66,2.55 5.646,2.255 -6.77,-5.51 -10.886,-13.947 -12.29,-20.065 z"
           id="path168"
           inkscape:connector-curvature="0" />
        <path
           d="m 489.613,307.247 c 2.37,5.837 8.37,11.29 14.543,14.954 1.15,0.036 1.492,0.004 2.537,-0.06 -4.42,-2.37 -11.54,-5.753 -17.08,-14.893 z"
           id="path170"
           inkscape:connector-curvature="0"
           style="fill:#9ecb34" />
      </g>
      <use
         height="100%"
         width="100%"
         xlink:href="#w"
         x="-15.43"
         id="use173"
         style="fill:#c6cb24"
         y="0" />
    </g>
    <g
       id="g191">
      <path
         d="m 556.5,324.692 c -0.574,0.203 -4.42,-0.19 -6.433,-0.044 l -1.28,0.336 c -1.123,-0.008 -2.238,0.024 -3.33,0 -3.602,0 -6.65,0.948 -10.075,0.948 -3.433,0 -6.47,-0.948 -10.075,-0.948 -1.12,-0.008 -2.234,0.025 -3.33,0 -3.602,0 -6.647,0.948 -10.076,0.948 -3.428,0 -6.472,-0.948 -10.074,-0.948 -1.13,-0.007 -2.242,0.023 -3.348,0 -3.602,0 -6.632,0.948 -10.058,0.948 -3.43,0 -6.456,-0.948 -10.058,-0.948 -0.267,0 -0.516,0.01 -0.776,0.017 -0.178,-0.003 -0.377,-0.016 -0.557,-0.016 -0.12,0 -0.223,-0.003 -0.34,0 -0.117,-0.003 -0.237,0 -0.356,0 -0.18,0 -0.345,0.013 -0.523,0.017 -0.258,-0.007 -0.51,-0.016 -0.778,-0.016 -3.606,0 -6.643,0.95 -10.076,0.948 -3.43,0 -6.473,-0.948 -10.075,-0.948 -0.26,0 -0.52,0.01 -0.775,0.017 -0.18,-0.003 -0.34,-0.016 -0.522,-0.016 -0.124,0 -0.252,-0.003 -0.374,0 -0.118,-0.003 -0.238,0 -0.357,0 -0.18,0 -0.362,0.013 -0.54,0.017 -0.26,-0.007 -0.51,-0.016 -0.776,-0.016 -2.88,0 -6.218,0.607 -8.936,0.85 l -6.272,10.858 62.972,-0.007 64.375,0.007 z"
         id="path177"
         inkscape:connector-curvature="0"
         style="fill:#ffffff" />
      <path
         d="m 547.993,323.11 c -0.2,0 -0.398,0 -0.596,0.008 -3.24,0.095 -5.564,1.115 -11.2,1.115 -5.638,0 -6.22,-1.02 -12.584,-0.88 -5.947,0.132 -8.443,1.263 -11.67,1.218 -3.228,-0.043 -8.473,-0.696 -12.51,-0.274 -4.037,0.423 -8.828,1.284 -11.973,1.29 -3.91,-0.016 -7.82,-0.73 -11.906,-0.323 -4.087,0.406 -5.997,1.5 -11.063,1.485 -4.355,-0.013 -9.082,-0.698 -12.745,-0.695 -3.435,0.003 -7.267,0.957 -10.086,1.443 l -0.844,1.464 c 2.247,-0.26 8.55,-1.218 10.802,-1.277 2.344,-0.06 10.717,0.483 15.335,0.325 4.618,-0.16 5.158,-1.172 10.618,-1.172 3.802,0 6.667,0.4 10.567,0.4 2.434,0 4.643,-1.243 8.343,-1.243 0.936,-0.027 1.865,-0.06 2.794,-0.09 3.12,-0.516 8.384,0.044 12.048,0.23 3.315,0.174 5.457,-0.614 8.914,-0.73 1.496,-0.067 2.998,-0.065 4.474,-0.147 3.46,-0.115 6.422,0.64 9.68,0.624 3.25,-0.2 6.403,-0.922 9.86,-1.037 1.51,-0.07 2.998,-0.072 4.49,-0.148 2.287,-0.076 5.837,0.078 8.273,0.5 l -0.84,-1.45 c -2.38,-0.075 -5.31,-0.634 -8.18,-0.634 z"
         id="path179"
         style="fill:url(#x)"
         inkscape:connector-curvature="0" />
      <g
         id="A">
        <path
           id="z"
           d="m 450.312,334.748 c -3.457,0 -6.402,0.853 -9.652,0.945 -1.21,-0.033 -2.367,-0.183 -3.535,-0.345 l -0.49,0.85 c 0.486,0.032 0.975,0.063 1.488,0.063 1.502,0.02 2.99,-0.035 4.474,0 3.457,0 6.382,-0.85 9.634,-0.944 3.255,0.092 6.207,0.945 9.667,0.945 1.5,0.02 2.993,-0.035 4.474,0 3.458,0 6.413,-0.852 9.667,-0.944 3.256,0.092 6.23,0.945 9.687,0.945 1.495,0.02 2.993,-0.035 4.47,0 3.457,0 6.4,-0.852 9.652,-0.944 3.253,0.092 6.19,0.945 9.65,0.945 1.51,0.02 2.998,-0.035 4.49,0 3.457,0 6.41,-0.852 9.666,-0.944 3.257,0.092 6.21,0.945 9.67,0.945 1.495,0.02 2.99,-0.035 4.47,0 3.456,0 6.4,-0.852 9.65,-0.944 3.254,0.092 6.21,0.945 9.667,0.945 1.5,0.02 2.995,-0.035 4.473,0 0.605,0 1.196,-0.033 1.778,-0.076 l -0.462,-0.797 c -1.064,0.144 -2.133,0.276 -3.235,0.306 -3.254,-0.092 -6.195,-0.945 -9.652,-0.945 -1.51,-0.02 -2.996,0.03 -4.49,0 -3.457,0 -6.396,0.853 -9.648,0.945 -3.257,-0.09 -6.206,-0.945 -9.666,-0.945 -1.496,-0.02 -2.993,0.03 -4.473,0 -3.458,0 -6.413,0.853 -9.667,0.945 -3.254,-0.092 -6.21,-0.945 -9.666,-0.945 -1.503,-0.02 -3.003,0.03 -4.49,0 -3.458,0 -6.4,0.853 -9.65,0.945 -3.253,-0.092 -6.194,-0.945 -9.65,-0.945 -1.507,-0.02 -2.99,0.03 -4.475,0 -3.46,0 -6.41,0.854 -9.666,0.945 -3.255,-0.092 -6.21,-0.945 -9.667,-0.945 -1.502,-0.02 -3.006,0.03 -4.49,0 z"
           style="fill:url(#linearGradient233)"
           inkscape:connector-curvature="0" />
        <use
           height="100%"
           width="100%"
           xlink:href="#z"
           y="-1.289"
           id="use182"
           x="0" />
        <use
           height="100%"
           width="100%"
           xlink:href="#z"
           y="-2.575"
           id="use184"
           x="0" />
      </g>
      <use
         height="100%"
         width="100%"
         xlink:href="#A"
         y="-3.8670001"
         id="use187"
         x="0" />
      <use
         height="100%"
         width="100%"
         xlink:href="#A"
         y="-7.7290001"
         id="use189"
         x="0" />
    </g>
    <path
       d="m 443.846,324.705 -2.427,4.19 c 2.838,-0.47 7.1,-1.702 10.633,-1.705 3.663,-0.003 8.082,0.903 12.438,0.916 5.067,0.014 6.977,-1.08 11.064,-1.485 4.086,-0.406 7.998,0.528 11.906,0.546 3.145,-0.007 7.936,-1.09 11.973,-1.512 4.037,-0.422 7.737,0.293 12.603,0.37 4.866,0.074 5.63,-1.18 11.576,-1.312 6.366,-0.14 6.947,0.878 12.584,0.878 4.242,0.23 7.883,-0.854 11.666,-1.12 3.784,-0.27 5.54,0.042 8.305,0.108 l -1.838,-3.253 c -0.032,0 -0.062,0.003 -0.093,0.004 l -101.246,2.225 z"
       id="path193"
       inkscape:connector-curvature="0"
       style="fill:#97c924" />
    <path
       d="m 550.067,324.648 c 0,0 2.71,0.148 3.847,0.276 a 91.39,91.39 0 0 0 2.955,0.253 l -0.37,-0.485 c -0.574,0.203 -4.42,-0.19 -6.433,-0.044 z"
       id="path195"
       inkscape:connector-curvature="0"
       style="fill:#ffffff" />
  </g>
  <path
     d="M 10.666667,5.99667 9.8095667,7.4816 8.9333333,8.99893 10.647933,8.9987 12.4,8.99893 11.542567,7.51407 Z m 0,0.08 0.841333,1.45743 0.822667,1.42473 -1.682734,-1e-4 -1.645333,1e-4 0.8415667,-1.4572 z"
     id="path199"
     inkscape:connector-curvature="0"
     style="fill:#c8a400;stroke-width:0.03333334" />
</svg>
