<?xml version="1.0" encoding="UTF-8" standalone="no"?>
<svg
   xmlns:dc="http://purl.org/dc/elements/1.1/"
   xmlns:cc="http://creativecommons.org/ns#"
   xmlns:rdf="http://www.w3.org/1999/02/22-rdf-syntax-ns#"
   xmlns:svg="http://www.w3.org/2000/svg"
   xmlns="http://www.w3.org/2000/svg"
   xmlns:sodipodi="http://sodipodi.sourceforge.net/DTD/sodipodi-0.dtd"
   xmlns:inkscape="http://www.inkscape.org/namespaces/inkscape"
   height="15.999999"
   width="21.333046"
   viewBox="0 0 21.333046 15.999999"
   version="1.1"
   id="svg39"
   sodipodi:docname="nu.svg"
   inkscape:version="0.92.1 r">
  <metadata
     id="metadata43">
    <rdf:RDF>
      <cc:Work
         rdf:about="">
        <dc:format>image/svg+xml</dc:format>
        <dc:type
           rdf:resource="http://purl.org/dc/dcmitype/StillImage" />
        <dc:title></dc:title>
      </cc:Work>
    </rdf:RDF>
  </metadata>
  <sodipodi:namedview
     pagecolor="#ffffff"
     bordercolor="#666666"
     borderopacity="1"
     objecttolerance="10"
     gridtolerance="10"
     guidetolerance="10"
     inkscape:pageopacity="0"
     inkscape:pageshadow="2"
     inkscape:window-width="1920"
     inkscape:window-height="1024"
     id="namedview41"
     showgrid="false"
     fit-margin-top="0"
     fit-margin-left="0"
     fit-margin-right="0"
     fit-margin-bottom="0"
     inkscape:zoom="0.49166667"
     inkscape:cx="320"
     inkscape:cy="240.01891"
     inkscape:window-x="0"
     inkscape:window-y="0"
     inkscape:window-maximized="1"
     inkscape:current-layer="svg39" />
  <defs
     id="defs5">
    <clipPath
       id="a">
      <path
         d="M 0,0 H 496.06 V 372.05 H 0 Z"
         id="path2"
         inkscape:connector-curvature="0"
         style="fill-opacity:0.67000002" />
    </clipPath>
  </defs>
  <g
     transform="scale(0.04300497)"
     clip-path="url(#a)"
     id="g37">
    <path
       d="m 0.013,0 h 499.55 V 248.1 H 0.013 Z"
       id="path7"
       inkscape:connector-curvature="0"
       style="fill:#ffffff;fill-rule:evenodd" />
    <path
       d="m 0.013,0 -0.02,18.621 119.21,61.253 44.86,1.3 L 0.012,0 Z"
       id="path9"
       inkscape:connector-curvature="0"
       style="fill:#cc0000" />
    <path
       d="m 51.054,0 144.53,75.491 V 0.001 H 51.064 Z"
       id="path11"
       inkscape:connector-curvature="0"
       style="fill:#000066" />
    <path
       d="M 214.86,0 V 96.372 H 0.02 v 55.07 h 214.84 v 96.372 h 66.106 v -96.372 h 214.84 V 96.372 H 280.966 V 0 Z"
       id="path13"
       inkscape:connector-curvature="0"
       style="fill:#cc0000" />
    <path
       d="M 300.24,0 V 71.132 L 441.63,0.552 Z"
       id="path15"
       inkscape:connector-curvature="0"
       style="fill:#000066" />
    <path
       d="M 304.71,78.887 344.47,78.567 498.95,0.551 457.96,1.219 Z"
       id="path17"
       inkscape:connector-curvature="0"
       style="fill:#cc0000" />
    <path
       d="m 0.013,167.5 v 52.775 l 99.16,-52.22 -99.16,-0.56 z"
       id="path19"
       inkscape:connector-curvature="0"
       style="fill:#000066" />
    <path
       d="m 381.85,169.68 -41.336,-0.321 155.82,77.58 -1.025,-17.749 -113.46,-59.51 z M 38.73,248.25 184.84,171.54 146.46,171.8 0.01,248.14"
       id="path21"
       inkscape:connector-curvature="0"
       style="fill:#cc0000" />
    <path
       d="m 497.9,21.795 -118,58.515 116.43,0.436 v 87.194 h -99.159 l 98.242,53.23 1.442,27.08 -52.474,-0.627 -143.62,-70.505 v 71.132 h -104.67 v -71.132 l -134.72,70.94 -60.844,0.192 v 247.81 h 991.59 V 0.43 L 498.947,0 M 0.537,27.971 0.014,79.438 104.404,80.746 0.544,27.971 Z"
       id="path23"
       inkscape:connector-curvature="0"
       style="fill:#000066" />
    <g
       id="g29"
       style="fill:#ffd900;fill-rule:evenodd;stroke-width:1.00000003pt">
      <path
         d="M 496.06,0 H 992.12 V 496.06 H 496.06 Z"
         id="path25"
         inkscape:connector-curvature="0" />
      <path
         d="M 0,248.03 H 523.49 V 496.06 H 0 Z"
         id="path27"
         inkscape:connector-curvature="0" />
    </g>
    <g
       id="g35"
       style="fill-rule:evenodd">
      <path
         d="m 290.9,125.29 c 0,23.619 -19.148,42.767 -42.768,42.767 -23.619,0 -42.767,-19.147 -42.767,-42.767 0,-23.62 19.147,-42.767 42.767,-42.767 23.62,0 42.767,19.147 42.767,42.767 z"
         id="path31"
         inkscape:connector-curvature="0"
         style="fill:#000067" />
      <path
         d="m 240.189,114.32 8.225,-24.592 8.224,24.591 26.686,-0.018 -21.603,15.175 8.266,24.58 -21.577,-15.211 -21.577,15.207 8.27,-24.576 -21.6,-15.182 z m 148.548,4.026 4.076,-11.512 4.076,11.512 13.226,-0.008 -10.707,7.104 4.097,11.508 -10.694,-7.122 -10.693,7.12 4.098,-11.506 -10.704,-7.107 z m -144.68,85.54 4.076,-11.512 4.076,11.512 13.226,-0.008 -10.707,7.104 4.097,11.508 -10.694,-7.122 -10.693,7.12 4.098,-11.506 -10.704,-7.107 z m 0,-167.05 4.076,-11.512 4.076,11.512 13.226,-0.008 -10.707,7.104 4.097,11.508 -10.694,-7.122 -10.693,7.12 4.098,-11.506 -10.704,-7.107 z m -145.127,81.51 4.076,-11.512 4.076,11.512 13.225,-0.008 -10.706,7.104 4.096,11.508 -10.693,-7.122 -10.694,7.12 4.099,-11.506 -10.705,-7.107 z"
         id="path33"
         inkscape:connector-curvature="0"
         style="fill:#fff40d" />
    </g>
  </g>
</svg>
