<?xml version="1.0" encoding="UTF-8" standalone="no"?>
<svg
   xmlns:dc="http://purl.org/dc/elements/1.1/"
   xmlns:cc="http://creativecommons.org/ns#"
   xmlns:rdf="http://www.w3.org/1999/02/22-rdf-syntax-ns#"
   xmlns:svg="http://www.w3.org/2000/svg"
   xmlns="http://www.w3.org/2000/svg"
   xmlns:sodipodi="http://sodipodi.sourceforge.net/DTD/sodipodi-0.dtd"
   xmlns:inkscape="http://www.inkscape.org/namespaces/inkscape"
   height="16"
   width="21.333437"
   viewBox="0 0 21.333437 16"
   version="1.1"
   id="svg19"
   sodipodi:docname="pk.svg"
   inkscape:version="0.92.1 r">
  <metadata
     id="metadata23">
    <rdf:RDF>
      <cc:Work
         rdf:about="">
        <dc:format>image/svg+xml</dc:format>
        <dc:type
           rdf:resource="http://purl.org/dc/dcmitype/StillImage" />
        <dc:title></dc:title>
      </cc:Work>
    </rdf:RDF>
  </metadata>
  <sodipodi:namedview
     pagecolor="#ffffff"
     bordercolor="#666666"
     borderopacity="1"
     objecttolerance="10"
     gridtolerance="10"
     guidetolerance="10"
     inkscape:pageopacity="0"
     inkscape:pageshadow="2"
     inkscape:window-width="1920"
     inkscape:window-height="1024"
     id="namedview21"
     showgrid="false"
     fit-margin-top="0"
     fit-margin-left="0"
     fit-margin-right="0"
     fit-margin-bottom="0"
     inkscape:zoom="0.49166667"
     inkscape:cx="320.00013"
     inkscape:cy="240"
     inkscape:window-x="0"
     inkscape:window-y="0"
     inkscape:window-maximized="1"
     inkscape:current-layer="svg19" />
  <defs
     id="defs5">
    <clipPath
       id="a">
      <path
         d="m -52.334,0 h 682.67 v 512 h -682.67 z"
         id="path2"
         inkscape:connector-curvature="0"
         style="fill-opacity:0.67000002" />
    </clipPath>
  </defs>
  <g
     clip-path="url(#a)"
     transform="matrix(0.03125,0,0,0.03125,1.6354375,0)"
     id="g17"
     style="fill-rule:evenodd;stroke-width:1.00000003pt">
    <path
       d="M -95,0 H 673 V 512 H -95 Z"
       id="path7"
       inkscape:connector-curvature="0"
       style="fill:#0c590b" />
    <path
       d="M -95,0 H 97.52 V 512 H -95 Z"
       id="path9"
       inkscape:connector-curvature="0"
       style="fill:#ffffff" />
    <g
       id="g15"
       style="fill:#ffffff">
      <path
         d="m 403.702,225.4 -31.165,-6.556 -16.389,27.306 -3.395,-31.666 -31.036,-7.15 29.067,-13.014 -2.791,-31.724 21.36,23.622 29.309,-12.458 -15.865,27.614 z"
         id="path11"
         inkscape:connector-curvature="0" />
      <path
         d="m 415.455,306.086 c -27.665,60.96 -100.277,87.588 -161.41,59.27 -61.142,-28.326 -87.777,-100.93 -59.451,-162.071 14.447,-31.184 38.089,-52.614 71.462,-64.31 -3.839,3.246 -7.637,6.613 -11.8,10.908 -43.11,44.491 -41.99,115.592 2.5,158.699 44.49,43.11 115.592,41.991 158.698,-2.5 z"
         id="path13"
         inkscape:connector-curvature="0" />
    </g>
  </g>
</svg>
