<?xml version="1.0" encoding="UTF-8" standalone="no"?>
<svg
   xmlns:dc="http://purl.org/dc/elements/1.1/"
   xmlns:cc="http://creativecommons.org/ns#"
   xmlns:rdf="http://www.w3.org/1999/02/22-rdf-syntax-ns#"
   xmlns:svg="http://www.w3.org/2000/svg"
   xmlns="http://www.w3.org/2000/svg"
   xmlns:xlink="http://www.w3.org/1999/xlink"
   xmlns:sodipodi="http://sodipodi.sourceforge.net/DTD/sodipodi-0.dtd"
   xmlns:inkscape="http://www.inkscape.org/namespaces/inkscape"
   height="16"
   width="21.333332"
   viewBox="0 0 21.333332 16"
   version="1.1"
   id="svg96"
   sodipodi:docname="pt.svg"
   inkscape:version="0.92.1 r">
  <metadata
     id="metadata102">
    <rdf:RDF>
      <cc:Work
         rdf:about="">
        <dc:format>image/svg+xml</dc:format>
        <dc:type
           rdf:resource="http://purl.org/dc/dcmitype/StillImage" />
        <dc:title></dc:title>
      </cc:Work>
    </rdf:RDF>
  </metadata>
  <defs
     id="defs100" />
  <sodipodi:namedview
     pagecolor="#ffffff"
     bordercolor="#666666"
     borderopacity="1"
     objecttolerance="10"
     gridtolerance="10"
     guidetolerance="10"
     inkscape:pageopacity="0"
     inkscape:pageshadow="2"
     inkscape:window-width="1920"
     inkscape:window-height="1024"
     id="namedview98"
     showgrid="false"
     fit-margin-top="0"
     fit-margin-left="0"
     fit-margin-right="0"
     fit-margin-bottom="0"
     inkscape:zoom="0.49166667"
     inkscape:cx="320"
     inkscape:cy="240"
     inkscape:window-x="0"
     inkscape:window-y="0"
     inkscape:window-maximized="1"
     inkscape:current-layer="svg96" />
  <path
     d="M 8.5333333,0 H 21.333333 V 16 H 8.5333333 Z"
     id="path2"
     inkscape:connector-curvature="0"
     style="fill:#ff0000;stroke-width:0.03333334" />
  <path
     d="M 0,0 H 8.5333333 V 16 H 0 Z"
     id="path4"
     inkscape:connector-curvature="0"
     style="fill:#006600;stroke-width:0.03333334" />
  <g
     id="g40"
     transform="scale(0.03333333)"
     style="fill:#ffff00;fill-rule:evenodd;stroke:#000000;stroke-width:0.57300001;stroke-linecap:round;stroke-linejoin:round">
    <path
       d="m 339.456,306.176 c -32.224,-0.97 -179.99,-93.205 -181.003,-107.893 l 8.16,-13.608 c 14.657,21.297 165.717,110.998 180.555,107.82 l -7.712,13.677"
       id="path6"
       inkscape:connector-curvature="0"
       style="stroke-width:0.611" />
    <path
       d="m 164.896,182.827 c -2.89,7.78 38.56,33.406 88.43,63.737 49.87,30.33 92.87,49.073 96.056,46.385 0.195,-0.348 1.57,-2.71 1.443,-2.692 -0.598,0.9 -2.052,1.184 -4.32,0.53 -13.474,-3.886 -48.614,-20.016 -92.133,-46.406 -43.518,-26.392 -81.38,-50.714 -87.265,-61.047 -0.41,-0.716 -0.7,-2.023 -0.642,-3.04 h -0.143 l -1.253,2.19 -0.173,0.342 z m 175.317,123.776 c -0.546,0.99 -1.565,1.024 -3.5,0.812 -12.053,-1.334 -48.628,-19.12 -91.906,-45.028 -50.358,-30.144 -91.947,-57.61 -87.435,-64.79 l 1.228,-2.17 0.242,0.076 c -4.058,12.165 82.077,61.417 87.148,64.557 49.84,30.877 91.856,48.908 95.575,44.222 l -1.353,2.326 v -0.002 z"
       id="path8"
       inkscape:connector-curvature="0"
       style="stroke-width:0.611" />
    <path
       d="m 256.18,207.18 c 32.254,-0.256 72.055,-4.41 94.96,-13.537 l -4.936,-8.018 c -13.538,7.493 -53.557,12.42 -90.295,13.157 -43.453,-0.4 -74.124,-4.446 -89.49,-14.757 l -4.66,8.538 c 28.25,11.954 57.198,14.493 94.422,14.616"
       id="path10"
       inkscape:connector-curvature="0"
       style="stroke-width:0.611" />
    <path
       d="m 352.47,193.824 c -0.79,1.26 -15.727,6.412 -37.732,10.214 -14.92,2.274 -34.383,4.22 -58.67,4.242 -23.076,0.022 -41.926,-1.62 -56.197,-3.555 -23.1,-3.622 -35.02,-8.66 -39.428,-10.442 0.42,-0.838 0.692,-1.426 1.098,-2.21 12.688,5.053 24.666,8.1 38.698,10.258 14.177,1.92 32.8,3.587 55.76,3.566 24.176,-0.025 43.424,-2.117 58.258,-4.324 22.565,-3.64 34.892,-8.324 36.623,-10.5 l 1.593,2.752 h -0.002 z m -4.332,-8.13 c -2.446,1.963 -14.632,6.285 -36.073,9.71 -14.31,2.05 -32.504,3.886 -55.75,3.908 -22.084,0.022 -40.127,-1.466 -53.85,-3.465 -21.775,-2.844 -33.365,-7.974 -37.543,-9.47 0.416,-0.72 0.84,-1.432 1.274,-2.148 3.25,1.636 14.435,6.176 36.508,9.303 13.568,1.924 31.638,3.358 53.613,3.335 23.136,-0.023 41.123,-1.894 55.34,-3.934 21.553,-2.965 33.15,-8.477 34.91,-9.857 l 1.572,2.614 v 0.003 z m -197.866,60.343 c 19.838,10.67 63.9,16.047 105.594,16.417 37.963,0.06 87.42,-5.868 105.916,-15.67 l -0.51,-10.678 c -5.785,9.042 -58.786,17.716 -105.818,17.36 -47.033,-0.354 -90.707,-7.618 -105.266,-17.022 l 0.084,9.59"
       id="path12"
       inkscape:connector-curvature="0"
       style="stroke-width:0.611" />
    <path
       d="m 362.795,244.5 v 2.548 c -2.78,3.324 -20.208,8.347 -42.066,11.885 -16.635,2.55 -38.323,4.474 -65.347,4.474 -25.673,0 -46.147,-1.83 -62.024,-4.268 -25.1,-3.656 -41.152,-10.056 -44.375,-11.966 l 0.015,-2.97 c 9.68,6.435 35.905,11.142 44.71,12.584 15.775,2.42 36.127,4.238 61.672,4.238 26.898,0 48.463,-1.91 64.994,-4.444 15.68,-2.266 38.02,-8.157 42.418,-12.08 z m 0.01,-9.057 v 2.547 c -2.778,3.32 -20.208,8.345 -42.065,11.882 -16.635,2.55 -38.322,4.474 -65.346,4.474 -25.674,0 -46.147,-1.828 -62.025,-4.268 -25.098,-3.653 -41.15,-10.053 -44.374,-11.964 l 0.014,-2.97 c 9.68,6.434 35.905,11.143 44.712,12.582 15.774,2.423 36.126,4.24 61.67,4.24 26.898,0 48.464,-1.91 64.994,-4.446 15.68,-2.265 38.02,-8.156 42.418,-12.08 v 0.003 z M 255.776,304.34 c -45.623,-0.27 -84.716,-12.435 -92.97,-14.446 l 6.02,9.424 c 14.58,6.133 52.718,15.274 87.388,14.262 34.67,-1.01 64.97,-3.697 86.323,-14.092 l 6.172,-9.765 c -14.553,6.853 -64.074,14.548 -92.935,14.618"
       id="path14"
       inkscape:connector-curvature="0"
       style="stroke-width:0.611" />
    <path
       d="m 344.853,297.3 a 143.02,143.02 0 0 1 -2.77,4.086 c -10.07,3.55 -25.94,7.28 -32.636,8.367 -13.68,2.818 -34.843,4.9 -53.625,4.91 -40.416,-0.592 -73.5,-8.504 -89.063,-15.253 l -1.257,-2.16 0.205,-0.323 2.13,0.826 c 27.678,9.902 58.764,13.853 88.21,14.562 18.71,0.066 37.436,-2.144 52.58,-4.852 23.222,-4.653 32.612,-8.16 35.493,-9.75 l 0.734,-0.41 z m 5.352,-8.826 c 0.023,0.028 0.047,0.054 0.07,0.083 a 287.226,287.226 0 0 1 -2.093,3.48 c -5.372,1.92 -19.95,6.185 -41.237,9.162 -14.025,1.91 -22.743,3.76 -50.644,4.302 -52.282,-1.33 -86.132,-11.553 -94.174,-14.075 l -1.192,-2.286 c 30.3,7.91 61.25,13.433 95.37,13.997 25.525,-0.544 36.385,-2.424 50.294,-4.32 24.823,-3.86 37.33,-7.946 41.083,-9.126 a 2.845,2.845 0 0 0 -0.164,-0.212 l 2.692,-1.005 -0.002,0.002 z"
       id="path16"
       inkscape:connector-curvature="0"
       style="stroke-width:0.58700001" />
    <path
       d="m 350.752,237.61 c 0.148,30.013 -15.21,56.946 -27.582,68.827 -17.502,16.81 -40.707,27.623 -67.807,28.12 -30.26,0.557 -58.794,-19.17 -66.448,-27.838 -14.963,-16.945 -27.145,-38.462 -27.536,-67.46 1.853,-32.757 14.712,-55.574 33.352,-71.22 18.64,-15.647 43.46,-23.268 64.13,-22.723 23.847,0.63 51.705,12.33 70.955,35.554 12.61,15.22 18.072,31.733 20.935,56.74 z M 255.62,134.847 c 58.118,0 105.916,47.294 105.916,105.283 0,57.987 -47.798,105.283 -105.916,105.283 -58.117,0 -105.52,-47.295 -105.52,-105.284 0,-57.99 47.403,-105.284 105.52,-105.284"
       id="path18"
       inkscape:connector-curvature="0"
       style="stroke-width:0.611" />
    <path
       d="m 255.904,134.485 c 58.17,0 105.612,47.45 105.612,105.624 0,58.173 -47.443,105.62 -105.612,105.62 -58.17,0 -105.612,-47.446 -105.612,-105.62 0,-58.176 47.443,-105.625 105.612,-105.625 z M 152.617,240.11 c 0,56.81 46.65,103.297 103.287,103.297 56.637,0 103.29,-46.487 103.29,-103.298 0,-56.814 -46.654,-103.3 -103.29,-103.3 -56.636,0 -103.287,46.49 -103.287,103.3 z"
       id="path20"
       inkscape:connector-curvature="0"
       style="stroke-width:0.611" />
    <path
       d="m 255.99,143.264 c 53.046,0 96.74,43.542 96.74,96.75 0,53.21 -43.695,96.75 -96.74,96.75 -53.046,0 -96.74,-43.54 -96.74,-96.75 0,-53.208 43.695,-96.75 96.74,-96.75 z m -94.417,96.75 c 0,51.93 42.645,94.426 94.416,94.426 51.77,0 94.415,-42.495 94.415,-94.426 0,-51.93 -42.643,-94.426 -94.416,-94.426 -51.772,0 -94.417,42.495 -94.417,94.426 z"
       id="path22"
       inkscape:connector-curvature="0"
       style="stroke-width:0.611" />
    <path
       d="m 260.245,134.06 h -9.05 l 0.01,212.223 h 9.082 z"
       id="path24"
       inkscape:connector-curvature="0"
       style="stroke-width:0.611" />
    <path
       d="m 259.34,132.85 h 2.302 l 0.02,214.666 h -2.306 L 259.34,132.849 Z m -8.984,0 h 2.322 l 0.003,214.668 h -2.323 V 132.85 Z"
       id="path26"
       inkscape:connector-curvature="0"
       style="stroke-width:0.611" />
    <path
       d="m 361.59,244.197 v -7.845 l -6.39,-5.952 -36.267,-9.6 -52.266,-5.334 -62.934,3.2 -44.8,10.667 -9.045,6.7 v 7.846 L 172.8,233.6 l 54.4,-8.534 h 52.267 l 38.4,4.267 26.666,6.4 z"
       id="path28"
       inkscape:connector-curvature="0"
       style="stroke-width:0.611" />
    <path
       d="m 255.947,223.755 c 24.942,-0.046 49.14,2.363 68.336,6.1 19.807,3.96 33.746,8.913 38.512,14.476 l -0.006,2.756 c -5.748,-6.923 -24.505,-11.998 -38.953,-14.9 -19.05,-3.705 -43.086,-6.098 -67.89,-6.05 -26.174,0.047 -50.546,2.526 -69.317,6.19 -15.06,2.987 -35.147,8.924 -37.655,14.78 v -2.868 c 1.377,-4.053 16.334,-10.11 37.316,-14.31 18.912,-3.69 43.33,-6.126 69.657,-6.173 z m 0.01,-9.06 c 24.942,-0.044 49.142,2.366 68.336,6.102 19.807,3.962 33.746,8.913 38.512,14.476 l -0.005,2.754 c -5.748,-6.92 -24.505,-11.997 -38.953,-14.897 -19.048,-3.707 -43.085,-6.1 -67.89,-6.052 -26.174,0.047 -50.427,2.528 -69.2,6.188 -14.534,2.756 -35.44,8.928 -37.772,14.784 v -2.87 c 1.377,-4.01 16.636,-10.284 37.317,-14.31 18.91,-3.69 43.328,-6.124 69.655,-6.173 z m -0.512,-46.205 c 39.306,-0.196 73.59,5.496 89.275,13.53 l 5.72,9.9 c -13.632,-7.348 -50.618,-14.988 -94.937,-13.845 -36.11,0.222 -74.696,3.975 -94.055,14.304 l 6.83,-11.424 c 15.89,-8.24 53.358,-12.42 87.17,-12.463"
       id="path30"
       inkscape:connector-curvature="0"
       style="stroke-width:0.611" />
    <path
       d="m 255.968,176.66 c 22.418,-0.058 44.08,1.206 61.308,4.315 16.043,2.986 31.344,7.467 33.53,9.877 l 1.698,2.998 c -5.32,-3.475 -18.56,-7.343 -35.562,-10.567 -17.073,-3.21 -38.72,-4.272 -61.013,-4.213 -25.305,-0.087 -44.963,1.25 -61.835,4.19 -17.843,3.34 -30.223,8.11 -33.277,10.375 l 1.662,-3.168 c 5.934,-3.028 15.35,-6.677 31.172,-9.525 17.447,-3.187 37.315,-4.143 62.317,-4.28 z m -0.01,-9.05 c 21.454,-0.055 42.637,1.14 59.15,4.11 13.022,2.534 25.9,6.492 30.617,10.014 l 2.48,3.942 c -4.217,-4.688 -20.09,-9.13 -34.105,-11.62 -16.385,-2.825 -36.688,-3.943 -58.142,-4.122 -22.515,0.063 -43.323,1.442 -59.47,4.382 -15.403,2.93 -25.343,6.402 -29.55,9.112 l 2.183,-3.292 c 5.805,-3.056 15.182,-5.862 26.99,-8.157 16.266,-2.962 37.202,-4.306 59.85,-4.37 z m 52.469,116.4 c -19.433,-3.627 -38.9,-4.154 -52.498,-3.994 -65.502,0.768 -86.662,13.45 -89.244,17.29 l -4.895,-7.98 c 16.677,-12.088 52.345,-18.866 94.493,-18.173 21.886,0.358 40.773,1.812 56.66,4.89 l -4.518,7.97"
       id="path32"
       inkscape:connector-curvature="0"
       style="stroke-width:0.611" />
    <path
       d="m 255.552,278.89 c 18.22,0.273 36.106,1.025 53.37,4.244 l -1.252,2.207 c -16.033,-2.958 -33.125,-4.09 -52.056,-4 -24.174,-0.188 -48.624,2.07 -69.91,8.18 -6.717,1.868 -17.836,6.186 -18.97,9.755 l -1.244,-2.05 c 0.36,-2.11 7.08,-6.488 19.642,-10.017 24.382,-6.982 47.188,-8.16 70.42,-8.32 v 0.003 z m 0.827,-9.17 c 18.877,0.354 38.372,1.227 57.322,4.98 L 312.4,277 c -17.112,-3.397 -33.46,-4.53 -55.91,-4.875 -24.25,0.044 -49.974,1.773 -73.363,8.573 -7.55,2.2 -20.583,6.955 -21.018,10.72 l -1.244,-2.203 c 0.283,-3.42 11.565,-7.88 21.715,-10.833 23.57,-6.853 49.36,-8.615 73.8,-8.66 z"
       id="path34"
       inkscape:connector-curvature="0"
       style="stroke-width:0.58700001" />
    <path
       d="m 349.42,290.54 -7.872,12.21 -22.615,-20.083 -58.666,-39.467 -66.134,-36.267 -34.336,-11.744 7.318,-13.57 2.485,-1.353 21.333,5.333 70.4,36.267 40.534,25.6 L 336,272 l 13.867,16 z"
       id="path36"
       inkscape:connector-curvature="0"
       style="stroke-width:0.611" />
    <path
       d="m 158.56,195.51 c 6.022,-4.085 50.282,15.63 96.592,43.556 46.188,28.004 90.322,59.65 86.338,65.57 l -1.31,2.062 -0.6,0.474 c 0.128,-0.092 0.792,-0.904 -0.066,-3.1 -1.968,-6.475 -33.275,-31.457 -85.22,-62.82 -50.64,-30.197 -92.844,-48.397 -97.064,-43.195 l 1.33,-2.548 z m 192.47,94.855 c 3.807,-7.522 -37.244,-38.447 -88.14,-68.557 -52.07,-29.51 -89.595,-46.88 -96.45,-41.7 l -1.522,2.77 c -0.014,0.153 0.055,-0.188 0.377,-0.436 1.246,-1.088 3.312,-1.015 4.244,-1.03 11.802,0.175 45.51,15.688 92.806,42.802 20.723,12.07 87.542,54.923 87.287,66.975 0.018,1.034 0.086,1.248 -0.304,1.76 l 1.7,-2.584 v -0.003 z"
       id="path38"
       inkscape:connector-curvature="0"
       style="stroke-width:0.611" />
  </g>
  <g
     transform="matrix(0.03555567,0,0,0.03555567,0,0.8889)"
     id="g94">
    <path
       d="m 180.6,211.01 c 0,16.27 6.663,30.987 17.457,41.742 10.815,10.778 25.512,17.58 41.81,17.58 16.38,0 31.246,-6.654 42.015,-17.39 10.77,-10.735 17.443,-25.552 17.446,-41.88 h -0.002 v -79.19 l -118.74,-0.14 0.012,79.278 z"
       id="path42"
       inkscape:connector-curvature="0"
       style="fill:#ffffff;stroke:#000000;stroke-width:0.67000002" />
    <path
       d="m 182.82,211.12 v 0.045 c 0,15.557 6.44,29.724 16.775,40.01 10.354,10.304 24.614,16.71 40.214,16.71 15.68,0 29.91,-6.36 40.22,-16.625 10.31,-10.265 16.698,-24.433 16.7,-40.044 h -0.002 V 134.39 l -113.84,-0.02 -0.07,76.75 m 91.022,-53.748 0.004,48.89 -0.04,5.173 c 0,1.36 -0.082,2.912 -0.24,4.233 -0.926,7.73 -4.48,14.467 -9.746,19.708 -6.164,6.136 -14.67,9.942 -24.047,9.942 -9.326,0 -17.638,-3.938 -23.828,-10.1 -6.35,-6.32 -10.03,-14.986 -10.03,-23.947 l -0.013,-54.022 67.94,0.122 v 0.002 z"
       id="path44"
       inkscape:connector-curvature="0"
       style="fill:#ff0000;stroke:#000000;stroke-width:0.50700003" />
    <g
       id="e">
      <g
         id="d"
         style="fill:#ffff00;stroke:#000000;stroke-width:0.5">
        <path
           d="m 190.19,154.43 c 0.135,-5.52 4.052,-6.828 4.08,-6.847 0.03,-0.02 4.232,1.407 4.218,6.898 l -8.298,-0.05"
           id="path46"
           inkscape:connector-curvature="0"
           style="stroke:none" />
        <path
           d="m 186.81,147.69 -0.682,6.345 4.14,0.01 c 0.04,-5.25 3.975,-6.124 4.07,-6.104 0.09,-0.004 3.99,1.16 4.093,6.104 h 4.152 l -0.75,-6.394 -15.022,0.038 v 0.002 z m -0.96,6.37 h 16.946 c 0.357,0 0.65,0.353 0.65,0.784 0,0.43 -0.293,0.78 -0.65,0.78 H 185.85 c -0.357,0 -0.65,-0.35 -0.65,-0.78 0,-0.43 0.293,-0.784 0.65,-0.784 z"
           id="path48"
           inkscape:connector-curvature="0" />
        <path
           d="m 192.01,154.03 c 0.018,-3.313 2.262,-4.25 2.274,-4.248 0,0 2.342,0.966 2.36,4.248 h -4.634 m -5.8,-8.98 h 16.245 c 0.342,0 0.623,0.318 0.623,0.705 0,0.387 -0.28,0.704 -0.623,0.704 H 186.21 c -0.342,0 -0.623,-0.316 -0.623,-0.705 0,-0.387 0.28,-0.705 0.623,-0.705 z m 0.34,1.42 h 15.538 c 0.327,0 0.595,0.317 0.595,0.704 0,0.388 -0.268,0.704 -0.595,0.704 H 186.55 c -0.327,0 -0.595,-0.316 -0.595,-0.704 0,-0.387 0.268,-0.704 0.595,-0.704 z m 5.02,-10.59 1.227,0.002 v 0.87 h 0.895 v -0.89 l 1.257,0.005 v 0.887 h 0.896 v -0.89 h 1.258 l -0.002,2.01 c 0,0.317 -0.254,0.52 -0.55,0.52 h -4.41 c -0.296,0 -0.57,-0.236 -0.57,-0.525 l -0.004,-1.99 z m 4.62,2.69 0.277,6.45 -4.303,-0.015 0.285,-6.452 3.74,0.017"
           id="path50"
           inkscape:connector-curvature="0" />
        <path
           id="a"
           d="m 190.94,141.56 0.13,3.478 h -4.124 l 0.116,-3.478 h 3.88 z"
           inkscape:connector-curvature="0" />
        <use
           height="100%"
           width="100%"
           xlink:href="#a"
           x="10.609"
           id="use53"
           y="0" />
        <path
           id="b"
           d="m 186.3,139.04 1.2,0.003 v 0.872 h 0.877 v -0.892 l 1.23,0.004 v 0.89 h 0.88 v -0.894 l 1.23,0.002 -0.003,2.012 c 0,0.314 -0.25,0.518 -0.536,0.518 h -4.317 c -0.29,0 -0.558,-0.235 -0.558,-0.525 z"
           inkscape:connector-curvature="0" />
        <use
           height="100%"
           width="100%"
           xlink:href="#b"
           x="10.609"
           id="use56"
           y="0" />
        <path
           d="m 193.9,140.61 c -0.026,-0.627 0.877,-0.634 0.866,0 v 1.536 H 193.9 v -1.536"
           id="path58"
           inkscape:connector-curvature="0"
           style="fill:#000000;stroke:none" />
        <path
           id="c"
           d="m 188.57,142.84 c -0.003,-0.606 0.837,-0.618 0.826,0 v 1.187 h -0.826 v -1.187"
           inkscape:connector-curvature="0"
           style="fill:#000000;stroke:none" />
        <use
           height="100%"
           width="100%"
           xlink:href="#c"
           x="10.641"
           id="use61"
           y="0" />
      </g>
      <use
         height="100%"
         width="100%"
         xlink:href="#d"
         y="46.32"
         id="use64"
         x="0" />
      <use
         height="100%"
         width="100%"
         xlink:href="#d"
         transform="rotate(-45.202,312.766,180.004)"
         id="use66"
         x="0"
         y="0" />
    </g>
    <use
       height="100%"
       width="100%"
       xlink:href="#d"
       x="45.714001"
       id="use69"
       y="0" />
    <use
       height="100%"
       width="100%"
       xlink:href="#e"
       transform="matrix(-1,0,0,1,479.792,0)"
       id="use71"
       x="0"
       y="0" />
    <g
       id="f"
       style="fill:#ffffff">
      <path
         d="m 232.636,202.406 v 0.005 a 8.34,8.34 0 0 0 2.212,5.69 c 1.365,1.467 3.245,2.378 5.302,2.378 2.067,0 3.944,-0.905 5.303,-2.365 1.358,-1.46 2.202,-3.472 2.202,-5.693 v -10.768 l -14.992,-0.013 -0.028,10.765"
         id="path73"
         inkscape:connector-curvature="0"
         style="fill:#003399" />
      <circle
         cx="236.07401"
         cy="195.735"
         r="1.4859999"
         id="circle75" />
      <circle
         cx="244.392"
         cy="195.742"
         r="1.4859999"
         id="circle77" />
      <circle
         cx="240.22501"
         cy="199.735"
         r="1.4859999"
         id="circle79" />
      <circle
         cx="236.07401"
         cy="203.916"
         r="1.4859999"
         id="circle81" />
      <circle
         cx="244.383"
         cy="203.905"
         r="1.4859999"
         id="circle83" />
    </g>
    <use
       height="100%"
       width="100%"
       xlink:href="#f"
       y="-26.016001"
       id="use86"
       x="0" />
    <use
       height="100%"
       width="100%"
       xlink:href="#f"
       x="-20.799"
       id="use88"
       y="0" />
    <use
       height="100%"
       width="100%"
       xlink:href="#f"
       x="20.745001"
       id="use90"
       y="0" />
    <use
       height="100%"
       width="100%"
       xlink:href="#f"
       y="25.784"
       id="use92"
       x="0" />
  </g>
</svg>
