<?xml version="1.0" encoding="UTF-8" standalone="no"?>
<svg
   xmlns:dc="http://purl.org/dc/elements/1.1/"
   xmlns:cc="http://creativecommons.org/ns#"
   xmlns:rdf="http://www.w3.org/1999/02/22-rdf-syntax-ns#"
   xmlns:svg="http://www.w3.org/2000/svg"
   xmlns="http://www.w3.org/2000/svg"
   xmlns:sodipodi="http://sodipodi.sourceforge.net/DTD/sodipodi-0.dtd"
   xmlns:inkscape="http://www.inkscape.org/namespaces/inkscape"
   height="15.999998"
   width="21.333332"
   viewBox="0 0 21.333332 15.999998"
   version="1.1"
   id="svg152"
   sodipodi:docname="sm.svg"
   inkscape:version="0.92.1 r">
  <metadata
     id="metadata158">
    <rdf:RDF>
      <cc:Work
         rdf:about="">
        <dc:format>image/svg+xml</dc:format>
        <dc:type
           rdf:resource="http://purl.org/dc/dcmitype/StillImage" />
        <dc:title></dc:title>
      </cc:Work>
    </rdf:RDF>
  </metadata>
  <defs
     id="defs156" />
  <sodipodi:namedview
     pagecolor="#ffffff"
     bordercolor="#666666"
     borderopacity="1"
     objecttolerance="10"
     gridtolerance="10"
     guidetolerance="10"
     inkscape:pageopacity="0"
     inkscape:pageshadow="2"
     inkscape:window-width="1920"
     inkscape:window-height="1024"
     id="namedview154"
     showgrid="false"
     fit-margin-top="0"
     fit-margin-left="0"
     fit-margin-right="0"
     fit-margin-bottom="0"
     inkscape:zoom="0.49166667"
     inkscape:cx="320"
     inkscape:cy="240"
     inkscape:window-x="0"
     inkscape:window-y="0"
     inkscape:window-maximized="1"
     inkscape:current-layer="svg152" />
  <g
     id="g6"
     transform="scale(0.03333333)"
     style="fill-rule:evenodd;stroke-width:1.00000003pt">
    <path
       d="M 0,240 H 640 V 480 H 0 Z"
       id="path2"
       inkscape:connector-curvature="0"
       style="fill:#19b6ef" />
    <path
       d="M 0,0 H 640 V 240 H 0 Z"
       id="path4"
       inkscape:connector-curvature="0"
       style="fill:#ffffff" />
  </g>
  <path
     d="m 10.569,11.30737 c 1.748333,-1.30797 3.632,-3.97687 1.424667,-5.38034 -0.4112,-0.0796 -0.870234,-0.0557 -1.090434,0.1194 -0.1167,-0.0663 -0.2096,-0.061 -0.326333,0.0637 C 10.4947,6.0093 10.4124,5.96416 10.242633,6.01463 9.9030333,5.84217 9.5953,5.805 9.1920667,5.9111 7.2713,7.06517 8.4465333,9.8031 10.569,11.30737 Z"
     id="path8"
     inkscape:connector-curvature="0"
     style="fill:#ffdd00;fill-rule:evenodd;stroke:#7d6c00;stroke-width:0.07895418" />
  <g
     id="g20"
     transform="scale(0.03333333)"
     style="stroke:#3a9d4f">
    <path
       d="m 414.08,250.106 c 0,0 5.903,-7.939 6.106,-7.939 5.904,-3.46 6.515,-7.938 6.515,-7.938 5.903,-1.833 4.07,-6.718 4.477,-7.328 2.852,-3.053 1.833,-6.108 1.426,-7.126 0,-0.812 2.036,-8.345 -0.814,-9.362 0.135,-8.008 -4.818,-7.261 -8.754,-2.036 -4.207,1.221 -5.157,4.682 -3.664,8.55 -5.497,0 -5.7,7.939 -4.071,12.416 -7.328,-0.203 -3.257,7.939 -3.461,8.347 -2.442,1.221 1.832,12.824 2.24,12.416 z m -46.223,68.194 3.664,2.239 c 0.746,2.781 3.325,4.547 5.294,4.072 0.95,4.274 5.563,3.665 8.956,1.221 2.714,3.936 6.04,4.005 10.586,2.647 4.07,2.985 9.364,1.696 12.824,-1.426 3.731,3.053 6.243,0.815 8.142,-2.442 2.917,0.746 5.224,0.272 6.31,-2.647 5.7,-0.474 2.85,-5.835 -1.83,-8.142 3.73,-3.258 7.87,-9.975 2.035,-10.993 -1.833,-1.356 -5.292,-1.084 -7.94,0.205 -0.677,-2.987 -4.818,-3.733 -9.364,-0.408 -1.56,-3.325 -6.989,-1.764 -9.568,0.611 -3.256,-2.85 -7.124,-2.85 -12.824,0.406 z m 0,-8.745 c 0.678,-3.731 -1.9,-10.517 2.035,-11.195 -0.746,-6.243 0.34,-13.3 7.532,-12.621 1.155,-5.903 0.883,-11.4 7.736,-12.215 0,0 5.497,-19.134 11.197,-5.903 2.239,3.87 1.832,10.177 -2.647,8.956 0.883,4.751 -0.678,8.889 -5.903,8.754 2.307,3.324 1.56,7.872 -1.018,9.976 -6.311,4.748 -12.62,9.5 -18.932,14.248 z m 33.18,-23.82 5.904,-1.22 c 6.106,-4.071 8.55,-5.7 11.603,-1.223 5.089,-1.086 9.974,-0.543 9.771,3.461 6.04,0.407 5.971,4.274 5.294,7.328 0.949,5.36 -1.358,12.35 -5.09,3.867 -11.807,-7.192 -18.525,-6.243 -37.253,-2.035 z m 3.065,-5.913 c 0.205,-0.203 17.507,-4.682 15.675,-9.974 4.885,-0.815 5.904,-5.7 6.108,-5.7 10.177,-3.256 9.566,-9.161 9.566,-9.161 2.918,-3.122 8.075,-6.243 6.922,-11.807 0.34,-6.31 0.882,-10.177 -7.532,-6.106 -6.311,-0.612 -8.55,3.053 -10.382,8.55 -2.985,-3.528 -7.802,2.104 -8.345,7.124 0,0 -7.736,7.532 -7.736,7.735 0,0.203 -6.514,12.01 -6.514,12.01 l 2.238,7.33 z"
       id="path10"
       inkscape:connector-curvature="0"
       style="fill:#4fd46b;fill-rule:evenodd;stroke-width:2.3686254;stroke-linejoin:round" />
    <path
       d="m 404.502,266.397 c -4.14,-3.122 -6.446,-6.853 -5.7,-10.586 -2.713,-3.664 -4.614,-5.903 -2.035,-9.16 0,0 -2.036,-7.329 -2.036,-7.532 -5.292,-2.035 -3.053,-6.513 -1.629,-8.142 -2.51,-3.461 -2.578,-7.126 -0.203,-10.382 -0.068,-6.515 4.546,-4.071 8.345,0 0,0 6.311,4.479 1.63,8.55 4.681,1.629 6.107,5.698 3.46,7.327 4.071,1.833 4.681,5.497 2.442,7.94 4.14,3.326 2.579,7.465 3.868,11.196 z"
       id="path12"
       inkscape:connector-curvature="0"
       style="fill:#4fd46b;fill-rule:evenodd;stroke-width:2.3686254;stroke-linejoin:round" />
    <path
       d="m 411.831,236.064 c -0.203,-0.203 -6.92,-8.753 -5.089,-9.364 -0.406,-2.647 -2.441,-5.497 -1.22,-8.142 -3.325,-3.325 -3.394,-7.26 -0.815,-10.38 -2.239,-3.054 -1.221,-7.125 1.832,-9.772 -0.95,-5.022 2.579,-6.175 5.7,-7.126 2.307,-8.075 6.038,-5.971 8.142,0.203 3.19,2.782 2.715,6.99 1.63,10.18 3.799,2.578 1.492,5.766 -0.204,7.124 z"
       id="path14"
       inkscape:connector-curvature="0"
       style="fill:#4fd46b;fill-rule:evenodd;stroke-width:2.3686254;stroke-linejoin:round" />
    <path
       d="m 410.815,193.106 -5.7,-5.7 c 1.473,-3.02 2.659,-8.344 -1.627,-10.789 -2.364,-5.757 -14.182,-12.892 -16.083,0.815 -1.799,-4.136 -5.563,-8.21 -8.345,-3.46 -6.175,-5.292 -9.5,-3.665 -6.311,3.053 0,0 -2.848,4.478 4.682,7.939 0.611,0.61 -2.442,8.142 6.515,8.345 -1.696,2.579 1.086,6.175 4.682,5.903 -2.579,3.19 1.764,6.583 4.477,5.294 -1.154,3.528 -1.086,5.225 3.868,5.7 l 5.497,6.31 4.477,6.106 z"
       id="path16"
       inkscape:connector-curvature="0"
       style="fill:#4fd46b;fill-rule:evenodd;stroke-width:2.3686254;stroke-linejoin:round" />
    <path
       d="m 414.28,246.508 c 0.288,-0.288 10.938,-24.757 12.378,-32.243 M 415.43,203.05 c 0,0 1.726,19.864 -3.167,34.545 m -29.648,-54.7 c 0,0 21.879,21.015 23.893,29.651 m -8.635,-31.95 c 0,0 1.439,17.274 7.484,34.259 m 31.093,28.488 c 0,0 -21.879,18.425 -32.53,34.545 m 11.792,29.952 c 0,0 -28.788,4.03 -41.454,4.318 m 31.96,8.057 c 0,0 -35.698,-0.864 -38.29,-3.454 m 20.433,-42.902 c 0,0.287 -18.136,30.226 -18.712,40.015"
       id="path18"
       inkscape:connector-curvature="0"
       style="fill:none;stroke-width:2.22037816;stroke-linecap:round" />
  </g>
  <path
     d="M 10.562333,11.1147 C 9.3034,9.92723 8.0138667,7.69863 9.2966,6.57237 c 0.228,0.12933 0.4967667,0.0136 0.867667,-0.13267 0.112266,0.12247 0.255133,0.15313 0.398066,0.0612 0.1599,0.0681 0.279,0.0136 0.357267,-0.0715 0.364067,0.211 0.8302,0.31986 0.939067,0.11233 1.262333,1.19767 -0.01703,3.4365 -1.296334,4.5729 z"
     id="path22"
     inkscape:connector-curvature="0"
     style="fill:#65c7ff;fill-rule:evenodd;stroke:#7d6c00;stroke-width:0.07895418" />
  <path
     d="M 10.569533,11.08027 C 10.0289,10.5367 9.5356333,9.9341 9.1579667,9.15827 c 0.064633,-0.0544 0.094667,-0.0713 0.1287,-0.16657 0.1939333,0.0273 0.296,0.034 0.5512,-0.0102 0.051,0.19057 0.061233,0.35047 0.1837003,0.51037 l 0.2552,-0.50017 c 0.1735,0.0409 0.3879,0.0511 0.551166,0 0.1055,0.14293 0.06807,0.35733 0.2552,0.5206 0.112267,-0.33 0.2246,-0.35383 0.336867,-0.5308 0.166733,0.0579 0.272233,0.034 0.408333,-0.0102 0.07143,0.0817 0.03573,0.0803 0.165834,0.20023 -0.3411,0.67733 -0.808834,1.3576 -1.424634,1.90877 z"
     id="path24"
     inkscape:connector-curvature="0"
     style="fill:#8fc753;fill-rule:evenodd;stroke-width:0.03333334" />
  <path
     d="m 9.0883333,5.4768 a 0.11153333,0.11153333 0 1 1 -0.2230666,0 0.11153333,0.11153333 0 0 1 0.2230666,0 z m -0.1164,-0.257 a 0.11153333,0.11153333 0 1 1 -0.2230333,0 0.11153333,0.11153333 0 0 1 0.2230333,0 z M 8.8361667,4.98217 a 0.11153335,0.11153335 0 1 1 -0.2230667,0 0.11153335,0.11153335 0 0 1 0.2230667,0 z M 8.7440337,4.7494 a 0.11153333,0.11153333 0 1 1 -0.2230666,0 0.11153333,0.11153333 0 0 1 0.2230666,0 z m 0.014533,-0.25213 a 0.11153333,0.11153333 0 1 1 -0.2230334,0 0.11153333,0.11153333 0 0 1 0.2230334,0 z M 9.3473333,4.08023 a 0.11153333,0.11153333 0 1 1 -0.2230666,0 0.11153333,0.11153333 0 0 1 0.2230666,0 z"
     id="path26"
     inkscape:connector-curvature="0"
     style="fill:#ffffff;fill-rule:evenodd;stroke:#000000;stroke-width:0.03703406" />
  <path
     d="m 9.1271333,4.11903 a 0.11153333,0.11153333 0 1 1 -0.2230666,0 0.11153333,0.11153333 0 0 1 0.2230666,0 z M 8.8846667,4.2645 a 0.11153335,0.11153335 0 1 1 -0.2230667,0 0.11153335,0.11153335 0 0 1 0.2230667,0 z M 9.6314333,4.08507 a 0.11153333,0.11153333 0 1 1 -0.2230666,0 0.11153333,0.11153333 0 0 1 0.2230666,0 z M 9.9418,4.10937 a 0.11153335,0.11153335 0 1 1 -0.2230667,0 0.11153335,0.11153335 0 0 1 0.2230667,0 z m 0.2764,-0.0146 a 0.11153335,0.11153335 0 1 1 -0.2230667,0 0.11153335,0.11153335 0 0 1 0.2230667,0 z"
     id="path28"
     inkscape:connector-curvature="0"
     style="fill:#ffffff;fill-rule:evenodd;stroke:#000000;stroke-width:0.03703406" />
  <path
     d="m 10.862467,3.9168 a 0.2861,0.2861 0 1 1 -0.5722,0 0.2861,0.2861 0 0 1 0.5722,0 z"
     id="path30"
     inkscape:connector-curvature="0"
     style="fill:#ffdd00;fill-rule:evenodd;stroke:#7d6c00;stroke-width:0.03703137" />
  <path
     d="m 11.163767,4.08993 a 0.1115335,0.1115335 0 1 1 -0.223067,0 0.1115335,0.1115335 0 0 1 0.223067,0 z m 0.290966,0.0242 a 0.11153333,0.11153333 0 1 1 -0.223033,0 0.11153333,0.11153333 0 0 1 0.223033,0 z M 11.736,4.0996 a 0.11155,0.11155 0 1 1 -0.2231,0 0.1115335,0.1115335 0 0 1 0.223067,0 z m 0.237567,-0.01 a 0.1115335,0.1115335 0 1 1 -0.223067,0 0.1115335,0.1115335 0 0 1 0.223067,0 z M 12.2694,4.1235 a 0.1115335,0.1115335 0 1 1 -0.223067,0 0.1115335,0.1115335 0 0 1 0.223067,0 z m 0.232733,0.14546 a 0.11153333,0.11153333 0 1 1 -0.223066,0 0.11153333,0.11153333 0 0 1 0.223066,0 z"
     id="path32"
     inkscape:connector-curvature="0"
     style="fill:#ffffff;fill-rule:evenodd;stroke:#000000;stroke-width:0.03703406" />
  <path
     d="M 8.9804667,5.05657 C 9.0754667,5.23723 9.1704,5.4249 9.2654,5.60557 h 2.641 l 0.3058,-0.5282 C 12.0338,4.9546 11.911033,4.8596 11.6562,4.91753 11.512533,4.71137 11.355033,4.672 11.121067,4.69517 11.051537,4.62337 10.988967,4.57933 10.8708,4.56313 l -0.555933,0.0139 c -0.146,0.0139 -0.2572,0.1251 -0.264134,0.1251 C 9.8144,4.67427 9.599,4.6812 9.5434,4.91057 9.3279667,4.85727 9.1750667,4.91557 8.9804667,5.05657 Z"
     id="path34"
     inkscape:connector-curvature="0"
     style="fill:#e40000;fill-rule:evenodd;stroke:#ac0000;stroke-width:0.07895418" />
  <path
     d="m 12.599133,4.5118 a 0.11153333,0.11153333 0 1 1 -0.223066,0 0.11153333,0.11153333 0 0 1 0.223066,0 z m 0.0194,0.26187 a 0.11153333,0.11153333 0 1 1 -0.223066,0 0.11153333,0.11153333 0 0 1 0.223066,0 z m -0.08247,0.24246 a 0.1115335,0.1115335 0 1 1 -0.223067,0 0.1115335,0.1115335 0 0 1 0.223067,0 z m -0.101834,0.1988 a 0.11153333,0.11153333 0 1 1 -0.223066,0 0.11153333,0.11153333 0 0 1 0.223066,0 z M 12.313,5.4671 a 0.11153333,0.11153333 0 1 1 -0.223,0 0.11153333,0.11153333 0 0 1 0.223,0 z"
     id="path36"
     inkscape:connector-curvature="0"
     style="fill:#ffffff;fill-rule:evenodd;stroke:#000000;stroke-width:0.03703406" />
  <path
     d="m 10.7522,5.14747 a 0.1648835,0.1648835 0 1 1 -0.329767,0 0.1648835,0.1648835 0 0 1 0.329767,0 z"
     id="path38"
     inkscape:connector-curvature="0"
     style="fill:#ffffff;fill-rule:evenodd;stroke:#000000;stroke-width:0.03701808" />
  <path
     d="m 10.784867,4.76817 a 0.1988335,0.1988335 0 1 1 -0.397667,0 0.1988335,0.1988335 0 0 1 0.397667,0 z"
     id="path40"
     inkscape:connector-curvature="0"
     style="fill:#ffffff;fill-rule:evenodd;stroke:#000000;stroke-width:0.03701703" />
  <path
     d="m 10.756167,4.39983 a 0.17943333,0.17943333 0 1 1 -0.358834,0 0.17943333,0.17943333 0 0 1 0.358834,0 z"
     id="path42"
     inkscape:connector-curvature="0"
     style="fill:#ffffff;fill-rule:evenodd;stroke:#000000;stroke-width:0.03697862" />
  <path
     d="m 10.516233,3.63517 c 0,-0.0309 -9.33e-4,-0.13884 0.0012,-0.14317 l -0.119067,-0.002 0.0034,-0.10584 0.103333,-10e-4 0.0012,-0.0925 h 0.1465 v 0.0848 h 0.115666 l -0.0024,0.1126 -0.12,-10e-4 -10e-4,0.15086 z"
     id="path44"
     inkscape:connector-curvature="0"
     style="fill:#ffdd00;fill-rule:evenodd;stroke:#7d6c00;stroke-width:0.03703406" />
  <path
     d="M 9.252,5.60567 C 9.0156,5.2049 8.6683333,4.6601 8.8835667,4.4242 9.1820667,4.0861 9.882,4.3918 10.329133,4.19483 c 0.0324,0.38227 -0.07413,1.01467 0.09733,1.14677 l -0.159867,0.139 C 10.169266,5.3555 9.985996,5.18787 9.7592627,5.4876 9.6295293,5.37417 9.4820627,5.3941 9.412596,5.5449 9.346529,5.5539 9.350363,5.5802 9.2519627,5.6057 Z m 2.670667,-0.0139 C 12.159,5.191 12.506333,4.6462 12.291033,4.4103 11.992533,4.0722 11.292633,4.3779 10.8455,4.1809 10.81307,4.5632 10.9196,5.1956 10.74817,5.3277 l 0.159833,0.139 c 0.1538,-0.2163 0.345767,-0.2233 0.507333,0.007 0.129767,-0.11343 0.264167,-0.0979 0.346667,0.0574 0.0661,0.009 0.06227,0.0353 0.160667,0.0608 z"
     id="path46"
     inkscape:connector-curvature="0"
     style="fill:none;stroke:#ffdd00;stroke-width:0.11104666" />
  <path
     d="M 9.2447667,5.9044 C 10.1946,5.8071 11.0749,5.8418 11.885767,5.9044 L 11.99,5.6055 C 11.068,5.43873 10.4309,5.4179 9.2239333,5.5847 l 0.020833,0.31967 z"
     id="path48"
     inkscape:connector-curvature="0"
     style="fill:#ffdd00;fill-rule:evenodd;stroke:#7d6c00;stroke-width:0.07895418" />
  <path
     d="m 10.4707,10.97923 c 0.0068,-0.0477 0.0136,-0.0921 0.02043,-0.1397 0.09447,0.0254 0.166534,0.0156 0.245,-0.0134 0.02717,-0.0408 0.05443,-0.0817 0.08167,-0.12253 l -0.06127,-0.0714 c -0.05383,0.0116 -0.09803,0.0617 -0.132666,0.10527 -0.05427,0.003 -0.102134,-0.0237 -0.153167,-0.0339 l -0.051,-0.21433 c -0.05067,-0.0598 -0.1557,-0.0556 -0.132733,0.051 l 0.01023,0.0817 c 0.02043,0.051 0.02803,0.1213 0.06123,0.1595 v 0.0837 c 0.03743,0.038 0.07487,0.076 0.112267,0.11406 z m 0.04053,-0.60966 c -0.071,0.0352 -0.1553,-0.026 -0.244966,-0.0612 -0.08167,-0.006 -0.1473,0.0624 -0.244967,0.0408 0.01783,-0.053 0.06123,-0.0612 0.0919,-0.0919 -0.02243,-0.1377 0.051,-0.18374 0.07147,-0.18374 0.02033,0 0.102033,0.0204 0.102033,0.0204 l 0.08167,0.0102 c 0.04767,0.0885 0.114433,0.16733 0.142866,0.2654 z"
     id="path50"
     inkscape:connector-curvature="0"
     style="fill:#c76e2e;fill-rule:evenodd;stroke-width:0.03333334" />
  <path
     d="M 10.025967,12.20297 C 10.2615,11.82057 11.901267,11.0527 13.440033,9.3946 11.8737,10.9027 10.8948,11.27293 9.6129667,12.19373 Z"
     id="path52"
     inkscape:connector-curvature="0"
     style="fill:#ffe100;fill-rule:evenodd;stroke:#e9bf00;stroke-width:0.07895418" />
  <path
     d="m 12.2802,10.43953 a 0.1194,0.1194 0 1 1 -0.238767,0 0.1194,0.1194 0 0 1 0.238767,0 z m 1.146,-1.1621 a 0.13533333,0.13533333 0 1 1 -0.2706,0 0.13533333,0.13533333 0 0 1 0.2706,0 z m 0.3822,-0.987 a 0.1194,0.1194 0 1 1 -0.238767,0 0.1194,0.1194 0 0 1 0.238767,0 z M 13.434,7.00933 a 0.1194,0.1194 0 1 1 -0.2388,0 0.1194,0.1194 0 0 1 0.2388,0 z"
     id="path54"
     inkscape:connector-curvature="0"
     style="fill:#9d4916;fill-rule:evenodd;stroke:#68300e;stroke-width:0.03703406" />
  <path
     d="M 9.3041667,8.9865 V 8.48157 l -0.051333,-0.0428 v -0.1198 l 0.094133,-0.009 0.0171,-0.56483 -0.0599,-0.0343 -0.00857,-0.0941 c 0,0 0.068467,0.0257 0.068467,0.009 0,-0.0171 0.0171,-0.1113 0.0171,-0.1113 0,0 -0.042733,-0.009 -0.042733,-0.0257 0,-0.0171 0.0513,-0.0599 0.0513,-0.0599 0,0 -0.025667,-0.0257 -0.0342,-0.0428 -0.00853,-0.0171 -0.025667,-0.0941 -0.025667,-0.0941 l 0.025667,-0.0942 -0.0171,-0.0513 -0.042833,-0.077 0.059933,-0.0599 c 0,0 -0.0171,-0.077 -0.0171,-0.0941 0,-0.0171 0.042733,-0.0856 0.0513,-0.0942 0.0086,-0.009 0.077067,-0.10267 0.077067,-0.10267 l 0.1454667,-0.0342 0.1711666,0.0257 0.094133,0.0599 0.0171,0.154 c 0,0 -0.0171,0.0941 -0.025667,0.0941 -0.00857,0 -0.077,0.0343 -0.077,0.0343 0,0 -0.085633,0.009 -0.094167,0 -0.00853,-0.009 0.025667,0.1027 0.025667,0.1027 V 7.25774 L 9.714967,7.3861 c 0,0 0,0.0599 -0.0086,0.0685 C 9.697837,7.4636 9.6807,7.4889 9.6807,7.4889 l -0.00853,0.12836 0.1369333,0.0342 -0.00857,0.0771 -0.094167,0.009 0.017167,0.522 0.1369334,0.0257 V 8.4308 l -0.059933,0.0342 -0.0171,0.522 h -0.479267 z m 2.0799003,0.009 V 8.49056 l -0.05133,-0.0427 V 8.32803 l 0.09413,-0.009 0.0171,-0.56483 -0.0599,-0.0343 -0.0086,-0.0941 c 0,0 0.06847,0.0257 0.06847,0.009 0,-0.0171 0.0171,-0.11127 0.0171,-0.11127 0,0 -0.04273,-0.009 -0.04273,-0.0257 0,-0.0171 0.0513,-0.0599 0.0513,-0.0599 0,0 -0.02567,-0.0257 -0.0342,-0.0428 -0.0085,-0.0171 -0.02567,-0.0941 -0.02567,-0.0941 l 0.02567,-0.0942 -0.0171,-0.0513 -0.04283,-0.077 0.05993,-0.0599 c 0,0 -0.0171,-0.077 -0.0171,-0.0941 0,-0.0171 0.04273,-0.0856 0.0513,-0.0942 0.0086,-0.009 0.07707,-0.10267 0.07707,-0.10267 l 0.145467,-0.0343 0.171166,0.0257 0.09413,0.0599 0.0171,0.154 c 0,0 -0.0171,0.0941 -0.02567,0.0941 -0.0086,0 -0.077,0.0342 -0.077,0.0342 0,0 -0.08563,0.009 -0.09417,0 -0.0085,-0.009 0.0257,0.10273 0.0257,0.10273 v 0.10267 l -0.0085,0.12833 c 0,0 0,0.0599 -0.0086,0.0685 -0.0085,0.009 -0.02567,0.0342 -0.02567,0.0342 l -0.0085,0.1284 0.136933,0.0342 -0.0086,0.0771 -0.09417,0.009 0.01717,0.52204 0.136934,0.0257 v 0.1455 l -0.05993,0.0342 -0.0171,0.52204 z M 10.331333,9.0127 V 8.50777 L 10.28,8.4649 V 8.3451 l 0.09417,-0.009 0.0171,-0.56483 -0.05993,-0.0343 -0.0085,-0.0941 c 0,0 0.06847,0.0257 0.06847,0.009 0,-0.0171 0.0171,-0.11127 0.0171,-0.11127 0,0 -0.04277,-0.009 -0.04277,-0.0257 0,-0.0171 0.05133,-0.0599 0.05133,-0.0599 0,0 -0.02567,-0.0257 -0.03423,-0.0428 -0.0086,-0.0171 -0.02567,-0.0941 -0.02567,-0.0941 l 0.02567,-0.0942 -0.0171,-0.0513 -0.0428,-0.077 0.0599,-0.0599 c 0,0 -0.0171,-0.077 -0.0171,-0.0941 0,-0.0171 0.04277,-0.0856 0.05133,-0.0942 0.0086,-0.009 0.07703,-0.10267 0.07703,-0.10267 l 0.145466,-0.0343 0.1712,0.0257 0.0941,0.0599 0.0171,0.154 c 0,0 -0.0171,0.0941 -0.02567,0.0941 -0.0086,0 -0.077,0.0343 -0.077,0.0343 0,0 -0.0856,0.009 -0.09417,0 -0.0086,-0.009 0.0257,0.1027 0.0257,0.1027 V 7.2838 l -0.0085,0.12836 c 0,0 0,0.0599 -0.0086,0.0685 -0.0086,0.009 -0.02567,0.0343 -0.02567,0.0343 l -0.0085,0.12833 0.1369,0.0342 -0.0085,0.0771 -0.09417,0.009 0.01713,0.52204 0.136933,0.0257 v 0.14554 l -0.0599,0.0342 -0.0171,0.522 h -0.4793 z"
     id="path56"
     inkscape:connector-curvature="0"
     style="fill:#ffffff;fill-rule:evenodd;stroke:#a9a9a9;stroke-width:0.03703406" />
  <path
     d="M 9.4307667,8.98317 V 8.58523 H 9.6536333 V 8.9991 Z m 1.0505003,0.0316 0.0079,-0.40593 h 0.199 v 0.39793 z m 1.034933,-0.008 -0.01593,-0.382 0.214933,-0.008 v 0.398 z M 9.4862667,7.80497 H 9.6136 V 8.0119 H 9.4862667 Z m 1.0110663,0.008 h 0.175134 v 0.199 h -0.1751 z m 1.034434,0.0155 H 11.683 v 0.191 h -0.151233 z"
     id="path58"
     inkscape:connector-curvature="0"
     style="fill-rule:evenodd;stroke-width:0.03333334" />
  <path
     d="m 9.5523333,6.89883 c 0.1369334,0.154 0.1455,0.154 0.1455,0.154 m 0.8728337,-0.154 c 0.02563,0.0513 0.06843,0.16257 0.1198,0.1711 m 0.975666,-0.1456 c 0,0 0.0428,0.11984 0.1027,0.13694"
     id="path60"
     inkscape:connector-curvature="0"
     style="fill:none;stroke:#a8a8a8;stroke-width:0.03703406" />
  <path
     d="M 9.4068667,6.4674 C 9.8072667,6.33797 9.3133337,6.07913 9.2313,6.4674 9.1017667,6.4883 9.085,6.58443 8.805,6.5427 8.1279,7.6461 8.6294333,9.42663 10.610633,11.2699 7.0620667,8.2501 8.5041667,6.01643 9.4868333,6.10067 10.0213,6.13717 9.7516667,6.80387 9.4068667,6.4674 Z"
     id="path62"
     inkscape:connector-curvature="0"
     style="fill:#b97700;fill-rule:evenodd;stroke-width:0.03333334" />
  <path
     d="m 9.5184667,5.90163 c 0,0 0.3260333,0.0878 0.3260333,0.22567 M 9.8444,5.87663 c 0,0 0.2257,0.10027 0.275833,0.18807 m 1.5048,-0.1503 c 0,0 -0.288433,0.0376 -0.351133,0.12533 M 11.18583,5.93937 c 0,0 -0.162933,0.13793 -0.150466,0.1755 m 0.1133,0.42636 c -0.0251,-0.0125 -0.137934,-0.163 -0.1129,-0.3511 m -0.990934,0.2512 c 0,0 0.07523,-0.0878 0.07523,-0.25083 m 0.4517,-0.0629 0.01253,0.36363 m 0.313367,-0.0499 c 0,-0.0251 0.100333,-0.26333 -0.01253,-0.3762 m -0.677066,-0.0502 c 0,0 -0.08777,0.23823 -0.025,0.43883 M 10.8477,6.2281 c 0,0 -0.1379,0.0376 -0.200667,0.10033 m -0.388966,-0.0631 c 0,-0.0125 0.150466,-0.0376 0.2006,0.0502"
     id="path64"
     inkscape:connector-curvature="0"
     style="fill:none;stroke:#7d6c00;stroke-width:0.07895418" />
  <path
     d="m 10.021,10.062 c 0.0063,0.003 0.124833,-0.0225 0.124833,-0.0801 0.06087,-0.0384 0.016,-0.1473 0.016,-0.1473 L 10.0498,9.8122 9.8960333,9.6393 c -0.00743,-0.0533 0.010733,-0.10347 -0.022367,-0.16007 -0.1056667,0.0278 -0.1665,0.11633 -0.2017667,0.2177 0.025667,0.0321 0.028867,0.0673 0.0769,0.0961 0.050133,0.009 0.084267,-0.0213 0.1312667,-0.0128 0.024533,0.0427 0.017,0.079 0.025567,0.1185 0.0641,0.0448 0.0769,0.10887 0.1153337,0.16327 z M 9.8832667,9.3224 V 9.11747 l -0.1473,-0.006 c -0.018167,0.031 -0.052333,0.0459 -0.073667,0.0737 L 9.559833,9.23647 c 0.0427,0.0512 0.095,0.0801 0.1281,0.10566 0.074733,0.0224 0.1366667,0.0224 0.1953334,-0.0192 z m -0.4614,0.30427 -0.080067,-0.13454 c 0.0491,-0.016 0.111,-0.01 0.1569,0.01 0,0 0.035267,0.0833 0.00963,0.11526 -0.012833,0.0288 -0.089667,0.016 -0.086467,0.01 z m 1.2170663,0.1377 c 0.0427,-0.0213 0.0822,-0.0587 0.08967,-0.11204 l -0.1473,-0.16973 -0.134467,-0.003 c -0.03093,-0.032 -0.08113,-0.0384 -0.121666,-0.0384 0,0 0.04167,0.064 0.09607,0.0769 0.03843,0.0864 0.204934,0.2465 0.2177,0.2465 z m 0.1444,0.0189 c 0,-0.003 0.131234,-0.048 0.201667,-0.0416 -0.0063,-0.0545 0.0993,-0.17934 0.0993,-0.17934 l 0.185733,0.24334 c -0.03417,0.0288 -0.09397,0.0192 -0.140933,0.0288 0,0 -0.08967,0.0865 -0.09927,0.0897 -0.0096,0.003 -0.1729,0.0416 -0.253,-0.006 -0.03517,-0.0673 0.0097,-0.14417 0.0065,-0.13453 z M 10.8888,9.3574 c 0.02243,-0.0779 0.0288,-0.15587 0,-0.253 0,0 -0.211367,-0.003 -0.211367,0 0,0.003 -0.140866,0.064 -0.140866,0.0673 0,0.003 0.04487,0.13766 0.09927,0.12486 0.02453,0.0715 0.0971,0.0533 0.131267,0.0801 0.04057,-0.006 0.0811,-0.0128 0.1217,-0.0192 z m 0.829533,-0.21433 c -0.02883,0.0886 -0.04483,0.18363 -0.0032,0.269 0.03843,0.006 0.08327,0.032 0.1185,0.0256 l 0.169733,-0.30744 c -0.117433,-0.0373 -0.212433,-0.0331 -0.285,0.0128 z"
     id="path66"
     inkscape:connector-curvature="0"
     style="fill:#c76e2e;fill-rule:evenodd;stroke-width:0.03333334" />
  <path
     d="m 11.7705,6.43967 c -0.400367,-0.12947 0.09357,-0.38834 0.175567,0 0.129533,0.0209 0.146333,0.117 0.426333,0.0753 0.6771,1.1034 0.175533,2.88394 -1.805667,4.7272 C 14.1153,8.22237 12.6732,5.98871 11.690567,6.07294 11.1561,6.10944 11.4257,6.77614 11.770497,6.43967 Z"
     id="path68"
     inkscape:connector-curvature="0"
     style="fill:#b97700;fill-rule:evenodd;stroke-width:0.03333334" />
  <path
     d="m 11.811033,9.489 c -0.0064,0 -0.102433,0.0704 -0.102433,0.0704 -0.04593,0.0181 -0.09177,0.0363 -0.137667,0.0545 l -0.147333,0.003 -0.03203,-0.10246 0.1121,-0.0993 c -0.095,-0.0139 -0.19,0.0235 -0.2658,0.0929 0,0 0,0.11203 0.06407,0.1665 0.03843,0.048 0.150467,0.1345 0.150467,0.1345 0.07047,0.0139 0.1377,0.002 0.182533,-0.0353 0.05867,-0.095 0.117434,-0.18996 0.1761,-0.28496 z m -0.7751,1.0055 c 0.0481,0.0128 0.3779,-0.42587 0.3779,-0.42587 -0.02883,-0.0822 -0.0929,-0.14196 -0.163333,-0.17933 0,0 -0.160167,0.1889 -0.163333,0.25297 -0.02557,0.0576 -0.0992,0.27856 -0.06723,0.30743 -0.0032,0.006 -0.016,0.096 0.016,0.0448 z"
     id="path70"
     inkscape:connector-curvature="0"
     style="fill:#c76e2e;fill-rule:evenodd;stroke-width:0.03333334" />
  <path
     d="m 8.8788667,10.58 c -0.4939,-0.42957 -1.1603,-0.66637 -2.0905334,-0.345 0.2503334,0.10827 0.5209334,0.14547 0.7509667,0.26383 z"
     id="path72"
     inkscape:connector-curvature="0"
     style="fill:#006800;fill-rule:evenodd;stroke:#004100;stroke-width:0.07895418;stroke-linejoin:round" />
  <path
     d="m 7.448,10.2752 c 0.9742333,0.0203 1.2584,0.26377 1.2076667,0.2232"
     id="path74"
     inkscape:connector-curvature="0"
     style="fill:none;stroke:#00a400;stroke-width:0.07401261;stroke-linecap:round" />
  <path
     d="M 8.8988333,10.63053 C 8.6079,10.68803 8.2053667,10.969 8.0869667,10.95523 7.7689667,10.91823 7.4718333,10.7894 7.1635,10.6914 c -0.1280667,-0.0407 -0.2571,0 -0.3856667,0 1.0926667,-0.51753 1.4647667,-0.44653 2.121,-0.0609 z"
     id="path76"
     inkscape:connector-curvature="0"
     style="fill:#006800;fill-rule:evenodd;stroke:#004100;stroke-width:0.07401261;stroke-linejoin:round" />
  <path
     d="m 8.1787,9.86933 c 0,0 -0.3653,0.0507 -0.5276667,0.0608 C 7.4886,9.92003 7.2525333,9.76873 6.9913667,9.49379 6.8551,9.3445 6.5448667,9.3619 6.5448667,9.3619 7.2316,9.2164 7.766,9.3551 8.1787,9.8693 Z M 7.6812,9.15917 C 7.1838667,9.12867 6.5648667,8.68223 6.4228333,8.15453 c -6.66e-5,0.007 0.1826334,0.115 0.1522,0.1421 C 7.3902667,8.50297 7.4444,8.66867 7.6812,9.15917 Z m 0.8323,0.8523 C 8.5845,9.56153 8.604833,9.2639 8.3917333,8.99667 c -0.1759,-0.203 -0.2198666,-0.32477 -0.345,-0.60894 -0.0372,0.592 -0.1658,1.08247 0.4667667,1.62374 z M 7.7317333,8.7633 C 8.1004,8.22543 8.1647333,7.8195 8.1072,7.18017 8.097033,7.23087 7.9752667,7.5455 7.9651667,7.5455 c -0.548,0.345 -0.3044334,0.88293 -0.2334334,1.2178 z"
     id="path78"
     inkscape:connector-curvature="0"
     style="fill:#006800;fill-rule:evenodd;stroke:#004100;stroke-width:0.07895418;stroke-linejoin:round" />
  <path
     d="M 7.4075,6.16533 C 7.7761667,6.7032 7.7187,7.21067 7.6611667,7.85 7.6509997,7.7992 7.5292333,7.48467 7.5191667,7.48467 6.9711333,7.13963 7.3365,6.5002 7.4075,6.16533 Z"
     id="path80"
     inkscape:connector-curvature="0"
     style="fill:#006800;fill-rule:evenodd;stroke:#004100;stroke-width:0.07895418;stroke-linejoin:round" />
  <path
     d="M 7.7117667,6.99767 C 8.6047667,6.54773 8.2597,5.97607 8.4221,5.53633 7.8031,5.9964 7.7219,6.48683 7.7117667,6.99767 Z"
     id="path82"
     inkscape:connector-curvature="0"
     style="fill:#006800;fill-rule:evenodd;stroke:#004100;stroke-width:0.07895418;stroke-linejoin:round" />
  <path
     d="M 7.8333333,6.88603 C 7.945,6.57147 8.1682667,6.0336 8.1885333,6.0336 M 7.5696,7.54567 C 7.549333,7.32233 7.4377333,6.7236 7.4276,6.66273"
     id="path84"
     inkscape:connector-curvature="0"
     style="fill:none;stroke:#00a400;stroke-width:0.07401261;stroke-linecap:round" />
  <path
     d="M 7.6101333,8.55007 C 7.1128,8.51957 6.5749667,7.83973 6.4329333,7.31203 c -3.33e-5,0.007 0.1826334,0.115 0.1522,0.14207 0.7137334,0.31793 0.7882,0.6055 1.025,1.096 z M 7.4624667,8.08313 C 7.0938,7.54527 7.0294667,7.13933 7.087,6.5 c 0.010167,0.0507 0.1319333,0.36533 0.1420333,0.36533 0.548,0.345 0.3044334,0.88294 0.2334334,1.2178 z M 7.7928333,7.1398 C 8.7162667,6.73047 8.4321,6.3009 8.7061333,5.85097 8.0871,6.31103 7.8029667,6.62897 7.7928,7.1398 Z"
     id="path86"
     inkscape:connector-curvature="0"
     style="fill:#006800;fill-rule:evenodd;stroke:#004100;stroke-width:0.07895418;stroke-linejoin:round" />
  <path
     d="M 7.8333333,7.04817 C 8.2088667,6.67267 8.3407667,6.35807 8.3407667,6.35807"
     id="path88"
     inkscape:connector-curvature="0"
     style="fill:none;stroke:#00a400;stroke-width:0.07401261;stroke-linecap:round" />
  <g
     id="g94"
     transform="scale(0.03333333)"
     style="fill-rule:evenodd">
    <path
       d="m 333.56,366.355 13.49,0.275 C 302.263,324.688 216.451,306.425 228.383,229.24 216.085,312.941 298.5,320.65 333.56,366.355 Z"
       id="path90"
       inkscape:connector-curvature="0"
       style="fill:#ffe100;stroke:#e9bf00;stroke-width:2.3686254" />
    <path
       d="m 235.417,212.661 a 4.298,4.298 0 1 1 -8.596,0 4.298,4.298 0 0 1 8.596,0 z m -2.632,23.636 a 4.06,4.06 0 1 1 -8.118,0 4.06,4.06 0 0 1 8.118,0 z m 3.815,33.681 a 3.582,3.582 0 1 1 -7.164,0 3.582,3.582 0 0 1 7.164,0 z m 31.276,37.245 a 3.582,3.582 0 1 1 -7.163,0 3.582,3.582 0 0 1 7.163,0 z m 4.536,10.684 a 3.582,3.582 0 1 1 -7.163,0 3.582,3.582 0 0 1 7.163,0 z"
       id="path92"
       inkscape:connector-curvature="0"
       style="fill:#9d4916;stroke:#68300e;stroke-width:1.11102188" />
  </g>
  <g
     id="g114"
     transform="scale(0.03333333)"
     style="fill:#ffffff;fill-rule:evenodd">
    <g
       id="g102"
       style="stroke:#000000;stroke-width:0.667">
      <path
         d="m 288.203,349.032 c -2.355,-2.134 -3.853,-3.503 -4.777,-5.828 l -14.044,-1.528 c -0.063,2.675 -0.126,5.349 -0.191,8.024 z"
         id="path96"
         inkscape:connector-curvature="0"
         style="stroke-width:1.11102188" />
      <path
         d="m 185.313,339.57 c 8.157,1.507 20.456,-0.752 24.472,4.518 4.822,5.465 -15.093,13.872 -12.241,18.6 6.16,6.517 12.5,3.83 19.394,0.226 1.624,-3.523 2.878,-9.804 3.766,-11.672 -2.51,-5.773 -9.253,-8.601 -7.53,-17.32 11.37,-4.249 33.23,-3.897 35.583,-2.258 1.848,3.623 0.187,5.273 0.564,8.16 -1.883,3.64 -6.728,9.81 -6.738,13.074 11.93,4.203 15.074,-0.648 25.806,-0.363 12.575,0.155 20.225,3.531 22.955,-1.467 -1.87,-4.315 -13.403,-0.805 -17.78,-3.577 -2.19,-0.74 -3.604,-2.5 -5.496,-4.44 -1.892,-1.94 -7.21,-2.04 -8.007,-6.817 2.225,-10.214 16.965,-8.653 19.375,-10.217 l 38.405,2.635 c 6.957,-0.196 10.892,12.323 1.497,16.09 -9.394,3.767 -37.18,-5.588 -49.233,0.842 -0.623,-2.622 -9.283,-6.588 -9.907,-6.713 -3.69,1.105 -10.88,0.7 -10.88,0.7 -1.758,3.263 -3.764,5.652 -5.521,8.915 -7.975,-3.497 -15.514,2.715 -24.224,0.874 0,0 -13.178,1.506 -13.554,1.506 -0.376,0 -8.658,-0.753 -8.658,-0.753 -4.393,1.254 -8.785,2.51 -13.178,3.765 l 9.412,-8.284 -8.282,-6.023 z"
         id="path98"
         inkscape:connector-curvature="0"
         style="stroke-width:1.11102188;stroke-linejoin:round" />
      <path
         d="m 184.732,337.954 a 3.63,3.63 0 1 1 -7.26,0 3.63,3.63 0 0 1 7.26,0 z m -0.952,17.957 a 3.63,3.63 0 1 1 -7.26,0 3.63,3.63 0 0 1 7.26,0 z"
         id="path100"
         inkscape:connector-curvature="0"
         style="stroke-width:1.11102188" />
    </g>
    <g
       id="g110"
       style="stroke:#000000;stroke-width:0.667">
      <path
         d="m 346.253,349.097 c 2.355,-2.134 3.852,-3.503 4.777,-5.828 l 14.043,-1.528 0.192,8.024 z"
         id="path104"
         inkscape:connector-curvature="0"
         style="stroke-width:1.11102188" />
      <path
         d="m 449.143,339.636 c -8.157,1.506 -20.457,-0.753 -24.473,4.517 -4.822,5.465 15.093,13.872 12.242,18.6 -6.16,6.517 -12.5,3.83 -19.394,0.226 -1.624,-3.523 -2.878,-9.804 -3.766,-11.671 2.51,-5.774 9.253,-8.602 7.53,-17.32 -11.371,-4.25 -33.23,-3.898 -35.584,-2.26 -1.847,3.624 -0.187,5.274 -0.563,8.161 1.882,3.64 6.728,9.81 6.738,13.074 -11.93,4.203 -15.075,-0.648 -25.807,-0.363 -12.574,0.155 -20.225,3.531 -22.955,-1.467 1.87,-4.315 13.404,-0.805 17.781,-3.577 2.19,-0.74 3.603,-2.5 5.496,-4.44 1.893,-1.94 7.21,-2.04 8.007,-6.816 -2.226,-10.215 -16.966,-8.654 -19.376,-10.218 l -38.404,2.635 c -6.958,-0.196 -10.892,12.323 -1.498,16.091 9.395,3.766 37.18,-5.588 49.233,0.841 0.623,-2.622 9.283,-6.588 9.908,-6.713 3.69,1.105 10.88,0.7 10.88,0.7 1.758,3.263 3.763,5.652 5.52,8.915 7.976,-3.497 15.515,2.715 24.225,0.874 0,0 13.177,1.506 13.554,1.506 0.377,0 8.658,-0.753 8.658,-0.753 l 13.177,3.765 c -3.136,-2.762 -6.274,-5.522 -9.411,-8.284 z"
         id="path106"
         inkscape:connector-curvature="0"
         style="stroke-width:1.11102188;stroke-linejoin:round" />
      <path
         d="m 449.723,338.02 a 3.6305,3.6305 0 1 0 7.261,0 3.63,3.63 0 0 0 -7.26,0 z m 0.952,17.956 a 3.63,3.63 0 1 0 7.26,0 3.63,3.63 0 0 0 -7.26,0 z"
         id="path108"
         inkscape:connector-curvature="0"
         style="stroke-width:1.11102188" />
    </g>
    <path
       d="m 316.986,329.343 c -3.231,-0.606 -4.38,-0.433 -6.57,-0.65 -1.715,5.271 -3.427,10.541 -5.141,15.812 7.938,0.716 15.29,0.716 15.29,0.651 -4.816,-0.976 -3.644,-15.748 -3.579,-15.813 z"
       id="path112"
       inkscape:connector-curvature="0" />
  </g>
  <g
     font-size="9"
     font-weight="bold"
     id="g148"
     transform="scale(0.03333333)"
     style="font-weight:bold;font-size:9px;font-family:'Trebuchet MS'">
    <text
       y="344.27399"
       x="448.60501"
       transform="matrix(1.6657,0,0,1.6657,-464.91,-233.28)"
       id="text118">
      <tspan
         y="344.27399"
         x="448.60501"
         id="tspan116">L</tspan>
    </text>
    <text
       y="344.62201"
       x="453.64001"
       transform="matrix(1.6657,0,0,1.6657,-464.91,-233.28)"
       id="text122">
      <tspan
         y="344.62201"
         x="453.64001"
         id="tspan120">I</tspan>
    </text>
    <text
       y="345.056"
       x="456.67801"
       transform="matrix(1.6657,0,0,1.6657,-464.91,-233.28)"
       id="text126">
      <tspan
         y="345.056"
         x="456.67801"
         id="tspan124">B</tspan>
    </text>
    <text
       y="345.48999"
       x="462.57999"
       transform="matrix(1.6657,0,0,1.6657,-464.91,-233.28)"
       id="text130">
      <tspan
         y="345.48999"
         x="462.57999"
         id="tspan128">E</tspan>
    </text>
    <text
       y="345.57599"
       x="468.30899"
       transform="matrix(1.6657,0,0,1.6657,-464.91,-233.28)"
       id="text134">
      <tspan
         y="345.57599"
         x="468.30899"
         id="tspan132">R</tspan>
    </text>
    <text
       y="345.40302"
       x="473.952"
       transform="matrix(1.6657,0,0,1.6657,-464.91,-233.28)"
       id="text138">
      <tspan
         y="345.40302"
         x="473.952"
         id="tspan136">T</tspan>
    </text>
    <text
       y="344.535"
       x="479.24701"
       transform="matrix(1.6657,0,0,1.6657,-464.91,-233.28)"
       id="text142">
      <tspan
         y="344.535"
         x="479.24701"
         id="tspan140">A</tspan>
    </text>
    <text
       y="344.27399"
       x="485.49701"
       transform="matrix(1.6657,0,0,1.6657,-464.91,-233.28)"
       id="text146">
      <tspan
         y="344.27399"
         x="485.49701"
         id="tspan144">S</tspan>
    </text>
  </g>
  <path
     d="m 7.7117667,10.62053 c 0.3349,0.0406 0.8017333,0.0101 1.0046666,-3e-5 M 7.2042667,9.47343 C 7.4884333,9.6967 8.1074667,9.82857 8.0973,9.82857 m 0.3551333,0.0613 C 8.3611,9.42307 8.2596667,9.31143 8.1784667,9.0171 M 6.7273333,8.489 c 0.477,0.2131 0.548,0.35513 0.8524334,0.56823 M 7.7523,8.5906 C 7.792933,8.0121 7.8741,7.85987 8.0162,7.72793 M 6.7273333,7.65723 C 6.8999,7.8501 7.4681667,8.4488 7.4681667,8.4488 M 7.2348,7.12923 C 7.4479667,7.28143 7.4479667,7.8294 7.4479667,7.8294"
     id="path150"
     inkscape:connector-curvature="0"
     style="fill:none;stroke:#00a400;stroke-width:0.07401261;stroke-linecap:round" />
</svg>
