<?xml version="1.0" encoding="UTF-8" standalone="no"?>
<svg
   xmlns:dc="http://purl.org/dc/elements/1.1/"
   xmlns:cc="http://creativecommons.org/ns#"
   xmlns:rdf="http://www.w3.org/1999/02/22-rdf-syntax-ns#"
   xmlns:svg="http://www.w3.org/2000/svg"
   xmlns="http://www.w3.org/2000/svg"
   xmlns:xlink="http://www.w3.org/1999/xlink"
   xmlns:sodipodi="http://sodipodi.sourceforge.net/DTD/sodipodi-0.dtd"
   xmlns:inkscape="http://www.inkscape.org/namespaces/inkscape"
   height="16"
   width="21.333332"
   viewBox="0 0 21.333332 16"
   version="1.1"
   id="svg25"
   sodipodi:docname="tf.svg"
   inkscape:version="0.92.1 r">
  <metadata
     id="metadata29">
    <rdf:RDF>
      <cc:Work
         rdf:about="">
        <dc:format>image/svg+xml</dc:format>
        <dc:type
           rdf:resource="http://purl.org/dc/dcmitype/StillImage" />
        <dc:title></dc:title>
      </cc:Work>
    </rdf:RDF>
  </metadata>
  <sodipodi:namedview
     pagecolor="#ffffff"
     bordercolor="#666666"
     borderopacity="1"
     objecttolerance="10"
     gridtolerance="10"
     guidetolerance="10"
     inkscape:pageopacity="0"
     inkscape:pageshadow="2"
     inkscape:window-width="1920"
     inkscape:window-height="1024"
     id="namedview27"
     showgrid="false"
     fit-margin-top="0"
     fit-margin-left="0"
     fit-margin-right="0"
     fit-margin-bottom="0"
     inkscape:zoom="0.49166667"
     inkscape:cx="320"
     inkscape:cy="240"
     inkscape:window-x="0"
     inkscape:window-y="0"
     inkscape:window-maximized="1"
     inkscape:current-layer="svg25" />
  <defs
     id="defs3">
    <path
       d="M 0,-21 12.344,16.99 -19.972,-6.49 h 39.944 l -32.316,23.48 z"
       id="a"
       inkscape:connector-curvature="0"
       style="fill:#ffffff" />
  </defs>
  <path
     d="M 0,0 H 21.333333 V 16 H 0 Z"
     id="path5"
     inkscape:connector-curvature="0"
     style="fill:#002395;stroke-width:0.03333334" />
  <path
     d="M 0,0 H 9.76 V 6.56 H 0 Z"
     id="path7"
     inkscape:connector-curvature="0"
     style="fill:#ffffff;stroke-width:0.03333334" />
  <path
     d="M 0,0 H 3.2 V 6.4 H 0 Z"
     id="path9"
     inkscape:connector-curvature="0"
     style="fill:#002395;stroke-width:0.03333334" />
  <path
     d="M 6.4,0 H 9.6 V 6.4 H 6.4 Z"
     id="path11"
     inkscape:connector-curvature="0"
     style="fill:#ed2939;stroke-width:0.03333334" />
  <path
     d="m 14.2,7.32 0.515,0.82 H 16.18 V 11 l -1.1,-1.72 -1.48,2.36 h 0.72 l 0.76,-1.36 1.56,2.8 1.56,-2.8 0.76,1.36 h 0.72 L 18.2,9.28 17.1,11 V 9.42 h 0.66 L 18.25,8.64 H 17.1 v -0.5 h 1.465 L 19.08,7.32 Z m 1.72,3.5 h -1.6 v 0.56 h 1.6 z m 3.04,0 h -1.6 v 0.56 h 1.6 z"
     id="path13"
     inkscape:connector-curvature="0"
     style="fill:#ffffff;stroke-width:0.03333334" />
  <use
     height="100%"
     width="100%"
     xlink:href="#a"
     x="416"
     y="362"
     transform="scale(0.04)"
     id="use15" />
  <use
     height="100%"
     width="100%"
     xlink:href="#a"
     x="371"
     y="328"
     transform="scale(0.04)"
     id="use17" />
  <use
     height="100%"
     width="100%"
     xlink:href="#a"
     x="461"
     y="328"
     transform="scale(0.04)"
     id="use19" />
  <use
     height="100%"
     width="100%"
     xlink:href="#a"
     x="333"
     y="227"
     transform="scale(0.04)"
     id="use21" />
  <use
     height="100%"
     width="100%"
     xlink:href="#a"
     x="499"
     y="227"
     transform="scale(0.04)"
     id="use23" />
</svg>
