<?xml version="1.0" encoding="UTF-8" standalone="no"?>
<svg
   xmlns:dc="http://purl.org/dc/elements/1.1/"
   xmlns:cc="http://creativecommons.org/ns#"
   xmlns:rdf="http://www.w3.org/1999/02/22-rdf-syntax-ns#"
   xmlns:svg="http://www.w3.org/2000/svg"
   xmlns="http://www.w3.org/2000/svg"
   xmlns:xlink="http://www.w3.org/1999/xlink"
   xmlns:sodipodi="http://sodipodi.sourceforge.net/DTD/sodipodi-0.dtd"
   xmlns:inkscape="http://www.inkscape.org/namespaces/inkscape"
   height="16"
   width="21.333332"
   viewBox="0 0 21.333332 16"
   version="1.1"
   id="svg38"
   sodipodi:docname="uy.svg"
   inkscape:version="0.92.1 r">
  <metadata
     id="metadata44">
    <rdf:RDF>
      <cc:Work
         rdf:about="">
        <dc:format>image/svg+xml</dc:format>
        <dc:type
           rdf:resource="http://purl.org/dc/dcmitype/StillImage" />
        <dc:title></dc:title>
      </cc:Work>
    </rdf:RDF>
  </metadata>
  <defs
     id="defs42" />
  <sodipodi:namedview
     pagecolor="#ffffff"
     bordercolor="#666666"
     borderopacity="1"
     objecttolerance="10"
     gridtolerance="10"
     guidetolerance="10"
     inkscape:pageopacity="0"
     inkscape:pageshadow="2"
     inkscape:window-width="1920"
     inkscape:window-height="1024"
     id="namedview40"
     showgrid="false"
     fit-margin-top="0"
     fit-margin-left="0"
     fit-margin-right="0"
     fit-margin-bottom="0"
     inkscape:zoom="0.49166667"
     inkscape:cx="320"
     inkscape:cy="240"
     inkscape:window-x="0"
     inkscape:window-y="0"
     inkscape:window-maximized="1"
     inkscape:current-layer="svg38" />
  <path
     d="M 0,0 H 21.333333 V 16 H 0 Z"
     id="path2"
     inkscape:connector-curvature="0"
     style="fill:#ffffff;stroke-width:0.03333334" />
  <path
     d="M 8.8666667,1.77777 H 21.333333 V 3.55553 H 8.8666667 Z m 0,3.55556 H 21.333333 V 7.1111 H 8.8666667 Z M 0,8.8889 h 21.333333 v 1.77777 H 0 Z m 0,3.55553 H 21.333333 V 14.2222 H 0 Z"
     id="path4"
     inkscape:connector-curvature="0"
     style="fill:#0038a8;stroke-width:0.03333334" />
  <g
     transform="matrix(0.09777767,0,0,0.09777767,4.4444333,4.44443)"
     stroke-miterlimit="20"
     id="g23"
     style="fill:#fcd116;stroke:#000000;stroke-width:0.60000002;stroke-miterlimit:20">
    <g
       id="c">
      <g
         id="b">
        <g
           id="a">
          <path
             d="M 1.5,9 6,12 C -2,25 7,27 0,33 3,26 -3,28 -3,16"
             transform="rotate(22.5)"
             id="path6"
             inkscape:connector-curvature="0"
             style="stroke-linecap:square" />
          <path
             d="M 0,11 C -2,24 4.5,28 0,33"
             transform="rotate(22.5)"
             id="path8"
             inkscape:connector-curvature="0"
             style="fill:none" />
          <path
             d="M 0,0 H 6 L 0,33 -6,0 h 6 v 33"
             id="path10"
             inkscape:connector-curvature="0" />
        </g>
        <use
           height="100%"
           width="100%"
           xlink:href="#a"
           transform="rotate(45)"
           id="use13"
           x="0"
           y="0" />
      </g>
      <use
         height="100%"
         width="100%"
         xlink:href="#b"
         transform="rotate(90)"
         id="use16"
         x="0"
         y="0" />
    </g>
    <use
       height="100%"
       width="100%"
       xlink:href="#c"
       transform="scale(-1)"
       id="use19"
       x="0"
       y="0" />
    <circle
       r="11"
       id="circle21"
       cx="0"
       cy="0" />
  </g>
  <g
     transform="matrix(0.00977767,0,0,0.00977767,4.4444333,4.44443)"
     id="g36">
    <g
       id="d">
      <path
         d="m 81,-44 c -7,8 -11,-6 -36,-6 -25,0 -29,15 -33,12 -4,-3 21,-21 29,-22 8,-1 31,7 40,16 m -29,9 c 7,6 1,19 -6,19 -7,0 -20,-12 -14,-20"
         id="path25"
         inkscape:connector-curvature="0" />
      <path
         d="m 19,-26 c 1,-12 11,-14 27,-14 16,0 23,12 29,15 -7,0 -13,-10 -29,-10 -16,0 -16,0 -27,10 m 3,2 c 4,-6 9,6 20,6 11,0 17,-3 24,-8 7,-5 -10,12 -21,12 -11,0 -26,-6 -23,-10"
         id="path27"
         inkscape:connector-curvature="0" />
      <path
         d="m 56,-17 c 13,-7 5,-17 0,-19 2,2 10,12 0,19 M 0,43 c 6,0 8,-2 16,-2 8,0 27,11 38,7 -23,9 -14,3 -54,3 h -5 m 63,6 c -4,-7 -3,-5 -11,-16 8,6 10,9 11,16 M 0,67 C 25,67 21,62 54,48 30,51 25,59 0,59 H -5 M 0,30 c 7,0 9,-5 17,-5 8,0 19,3 24,7 1,1 -3,-8 -11,-9 C 22,22 25,9 16,7 c 0,4 3,3 4,9 0,5 -9,5 -11,0 2,8 -4,8 -9,8"
         id="path29"
         inkscape:connector-curvature="0" />
    </g>
    <use
       height="100%"
       width="100%"
       xlink:href="#d"
       transform="scale(-1,1)"
       id="use32"
       x="0"
       y="0" />
    <path
       d="m 0,76 c -5,0 -18,3 0,3 18,0 5,-3 0,-3"
       id="path34"
       inkscape:connector-curvature="0" />
  </g>
</svg>
