<?xml version="1.0" encoding="UTF-8" standalone="no"?>
<svg
   xmlns:dc="http://purl.org/dc/elements/1.1/"
   xmlns:cc="http://creativecommons.org/ns#"
   xmlns:rdf="http://www.w3.org/1999/02/22-rdf-syntax-ns#"
   xmlns:svg="http://www.w3.org/2000/svg"
   xmlns="http://www.w3.org/2000/svg"
   xmlns:sodipodi="http://sodipodi.sourceforge.net/DTD/sodipodi-0.dtd"
   xmlns:inkscape="http://www.inkscape.org/namespaces/inkscape"
   height="16"
   width="21.333437"
   viewBox="0 0 21.333437 16"
   version="1.1"
   id="svg43"
   sodipodi:docname="zm.svg"
   inkscape:version="0.92.1 r">
  <metadata
     id="metadata47">
    <rdf:RDF>
      <cc:Work
         rdf:about="">
        <dc:format>image/svg+xml</dc:format>
        <dc:type
           rdf:resource="http://purl.org/dc/dcmitype/StillImage" />
        <dc:title></dc:title>
      </cc:Work>
    </rdf:RDF>
  </metadata>
  <sodipodi:namedview
     pagecolor="#ffffff"
     bordercolor="#666666"
     borderopacity="1"
     objecttolerance="10"
     gridtolerance="10"
     guidetolerance="10"
     inkscape:pageopacity="0"
     inkscape:pageshadow="2"
     inkscape:window-width="1920"
     inkscape:window-height="1024"
     id="namedview45"
     showgrid="false"
     fit-margin-top="0"
     fit-margin-left="0"
     fit-margin-right="0"
     fit-margin-bottom="0"
     inkscape:zoom="0.49166667"
     inkscape:cx="320.00313"
     inkscape:cy="240"
     inkscape:window-x="0"
     inkscape:window-y="0"
     inkscape:window-maximized="1"
     inkscape:current-layer="svg43" />
  <defs
     id="defs5">
    <clipPath
       id="a">
      <path
         d="M -170.67,0 H 512 v 512 h -682.67 z"
         id="path2"
         inkscape:connector-curvature="0"
         style="fill-opacity:0.67000002" />
    </clipPath>
  </defs>
  <g
     clip-path="url(#a)"
     transform="matrix(0.03125,0,0,0.03125,5.3334375,0)"
     id="g41"
     style="fill-rule:evenodd">
    <path
       d="M -256,0 H 512 V 512 H -256 Z"
       id="path7"
       inkscape:connector-curvature="0"
       style="fill:#198a00" />
    <path
       d="m 421.87,183.94 h 90.126 V 511.97 H 421.87 Z"
       id="path9"
       inkscape:connector-curvature="0"
       style="fill:#ef7d00" />
    <path
       d="m 331.85,183.78 h 90.029 v 328.1 H 331.85 Z"
       id="path11"
       inkscape:connector-curvature="0" />
    <path
       d="m 239.95,183.98 h 91.935 V 512 H 239.95 Z"
       id="path13"
       inkscape:connector-curvature="0"
       style="fill:#de2010" />
    <g
       id="g39"
       style="fill:#ef7d00;stroke:#000000">
      <path
         d="m 451.61,65.59 c 0,0 33.917,-14.494 37.204,-17.482 1.494,1.793 -13.597,20.021 -42.881,26.745 26.595,-6.276 49.306,-25.998 53.937,-25.4 1.345,0.299 1.046,19.274 -59.914,35.71 42.134,-11.058 66.637,-31.377 66.339,-29.136 0.298,0.448 -4.184,15.986 -41.088,28.09 10.31,-2.392 38.25,-19.424 37.95,-16.137 0.897,1.345 -27.043,37.203 -77.54,25.55 40.34,10.458 66.487,-14.793 70.222,-14.344 0.747,0.15 -7.47,22.113 -58.27,23.457 24.355,-2.54 17.331,-0.15 17.331,-0.15 0,0 -14.343,11.206 -31.675,3.587 13.597,3.736 15.09,3.885 15.39,5.08 -0.897,1.493 -12.103,3.735 -22.86,-2.092 8.665,3.585 16.435,4.184 16.584,5.528 -0.149,0.448 -5.677,3.586 -10.607,1.345 C 416.802,113.699 371.38,85.76 371.38,85.76 l 77.392,-21.217 2.839,1.046 z m -90.988,75.579 c -6.806,0 -6.994,6.056 -6.994,6.056 0,0 -0.561,0.437 -0.187,3.373 1.124,-2 1.686,-2.624 1.686,-2.624 0.75,0.126 3.871,1.062 8.804,-2.809 -4.496,4.682 -1.81,6.431 -1.81,6.431 0,0 -1.062,3.684 2.372,4.434 -1.061,-1.5 -0.437,-2.81 -0.437,-2.81 0,0 4.808,-0.5 4.496,-6.369 0.187,5.307 3.06,6.618 3.06,6.618 0,0 0,2.935 3.121,3.185 -1.685,-1.5 -1.311,-3.81 -1.311,-3.81 0,0 4.059,-2.934 0.624,-7.93 2.06,-1.186 3.747,-4.495 3.747,-4.495 0,0 -2.81,-1.187 -4.12,-2.185 -0.626,-1.312 -0.063,-8.492 -0.063,-8.492 l -1.686,-9.304 -4.809,14.487 c 0.187,-2.06 0.313,6.244 -6.493,6.244 z"
         id="path15"
         inkscape:connector-curvature="0"
         style="stroke-width:0.99311167;stroke-linejoin:round" />
      <path
         d="m 394.237,120.271 c 0.149,0.15 5.08,5.679 9.86,5.38 1.793,-1.495 -3.735,-4.782 -3.735,-5.529 1.943,1.793 10.16,8.815 15.39,6.275 2.091,-2.988 -3.735,-2.54 -10.16,-10.608 4.482,2.988 15.688,9.562 20.917,7.023 2.242,-2.391 -11.654,-9.862 -16.286,-15.689 l -11.952,-6.125 -16.286,13.297 z"
         id="path17"
         inkscape:connector-curvature="0"
         style="stroke-width:0.99311167;stroke-linejoin:round" />
      <path
         d="m 375.857,74.853 c 0,0 5.528,-3.287 27.641,-1.644 2.39,0.299 15.09,-4.333 19.125,-5.677 6.424,-1.196 26.893,-5.678 32.422,-9.861 3.885,-0.449 -1.047,7.171 -5.976,8.964 -5.23,2.391 -24.205,8.965 -30.93,8.069 8.07,0.15 3.587,6.723 -9.86,3.586 6.425,3.586 4.034,4.183 4.034,4.183 0,0 -11.355,0.598 -14.343,-1.942 7.62,2.839 4.482,3.885 4.482,3.885 0,0 -7.769,0.747 -11.355,-0.897 5.528,1.644 2.69,2.69 2.69,2.69 0,0 -4.483,0.747 -8.218,-0.598 -3.735,-1.345 -9.413,-10.757 -9.712,-10.757 z"
         id="path19"
         inkscape:connector-curvature="0"
         style="stroke-width:0.99311167;stroke-linecap:round;stroke-linejoin:round" />
      <path
         d="m 384.723,123.37 0.812,14.612 c 0,0 -0.437,0.75 -0.812,1.186 -0.375,0.437 -10.365,-1.561 -8.992,6.057 0,3.122 0.063,3.933 2.186,5.682 -0.562,-2.06 -0.374,-3.497 -0.374,-3.497 0,0 2.809,1.686 5.557,-2.934 -1.873,4.558 -0.563,6.181 -0.126,6.306 0.438,0.812 -0.748,4.496 2.998,4.433 -1.436,-1.374 -0.75,-3.372 -0.75,-3.372 0,0 3.935,-0.623 2.56,-7.742 1.437,-1.436 1.999,-0.062 1.999,-0.062 0,0 0.437,4.245 3.871,3.371 1.562,0.874 -0.25,3.185 -0.25,3.185 0,0 2.498,0.062 3.247,-2.061 0.75,-2.123 1.624,-5.932 -2.498,-7.493 -0.499,-1.498 1.624,-1.623 1.624,-1.623 0,0 2.623,0.874 3.372,2.185 0.749,1.311 0.5,-3.434 -2.747,-3.934 -3.997,-0.125 -4.246,-0.936 -4.246,-1.123 0,-0.188 -0.687,-10.615 -1,-13.612 z"
         id="path21"
         inkscape:connector-curvature="0"
         style="stroke-width:0.99311167;stroke-linejoin:round" />
      <path
         d="m 398.625,135.82 c 0.05,-0.67 -6.817,-9.915 -5.075,-11.11 1.741,0.358 4.597,4.563 6.91,3.198 -0.701,-1.639 -2.768,-0.716 -5.115,-4.912 -2.346,-4.743 -2.688,-11.864 -10.906,-19.632 5.32,8.22 17.389,13.038 17.9,10.642 0.511,-2.396 -10.627,-11.46 -10.056,-13.645 2.215,4.486 13.398,14.481 21.638,13.653 0.565,-1.924 -6.748,-5.808 -8.63,-9.434 -5.263,-3.536 -19.35,-15.679 -19.631,-18.494 -5.126,-7.475 -8.326,-9.737 -9.816,-10.599 -0.576,-0.678 -0.72,-1.326 -0.833,-1.739 -3.182,-7.501 1.033,-9.937 3.5,-10.297 2.03,-0.226 2.619,0.078 4.08,-0.63 -1.73,-0.676 -3.46,-1.309 -5.188,-1.986 2.255,1.654 8.015,0.198 6.766,4.963 2.526,-0.961 7.9,-7.354 -6.09,-8.797 -4.553,-5.223 -23.271,-8.225 -27.957,14.57 0.374,0.32 0.57,0.583 1.76,1.472 -5.915,-2.859 -21.858,-5.068 -27.602,-5.997 -15.526,-4.479 -31.648,-15.272 -33.198,-13.945 -2.073,0.92 9.38,11.575 8.784,11.81 -9.93,-5.79 -19.002,-9.891 -27.442,-13.625 -5.939,-2.22 -11.886,-7.387 -12.542,-6.404 -2.186,4.527 9.52,15.908 11.698,17.246 2.177,1.28 19.303,9.225 19.05,9.324 -25.793,-11.708 -30.118,-13.83 -31.412,-15.18 -2.274,-0.513 -7.812,-7.99 -9.355,-7.509 -0.845,0.83 0.85,12.645 13.158,17.949 2.006,1.462 26.384,10.207 26.145,10.893 -0.06,0.171 -27.921,-11.5 -29.004,-11.917 -5.371,-2.107 -11.962,-9.49 -13.195,-8.66 -1.176,0.754 3.039,8.746 8.467,11.252 2.845,1.256 13.758,6.66 23.59,10.101 0.628,0.227 -17.673,-6.94 -26.472,-10.617 -3.99,-2.214 -5.868,-4.974 -6.476,-4.38 -0.899,0.593 1.452,12.399 29.728,19.06 0.745,0.317 9.953,-2.182 9.498,-1.85 -0.114,0.083 -9.144,2.049 -10.023,1.981 -0.782,-0.12 -5.73,0.586 -5.819,0.842 -0.299,0.799 1.793,5.026 16.392,4.145 1.867,-0.113 11.995,-3.689 11.144,-2.92 -0.425,0.385 -13.792,4.729 -14.81,4.814 -0.884,0.125 -5.58,0.616 -5.754,1.116 -0.212,0.681 3.476,3.69 11.316,4.171 6.942,0.37 20.133,-4.241 19.868,-3.942 -0.264,0.299 -12.715,4.565 -13.042,4.825 -0.45,0.255 -5.01,0.502 -5.17,0.853 -0.371,0.87 6.577,7.369 27.128,0.434 -2.065,2.789 -12.026,4.696 -12.011,5.198 -0.047,0.364 2.194,2.53 5.677,3.304 1.74,0.387 4.125,0.308 6.303,-0.036 3.91,-0.783 8.033,-2.33 13.27,-7.17 0.626,1.519 -13.083,8.456 -12.44,9.118 2.974,2.756 12.848,-0.356 13.495,-0.717 0.647,-0.362 19.015,-10.72 18.951,-11.918 0.286,1.536 -23.68,14.558 -23.421,15.093 1.538,2.454 9.725,-0.13 10.116,-0.355 0.39,-0.225 10.448,-5.658 10.724,-5.819 0.275,-0.16 -11.82,7.08 -10.743,8.181 -0.521,4.701 18.89,-3.244 20.41,-4.234 0.762,-0.494 -9.324,4.435 -9.35,6.776 3.247,5.491 13.646,3.75 15.25,2.542 0.802,-0.605 -0.944,4.079 -0.381,3.653 0.195,-0.088 2.261,-2.53 3.056,-4.299 -0.254,1.534 -1.394,3.951 -2.059,6.724 -0.666,2.773 -0.857,5.902 -1.77,9.226 -0.21,1.46 6.407,-2.854 5.446,-13.17 0.566,5.366 -2.09,15.399 -1.395,15.92 1.39,1.043 5.234,-4.997 5.622,-9.08 1.142,2.062 3.537,6.368 5.598,7.36 -0.225,-3.122 0.039,-2.979 -0.889,-6.046 0.535,-4.072 0.61,-9.708 0.74,-16.072 5.599,10.727 7.833,15.256 6.268,23.471 1.665,0.694 4.325,-5.734 4.11,-9.042 2.139,9.193 11.368,10.572 11.515,10.304 z"
         id="path23"
         inkscape:connector-curvature="0"
         style="stroke-width:1.05941844;stroke-linecap:round;stroke-linejoin:round" />
      <path
         d="m 305.356,67.72 c 0,0 -3.811,2.879 -8.554,2.71 1.185,4.742 11.01,1.1 11.01,1.1 0,0 -4.743,5.252 -8.131,6.099 2.033,1.693 10.587,1.1 12.027,0.254 1.44,-0.847 3.98,-4.15 3.98,-4.15 0,0 -8.808,10.163 -10.078,10.077 -0.17,1.186 9.232,0.762 11.18,-1.016 1.948,-1.779 6.86,-4.404 6.86,-4.404 0,0 -12.873,8.977 -13.466,8.977 4.827,1.27 14.483,-1.524 20.666,-5.336 -9.148,6.098 -9.994,7.2 -14.652,9.232 4.15,0.931 6.267,3.726 20.327,-2.372 8.046,-3.81 12.619,-10.756 12.619,-10.756 -4.997,6.69 -12.874,12.366 -21.597,17.955 -0.509,1.017 9.316,5.166 21.85,-7.877"
         id="path25"
         inkscape:connector-curvature="0"
         style="stroke-width:1.05941844;stroke-linecap:round;stroke-linejoin:round" />
      <path
         d="m 373.451,96.006 c 0,0 0.847,3.98 4.235,7.03 3.388,3.049 3.642,6.013 3.642,6.013 M 371.76,70.09 c 0,0 1.185,3.558 4.658,5.845 3.557,2.286 8.894,9.485 9.317,10.756 0.41,1.538 2.455,12.62 2.286,13.805 M 350.162,75.595 c 0.254,1.356 -4.998,8.216 2.201,16.262 -6.522,7.96 -6.52,8.977 -6.52,8.977 0,0 3.64,2.033 10.163,-3.557 10.755,13.213 7.171,19.26 7.171,19.26"
         id="path27"
         inkscape:connector-curvature="0"
         style="stroke-width:1.05941844;stroke-linecap:round" />
      <path
         d="m 362.32,107.211 c 0,0 -0.99,-1.42 0.776,-6.72 1.59,1.917 3.36,2.326 4.135,3.101 0.775,0.776 8.896,1.952 9.412,7.38"
         id="path29"
         inkscape:connector-curvature="0"
         style="stroke-width:1.05941844;stroke-linecap:round;stroke-linejoin:round" />
      <path
         d="m 371.864,57.462 c 0,-0.399 -1.635,-3.908 -7.736,0.478 3.27,0.2 6.5,2.074 7.736,-0.478 z"
         id="path31"
         inkscape:connector-curvature="0"
         style="stroke-width:1.05941844" />
      <path
         d="m 430.094,73.508 c 0.3,0.15 18.229,4.034 24.205,2.092 -7.62,10.16 -22.86,3.287 -22.86,3.287 7.47,2.24 7.77,2.092 10.16,4.183 0.747,1.943 -13.746,1.046 -18.527,-1.643 13.298,4.183 13.596,3.884 14.045,5.528 0.598,2.241 -21.814,-0.598 -23.756,-3.586 5.976,4.632 9.263,5.528 12.55,7.62 -4.034,1.793 -11.504,3.586 -25.25,-6.126 18.078,16.435 34.364,15.39 36.904,18.378 -6.275,9.263 -30.63,-5.528 -41.835,-13 -11.206,-7.47 24.503,18.08 27.791,17.63 -1.644,2.54 -13.447,0.3 -14.195,-0.896"
         id="path33"
         inkscape:connector-curvature="0"
         style="stroke-width:1.05941844;stroke-linejoin:round" />
      <path
         d="m 434.728,90.69 c -2.09,0.3 -8.366,0.3 -9.262,0.15"
         id="path35"
         inkscape:connector-curvature="0"
         style="stroke-width:1.05941844;stroke-linecap:round" />
      <path
         d="m 300.105,65.009 c 0,0 13.636,7.199 19.395,6.69 -1.524,1.44 -3.812,2.033 -3.812,2.033 1.44,0.593 5.421,2.71 11.435,1.356 -1.44,1.44 -3.303,3.049 -3.303,3.049 0,0 5.166,1.948 11.01,-1.101 -1.778,2.202 -2.795,3.81 -2.795,3.81 l 4.065,0.255"
         id="path37"
         inkscape:connector-curvature="0"
         style="stroke-width:1.05941844;stroke-linecap:round;stroke-linejoin:round" />
    </g>
  </g>
</svg>
