<?xml version="1.0" encoding="UTF-8" standalone="no"?>
<svg
   xmlns:dc="http://purl.org/dc/elements/1.1/"
   xmlns:cc="http://creativecommons.org/ns#"
   xmlns:rdf="http://www.w3.org/1999/02/22-rdf-syntax-ns#"
   xmlns:svg="http://www.w3.org/2000/svg"
   xmlns="http://www.w3.org/2000/svg"
   xmlns:sodipodi="http://sodipodi.sourceforge.net/DTD/sodipodi-0.dtd"
   xmlns:inkscape="http://www.inkscape.org/namespaces/inkscape"
   height="16"
   width="21.333437"
   viewBox="0 0 21.333437 16"
   version="1.1"
   id="svg43"
   sodipodi:docname="zw.svg"
   inkscape:version="0.92.1 r">
  <metadata
     id="metadata47">
    <rdf:RDF>
      <cc:Work
         rdf:about="">
        <dc:format>image/svg+xml</dc:format>
        <dc:type
           rdf:resource="http://purl.org/dc/dcmitype/StillImage" />
        <dc:title></dc:title>
      </cc:Work>
    </rdf:RDF>
  </metadata>
  <sodipodi:namedview
     pagecolor="#ffffff"
     bordercolor="#666666"
     borderopacity="1"
     objecttolerance="10"
     gridtolerance="10"
     guidetolerance="10"
     inkscape:pageopacity="0"
     inkscape:pageshadow="2"
     inkscape:window-width="1920"
     inkscape:window-height="1024"
     id="namedview45"
     showgrid="false"
     fit-margin-top="0"
     fit-margin-left="0"
     fit-margin-right="0"
     fit-margin-bottom="0"
     inkscape:zoom="0.49166667"
     inkscape:cx="320"
     inkscape:cy="240"
     inkscape:window-x="0"
     inkscape:window-y="0"
     inkscape:window-maximized="1"
     inkscape:current-layer="svg43" />
  <defs
     id="defs5">
    <clipPath
       id="a">
      <path
         d="M 0,0 H 682.67 V 512 H 0 Z"
         id="path2"
         inkscape:connector-curvature="0"
         style="fill-opacity:0.67000002" />
    </clipPath>
  </defs>
  <g
     clip-path="url(#a)"
     transform="scale(0.03125)"
     id="g41">
    <path
       d="m 0,438.86 h 1024 v 73.143 H 0 Z"
       id="path7"
       inkscape:connector-curvature="0"
       style="fill:#319208;fill-rule:evenodd" />
    <path
       d="m 0,292.57 h 1024 v 73.143 H 0 Z"
       id="path9"
       inkscape:connector-curvature="0"
       style="fill:#de2010;fill-rule:evenodd" />
    <path
       d="m 0,365.71 h 1024 v 73.143 H 0 Z"
       id="path11"
       inkscape:connector-curvature="0"
       style="fill:#ffd200;fill-rule:evenodd" />
    <path
       d="m 0,146.29 h 1024 v 73.143 H 0 Z"
       id="path13"
       inkscape:connector-curvature="0"
       style="fill:#de2010;fill-rule:evenodd" />
    <path
       d="m 0,73.143 h 1024 v 73.143 H 0 Z"
       id="path15"
       inkscape:connector-curvature="0"
       style="fill:#ffd200;fill-rule:evenodd" />
    <path
       d="M 0,0 H 1024 V 73.143 H 0 Z"
       id="path17"
       inkscape:connector-curvature="0"
       style="fill:#319208;fill-rule:evenodd" />
    <path
       d="M 28.891,0 V 512 L 372.661,256 Z"
       id="path19"
       inkscape:connector-curvature="0"
       style="fill-rule:evenodd" />
    <path
       d="M 0,0 H 29.257 V 512 H 0 Z"
       id="path21"
       inkscape:connector-curvature="0"
       style="fill-rule:evenodd" />
    <path
       d="M 0,0 V 512 L 373.03,256 Z"
       id="path23"
       inkscape:connector-curvature="0"
       style="fill-rule:evenodd" />
    <path
       d="m 0,219.43 h 1024 v 73.143 H 0 Z"
       id="path25"
       inkscape:connector-curvature="0"
       style="fill-rule:evenodd" />
    <path
       d="M 0,0 V 512 L 343.77,256 Z"
       id="path27"
       inkscape:connector-curvature="0"
       style="fill:#ffffff;fill-rule:evenodd" />
    <path
       d="m 131.957,114.662 27.271,90.366 97.405,0.854 -77.523,53.863 29.296,92.886 -75.178,-57.08 -79.296,56.566 31.054,-89.142 -78.309,-57.931 94.387,1.985 z"
       id="path29"
       inkscape:connector-curvature="0"
       style="fill:#d62419;fill-rule:evenodd" />
    <path
       d="m 50.042,166.226 c 1.657,-2.985 1.988,-4.643 10.612,-8.292 11.275,-32.832 40.129,-19.898 56.048,25.537 14.592,6.301 101.814,71.303 100.488,74.951 -0.663,3.317 -11.608,0.664 -11.608,0.664 0,0 -17.245,73.625 -17.576,73.625 -32.171,-4.311 -82.249,-4.975 -116.411,-4.311 0.331,-5.639 -9.286,-42.451 -9.286,-42.451 0,0 -8.292,-2.653 5.638,-30.843 14.924,-35.485 17.909,-93.192 -17.908,-88.88 z"
       id="path31"
       inkscape:connector-curvature="0"
       style="fill:#f7df00;fill-rule:evenodd;stroke:#000000;stroke-width:1.46764624" />
    <path
       d="m 79.55,152.953 a 3.6485,3.6485 0 1 1 -7.297,0 3.648,3.648 0 0 1 7.296,0 z m 36.154,30.519 c 0,0 -28.522,16.25 -36.813,15.918 m 126.689,59.694 c -1.99,-1.659 -105.791,-6.633 -101.484,-41.788 m 16.583,42.449 c 0,0 11.275,6.633 20.892,-10.613 m -8.291,10.282 c 0,0 7.96,7.296 19.568,-8.622 M 62.644,285.95 c 0,0 7.295,0.995 8.623,-3.317 m 25.859,46.097 c 0,-0.331 -7.296,-47.094 -7.296,-47.094 36.039,3.206 73.404,3.428 108.113,9.619"
       id="path33"
       inkscape:connector-curvature="0"
       style="fill:none;stroke:#000000;stroke-width:1.46764624" />
    <path
       d="m 93.483,282.296 9.948,11.607 10.282,-9.95 8.622,9.287 m 2.658,0.337 8.622,-7.628 9.287,8.954 m 1.649,-0.005 9.618,-8.622 7.296,8.623 m 3.986,0.339 8.623,-5.97 7.627,7.297 m 5.971,-0.335 6.301,-5.97"
       id="path35"
       inkscape:connector-curvature="0"
       style="fill:none;stroke:#000000;stroke-width:1.46764624" />
    <path
       d="m 91.821,292.906 10.613,12.272 10.612,-9.619 9.286,9.95 10.613,-9.286 8.955,10.612 10.944,-9.286 c 0,0 8.29,10.281 9.286,10.281 0.996,0 10.944,-8.622 10.944,-8.622 l 9.618,10.612 13.265,-10.612 m -102.474,5.639 c 0,0 85.564,3.317 99.492,6.634 M 107.746,266.05 c 0,0 81.252,4.312 94.187,9.286"
       id="path37"
       inkscape:connector-curvature="0"
       style="fill:none;stroke:#000000;stroke-width:1.46764624" />
    <path
       d="m 91.16,232.218 c 0.664,4.975 -5.306,22.22 -11.606,28.19 -8.624,6.965 -7.629,21.557 -7.629,21.557 0.995,5.97 13.93,5.306 15.588,2.322 1.326,-13.598 15.918,-16.583 15.918,-16.583 0,0 20.231,-5.637 28.854,-22.551 m -0.335,30.177 a 4.312,4.312 0 1 1 -8.624,0 4.3115,4.3115 0 0 1 8.623,0 z m 19.237,1.66 a 4.311,4.311 0 1 1 -8.622,10e-4 4.311,4.311 0 0 1 8.622,0 z"
       id="path39"
       inkscape:connector-curvature="0"
       style="fill:none;stroke:#000000;stroke-width:1.46764624" />
  </g>
</svg>
