<?xml version="1.0" encoding="UTF-8" standalone="no"?>
<svg
   xmlns:dc="http://purl.org/dc/elements/1.1/"
   xmlns:cc="http://creativecommons.org/ns#"
   xmlns:rdf="http://www.w3.org/1999/02/22-rdf-syntax-ns#"
   xmlns:svg="http://www.w3.org/2000/svg"
   xmlns="http://www.w3.org/2000/svg"
   xmlns:xlink="http://www.w3.org/1999/xlink"
   xmlns:sodipodi="http://sodipodi.sourceforge.net/DTD/sodipodi-0.dtd"
   xmlns:inkscape="http://www.inkscape.org/namespaces/inkscape"
   height="16"
   width="21.333332"
   viewBox="0 0 21.333332 16"
   version="1.1"
   id="svg274"
   sodipodi:docname="ad.svg"
   inkscape:version="0.92.1 r">
  <metadata
     id="metadata280">
    <rdf:RDF>
      <cc:Work
         rdf:about="">
        <dc:format>image/svg+xml</dc:format>
        <dc:type
           rdf:resource="http://purl.org/dc/dcmitype/StillImage" />
        <dc:title></dc:title>
      </cc:Work>
    </rdf:RDF>
  </metadata>
  <defs
     id="defs278" />
  <sodipodi:namedview
     pagecolor="#ffffff"
     bordercolor="#666666"
     borderopacity="1"
     objecttolerance="10"
     gridtolerance="10"
     guidetolerance="10"
     inkscape:pageopacity="0"
     inkscape:pageshadow="2"
     inkscape:window-width="1920"
     inkscape:window-height="1025"
     id="namedview276"
     showgrid="false"
     fit-margin-top="0"
     fit-margin-left="0"
     fit-margin-right="0"
     fit-margin-bottom="0"
     inkscape:zoom="0.49166667"
     inkscape:cx="320"
     inkscape:cy="240"
     inkscape:window-x="0"
     inkscape:window-y="27"
     inkscape:window-maximized="1"
     inkscape:current-layer="svg274" />
  <path
     d="M 0,0 H 21.333333 V 16 H 0 Z"
     id="path2"
     inkscape:connector-curvature="0"
     style="fill:#d0103a;stroke-width:0.03333334" />
  <path
     d="M 0,0 H 14.506667 V 16 H 0 Z"
     id="path4"
     inkscape:connector-curvature="0"
     style="fill:#fedf00;stroke-width:0.03333334" />
  <path
     d="M 0,0 H 6.8266667 V 16 H 0 Z"
     id="path6"
     inkscape:connector-curvature="0"
     style="fill:#0018a8;stroke-width:0.03333334" />
  <path
     d="m 10.013233,4.55423 c 0.257067,0 0.3622,0.22057 0.619267,0.22057 0.158667,0 0.251267,-0.0518 0.389567,-0.12987 0.0965,-0.0547 0.1581,-0.0838 0.268933,-0.0838 0.113467,0 0.183,0.0343 0.241067,0.13157 0.0328,0.0551 0.06,0.16277 0.0456,0.22457 -0.02733,0.1172 -0.04417,0.16813 -0.0909,0.27633 -0.02227,0.052 -0.04327,0.0832 -0.04327,0.14007 0,0.13643 0.185667,0.18333 0.311933,0.18526 0.02753,4.4e-4 0.259,0.004 0.4014,-0.14 -0.07733,-0.003 -0.163766,-0.0632 -0.163766,-0.14046 0,-0.0875 0.06147,-0.14667 0.144766,-0.1719 0.01583,-0.005 0.0428,0.009 0.05713,0.002 0.02033,-0.0105 0.01077,-0.0334 0.02887,-0.0478 0.04147,-0.0331 0.06843,-0.0538 0.121567,-0.0538 0.03467,0 0.055,0.005 0.0829,0.0249 0.01467,0.0106 0.0201,0.0237 0.0382,0.0237 0.03807,0 0.05693,-0.0242 0.095,-0.0242 0.0309,0 0.04977,0.004 0.0769,0.0181 0.0226,0.0117 0.0221,0.0501 0.04773,0.0501 0.01283,0 0.08067,-0.0276 0.116,-0.0276 0.07357,0 0.1128,0.0267 0.160334,0.0824 0.0128,0.0151 0.021,0.0456 0.034,0.0456 0.02627,0 0.08673,0.0169 0.124433,0.0546 0.0162,0.0162 0.0234,0.0239 0.03583,0.0435 0.0087,0.014 0.022,0.048 0.03733,0.0539 0.01793,0.007 0.033,0.006 0.0566,0.0208 0.05393,0.0345 0.09533,0.0994 0.09343,0.16233 -6.67e-4,0.0211 -0.01033,0.0505 -0.016,0.0707 -0.06277,0.21933 -0.2121,0.289 -0.362867,0.47743 -0.0641,0.0803 -0.114666,0.14433 -0.114666,0.24727 0,0.0249 0.03067,0.0705 0.0442,0.0912 -0.0083,-0.0483 0.01383,-0.10777 0.06493,-0.11054 0.07,-0.004 0.124133,0.0495 0.133567,0.1188 0.0019,0.0162 -0.0042,0.0442 -0.01107,0.0608 0.03767,-0.0249 0.08733,-0.0417 0.1326,-0.047 0.02453,-0.003 0.03867,-0.003 0.06357,-0.003 0.1119,0.003 0.2354,0.0657 0.310333,0.12933 0.229333,0.1948 0.257,0.47987 0.244533,0.559 -0.02783,0.17594 -0.01033,0.49427 -0.46,0.6212 0.0832,0.035 0.139767,0.0976 0.139767,0.17447 0,0.0837 -0.06413,0.15533 -0.1478,0.15533 -0.04787,0 -0.08107,-0.0117 -0.1146,-0.0453 -0.0935,0.0935 -0.111567,0.18883 -0.111567,0.32113 0,0.0792 0.0151,0.1259 0.04827,0.19753 0.03507,0.0758 0.06033,0.12024 0.123667,0.1749 0.03353,-0.0505 0.069,-0.0875 0.129666,-0.0875 0.0588,0 0.108567,0.0189 0.132667,0.0724 0.0072,0.0162 7.67e-4,0.0294 0.0091,0.0452 0.01053,0.0203 0.02827,0.0249 0.0392,0.0452 0.017,0.0313 3.33e-4,0.0581 0.01507,0.0905 0.0094,0.0211 0.03017,0.0241 0.0392,0.0452 0.01433,0.0324 0.0181,0.0547 0.0181,0.0905 0,0.10027 -0.09123,0.1719 -0.1915,0.1719 -0.03017,0 -0.04673,-0.0121 -0.0769,-0.009 0.05733,0.0573 0.101,0.0822 0.144767,0.15084 0.06333,0.0991 0.07917,0.16966 0.09347,0.28646 0.0027,0.0218 0.003,0.035 0.003,0.0573 0,0.15 -0.02333,0.23977 -0.09043,0.37393 -0.06413,0.12854 -0.118766,0.1998 -0.235266,0.28347 -0.181667,0.1308 -0.314,0.1685 -0.533767,0.2111 -0.141,0.0271 -0.221667,0.0392 -0.364933,0.0482 -0.1832,0.0117 -0.2876,0.0121 -0.470434,0.0241 -0.239766,0.0162 -0.406,0.0501 -0.576,0.22013 0.08027,0.0588 0.135667,0.11647 0.135667,0.21567 0,0.10173 -0.06293,0.17446 -0.1598,0.20653 -0.02267,0.008 -0.0392,7.3e-4 -0.06033,0.0121 -0.02523,0.0132 -0.0241,0.0422 -0.04823,0.0573 -0.04267,0.0272 -0.0758,0.0332 -0.126666,0.0332 -0.08973,0 -0.1508,-0.0211 -0.214134,-0.0845 -0.07353,0.0611 -0.0984,0.11613 -0.181,0.16286 -0.0271,0.0151 -0.041,0.0362 -0.07233,0.0362 -0.04933,0 -0.072,-0.0313 -0.111567,-0.0603 -0.063,-0.046 -0.09653,-0.0765 -0.1478,-0.13567 -0.075,0.0449 -0.121,0.0814 -0.2081,0.0814 -0.05353,0 -0.08743,-0.008 -0.132666,-0.0362 -0.02377,-0.0147 -0.02753,-0.0366 -0.05127,-0.0513 -0.0249,-0.0155 -0.045667,-0.01 -0.0724,-0.0211 -0.1006667,-0.0433 -0.1658667,-0.118 -0.1658667,-0.22767 0,-0.0961 0.060667,-0.1572 0.1477667,-0.19753 -0.167,-0.167 -0.3313333,-0.196 -0.5669333,-0.2111 -0.1820667,-0.0117 -0.2857334,-0.0121 -0.4674334,-0.0241 -0.1444,-0.01 -0.2246666,-0.0245 -0.368,-0.0482 C 8.4167,10.49817 8.3526,10.49257 8.2535,10.44657 7.9123333,10.28747 7.6948333,10.06923 7.6503333,9.69563 c -0.00377,-0.032 -0.003,-0.0505 -0.003,-0.0829 0,-0.1945 0.0765,-0.31323 0.2141,-0.45083 -0.035433,-0.008 -0.059167,0.003 -0.0935,-0.009 C 7.6820003,9.1216 7.6201667,9.062 7.6201667,8.9704 c 0,-0.0339 0.00153,-0.0565 0.0181,-0.0859 0.011667,-0.0208 0.033933,-0.0249 0.0392,-0.0483 0.00677,-0.0309 -0.00233,-0.0528 0.012,-0.0814 0.00947,-0.0193 0.027167,-0.023 0.036233,-0.0423 0.029767,-0.0618 0.0671,-0.11157 0.1356667,-0.11157 0.058833,0 0.096533,0.0309 0.1266666,0.0814 0.057333,-0.0264 0.073133,-0.0693 0.1055667,-0.12366 0.0539,-0.0901 0.0784,-0.153 0.0784,-0.2578 0,-0.0731 -0.00717,-0.11614 -0.030133,-0.18547 -0.0166,-0.0498 -0.0234,-0.0837 -0.060333,-0.12067 -0.033533,0.0336 -0.066733,0.0453 -0.1146,0.0453 -0.095733,0 -0.1688666,-0.0822 -0.1688666,-0.17793 0,-0.0712 0.035067,-0.124 0.099533,-0.1538 -0.051667,-0.0445 -0.0965,-0.0482 -0.1538,-0.0844 -0.0871,-0.055 -0.1176667,-0.11306 -0.1749333,-0.199 -0.037333,-0.0562 -0.0471,-0.0954 -0.066333,-0.15983 -0.023,-0.0777 -0.0362,-0.124 -0.0362,-0.20507 0,-0.0211 4e-4,-0.0336 0.003,-0.0543 0.0215,-0.16357 0.050933,-0.2661 0.1538334,-0.395 0.0611,-0.0765 0.1025666,-0.12367 0.193,-0.16283 0.076933,-0.0332 0.1229,-0.0573 0.2066,-0.0573 0.025267,0 0.04,0 0.064833,0.003 0.038467,0.005 0.063,0.008 0.0965,0.0271 0.012833,0.007 0.0362,0.0287 0.0362,0.0136 0,-0.0173 -0.00907,-0.0263 -0.00907,-0.0437 0,-0.0694 0.049767,-0.13273 0.1191334,-0.13273 0.050133,0 0.0705,0.0441 0.095,0.0875 0.015833,-0.0264 0.0241,-0.0445 0.0241,-0.0754 0,-0.1146 -0.061467,-0.173 -0.1326667,-0.26233 -0.1553333,-0.19417 -0.3498667,-0.285 -0.3498667,-0.5338 0,-0.0743 0.035833,-0.1248 0.099533,-0.16287 0.018467,-0.0109 0.043333,0 0.0614,-0.0116 0.015433,-0.01 0.013667,-0.0298 0.023467,-0.0456 0.015467,-0.0245 0.029133,-0.0351 0.050667,-0.0539 0.0354,-0.0309 0.0665,-0.0217 0.1056667,-0.0488 0.019667,-0.0136 0.024267,-0.0312 0.039333,-0.0493 0.043733,-0.0528 0.083,-0.0782 0.152,-0.0782 0.034667,0 0.0541,2e-4 0.086167,0.0129 0.010933,0.004 0.031333,0.0207 0.034,0.0175 0.00693,-0.008 0.025667,-0.0281 0.0479,-0.0387 0.029,-0.014 0.0408,-0.0193 0.0732,-0.0193 0.036933,0 0.061167,0.0207 0.0981,0.0207 0.013567,0 0.016667,-0.0135 0.027667,-0.0207 0.032767,-0.0223 0.051667,-0.0348 0.0916,-0.0348 0.038433,0 0.059667,0.0127 0.0921,0.0334 0.030533,0.0192 0.034933,0.045 0.0662,0.0631 0.017333,0.0102 0.032,0.006 0.051267,0.0121 0.086,0.0287 0.1508333,0.0859 0.1508333,0.1764 0,0.049 -0.011667,0.084 -0.048267,0.11607 -0.029,0.0257 -0.056533,0.0211 -0.093467,0.0332 0.1198667,0.0957 0.2241667,0.1195 0.3772,0.1195 0.1402,0 0.3116667,-0.0573 0.3116667,-0.19754 0,-0.0652 -0.036,-0.10026 -0.061667,-0.1602 -0.046,-0.10666 -0.070933,-0.16943 -0.070933,-0.28553 0,-0.092 0.01,-0.14777 0.063567,-0.2224 0.055,-0.0769 0.1222334,-0.0948 0.2168341,-0.0948 z"
     id="path8"
     inkscape:connector-curvature="0"
     style="fill:#c7b37f;stroke-width:0.03333334" />
  <g
     id="g210"
     transform="scale(0.03333333)"
     style="fill:none;stroke:#703d29">
    <path
       d="m 272.378,159.014 c 0.276,1.045 1.12,2.023 2.444,2.437 0.796,0.25 2.638,0.15 3.832,-1.393 0.968,-1.25 0.894,-2.8 0.532,-4.03 -0.234,-0.796 -0.877,-1.565 -1.726,-2.22 l -5.08,5.157 -0.002,0.05 z"
       id="path10"
       inkscape:connector-curvature="0"
       style="stroke-width:0.66600001;stroke-linejoin:round" />
    <path
       d="m 401.03,236.122 c -1.194,-2.886 -4.28,-1.593 -4.47,0 -0.436,3.668 2.78,4.776 5.068,4.18 1.133,-0.296 1.963,-1.01 2.493,-1.94 0.6,-1.05 0.78,-2.42 0.39,-3.728 a 4.9,4.9 0 0 0 -0.847,-1.652 4.973,4.973 0 0 0 -1.28,-1.21 c -0.88,-0.56 -1.84,-0.617 -3.343,-0.617 -5.573,0 -10.45,6.585 -12.087,13.425 -0.54,2.253 -1.28,7.278 -0.253,12.042 1.094,5.075 3.288,8.59 5.862,11.254 1.393,1.443 3.293,2.728 5.753,4.12 0.76,0.428 2.765,1.318 4.158,1.716 1.43,0.41 2.752,0.35 3.942,0.09 3.302,-0.716 4.837,-3.787 3.174,-6.93 -1.363,-2.573 -5.375,-3.98 -7.266,-0.696 -0.16,0.278 -0.41,0.885 -0.402,1.542 0.01,0.876 0.374,1.93 1,2.33 1.436,0.914 3.736,0.655 3.63,-1.882"
       id="path12"
       inkscape:connector-curvature="0"
       style="stroke-width:0.66399997;stroke-linecap:round" />
    <path
       d="m 383.802,273.965 c 1.118,-1.316 3.684,-3.29 6.62,-3.65 2.978,-0.366 5.566,0.5 8.21,1.923 5.157,2.774 8.034,5.756 9.95,11.29 0.487,1.405 0.89,3.523 0.835,5.773 -0.09,3.588 -1,7.51 -1.98,9.404 -0.852,1.654 -3.084,8.956 -15.324,13.996 -7.143,2.94 -18.112,3.618 -25.676,3.917 -10.404,0.41 -20.002,0.796 -25.576,7.663"
       id="path14"
       inkscape:connector-curvature="0"
       style="stroke-width:0.81699997" />
    <g
       id="g20"
       style="stroke-width:0.71700001">
      <path
         d="m 386.4,285.728 c -0.298,-1.095 -0.022,-2.144 0.846,-3.334 1.16,-1.59 3.632,-2.14 5.872,-0.895 0.75,0.415 1.688,0.963 2.537,2.088 0.32,0.426 0.864,1.113 1.145,1.593 0.677,1.16 0.956,2.108 1.09,2.49 2.46,6.993 -1.45,14.572 -6.564,17.613 -3.972,2.362 -8.71,3.415 -14.38,4.08 -2.55,0.3 -4.004,0.28 -6.568,0.398 -2.063,0.097 -3.845,0.062 -5.523,0.042 -1.38,-0.017 -2.69,-0.01 -4.03,-0.04 -2.186,-0.052 -4.448,-0.103 -7.216,0.1 -2.913,0.21 -5.103,0.285 -7.564,0.695 -1.608,0.268 -3.492,0.527 -5.467,0.97 -0.594,0.133 -1.195,0.24 -1.8,0.423 l -1.203,0.368 c -3.566,1.088 -7.03,2.413 -9.765,4.174 -0.844,0.544 -1.798,1.088 -2.48,1.733 -0.426,0.4 -0.943,0.804 -1.36,1.214 -1.914,1.882 -3.87,3.92 -4.328,6.68 -0.084,0.51 -0.084,1.042 -0.084,1.604 0,1.79 1.457,4.23 5.388,5.026 m 5.531,-170.12 c 0.822,1.488 1.275,2.393 0.796,3.93 -0.542,1.744 -1.778,2.788 -3.533,2.788 -3.98,0 -6.322,-4.713 -4.528,-7.713 3.185,-5.324 9.305,-2.334 14.977,0.303 -0.274,-1.365 -0.752,-1.81 -0.702,-3.5 0.124,-4.202 3.24,-6.108 4.483,-9.988 0.742,-2.312 1.037,-4.32 -0.655,-5.962 -1.477,-1.434 -3.188,-1.412 -5.116,-0.656 -3.852,1.51 -8.478,5.848 -16.622,5.968 -8.143,-0.12 -12.808,-4.46 -16.66,-5.968 -1.926,-0.756 -3.638,-0.778 -5.115,0.656 -1.692,1.642 -1.397,3.65 -0.656,5.962 1.244,3.88 4.36,5.786 4.483,9.987 0.05,1.692 -0.428,2.136 -0.7,3.5 5.67,-2.636 12.03,-5.894 14.976,-0.302 1.642,3.116 -0.547,7.713 -4.528,7.713 -1.755,0 -2.987,-1.12 -3.533,-2.787 -0.486,-1.485 0,-2.785 0.796,-3.93"
         id="path16"
         inkscape:connector-curvature="0" />
      <path
         d="m 314.56,159.866 c 1.538,1.176 2.624,2.623 2.443,4.975 -0.197,2.553 -0.815,3.168 -2.805,4.525 m 2.397,-3.798 c -0.09,1.538 -0.723,2.533 -2.26,3.166"
         id="path18"
         inkscape:connector-curvature="0"
         style="stroke-linecap:round" />
    </g>
    <path
       d="m 276.736,153.274 0.697,0.497 0.746,0.797 0.496,0.996 0.25,0.846 0.05,1.093 -0.05,0.746 -0.25,0.845 -0.497,0.597 -0.598,0.647 -0.846,0.447 -1.095,0.25 -0.944,0.148 -0.995,-0.448 -0.895,-0.646 -0.547,-0.796 -0.398,-0.995 v -0.4 l 4.876,-4.626 z"
       id="path22"
       inkscape:connector-curvature="0"
       style="fill:#c7b37f;stroke:none" />
    <path
       d="m 275.206,157.165 c -0.306,-1.652 -2.237,-1.99 -2.985,-1.015 -1.15,1.502 -0.31,4.004 2.034,4.737 0.796,0.25 2.637,0.15 3.83,-1.394 0.97,-1.25 0.895,-2.8 0.533,-4.03 -0.234,-0.796 -0.873,-1.49 -1.726,-2.14 -2.72,-2.07 -7.115,-1.592 -8.558,1.89 -1.862,4.494 2.19,7.863 5.92,10.4 4.7,3.195 10.052,3.776 14.083,3.733 9.156,-0.1 16.122,-4.48 20.65,-6.966 1.055,-0.58 2.14,-0.46 2.687,0.2 0.616,0.744 0.606,1.946 -0.25,2.735"
       id="path24"
       inkscape:connector-curvature="0"
       style="stroke-width:0.66600001;stroke-linecap:round" />
    <path
       d="m 248.064,281.184 -2.04,0.746 -2.09,1.593 -0.896,1.244 -1.144,1.99 -0.498,1.493 -0.398,1.84 -0.2,1.394 m 19.01,-10.102 -0.15,1.792 -0.298,1.244 -0.896,2.14 -1.393,1.84 -1.492,1.195 -1.094,0.547 -1.543,0.348"
       id="path26"
       inkscape:connector-curvature="0"
       style="stroke-width:0.676" />
    <path
       d="m 319.744,329.107 c -0.37,1.656 -1.922,3.55 -5.3,4.235 l -0.655,0.136"
       id="path28"
       inkscape:connector-curvature="0"
       style="stroke-width:0.76599997" />
    <path
       d="m 404.218,276.205 c 2.137,1.993 3.638,4.42 4.792,7.75 0.487,1.404 0.89,3.523 0.834,5.773 -0.09,3.587 -1,7.507 -1.98,9.403 -0.852,1.655 -3.083,8.957 -15.324,13.996 -7.143,2.94 -18.112,3.62 -25.676,3.918 -10.254,0.404 -19.726,0.785 -25.332,7.37"
       id="path30"
       inkscape:connector-curvature="0"
       style="stroke-width:0.86799997" />
    <path
       d="m 387.488,282.848 c 0.76,-1.038 3.53,-2.35 5.77,-1.107 0.737,0.41 1.61,0.928 2.377,2.076"
       id="path32"
       inkscape:connector-curvature="0"
       style="stroke-width:0.59500003" />
    <path
       d="m 401.606,273.786 c 0.5,0.192 1,0.366 1.436,0.49 1.43,0.41 2.776,0.44 3.942,0.09 2.83,-0.848 4.647,-3.492 3.174,-6.93 -0.342,-0.796 -0.996,-1.56 -1.74,-2.133"
       id="path34"
       inkscape:connector-curvature="0"
       style="stroke-width:0.86799997" />
    <path
       d="m 240.282,199.763 c -1.9,1.176 -3.317,1.455 -4.795,3.167 -1.472,2.914 -2.05,4.48 -2.624,6.816 m 46.1,-51.692 c 0,1.72 -1.266,2.805 -2.985,3.167"
       id="path36"
       inkscape:connector-curvature="0"
       style="stroke-width:0.66600001;stroke-linecap:round" />
    <path
       d="m 397.114,192.02 c 4.73,-0.097 18.47,3.608 18.567,19.76 0.098,15.952 -9.844,18.558 -13.827,19.62"
       id="path38"
       inkscape:connector-curvature="0"
       style="stroke-width:0.63800001" />
    <path
       d="m 398.355,192.02 c 8.156,-0.355 16.57,5.648 16.942,20.63 0.29,11.705 -8.01,17.014 -11.995,18.076"
       id="path40"
       inkscape:connector-curvature="0"
       style="stroke-width:0.66399997" />
    <path
       d="m 393.81,248.422 0.127,-1.6 0.533,-2.544 0.754,-1.978 0.848,-1.633 1.1,-1.32 m 7.782,-3.397 -0.125,1.566 -0.45,1.07 -0.695,1.02 -0.796,0.597 -1.22,0.448 -1.07,0.076 -0.796,-0.125 m -14.312,-52.812 0.35,-1.693 0.746,-1.567 0.97,-1.568 1.667,-2.14 1.32,-1.467 2.138,-2.165 1.842,-1.866 1.17,-1.343 1.542,-1.865 1.368,-2.065 0.822,-1.692 0.447,-2.19 0.137,-2.714 -0.248,-0.787 m -12.279,128.174 1.617,-0.324 1.218,-0.647 0.672,-0.67 0.472,-0.772 0.324,-1.244 0.025,-0.87 m -158.248,-12.152 1.194,0.1 1.542,-0.125 1.543,-0.547 m 5.001,-36.548 -0.2,1.393 -0.323,0.622 -0.474,0.597 -0.647,0.498 -0.722,0.323 -0.945,0.15 -0.647,0.05 m 9.903,-15.62 -0.348,2.164 -0.424,0.946 -0.87,1.194 -1.17,0.896 -1.194,0.597 -2.314,0.572 m 15.299,-39.758 -0.447,1.294 -0.55,0.946 -0.745,1.045 -1.045,0.947 -1.244,0.597 -1.045,0.248 -0.646,-0.05 m 0.378,-6.198 0.025,0.995"
       id="path42"
       inkscape:connector-curvature="0"
       style="stroke-width:0.56400001" />
    <g
       id="g192"
       style="stroke-width:0.63200003">
      <path
         d="m 254.285,224.058 a 6.855,6.855 0 0 1 -2.09,1.298 m 150.519,44.826 c 0.085,0.093 0.372,0.14 0.472,0.2 1.418,0.845 4.21,-0.21 3.39,-2.4"
         id="path44"
         inkscape:connector-curvature="0"
         style="stroke-linecap:round" />
      <path
         d="m 397.786,239.603 c 1.006,1.315 2.904,1.657 4.405,1.265 1.134,-0.296 1.964,-1.01 2.494,-1.94 0.598,-1.05 0.78,-2.42 0.39,-3.727 a 4.907,4.907 0 0 0 -0.848,-1.65 c -0.426,-0.563 -0.955,-1.16 -1.364,-1.428 -0.11,-0.07 -0.217,-0.167 -0.332,-0.245 m 6.423,34.016 a 3.94,3.94 0 0 0 0.066,-0.72 c 0,-1.158 -0.485,-2.22 -1.286,-2.934 -0.274,-0.245 -0.54,-0.624 -0.87,-0.79 m 0.476,0.47 c -0.046,-1.864 -1.57,-3.197 -3.462,-3.53 m -4.172,2.84 c -0.435,-0.356 -0.9,-0.657 -1.307,-1.082 -2.45,-2.563 -4.292,-6.352 -4.316,-10.674 -0.024,-4.143 1.642,-8.36 3.582,-10 m -56.5,84.648 1.79,-1.643 1.245,-0.946 2.34,-1.443 2.188,-1.044 1.543,-0.398 3.086,-0.696 3.582,-0.548 m -29.509,19.364 c -1.293,1.99 -4.378,4.976 -7.613,6.17 -3.234,-1.194 -6.32,-4.18 -7.613,-6.17"
         id="path46"
         inkscape:connector-curvature="0" />
      <path
         d="m 314.42,332.627 c -0.406,1.503 -1.143,2.96 -2.22,4.13"
         id="path48"
         inkscape:connector-curvature="0"
         style="stroke-linecap:round" />
      <path
         d="m 314.74,330.54 -0.45,2.19 m -2.335,4.18 -0.945,0.944 -1.692,0.946 -1.94,0.597 m -5.644,-177.829 c 0.243,-0.757 0.49,-1.326 0.455,-2.57 -0.125,-4.2 -3.24,-6.106 -4.484,-9.987 -0.74,-2.31 -1.036,-4.32 0.656,-5.96 1.477,-1.434 3.188,-1.412 5.116,-0.657 3.85,1.51 8.517,5.848 16.66,5.97 -8.143,-0.122 -12.81,-4.46 -16.66,-5.97 -1.928,-0.755 -3.798,-0.976 -5.275,0.457 -1.692,1.642 -1.238,3.85 -0.497,6.16 1.244,3.882 4.2,5.787 4.323,9.99 0.036,1.242 -0.292,1.81 -0.534,2.568 m 18.621,-13.492 c 8.01,-0.423 14.877,-5.806 17.092,-6.245 1.975,-0.392 3.078,-0.215 4.526,1.102 -1.45,-1.317 -3.1,-1.276 -4.973,-0.54 -3.85,1.51 -8.477,5.847 -16.62,5.968 m 79.598,112.886 c -3.334,-2.388 -6.19,-6.948 -6.22,-12.335 -0.023,-4.144 1.642,-8.36 3.582,-10.002 m -69.95,97.575 c -1.295,1.99 -4.38,4.976 -7.614,6.17 -3.234,-1.194 -6.32,-4.18 -7.613,-6.17"
         id="path50"
         inkscape:connector-curvature="0" />
      <path
         d="m 306.67,163.674 c 0.832,-0.462 1.605,-0.9 2.318,-1.292 1.055,-0.58 2.323,-0.458 2.87,0.202 0.615,0.745 0.71,2.037 -0.145,2.826"
         id="path52"
         inkscape:connector-curvature="0"
         style="stroke-linecap:round" />
      <path
         d="m 294.707,169.274 c 5.496,-1.147 9.975,-3.61 13.36,-5.502 m 32.273,164.183 c 0.454,0.31 0.746,0.955 0.746,0.955 0.125,0.3 0.288,0.584 0.333,0.85 0.257,1.522 -0.74,2.47 -1.974,2.614 -1.695,0.197 -2.967,-0.81 -3.51,-2.03 M 294.426,168.992 c 5.496,-1.147 9.974,-3.61 13.36,-5.502 m 97.577,106.904 c -1.045,0.402 -1.616,0.348 -2.916,-0.23 -0.534,-0.236 -1.145,-0.603 -1.86,-1.01 -2.548,-1.446 -5.574,-3.727 -8.41,-9.05 a 18.812,18.812 0 0 1 -1.71,-4.476 c -0.27,-1.11 -0.458,-2.208 -0.5,-3.335 -0.068,-1.92 0.14,-3.925 0.618,-6.222 0.79,-3.79 1.744,-5.85 4.08,-9.055 1.15,-1.576 2.14,-2.537 4.28,-2.587 M 255.25,195.123 c 1.78,1.512 2.64,3.384 2.64,5.722 0,3.1 -2.594,8.16 -8.963,9.952 -2.44,0.686 -4.856,0.132 -6.317,-0.756"
         id="path54"
         inkscape:connector-curvature="0" />
      <path
         d="m 256.294,205.62 c 1.145,0.795 1.593,1.69 1.593,3.244 0,1.065 -0.69,2.446 -1.86,3.754 -1.92,2.142 -5.173,3.962 -8.78,4.007 -1.955,0.024 -3.986,-0.384 -6.03,-1.75 -2.184,-1.46 -3.333,-3.434 -3.83,-5.375"
         id="path56"
         inkscape:connector-curvature="0" />
      <path
         d="m 256.192,212.294 c 1.297,1.192 1.695,2.684 1.695,4.563 0,2.745 -1.115,4.864 -3.68,7.108 -0.573,0.502 -1.22,0.972 -1.94,1.395 m 129.429,-22.077 v 3.532 m -0.282,-4.402 v 4.975 m 0.282,-15.746 v 6.518 m -0.282,-7.958 v 8.907 m -1.9,81.961 c -1.236,2.453 -2.223,3.742 -4.18,5.67 -1.975,1.947 -3.343,2.84 -5.822,4.08 -2.414,1.21 -3.934,1.596 -6.568,2.19 -2.632,0.595 -4.17,0.725 -6.867,0.847 -2.47,0.112 -3.874,0.008 -6.342,-0.163 -2.64,-0.183 -4.107,-0.55 -6.744,-0.783 -2.178,-0.19 -3.408,-0.366 -5.595,-0.36 -2.248,0.006 -3.536,0.02 -5.75,0.41 -2.062,0.366 -3.232,0.657 -5.174,1.444 -2.685,1.088 -5.72,2.985 -6.368,3.83 -0.647,-0.845 -3.683,-2.742 -6.37,-3.83 -1.94,-0.787 -3.11,-1.078 -5.174,-1.443 -2.214,-0.39 -3.5,-0.405 -5.75,-0.41 -2.186,-0.007 -3.417,0.17 -5.595,0.36 -2.638,0.233 -4.103,0.6 -6.744,0.784 -2.47,0.17 -3.872,0.275 -6.343,0.163 -2.696,-0.122 -4.235,-0.25 -6.867,-0.846 -2.633,-0.596 -4.153,-0.98 -6.568,-2.19 -2.48,-1.238 -3.847,-2.133 -5.822,-4.08 -0.213,-0.21 -0.415,-0.412 -0.607,-0.61 m 42.168,53.367 1.79,-0.223 m 30.274,-2.355 1.808,-0.173 1.722,-0.69 1.205,-0.73 1.637,-1.94 0.345,-0.73 0.258,-1.68 0.086,-0.774 m 46.91,-136.695 c 0.777,-2.64 -0.17,-5.43 -2.73,-5.354 M 257.786,234.72 c -0.65,2.194 -2.044,3.693 -3.597,4.668 m 3.641,-46.716 c -0.64,1.85 -1.81,3.17 -3.663,4.007 -1.847,0.833 -3.985,0.054 -5.13,-0.828"
         id="path58"
         inkscape:connector-curvature="0" />
      <path
         d="m 243.808,202.368 c 1.53,0.802 3.084,-0.374 2.766,-2.365 -0.15,-0.933 -1.155,-2.112 -2.517,-2.198"
         id="path60"
         inkscape:connector-curvature="0"
         style="stroke-linecap:round" />
      <path
         d="m 250.157,286.63 c 0.33,0.31 0.4,0.714 0.846,0.796 0.67,0.125 1.194,0.374 1.866,-0.522 0.827,-1.104 0.382,-2.82 -0.48,-3.902 -0.922,-1.157 -3.592,-2.18 -5.83,-0.936 -0.75,0.416 -1.69,0.964 -2.54,2.09 -0.32,0.426 -0.863,1.113 -1.143,1.592 -0.678,1.16 -0.956,2.107 -1.09,2.488 -2.05,5.823 0.384,11.945 4.152,15.676"
         id="path62"
         inkscape:connector-curvature="0" />
      <path
         d="m 340.218,327.827 c 0.408,0.426 0.646,0.796 0.646,0.796 0.126,0.3 0.23,0.584 0.274,0.85 0.258,1.522 -0.74,2.47 -1.973,2.614 -1.695,0.197 -2.83,-0.802 -3.37,-2.02"
         id="path64"
         inkscape:connector-curvature="0"
         style="stroke-linecap:round" />
      <path
         d="m 389.44,154.758 c 3.346,0.408 6.262,3.602 6.262,7.035 0,4.43 -1.492,6.078 -3.824,9.246 -2.495,3.39 -10.648,9.602 -10.648,16.668 0,4.28 1.194,7.015 4.28,8.408 1.988,0.9 4.314,-0.074 5.373,-1.03 2.587,-2.34 1.553,-6.44 -1.144,-6.93 -3.286,-0.598 -3.903,4.573 -0.698,4.23 m 17.826,69.061 c -0.294,-1.772 -1.8,-3.122 -3.615,-3.122 -2.024,0 -3.666,1.68 -3.666,3.756 0,1.016 0.394,1.938 1.034,2.615"
         id="path66"
         inkscape:connector-curvature="0" />
      <path
         d="m 383.866,195.123 c -1.78,1.512 -2.638,3.384 -2.638,5.722 0,3.1 2.592,8.16 8.962,9.952 2.44,0.686 4.772,0.62 6.233,-0.267 M 240.39,200.192 c -1.522,0.508 -3.423,1.458 -4.83,3.453 -1.19,1.683 -1.882,4.023 -2.31,6.07 -0.19,0.896 -0.413,3.733 0.16,6.663 0.424,2.163 1.317,4.177 2.306,5.636 a 7.94,7.94 0 0 0 1.037,1.236 c 0.33,0.33 0.802,0.624 1.135,0.88 m 64.012,92.043 c 4.85,2.15 8.404,3.76 11.418,8.518 0.945,1.494 1.194,3.634 1.194,4.877 0,2.687 -1.095,5.723 -3.334,7.613 -2.078,1.755 -4.13,2.29 -6.667,2.04 -1.924,-0.188 -3.73,-1.592 -4.03,-2.587 M 254.003,224.128 c 2.737,2.14 3.88,4.215 3.88,7.514 0,3.78 -1.84,6.12 -3.98,7.463"
         id="path68"
         inkscape:connector-curvature="0" />
      <path
         d="m 251.514,236.422 c 4.08,5.076 6.245,8.088 6.37,14.132 0.115,5.672 -1.693,9.553 -5.077,13.634"
         id="path70"
         inkscape:connector-curvature="0"
         style="stroke-linecap:round" />
      <path
         d="m 329.747,169.325 c 0.742,-0.487 1.286,-1.267 1.6,-2.23 0.48,-1.49 0.49,-2.757 -0.305,-3.902 0.982,1.285 1.072,2.37 0.796,3.93 -0.176,0.994 -0.81,1.517 -1.6,2.23 m 51.458,86.161 v 16.154 h 0.043 c 0,0.01 -0.007,1.53 -0.137,2.488 a 34.413,34.413 0 0 1 -0.274,1.73"
         id="path72"
         inkscape:connector-curvature="0" />
      <path
         d="m 381.414,253.958 v 17.423 h 0.043 c 0,0.013 -0.005,1.53 -0.135,2.49 -0.136,1 -0.28,1.847 -0.467,2.64 m 0.559,-42.949 v 14.53 m 0.282,-13.385 v 11.817 m 0,-26.844 v 8.858 m -0.282,-9.901 v 10.92 m 0.282,-18.933 v 3.436 m -0.282,-4.134 v 4.977 m -1.844,65.193 c -0.105,0.224 -0.218,0.455 -0.338,0.694 -1.235,2.454 -2.222,3.743 -4.18,5.672 -1.974,1.947 -3.343,2.838 -5.82,4.08 -2.415,1.21 -3.936,1.595 -6.57,2.19 -2.63,0.594 -4.17,0.724 -6.866,0.846 -2.472,0.11 -3.874,0.007 -6.342,-0.163 -2.642,-0.183 -4.107,-0.55 -6.744,-0.783 -2.18,-0.19 -3.41,-0.367 -5.596,-0.362 -2.248,0.007 -3.536,0.02 -5.75,0.412 -2.062,0.365 -3.232,0.656 -5.174,1.443 -2.687,1.088 -5.722,2.985 -6.37,3.83 -0.646,-0.845 -3.682,-2.742 -6.368,-3.83 -1.942,-0.787 -3.112,-1.078 -5.175,-1.443 -2.214,-0.392 -3.502,-0.406 -5.75,-0.412 -2.186,-0.006 -3.417,0.17 -5.595,0.362 -2.638,0.232 -4.103,0.6 -6.745,0.783 -2.468,0.17 -3.87,0.274 -6.342,0.163 -2.695,-0.122 -4.235,-0.25 -6.866,-0.846 -2.635,-0.597 -4.154,-0.982 -6.57,-2.19 -2.48,-1.24 -3.847,-2.133 -5.82,-4.08 -1.035,-1.02 -1.798,-1.86 -2.47,-2.787 m -2.009,-3.189 c 0.425,3.163 -0.905,6.272 -2.256,7.702 -0.846,0.896 -2.688,2.607 -4.976,2.637 -3.78,0.05 -4.91,-2.55 -5.14,-3.184"
         id="path74"
         inkscape:connector-curvature="0" />
      <path
         d="m 255.616,278.848 c 0.702,0.693 1.325,1.54 1.852,2.538 0.945,1.79 0.654,4.787 -0.095,6.17 a 4.427,4.427 0 0 1 -0.304,0.478 m -20.243,18.014 c 2.248,2.36 5.65,4.923 10.873,7.073 7.142,2.942 18.11,3.62 25.675,3.918 10.057,0.397 19.323,0.81 24.966,7.04 m 17.366,-4.073 c 1.662,1.636 3.358,3.39 4.074,5.63 m -7.345,11.452 a 8.22,8.22 0 0 1 -0.693,0.66 c -2.078,1.753 -4.13,2.288 -6.668,2.04 -1.924,-0.19 -3.78,-1.632 -4.278,-2.577 m -5.353,-2.907 c 0.093,0.127 0.19,0.25 0.293,0.37 1.208,1.406 3.115,2.288 5.106,2.452 m 26.87,-0.076 c -1.294,1.99 -4.38,4.975 -7.613,6.17 -3.235,-1.195 -6.32,-4.18 -7.614,-6.17 l -0.302,-0.465 m 15.58,0.452 c 0.23,0.25 0.478,0.488 0.74,0.71 2.078,1.754 4.13,2.288 6.668,2.04 1.925,-0.19 3.453,-1.475 4.07,-2.588 0,0 0.347,-0.373 0.444,-0.73"
         id="path76"
         inkscape:connector-curvature="0" />
      <path
         d="m 339.04,336.634 -0.743,1.194 -1.13,0.937 -1.71,0.71 -1.55,0.065"
         id="path78"
         inkscape:connector-curvature="0" />
      <path
         d="m 343.06,325.26 c 0.915,0.703 1.814,1.767 2.302,2.903 0.314,0.73 0.46,1.533 0.505,2.366 a 5.854,5.854 0 0 1 -1.423,4.142 c -1.278,1.49 -3.272,2.39 -5.395,2.475 a 5.482,5.482 0 0 1 -0.47,0 m 0.186,-0.282 c -2.03,0.08 -3.843,-0.788 -5.18,-2.16 m 63.675,-67.869 c -1.582,-1.46 -3.222,-3.48 -4.804,-6.45 a 18.803,18.803 0 0 1 -1.71,-4.474 c -0.27,-1.11 -0.458,-2.208 -0.5,-3.334 -0.068,-1.92 0.14,-3.925 0.618,-6.222 0.79,-3.792 2.203,-6.726 4.08,-9.056 0.64,-0.795 1.38,-1.786 2.08,-2.232 m -1.376,-75.817 c 2.538,0.2 4.89,2.932 4.858,5.61 -0.045,3.89 -1.35,5.497 -4.41,9.31 -2.637,3.283 -10.55,9.055 -10.35,14.578 0.036,0.98 0.564,1.994 1.154,2.81 m -3.162,3.462 c 0.562,0.556 1.242,1.014 2.052,1.38 1.447,0.654 3.073,0.317 4.26,-0.283 m -21.173,-43.221 c 0.85,0.58 1.716,1.466 2.185,2.6 1.862,4.492 -2.19,7.86 -5.92,10.4 -2.677,1.818 -5.565,2.79 -8.3,3.28"
         id="path80"
         inkscape:connector-curvature="0" />
      <path
         d="m 364.602,161.555 c -0.905,-0.01 -1.98,-0.267 -3.15,-1.497 -0.268,-0.283 -0.583,-0.658 -0.707,-0.994 m -14.857,4.904 c -0.473,-0.237 -0.98,-0.582 -1.32,-0.962 -0.887,-0.993 -1.48,-2.336 -0.795,-4.386 0.632,-1.897 3.677,-7.216 3.827,-10.898 0.228,-5.625 -1.936,-8.945 -5.32,-10.24"
         id="path82"
         inkscape:connector-curvature="0" />
      <path
         d="m 347.315,146.464 -0.132,2.115 -0.573,2.16 -1.1,2.95 -0.84,1.896 -0.88,1.895 -0.44,1.323 -0.177,0.97 0.133,0.925 m 38.012,126.278 c 0.175,0.423 0.597,0.836 0.597,0.836 0.647,1.08 3.162,2.98 5.45,3.01 3.78,0.05 4.68,-2.598 4.777,-3.186 0.477,-2.885 -0.51,-3.675 -1.99,-4.488 0,0 -0.872,-0.45 -1.917,-0.277"
         id="path84"
         inkscape:connector-curvature="0"
         style="stroke-linecap:round" />
      <path
         d="m 236.947,274.35 c -1.335,0.34 -2.59,0.35 -3.685,0.02 -2.83,-0.85 -5.124,-3.56 -3.954,-6.93 m 13.386,-31.824 c 0.284,0.285 0.375,0.71 0.418,1.07 0.437,3.667 -2.777,4.736 -5.066,4.14 -1.134,-0.297 -2.485,-1.35 -3.015,-2.28 a 4.707,4.707 0 0 1 -0.614,-2.303 m 22.057,-23.667 c 0.573,0.527 0.97,1.112 1.236,1.764 m -1.134,-8.516 c 0.53,0.37 0.912,0.84 1.168,1.307"
         id="path86"
         inkscape:connector-curvature="0" />
      <path
         d="m 257.862,210.522 c -0.31,0.762 -0.843,1.584 -1.555,2.38 -1.92,2.14 -5.173,3.96 -8.778,4.005 -1.957,0.025 -3.988,-0.384 -6.03,-1.75 -2.186,-1.46 -3.61,-3.538 -4.082,-5.578"
         id="path88"
         inkscape:connector-curvature="0"
         style="stroke-linecap:round" />
      <path
         d="m 255.43,195.283 c 1.108,0.942 1.958,2.142 2.367,3.39"
         id="path90"
         inkscape:connector-curvature="0" />
      <path
         d="m 257.83,203.238 c -0.885,2.928 -3.526,6.548 -8.622,7.84 -2.435,0.616 -5.57,-0.155 -6.64,-1.066"
         id="path92"
         inkscape:connector-curvature="0"
         style="stroke-linecap:round" />
      <path
         d="m 240.038,202.554 c 0.267,2.637 2.032,4.613 5.377,4.677 4.704,0.09 7.564,-6.767 3.384,-11.58"
         id="path94"
         inkscape:connector-curvature="0" />
      <path
         d="m 229.453,225.53 c 0.687,0.862 1.496,1.64 2.323,2.327 1.677,1.396 3.655,2.625 5.934,3.298 m 5.28,0.493 c 4.203,-0.505 6.573,-3.638 6.103,-7.302 -0.358,-2.793 -2.92,-4.94 -4.662,-5.064"
         id="path96"
         inkscape:connector-curvature="0"
         style="stroke-linecap:round" />
      <path
         d="m 249.85,188.11 c 1.823,-0.07 2.86,1.588 2.844,2.984"
         id="path98"
         inkscape:connector-curvature="0" />
      <path
         d="m 249.42,163.078 c 1,2.614 2.947,4.657 5.032,5.824 m 144.178,30.964 c 1.72,2.354 0.594,6.996 -4.082,7.084 -1.827,0.035 -3.475,-0.978 -4.44,-2.51"
         id="path100"
         inkscape:connector-curvature="0"
         style="stroke-linecap:round" />
      <path
         d="m 381.696,169.12 v 15.8"
         id="path102"
         inkscape:connector-curvature="0" />
      <path
         d="m 243.757,202.33 c 1.443,1.044 3.296,-0.72 2.58,-2.592 -0.485,-1.264 -2.282,-2.628 -4.77,-0.937 -2.747,1.87 -1.99,7.764 3.285,7.863 4.703,0.09 7.563,-6.767 3.383,-11.58 -4.02,-4.63 -11.345,-3.546 -16.12,0.254 -2.034,1.617 -5.873,5.853 -7.067,11.625 -0.372,1.797 -0.612,3.272 -0.584,5.075 0.02,1.188 0.13,2.52 0.484,4.18 0.72,3.354 1.9,5.81 3.076,7.517 0.45,0.654 0.862,1.197 1.303,1.638 0.82,0.82 1.064,1.253 1.89,1.94 2.704,2.25 6.186,4.014 10.45,3.832 4.677,-0.2 7.365,-3.483 6.867,-7.364 -0.483,-3.763 -4.282,-5.636 -6.768,-3.88 -1.692,1.193 -2.293,4.89 0.697,5.77 1.692,0.498 3.184,-1.64 1.99,-2.885 m 129.563,-71.951 c 2.7,-1.466 4.78,-1.195 6.32,0.94 1.672,2.322 1.91,5.41 1.542,7.22 -0.547,2.687 -1.324,3.803 -3.46,5.752"
         id="path104"
         inkscape:connector-curvature="0"
         style="stroke-linecap:round" />
      <path
         d="m 380.53,152.032 c 3.086,-2.04 6.427,-1.174 8.26,1.543 1.345,1.99 1.688,3.655 1.593,6.12 -0.162,4.224 -2.805,7.572 -5.722,9.205"
         id="path106"
         inkscape:connector-curvature="0"
         style="stroke-linecap:round" />
      <path
         d="m 395.06,159.15 c 2.537,0.198 4.577,2.495 4.577,5.174 0,3.83 -1.07,5.493 -4.13,9.305 -2.637,3.283 -10.55,9.055 -10.35,14.578 0.076,2.088 1.836,4.056 3.355,4.166"
         id="path108"
         inkscape:connector-curvature="0" />
      <path
         d="m 395.36,202.33 c -1.443,1.044 -3.284,-0.643 -2.488,-2.434 0.55,-1.237 2.19,-2.786 4.677,-1.095 2.747,1.87 1.99,7.764 -3.285,7.863 -4.704,0.09 -7.883,-6.59 -3.383,-11.58 4.106,-4.554 11.72,-3.662 16.498,0.138 2.032,1.618 6.122,6.06 7,11.887 1.06,7.053 0.924,15.728 -6.36,21.07 -2.93,2.148 -6.988,3.125 -10.57,2.968 -4.678,-0.205 -7.365,-3.483 -6.867,-7.365 0.482,-3.762 4.105,-5.355 6.767,-3.88 2.764,1.53 2.28,5.417 -0.697,5.77 -1.75,0.21 -3.184,-1.64 -1.99,-2.885"
         id="path110"
         inkscape:connector-curvature="0"
         style="stroke-linecap:round" />
      <path
         d="m 392.87,199.898 c 0.776,-3.49 3.767,-3.816 6.18,-3.78 6.59,0.096 11.148,7.912 11.224,15.473 0.096,9.552 -4.054,15.176 -11.035,15.475 -1.807,0.078 -4.918,-0.782 -4.972,-2.985"
         id="path112"
         inkscape:connector-curvature="0" />
      <path
         d="m 396.928,198.336 c 6.95,1.544 9.39,7.805 9.39,13.78 0,4.875 -0.484,11.535 -9.97,13.877"
         id="path114"
         inkscape:connector-curvature="0"
         style="stroke-linecap:square" />
      <path
         d="m 408.39,265.33 a 3.906,3.906 0 1 0 -6.264,2.343"
         id="path116"
         inkscape:connector-curvature="0" />
      <path
         d="m 394.45,259.41 c 1.31,1.942 2.892,4.1 6.235,5.913 m -1.255,10.549 c -3.276,-2.15 -9.496,-4.967 -15.12,-2.194 -2.085,1.03 -3.482,2.302 -4.27,4.378 -1.422,3.737 0.166,7.856 1.783,9.567 0.846,0.896 2.688,2.607 4.976,2.637 3.78,0.05 4.68,-2.596 4.776,-3.184 0.448,-2.737 -1.145,-3.832 -1.99,-4.13 -0.65,-0.23 -2.76,-0.17 -3.208,1.322 -0.15,0.497 -0.176,1.365 0.222,2.012"
         id="path118"
         inkscape:connector-curvature="0"
         style="stroke-linecap:round" />
      <path
         d="m 340.474,328.422 c 1.045,2.14 -0.144,3.215 -1.593,3.384 -2.138,0.25 -3.283,-1.443 -3.432,-2.986 -0.242,-2.5 1.866,-4.767 4.38,-4.727 2.26,0.037 4.104,1.497 4.968,3.505 0.314,0.73 0.46,1.533 0.504,2.367 a 5.852,5.852 0 0 1 -1.422,4.143 c -1.28,1.49 -3.273,2.39 -5.395,2.475 -4.224,0.17 -7.513,-3.782 -7.513,-7.812 0,-7.712 11.438,-11.918 15.972,-13 5.573,-1.33 8.964,-1.828 17.913,-2.325 3.583,-0.2 6.207,-0.098 10.15,-0.507 3.53,-0.366 5.375,-0.538 9.007,-1.384 4.533,-1.055 8.758,-2.936 12.54,-6.37 2.91,-2.643 4.577,-4.527 5.925,-8.16 1.164,-3.133 1.698,-9.34 -1.248,-13.93 -2.605,-4.06 -6.22,-6.166 -10.35,-6.763 -3.732,-0.54 -7.004,1.07 -8.958,4.773 -0.945,1.79 -0.654,4.787 0.095,6.17 0.647,1.194 2.494,2.955 4.782,2.985 3.78,0.05 4.68,-2.596 4.776,-3.184 0.447,-2.737 -1.145,-3.832 -1.99,-4.13 -0.65,-0.23 -2.76,-0.17 -3.208,1.322 -0.15,0.497 -0.176,1.365 0.222,2.012"
         id="path120"
         inkscape:connector-curvature="0"
         style="stroke-linecap:round" />
      <path
         d="m 337.216,316.173 c -4.85,2.15 -8.403,3.76 -11.417,8.518 -0.946,1.494 -1.195,3.634 -1.195,4.877 0,2.687 1.094,5.723 3.334,7.613 2.076,1.755 4.13,2.29 6.666,2.04 1.925,-0.188 3.732,-1.592 4.03,-2.587"
         id="path122"
         inkscape:connector-curvature="0"
         style="stroke-linecap:round" />
      <path
         d="m 385.107,224.128 c -2.268,0.757 -3.88,4.215 -3.88,7.514 0,3.78 1.84,6.12 3.98,7.463"
         id="path124"
         inkscape:connector-curvature="0" />
      <path
         d="m 387.597,236.422 c -4.08,5.076 -6.245,8.088 -6.37,14.132 -0.116,5.672 1.693,9.553 5.076,13.634"
         id="path126"
         inkscape:connector-curvature="0"
         style="stroke-linecap:round" />
      <path
         d="m 365.85,152.05 c 0.105,-0.155 0.22,-0.327 0.35,-0.517 1.692,-2.488 4.68,-3.143 6.866,-1.493 2.638,1.99 3.304,5.378 2.588,8.957 -0.448,2.24 -1.967,4.104 -4.048,5.453"
         id="path128"
         inkscape:connector-curvature="0" />
      <path
         d="m 265.1,150.835 c -2.587,-1.194 -4.717,-0.964 -6.32,0.94 -1.84,2.19 -1.91,5.41 -1.54,7.22 0.546,2.687 1.323,3.803 3.46,5.752"
         id="path130"
         inkscape:connector-curvature="0"
         style="stroke-linecap:round" />
      <path
         d="m 258.58,152.032 c -3.086,-2.04 -6.427,-1.174 -8.26,1.543 -1.344,1.99 -1.688,3.655 -1.593,6.12 0.162,4.224 2.806,7.572 5.722,9.205"
         id="path132"
         inkscape:connector-curvature="0" />
      <path
         d="m 249.677,154.758 c -3.346,0.408 -6.016,3.244 -6.016,6.678 0,4.428 1.09,6.22 3.58,9.603 2.492,3.39 10.647,9.602 10.647,16.668 0,4.28 -1.194,7.015 -4.28,8.408 -1.99,0.9 -4.314,-0.074 -5.373,-1.03 -2.588,-2.34 -1.553,-6.44 1.144,-6.93 3.284,-0.598 3.9,4.573 0.697,4.23"
         id="path134"
         inkscape:connector-curvature="0" />
      <path
         d="m 244.05,159.15 c -2.537,0.198 -5.033,2.38 -5.033,5.06 0,3.83 1.526,5.607 4.586,9.418 2.638,3.284 10.088,8.942 9.89,14.465 -0.076,2.09 -1.48,4.642 -2.873,4.344"
         id="path136"
         inkscape:connector-curvature="0" />
      <path
         d="m 238.08,236.122 c 1.194,-2.886 4.28,-1.593 4.47,0 0.436,3.668 -2.778,4.776 -5.067,4.18 -1.134,-0.296 -1.963,-1.01 -2.493,-1.94 -0.598,-1.05 -0.78,-2.42 -0.39,-3.728 a 4.903,4.903 0 0 1 0.848,-1.652 4.97,4.97 0 0 1 1.28,-1.21 c 0.88,-0.56 1.838,-0.617 3.342,-0.617 5.573,0 10.45,6.585 12.087,13.425 0.54,2.253 1.28,7.278 0.254,12.042 -1.094,5.075 -3.288,8.59 -5.86,11.254 -1.395,1.443 -3.295,2.728 -5.755,4.12 -0.76,0.428 -2.764,1.318 -4.158,1.716 -1.43,0.41 -2.775,0.44 -3.94,0.09 -2.83,-0.848 -4.648,-3.493 -3.175,-6.93 1.147,-2.676 5.374,-3.98 7.265,-0.696 0.16,0.278 0.41,0.885 0.402,1.542 -0.01,0.876 -0.375,1.93 -1,2.33 -1.438,0.914 -3.737,0.655 -3.63,-1.882"
         id="path138"
         inkscape:connector-curvature="0"
         style="stroke-linecap:round" />
      <path
         d="m 233.754,270.394 c 1.045,0.402 1.616,0.348 2.916,-0.23 0.534,-0.236 1.145,-0.603 1.86,-1.01 2.548,-1.446 5.573,-3.727 8.41,-9.05 a 18.803,18.803 0 0 0 1.71,-4.476 c 0.27,-1.11 0.458,-2.208 0.5,-3.335 0.068,-1.92 -0.14,-3.925 -0.618,-6.222 -0.79,-3.79 -1.744,-5.85 -4.08,-9.055 -1.15,-1.576 -2.14,-2.537 -4.28,-2.587 m -9.446,30.901 a 3.906,3.906 0 1 1 6.264,2.343"
         id="path140"
         inkscape:connector-curvature="0" />
      <path
         d="m 232.243,261.446 c 0.294,-1.772 1.8,-3.122 3.615,-3.122 2.025,0 3.666,1.68 3.666,3.756 a 3.793,3.793 0 0 1 -1.033,2.615"
         id="path142"
         inkscape:connector-curvature="0" />
      <path
         d="m 239.373,261.248 c 3.334,-2.388 6.19,-6.948 6.22,-12.335 0.022,-4.144 -1.643,-8.36 -3.583,-10.002"
         id="path144"
         inkscape:connector-curvature="0" />
      <path
         d="m 244.666,259.41 c -1.308,1.942 -2.89,4.1 -6.234,5.913"
         id="path146"
         inkscape:connector-curvature="0"
         style="stroke-linecap:round" />
      <path
         d="m 254.598,273.683 c -0.927,-2.18 -2.77,-3.19 -5.772,-3.51 -2.984,-0.32 -5.567,0.5 -8.21,1.922 -5.158,2.775 -8.034,5.757 -9.952,11.29 -0.486,1.406 -0.89,3.524 -0.834,5.774 0.09,3.586 1,7.506 1.98,9.402 0.852,1.654 3.084,8.956 15.324,13.996 7.143,2.94 18.112,3.618 25.676,3.916 10.404,0.41 20.003,0.797 25.576,7.663"
         id="path148"
         inkscape:connector-curvature="0" />
      <path
         d="m 239.68,275.872 c 3.277,-2.15 9.496,-4.967 15.12,-2.194 2.085,1.03 3.482,2.302 4.27,4.378 1.422,3.737 -0.166,7.856 -1.783,9.567 -0.846,0.896 -2.688,2.607 -4.976,2.637 -3.78,0.05 -4.68,-2.596 -4.775,-3.184 -0.448,-2.737 1.144,-3.832 1.99,-4.13 0.65,-0.23 2.76,-0.17 3.207,1.322 0.15,0.497 0.176,1.365 -0.222,2.012"
         id="path150"
         inkscape:connector-curvature="0"
         style="stroke-linecap:round" />
      <path
         d="m 252.71,285.728 c 0.3,-1.095 0.145,-2.244 -0.845,-3.334 -0.996,-1.094 -3.633,-2.14 -5.872,-0.895 -0.75,0.415 -1.688,0.963 -2.538,2.088 -0.32,0.426 -0.864,1.113 -1.144,1.593 -0.677,1.16 -0.955,2.108 -1.09,2.49 -2.46,6.993 1.545,14.42 6.565,17.613 4.378,2.786 8.857,3.582 14.38,4.08 2.556,0.23 4.004,0.28 6.568,0.398 2.063,0.097 3.845,0.062 5.523,0.042 1.38,-0.017 2.69,-0.01 4.03,-0.04 2.186,-0.052 4.448,-0.103 7.216,0.1 2.912,0.21 5.102,0.285 7.563,0.695 1.608,0.268 3.492,0.527 5.467,0.97 0.593,0.133 1.194,0.24 1.798,0.423 0.406,0.123 0.807,0.247 1.204,0.368 3.566,1.088 7.03,2.413 9.764,4.174 0.845,0.544 1.818,1.07 2.482,1.733 0.51,0.51 0.942,0.804 1.36,1.214 1.913,1.882 3.87,3.92 4.327,6.68 0.084,0.51 0.084,1.042 0.084,1.604 0,1.79 -1.456,4.23 -5.387,5.026"
         id="path152"
         inkscape:connector-curvature="0" />
      <path
         d="m 298.637,328.422 c -1.045,2.14 0.143,3.215 1.592,3.384 2.14,0.25 3.283,-1.443 3.432,-2.986 0.242,-2.5 -1.866,-4.767 -4.38,-4.727 -2.26,0.037 -4.104,1.497 -4.968,3.505 -0.314,0.73 -0.46,1.533 -0.504,2.367 a 5.853,5.853 0 0 0 1.423,4.143 c 1.278,1.49 3.272,2.39 5.394,2.475 4.224,0.17 7.514,-3.782 7.514,-7.812 0,-7.712 -11.438,-11.918 -15.972,-13 -5.573,-1.33 -8.964,-1.828 -17.913,-2.325 -3.582,-0.2 -6.206,-0.098 -10.15,-0.507 -3.53,-0.366 -5.375,-0.538 -9.008,-1.384 -4.532,-1.055 -8.757,-2.936 -12.538,-6.37 -2.913,-2.643 -4.58,-4.527 -5.927,-8.16 -1.164,-3.133 -1.698,-9.34 1.248,-13.93 2.605,-4.06 6.22,-6.166 10.35,-6.763 3.732,-0.54 7.004,1.07 8.958,4.773 0.945,1.79 0.654,4.787 -0.095,6.17 -0.647,1.194 -2.494,2.955 -4.78,2.985 -3.783,0.05 -4.682,-2.596 -4.778,-3.184 -0.448,-2.737 1.144,-3.832 1.99,-4.13 0.65,-0.23 2.76,-0.17 3.208,1.322 0.15,0.497 0.176,1.365 -0.222,2.012"
         id="path154"
         inkscape:connector-curvature="0" />
      <path
         d="m 273.26,152.05 c -0.104,-0.155 -0.22,-0.327 -0.35,-0.517 -1.69,-2.488 -4.68,-3.143 -6.866,-1.493 -2.637,1.99 -3.303,5.378 -2.588,8.957 0.448,2.24 1.967,4.104 4.048,5.453"
         id="path156"
         inkscape:connector-curvature="0"
         style="stroke-linecap:round" />
      <path
         d="m 366.746,159.597 c -4.03,4.378 -8.06,5.777 -14.082,5.97 -1.88,0.062 -5.474,-0.596 -7.564,-2.084 -1.342,-0.956 -2.836,-2.593 -1.89,-5.43 0.63,-1.895 3.677,-7.213 3.826,-10.896 0.228,-5.625 -1.936,-8.708 -5.32,-9.902 -6.255,-2.208 -12.97,3.975 -17.016,5.324 -2.116,0.704 -3.194,0.787 -5.126,0.795 -1.93,-0.008 -3.048,-0.09 -5.163,-0.796 -4.046,-1.35 -10.76,-7.533 -17.017,-5.325 -3.383,1.194 -5.547,4.277 -5.32,9.902 0.15,3.682 3.196,9 3.827,10.897 0.946,2.836 -0.548,4.473 -1.89,5.43 -2.09,1.487 -5.683,2.144 -7.564,2.084 -6.02,-0.194 -10.05,-1.593 -14.082,-5.97"
         id="path158"
         inkscape:connector-curvature="0" />
      <path
         d="m 297.33,314.413 c 0.8,0.31 0.195,-0.19 5.246,2.05 4.85,2.15 8.29,4.032 11.304,8.79 0.946,1.494 1.194,3.633 1.194,4.877 0,0.802 -0.097,1.635 -0.293,2.46"
         id="path160"
         inkscape:connector-curvature="0"
         style="stroke-linecap:round" />
      <path
         d="m 297.658,336.038 a 7.98,7.98 0 0 0 3.25,0.825 c 4.226,0.17 7.515,-3.78 7.515,-7.81 0,-2.796 -1.52,-5.15 -3.652,-7.04"
         id="path162"
         inkscape:connector-curvature="0" />
      <path
         d="m 298.573,328.416 c -1.02,2.274 0.433,3.504 1.88,3.672 2.14,0.25 3.345,-1.443 3.495,-2.985 0.162,-1.678 -0.733,-3.31 -2.098,-4.15"
         id="path164"
         inkscape:connector-curvature="0"
         style="stroke-linecap:round" />
      <path
         d="m 390.1,154.797 c 3.21,0 6.01,3.575 6.01,7.243 0,4.227 -2.247,6.814 -3.894,8.77 -1.326,1.576 -2.762,2.985 -4.47,4.704"
         id="path166"
         inkscape:connector-curvature="0" />
      <path
         d="m 386.29,151.41 c 1.093,0.507 2.052,1.363 2.782,2.445 1.344,1.99 1.686,3.656 1.593,6.12 -0.16,4.225 -3.2,7.15 -5.918,8.934 m -4.773,-17.499 c 0.222,0.19 0.436,0.407 0.64,0.65 1.842,2.19 1.984,5.426 1.543,7.22 -0.662,2.696 -1.553,3.858 -3.742,5.47 m -5.065,-14.446 c 2.638,1.99 3.422,5.433 2.548,8.977 -0.624,2.533 -2.217,4.05 -4.202,5.26 m 11.126,41.079 c 0.316,0.925 0.837,1.246 1.493,1.934 1.426,1.494 3.517,2.78 6.158,3.522 2.44,0.687 4.64,0.17 6.318,-0.875 m -163.005,54.036 c 1.24,-0.023 2.476,0.815 3.284,2.22 0.16,0.278 0.41,0.885 0.403,1.542 -0.01,0.875 -0.394,1.81 -1.02,2.21 -1.437,0.913 -3.99,0.52 -3.882,-2.017"
         id="path168"
         inkscape:connector-curvature="0"
         style="stroke-linecap:round" />
      <path
         d="m 241.49,231.296 c 4.93,0.92 9.677,6.867 11.23,13.354 0.54,2.252 1.282,7.277 0.254,12.04 -1.095,5.076 -3.288,8.59 -5.862,11.256 a 16.494,16.494 0 0 1 -2.127,1.827 l -1.05,0.712 m -7.929,-12.135 c 2.025,0 3.798,1.94 3.798,4.014 a 3.793,3.793 0 0 1 -1.034,2.614"
         id="path170"
         inkscape:connector-curvature="0" />
      <path
         d="m 234.637,260.704 c 2.11,0 4.117,2.033 4.117,4.19 a 3.9,3.9 0 0 1 -1.482,3.062"
         id="path172"
         inkscape:connector-curvature="0" />
      <path
         d="m 253.978,239.488 c 1.937,2.6 3.216,4.84 3.81,7.725 m -0.066,8.487 a 17.27,17.27 0 0 1 -1.45,4.045 c -0.814,1.62 -2.234,3.423 -3.553,4.642"
         id="path174"
         inkscape:connector-curvature="0"
         style="stroke-linecap:round" />
      <path
         d="m 254.285,224.333 c 1.868,1.46 2.994,2.97 3.52,4.78"
         id="path176"
         inkscape:connector-curvature="0" />
      <path
         d="m 257.856,219.47 c -0.49,1.7 -1.604,2.99 -3.37,4.602 m -9.156,-17.179 2.157,-0.568 1.276,-0.964 0.823,-1.162 0.71,-1.816 0.283,-1.475"
         id="path178"
         inkscape:connector-curvature="0"
         style="stroke-linecap:round" />
      <path
         d="m 240.966,199.302 c -0.68,0.17 -1.543,0.422 -2.447,0.853 -1.212,0.578 -2.5,1.476 -3.525,2.93 -1.188,1.682 -1.88,4.022 -2.31,6.07 -0.187,0.895 -0.41,3.732 0.162,6.662 0.423,2.163 1.317,4.177 2.305,5.635 0.355,0.523 0.676,0.975 1.037,1.336 1.293,1.294 2.487,2.09 4.478,1.692"
         id="path180"
         inkscape:connector-curvature="0" />
      <path
         d="m 253.043,189.81 c -0.35,1.285 -1.04,2.877 -3.055,2.703"
         id="path182"
         inkscape:connector-curvature="0"
         style="stroke-linecap:round" />
      <path
         d="m 245.677,198.528 c -1.935,-1.892 -6.035,-2.385 -10.11,0.193 -0.525,0.333 -1.05,0.76 -1.568,1.19 -0.56,0.468 -1.01,1.005 -1.44,1.59 -0.47,0.635 -1.048,1.715 -1.397,2.432 -0.48,0.988 -0.68,1.637 -0.943,2.65 -0.745,2.852 -0.74,5.5 -0.654,6.257 0.113,0.967 0.205,1.857 0.364,2.675 0.54,2.798 1.368,4.76 2.224,6.18 0.9,1.493 3.14,4.922 7.717,5.374 1.8,0.177 4.873,-0.647 4.972,-2.986"
         id="path184"
         inkscape:connector-curvature="0" />
      <path
         d="m 363.763,157.07 c 0.306,-1.653 2.297,-1.972 3.045,-0.996 1.153,1.502 0.39,4.084 -1.953,4.816 -0.796,0.25 -2.637,0.15 -3.83,-1.393 -0.97,-1.25 -0.895,-2.8 -0.533,-4.03 0.234,-0.797 0.873,-1.49 1.726,-2.14 2.72,-2.07 7.116,-1.592 8.558,1.89 1.862,4.494 -2.19,7.863 -5.92,10.4 -4.7,3.195 -10.052,3.776 -14.083,3.732 -9.156,-0.1 -16.12,-4.48 -20.65,-6.967 -1.054,-0.58 -2.14,-0.46 -2.686,0.2 -0.616,0.745 -0.607,1.947 0.25,2.736"
         id="path186"
         inkscape:connector-curvature="0"
         style="stroke-linecap:round" />
      <path
         d="m 365.606,155.52 c 0.97,0.045 1.23,0.423 1.528,0.81 1.152,1.504 0.31,4.086 -2.033,4.818 m 17.837,51.542 c -3.49,3.798 -0.28,10.315 2.327,11.79 0.902,0.7 1.288,0.33 2.01,0.75"
         id="path188"
         inkscape:connector-curvature="0"
         style="stroke-linecap:round" />
      <path
         d="m 383.123,205.434 c -1.144,0.796 -1.548,1.69 -1.592,3.244 -0.036,1.3 0.19,2.745 1.41,4.015 1.903,1.978 5.624,3.7 9.23,3.746 1.956,0.024 3.987,-0.385 6.03,-1.75 2.184,-1.462 3.334,-3.435 3.83,-5.375 m -20.861,61.79 c 0,0.012 -0.005,1.53 -0.134,2.488 -0.38,2.792 -0.823,4.4 -2.09,6.916 -1.236,2.455 -2.223,3.744 -4.18,5.673 -1.974,1.947 -3.343,2.84 -5.822,4.08 -2.413,1.21 -3.934,1.595 -6.568,2.19 -2.632,0.595 -4.17,0.724 -6.867,0.846 -2.472,0.112 -3.874,0.007 -6.343,-0.163 -2.64,-0.183 -4.106,-0.55 -6.744,-0.782 -2.178,-0.19 -3.41,-0.367 -5.595,-0.36 -2.248,0.005 -3.536,0.02 -5.75,0.41 -2.063,0.366 -3.233,0.657 -5.175,1.444 -2.686,1.088 -5.722,2.985 -6.37,3.83 -0.646,-0.845 -3.68,-2.742 -6.368,-3.83 -1.942,-0.787 -3.112,-1.078 -5.175,-1.443 -2.213,-0.39 -3.5,-0.406 -5.75,-0.41 -2.186,-0.008 -3.416,0.17 -5.595,0.36 -2.638,0.232 -4.103,0.6 -6.744,0.783 -2.467,0.17 -3.87,0.275 -6.34,0.163 -2.697,-0.122 -4.236,-0.25 -6.868,-0.846 -2.633,-0.595 -4.154,-0.98 -6.568,-2.19 -2.48,-1.24 -3.847,-2.133 -5.822,-4.08 -1.957,-1.928 -2.944,-3.217 -4.18,-5.672 -1.266,-2.517 -1.71,-4.123 -2.09,-6.916 -0.13,-0.96 -0.135,-2.476 -0.135,-2.488 V 169.33 H 381.13 v 101.774 h 0.042 z"
         id="path190"
         inkscape:connector-curvature="0" />
    </g>
    <g
       id="g198"
       style="fill:#c7b37f;stroke:#c7b37f">
      <path
         d="m 247.942,285.645 a 2.5,2.5 0 1 1 5,0 2.5,2.5 0 0 1 -5,0 z M 232.59,267.974 c 0,-1.236 0.79,-2.24 1.765,-2.24 0.976,0 1.767,1.004 1.767,2.24 0,1.237 -0.79,2.24 -1.767,2.24 -0.975,0 -1.766,-1.003 -1.766,-2.24 z"
         id="path194"
         inkscape:connector-curvature="0"
         style="stroke-width:0.32800001" />
      <path
         d="m 241.312,223.59 c 0,-1.015 0.764,-1.84 1.706,-1.84 0.94,0 1.705,0.825 1.705,1.84 0,1.016 -0.764,1.84 -1.705,1.84 -0.942,0 -1.706,-0.824 -1.706,-1.84 z m 30.63,-65.632 c -0.107,-1.018 0.504,-1.918 1.367,-2.008 0.86,-0.09 1.648,0.663 1.755,1.68 0.108,1.02 -0.504,1.92 -1.366,2.01 -0.864,0.09 -1.65,-0.663 -1.758,-1.682 z"
         id="path196"
         inkscape:connector-curvature="0"
         style="stroke:none" />
    </g>
    <g
       id="g206"
       style="stroke:#c7b37f;stroke-width:0.63200003;stroke-linecap:round">
      <path
         d="m 239.31,233.946 c -0.368,0.16 -0.57,0.292 -0.847,0.582 -0.264,0.277 -0.32,0.378 -0.523,0.83 -0.15,0.332 -0.188,0.716 -0.243,1.19 m 4.716,26.748 c 0.347,-0.42 0.557,-0.648 0.89,-1.08 0.278,-0.36 0.443,-0.557 0.687,-0.94 0.22,-0.345 0.318,-0.555 0.513,-0.916 0.273,-0.508 0.41,-0.804 0.67,-1.318 m -1.263,13.938 c -0.592,0.27 -0.942,0.39 -1.517,0.696 -0.438,0.232 -0.675,0.38 -1.095,0.642 a 17.4,17.4 0 0 0 -1.244,0.836 c -0.49,0.36 -0.744,0.595 -1.22,0.975 m 14.964,-37.889 c -0.32,-0.33 -0.494,-0.523 -0.82,-0.846 -0.343,-0.337 -0.53,-0.536 -0.896,-0.846 -0.357,-0.3 -0.583,-0.437 -0.956,-0.716"
         id="path200"
         inkscape:connector-curvature="0" />
      <path
         d="m 254.19,224.94 c -0.477,0.212 -0.726,0.38 -1.22,0.543 -0.567,0.187 -0.95,0.284 -1.498,0.31"
         id="path202"
         inkscape:connector-curvature="0"
         style="stroke-linecap:butt" />
      <path
         d="m 237.44,208.435 c 0.163,0.58 0.2,0.927 0.418,1.488 0.276,0.705 0.506,1.076 0.926,1.707 0.437,0.657 0.71,1.02 1.273,1.572 0.495,0.485 0.81,0.73 1.39,1.11 0.55,0.36 0.906,0.485 1.487,0.796 m -0.988,-5.86 c 0.485,0.26 0.735,0.456 1.244,0.667 0.46,0.19 0.733,0.27 1.22,0.383 0.656,0.15 1.04,0.188 1.715,0.204 0.73,0.017 0.946,0 1.866,-0.15 m 7.171,-40.656 c -0.798,-0.466 -1.286,-0.67 -2.046,-1.194 -0.773,-0.534 -1.198,-0.86 -1.87,-1.518 -0.485,-0.473 -0.757,-0.75 -1.16,-1.294 -0.36,-0.486 -0.498,-0.804 -0.816,-1.318 m 7.498,-4.552 c 0.25,0.67 0.322,1.078 0.642,1.717 0.434,0.868 0.77,1.323 1.423,2.04 0.905,0.994 1.672,1.275 2.742,2.09 m 1.452,-5.917 c 0.25,0.602 0.324,0.972 0.637,1.543 0.277,0.504 0.467,0.773 0.83,1.22 0.465,0.568 0.767,0.864 1.345,1.317 0.67,0.528 1.146,0.683 1.88,1.12"
         id="path204"
         inkscape:connector-curvature="0" />
    </g>
    <path
       d="m 333.3,151.622 c -0.052,-1.695 -1.722,-1.87 -2.362,-1.87 -1.847,0 -2.346,1.15 -4.65,2.388 -2.888,1.55 -4.13,1.895 -6.698,1.918 -2.567,-0.023 -3.843,-0.367 -6.73,-1.918 -2.305,-1.237 -2.693,-2.352 -4.54,-2.352 a 2.33,2.33 0 0 0 -2.248,2.453 c 0,0 -0.02,0.515 0.06,0.863 0.03,0.13 0.19,0.09 0.24,0.204 -0.025,-0.77 0.132,-1.168 0.51,-1.685 0.488,-0.664 1.297,-0.84 1.626,-0.84 1.847,0 2.53,1.185 4.835,2.422 2.887,1.55 4.13,1.895 6.697,1.918 2.566,-0.023 3.844,-0.367 6.732,-1.918 2.303,-1.237 2.965,-2.52 4.812,-2.52 0.64,0 1.092,0.414 1.3,1.066 0.13,0.4 0.058,0.67 0.09,0.828 0.017,0.077 0.112,0.07 0.133,0.153 0.064,-0.297 0.214,-0.404 0.192,-1.108 z"
       id="path208"
       inkscape:connector-curvature="0"
       style="fill:#703d29;stroke-width:0.177" />
  </g>
  <g
     id="g218"
     transform="scale(0.03333333)"
     style="fill:#703d29">
    <path
       d="m 264.397,294.03 c 0.518,-0.56 0.91,-0.35 1.006,-0.607 0.07,-0.19 -0.082,-0.21 -0.293,-0.288 -0.282,-0.105 -0.58,-0.166 -0.863,-0.27 -0.292,-0.11 -0.557,-0.26 -0.85,-0.37 -0.12,-0.045 -0.4,-0.187 -0.478,0.025 -0.148,0.392 1.024,0.358 0.63,1.41 -0.066,0.178 -0.233,0.562 -0.815,1.2 l -2.65,2.883 c -0.06,0.067 -0.158,0.21 -0.22,0.186 -0.06,-0.023 -0.05,-0.2 -0.052,-0.288 l 0.038,-4.09 c 0.004,-0.777 0.07,-1.352 0.196,-1.688 0.175,-0.47 0.716,-0.076 0.83,-0.378 0.07,-0.19 0.016,-0.197 -0.306,-0.318 -0.16,-0.06 -0.47,-0.125 -1.114,-0.365 -0.342,-0.128 -0.668,-0.3 -1,-0.425 -0.15,-0.057 -0.43,-0.263 -0.53,0.006 -0.03,0.08 0.077,0.195 0.103,0.217 0.37,0.267 0.464,0.443 0.472,0.943 l 0.073,7.446 c 0.006,0.537 0.064,0.686 0.165,0.724 0.11,0.042 0.186,-0.007 0.406,-0.256 l 5.25,-5.7 z"
       id="path212"
       inkscape:connector-curvature="0" />
    <path
       d="m 267.488,295.18 c 0.34,-1.08 0.98,-0.43 1.103,-0.816 0.044,-0.137 0,-0.176 -0.308,-0.272 -0.584,-0.185 -0.967,-0.255 -1.336,-0.372 -0.36,-0.113 -0.744,-0.285 -1.144,-0.41 -0.092,-0.03 -0.338,-0.145 -0.4,0.05 -0.125,0.397 1.134,0.444 0.807,1.48 l -1.724,5.466 c -0.34,1.082 -0.986,0.553 -1.11,0.952 -0.02,0.057 -0.024,0.143 0.068,0.172 0.267,0.084 0.722,0.178 1.162,0.316 0.8,0.253 1.165,0.418 1.544,0.537 0.236,0.075 0.342,0.058 0.382,-0.067 0.115,-0.365 -1.198,-0.203 -0.757,-1.604 z m 3.699,1.095 c 0.204,-0.687 0.523,-0.592 0.904,-0.48 1.042,0.31 1.368,1.327 1.036,2.45 -0.2,0.675 -0.452,1.298 -2.018,0.834 -0.31,-0.093 -0.69,-0.206 -0.606,-0.492 l 0.685,-2.313 z m -2.837,4.926 c -0.428,1.443 -1.15,0.818 -1.26,1.185 -0.067,0.23 0.16,0.258 0.273,0.292 0.515,0.152 1.044,0.26 1.6,0.424 0.433,0.13 0.698,0.258 0.873,0.31 0.237,0.07 0.34,0.025 0.37,-0.078 0.122,-0.412 -1.037,-0.245 -0.674,-1.47 l 0.587,-1.98 c 0.118,-0.4 0.08,-0.5 0.626,-0.338 0.515,0.153 0.67,0.31 0.757,0.885 l 0.33,2.064 c 0.123,0.76 0.24,1.578 1.053,1.82 0.412,0.12 1.167,0.07 1.272,-0.284 0.027,-0.092 -0.014,-0.18 -0.107,-0.206 -0.102,-0.03 -0.225,0.007 -0.33,-0.023 -0.08,-0.024 -0.277,-0.082 -0.315,-0.292 -0.315,-1.663 -0.7,-3.582 -0.68,-3.65 0.035,-0.116 0.365,-0.13 0.74,-0.305 0.382,-0.186 0.806,-0.52 1.023,-1.254 0.156,-0.528 0.428,-2.203 -1.828,-2.87 -0.69,-0.206 -1.405,-0.368 -2.095,-0.572 -0.65,-0.192 -0.718,-0.263 -1.192,-0.403 -0.124,-0.037 -0.244,-0.01 -0.278,0.104 -0.122,0.41 1.127,0.32 0.747,1.603 l -1.492,5.037 z m 8.424,2.466 c -0.33,1.382 -1.378,0.54 -1.487,0.994 -0.06,0.256 0.12,0.287 0.307,0.333 0.418,0.1 0.774,0.136 1.474,0.304 0.7,0.168 1.034,0.298 1.452,0.398 0.303,0.073 0.504,0.158 0.57,-0.12 0.08,-0.326 -1.34,-0.31 -0.997,-1.74 l 1.26,-5.247 c 0.134,-0.557 0.252,-0.59 0.68,-0.487 l 0.89,0.214 c 1.212,0.242 0.568,1.45 0.986,1.55 0.27,0.066 0.265,-0.414 0.277,-0.558 l 0.142,-1.096 c 0.016,-0.12 0.055,-0.28 -0.1,-0.32 -0.973,-0.232 -1.685,-0.354 -3.21,-0.72 -1.526,-0.367 -2.215,-0.58 -3.187,-0.814 -0.156,-0.038 -0.195,0.124 -0.234,0.238 l -0.536,1.493 c -0.057,0.145 -0.18,0.386 0.038,0.44 0.47,0.11 0.522,-1.485 1.703,-1.2 l 0.878,0.21 c 0.428,0.102 0.52,0.185 0.385,0.743 l -1.293,5.387 z m 12.698,-3.237 c 0.414,-0.64 0.836,-0.502 0.886,-0.772 0.037,-0.2 -0.117,-0.192 -0.34,-0.233 -0.295,-0.055 -0.6,-0.063 -0.896,-0.117 -0.306,-0.057 -0.593,-0.16 -0.9,-0.216 -0.126,-0.024 -0.426,-0.115 -0.468,0.108 -0.076,0.41 1.072,0.174 0.867,1.278 -0.033,0.188 -0.13,0.595 -0.593,1.322 l -2.11,3.3 c -0.047,0.078 -0.12,0.234 -0.183,0.222 -0.063,-0.01 -0.085,-0.186 -0.102,-0.274 l -0.673,-4.035 c -0.133,-0.765 -0.167,-1.342 -0.102,-1.694 0.09,-0.494 0.693,-0.2 0.75,-0.518 0.038,-0.2 -0.017,-0.198 -0.355,-0.26 -0.17,-0.032 -0.484,-0.04 -1.16,-0.167 -0.36,-0.066 -0.71,-0.18 -1.06,-0.244 -0.157,-0.03 -0.467,-0.184 -0.52,0.098 -0.015,0.082 0.11,0.178 0.14,0.196 0.41,0.198 0.534,0.354 0.63,0.845 l 1.364,7.32 c 0.1,0.53 0.183,0.666 0.288,0.685 0.116,0.022 0.182,-0.04 0.355,-0.323 l 4.182,-6.523 z m 0.595,6.725 c 0.006,0.292 -0.02,0.384 0.233,0.5 0.59,0.255 1.082,0.628 1.73,0.736 1.387,0.234 2.538,-0.65 2.796,-2.194 0.25,-1.496 -0.365,-2.12 -1.406,-2.862 -1.304,-0.933 -1.862,-1.184 -1.73,-1.973 0.132,-0.788 0.684,-1.155 1.384,-1.038 1.823,0.305 1.615,2.522 1.86,2.563 0.232,0.04 0.288,-0.097 0.31,-0.36 l 0.147,-1.598 c 0.026,-0.274 0.087,-0.445 -0.072,-0.472 -0.138,-0.023 -0.435,0.12 -0.572,0.098 -0.318,-0.053 -0.686,-0.587 -1.556,-0.732 -1.24,-0.207 -2.253,0.64 -2.48,1.995 -0.207,1.236 0.342,1.8 1.178,2.4 1.567,1.122 2.21,1.387 2.042,2.388 -0.158,0.942 -0.89,1.4 -1.716,1.263 -1.176,-0.197 -1.654,-1.38 -1.804,-2.566 -0.016,-0.16 -0.02,-0.27 -0.19,-0.298 -0.265,-0.045 -0.216,0.315 -0.212,0.485 l 0.06,1.668 z m 15.821,-4.461 c 0.345,-0.68 0.78,-0.585 0.8,-0.86 0.017,-0.2 -0.136,-0.177 -0.36,-0.195 -0.3,-0.025 -0.605,0 -0.905,-0.024 -0.31,-0.025 -0.607,-0.096 -0.918,-0.12 -0.128,-0.01 -0.436,-0.07 -0.454,0.155 -0.032,0.418 1.085,0.063 0.997,1.182 -0.015,0.19 -0.07,0.605 -0.453,1.378 l -1.753,3.503 c -0.038,0.08 -0.094,0.244 -0.158,0.24 -0.064,-0.008 -0.105,-0.177 -0.13,-0.263 l -1.09,-3.943 c -0.212,-0.747 -0.307,-1.317 -0.28,-1.674 0.04,-0.5 0.67,-0.27 0.694,-0.593 0.016,-0.202 -0.038,-0.194 -0.38,-0.22 -0.173,-0.014 -0.487,0.01 -1.173,-0.045 -0.364,-0.03 -0.724,-0.105 -1.078,-0.133 -0.16,-0.013 -0.485,-0.134 -0.508,0.15 -0.007,0.085 0.128,0.167 0.16,0.182 0.428,0.153 0.568,0.296 0.714,0.775 l 2.123,7.136 c 0.154,0.516 0.25,0.643 0.36,0.65 0.116,0.01 0.176,-0.057 0.318,-0.357 l 3.478,-6.926 z"
       id="path214"
       inkscape:connector-curvature="0" />
    <path
       d="m 307.584,308.48 c -0.01,1.218 -1.04,0.994 -1.045,1.472 -0.002,0.203 0.213,0.145 0.33,0.146 0.292,0 0.582,-0.043 0.926,-0.04 0.376,0.007 0.74,0.055 1.268,0.06 0.14,0 0.408,0.014 0.41,-0.153 0.004,-0.56 -1.38,0.24 -1.36,-2.053 l 0.037,-4.06 c 0,-0.108 0.024,-0.19 0.088,-0.19 0.054,0 0.118,0.06 0.193,0.156 l 5.115,6.255 c 0.075,0.096 0.128,0.168 0.278,0.17 0.13,0 0.13,-0.095 0.133,-0.358 l 0.058,-6.698 c 0.01,-1.254 0.922,-0.96 0.925,-1.318 0,-0.036 0,-0.156 -0.204,-0.158 -0.097,0 -0.473,0.044 -1.15,0.038 -0.742,-0.007 -1.053,-0.057 -1.225,-0.058 -0.14,0 -0.172,0.118 -0.173,0.2 -0.003,0.395 1.31,0.192 1.3,1.278 l -0.034,3.977 c -0.004,0.298 -0.026,0.44 -0.09,0.44 -0.065,0 -0.192,-0.144 -0.33,-0.313 l -4.275,-5.303 c -0.19,-0.228 -0.062,-0.31 -0.405,-0.313 -0.57,-0.006 -0.85,0.04 -1.13,0.038 -0.203,0 -0.396,-0.05 -0.6,-0.053 -0.13,0 -0.184,0.093 -0.185,0.2 -0.006,0.574 1.205,-0.192 1.185,2.1 z m 10.406,-5.376 c 0.01,-1.134 0.813,-0.697 0.816,-1.103 0,-0.143 -0.052,-0.167 -0.375,-0.17 -0.61,-0.006 -0.998,0.04 -1.385,0.036 -0.376,0 -0.795,-0.055 -1.214,-0.058 -0.096,0 -0.364,-0.04 -0.366,0.164 -0.003,0.418 1.154,0.094 1.144,1.18 l 0.01,5.732 c -0.01,1.134 -0.78,0.817 -0.784,1.235 0,0.058 0.02,0.142 0.117,0.143 0.28,0.007 0.743,-0.04 1.205,-0.037 0.838,0.007 1.235,0.058 1.633,0.062 0.247,0 0.344,-0.045 0.345,-0.176 0.003,-0.382 -1.205,0.157 -1.192,-1.312 l 0.05,-5.696 z m 4.506,5.549 c 0.013,1.42 -1.207,0.858 -1.203,1.324 0.003,0.263 0.185,0.25 0.38,0.247 0.428,-0.006 0.782,-0.054 1.503,-0.06 0.72,-0.007 1.075,0.038 1.504,0.034 0.312,0 0.527,0.03 0.525,-0.255 -0.003,-0.335 -1.375,0.023 -1.388,-1.445 l -0.047,-5.397 c -0.005,-0.572 0.102,-0.633 0.542,-0.637 l 0.913,-0.007 c 1.236,-0.058 0.904,1.27 1.334,1.266 0.278,0 0.156,-0.467 0.133,-0.61 l -0.128,-1.097 c -0.012,-0.12 -0.013,-0.287 -0.174,-0.285 -1,0.01 -1.718,0.062 -3.287,0.076 -1.57,0.013 -2.29,-0.028 -3.29,-0.02 -0.16,0 -0.16,0.17 -0.17,0.29 l -0.157,1.577 c -0.02,0.155 -0.082,0.418 0.144,0.416 0.483,-0.007 0.147,-1.566 1.36,-1.577 l 0.904,-0.01 c 0.44,-0.005 0.55,0.056 0.554,0.63 z m 6.259,-2.259 c -0.193,0.015 -0.342,0.04 -0.35,-0.08 -0.014,-0.167 0.04,-0.303 0.082,-0.45 l 0.66,-2.172 c 0.042,-0.135 0.084,-0.15 0.106,-0.152 0.053,-0.007 0.02,0 0.093,0.088 l 1.048,2.086 c 0.065,0.138 0.14,0.264 0.153,0.43 0.008,0.12 -0.142,0.12 -0.335,0.135 l -1.457,0.114 z m 1.84,0.502 c 0.278,-0.022 0.34,0.093 0.768,0.993 0.143,0.31 0.235,0.52 0.256,0.782 0.056,0.726 -0.715,0.655 -0.688,1 0.013,0.167 0.15,0.132 0.343,0.117 0.31,-0.026 0.704,-0.105 1.175,-0.142 0.707,-0.055 1,-0.03 1.386,-0.06 0.29,-0.024 0.388,-0.008 0.372,-0.21 -0.03,-0.393 -0.573,0.117 -0.983,-0.7 l -3.466,-7.06 c -0.168,-0.345 -0.19,-0.367 -0.288,-0.36 -0.14,0.012 -0.175,0.24 -0.235,0.438 l -2.337,7.43 c -0.215,0.688 -0.767,0.66 -0.745,0.933 0.013,0.154 0.18,0.117 0.33,0.105 0.312,-0.024 0.62,-0.097 0.94,-0.122 0.343,-0.027 0.668,-0.006 1.01,-0.03 0.226,-0.02 0.565,0.038 0.545,-0.212 -0.025,-0.32 -1.167,-0.038 -1.235,-0.896 -0.022,-0.286 0.095,-0.714 0.15,-0.958 0.186,-0.805 0.407,-0.87 0.59,-0.885 l 2.11,-0.165 z m 8.305,-4.95 c -0.11,-0.817 -0.068,-0.835 1.222,-1.004 2.056,-0.27 1.407,1.223 1.908,1.157 0.245,-0.033 0.14,-0.416 0.11,-0.57 l -0.197,-1.165 c -0.015,-0.107 -0.104,-0.215 -0.243,-0.197 -0.938,0.123 -1.667,0.267 -2.423,0.367 -1.63,0.214 -2.404,0.268 -2.84,0.326 -0.15,0.02 -0.222,0.126 -0.208,0.233 0.06,0.473 1.215,-0.064 1.356,1 l 0.73,5.542 c 0.19,1.444 -0.705,0.912 -0.633,1.456 0.01,0.072 0.08,0.123 0.22,0.105 0.585,-0.077 1.027,-0.184 1.357,-0.227 0.47,-0.062 0.87,-0.066 1.274,-0.12 0.266,-0.035 0.496,-0.017 0.465,-0.254 -0.043,-0.32 -1.208,0.135 -1.38,-1.18 l -0.232,-1.75 c -0.09,-0.688 -0.15,-0.824 0.34,-0.89 l 0.787,-0.102 c 1.108,-0.146 0.975,1.148 1.316,1.103 0.257,-0.034 0.137,-0.45 0.106,-0.604 l -0.352,-2.096 c -0.053,-0.32 -0.167,-0.28 -0.24,-0.27 -0.214,0.028 -0.103,1.122 -1.02,1.242 l -0.67,0.09 c -0.46,0.06 -0.47,-0.024 -0.537,-0.533 l -0.218,-1.657 z m 3.93,2.714 c 0.44,2.383 2.16,3.703 4.285,3.31 3.37,-0.625 3.482,-3.62 3.177,-5.265 -0.46,-2.49 -2.316,-3.712 -4.372,-3.306 -2.52,0.49 -3.568,2.688 -3.09,5.26 z m 1.174,-0.91 c -0.315,-1.703 -0.087,-3.422 1.692,-3.788 1.36,-0.276 2.9,0.847 3.38,3.442 0.363,1.95 0.063,3.632 -1.748,4.004 -1.885,0.386 -3.006,-1.945 -3.324,-3.66 z m 8.336,-4.16 c -0.168,-0.696 0.156,-0.774 0.543,-0.867 1.055,-0.253 1.847,0.465 2.12,1.603 0.164,0.685 0.258,1.35 -1.33,1.732 -0.314,0.075 -0.7,0.168 -0.77,-0.122 l -0.564,-2.345 z m 0.005,5.685 c 0.35,1.463 -0.587,1.283 -0.498,1.654 0.056,0.23 0.267,0.144 0.382,0.116 0.52,-0.125 1.033,-0.297 1.597,-0.432 0.44,-0.106 0.732,-0.127 0.91,-0.17 0.24,-0.057 0.307,-0.147 0.282,-0.252 -0.1,-0.418 -1.022,0.307 -1.32,-0.936 l -0.482,-2.008 c -0.098,-0.407 -0.18,-0.473 0.374,-0.606 0.522,-0.125 0.735,-0.066 1.098,0.387 l 1.32,1.623 c 0.484,0.596 0.994,1.247 1.82,1.05 0.418,-0.1 1.046,-0.523 0.96,-0.883 -0.022,-0.092 -0.102,-0.147 -0.196,-0.124 -0.105,0.025 -0.192,0.12 -0.297,0.145 -0.083,0.02 -0.282,0.068 -0.42,-0.095 -1.104,-1.282 -2.397,-2.753 -2.413,-2.822 -0.028,-0.116 0.25,-0.294 0.49,-0.634 0.235,-0.352 0.435,-0.854 0.256,-1.597 -0.128,-0.534 -0.73,-2.12 -3.018,-1.572 -0.7,0.17 -1.4,0.386 -2.1,0.554 -0.658,0.158 -0.753,0.132 -1.234,0.247 -0.125,0.03 -0.216,0.114 -0.188,0.23 0.1,0.42 1.136,-0.284 1.448,1.016 l 1.227,5.11 z m 8.621,-1.928 c 0.356,1.376 -0.963,1.125 -0.846,1.576 0.065,0.254 0.24,0.197 0.427,0.15 0.416,-0.11 0.747,-0.244 1.444,-0.424 0.698,-0.182 1.054,-0.224 1.47,-0.332 0.3,-0.078 0.518,-0.097 0.447,-0.375 -0.084,-0.323 -1.33,0.357 -1.697,-1.065 l -1.35,-5.226 c -0.145,-0.555 -0.056,-0.64 0.37,-0.75 l 0.885,-0.228 c 1.185,-0.356 1.184,1.013 1.6,0.906 0.27,-0.07 0.04,-0.492 -0.017,-0.625 l -0.39,-1.034 c -0.04,-0.112 -0.082,-0.274 -0.238,-0.233 -0.968,0.25 -1.653,0.477 -3.172,0.87 -1.52,0.392 -2.228,0.526 -3.195,0.776 -0.156,0.04 -0.115,0.203 -0.095,0.32 l 0.228,1.57 c 0.018,0.156 0.02,0.426 0.24,0.37 0.468,-0.12 -0.236,-1.555 0.94,-1.86 l 0.874,-0.225 c 0.427,-0.11 0.545,-0.08 0.69,0.475 l 1.386,5.364 z m 5.498,-7.334 c -0.303,-1.093 0.588,-0.894 0.48,-1.286 -0.038,-0.138 -0.097,-0.146 -0.407,-0.06 -0.59,0.163 -0.95,0.313 -1.323,0.416 -0.363,0.1 -0.78,0.166 -1.183,0.278 -0.093,0.027 -0.36,0.064 -0.307,0.26 0.112,0.403 1.193,-0.244 1.483,0.803 l 1.532,5.523 c 0.303,1.093 -0.526,1 -0.414,1.404 0.016,0.058 0.06,0.132 0.152,0.106 0.27,-0.074 0.702,-0.244 1.147,-0.367 0.808,-0.225 1.204,-0.286 1.587,-0.392 0.24,-0.066 0.32,-0.138 0.284,-0.264 -0.102,-0.368 -1.115,0.482 -1.508,-0.933 l -1.522,-5.487 z m 2.291,2.669 c 0.77,2.298 2.657,3.367 4.705,2.68 3.25,-1.086 2.945,-4.07 2.414,-5.654 -0.803,-2.4 -2.81,-3.353 -4.79,-2.666 -2.428,0.838 -3.158,3.16 -2.33,5.64 z m 1.038,-1.065 c -0.55,-1.642 -0.563,-3.375 1.148,-3.986 1.308,-0.46 2.99,0.436 3.828,2.94 0.63,1.88 0.566,3.587 -1.175,4.208 -1.813,0.644 -3.247,-1.508 -3.8,-3.16 z m 7.627,-5.419 c -0.262,-0.666 0.048,-0.788 0.418,-0.934 1.01,-0.398 1.894,0.204 2.323,1.292 0.26,0.656 0.444,1.302 -1.076,1.9 -0.3,0.12 -0.67,0.264 -0.78,-0.014 l -0.883,-2.244 z m 0.797,5.63 c 0.552,1.398 -0.403,1.35 -0.263,1.706 0.088,0.223 0.285,0.107 0.395,0.063 0.5,-0.197 0.98,-0.438 1.52,-0.65 0.42,-0.166 0.71,-0.228 0.878,-0.295 0.23,-0.09 0.284,-0.19 0.245,-0.29 -0.158,-0.4 -0.968,0.447 -1.436,-0.742 l -0.758,-1.922 c -0.154,-0.39 -0.244,-0.443 0.286,-0.652 0.5,-0.197 0.72,-0.168 1.14,0.23 l 1.533,1.425 c 0.563,0.523 1.158,1.097 1.948,0.786 0.4,-0.157 0.964,-0.662 0.828,-1.006 -0.035,-0.09 -0.12,-0.132 -0.21,-0.097 -0.1,0.04 -0.175,0.146 -0.275,0.185 -0.08,0.03 -0.27,0.106 -0.43,-0.036 -1.27,-1.116 -2.755,-2.392 -2.78,-2.46 -0.045,-0.11 0.206,-0.324 0.395,-0.694 0.185,-0.38 0.313,-0.906 0.033,-1.617 -0.2,-0.51 -1.018,-1.998 -3.208,-1.135 -0.67,0.264 -1.332,0.576 -2.002,0.84 -0.63,0.248 -0.728,0.235 -1.188,0.416 -0.12,0.05 -0.198,0.143 -0.154,0.254 0.157,0.4 1.086,-0.44 1.576,0.804 l 1.925,4.89 z"
       id="path216"
       inkscape:connector-curvature="0" />
  </g>
  <g
     transform="matrix(0.02133333,0,0,0.02133333,0,0.53333)"
     id="g231"
     style="fill:#fedf00">
    <path
       d="m 412.66,249.25 h 82.18 v 82.023 h -82.18 z"
       id="path220"
       inkscape:connector-curvature="0"
       style="fill:#d52b1e" />
    <path
       id="a"
       d="m 451.2,313.83 c 0,0 -0.048,2.93 -0.855,5.287 -0.933,2.72 -0.94,2.72 -1.796,4.043 -1.153,1.78 -2.558,3.082 -3.81,3.887 -1.96,1.258 -3.95,1.888 -5.95,1.71 -5.49,-0.486 -8.037,-6.44 -9.282,-11.273 -1.32,-5.13 -5.073,-7.923 -7.463,-6.064 -1.4,1.09 -1.48,2.914 -0.31,4.665 1.243,1.866 4.098,2.8 4.098,2.8 l -2.933,3.73 c 0,0 -6.302,-0.82 -7.535,-7.392 -0.466,-2.488 0.742,-7.134 4.89,-8.522 5.298,-1.773 8.687,2.005 10.32,5.192 2.245,4.384 3.21,12.434 9.43,11.19 3.383,-0.677 4.975,-5.598 4.975,-7.852 l 2.467,-2.644 3.654,1.167 0.1,0.078 z"
       inkscape:connector-curvature="0"
       style="fill:#ffffff" />
    <use
       height="100%"
       width="100%"
       xlink:href="#a"
       transform="matrix(-1,0,0,1,907.52,0)"
       id="use223"
       x="0"
       y="0" />
    <path
       d="m 461.12,278.95 10.76,-11.643 c 0,0 1.624,-1.31 1.61,-3.401 l -2.22,0.345 -0.496,-1.14 -0.11,-1.148 2.98,-0.63 c 0.05,-0.484 0.008,-0.85 0.093,-1.384 0.08,-0.494 0.19,-0.76 0.31,-1.244 l -3.264,0.218 c 0.166,-0.57 0.128,-0.875 0.31,-1.406 0.155,-0.447 0.198,-0.618 0.504,-1.103 0.606,-0.09 1.158,-0.228 1.907,-0.304 0.728,-0.074 1.143,-0.04 1.873,-0.086 1.78,-3.32 9.19,-6.373 14.454,-0.904 3.81,3.958 2.99,11.22 -1.95,13.14 -2.798,1.087 -5.053,0.444 -6.86,-1.11 l 1.97,-3.867 c 2.72,1.625 4.975,-0.396 4.82,-2.495 -0.197,-2.654 -1.92,-4.297 -4.354,-4.51 -2.254,-0.197 -3.872,1.093 -4.898,3.11 -0.626,1.23 -0.336,2.134 -0.544,3.5 -0.226,1.482 -0.1,2.31 -0.537,3.81 -0.32,1.087 -1.155,2.433 -2.37,3.59 l -11.03,11.936 -42.94,46.445 -3.228,-2.984 43.21,-46.737 z"
       id="path225"
       inkscape:connector-curvature="0" />
    <path
       d="m 429.51,283.04 c 0,0 2.7,13.372 11.874,33.43 4.665,-1.71 7.42,-2.798 12.362,-2.798 4.943,0 7.697,0.933 12.362,2.8 9.174,-20.06 11.874,-33.432 11.874,-33.432 l -24.236,-31.177 z"
       id="path227"
       inkscape:connector-curvature="0"
       style="fill:#ffffff" />
    <path
       d="m 456.12,262.41 16.82,21.637 c 0,0 -2.243,10.52 -9.078,26.354 -2.646,-0.6 -4.916,-1.127 -7.733,-1.318 l -0.01,-46.67 z m -4.74,0 -16.82,21.637 c 0,0 2.243,10.52 9.078,26.354 2.646,-0.6 4.916,-1.127 7.733,-1.318 l 0.01,-46.67 z"
       id="path229"
       inkscape:connector-curvature="0" />
  </g>
  <g
     id="g237"
     transform="scale(0.03333333)"
     style="fill:#d52b1e">
    <path
       d="M 322.304,175.52 H 374.9 v 52.495 h -52.596 z"
       id="path233"
       inkscape:connector-curvature="0"
       style="fill:#fedf00" />
    <path
       d="m 329.67,175.52 h 7.842 v 52.495 h -7.842 z m 15.028,0 h 7.842 v 52.495 h -7.842 z m 15.027,0 h 7.842 v 52.495 h -7.842 z"
       id="path235"
       inkscape:connector-curvature="0" />
  </g>
  <g
     id="g243"
     transform="scale(0.03333333)"
     style="fill:#d52b1e;stroke:#d52b1e;stroke-width:0.51300001">
    <path
       d="m 264.3,273.542 c 0.15,0.946 0.487,2.568 1.385,4.23 0.945,1.493 0.597,1.452 2.737,3.84 1.053,1.176 2.696,2.183 3.985,2.877 1.294,0.696 2.25,1.038 4.38,1.596 4.17,1.095 7.097,1.163 10.606,1.023 2.738,-0.11 4.828,-0.447 6.56,-0.68 2.468,-0.332 4.307,-0.53 7.115,-0.647 1.365,-0.057 2.655,-0.07 3.93,0 1.54,0.085 3.06,0.323 4.678,0.647 3.483,0.696 7.016,2.04 7.016,2.04 l 0.01,-54.82 -52.605,-0.014 v 37.467 c 0,0 0.108,1.83 0.204,2.44 z"
       id="path239"
       inkscape:connector-curvature="0"
       style="fill:#fedf00;stroke:none" />
    <path
       d="m 270.406,283.155 2.466,1.435 3.378,1.215 -0.004,-52.177 h -5.84 z m 29.224,2.375 0.006,-51.904 h -5.852 v 52.734 c 0,0 4.005,-0.514 5.844,-0.633 z m 11.672,-51.898 h -5.832 v 52.084 c 1.9,0.205 3.855,0.545 5.844,1.077 l -0.012,-53.16 z m -23.352,0 v 53.332 c -0.06,0.006 -3.906,0.202 -5.872,-0.002 v -53.32 z"
       id="path241"
       inkscape:connector-curvature="0"
       style="stroke-width:0.32800001" />
  </g>
  <g
     transform="matrix(0.02133333,0,0,0.02133333,0,0.53333)"
     id="g270">
    <path
       d="m 585.48,402.39 c -0.233,1.477 -0.76,4.012 -2.163,6.608 -1.477,2.333 -0.932,2.27 -4.275,6 -1.646,1.838 -4.214,3.412 -6.228,4.496 -2.02,1.09 -3.516,1.623 -6.84,2.495 -6.52,1.71 -11.092,1.817 -16.575,1.598 -4.28,-0.17 -7.545,-0.698 -10.25,-1.062 -3.858,-0.518 -6.73,-0.827 -11.118,-1.01 -2.133,-0.09 -4.15,-0.11 -6.142,0 -2.406,0.132 -4.782,0.505 -7.31,1.01 -5.44,1.09 -11.032,3.188 -11.032,3.188 l 0.057,-85.655 82.193,-0.024 v 58.543 c 0,0 -0.168,2.86 -0.318,3.81 z"
       id="path245"
       inkscape:connector-curvature="0"
       style="fill:#fedf00" />
    <g
       id="b">
      <path
         d="m 524.62,346.91 c 0,0 -0.366,0.175 -0.594,0.28 -0.298,0.33 -0.447,0.52 -0.78,0.814 -0.444,0.39 -0.77,0.503 -1.25,0.843 -0.23,0.164 -0.42,0.216 -0.595,0.438 -0.25,0.32 -0.078,0.63 -0.25,1 -0.185,0.405 -0.368,0.597 -0.655,0.938 -0.366,0.434 -0.65,0.61 -1.063,1 -0.418,0.395 -0.587,0.726 -1.093,1 -0.135,0.072 -0.2,0.142 -0.345,0.187 -0.216,0.067 -0.35,-0.01 -0.563,0.062 -0.388,0.134 -0.51,0.563 -0.78,0.72 0.11,0.217 0.106,0.37 0.218,0.593 0.158,0.323 0.705,1.215 0.812,1.437 0.21,0.305 0.27,0.7 0.532,0.78 0.537,0.17 0.858,0.155 1.312,0.126 0.792,0.182 1.28,0.158 2.03,0.47 0.614,0.253 0.864,0.574 1.47,0.843 0.474,0.21 0.772,0.34 1.28,0.438 0.388,0.074 0.61,0.132 1,0.094 0.25,-0.024 0.378,-0.12 0.626,-0.156 0.05,-0.01 0.08,0 0.125,0 l -0.03,0.375 c -0.006,0 0.004,0.03 0,0.032 v 0.062 h 0.062 l 2.06,0.906 a 1.72,1.72 0 0 0 -0.186,0.375 c -0.098,0.32 -0.114,0.69 -0.063,0.844 0.63,1.887 1.16,3.067 1.47,3.187 0.615,0.236 0.806,0.865 1.156,1.5 -0.123,0.132 -0.227,0.2 -0.344,0.312 -0.614,0.59 -1.152,1.008 -1.656,1.812 -0.745,1.188 -1.248,1.203 -0.312,2.78 0.55,0.926 0.814,1.1 1.53,2.407 0.363,0.658 0.563,1.172 0.782,1.968 0.207,0.752 0.278,1.19 0.313,1.97 l 0.967,0.374 0.657,-0.657 0.625,-1.187 0.03,-0.906 c -0.24,-0.203 -0.308,-0.474 -0.25,-0.782 0.07,-0.368 0.514,-0.29 0.72,-0.625 0.282,-0.46 -0.333,-0.734 -0.658,-1.093 -0.605,-0.67 -1.43,-0.833 -1.625,-1.844 -0.052,-0.273 0.078,-0.427 0.375,-0.72 0.856,-0.84 1.13,-0.972 1.97,-1.81 0.24,0.14 0.61,0.192 0.968,0.124 0.28,-0.053 0.53,0.125 1.406,0.375 0.61,0.173 0.873,0.086 1.22,0.03 l 0.374,-0.093 c 0.05,0.21 0.11,0.415 0.125,0.687 0.053,1.062 -0.155,2.996 0.156,3.5 0.132,0.214 0.187,0.333 0.282,0.564 0.1,0.24 0.214,0.396 0.22,0.656 0.01,0.696 0.046,1.14 0,1.875 -0.045,0.69 -0.104,1.042 -0.22,1.75 -0.074,0.45 -0.165,0.714 -0.437,1.062 -0.283,0.364 -0.595,0.418 -0.97,0.688 l -0.092,1 1.125,0.47 1.28,0.31 0.688,-0.28 c 0,-0.254 0.04,-0.4 0.156,-0.625 0.128,-0.247 0.232,-0.44 0.47,-0.53 0.362,-0.144 0.76,0.128 0.905,-0.095 0.16,-0.242 0.06,-0.338 0.032,-0.75 -0.047,-0.662 -0.185,-0.99 -0.283,-1.657 -0.164,-1.11 -0.21,-1.686 -0.156,-2.75 0.032,-0.616 0.04,-0.956 0.157,-1.562 0.172,-0.883 0.486,-1.31 0.688,-2.188 0.225,-0.977 0.265,-1.606 0.375,-2.468 3.17,0.452 5.807,0.397 9.344,-0.375 0.17,-0.037 0.75,-0.25 0.75,-0.25 0.8,0.69 1.706,1.264 2.718,1.625 -0.006,0.1 -0.015,0.845 0,0.968 0.037,0.288 -0.04,0.482 0.125,0.72 0.106,0.15 0.197,0.24 0.375,0.28 0.263,0.06 0.455,0.023 0.657,-0.156 0.225,-0.2 0.183,-0.454 0.25,-0.75 0.03,-0.14 0.006,-0.564 0,-0.687 0.365,0.055 0.49,0.062 0.874,0.062 0.357,0 0.53,0.014 0.875,-0.03 0.004,0.08 0.02,0.368 0.03,0.467 0.027,0.245 -0.076,0.435 0.03,0.657 0.112,0.23 0.25,0.36 0.5,0.407 a 0.66,0.66 0 0 0 0.532,-0.094 c 0.296,-0.185 0.264,-0.498 0.313,-0.844 0.015,-0.11 0.01,-0.693 0,-0.782 0.212,-0.067 0.827,-0.292 1.03,-0.375 a 5.12,5.12 0 0 1 -0.093,0.812 c -0.07,0.376 -0.12,0.58 -0.25,0.938 -0.206,0.568 -0.44,0.856 -0.75,1.375 -0.376,0.634 -0.572,0.985 -1.03,1.562 -0.212,0.266 -0.358,0.386 -0.563,0.657 -0.257,0.337 -0.343,0.566 -0.595,0.906 -0.324,0.438 -0.51,0.724 -0.938,1.062 -0.693,0.55 -1.15,0.11 -2.093,0.844 l -0.22,1.03 1.438,0.532 1.282,0.25 0.437,-0.25 c -0.01,-0.3 0.033,-0.514 0.22,-0.75 0.213,-0.27 0.44,-0.35 0.78,-0.407 0.362,-0.06 0.748,0.034 1.032,-0.218 0.35,-0.31 0.35,-0.914 0.625,-1.47 0.86,-1.723 1.62,-2.562 3,-3.905 0.613,-0.597 1.138,-0.758 1.657,-1.438 0.246,-0.322 0.52,-0.47 0.53,-0.875 0.01,-0.284 -0.143,-0.416 -0.218,-0.688 -0.104,-0.377 -0.187,-1 -0.187,-1 1.52,0.744 0.97,0.646 1.25,1.406 0.224,0.615 -0.034,1.04 0.06,1.687 0.112,0.756 0.467,1.114 0.532,1.875 0.078,0.905 -0.143,1.42 -0.312,2.313 -0.15,0.785 -0.13,1.277 -0.47,2 -0.32,0.69 -0.57,1.077 -1.155,1.562 -0.21,0.175 -0.37,0.25 -0.594,0.407 l -0.124,1.03 1.125,0.376 1.626,0.437 0.375,-0.343 c 0.165,-0.655 -0.054,-1.617 0.407,-1.688 0.406,-0.062 0.693,0 0.782,-0.312 0.035,-0.132 0.057,-0.326 0.092,-0.625 0.22,-1.886 0.422,-3.646 0.625,-4.5 0.23,-0.968 0.215,-1.178 0.407,-1.907 0.175,-0.664 -0.086,-0.282 0.406,-1.687 0.734,-2.097 -0.208,-2.375 -1.063,-3.656 -0.462,-0.693 -0.622,-0.944 -0.687,-1.5 -0.097,-0.817 0.164,-1.495 0.125,-2.75 -0.04,-1.32 -0.023,-2.16 0,-2.875 0.115,-0.053 0.222,-0.12 0.344,-0.188 1.17,-0.642 1.635,-0.836 2.374,-2.47 a 3.43,3.43 0 0 0 0.312,-1.467 c -0.005,-0.332 -0.065,-0.652 -0.094,-1.032 -0.03,-0.4 -0.19,-0.637 -0.312,-0.937 -0.13,-0.318 -0.325,-0.56 -0.563,-0.844 -0.772,-0.924 -1.78,-1.132 -2.718,-1.47 -1.485,-0.53 -2.506,-0.433 -4.126,-0.56 -1.673,-0.133 -2.607,-0.16 -4.282,-0.063 -2.006,0.115 -3.128,0.52 -5.125,0.75 -1.915,0.223 -2.977,0.37 -4.906,0.407 -2.26,0.042 -4.42,-0.46 -5.78,-0.344 -2.45,0.21 -2.493,0.762 -6.188,1.063 a 66.916,66.916 0 0 1 -3.843,0.187 l -2.158,-0.687 c 0.857,-0.306 1.067,-0.488 1.47,-1.03 0.27,-0.367 0.232,-0.68 0.562,-1.064 0.266,-0.312 0.443,-0.622 0.78,-0.97 a 2.2,2.2 0 0 0 -0.937,-0.436 c -0.363,-0.076 -0.573,-0.042 -0.937,0 -0.494,0.056 -0.772,0.124 -1.22,0.344 -0.358,0.177 -0.623,0.357 -0.843,0.593 0,0 -1.285,-0.828 -2.187,-1.218 -1.12,-0.485 -1.6,-0.712 -3,-0.907 z m 1.97,11.906 h 0.06 c -0.01,0.01 -0.018,0.022 -0.03,0.03 z"
         id="path247"
         inkscape:connector-curvature="0"
         style="fill:#d52b1e" />
      <g
         id="g263"
         style="fill:none;stroke:#fedf00;stroke-width:0.98699999;stroke-linecap:round">
        <path
           d="m 568.77,359.52 -0.763,0.244 c -0.867,0.402 -1.578,0.418 -2.6,0.496 -2.644,0.202 -4.272,-1.057 -6.998,-0.847 -1.405,0.108 -2.026,1.19 -3.46,1.548 a 9.247,9.247 0 0 1 -1.702,0.283 l 0.512,-1.034 c 0,0 -1.284,0.26 -2.115,0.263 a 7.55,7.55 0 0 1 -1.523,-0.13 l 1.018,-0.95 c 0,0 -0.814,-0.133 -1.294,-0.336 a 3.918,3.918 0 0 1 -1.06,-0.63 20.484,20.484 0 0 0 1.69,-0.353 c 1.556,-0.385 2.04,-1.147 3.89,-1.325 1.15,-0.112 3.032,-0.047 7.643,0.716 3.035,0.502 4.38,0.267 5.535,-0.258 0.76,-0.345 1.01,-1.01 1.103,-1.788 0.092,-0.776 -0.404,-1.404 -0.874,-1.81 -0.123,-0.106 -0.444,-0.335 -1.113,-0.363"
           id="path249"
           inkscape:connector-curvature="0" />
        <path
           d="m 524.8,350.61 c -0.53,-0.066 -0.884,0.01 -1.34,0.291 -0.48,0.297 -0.54,0.698 -0.888,1.144 0.445,0.1 0.7,0.36 1.142,0.253 0.347,-0.084 0.527,-0.238 0.76,-0.507 0.317,-0.363 0.433,-0.676 0.43,-1.156 l -0.104,-0.024 z"
           id="path251"
           inkscape:connector-curvature="0"
           style="fill:#fcd900;stroke-width:0.51300001;stroke-linecap:butt" />
        <path
           d="m 536.04,363.79 c 0,0 0.264,0.48 0.407,0.8 0.248,0.554 0.376,0.878 0.524,1.467 0.2,0.8 0.115,1.284 0.242,2.098 0.022,0.143 0.05,0.263 0.076,0.376 l -0.05,1.13 m 6.801,-6.951 c 0,0 -0.22,0.812 -0.354,1.333 -0.352,1.353 -0.676,2.087 -0.944,3.46 -0.045,0.23 -0.078,0.442 -0.103,0.644 M 531.78,364.17 c 0.79,0.176 0.544,3.36 1.79,4.09"
           id="path253"
           inkscape:connector-curvature="0" />
        <path
           d="m 560.12,369.78 0.384,-0.25 a 8.154,8.154 0 0 0 2.686,-1.79"
           id="path255"
           inkscape:connector-curvature="0"
           style="stroke-linecap:butt" />
        <path
           d="m 552.38,368.02 h 0.007 c 3.533,-0.883 5.885,-2.648 7.58,-2.87"
           id="path257"
           inkscape:connector-curvature="0" />
        <path
           d="m 555.97,363.61 c 0.3,-0.01 0.585,-0.033 0.83,-0.068 1.467,-0.21 1.703,0.687 2.725,1.258 1.857,1.04 2.098,2.307 4.3,3.356 0.116,0.055 0.223,0.107 0.32,0.155 l 0.848,0.43"
           id="path259"
           inkscape:connector-curvature="0" />
        <path
           d="m 517.7,354.53 c 0.268,0.067 0.432,0.08 0.707,0.054 0.332,-0.03 0.484,-0.238 0.817,-0.25 0.27,-0.01 0.462,-0.03 0.684,0.126 0.14,0.1 0.2,0.19 0.28,0.342 0.087,0.166 0.163,0.282 0.124,0.466 -0.06,0.284 -0.324,0.418 -0.614,0.42 -0.237,0 -0.434,-0.062 -0.544,-0.272 a 0.467,0.467 0 0 1 -0.04,-0.39 c -0.283,0.108 -0.49,0.112 -0.776,0.017 A 1.04,1.04 0 0 1 517.7,354.53 Z"
           id="path261"
           inkscape:connector-curvature="0"
           style="fill:#fcd900;stroke-width:0.51300001;stroke-linecap:butt" />
      </g>
      <path
         d="m 525.13,364.17 c -0.797,-0.237 -1.966,-0.826 -1.966,-0.826 0.323,-0.25 0.587,-0.265 0.863,-0.555 0.39,-0.41 0.373,-0.79 0.593,-1.32 0.215,-0.52 0.184,-0.954 0.67,-1.343 0.29,-0.23 0.763,-0.27 1.12,-0.165 0.352,0.113 0.758,0.4 0.847,0.766 0.137,0.56 -0.16,0.886 -0.246,1.454 -0.085,0.568 -0.292,0.894 -0.194,1.46 0.066,0.375 0.227,0.52 0.354,0.907 0,0 -1.264,-0.15 -2.04,-0.38 z m -0.99,0.95 a 0.628,0.628 0 1 1 0.64,0.618 0.627,0.627 0 0 1 -0.64,-0.618 z m -1.76,-16.51 c 0,0 -0.09,-0.06 -0.144,-0.104 -0.383,-0.31 -0.42,-0.653 -0.6,-1.11 -0.173,-0.434 -0.258,-0.69 -0.316,-1.154 -0.05,-0.406 0,-0.64 0,-1.048 0,-0.37 0.04,-0.578 0,-0.944 -0.04,-0.375 -0.03,-0.612 -0.21,-0.944 -0.097,-0.18 -0.394,-0.337 -0.314,-0.42 0.094,-0.096 0.257,-0.02 0.42,0 0.4,0.05 0.63,0.166 0.943,0.42 0.376,0.306 0.525,0.57 0.67,1.05 0.167,0.547 0.25,0.897 0.408,1.467 0.083,0.295 0.13,0.47 0.284,0.734 0.16,0.275 0.32,0.383 0.524,0.63 l -0.01,0.022 c -0.3,0.326 -0.445,0.538 -0.778,0.833 -0.305,0.27 -0.56,0.403 -0.846,0.573 l -0.033,-0.01 z m 3.6,10.64 2.23,1.03 c 1.15,-0.634 2.474,-1.923 3.497,-3.918 0.88,-1.718 1.02,-2.65 1.364,-4.313 l -1.788,-0.582 -0.357,0.073 c -0.552,1.724 -0.693,2.705 -1.618,4.193 -0.802,1.29 -1.718,2.305 -2.65,3.034 l -0.677,0.483 z m 4.94,18.12 c 0.36,-0.493 0.513,-0.81 0.922,-1.264 0.456,-0.505 0.8,-0.702 1.312,-1.15 0.155,0.015 0.335,-0.012 0.48,0.07 -0.027,0.546 -0.055,0.95 -0.18,1.542 -0.1,0.48 -0.186,0.746 -0.346,1.21 -0.135,0.388 -0.16,0.64 -0.39,0.98 -0.154,0.225 -0.29,0.315 -0.476,0.517 -0.51,-0.742 -1.33,-1.297 -1.322,-1.906 z m 33.01,1.85 c 0.573,0.21 0.92,0.27 1.47,0.538 0.61,0.3 0.894,0.576 1.466,0.944 0.027,0.154 0.104,0.32 0.063,0.483 -0.532,0.122 -0.928,0.207 -1.53,0.25 a 8.39,8.39 0 0 1 -1.26,0 c -0.41,-0.022 -0.658,0.025 -1.048,-0.104 -0.26,-0.085 -0.384,-0.19 -0.63,-0.313 0.573,-0.696 0.88,-1.637 1.468,-1.797 z m -9.76,-2.04 c 0.573,0.21 0.92,0.27 1.468,0.538 0.61,0.3 0.896,0.576 1.468,0.944 0.027,0.154 0.104,0.32 0.063,0.482 -0.532,0.123 -0.928,0.208 -1.532,0.252 -0.49,0.036 -0.768,0.027 -1.258,0 -0.41,-0.023 -0.658,0.024 -1.048,-0.105 -0.26,-0.085 -0.384,-0.19 -0.63,-0.313 0.573,-0.696 0.88,-1.637 1.468,-1.797 z m -17.34,2.13 c 0.573,0.21 0.92,0.27 1.47,0.538 0.61,0.3 0.894,0.576 1.467,0.944 0.026,0.154 0.103,0.32 0.063,0.483 -0.532,0.122 -0.928,0.207 -1.53,0.25 -0.49,0.037 -0.77,0.028 -1.26,0 -0.41,-0.02 -0.658,0.025 -1.048,-0.104 -0.26,-0.085 -0.384,-0.19 -0.63,-0.313 0.573,-0.696 0.88,-1.637 1.468,-1.797 z m -8.98,-29.8 c -0.613,-0.278 -1.05,-1.045 -0.66,-1.594 0.155,-0.22 0.412,-0.174 0.565,-0.395 0.19,-0.272 0.142,-0.507 0.136,-0.838 -0.006,-0.377 -0.142,-0.573 -0.208,-0.944 -0.072,-0.405 -0.14,-0.636 -0.136,-1.048 0.005,-0.628 -0.038,-1.076 0.345,-1.573 0.246,-0.317 0.662,-0.592 0.826,-0.612 0.147,0.136 -0.057,0.502 -0.033,0.822 0.036,0.462 0.13,0.717 0.288,1.153 0.203,0.563 0.48,0.81 0.704,1.363 0.208,0.516 0.4,0.808 0.42,1.363 0.015,0.457 -0.025,0.736 -0.21,1.154 -0.165,0.37 -0.3,0.58 -0.61,0.84 -0.27,0.224 -0.458,0.324 -0.796,0.418 a 1.15,1.15 0 0 1 -0.628,-0.108 z"
         id="path265"
         inkscape:connector-curvature="0"
         style="fill:#0065bd" />
    </g>
    <use
       height="100%"
       width="100%"
       xlink:href="#b"
       y="36.591"
       id="use268"
       x="0" />
  </g>
  <path
     d="m 8.8034,5.85067 h 1.753167 V 7.6005 H 8.8034 Z m 1.940067,0 h 1.7532 V 7.6005 h -1.7532 z M 8.81,9.11807 c 0.005,0.0315 0.016233,0.0856 0.046167,0.141 0.0315,0.0498 0.0199,0.0484 0.091233,0.128 0.0351,0.0392 0.089867,0.0728 0.1328333,0.0959 0.043133,0.0232 0.075,0.0346 0.146,0.0532 0.139,0.0365 0.2365667,0.0388 0.3535334,0.0341 C 9.6710337,9.56627 9.7407,9.55537 9.7984333,9.54757 9.8807003,9.53647 9.942,9.52987 10.0356,9.52597 c 0.0455,-0.002 0.0885,-0.002 0.131,0 0.05133,0.003 0.102,0.0108 0.155933,0.0216 0.1161,0.0232 0.233867,0.068 0.233867,0.068 l 3.33e-4,-1.82733 -1.7534997,-4.7e-4 v 1.2489 c 0,0 0.0036,0.061 0.0068,0.0813 z m 3.680233,-4e-4 c -0.005,0.0315 -0.0162,0.0856 -0.04613,0.141 -0.0315,0.0497 -0.0199,0.0483 -0.0912,0.128 -0.03513,0.0392 -0.0899,0.0727 -0.132867,0.0959 -0.0431,0.0232 -0.075,0.0347 -0.1459,0.0532 -0.139066,0.0365 -0.236666,0.0388 -0.3536,0.0341 -0.09127,-0.004 -0.160933,-0.0149 -0.218666,-0.0227 -0.08227,-0.011 -0.143567,-0.0177 -0.237167,-0.0215 -0.0455,-0.002 -0.0885,-0.002 -0.131,0 -0.05133,0.003 -0.102,0.0108 -0.155933,0.0216 -0.1161,0.0232 -0.235334,0.068 -0.235334,0.068 l 0.0012,-1.82733 1.753467,-4.7e-4 v 1.24894 c 0,0 -0.0036,0.061 -0.0068,0.0813 z"
     id="path272"
     inkscape:connector-curvature="0"
     style="fill:none;stroke:#703d29;stroke-width:0.017" />
</svg>
