<?xml version="1.0" encoding="UTF-8" standalone="no"?>
<svg
   xmlns:dc="http://purl.org/dc/elements/1.1/"
   xmlns:cc="http://creativecommons.org/ns#"
   xmlns:rdf="http://www.w3.org/1999/02/22-rdf-syntax-ns#"
   xmlns:svg="http://www.w3.org/2000/svg"
   xmlns="http://www.w3.org/2000/svg"
   xmlns:xlink="http://www.w3.org/1999/xlink"
   xmlns:sodipodi="http://sodipodi.sourceforge.net/DTD/sodipodi-0.dtd"
   xmlns:inkscape="http://www.inkscape.org/namespaces/inkscape"
   height="16"
   width="21.333332"
   viewBox="0 0 21.333332 16"
   version="1.1"
   id="svg7"
   sodipodi:docname="al.svg"
   inkscape:version="0.92.1 r">
  <metadata
     id="metadata13">
    <rdf:RDF>
      <cc:Work
         rdf:about="">
        <dc:format>image/svg+xml</dc:format>
        <dc:type
           rdf:resource="http://purl.org/dc/dcmitype/StillImage" />
        <dc:title></dc:title>
      </cc:Work>
    </rdf:RDF>
  </metadata>
  <defs
     id="defs11" />
  <sodipodi:namedview
     pagecolor="#ffffff"
     bordercolor="#666666"
     borderopacity="1"
     objecttolerance="10"
     gridtolerance="10"
     guidetolerance="10"
     inkscape:pageopacity="0"
     inkscape:pageshadow="2"
     inkscape:window-width="1920"
     inkscape:window-height="1025"
     id="namedview9"
     showgrid="false"
     fit-margin-top="0"
     fit-margin-left="0"
     fit-margin-right="0"
     fit-margin-bottom="0"
     inkscape:zoom="7.8666667"
     inkscape:cx="19.627678"
     inkscape:cy="35.36536"
     inkscape:window-x="0"
     inkscape:window-y="27"
     inkscape:window-maximized="1"
     inkscape:current-layer="svg7" />
  <path
     d="M 0,0 H 21.333333 V 16 H 0 Z"
     id="path2"
     inkscape:connector-curvature="0"
     style="fill:#e41e20;stroke-width:0.03333334" />
  <path
     id="a"
     d="m 9.0696667,3.11053 c -0.1555667,-0.003 -0.4137667,0.0496 -0.408,0.169 -0.4333334,-0.0743 -0.4784667,0.10474 -0.453,0.264 0.041233,-0.0632 0.091433,-0.0975 0.13,-0.104 0.0578,-0.01 0.1182666,0.009 0.18,0.047 0.061767,0.0379 0.1298,0.0991 0.16,0.137 -0.1529334,0.0366 -0.2711,0.013 -0.391,-0.008 -0.0591,-0.0103 -0.1418,-0.0436 -0.191,-0.078 -0.049167,-0.0344 -0.064667,-0.0668 -0.142,-0.146 -0.091167,-0.0933 -0.1882334,-0.0671 -0.158,0.078 0.069933,0.13474 0.1867666,0.19484 0.334,0.219 0.070867,0.0117 0.1764,0.0369 0.296,0.037 0.1196666,1.4e-4 0.2539333,-0.0173 0.327,-0.002 -0.0439,0.0276 -0.093567,0.0751 -0.192,0.094 -0.1000667,0.0192 -0.2522334,-0.0595 -0.345,-0.081 0.0118,0.078 0.1102333,0.151 0.304,0.189 0.3184666,0.0693 0.5830666,0.122 0.758,0.217 0.1749333,0.095 0.2852333,0.21384 0.364,0.307 0.1567666,0.18534 0.165,0.32767 0.175,0.359 0.032267,0.29617 -0.071,0.4628 -0.263,0.514 -0.096,0.0256 -0.2664667,-0.0226 -0.329,-0.096 -0.0625,-0.0733 -0.1233334,-0.1995 -0.106,-0.397 0.016867,-0.0775 0.1054666,-0.27933 0.03,-0.321 C 8.8021,4.31643 8.38,4.1222 8.0746667,4.00653 c -0.083433,-0.0316 -0.1522,0.0818 -0.179,0.126 -0.5187334,-0.0632 -0.9864667,-0.4142 -1.197,-0.788 -0.1433334,-0.25456 -0.3796667,5.4e-4 -0.34,0.241 0.064167,0.2684 0.2686666,0.46247 0.514,0.6 0.2518333,0.13867 0.5666,0.2751 0.885,0.268 0.1715666,0.0325 0.1698666,0.2544 -0.036,0.296 -0.4025667,0.003 -0.7237334,-0.007 -1.027,-0.3 -0.23,-0.21 -0.3594667,0.0402 -0.293,0.182 0.1126666,0.43707 0.7362,0.55947 1.367,0.418 0.2442666,-0.0404 0.098,0.22134 0.029,0.224 -0.2635667,0.189 -0.7354334,0.3739 -1.151,-0.002 -0.1901667,-0.1456 -0.3187334,-0.0232 -0.248,0.187 0.1844,0.54807 0.8897333,0.433 1.374,0.163 0.1246666,-0.0695 0.2377666,0.0922 0.086,0.215 -0.6022334,0.4208 -0.9033334,0.4256 -1.175,0.264 -0.3400667,-0.13413 -0.37,0.2431 -0.168,0.367 0.2245333,0.13774 0.7958666,0.0345 1.215,-0.229 0.1796666,-0.1336 0.1878333,0.0753 0.074,0.158 -0.4974,0.42987 -0.6934667,0.54307 -1.212,0.473 -0.2571,-0.02 -0.2532667,0.297 -0.051,0.421 0.2761666,0.16934 0.8154666,-0.11176 1.234,-0.459 0.1761666,-0.0941 0.2051,0.0602 0.118,0.243 -0.2557334,0.32267 -0.4957667,0.5129 -0.727,0.601 -0.2312,0.0881 -0.4536,0.0741 -0.611,0.02 -0.192,-0.066 -0.2160667,0.13357 -0.11,0.315 0.064,0.10934 0.329,0.1444 0.615,0.043 0.2860666,-0.10143 0.5931666,-0.33933 0.804,-0.618 0.1834666,-0.16066 0.1606666,0.0551 0.077,0.207 -0.4222,0.66747 -0.8083334,0.91507 -1.317,0.873 -0.2255,-0.0383 -0.2767334,0.13707 -0.133,0.299 0.2524,0.20934 0.568,0.20274 0.844,-0.004 0.2454,-0.2366 0.7148333,-0.746 0.961,-1.019 0.1735,-0.13833 0.2289,-0.002 0.178,0.279 -0.046267,0.16087 -0.1621667,0.33034 -0.478,0.454 -0.2157334,0.12314 -0.053733,0.29284 0.108,0.296 0.089,0.002 0.2697333,-0.10233 0.408,-0.258 0.1819,-0.20483 0.1927333,-0.34233 0.293,-0.661 0.094767,-0.15533 0.264,-0.0829 0.264,0.08 -0.081167,0.3192 -0.1509,0.37644 -0.315,0.507 -0.1569334,0.14734 0.1093333,0.19647 0.199,0.136 0.2595333,-0.175 0.3543333,-0.40123 0.441,-0.607 0.0626,-0.14853 0.2441666,-0.0765 0.16,0.166 -0.2011334,0.5796 -0.5316667,0.8078 -1.11,0.925 -0.0586,0.0104 -0.094333,0.045 -0.074,0.113 0.077667,0.0806 0.1554,0.15367 0.233,0.234 -0.3576,0.1041 -0.6481334,0.1626 -1.006,0.267 -0.1755667,-0.1151 -0.3174,-0.21276 -0.493,-0.328 -0.046333,-0.10823 -0.067867,-0.27343 -0.327,-0.157 -0.1755667,-0.0811 -0.2565667,-0.0513 -0.354,0.03 0.1406666,0.005 0.2018666,0.0429 0.257,0.107 0.072,0.18967 0.238,0.208 0.408,0.154 0.1105666,0.0931 0.1694666,0.1646 0.28,0.258 -0.2063334,-0.007 -0.3501334,-0.0107 -0.556,-0.017 -0.1965,-0.211 -0.3533334,-0.19943 -0.494,-0.034 -0.1072,0.0165 -0.1526667,0.0188 -0.226,0.149 0.1153333,-0.0473 0.188,-0.0615 0.238,-0.01 0.2089333,0.12114 0.3454,0.0941 0.449,0 0.2015666,0.0123 0.3832,0.0228 0.585,0.036 -0.074133,0.063 -0.1758667,0.0964 -0.25,0.16 -0.3027334,-0.0866 -0.4607334,0.03 -0.514,0.277 -0.040567,0.0997 -0.059567,0.20234 -0.042,0.309 0.029333,-0.0975 0.076433,-0.1814 0.163,-0.234 0.2698333,0.0686 0.3713333,-0.0416 0.386,-0.203 0.1300666,-0.1061 0.3262,-0.1295 0.456,-0.237 0.1517666,0.0486 0.2251666,0.0787 0.378,0.127 0.054333,0.16517 0.1773333,0.23054 0.377,0.188 0.2376666,0.007 0.1957333,0.105 0.215,0.183 0.063167,-0.112 0.0614,-0.221 -0.085,-0.32 -0.053267,-0.14466 -0.1712667,-0.21053 -0.326,-0.127 -0.1456667,-0.0413 -0.1839,-0.10076 -0.329,-0.142 0.367,-0.117 0.6273333,-0.14326 0.994,-0.26 0.0918,0.0866 0.1645333,0.14877 0.257,0.226 0.048733,0.0291 0.0954,0.0364 0.124,0 0.2298,-0.33256 0.3324333,-0.62566 0.546,-0.845 0.0816,-0.0907 0.1846666,-0.21313 0.2990003,-0.243 0.05717,-0.0149 0.127266,-0.006 0.172,0.043 0.04477,0.0488 0.07993,0.1388 0.065,0.273 -0.0214,0.19267 -0.06793,0.2535 -0.122,0.369 -0.054,0.11554 -0.1201,0.18657 -0.1880003,0.275 -0.1357667,0.1769 -0.3149334,0.27987 -0.421,0.349 -0.2120667,0.13834 -0.3017667,0.0778 -0.466,0.069 -0.2122334,0.0238 -0.2686667,0.1272 -0.095,0.27 0.1624,0.0845 0.3083333,0.0949 0.427,0.073 0.1018666,-0.0188 0.2210666,-0.15033 0.306,-0.221 0.0956,-0.11043 0.2541333,0.0205 0.146,0.149 -0.1964334,0.23344 -0.3927667,0.38734 -0.635,0.384 -0.2545334,0.0343 -0.2069334,0.17734 -0.038,0.247 0.304,0.1255 0.5785666,-0.10953 0.718,-0.264 0.1076,-0.11766 0.1840003,-0.12233 0.1650003,0.06 -0.1068003,0.33 -0.252767,0.45754 -0.4910003,0.474 -0.1932334,-0.0179 -0.1953334,0.13124 -0.054,0.232 0.3219333,0.22284 0.5550663,-0.15666 0.6640003,-0.386 0.07767,-0.2069 0.196666,-0.1085 0.209,0.062 0.0017,0.22784 -0.101334,0.41384 -0.3770003,0.647 0.2109333,0.33607 0.4568333,0.67787 0.6680003,1.015 l 0.640166,-7.12976 -0.64,-1.12647 c -0.06667,-0.0616 -0.2921,-0.32717 -0.351,-0.364 -0.02147,-0.023 -0.03453,-0.0392 -0.003,-0.051 0.03053,-0.0115 0.102,-0.0243 0.15,-0.033 C 10.3271,4.0493 10.210833,4.0057 9.9538333,3.9313 10.0165,3.9046 10.077367,3.9201 10.261833,3.9113 10.188603,3.8073 10.025033,3.6481 9.8138333,3.5713 9.9533,3.4721 9.9805,3.46547 10.118833,3.3493 9.8792667,3.3323 9.6746667,3.2866 9.4688333,3.2243 9.3387,3.1634 9.1579333,3.11173 9.0698333,3.1103 Z m 0.023,0.279 c 0.1266666,0 0.205,0.0434 0.205,0.096 0,0.0535 -0.078333,0.097 -0.205,0.097 -0.1260667,0 -0.206,-0.0474 -0.206,-0.101 0,-0.0526 0.079933,-0.092 0.206,-0.092 z"
     inkscape:connector-curvature="0"
     style="stroke-width:0.03333334" />
  <use
     height="100%"
     width="100%"
     xlink:href="#a"
     transform="matrix(-1,0,0,1,21.333333,0)"
     id="use5"
     x="0"
     y="0" />
</svg>
