<?xml version="1.0" encoding="UTF-8" standalone="no"?>
<svg
   xmlns:dc="http://purl.org/dc/elements/1.1/"
   xmlns:cc="http://creativecommons.org/ns#"
   xmlns:rdf="http://www.w3.org/1999/02/22-rdf-syntax-ns#"
   xmlns:svg="http://www.w3.org/2000/svg"
   xmlns="http://www.w3.org/2000/svg"
   xmlns:sodipodi="http://sodipodi.sourceforge.net/DTD/sodipodi-0.dtd"
   xmlns:inkscape="http://www.inkscape.org/namespaces/inkscape"
   height="16"
   width="21.333332"
   viewBox="0 0 21.333332 16"
   version="1.1"
   id="svg10"
   sodipodi:docname="aq.svg"
   inkscape:version="0.92.1 r">
  <metadata
     id="metadata16">
    <rdf:RDF>
      <cc:Work
         rdf:about="">
        <dc:format>image/svg+xml</dc:format>
        <dc:type
           rdf:resource="http://purl.org/dc/dcmitype/StillImage" />
        <dc:title></dc:title>
      </cc:Work>
    </rdf:RDF>
  </metadata>
  <defs
     id="defs14" />
  <sodipodi:namedview
     pagecolor="#ffffff"
     bordercolor="#666666"
     borderopacity="1"
     objecttolerance="10"
     gridtolerance="10"
     guidetolerance="10"
     inkscape:pageopacity="0"
     inkscape:pageshadow="2"
     inkscape:window-width="1920"
     inkscape:window-height="1025"
     id="namedview12"
     showgrid="false"
     fit-margin-top="0"
     fit-margin-left="0"
     fit-margin-right="0"
     fit-margin-bottom="0"
     inkscape:zoom="0.49166667"
     inkscape:cx="320"
     inkscape:cy="240"
     inkscape:window-x="0"
     inkscape:window-y="27"
     inkscape:window-maximized="1"
     inkscape:current-layer="svg10" />
  <path
     d="M 0,0 H 21.333333 V 16 H 0 Z"
     id="path2"
     inkscape:connector-curvature="0"
     style="fill:#3a7dce;fill-rule:evenodd;stroke-width:0.03333334" />
  <path
     d="M 6.161,7.51093 C 6.064767,7.31407 6.064767,7.31407 6.064767,7.1173 c -0.048133,0 -0.057133,0.009 -0.085,0.002 -0.027833,-0.008 -0.038333,0.1815 -0.1285334,0.14457 -0.015,-0.0184 0.064667,-0.15524 -0.021833,-0.21214 -0.0278,-0.0185 0.00677,-0.13073 -0.00533,-0.18 0,0 -0.1097334,0.0585 -0.1924667,-0.14753 -0.040633,-0.0539 -0.096267,0.0492 -0.096267,0.0492 0,0 0.024067,0.063 -0.0195,0.0784 -0.061667,-0.0461 -0.1068,-0.022 -0.185,-0.0853 C 5.2526699,6.703 5.3474039,6.6304 5.1985036,6.5766 5.2948366,6.33056 5.2948366,6.37973 5.5353703,6.28136 5.3910369,6.18296 5.3910369,6.18296 5.2948369,6.0353 5.1504369,5.9861 5.1023369,5.937 4.9579369,5.83853 4.7654369,5.59246 4.6692036,5.10046 4.6692036,4.75603 4.7910703,4.6407 4.9579369,5.14966 5.1985703,5.29726 l 0.3368666,0.1476 c 0.1925,0.0984 0.2406334,0.19677 0.385,0.2952 L 6.3535703,5.8877 c 0.1925,0.14756 0.2887333,0.34443 0.4331333,0.3936 0.1564,0 0.1865333,-0.0921 0.2366667,-0.0978 0.2829,-0.0149 0.4273333,-0.0521 0.4836666,-0.139 0.057133,-0.0692 0.194,0.04 0.579,-0.10764 L 8.0379699,5.74 c 0,0 0.1022333,-0.0861 0.2406333,-0.0492 -0.00377,-0.0899 -0.012833,-0.32977 0.1234333,-0.438 -0.082767,-0.0887 -0.0272,-0.1524 -0.0272,-0.1524 0,0 0.076667,-0.0754 0.085667,-0.11533 -0.040533,-0.21684 0.035233,-0.22017 0.0522,-0.284 0.017,-0.0637 -0.065433,-0.0419 -0.042167,-0.12984 0.023167,-0.088 0.1625667,-0.10883 0.1812334,-0.18126 0.018767,-0.0725 -0.039667,-0.1088 -0.036333,-0.1261 0.0301,-0.0692 0.00457,-0.23217 0,-0.29524 0.2586667,-0.0708 0.3429334,-0.286 0.4331,-0.19683 0.048133,-0.29523 0.096267,-0.3936 0.385,-0.3936 0.040667,-0.0907 -0.1053,-0.16767 -0.0481,-0.19683 0.096233,-0.0123 0.1699334,-0.006 0.2828,0.143 0.035633,0.0473 0.042067,-0.0692 0.078133,-0.0815 0.0361,-0.0123 0.1225,-0.0125 0.1353333,-0.0707 0.013567,-0.06 0.0331,-0.1384 0.081233,-0.2368 0.0406,-0.08 0.072167,0.0308 0.1082668,0.1876 0.203,0.008 0.6617,0.0538 0.8542,0.10764 0.144333,0.0384 0.2406,-0.0384 0.378933,-0.0538 0.102234,0.10457 0.1985,0.0261 0.252667,0.24907 0.0764,0.12033 0.201533,0.0108 0.2286,0.0462 0.160933,0.45356 0.714367,0.1476 0.756433,0.15533 0.07063,0 0.156967,0.2028 0.2126,0.19773 0.09043,-0.0156 0.06483,-0.0786 0.143734,-0.0533 -0.021,0.1707 0.155,0.3675 0.155,0.49513 0,0 0.04283,0.0216 0.0825,-0.0163 0.03967,-0.0378 0.07613,-0.1351 0.111433,-0.13284 0.08427,0.0123 0.1184,0.0234 0.215433,0.0407 0.260934,0.0912 0.393867,0.11173 0.4952,0.15843 0.0472,0.0882 0.0928,0.13337 0.188434,0.11687 0.07893,0.0543 0.02133,0.12533 0.068,0.12993 0.09623,-0.0492 0.127766,-0.10303 0.224033,-0.0538 0.09623,0.0492 0.1925,0.14763 0.240633,0.24603 0,0.0492 -0.04813,0.246 0,0.54127 0.02407,0.0983 0.0357,0.1764 0.139067,0.34516 -0.02747,0.1734 0.1301,0.46514 0.1301,0.53894 0,0.0984 -0.07673,0.14916 -0.124867,0.2475 0.1925,0.14766 0,0.39366 -0.09623,0.54126 0.721867,0.14767 0.385,0.44287 0.962467,0.29524 -0.144334,0.34446 -0.09323,0.3168 0.05113,0.66126 -0.288733,0.1968 -0.006,0.25674 -0.198433,0.50274 -0.01207,0.0154 0.114233,0.21376 0.291666,0.21376 -0.0481,0.39364 -0.192466,0.246 -0.144333,0.83647 -0.379,-0.008 -0.225667,0.44133 -0.481267,0.39367 0.015,0.2814 0.145867,0.306 0.09623,0.59043 -0.1925,0.0492 -0.1925,0.0492 -0.288734,0.19687 l -0.144366,-0.0492 c -0.04813,0.24604 -0.144367,0.29524 0,0.54127 0,0 -0.186467,0.006 -0.240634,0 -0.0045,0.0846 0.08277,0.10767 0.09627,0.1968 -0.0075,0.0354 -0.2737,0.19067 -0.481267,0.1969 -0.05407,0.12143 0.144367,0.2506 0.132367,0.31207 -0.2256,0.0446 -0.324833,0.3275 -0.324833,0.3275 0,0 0.115766,0.0477 0.09627,0.0985 -0.06167,-0.0462 -0.09627,-0.0492 -0.1925,-0.0492 -0.04813,0.0123 -0.165433,-0.003 -0.2779,0.19107 -0.123433,0.0416 -0.181666,0.0266 -0.2753,0.15313 -0.04147,-0.12067 -0.1011,10e-4 -0.174,0.0479 -0.0728,0.0469 -0.170933,0.16334 -0.184166,0.15834 0.003,-0.0338 0.04513,-0.15687 0.04513,-0.15687 l -0.240633,0.0492 -0.0296,0.003 c -0.01893,0.002 -0.0139,-0.14364 -0.05947,-0.13834 -0.04567,0.005 -0.176067,0.183 -0.220533,0.1886 -0.0444,0.006 -0.05843,-0.0565 -0.09673,-0.0511 -0.03823,0.005 -0.1128,0.1875 -0.139933,0.19227 -0.0271,0.005 -0.134567,-0.1106 -0.226667,-0.0945 -0.473733,0.17073 -0.548966,-0.3367 -0.6226,-0.0507 -0.09927,-0.0538 -0.08207,-0.0226 -0.1829,0.004 -0.0644,0.017 -0.07023,-0.087 -0.127466,-0.0854 -0.114467,0.003 -0.108434,0.11406 -0.170934,0.0809 -0.05103,-0.23063 -0.359333,-0.18917 -0.389466,-0.2875 -0.02443,-0.10267 0.1336,-0.1022 0.1847,-0.17173 0.03907,-0.10034 -0.0408,-0.13844 0.1178,-0.2352 0.206666,-0.14294 0.08783,-0.1969 0.124066,-0.30427 0.06483,-0.15513 0.0652,-0.19297 0.01107,-0.3298 0,0 -0.160933,-0.44283 -0.1925,-0.44283 -0.09623,-0.0277 -0.09623,0.16296 -0.237633,0.21526 -0.288734,0.0984 -0.7984671,-0.24913 -0.8872338,-0.24913 -0.081167,0.002 -0.4572333,0.0911 -0.4430666,-0.10067 -0.056233,0.18644 -0.263,0.0438 -0.2757334,0.0438 -0.1925,0 -0.1188333,0.1522 -0.2481333,0.14607 -0.058733,-0.02 -0.6511667,-0.0553 -0.6511667,-0.0553 v 0.0984 l -0.385,-0.1969 -0.3369,-0.0983 C 7.0755,10.66 7.2199,10.41397 6.7386333,10.56157 V 10.26633 H 6.498 c 0.096233,-0.59046 0,-0.2952 -0.048133,-0.83646 l -0.1925,0.0492 c -0.1925,-0.266 0.2676666,-0.21527 -0.1443667,-0.3936 0,0 0.00757,-0.29377 -0.096233,-0.19687 -0.021033,0.0123 0.0481,0.14767 0.0481,0.14767 -0.385,-0.0492 -0.4812334,-0.14767 -0.4812334,-0.54127 0,0 0.3173334,0.0462 0.2887334,0 -0.045067,-0.0738 -0.1037334,-0.55353 -0.0932,-0.58583 -0.00453,-0.0646 0.2947333,-0.22757 0.2368666,-0.38293 0.0368,-0.0138 0.1450667,-0.0153 0.1450667,-0.0153"
     id="path4"
     inkscape:connector-curvature="0"
     style="fill:#ffffff;stroke-width:0.03333334" />
  <path
     d="m 19.1525,9.47687 c -0.0154,0.0346 -0.01267,0.0692 0.0033,0.0939 0.02853,-0.0428 0.0044,-0.0626 -0.0033,-0.0939 z"
     id="path6"
     inkscape:connector-curvature="0"
     style="fill:none;stroke:#ffffff;stroke-width:0.07026667;stroke-linecap:round;stroke-linejoin:round" />
  <path
     d="m 6.7763333,5.59187 c 0,0 -0.080733,-0.01 -0.0626,0.0609 0.026333,-0.0543 0.060933,-0.0576 0.062567,-0.0609 z m 0.0181,-0.16467 c -0.044467,0.002 -0.098833,-0.007 -0.0807,0.0642 0.026333,-0.0544 0.079033,-0.0609 0.0807,-0.0642 z M 7.0982,6.37093 c 0,0 0.069167,-0.005 0.051033,0.0659 C 7.1229,6.38247 7.0999,6.37423 7.0982,6.37093 Z"
     id="path8"
     inkscape:connector-curvature="0"
     style="fill:none;stroke:#ffffff;stroke-width:0.06586666;stroke-linejoin:round" />
</svg>
