<?xml version="1.0" encoding="UTF-8" standalone="no"?>
<svg
   xmlns:dc="http://purl.org/dc/elements/1.1/"
   xmlns:cc="http://creativecommons.org/ns#"
   xmlns:rdf="http://www.w3.org/1999/02/22-rdf-syntax-ns#"
   xmlns:svg="http://www.w3.org/2000/svg"
   xmlns="http://www.w3.org/2000/svg"
   xmlns:sodipodi="http://sodipodi.sourceforge.net/DTD/sodipodi-0.dtd"
   xmlns:inkscape="http://www.inkscape.org/namespaces/inkscape"
   height="15.999998"
   width="21.333332"
   viewBox="0 0 21.333332 15.999998"
   version="1.1"
   id="svg55"
   sodipodi:docname="as.svg"
   inkscape:version="0.92.1 r">
  <metadata
     id="metadata59">
    <rdf:RDF>
      <cc:Work
         rdf:about="">
        <dc:format>image/svg+xml</dc:format>
        <dc:type
           rdf:resource="http://purl.org/dc/dcmitype/StillImage" />
        <dc:title></dc:title>
      </cc:Work>
    </rdf:RDF>
  </metadata>
  <sodipodi:namedview
     pagecolor="#ffffff"
     bordercolor="#666666"
     borderopacity="1"
     objecttolerance="10"
     gridtolerance="10"
     guidetolerance="10"
     inkscape:pageopacity="0"
     inkscape:pageshadow="2"
     inkscape:window-width="1920"
     inkscape:window-height="1025"
     id="namedview57"
     showgrid="false"
     fit-margin-top="0"
     fit-margin-left="0"
     fit-margin-right="0"
     fit-margin-bottom="0"
     inkscape:zoom="0.49166667"
     inkscape:cx="320"
     inkscape:cy="240"
     inkscape:window-x="0"
     inkscape:window-y="27"
     inkscape:window-maximized="1"
     inkscape:current-layer="svg55" />
  <defs
     id="defs5">
    <clipPath
       id="a">
      <path
         d="M 0,0 H 640 V 480 H 0 Z"
         id="path2"
         inkscape:connector-curvature="0"
         style="fill-opacity:0.67000002" />
    </clipPath>
  </defs>
  <g
     clip-path="url(#a)"
     id="g53"
     transform="scale(0.03333333)">
    <path
       d="M -374,-16 H 650 V 496 H -374 Z"
       id="path7"
       inkscape:connector-curvature="0"
       style="fill:#000066" />
    <path
       d="M -374,240 650,496 V -16 Z"
       id="path9"
       inkscape:connector-curvature="0"
       style="fill:#bd1021;fill-rule:evenodd" />
    <path
       d="M 650,11.43 V 468.57 L -264.29,240 Z"
       id="path11"
       inkscape:connector-curvature="0"
       style="fill:#ffffff;fill-rule:evenodd" />
    <g
       id="g51"
       style="stroke:#000000">
      <path
         d="m 478,297.4 c 0,0 -6.392,-5.23 1.163,-13.658 -4.068,-3.486 -0.29,-10.17 -0.29,-10.17 0,0 -6.975,-2.615 0.29,-13.366 -5.23,-3.487 -2.906,-11.333 -2.906,-11.333 0,0 -17.144,-6.393 -0.87,-12.494 -13.368,5.81 -25.863,-7.848 -25.863,-7.848 l -19.468,0.582 c -3.302,-16.172 -28.97,-2.127 -9.888,-48.52 -4.94,-0.872 -10.46,-2.324 -15.982,1.744 -5.522,4.067 -21.212,12.784 -30.51,4.067 -9.298,-8.717 6.1,-21.212 6.392,-21.502 0.29,-0.29 20.63,-10.75 23.536,-17.725 -0.29,-5.23 -6.682,-9.298 -0.872,-20.63 6.683,-10.753 47.65,-20.923 66.26,-24.41 9.007,-4.068 13.076,-11.914 13.076,-11.914 l 2.034,7.555 c 0,0 41.262,-12.205 43.296,-18.016 2.034,-5.811 0.872,5.23 0.872,5.23 16.272,-1.453 36.903,-15.4 39.81,-9.008 13.656,-2.615 39.81,-14.238 39.81,-14.238 0,0 9.006,-0.29 2.613,9.59 4.068,6.392 -1.162,11.913 -1.452,11.913 -0.29,0 1.743,6.394 -3.487,9.88 1.745,5.522 -3.197,9.88 -3.197,9.88 0,0 2.326,6.684 -6.973,10.17 0.872,5.812 -5.23,6.975 -5.23,6.975 0,0 0.872,6.102 -3.196,8.717 0,4.65 -4.65,6.974 -4.65,6.974 0,0 2.906,1.743 -1.163,4.65 -4.067,2.905 -46.2,28.766 -46.2,28.476 0,-0.29 30.8,5.52 32.834,6.683 2.034,1.163 25.28,16.564 25.28,16.564 l -23.537,29.056 c 0,0 -26.15,-2.905 -27.312,-1.452 -1.162,1.453 5.52,2.034 6.973,4.358 1.455,2.324 3.78,7.847 8.428,7.265 4.65,-0.582 -8.717,8.427 -17.434,9.3 0,3.195 11.04,3.485 13.947,0.87 2.907,-2.615 -6.973,7.555 -8.136,9.008 -1.163,1.453 13.077,-2.034 13.077,-2.034 0,0 -2.324,9.59 -14.818,12.496 4.94,8.136 2.905,13.367 2.614,13.367 -0.291,0 -8.136,-8.137 -15.69,-6.684 2.033,7.845 8.136,15.108 9.88,16.272 1.742,1.162 -13.658,0.87 -15.692,-3.488 -2.034,-4.358 -3.778,10.46 1.743,15.11 -6.392,0.29 -11.914,-3.487 -11.914,-3.487 0,0 -3.776,8.717 -1.162,13.077 2.617,4.36 -9.006,-8.718 -9.006,-8.718 l -22.084,9.3 -4.94,-8.428 z"
         id="path13"
         inkscape:connector-curvature="0"
         style="fill:#9c3900;fill-rule:evenodd;stroke-width:1.76100004;stroke-linejoin:round" />
      <path
         d="m 307.325,280.1 c 0.518,0 32.082,-0.518 46.572,-8.797 7.244,11.384 17.076,19.146 17.076,19.146 l 4.658,-16.56 c 0,0 11.385,0.518 12.42,3.106 -1.553,3.103 -2.07,7.243 -2.07,7.243 0,0 7.76,0.518 8.28,1.552 0.516,1.035 -2.07,9.83 -2.07,9.83 l 33.116,7.763 c 0,0 2.587,-12.936 5.175,-11.384 2.588,1.554 13.972,17.595 30.013,18.63 16.041,1.035 17.076,-13.455 17.076,-13.455 l 3.62,2.07 c 0,0 6.728,-14.487 7.763,-14.487 1.035,0 2.588,2.07 11.384,2.07 2.587,3.104 3.623,10.347 3.623,10.347 0,0 -9.833,9.833 -6.728,17.595 3.105,7.762 3.623,5.69 3.623,5.69 l 71.408,17.077 c 0,0 3.624,5.693 -2.586,8.798 0,0.517 -71.927,-16.56 -71.927,-16.56 0,0 -6.728,7.762 -11.902,6.21 -5.174,-1.552 -1.552,3.105 -1.552,3.105 l 77.618,6.21 c 0,0 5.692,7.244 1.552,9.314 -5.174,0.517 -83.827,-5.174 -83.827,-5.174 0,0 -4.66,9.83 -9.833,1.552 -3.62,5.69 -7.762,-1.552 -7.762,-1.552 0,0 -6.726,5.174 -7.762,-0.52 -5.692,4.14 -9.314,-2.585 -9.314,-2.585 l -33.118,-2.07 -2.07,3.104 c 0,0 5.692,1.55 -3.105,5.174 -8.796,3.622 52.78,2.07 54.333,2.587 1.552,0.52 -4.14,5.176 -4.14,5.176 0,0 31.566,2.07 37.257,-4.657 5.692,-6.73 -2.07,8.795 -2.07,8.795 0,0 24.84,-1.034 24.84,-2.07 0,-1.036 -0.52,7.763 -17.595,6.727 10.35,6.728 23.285,10.867 23.285,10.867 0,0 -12.936,3.104 -27.942,-0.518 2.586,6.727 13.972,12.936 13.972,12.936 0,0 -8.28,7.245 -26.91,-10.35 5.176,9.315 1.036,12.938 0.52,11.902 -0.52,-1.035 -9.315,-13.97 -30.013,-18.628 12.936,8.28 7.243,11.902 7.243,11.902 0,0 -6.726,-11.902 -17.593,0 -4.14,-10.867 -20.18,-17.076 -39.844,-18.112 -6.21,-7.243 -9.83,-5.174 -24.32,-9.314 -8.28,-9.313 -20.18,-19.663 -20.18,-19.663 0,0 0.517,-13.97 14.488,-12.42 1.552,4.658 1.552,3.106 1.552,3.106 0,0 15.524,-5.692 20.18,2.07 6.728,-11.902 16.042,-1.78 17.595,2.36 4.458,0.654 26.907,1.262 26.907,1.262 0,0 -2.588,-4.657 -1.035,-4.14 1.552,0.518 13.97,-4.656 13.454,-6.208 -0.517,-1.553 -1.034,-6.727 1.035,-6.21 2.07,0.517 -17.593,-2.588 -28.46,5.693 -3.622,-3.623 -1.035,-13.455 -1.035,-13.455 l -32.08,-6.726 -1.554,8.28 c 0,0 -9.314,1.55 -8.796,-0.518 0.517,-2.07 -2.07,7.243 -2.07,7.243 0,0 -12.42,-3.104 -12.42,-3.62 0,-0.516 3.623,-18.63 3.623,-18.112 0,0.518 -10.35,1.035 -24.838,11.902 -4.14,-12.936 -36.74,-30.012 -36.74,-30.53 z"
         id="path15"
         inkscape:connector-curvature="0"
         style="fill:#ffc221;fill-rule:evenodd;stroke-width:1.87800002" />
      <path
         d="m 385.98,284.763 -6.727,30.013 m 12.935,-18.63 -2.07,9.83 m 35.189,-2.068 -3.105,9.314 m 60.546,53.808 c -0.517,0 -16.558,2.07 -18.63,1.554 -2.068,-0.517 25.357,8.28 25.357,11.9 m -35.705,-9.818 c 0,0 -16.04,-10.348 -18.628,-9.314 -2.587,1.035 16.04,-0.517 17.594,-2.07 m -32.086,-0.52 c 0,0 -16.558,0.517 -18.11,-1.035 -1.552,-1.552 16.04,11.384 19.145,10.35 m -33.118,-16.569 c -0.518,0 -11.385,-4.14 -16.04,-5.176 4.138,4.14 7.243,9.833 17.592,11.902 m 2.588,-13.446 c -0.518,-1.035 -20.698,-7.245 -20.698,-10.35 4.656,1.553 11.383,3.622 17.592,2.07 m 110.221,-15.528 -2.07,9.314"
         id="path17"
         inkscape:connector-curvature="0"
         style="fill:none;stroke-width:1.87800002" />
      <path
         d="m 347.688,237.67 c 0,0 -21.734,18.628 0,29.494 1.034,-7.244 2.587,-8.278 2.587,-8.278 0,0 18.11,6.726 28.977,-9.315 -4.657,-6.725 -12.937,-4.138 -12.937,-4.138 0,0 -17.076,0 -18.628,-7.76 z"
         id="path19"
         inkscape:connector-curvature="0"
         style="fill:#ffc221;fill-rule:evenodd;stroke-width:1.87800002" />
      <path
         d="m 365.8,245.954 -15.006,12.936 m 61.222,76.91 c 0,0 3.46,3.814 0.354,8.47 m 72.45,-4.652 -5.692,0.52 m -40.881,-3.633 10.35,1.552 m 17.486,-28.162 c 0,0 0.29,10.46 -8.427,10.17 -8.717,-0.29 -5.812,0.29 -5.812,0.29"
         id="path21"
         inkscape:connector-curvature="0"
         style="fill:none;stroke-width:1.87800002" />
      <path
         d="m 472.774,308.148 c 0,0 3.487,1.162 2.616,3.778 -0.872,2.614 0.87,10.17 -9.298,17.434 -10.753,2.324 -9.59,-9.007 -9.59,-9.007"
         id="path23"
         inkscape:connector-curvature="0"
         style="fill:none;stroke-width:1.87800002" />
      <path
         d="m 476.55,311.346 c 0,0 6.392,-3.777 7.264,2.325 0.87,6.102 -5.23,17.435 -9.59,19.18 -4.358,1.742 -9.297,-0.292 -8.717,-3.197 m 18.889,-15.688 c 0,0 5.813,-4.65 7.555,1.452 1.745,6.103 -4.648,19.76 -7.264,20.05 m 7.837,-20.051 c 0,0 2.907,-1.453 4.94,0.29 m -14.237,20.629 c -1.162,0.29 -6.102,0.58 -7.845,-3.196 m -18.3,-6.975 c -0.29,0 -6.102,0.292 -6.102,0.292 m 28.472,22.67 -0.58,-9.59 -2.325,-3.195 -4.068,4.068 c 0,0 -0.583,9.59 -2.326,10.46 m 2.327,-10.76 c -0.292,-0.58 -3.198,-6.1 -3.198,-6.1 l -4.94,6.1 c 0,0 -0.58,8.72 -2.324,9.592 m 2.318,-9.887 c 0,-0.29 -2.034,-5.81 -2.034,-5.81 0,0 -5.81,3.196 -6.392,5.52 -0.58,2.325 -0.872,8.717 -2.325,9.3 m 2.327,-10.461 c 0,0 0.582,-5.23 -1.162,-5.23 -1.742,0 -9.59,7.265 -9.88,13.657"
         id="path25"
         inkscape:connector-curvature="0"
         style="fill:none;stroke-width:1.87800002" />
      <path
         d="m 348.402,237.825 c 0,0 2.905,-2.906 3.777,-6.392 0.87,-3.487 -1.163,-7.265 2.324,-10.46 3.487,-3.198 49.397,-22.666 53.176,-26.444 3.777,-3.778 10.75,-11.914 11.623,-13.658 0.87,-1.743 3.487,8.717 -4.36,13.367 8.428,-2.326 13.95,-4.94 17.435,-3.78 -3.487,4.94 -12.785,13.078 -17.144,13.078 10.17,-3.778 19.47,-6.975 22.084,-4.94 2.615,2.034 -12.495,12.204 -18.597,12.785 10.17,-2.615 23.83,-6.683 25.572,-2.325 -5.52,1.744 -3.78,3.195 -15.11,9.59 -1.453,1.163 -8.717,1.452 -8.717,1.452 8.717,-0.872 20.63,-4.36 21.792,2.034 -6.973,2.615 -9.588,6.102 -15.4,7.555 -5.81,1.453 -19.178,4.067 -27.315,7.264 -8.136,3.196 -20.05,12.495 -20.05,12.495 0,0 -25.86,0.87 -25.86,0.58 0,-0.29 -4.94,-11.914 -5.23,-12.205 z"
         id="path27"
         inkscape:connector-curvature="0"
         style="fill:#ffffff;fill-rule:evenodd;stroke-width:1.87800002;stroke-linejoin:round" />
      <path
         d="m 360.605,235.797 c 0,0 0.29,-5.81 2.906,-7.845 2.616,-2.034 15.693,-6.975 18.6,-11.333 2.904,-4.36 -4.36,7.554 -3.198,10.75 m -13.077,-0.292 c 0,0 6.393,2.326 4.94,7.265"
         id="path29"
         inkscape:connector-curvature="0"
         style="fill:none;stroke-width:1.87800002" />
      <path
         d="m 373.39,230.422 a 4.795,4.795 0 1 1 -9.59,0.001 4.7955,4.7955 0 0 1 9.591,-0.001 z"
         id="path31"
         inkscape:connector-curvature="0"
         style="fill:none;stroke-width:1.63100004" />
      <path
         d="m 570.116,220.104 50.27,9.59 c 0,0 5.52,-6.394 2.615,-9.88 7.556,-1.743 5.522,-11.623 5.522,-11.623 0,0 8.717,-3.776 1.452,-12.495 4.942,-4.94 -1.162,-8.717 -1.162,-8.717 0,0 2.034,-8.717 -4.36,-9.59 1.745,-6.972 -11.04,-9.297 -11.04,-9.297 0,0 -26.443,7.265 -45.04,7.847 6.102,6.102 -2.325,9.88 -2.325,9.88 0,0 4.94,3.486 3.487,6.392 -1.453,2.905 0.872,6.1 -5.52,8.136 8.426,3.778 -0.873,10.17 -0.873,10.17 0,0 9.3,6.392 6.976,9.588 z"
         id="path33"
         inkscape:connector-curvature="0"
         style="fill:#ffffff;fill-rule:evenodd;stroke-width:1.87800002" />
      <path
         d="m 565.17,209.356 c 0,0 44.46,5.23 46.494,5.23 2.034,0 9.88,2.616 11.333,5.23 m -55.502,-13.081 61.893,1.453 m -61.598,-2.903 c 0,0 58.698,-3.487 62.766,-9.59 M 569.524,192.5 c 0,0 58.988,-6.394 59.57,-5.522 m -61.599,-1.744 c 0,0 57.244,-9.007 57.825,-7.555 M 404.193,148.332 c 0,0 18.016,19.76 16.272,33.126"
         id="path35"
         inkscape:connector-curvature="0"
         style="fill:none;stroke-width:1.87800002" />
      <path
         d="m 419.303,170.997 c 0,0 5.81,8.426 8.136,9.298 2.326,0.872 22.665,2.034 23.827,10.752 1.162,5.52 -4.358,3.777 -3.486,7.845 1.453,5.23 15.11,11.913 29.93,4.068 m -13.655,4.07 c 0,0 12.203,18.017 30.22,-1.45 m -9.301,7.847 c 0,0 14.82,7.845 27.023,-12.495 M 496.3,215.16 c 0,0 7.264,6.102 22.376,-2.033 m 20.927,-8.137 c 0,0 22.375,4.647 23.828,6.1 m -15.404,-11.032 c 0.29,0 15.692,0.582 15.692,0.582 m -25.285,-9.303 c 0,0 26.733,-1.743 30.22,3.778 M 526.812,182.91 c 0,0 37.486,1.453 39.228,3.487 m -30.804,34.863 c 0,0 6.393,-1.743 7.265,-0.87 m -21.788,16.562 c 0,0 8.426,7.265 19.18,4.068 m -14.533,8.146 c 0,0 9.59,4.358 20.923,1.742 m -17.723,5.512 c 0,0 9.588,6.393 15.98,5.23 m -20.334,-1.44 c 0,0 6.683,4.94 6.973,7.555 m -16.269,-1.751 c 0,0 2.033,10.46 9.298,14.237 m -14.244,-9.589 c 0,0 -3.196,13.658 4.94,22.084 M 501.54,281.41 c 0,0.29 -0.58,6.393 -0.29,6.975 m -52.015,-59.857 15.692,-0.872 c 0,0 5.81,-2.324 1.742,-6.1 m 2.034,3.494 c 0.292,0 14.82,1.16 18.598,5.52 3.778,4.358 8.428,13.075 11.042,14.53 2.616,1.45 3.197,-0.583 3.197,-0.583 m -6.395,-2.325 c 0,0 -7.845,13.368 -1.743,17.436 m -2.624,-2.616 c 0,0 -6.973,9.3 -1.453,13.948 m -1.449,-1.17 c 0,0 -5.52,9.008 1.163,15.11 m -3.599,-39.003 c -0.376,0.375 -6.75,4.874 -9,3.75 m 2.25,10.493 c 0,0 2.625,2.624 4.875,2.25 m -4.565,11.386 4.19,2.872 m -3.626,7.566 3.624,2.186 M 413.933,141.7 c 0,0 7.64,3.974 13.75,0 6.112,-3.97 35.446,-18.943 43.085,-21.388 7.638,-2.445 11.917,-16.5 13.445,-22.61 m -5.803,16.498 42.78,-12.527 c 0,0 7.027,-5.806 7.332,-16.5 m -3.062,11.611 c 0,0 42.778,-4.278 42.778,-20.167 m -6.715,10.999 c 0,0 44.917,-12.223 49.197,-16.806"
         id="path37"
         inkscape:connector-curvature="0"
         style="fill:none;stroke-width:1.87800002" />
      <path
         d="m 436.233,151.48 c 0,0 27.195,-14.057 31.473,-15.584 4.277,-1.528 14.055,-13.75 -0.61,-13.75"
         id="path39"
         inkscape:connector-curvature="0"
         style="fill:none;stroke-width:1.87800002" />
      <path
         d="m 449.376,156.98 c 0.306,0 22.305,-14.363 29.64,-16.196 3.972,-5.5 1.833,-11.305 -4.89,-10.083"
         id="path41"
         inkscape:connector-curvature="0"
         style="fill:none;stroke-width:1.87800002" />
      <path
         d="m 480.846,137.118 c 0.612,-0.306 11.918,-0.612 7.945,8.25 -5.802,4.278 -30.86,16.806 -30.86,16.806 m 17.111,-34.529 47.67,-15.89 c 0,0 3.973,-8.25 -1.832,-9.472 M 560.607,87.92 c 0,0.307 6.112,3.668 2.445,9.168 -6.722,3.973 -38.5,11.612 -38.5,11.612 M 608.883,83.033 563.965,95.56 m 41.551,-2.443 -39.11,11.917 m 35.758,-2.139 -34.53,10.39 m 28.106,-0.613 c -0.917,0 -25.667,7.64 -25.667,7.64 m 20.173,0 -15.89,6.417 m 11.917,2.138 c -0.61,0 -13.75,5.805 -13.75,5.805 m 9.777,1.223 -12.22,5.805 m -8.867,7.335 c 0,0 1.528,0.61 1.222,2.445 m -32.087,14.36 c 0,0 5.195,1.834 0.306,6.723 -2.444,3.36 -9.472,2.445 -13.75,8.556 m 46.76,-83.724 c 0,0 6.418,1.528 1.528,9.778 -12.834,4.89 -38.807,12.833 -38.807,12.833 0,0 -1.22,2.14 -4.582,3.973 -3.36,1.832 -40.334,12.22 -40.334,12.22 m 84.336,-29.332 c 0,0 7.028,3.056 0,8.25 -7.945,4.584 -35.75,13.14 -35.75,13.14 0,0 -0.307,2.444 -1.528,3.36 -1.223,0.917 -37.89,13.14 -37.89,13.14"
         id="path43"
         inkscape:connector-curvature="0"
         style="fill:none;stroke-width:1.87800002" />
      <path
         d="m 567.636,115.116 c 0,0 7.334,2.14 0.917,8.25 -7.64,4.584 -32.084,12.834 -32.084,12.834 0,0 -2.445,3.056 -6.418,4.278 -3.972,1.222 -29.333,11.61 -29.333,11.61 m 68.75,-28.721 c 2.14,0.917 7.945,1.834 0.917,7.334 -8.25,3.667 -28.417,11.612 -28.417,11.612 l -1.834,3.36 -32.083,13.75 M 571.3,131.618 c 0,0 3.054,3.667 -3.668,7.945 -7.334,3.972 -23.222,10.083 -23.222,10.083 m 23.226,-9.473 c 0,0 3.36,2.14 -0.915,5.195 -4.89,2.444 -24.14,12.528 -24.14,12.528 l -12.528,8.25"
         id="path45"
         inkscape:connector-curvature="0"
         style="fill:none;stroke-width:1.87800002" />
      <path
         d="m 523.63,112.06 c 0,0.307 5.194,4.584 3.36,9.473 4.584,3.362 3.667,7.028 3.667,7.028 0,0 6.416,3.668 5.5,8.863 6.417,1.528 6.11,5.194 6.11,5.194 l -2.138,3.36 c 0,0 6.415,-0.304 0.916,7.946 3.36,1.833 1.834,3.972 1.834,3.972 m -1.839,-3.666 c -0.917,0 -22.305,7.944 -27.806,12.833"
         id="path47"
         inkscape:connector-curvature="0"
         style="fill:none;stroke-width:1.87800002" />
      <path
         d="m 489.41,144.757 c 0,0 6.418,-0.306 5.502,6.722 7.334,-2.445 5.805,4.583 5.805,4.583 0,0 8.555,-3.362 7.028,7.333 5.5,-1.222 4.583,4.278 4.583,4.278 0,0 4.89,-0.306 4.89,2.444 3.36,-3.055 7.028,-1.527 7.028,-1.527 0,0 2.444,-3.36 5.805,-2.444 m -34.836,-14.972 c 0,0.61 -28.723,16.5 -28.723,16.5 m 34.218,-11.307 -21.696,13.445 m 29.034,-6.722 c 0,0.305 -18.945,11.306 -18.945,11.306 m 23.227,-7.028 c 0,0 -13.444,11 -16.5,10.39 m 21.08,-7.028 c 0,0 -7.64,5.805 -14.057,8.555 m 22.001,-11 c 0,0 2.444,3.056 -12.833,11"
         id="path49"
         inkscape:connector-curvature="0"
         style="fill:none;stroke-width:1.87800002" />
    </g>
  </g>
</svg>
