<?xml version="1.0" encoding="UTF-8" standalone="no"?>
<svg
   xmlns:dc="http://purl.org/dc/elements/1.1/"
   xmlns:cc="http://creativecommons.org/ns#"
   xmlns:rdf="http://www.w3.org/1999/02/22-rdf-syntax-ns#"
   xmlns:svg="http://www.w3.org/2000/svg"
   xmlns="http://www.w3.org/2000/svg"
   xmlns:sodipodi="http://sodipodi.sourceforge.net/DTD/sodipodi-0.dtd"
   xmlns:inkscape="http://www.inkscape.org/namespaces/inkscape"
   height="15.999998"
   width="21.333332"
   viewBox="0 0 21.333332 15.999998"
   version="1.1"
   id="svg70"
   sodipodi:docname="br.svg"
   inkscape:version="0.92.1 r">
  <metadata
     id="metadata76">
    <rdf:RDF>
      <cc:Work
         rdf:about="">
        <dc:format>image/svg+xml</dc:format>
        <dc:type
           rdf:resource="http://purl.org/dc/dcmitype/StillImage" />
        <dc:title></dc:title>
      </cc:Work>
    </rdf:RDF>
  </metadata>
  <defs
     id="defs74" />
  <sodipodi:namedview
     pagecolor="#ffffff"
     bordercolor="#666666"
     borderopacity="1"
     objecttolerance="10"
     gridtolerance="10"
     guidetolerance="10"
     inkscape:pageopacity="0"
     inkscape:pageshadow="2"
     inkscape:window-width="1920"
     inkscape:window-height="1024"
     id="namedview72"
     showgrid="false"
     inkscape:zoom="0.49166667"
     inkscape:cx="320"
     inkscape:cy="240"
     inkscape:window-x="0"
     inkscape:window-y="0"
     inkscape:window-maximized="1"
     inkscape:current-layer="svg70"
     fit-margin-top="0"
     fit-margin-left="0"
     fit-margin-right="0"
     fit-margin-bottom="0" />
  <g
     id="g68"
     transform="scale(0.03333333)"
     style="stroke-width:1.00000003pt">
    <path
       d="M 0,0 H 640 V 480 H 0 Z"
       id="path2"
       inkscape:connector-curvature="0"
       style="fill:#229e45;fill-rule:evenodd" />
    <path
       d="M 321.406,435.935 622.889,240.265 319.581,44.065 17.11,240.734 l 304.296,195.2 z"
       id="path4"
       inkscape:connector-curvature="0"
       style="fill:#f8e509;fill-rule:evenodd" />
    <path
       d="m 452.77,240.005 c 0,70.328 -57.103,127.34 -127.544,127.34 -70.442,0 -127.544,-57.012 -127.544,-127.34 0,-70.328 57.104,-127.34 127.544,-127.34 70.442,0 127.545,57.012 127.545,127.34 z"
       id="path6"
       inkscape:connector-curvature="0"
       style="fill:#2b49a3;fill-rule:evenodd" />
    <path
       d="m 283.3,316.274 -3.943,-2.274 -4.093,2.025 0.917,-4.55 -3.162,-3.332 4.52,-0.53 2.124,-4.08 1.894,4.22 4.46,0.81 -3.345,3.13 m 86.098,26.224 -3.94,-2.274 -4.092,2.025 0.916,-4.55 -3.16,-3.332 4.52,-0.53 2.122,-4.08 1.894,4.22 4.46,0.81 -3.345,3.13 m -36.215,-29.993 -3.404,-1.964 -3.536,1.748 0.792,-3.93 -2.73,-2.88 3.904,-0.457 1.834,-3.523 1.636,3.645 3.853,0.7 -2.89,2.705 m 86.865,-8.477 -3.342,-1.928 -3.472,1.718 0.777,-3.858 -2.68,-2.827 3.833,-0.45 1.8,-3.46 1.607,3.58 3.783,0.686 -2.837,2.657 m -87.353,-21.998 -3.94,-2.273 -4.093,2.025 0.916,-4.55 -3.162,-3.332 4.522,-0.53 2.123,-4.08 1.894,4.22 4.46,0.81 -3.346,3.13 m -104.614,-34.93 -3.94,-2.274 -4.094,2.025 0.916,-4.548 -3.16,-3.333 4.52,-0.53 2.122,-4.08 1.894,4.22 4.46,0.81 -3.345,3.13 m 13.283,57.14 -3.94,-2.275 -4.094,2.025 0.916,-4.548 -3.16,-3.334 4.52,-0.53 2.123,-4.08 1.894,4.22 4.46,0.81 -3.345,3.132 m 131.954,-67.33 -3.48,-2.007 -3.616,1.788 0.81,-4.017 -2.794,-2.944 3.994,-0.47 1.875,-3.603 1.673,3.728 3.94,0.715 -2.955,2.766 m -6.665,38.24 -2.74,-1.582 -2.85,1.408 0.64,-3.164 -2.2,-2.32 3.145,-0.368 1.477,-2.838 1.318,2.936 3.103,0.563 -2.327,2.18 m -142.199,50.422 -2.63,-1.518 -2.734,1.352 0.61,-3.037 -2.11,-2.225 3.02,-0.354 1.416,-2.723 1.264,2.818 2.978,0.54 -2.233,2.09 m 200.14,15.164 -2.144,-1.135 -2.227,1.01 0.5,-2.27 -1.72,-1.666 2.46,-0.265 1.154,-2.038 1.03,2.108 2.426,0.404 -1.82,1.563"
       id="path8"
       inkscape:connector-curvature="0"
       style="fill:#ffffef;fill-rule:evenodd" />
    <path
       d="m 219.263,287.603 -2.63,-1.518 -2.734,1.352 0.61,-3.037 -2.11,-2.225 3.02,-0.354 1.416,-2.723 1.264,2.818 2.978,0.54 -2.233,2.09"
       id="path10"
       inkscape:connector-curvature="0"
       style="fill:#ffffef;fill-rule:evenodd" />
    <path
       d="m 219.263,287.603 -2.63,-1.518 -2.734,1.352 0.61,-3.037 -2.11,-2.225 3.02,-0.354 1.416,-2.723 1.264,2.818 2.978,0.54 -2.233,2.09 m 42.299,3.048 -2.63,-1.52 -2.733,1.353 0.61,-3.037 -2.11,-2.225 3.02,-0.354 1.416,-2.722 1.265,2.817 2.978,0.54 -2.233,2.09 m -4.786,16.989 -2.63,-1.518 -2.734,1.352 0.612,-3.038 -2.11,-2.225 3.017,-0.354 1.417,-2.724 1.265,2.817 2.977,0.54 -2.233,2.09 m 87.381,-22.301 -2.63,-1.52 -2.733,1.353 0.61,-3.036 -2.11,-2.225 3.018,-0.353 1.417,-2.724 1.265,2.817 2.977,0.54 -2.233,2.09 m -25.099,3.048 -2.63,-1.518 -2.734,1.352 0.612,-3.037 -2.11,-2.225 3.018,-0.353 1.417,-2.724 1.264,2.817 2.98,0.54 -2.234,2.09 m -68.8,-5.838 -1.648,-0.952 -1.714,0.847 0.384,-1.902 -1.323,-1.394 1.89,-0.222 0.89,-1.706 0.792,1.765 1.864,0.34 -1.4,1.31 m 167.838,45.384 -2.63,-1.518 -2.733,1.35 0.612,-3.035 -2.11,-2.226 3.017,-0.354 1.417,-2.724 1.264,2.817 2.978,0.54 -2.233,2.09 m -20.832,5.844 -2.178,-1.26 -2.264,1.122 0.507,-2.522 -1.748,-1.848 2.5,-0.294 1.174,-2.262 1.048,2.34 2.466,0.45 -1.85,1.735 m 10.371,2.297 -2.03,-1.173 -2.108,1.044 0.472,-2.344 -1.63,-1.718 2.33,-0.274 1.093,-2.103 0.976,2.177 2.296,0.417 -1.723,1.615 m 29.11,-22.761 -1.955,-1.13 -2.03,1.006 0.454,-2.257 -1.567,-1.655 2.243,-0.262 1.053,-2.024 0.94,2.092 2.21,0.402 -1.658,1.553 m -38.752,41.815 -2.554,-1.395 -2.652,1.24 0.594,-2.786 -2.05,-2.043 2.93,-0.325 1.376,-2.5 1.227,2.586 2.89,0.496 -2.167,1.92 m 0.549,14.247 -2.33,-1.395 -2.418,1.24 0.542,-2.786 -1.87,-2.044 2.673,-0.324 1.255,-2.5 1.12,2.586 2.635,0.496 -1.977,1.918 m -18.929,-23.055 -1.955,-1.13 -2.032,1.006 0.455,-2.257 -1.568,-1.653 2.242,-0.263 1.054,-2.025 0.94,2.093 2.213,0.402 -1.66,1.554 m -17.781,2.273 -1.954,-1.13 -2.03,1.006 0.454,-2.257 -1.57,-1.653 2.244,-0.263 1.053,-2.025 0.94,2.093 2.21,0.402 -1.658,1.554 m -30.408,-24.59 -1.955,-1.128 -2.03,1.004 0.454,-2.257 -1.568,-1.654 2.243,-0.264 1.053,-2.024 0.94,2.094 2.212,0.402 -1.66,1.553 m 3.734,57.024 -1.656,-0.956 -1.72,0.85 0.386,-1.91 -1.33,-1.4 1.9,-0.223 0.893,-1.715 0.795,1.772 1.874,0.34 -1.407,1.316 m -46.131,-86.63 -3.942,-2.274 -4.093,2.025 0.917,-4.548 -3.162,-3.334 4.52,-0.53 2.124,-4.08 1.894,4.22 4.46,0.81 -3.345,3.132"
       id="path12"
       inkscape:connector-curvature="0"
       style="fill:#ffffef;fill-rule:evenodd" />
    <path
       d="m 444.368,285.817 c 1.944,-5.083 4.45,-12.75 5.783,-19.786 -67.742,-59.508 -143.26,-89.993 -238.68,-83.72 -3.422,6.558 -6.16,13.423 -8.47,20.853 113.063,-10.786 195.936,39.27 241.37,82.654 z"
       id="path14"
       inkscape:connector-curvature="0"
       style="fill:#ffffff;fill-rule:evenodd" />
    <path
       d="m 413.914,252.36 2.42,1.323 c -0.38,0.858 -0.48,1.61 -0.31,2.25 0.18,0.645 0.625,1.208 1.335,1.688 0.75,0.515 1.424,0.74 2.016,0.68 0.6,-0.06 1.045,-0.306 1.335,-0.734 a 1.27,1.27 0 0 0 0.225,-0.863 c -0.027,-0.3 -0.192,-0.66 -0.495,-1.075 -0.21,-0.28 -0.72,-0.873 -1.53,-1.777 -1.04,-1.16 -1.66,-2.138 -1.86,-2.936 -0.28,-1.122 -0.11,-2.14 0.51,-3.06 0.4,-0.59 0.936,-1.03 1.612,-1.318 0.686,-0.29 1.433,-0.355 2.24,-0.198 0.81,0.157 1.664,0.54 2.55,1.143 1.453,0.987 2.33,2.048 2.63,3.184 0.305,1.138 0.117,2.253 -0.565,3.345 l -2.404,-1.484 c 0.3,-0.665 0.375,-1.24 0.218,-1.723 -0.147,-0.485 -0.55,-0.95 -1.21,-1.397 -0.676,-0.46 -1.302,-0.682 -1.874,-0.663 a 1.01,1.01 0 0 0 -0.856,0.468 c -0.186,0.277 -0.228,0.59 -0.13,0.943 0.13,0.45 0.668,1.193 1.625,2.234 0.953,1.04 1.604,1.89 1.95,2.547 0.355,0.657 0.516,1.34 0.482,2.05 -0.023,0.706 -0.284,1.427 -0.778,2.16 a 4.11,4.11 0 0 1 -1.812,1.493 c -0.76,0.33 -1.57,0.412 -2.437,0.24 -0.86,-0.177 -1.794,-0.607 -2.798,-1.29 -1.462,-0.992 -2.36,-2.093 -2.687,-3.3 -0.322,-1.213 -0.125,-2.523 0.6,-3.925 z m -11.478,-7.533 2.472,1.22 c -0.345,0.872 -0.417,1.628 -0.22,2.26 0.208,0.637 0.672,1.183 1.4,1.635 0.775,0.482 1.455,0.68 2.043,0.596 0.6,-0.086 1.037,-0.346 1.306,-0.786 a 1.25,1.25 0 0 0 0.19,-0.87 c -0.038,-0.302 -0.218,-0.655 -0.54,-1.058 -0.22,-0.272 -0.75,-0.84 -1.597,-1.713 -1.087,-1.117 -1.746,-2.07 -1.978,-2.86 -0.323,-1.11 -0.194,-2.133 0.385,-3.077 a 3.619,3.619 0 0 1 1.56,-1.38 c 0.674,-0.316 1.42,-0.413 2.23,-0.29 0.818,0.127 1.685,0.473 2.595,1.04 1.492,0.926 2.408,1.952 2.753,3.074 0.35,1.126 0.21,2.247 -0.427,3.365 l -2.464,-1.385 c 0.275,-0.676 0.327,-1.252 0.15,-1.728 -0.168,-0.482 -0.59,-0.93 -1.264,-1.35 -0.697,-0.433 -1.33,-0.628 -1.9,-0.586 -0.37,0.025 -0.647,0.195 -0.838,0.504 -0.172,0.282 -0.204,0.594 -0.09,0.944 0.145,0.443 0.714,1.165 1.71,2.168 0.994,1 1.68,1.822 2.052,2.465 0.38,0.64 0.568,1.318 0.563,2.027 0.007,0.708 -0.227,1.437 -0.69,2.193 a 4.158,4.158 0 0 1 -1.75,1.565 c -0.746,0.36 -1.556,0.474 -2.427,0.336 -0.865,-0.14 -1.815,-0.536 -2.848,-1.175 -1.498,-0.933 -2.438,-1.996 -2.815,-3.19 -0.374,-1.2 -0.23,-2.514 0.438,-3.943 z m -14.206,-3.807 7.276,-11.966 8.837,5.416 -1.23,2.026 -6.43,-3.942 -1.615,2.652 5.983,3.668 -1.225,2.015 -5.984,-3.667 -1.977,3.256 6.657,4.08 -1.228,2.017 -9.063,-5.557 z m -20.692,-16.993 1.08,-2.1 5.4,2.796 -2.546,4.962 c -0.79,0.238 -1.78,0.296 -2.982,0.17 a 9.355,9.355 0 0 1 -3.317,-0.986 c -1.3,-0.673 -2.29,-1.528 -2.976,-2.572 a 5.911,5.911 0 0 1 -0.974,-3.47 8.61,8.61 0 0 1 0.977,-3.703 c 0.664,-1.298 1.53,-2.31 2.59,-3.04 1.057,-0.727 2.25,-1.09 3.57,-1.09 1.008,-0.002 2.104,0.306 3.29,0.916 1.542,0.8 2.577,1.747 3.104,2.846 0.54,1.096 0.638,2.28 0.298,3.555 l -2.728,-0.82 c 0.14,-0.702 0.057,-1.356 -0.25,-1.957 -0.296,-0.606 -0.806,-1.095 -1.527,-1.47 -1.097,-0.567 -2.146,-0.67 -3.155,-0.305 -1,0.363 -1.85,1.23 -2.554,2.6 -0.76,1.48 -1.005,2.76 -0.73,3.842 0.277,1.073 0.944,1.886 2.008,2.437 0.524,0.27 1.1,0.44 1.73,0.507 0.64,0.066 1.22,0.05 1.753,-0.05 l 0.81,-1.582 -2.872,-1.485 z m -90.242,-22.379 2.034,-13.867 4.172,0.62 1.123,9.826 3.86,-9.093 4.188,0.618 -2.033,13.87 -2.59,-0.382 1.6,-10.918 -4.343,10.512 -2.685,-0.398 -1.134,-11.32 -1.6,10.915 -2.592,-0.382 z m -14.108,-1.638 1.305,-13.96 10.307,0.974 -0.217,2.36 -7.503,-0.706 -0.29,3.095 6.978,0.657 -0.22,2.352 -6.98,-0.658 -0.353,3.8 7.764,0.73 -0.22,2.354 -10.572,-0.998 z"
       id="path16"
       inkscape:connector-curvature="0"
       style="fill:#309e3a" />
    <g
       id="g22"
       style="stroke-opacity:0.50199998">
      <path
         d="m 216.5,191.28 c 0.04,-1.43 0.284,-2.62 0.736,-3.58 a 6.649,6.649 0 0 1 1.346,-1.884 c 0.566,-0.552 1.18,-0.956 1.844,-1.21 0.88,-0.347 1.888,-0.505 3.023,-0.475 2.056,0.06 3.682,0.744 4.877,2.057 1.205,1.315 1.775,3.114 1.714,5.395 -0.06,2.26 -0.72,4.017 -1.982,5.264 -1.26,1.24 -2.914,1.834 -4.963,1.777 -2.077,-0.056 -3.708,-0.736 -4.9,-2.037 -1.19,-1.308 -1.755,-3.078 -1.694,-5.307 z"
         id="path18"
         inkscape:connector-curvature="0"
         style="fill:#309e3a" />
      <path
         d="m 219.414,191.252 c -0.043,1.586 0.29,2.8 0.997,3.643 0.708,0.837 1.625,1.27 2.748,1.3 1.122,0.03 2.055,-0.35 2.794,-1.138 0.745,-0.797 1.14,-2.007 1.184,-3.633 0.043,-1.605 -0.277,-2.813 -0.96,-3.622 -0.676,-0.81 -1.595,-1.23 -2.757,-1.262 -1.162,-0.03 -2.11,0.345 -2.843,1.128 -0.733,0.777 -1.12,1.972 -1.163,3.584 z"
         id="path20"
         inkscape:connector-curvature="0"
         style="fill:#f7ffff" />
    </g>
    <g
       id="g28"
       style="stroke-opacity:0.50199998">
      <path
         d="m 233.052,198.51 0.163,-14.017 5.933,0.07 c 1.494,0.018 2.574,0.157 3.244,0.42 0.677,0.257 1.214,0.71 1.613,1.36 0.399,0.65 0.593,1.385 0.584,2.215 -0.013,1.052 -0.332,1.918 -0.956,2.598 -0.623,0.675 -1.55,1.095 -2.777,1.26 0.605,0.363 1.104,0.76 1.49,1.193 0.397,0.43 0.923,1.195 1.585,2.293 l 1.673,2.754 -3.372,-0.04 -2.002,-3.074 c -0.71,-1.098 -1.198,-1.788 -1.46,-2.072 -0.265,-0.29 -0.545,-0.487 -0.842,-0.593 -0.297,-0.11 -0.77,-0.17 -1.418,-0.177 l -0.57,-0.008 -0.068,5.852 -2.82,-0.033 z"
         id="path24"
         inkscape:connector-curvature="0"
         style="fill:#309e3a" />
      <path
         d="m 235.976,190.455 2.086,0.024 c 1.353,0.016 2.198,-0.03 2.536,-0.142 0.337,-0.112 0.603,-0.305 0.796,-0.584 0.193,-0.279 0.293,-0.627 0.3,-1.048 0.004,-0.472 -0.118,-0.853 -0.37,-1.142 -0.243,-0.296 -0.594,-0.486 -1.05,-0.567 -0.23,-0.034 -0.915,-0.06 -2.057,-0.072 l -2.2,-0.026 -0.04,3.555 z"
         id="path26"
         inkscape:connector-curvature="0"
         style="fill:#ffffff" />
    </g>
    <g
       id="g34"
       style="stroke-opacity:0.50199998">
      <path
         d="m 249.003,185.188 5.147,0.26 c 1.16,0.06 2.04,0.195 2.64,0.405 a 4.68,4.68 0 0 1 2.036,1.396 c 0.553,0.646 0.958,1.426 1.218,2.34 0.26,0.907 0.356,2.015 0.29,3.326 -0.058,1.153 -0.252,2.138 -0.58,2.96 -0.4,1 -0.938,1.797 -1.618,2.396 -0.51,0.453 -1.19,0.79 -2.034,1.016 -0.632,0.166 -1.468,0.222 -2.51,0.17 l -5.295,-0.27 0.706,-14 z"
         id="path30"
         inkscape:connector-curvature="0"
         style="fill:#309e3a" />
      <path
         d="m 251.706,187.685 -0.468,9.274 2.103,0.105 c 0.786,0.042 1.357,0.025 1.71,-0.046 0.46,-0.093 0.85,-0.268 1.16,-0.526 0.32,-0.26 0.59,-0.695 0.81,-1.31 0.223,-0.62 0.36,-1.47 0.416,-2.553 0.056,-1.083 0,-1.918 -0.16,-2.507 -0.16,-0.59 -0.404,-1.053 -0.73,-1.397 -0.327,-0.342 -0.75,-0.583 -1.27,-0.724 -0.39,-0.11 -1.157,-0.193 -2.306,-0.25 l -1.264,-0.067 z"
         id="path32"
         inkscape:connector-curvature="0"
         style="fill:#ffffff" />
    </g>
    <g
       id="g40"
       style="stroke-opacity:0.50199998">
      <path
         d="m 317.63,210.22 3.26,-13.63 4.4,1.06 c 1.666,0.402 2.737,0.732 3.21,0.99 0.73,0.392 1.274,0.996 1.634,1.81 0.36,0.81 0.41,1.755 0.152,2.84 -0.2,0.836 -0.518,1.504 -0.958,2 -0.438,0.5 -0.932,0.854 -1.48,1.07 -0.54,0.212 -1.064,0.31 -1.57,0.3 -0.685,-0.028 -1.65,-0.19 -2.89,-0.49 l -1.786,-0.432 -1.23,5.142 -2.743,-0.66 z"
         id="path36"
         inkscape:connector-curvature="0"
         style="fill:#309e3a" />
      <path
         d="m 323.086,199.552 -0.926,3.868 1.5,0.362 c 1.082,0.26 1.82,0.364 2.218,0.308 a 1.85,1.85 0 0 0 1.581,-1.448 c 0.12,-0.496 0.073,-0.94 -0.14,-1.33 a 1.94,1.94 0 0 0 -0.957,-0.87 c -0.312,-0.143 -0.96,-0.332 -1.95,-0.57 l -1.324,-0.32 z"
         id="path38"
         inkscape:connector-curvature="0"
         style="fill:#ffffff" />
    </g>
    <g
       id="g46"
       style="stroke-opacity:0.50199998">
      <path
         d="m 330.606,214.106 4.64,-13.22 5.598,1.98 c 1.408,0.498 2.387,0.98 2.937,1.445 0.56,0.463 0.923,1.064 1.093,1.807 0.17,0.743 0.12,1.505 -0.156,2.286 -0.348,0.992 -0.928,1.71 -1.736,2.153 -0.806,0.438 -1.817,0.537 -3.032,0.298 0.457,0.54 0.802,1.076 1.03,1.61 0.238,0.536 0.49,1.43 0.765,2.683 l 0.704,3.15 -3.18,-1.126 -0.913,-3.556 c -0.322,-1.27 -0.562,-2.08 -0.72,-2.435 -0.158,-0.36 -0.36,-0.638 -0.607,-0.834 -0.246,-0.202 -0.673,-0.41 -1.286,-0.627 l -0.536,-0.192 -1.938,5.52 -2.66,-0.942 z"
         id="path42"
         inkscape:connector-curvature="0"
         style="fill:#309e3a" />
      <path
         d="m 335.938,207.426 1.967,0.695 c 1.276,0.452 2.09,0.68 2.445,0.683 0.355,0.005 0.67,-0.093 0.943,-0.295 0.272,-0.2 0.478,-0.5 0.616,-0.896 0.155,-0.445 0.162,-0.845 0.017,-1.2 -0.135,-0.36 -0.408,-0.65 -0.813,-0.876 -0.206,-0.106 -0.847,-0.35 -1.924,-0.73 l -2.075,-0.736 -1.177,3.356 z"
         id="path44"
         inkscape:connector-curvature="0"
         style="fill:#ffffff" />
    </g>
    <g
       id="g52"
       style="stroke-opacity:0.50199998">
      <path
         d="m 347.01,213.6 c 0.424,-1.363 0.982,-2.444 1.673,-3.24 a 6.58,6.58 0 0 1 1.808,-1.45 c 0.696,-0.377 1.397,-0.598 2.102,-0.665 0.94,-0.093 1.953,0.03 3.038,0.37 1.965,0.614 3.344,1.717 4.14,3.308 0.803,1.593 0.867,3.48 0.19,5.658 -0.67,2.162 -1.78,3.67 -3.33,4.528 -1.548,0.852 -3.302,0.97 -5.26,0.357 -1.982,-0.62 -3.37,-1.718 -4.164,-3.294 -0.793,-1.583 -0.858,-3.44 -0.196,-5.57 z"
         id="path48"
         inkscape:connector-curvature="0"
         style="fill:#309e3a" />
      <path
         d="m 349.826,214.385 c -0.47,1.514 -0.48,2.773 -0.026,3.778 0.455,0.996 1.22,1.663 2.293,2 1.073,0.334 2.07,0.223 2.996,-0.336 0.932,-0.562 1.64,-1.62 2.122,-3.172 0.476,-1.535 0.495,-2.783 0.056,-3.75 -0.432,-0.962 -1.204,-1.618 -2.313,-1.964 -1.11,-0.347 -2.123,-0.243 -3.04,0.312 -0.915,0.548 -1.61,1.592 -2.09,3.133 z"
         id="path50"
         inkscape:connector-curvature="0"
         style="fill:#ffffff" />
    </g>
    <g
       id="g58"
       style="stroke-opacity:0.50199998">
      <path
         d="m 374.305,233.12 6.415,-12.45 5.27,2.736 c 1.326,0.69 2.23,1.3 2.71,1.84 0.49,0.532 0.768,1.18 0.835,1.94 0.067,0.76 -0.092,1.505 -0.47,2.242 -0.48,0.934 -1.153,1.564 -2.017,1.892 -0.86,0.322 -1.872,0.28 -3.043,-0.128 0.378,0.598 0.645,1.18 0.8,1.74 0.158,0.564 0.288,1.484 0.387,2.763 l 0.262,3.215 -2.993,-1.555 -0.415,-3.648 c -0.145,-1.304 -0.27,-2.14 -0.378,-2.512 -0.105,-0.377 -0.27,-0.682 -0.487,-0.91 -0.214,-0.233 -0.61,-0.5 -1.186,-0.798 l -0.507,-0.264 -2.677,5.197 -2.505,-1.3 z"
         id="path54"
         inkscape:connector-curvature="0"
         style="fill:#309e3a" />
      <path
         d="m 380.503,227.226 1.853,0.962 c 1.2,0.625 1.977,0.962 2.33,1.016 0.35,0.054 0.675,0 0.973,-0.162 0.296,-0.16 0.54,-0.428 0.733,-0.803 0.216,-0.42 0.276,-0.814 0.184,-1.186 -0.087,-0.374 -0.315,-0.702 -0.685,-0.98 -0.19,-0.134 -0.79,-0.465 -1.808,-0.993 l -1.952,-1.013 -1.63,3.16 z"
         id="path56"
         inkscape:connector-curvature="0"
         style="fill:#ffffff" />
    </g>
    <g
       id="g64"
       style="stroke-opacity:0.50199998">
      <path
         d="m 426.107,258.704 c 0.797,-1.183 1.642,-2.056 2.536,-2.62 a 6.609,6.609 0 0 1 2.146,-0.862 5.45,5.45 0 0 1 2.2,-0.028 c 0.93,0.184 1.864,0.596 2.805,1.235 1.704,1.156 2.708,2.612 3.014,4.366 0.31,1.758 -0.173,3.58 -1.448,5.472 -1.263,1.873 -2.758,2.998 -4.488,3.37 -1.728,0.365 -3.44,-0.028 -5.14,-1.182 -1.718,-1.168 -2.732,-2.622 -3.04,-4.362 -0.303,-1.746 0.168,-3.543 1.413,-5.39 z"
         id="path60"
         inkscape:connector-curvature="0"
         style="fill:#309e3a" />
      <path
         d="m 428.578,260.254 c -0.886,1.316 -1.256,2.518 -1.112,3.61 0.15,1.087 0.69,1.945 1.62,2.578 0.932,0.632 1.92,0.815 2.967,0.55 1.055,-0.27 2.037,-1.077 2.944,-2.425 0.896,-1.33 1.273,-2.52 1.13,-3.572 -0.138,-1.047 -0.688,-1.898 -1.65,-2.552 -0.962,-0.654 -1.962,-0.85 -3,-0.583 -1.033,0.26 -1.998,1.06 -2.9,2.394 z"
         id="path62"
         inkscape:connector-curvature="0"
         style="fill:#ffffff" />
    </g>
    <path
       d="m 301.824,204.523 2.248,-9.84 7.268,1.675 -0.378,1.662 -5.287,-1.217 -0.504,2.18 4.926,1.136 -0.382,1.655 -4.918,-1.132 -0.614,2.677 5.475,1.26 -0.378,1.66 -7.456,-1.717 z"
       id="path66"
       inkscape:connector-curvature="0"
       style="fill:#309e3a" />
  </g>
</svg>
