<?xml version="1.0" encoding="UTF-8" standalone="no"?>
<svg
   xmlns:dc="http://purl.org/dc/elements/1.1/"
   xmlns:cc="http://creativecommons.org/ns#"
   xmlns:rdf="http://www.w3.org/1999/02/22-rdf-syntax-ns#"
   xmlns:svg="http://www.w3.org/2000/svg"
   xmlns="http://www.w3.org/2000/svg"
   xmlns:sodipodi="http://sodipodi.sourceforge.net/DTD/sodipodi-0.dtd"
   xmlns:inkscape="http://www.inkscape.org/namespaces/inkscape"
   height="16"
   width="21.336666"
   viewBox="0 0 21.336666 16"
   version="1.1"
   id="svg168"
   sodipodi:docname="bt.svg"
   inkscape:version="0.92.1 r">
  <metadata
     id="metadata174">
    <rdf:RDF>
      <cc:Work
         rdf:about="">
        <dc:format>image/svg+xml</dc:format>
        <dc:type
           rdf:resource="http://purl.org/dc/dcmitype/StillImage" />
        <dc:title></dc:title>
      </cc:Work>
    </rdf:RDF>
  </metadata>
  <defs
     id="defs172" />
  <sodipodi:namedview
     pagecolor="#ffffff"
     bordercolor="#666666"
     borderopacity="1"
     objecttolerance="10"
     gridtolerance="10"
     guidetolerance="10"
     inkscape:pageopacity="0"
     inkscape:pageshadow="2"
     inkscape:window-width="1920"
     inkscape:window-height="1024"
     id="namedview170"
     showgrid="false"
     fit-margin-top="0"
     fit-margin-left="0"
     fit-margin-right="0"
     fit-margin-bottom="0"
     inkscape:zoom="0.49166667"
     inkscape:cx="319.9"
     inkscape:cy="240"
     inkscape:window-x="0"
     inkscape:window-y="0"
     inkscape:window-maximized="1"
     inkscape:current-layer="svg168" />
  <path
     d="M 0,0 H 21.336667 V 16 H 0 Z"
     id="path2"
     inkscape:connector-curvature="0"
     style="fill:#ffd520;stroke-width:0.03333334" />
  <path
     d="M 0,16 H 21.336667 V 0 Z"
     id="path4"
     inkscape:connector-curvature="0"
     style="fill:#ff4e12;stroke-width:0.03333334" />
  <g
     id="g166"
     transform="matrix(0.03333333,0,0,0.03333333,-0.00333333,0)"
     style="stroke:#000000;stroke-width:0.52100003">
    <g
       id="g76"
       style="fill:#ffffff">
      <path
         d="m 345.392,150.072 c -3.99,-1.417 -6.567,0.644 -6.437,5.795 0.127,5.152 2.834,8.114 6.824,6.182 z"
         id="path6"
         inkscape:connector-curvature="0"
         style="stroke-width:0.41679999" />
      <path
         d="m 348.896,140.424 c -3.323,-2.624 -6.423,-1.499 -7.957,3.42 -1.533,4.92 0.077,8.594 4.477,8.047 l 3.48,-11.466 z"
         id="path8"
         inkscape:connector-curvature="0"
         style="stroke-width:0.41679999" />
      <path
         d="m 354.432,131.088 c -2.863,-3.124 -6.103,-2.51 -8.406,2.1 -2.3,4.61 -1.3,8.494 3.133,8.66 z m -3.632,45.384 c -4.893,1.803 -5.41,8.5 -2.317,12.62 3.09,4.122 8.757,4.894 11.847,0 l -9.528,-12.623 z"
         id="path10"
         inkscape:connector-curvature="0"
         style="stroke-width:0.41679999" />
      <path
         d="m 345.136,162.304 c -4.637,-1.545 -8.814,4.682 -9.53,10.302 -0.9,7.083 -10.947,9.401 -5.407,20.09 1.157,-6.825 5.667,-10.56 9.27,-10.817 3.607,-0.257 9.017,-1.03 11.334,-5.409 z m 14.68,27.56 c -5.41,1.288 -6.183,8.5 -2.32,13.651 3.307,4.41 13.65,3.349 13.394,-1.03 l -11.074,-12.62 z m 15.328,43.4 c 0.257,-4.636 -7.21,-6.439 -10.817,-5.538 -3.606,0.902 -10.497,-0.128 -12.106,-3.992 -1.287,3.091 0.58,6.44 5.796,8.114 3.947,1.267 3.864,4.12 2.704,5.409 2.963,0.515 11.72,0.515 14.423,-3.993 z"
         id="path12"
         inkscape:connector-curvature="0"
         style="stroke-width:0.41679999" />
      <path
         d="m 370.896,203.648 c -5.28,-2.318 -8.41,1.213 -10.43,4.636 -2.964,5.023 -12.107,-1.416 -15.197,5.28 4.186,-1.803 8.446,2.042 10.43,3.349 5.667,3.734 16.614,2.575 18.16,-6.182 z"
         id="path14"
         inkscape:connector-curvature="0"
         style="stroke-width:0.41679999" />
      <path
         d="m 373.984,209.824 c -5.28,3.992 -7.34,8.757 -7.21,11.977 0.13,3.22 4.637,10.302 9.53,10.689 2.834,-5.796 4.25,-18.03 -2.32,-22.666 z m -21.888,24.856 c 0,-1.932 2.833,-2.704 4.763,-2.06 1.934,0.643 4.894,2.575 3.864,4.636 z m -29.112,-10.56 c -0.513,-2.318 3.22,-6.31 8.243,-4.121 5.02,2.19 5.667,6.44 3.604,8.114 z"
         id="path16"
         inkscape:connector-curvature="0"
         style="stroke-width:0.41679999" />
      <path
         d="m 335.216,228.368 c -0.387,-1.288 3.23,-3.86 9.403,-2.318 6.18,1.545 7.697,5.525 7.47,8.628 z m -12.872,-4.248 c 3.22,-2.447 2,-7.084 -0.903,-8.5 -5.28,-2.576 -3.347,-9.272 -6.697,-10.56 -3.347,-1.288 -6.567,-3.606 -6.697,-5.924 -1.673,3.22 -0.643,6.182 1.677,8.242 2.317,2.061 -1.803,10.432 1.157,12.621 z m -69.032,-1.8 c -2.704,-4.25 -9.144,-3.477 -11.848,-0.515 -2.704,2.962 -2.318,7.34 0.258,9.272 l 11.59,-8.758 z m 15.456,-6.312 c -1.03,-5.666 -7.856,-6.31 -11.59,-4.894 -3.735,1.417 -6.31,7.083 -3.864,11.204 l 15.455,-6.31 z"
         id="path18"
         inkscape:connector-curvature="0"
         style="stroke-width:0.41679999" />
      <path
         d="m 279.072,215.232 c 2.447,-4.765 -2.318,-11.848 -7.727,-12.878 -4.516,-0.86 -9.852,-0.837 -11.59,-5.28 -1.095,3.863 1.803,6.31 5.151,8.5 3.348,2.189 -0.644,7.856 4.765,11.075 z"
         id="path20"
         inkscape:connector-curvature="0"
         style="stroke-width:0.41679999" />
      <path
         d="m 278.56,215.4 c -1.127,-3.413 1.159,-7.955 5.786,-7.636 4.627,0.318 7.264,3.68 5.224,7.884 z"
         id="path22"
         inkscape:connector-curvature="0"
         style="stroke-width:0.41679999" />
      <path
         d="m 288.856,215.656 c -0.637,-3.538 2.264,-7.712 6.8,-6.748 4.537,0.964 6.674,4.664 4.067,8.54 z"
         id="path24"
         inkscape:connector-curvature="0"
         style="stroke-width:0.41679999" />
      <path
         d="m 299.088,217.28 c -0.46,-3.566 2.647,-7.59 7.13,-6.401 4.483,1.19 6.433,4.992 3.633,8.732 z m -77.712,59 c -8.629,0 -10.736,2.054 -11.977,10.946 -1.545,11.076 13.523,12.364 11.977,-10.946 z"
         id="path26"
         inkscape:connector-curvature="0"
         style="stroke-width:0.41679999" />
      <path
         d="m 225.24,264.688 c -13.265,-5.023 -20.476,15.969 -33.612,12.234 4.7,7.47 16.094,0.014 20.347,0.773 7.212,1.288 22.795,-1.417 13.265,-13.007 z m -8.632,28.72 c -6.568,-2.962 -13.651,7.083 -12.363,11.462 1.635,5.561 16.613,1.03 12.363,-11.462 z M 185.96,336.68 c 3.606,1.027 7.984,3.09 7.212,10.043 -0.773,6.954 -13.908,21.12 -25.756,21.894 -11.848,0.773 -16.099,15.066 -26.272,11.073 9.53,-1.8 9.53,-12.62 16.999,-15.966 -5.41,-1.933 -8.243,10.303 -15.196,10.303 -6.954,0 -10.303,11.074 -18.803,10.3 -8.5,-0.77 -9.394,13.483 -26.4,13.654 -13.007,0.126 -29.104,15.323 -34.9,8.757 12.621,-1.804 17.714,-8.797 25.242,-16.487 12.106,-12.36 25.757,-6.823 30.393,-17.77 a 31.651,31.651 0 0 1 -18.287,5.41 c -7.922,-0.164 -16.613,12.62 -25.5,6.953 5.152,-0.643 8.5,-2.833 13.91,-8.5 5.538,-5.803 13.666,-2.053 20.09,-7.983 10.044,-9.274 18.673,-1.547 28.332,-13.137 -2.705,-1.287 -8.5,-0.387 -13.91,2.447 -5.408,2.833 -12.362,-1.934 -18.544,1.416 0.773,-7.596 15.196,-3.25 24.211,-8.5 10.175,-5.923 18.61,-4.186 26.659,-3.476 -11.204,-0.064 -15.583,-10.69 -31.036,-7.6 -6.74,1.35 -12.106,-9.27 -18.803,-3.864 0.193,-3.99 7.212,-7.21 14.424,-3.346 7.212,3.863 10.119,-3.381 24.47,5.666 5.923,3.734 16.097,-2.32 22.536,1.674 -0.837,-2.447 -4.508,-3.994 -8.822,-3.67 2.705,-5.537 20.155,-4.83 27.753,0.71 z"
         id="path28"
         inkscape:connector-curvature="0"
         style="stroke-width:0.41679999" />
      <path
         d="m 197.424,328.304 c -5.666,-4.379 -13.522,0.903 -18.931,-1.159 0,3.605 1.803,9.015 7.727,11.075 1.803,-1.286 9.916,-8.37 11.204,-9.916 z"
         id="path30"
         inkscape:connector-curvature="0"
         style="stroke-width:0.41679999" />
      <path
         d="m 206.312,315.816 c -8.886,-4.507 -10.431,6.697 -17.386,4.379 0.258,3.22 2.834,7.212 8.5,8.113 l 8.887,-12.492 z"
         id="path32"
         inkscape:connector-curvature="0"
         style="stroke-width:0.41679999" />
      <path
         d="m 211.592,305.64 c -13.136,-5.151 -14.81,7.47 -22.537,5.022 1.803,4.379 12.879,6.697 18.545,5.152 z m 18.024,-55.248 c -3.477,-4.894 -10.818,-0.901 -11.977,4.894 -1.159,5.795 1.674,13.908 6.568,12.105 z"
         id="path34"
         inkscape:connector-curvature="0"
         style="stroke-width:0.41679999" />
      <path
         d="m 238.504,234.936 c -6.053,-1.416 -13.007,-0.773 -12.234,5.151 -2.319,1.03 -2.962,8.63 3.348,10.303 l 8.886,-15.455 z"
         id="path36"
         inkscape:connector-curvature="0"
         style="stroke-width:0.41679999" />
      <path
         d="m 242.496,230.944 c -5.924,-6.954 -12.53,-6.793 -16.226,-3.864 -6.826,5.41 -13.459,2.319 -13.652,7.727 4.122,-3.155 7.727,0.644 11.076,-0.515 3.348,-1.159 5.795,5.28 15.068,2.576 z M 228.2,334.88 c 0.902,1.673 6.439,2.447 9.144,-0.387 3.584,-3.756 -0.386,-14.167 -6.053,-14.94 -5.666,-0.772 -6.181,11.72 -3.09,15.327 z"
         id="path38"
         inkscape:connector-curvature="0"
         style="stroke-width:0.41679999" />
      <path
         d="m 221.76,335.136 c 8.113,2.96 11.59,-3.737 7.212,-7.985 -1.16,1.417 -5.41,6.568 -7.212,7.985 z"
         id="path40"
         inkscape:connector-curvature="0"
         style="stroke-width:0.41679999" />
      <path
         d="m 191.368,346.208 c -1.546,4.637 -9.53,5.41 -18.545,19.834 -9.015,14.423 -17.643,8.37 -19.833,18.286 10.818,-8.757 19.314,-2.94 25.756,-11.59 9.788,-13.137 17.848,-11.25 21.636,-20.09 5.409,-12.62 29.105,-12.364 30.393,-32.196 -7.984,-1.546 -33.226,19.832 -39.407,25.755 z m 203.224,-194.72 c 10.303,3.348 10.56,16.742 22.406,21.12 11.85,4.379 13.01,14.938 22.667,12.363 -9.014,-2.447 -8.37,-12.878 -17.77,-15.454 -11.027,-3.02 -15.197,-19.833 -23.957,-22.408 m 43.918,74.307 c 1.803,4.121 1.547,11.462 -4.893,13.394 3.476,2.189 8.626,0.128 11.46,-4.636 -4.25,9.4 -1.417,17.9 5.28,19.575 -3.22,-6.568 3.993,-9.66 1.676,-13.909 4.25,1.803 7.984,7.598 7.854,11.204 5.54,-6.182 -4.12,-14.424 -2.317,-20.218 z m -66.712,66.192 c -6.31,-5.538 -9.003,1.448 -12.106,-0.966 -2.897,-2.254 -6.76,-2.576 -8.24,-0.322 5.41,0.193 2.766,4.379 13.263,5.409 -10.497,0.708 -8.563,12.428 -15.583,11.848 7.47,7.083 11.333,-6.31 17.386,-4.12 -1.803,0.514 2.833,4.764 -0.387,10.43 5.217,-0.128 7.34,-7.34 7.987,-11.075 z m -138.96,60.144 c -2.318,-1.93 -9.015,-2.833 -11.59,-1.287 -2.576,1.544 -1.674,1.93 1.416,2.19 3.091,0.257 7.082,5.257 0.387,5.537 -3.091,0.127 -2.06,7.597 -8.5,8.114 2.64,3.22 10.174,1.093 12.878,-2.447 -0.515,2.897 3.348,5.537 1.803,9.014 4.765,0.516 1.996,-9.657 9.53,-9.144 -3.09,0.387 -1.803,7.34 3.606,5.537 -3.22,1.547 -1.545,5.28 2.06,4.38 -2.317,0.773 -3.09,3.733 0.13,5.41 3.09,-4.25 -0.387,-19.446 -11.72,-27.303 z M 516.68,205.656 c 9.857,0 17.846,-7.992 17.846,-17.85 0,-9.856 -7.99,-17.848 -17.846,-17.848 -9.86,0 -17.85,7.992 -17.85,17.848 0,9.858 7.99,17.85 17.85,17.85 z"
         id="path42"
         inkscape:connector-curvature="0"
         style="stroke-width:0.41679999" />
      <path
         d="m 423.44,227.216 c 5.41,-5.151 13.654,-7.727 19.317,-3.864 5.666,3.864 24.47,8.5 33.743,2.061 9.27,-6.44 13.65,-9.788 17.77,-9.015 3.094,4.636 6.827,6.825 11.464,7.212 1.416,1.545 6.44,2.833 9.273,2.446 4.12,1.03 9.143,-0.257 13.134,-4.636 6.183,0.902 11.977,-3.734 14.166,-10.688 6.567,-0.773 6.954,-8.114 2.834,-13.008 -3.864,-0.772 -0.9,-13.78 -14.94,-11.204 5.926,3.606 1.416,10.818 6.313,14.167 -3.35,0 -7.663,1.416 -8.694,6.439 1.287,-3.477 -0.193,-5.795 -1.096,-6.568 0.13,-2.962 -6.437,-10.238 -12.62,-7.598 4.443,0.966 1.933,8.113 5.153,10.817 -2.32,0.13 -4.767,1.288 -6.183,3.349 -1.674,-2.962 -7.597,-6.053 -11.204,-6.31 0,-1.03 -0.193,-3.091 -0.643,-4.122 -1.61,-3.09 -2.963,-6.76 -2.32,-11.461 -3.09,3.348 -5.666,7.985 -7.21,11.333 -4.893,-3.349 -17,1.545 -22.666,2.833 -5.667,1.288 -24.727,-1.803 -29.107,-6.44 -4.376,-4.635 -12.876,-7.469 -20.86,-9.787 -10.98,-3.186 -11.076,-15.196 -23.183,-23.438 -0.257,14.94 22.41,62.331 27.56,67.482 z m -126.208,113.84 c 9.53,0 17.257,-7.727 17.257,-17.257 0,-9.53 -7.727,-17.256 -17.257,-17.256 -9.53,0 -17.257,7.726 -17.257,17.256 0,9.53 7.726,17.257 17.257,17.257 z"
         id="path44"
         inkscape:connector-curvature="0"
         style="stroke-width:0.41679999" />
      <path
         d="m 256.016,327.792 c 3.477,4.508 9.4,4.251 11.848,3.864 2.06,5.407 8.628,5.28 11.462,8.24 2.833,2.964 12.49,2.707 15.324,1.03 -2.574,-0.256 -5.923,-1.8 -9.143,-4.506 -3.886,-3.264 -2.06,-9.788 -5.151,-12.105 2.318,-2.576 2.704,-6.825 2.19,-8.5 2.446,-1.417 4.249,-3.735 4.507,-4.894 4.25,-0.257 7.983,-2.447 9.53,-4.12 2.19,2.06 7.727,-0.645 10.69,2.832 0.644,-8.5 -7.47,-13.007 -12.88,-10.173 -2.19,-1.16 -7.984,-0.387 -9.014,1.159 -1.803,-0.773 -6.826,1.803 -9.144,3.477 2.576,-1.417 2.962,-5.667 1.932,-7.212 2.189,-0.901 4.636,-3.863 4.893,-6.053 3.091,0.515 7.726,-1.545 9.787,-1.03 -3.347,-4.379 -8.884,-5.924 -14.551,-5.538 -5.86,0.323 -8.37,4.444 -9.144,8.887 -3.477,2.06 -4.636,9.014 -3.348,11.461 -1.997,-0.064 -3.864,1.868 -4.636,2.962 -2.705,-1.159 -6.568,-1.995 -9.337,-1.995 m 1.225,-7.018 c -1.159,-3.348 0.376,-6.363 1.159,-9.014 1.996,-6.761 0.773,-8.5 -5.28,-7.598 -0.515,3.219 2.576,13.78 4.121,16.612 z"
         id="path46"
         inkscape:connector-curvature="0"
         style="stroke-width:0.41679999" />
      <path
         d="m 248.616,282.328 c 1.545,1.545 7.019,2.254 7.598,-2.64 0.666,-5.618 -1.61,-7.792 -6.503,-5.602 -0.386,1.288 -0.838,6.568 -1.095,8.242 z"
         id="path48"
         inkscape:connector-curvature="0"
         style="stroke-width:0.41679999" />
      <path
         d="m 249.776,273.896 c 2.06,0.837 6.504,2.511 8.95,-2.254 2.053,-3.996 -0.643,-7.083 -4.893,-6.826 -1.03,1.16 -3.091,5.28 -4.057,9.08 z"
         id="path50"
         inkscape:connector-curvature="0"
         style="stroke-width:0.41679999" />
      <path
         d="m 253.576,264.432 c 0.515,1.545 5.795,6.697 9.658,2.962 3.864,-3.735 3.864,-9.272 -1.931,-11.333 -1.546,0.258 -6.182,5.667 -7.727,8.37 z"
         id="path52"
         inkscape:connector-curvature="0"
         style="stroke-width:0.41679999" />
      <path
         d="m 261.296,256.064 c 1.159,3.22 4.765,8.757 11.462,6.181 6.697,-2.575 3.863,-10.946 0.773,-12.62 -1.803,0.129 -9.144,3.477 -12.235,6.439 z"
         id="path54"
         inkscape:connector-curvature="0"
         style="stroke-width:0.41679999" />
      <path
         d="m 273.536,249.624 c -0.515,2.833 0,10.56 9.143,10.431 9.143,-0.128 6.57,-10.817 4.25,-12.363 -3.734,0 -10.045,0.129 -13.393,1.932 z"
         id="path56"
         inkscape:connector-curvature="0"
         style="stroke-width:0.41679999" />
      <path
         d="m 287.312,248.072 c -1.03,2.19 -3.352,16.6 14.553,12.62 2.316,-0.514 8.37,-13.78 -14.553,-12.62 z"
         id="path58"
         inkscape:connector-curvature="0"
         style="stroke-width:0.41679999" />
      <path
         d="m 297.096,249.36 c -1.8,1.803 2.833,16.355 14.94,13.908 12.106,-2.447 1.933,-16.226 -14.94,-13.908 z"
         id="path60"
         inkscape:connector-curvature="0"
         style="stroke-width:0.41679999" />
      <path
         d="m 307.4,251.552 c -1.93,3.992 0.97,15.84 15.906,15.84 13.537,0 -0.71,-15.582 -15.906,-15.84 z"
         id="path62"
         inkscape:connector-curvature="0"
         style="stroke-width:0.41679999" />
      <path
         d="m 319.12,255.032 c -0.97,2.213 -2.157,14.774 15.454,15.84 12.75,0.773 9.66,-17.257 -15.454,-15.84 z"
         id="path64"
         inkscape:connector-curvature="0"
         style="stroke-width:0.41679999" />
      <path
         d="m 338.056,260.312 c -2.187,3.864 -4.507,13.522 14.81,14.295 12.377,0.496 4.767,-14.037 -14.81,-14.295 z"
         id="path66"
         inkscape:connector-curvature="0"
         style="stroke-width:0.41679999" />
      <path
         d="m 354.152,263.272 c -2.833,3.864 -0.747,11.442 6.437,12.878 9.016,1.803 10.303,-6.696 4.123,-10.817 -6.183,-4.121 -10.56,-2.06 -10.56,-2.06 z"
         id="path68"
         inkscape:connector-curvature="0"
         style="stroke-width:0.41679999" />
      <path
         d="m 362.912,265.072 c -2.06,3.606 -0.783,12.363 12.877,12.363 2.833,0 13.653,-11.075 -12.877,-12.363 z M 257.184,433.016 c 11.064,0 20.034,-8.97 20.034,-20.034 0,-11.066 -8.97,-20.036 -20.034,-20.036 -11.065,0 -20.034,8.97 -20.034,20.036 0,11.064 8.97,20.034 20.034,20.034 z"
         id="path70"
         inkscape:connector-curvature="0"
         style="stroke-width:0.41679999" />
      <path
         d="m 404.12,141.704 c -1.547,1.545 -4.763,6.181 -5.41,7.984 -6.697,20.09 11.18,35.097 21.637,56.664 8.243,17 7.213,43.787 -5.667,60.786 -4.406,5.815 -3.09,7.47 -8.757,13.394 -2.173,2.272 -4.636,5.15 -3.863,13.393 3.607,-1.288 8.757,2.06 9.786,4.894 2.577,-1.288 6.184,-0.773 7.47,0.772 4.377,-2.06 7.984,-1.03 11.847,3.092 3.35,-0.516 6.956,0 10.303,3.605 1.803,-3.605 5.41,-4.893 7.983,-4.12 -0.256,-4.637 4.38,-7.985 8.5,-6.182 -1.286,-6.182 4.38,-10.819 9.79,-9.015 4.634,-3.606 13.907,-3.864 18.544,1.545 -8.243,-2.318 -7.983,6.44 -14.94,5.667 1.803,5.151 -2.833,8.113 -7.467,9.787 2.96,-1.417 6.18,-3.09 7.21,-1.288 2.577,-2.253 7.727,-1.416 9.017,-0.257 3.41,-1.095 6.697,-0.258 8.24,3.863 4.637,2.833 7.727,10.045 4.38,15.454 -1.03,-5.666 -4.893,-5.409 -6.44,-7.727 -3.607,1.288 -7.213,1.288 -8.243,-1.03 -2.06,2.06 -9.014,3.864 -12.103,0.773 -1.16,4.636 -5.154,8.5 -9.79,8.5 1.29,3.605 -2.317,9.788 -5.15,12.878 4.38,2.317 3.09,7.47 2.06,10.56 6.696,1.03 1.03,6.953 12.62,10.817 -5.664,1.803 -16.74,0 -18.287,-6.954 -5.667,-0.256 -9.53,-5.923 -9.27,-11.85 -4.38,-4.12 -5.024,-10.043 1.03,-14.164 -5.154,1.545 -7.987,-6.697 -15.457,-3.348 -3.714,1.666 -13.52,-1.16 -13.39,-4.637 -1.547,2.576 -10.947,1.546 -12.238,-2.833 -3.09,1.674 -10.303,-1.159 -10.173,-5.409 -3.994,1.803 -9.4,-1.416 -9.143,-5.537 -3.734,-0.515 -4.12,-3.864 -3.864,-6.697 -3.35,-1.545 -2.446,-4.765 -1.16,-8.628 -2.316,-2.576 -1.286,-6.182 0.517,-9.53 -2.577,-2.576 -2.06,-5.667 -1.29,-9.272 -12.363,-1.03 -27.85,-4.012 -63.36,-14.939 -53.574,-16.484 -67.998,22.15 -56.15,46.362 13.67,27.935 -1.545,34 3.091,54.863 4.894,1.03 7.47,5.15 7.212,9.53 2.897,0.127 4.958,2.83 3.927,7.984 2.447,-0.45 5.603,0.256 7.663,2.316 1.804,-3.346 7.728,-4.12 10.819,-0.256 6.695,-0.517 10.045,4.893 9.788,11.59 3.603,6.44 2.317,14.297 -1.547,19.317 0.387,-2.703 0,-6.567 -0.126,-8.883 -0.24,-4.264 -6.184,-5.154 -5.54,-8.63 -3.09,0.256 -6.053,-1.417 -7.083,-3.734 -1.803,1.543 -4.378,2.06 -6.568,1.287 3.477,1.546 6.182,7.726 5.152,11.846 1.803,3.093 1.416,8.76 -0.773,11.206 -1.03,5.02 -4.894,6.824 -9.916,4.634 2.833,-1.8 3.863,-5.02 3.734,-7.727 -1.803,-1.543 -2.704,-4.506 -2.833,-6.31 -5.022,0.774 -11.977,-3.476 -13.26,-5.156 -11.064,0 -20.033,8.97 -20.033,20.036 -0.515,-4.123 -5.728,-8.183 -5.084,-11.66 -3.09,-9.53 1.288,-18.416 13.909,-20.216 -1.545,-3.607 3.863,-7.344 1.803,-11.464 -2.632,-5.263 -7.47,-12.106 -14.68,-20.09 4.378,-7.47 3.09,-17.514 0.514,-23.696 -3.698,-8.877 -7.212,-6.697 -20.348,7.726 -21.408,23.507 -49.968,17 -75.21,32.454 -6.706,4.107 -13.392,5.667 -6.18,-1.543 7.211,-7.214 26.271,-14.424 38.634,-20.607 23.152,-11.577 42.756,-30.908 50.483,-68.512 18.157,-88.368 84.992,-59.24 127.232,-42.756 39.657,15.477 32.453,-19.575 12.363,-40.695 -24.146,-25.386 -19.317,-45.331 -7.983,-61.3 20.346,-2.834 59.37,4.25 51.513,11.075 z"
         id="path72"
         inkscape:connector-curvature="0"
         style="stroke-width:0.41679999" />
      <path
         d="m 475.856,358.784 c 12.174,0 22.043,-9.866 22.043,-22.04 0,-12.174 -9.87,-22.043 -22.043,-22.043 -12.174,0 -22.043,9.869 -22.043,22.043 0,12.174 9.87,22.04 22.043,22.04 z"
         id="path74"
         inkscape:connector-curvature="0"
         style="stroke-width:0.41679999" />
    </g>
    <g
       id="g112"
       style="fill:none">
      <path
         d="m 391.76,142.728 c -4.893,21.636 -0.773,31.423 6.44,40.953 14.903,19.697 26.786,64.649 9.786,94.008"
         id="path78"
         inkscape:connector-curvature="0"
         style="stroke-width:0.41679999" />
      <g
         id="g88"
         style="stroke-linecap:round">
        <path
           d="m 417.512,252.328 c 2.06,-0.773 5.923,-3.22 6.827,-7.47 m -5.283,-1.93 c 0.643,-3.735 6.437,-5.344 6.567,-9.336 m -6.439,-5.224 c -0.387,-3.864 5.797,-7.34 4.893,-11.204 m -8.237,-2.7 c -0.517,-2.19 5.15,-6.31 3.607,-9.787 m -7.855,-3.733 c -1.16,-2.447 2.703,-5.28 1.03,-7.856 m -7.214,-2.968 c -0.387,-1.674 1.997,-5.344 0.71,-7.533 m -6.894,-5.211 c 0.513,-0.644 2.577,-2.19 1.737,-4.121 m -5.985,-5.215 c 0.837,-0.451 3.347,-1.224 3.027,-3.09"
           id="path80"
           inkscape:connector-curvature="0"
           style="stroke-width:0.41679999" />
        <path
           d="m 266.064,410.856 c -5.151,-1.803 -11.59,0.773 -12.878,5.153 m 3.862,3.991 c 0.644,-4.377 7.34,-6.31 9.4,-4.25 -4.249,-2.317 -6.31,5.923 -2.575,6.183 M 298.52,318.136 c -3.09,1.546 -3.99,7.212 0,11.463 m 4.632,-10.175 c -2.187,1.803 -2.06,7.212 1.16,8.5 -2.703,-1.932 0,-5.28 1.933,-5.409 1.93,-0.129 3.217,2.19 0.9,4.507 m 176.951,5.146 c -7.21,-1.93 -13.006,6.44 -6.44,13.91 -0.127,-7.213 5.023,-11.976 11.334,-10.69 m -2.902,4.988 c -1.773,0 -2.77,1.387 -2.77,2.737 0,1.416 1.223,2.77 3.22,2.77 1.29,0 2.32,-1.48 2.32,-2.64 M 511.52,182.264 c 1.16,4.379 7.213,6.182 11.977,5.151 m -10e-4,-2.831 c -3.733,0.129 -6.823,-3.348 -6.567,-6.31 0,2.189 5.024,3.22 6.567,1.803"
           id="path82"
           inkscape:connector-curvature="0"
           style="stroke-width:0.41679999;stroke-linejoin:round" />
        <path
           d="m 267.864,331.656 c -1.03,-2.577 3.091,-5.152 3.22,-7.6 0.129,-2.446 4.636,-4.378 9.272,0.258 m -2.188,-27.426 c -0.901,0.386 -1.674,0.901 -2.447,1.159 m 11.335,12.873 c -1.095,0.065 -3.348,-0.064 -4.572,-0.902 m 0.068,5.798 c -0.901,0.451 -2.898,1.224 -4.057,1.482 M 238.376,393.6 c -0.129,2.32 2.19,5.667 3.477,6.697 m 6.571,-12.233 c -1.288,1.93 -2.06,5.28 -1.288,7.597 m 20.472,0.131 c -2.318,-1.547 -0.773,-5.54 -1.03,-8.114 -0.258,-2.576 2.704,-6.696 8.5,-3.22 m -29.102,-3.346 c 2.318,-0.387 4.765,-0.26 6.31,0.383 m 23.05,-7.727 c -1.03,1.417 -1.288,2.963 -1.416,3.993 m 12.232,-4.249 c -1.803,0 -3.348,1.287 -4.121,2.577 m -20.863,-68.513 c 2.06,0.709 7.405,3.992 7.598,7.405 m 14.298,-24.149 c -6.31,-0.129 -8.757,-6.568 -3.992,-6.568 m 15.328,15.192 c -2.447,1.03 -1.287,5.28 2.19,7.34 m -17.262,33.1 c -1.224,-1.543 0.386,-6.05 4.379,-4.7 m 5.021,51.708 c 0.256,-3.927 5.216,-6.247 7.213,-1.803 m -25.501,13.003 c -0.322,-4.313 1.867,-5.73 3.799,-5.987 1.931,-0.256 4.701,1.35 5.989,4.184 m -48.164,5.027 c 0.258,-2.577 2.447,-5.28 4.765,-4.893 M 467.736,286.968 c -1.677,1.224 -2.77,6.697 3.603,7.212 m -13.387,1.804 c 0,0.644 0.837,1.545 1.353,1.932 m 29.039,8.372 c -1.673,-1.288 -5.99,3.928 -2.06,7.727 m -38.892,35.545 c -0.967,-3.67 2.447,-4.637 5.667,-3.863 m -13.907,-22.153 c 1.93,-1.288 3.863,-2.704 6.31,-3.348 m -7.342,17.508 c 0,-3.09 1.543,-5.663 2.96,-6.437 m 8.368,-29.099 c -0.257,3.735 1.29,7.34 2.45,9.272 m 28.206,-9.016 c -1.87,0.58 -3.543,1.288 -4.25,2.833 m 2.186,7.727 c 0.903,-0.773 1.933,-1.674 2.383,-2.318 M 526.72,200.552 c 0,3.606 -4.507,5.537 -7.467,3.22 m 17.259,-3.092 c 1.993,1.545 8.883,0.065 7.273,-3.927 m -15.649,24.663 c -1.417,-0.258 -3.863,-1.803 -4.893,-3.09 m 19.061,-7.598 c -2.317,0.515 -3.863,0 -5.023,-0.515 m -31.553,13.395 c 1.287,0 4.377,-0.515 6.503,-1.61 m -10.367,-21.182 c -1.673,-0.193 -2.9,0.129 -3.863,0.773 m 29.815,5.531 c -0.45,1.61 -1.61,4.121 -3.027,5.216"
           id="path84"
           inkscape:connector-curvature="0"
           style="stroke-width:0.41679999" />
        <path
           d="m 497.488,212.792 c 3.22,-1.417 7.213,9.53 14.94,5.666 m 0.644,-11.338 c -1.03,1.417 -1.673,3.606 -1.803,5.538"
           id="path86"
           inkscape:connector-curvature="0"
           style="stroke-width:0.41679999;stroke-linejoin:round" />
      </g>
      <path
         d="m 359.048,190.384 c 1.03,-0.129 2.833,-0.515 3.22,-1.803 M 226.528,310.28 c 3.864,2.19 6.568,5.924 4.894,11.462 M 403.6,178.536 c 1.16,0.773 5.54,0.773 7.987,-0.129 m 3.093,2.705 c -0.13,1.803 0.387,8.628 -3.09,10.045 m 1.29,-0.901 c 3.22,1.03 9.66,0.644 11.72,-5.28 m -4.512,5.016 c 1.673,2.576 2.187,7.598 -2.833,10.302 m 4.121,-6.046 c 3.733,1.288 12.363,1.416 11.46,-5.924 m -2.956,5.924 c 2.577,3.606 13.91,7.856 12.106,0.386 m -22.538,10.038 c 4.377,1.03 10.56,-1.932 7.983,-9.658 m 12.361,3.866 c 0.643,2.962 15.066,6.053 13.137,-0.644 m -2.705,3.868 c 2.707,6.181 17,5.666 12.494,-2.576 m -2.318,6.432 c 2.833,3.477 15.457,1.417 10.434,-6.954 m -0.138,6.826 c 7.857,5.924 17,-2.576 7.083,-8.758 m 4.509,6.83 c 6.957,5.538 15.457,-4.508 9.403,-7.34 m -64.395,5.02 c 2.19,0.644 6.827,0.386 7.857,-3.606 m -1.737,2.702 c -0.257,5.86 9.597,8.114 12.106,1.353 m -3.282,3.671 c 1.803,3.863 10.43,5.409 11.846,-0.129 m -1.414,2.577 c 1.417,3.864 8.886,3.477 10.946,-0.515 m -2.706,2.579 c 2.317,5.022 11.846,5.022 14.037,-2.318 m -1.669,3.214 c 3.733,2.318 11.72,1.417 11.074,-5.795 m -1.546,5.155 c 5.537,4.508 13.394,0.129 9.53,-7.47 m -0.386,13.39 c 2.963,-0.515 4.507,-6.439 1.417,-7.984 m -70.057,9.016 c 6.18,-3.348 7.34,-9.014 3.09,-14.552 m 2.19,8.888 c 3.863,2.318 11.203,-0.129 12.49,-5.795 m -7.21,6.435 c 2.187,2.833 2.573,6.31 -0.26,9.53 m 2.06,-5.922 c 6.823,-4.25 15.323,3.606 9.014,8.371 m -1.158,-8.755 c 1.547,-0.386 4.25,-3.22 4.507,-6.439 m -1.419,9.399 c 2.833,-2.962 22.154,3.091 9.917,9.272 m -0.901,-17.384 c 3.733,1.417 5.667,6.697 0,8.5 m 4.896,4.38 c 4.12,-4.25 17,-1.545 12.363,3.864 m -3.091,-5.544 c 2.317,-7.856 16.097,-2.962 11.59,0.257 m -14.422,-8.113 c 0.387,1.546 0.513,5.409 -2.06,7.47 m 13.652,-9.014 c 0.513,1.288 0.387,3.735 -0.773,5.28 m 9.525,-5.152 c 0.773,1.416 2.06,4.121 -0.773,6.31 M 377.08,153.16 c 0.127,7.34 2.703,12.234 12.62,7.598 m -9.532,1.162 c -4.893,6.568 0.643,13.651 10.303,6.568 m -25.375,-3.352 c 6.697,7.212 18.674,1.932 10.946,-9.015 m 8.118,15.199 c -1.29,7.083 4.507,8.5 9.27,5.28 m -34.254,-10.304 c 1.22,7.121 8.5,12.75 15.583,8.371 m -6.823,1.421 c 0,10.174 14.037,11.333 17.257,0.773 m -5.025,6.435 c 4.507,9.272 14.294,5.538 17.514,-0.129 m -27.434,-14.679 c 1.803,4.507 5.41,9.53 13.78,5.795 m -39.532,-7.987 c 1.16,3.735 7.857,8.242 15.583,3.09 m -10.823,1.678 c -4.123,6.053 4.12,11.72 14.037,2.704 m -9.141,4.768 c 1.673,8.5 5.02,15.326 17.126,4.379 m -6.054,4.373 c 4.38,5.409 11.077,8.757 17.386,-0.386"
         id="path90"
         inkscape:connector-curvature="0"
         style="stroke-width:0.41679999" />
      <path
         d="m 387.248,188.832 c -0.387,6.439 0.9,9.658 5.923,9.4 3.96,-0.202 7.727,-3.348 9.917,-6.696 m -10.816,6.704 c -0.13,7.34 5.663,13.136 16.483,5.667 m -11.979,2.957 c -2.06,5.538 4.12,14.552 16.226,9.916 m -41.85,-24.596 c -0.77,7.083 5.797,11.848 16.357,2.704 m -11.205,5.152 c 0.387,5.795 6.953,12.75 16.614,2.704 m -11.982,4.64 c -0.773,9.916 8.37,12.75 16.097,5.151 M 367.16,200.04 c 2.06,0.129 3.733,-1.674 4.763,-2.962 m -0.387,10.17 c 1.803,0.386 4.897,-1.288 5.927,-3.348 m -1.415,15.068 c 2.06,2.19 9.014,0.644 9.914,-2.318 m -2.186,2.19 c 3.863,9.014 14.163,8.628 18.414,-1.545 m -1.934,3.609 c 1.93,5.28 6.827,8.628 14.81,6.825 m -10.946,-1.417 c -4.507,7.34 1.417,15.969 11.46,7.47 m -9.012,3.474 c -0.513,4.636 3.737,9.916 9.53,10.56 m -28.594,-24.08 c -1.547,10.431 5.923,15.454 15.326,9.916 m -26.27,-4.892 c 2.447,1.932 6.827,2.19 10.946,0.644 m 5.022,6.052 c -2.32,8.758 6.697,15.068 14.423,5.28 m -26.911,-10.56 c 0.13,4.507 4.51,9.4 12.106,7.984 m 21.246,9.016 c -5.153,3.477 -6.183,9.658 1.03,13.65 m -13.654,-15.458 c 0.26,5.28 2.707,8.242 8.5,8.757 m -16.092,-11.461 c -7.727,7.083 -0.13,15.326 9.014,8.371 m -3.606,2.189 c -2.577,8.114 7.083,13.007 12.234,4.765 m -28.202,-22.021 c -2.833,7.985 0.773,13.265 7.34,12.75 M 372.44,234.424 c 0.387,4.765 4.507,6.439 9.143,5.409 m -6.183,-0.385 c -3.477,6.697 1.803,10.302 8.76,7.727 m 21.12,14.937 c -1.16,4.25 -0.517,7.34 5.793,8.758 m -5.409,-2.702 c -7.6,3.477 -8.243,10.818 -2.32,15.582 m -3.8,-23.758 c -3.99,3.606 -3.22,9.851 1.16,12.298 m -34.96,-35.802 c -4.38,4.315 -0.193,16.226 9.463,9.724 m 15.649,5.34 c -5.927,4.894 -3.22,13.78 6.567,11.333 m -16.359,-15.069 c -3.09,8.758 -0.127,11.848 6.827,11.977"
         id="path92"
         inkscape:connector-curvature="0"
         style="stroke-width:0.41679999" />
      <path
         d="m 359.304,236.096 c -5.28,3.992 -3.863,9.658 -1.543,12.234 2.316,2.576 6.693,1.417 8.11,-1.931 m -17.647,-13.775 c -5.923,7.598 0,16.613 8.374,13.909 m 23.314,8.627 c -6.053,2.19 -10.67,7.686 -6.957,12.492 2.19,2.833 11.72,3.22 14.424,-7.727 M 368.96,248.072 c -3.477,5.023 -2.32,9.788 4.12,12.234 m -4.504,-2.826 c -3.737,2.06 -6.183,4.508 -5.28,9.015 m -3.088,-16.871 c -1.417,6.053 0.257,9.788 3.99,11.59 m -4.118,-4.382 c -5.797,-0.386 -8.757,2.06 -6.827,7.727 m 0.515,-6.311 c -5.667,-2.06 -6.57,-6.954 -4.123,-12.106 m -0.773,7.602 c -6.183,0.258 -8.886,3.348 -8.886,7.598"
         id="path94"
         inkscape:connector-curvature="0"
         style="stroke-width:0.41679999" />
      <path
         d="m 340.496,229.656 c -4.507,1.932 -5.923,7.985 -4.25,11.333 1.677,3.348 6.957,3.606 10.177,1.416 M 327.88,224.896 c -4.12,4.636 0.643,13.651 7.987,11.462 m -18.547,-15.07 c -3.863,5.409 0.387,14.424 10.303,11.848 m 0.513,25.112 c -1.03,-6.44 5.667,-10.689 13.91,-2.318 m -3.99,-13.002 c -2.447,2.19 -3.603,5.666 -3.22,8.5 M 306.76,218.2 c -4.25,7.212 0.903,13.78 10.046,11.204 m 13.778,6.692 c -6.053,6.053 -3.993,12.106 0.513,15.582 m -4.377,-8.494 c -9.143,0.129 -9.657,10.689 -2.187,14.038 m -4.765,-24.598 c -3.733,2.576 -4.893,9.658 1.547,12.492 m -1.803,3.348 c -3.863,-1.803 -8.5,0.386 -8.114,4.894 m 2.314,-4.766 c -3.477,-8.242 -13.65,-6.825 -12.746,1.674 m 15.578,-11.85 c -2.187,0.386 -6.567,1.674 -8.24,5.023 m 0.648,-14.295 c -4.12,4.636 -0.903,10.174 2.447,11.333 M 296.72,216.136 c -0.773,5.538 1.417,8.242 8.37,7.727 m -5.93,-0.639 c -2.707,6.697 0.9,9.658 7.853,9.272 m -6.309,-1.032 c -4.12,4.894 -1.287,10.174 2.703,12.363 m -4.631,-6.179 c -7.34,-0.902 -8.5,7.598 -6.053,11.59"
         id="path96"
         inkscape:connector-curvature="0"
         style="stroke-width:0.41679999" />
      <path
         d="m 292.848,215.496 c -4.506,1.932 -7.081,7.598 -4.635,11.075 2.448,3.477 7.342,2.318 10.045,0.515 m -8.498,1.026 c -3.734,5.666 -0.387,9.916 3.607,11.59"
         id="path98"
         inkscape:connector-curvature="0"
         style="stroke-width:0.41679999" />
      <path
         d="m 275.336,214.848 c -2.962,3.09 -1.159,9.402 6.053,9.53 5.806,0.104 8.757,-5.409 6.954,-9.272 m -7.983,9.27 c -2.318,5.151 -0.901,10.689 7.856,9.787 m 3.736,8.117 c -5.409,-2.447 -12.62,0 -9.53,6.44 m -0.774,-15.584 c -2.19,3.09 -1.417,7.47 1.03,10.174 m -1.414,-1.934 c -3.606,0.644 -7.083,2.576 -4.894,8.242 m -0.522,-4.634 c -4.636,-1.417 -10.56,1.932 -6.954,6.697 m -0.766,-4.505 c -3.992,-0.644 -8.757,3.606 -4.894,7.856 m -1.546,-3.48 c -3.606,0.902 -7.856,5.023 -4.121,8.242 m 22.281,-28.458 c -5.151,2.318 -5.667,8.114 -3.22,12.363 m -2.196,-23.051 c -7.727,2.962 -7.598,13.265 0.901,16.484 m -3.605,-2.324 c -4.636,2.704 -5.538,7.856 -2.447,11.204 m -5.665,-29.228 c -3.091,1.03 -2.833,10.56 5.409,10.302 M 255.12,220 c -6.182,4.121 1.288,14.552 11.333,7.083 m -5.541,2.573 c -0.901,4.25 0.258,8.886 7.083,9.402 m -6.699,-3.73 c -4.894,1.803 -5.795,11.848 3.09,12.62 M 245.72,226.184 c -6.31,5.795 5.151,10.818 9.402,2.447 m -18.162,7.209 c -3.091,3.735 7.727,13.522 12.492,-2.833 m 1.156,-0.255 c 0.257,3.863 2.576,6.181 7.34,6.439 m -0.124,3.737 c -7.598,1.159 -10.045,10.689 -1.545,12.75 M 243.784,241.64 c -0.258,3.606 3.477,6.568 7.727,5.924 m 3.865,7.852 c -6.954,1.545 -7.856,10.56 -1.674,10.045 m -3.222,8.371 c -5.796,-1.738 -5.924,-8.629 -0.773,-11.204"
         id="path100"
         inkscape:connector-curvature="0"
         style="stroke-width:0.41679999" />
      <path
         d="m 245.72,267.776 c -4.893,2.962 -2.962,10.045 -0.386,11.075 2.575,1.03 4.636,-0.257 4.894,-2.446 m -0.388,9.915 c 0.515,3.348 -11.913,2.06 -5.537,-8.37 m -0.071,8.954 c -4.185,6.568 2.64,11.912 6.954,6.31 m -6.37,1.61 c -1.674,5.28 4.7,9.08 8.82,4.959 m -22.732,-54.415 c -2.318,4.765 9.272,6.568 10.045,-3.22 m -13.261,10.308 c -2.318,9.272 15.196,7.34 10.689,-4.636 m 0.383,6.18 c 2.447,1.417 9.788,1.545 11.59,-6.31 m -5.278,6.566 c 0.515,2.447 2.704,5.409 4.765,6.31 m -13.133,-3.862 c -0.773,5.023 4.25,9.144 10.045,8.758 M 237.6,261.6 c -2.833,3.864 -3.735,11.333 5.152,11.848 m -18.672,-10.56 c -1.417,3.992 6.954,8.114 11.848,1.545 m -14.424,8.623 c -0.709,3.027 6.825,7.083 11.075,-5.795 m -3.347,6.571 c 1.803,3.22 7.856,5.795 11.59,-0.515 m -6.054,3.867 c -1.545,4.507 2.705,8.757 7.856,7.47 m -17.512,-8.502 c -1.03,6.439 6.439,10.174 11.075,6.825 m -15.971,-3.993 c -2.189,8.242 8.371,11.333 12.363,5.151 m -2.699,2.449 c 0.387,4.636 7.599,8.628 13.265,4.765 M 217,290.448 c -0.515,2.06 8.114,4.121 9.4,-3.091 m -4.376,4.891 c 2.06,5.28 9.014,6.568 13.007,0.129 m -2.319,2.575 c 0.902,4.894 7.212,7.598 12.75,4.25 m 2.314,1.934 c -1.416,6.568 5.409,11.848 9.658,8.242 m -20.602,-9.402 c -2.06,7.212 6.954,11.333 11.977,7.34 m -22.793,-10.948 c -0.515,6.697 4.765,10.689 10.818,7.727 m -22.282,-7.079 c -1.803,4.379 7.727,7.985 12.234,4.25 m -18.162,7.726 c 2.447,2.833 10.946,0 11.72,-6.31 m -2.312,4.63 c 3.09,3.606 10.431,5.538 13.394,-2.19 m -2.578,3.998 c -0.129,5.538 9.788,9.53 13.007,-0.644 m 11.649,1.996 c -0.902,2.705 1.224,7.018 5.666,7.533 M 245.328,308.8 c -0.644,3.09 3.864,7.404 8.629,5.666 m 0.907,1.286 c -1.288,3.348 -0.194,8.177 4.314,8.113 M 255.312,322 c -3.348,2.833 -1.932,7.856 2.898,8.05 m -4.634,-3.29 c -4.765,3.218 -3.09,10.302 3.22,9.918 m -17.644,-23.566 c 0,6.954 8.628,7.984 10.302,1.545 m -3.35,4.119 c -1.288,4.121 2.06,8.114 7.34,6.954 m -6.308,42.758 c 1.16,1.677 5.924,-1.157 4.636,-3.99 -1.287,-2.833 -6.335,-1.293 -5.795,1.673 m 4.631,-2.835 c 0.644,-5.667 -6.053,-6.567 -7.727,-1.673 m 2.447,-2.831 c 1.674,-2.833 -3.992,-6.697 -6.31,-2.577 m 2.062,-1.679 c 1.545,-4.123 -4.894,-5.923 -5.409,-2.19 m -1.415,-5.41 c 0.773,-2.06 7.985,-0.773 4.894,3.477 m 5.538,5.155 c 2.833,-2.577 -1.931,-7.857 -4.894,-5.923 m 23.95,13.779 c -2.254,0.257 -4.573,1.737 -2.898,6.503 1.16,3.307 6.117,3.477 6.825,1.48"
         id="path102"
         inkscape:connector-curvature="0"
         style="stroke-width:0.41679999" />
      <path
         d="m 260.464,365.848 c -2.19,-1.417 -6.954,0.967 -4.765,5.603 1.648,3.49 5.795,2.06 6.44,0.257 m -13.979,0.772 c 1.094,1.93 6.567,1.097 7.533,-1.03 m -3.797,-5.346 c 1.159,-0.773 3.283,0.19 3.735,1.157 m -4.119,-32.901 c -3.735,2.447 -1.417,9.917 4.379,7.983 m -5.539,-1.927 c -2.962,2.317 -0.258,9.53 5.28,6.827 m -4.376,-0.003 c -2.06,2.06 -0.065,7.79 5.28,6.697 m -6.056,-3.865 c -1.16,-0.517 -4.186,-0.13 -5.474,1.8 m 2.13,-27.88 c -2.833,2.704 -1.481,8.243 3.799,8.693 m -4.831,-3.029 c -4.057,1.997 -4.057,10.043 4.056,10.366 m -4.376,-1.286 c -2.253,1.803 -1.159,8.757 4.636,7.853 m -2.772,-0.253 c -0.838,0.837 -0.967,2.963 -0.258,3.863 m -2.318,-6.503 c -2.06,0.063 -4.765,1.547 -5.474,3.67 m -3.734,-7.47 c 0.773,-2.06 7.148,-1.93 7.598,4.123 m 0.642,-7.211 c -0.902,0.193 -2.64,1.03 -3.09,2.77 m 0.322,-21.634 c -2.77,2.511 -4.121,10.432 4.314,11.976 m -9.914,4.376 c 0,-2.127 5.731,-3.93 7.727,-0.773 m -11.399,-10.755 c 0.837,1.61 4.829,3.8 7.276,1.997 m -28.012,-14.613 c -0.128,3.735 2.962,7.083 7.212,6.568 4.25,-0.515 5.151,-4.25 3.863,-6.697 m -3.219,6.825 c -2.833,3.477 0.644,8.371 3.863,6.954 m -0.639,-9.402 c 1.674,-0.644 7.212,-1.417 8.886,1.159 m -26.79,-0.127 c -1.288,1.932 6.697,3.864 9.4,0.129 m -2.704,1.927 c -0.258,2.576 1.03,6.954 7.598,5.151"
         id="path104"
         inkscape:connector-curvature="0"
         style="stroke-width:0.41679999" />
      <path
         d="m 219.832,326.632 c 1.03,-2.19 -3.864,-5.795 -7.598,-1.803 -3.735,3.992 0.515,8.5 2.833,6.953 m -12.363,-13.774 c -1.932,3.348 5.538,9.466 9.788,3.8"
         id="path106"
         inkscape:connector-curvature="0"
         style="stroke-width:0.41679999" />
      <path
         d="m 197.744,323.8 c -2.704,2.77 0.644,7.857 4.701,6.31 4.056,-1.545 3.67,-5.795 2.705,-6.889"
         id="path108"
         inkscape:connector-curvature="0"
         style="stroke-width:0.41679999" />
      <path
         d="m 192.528,328.952 c -2.19,1.995 -0.065,6.695 2.962,6.695 3.026,0 4.894,-2.38 4.314,-5.406 m 5.02,-1.673 c -0.387,2.962 3.992,5.022 6.825,2.255 m 0.135,-5.415 c 0.386,-0.644 0.065,-1.74 -0.579,-2.254 m -23.373,9.79 c -2.51,1.997 2.898,7.533 6.31,2.447 m 13.066,-3.543 c -1.61,1.543 0.965,5.6 3.541,4.377 m -12.357,-1.545 c 0.386,2.767 5.795,4.827 9.208,0.58 m -6.248,2.188 c -0.837,1.74 0.838,4.51 2.898,4.123 m 48.358,11.789 c -1.995,3.927 4.379,8.5 9.015,3.733 m -4.383,2.123 c -0.965,2.123 0.194,5.087 1.932,6.18 m -7.98,-1.74 c 0.451,-1.933 3.22,-3.737 5.731,-2.833 m -9.083,-2.255 c 0.386,-1.737 2.704,-3.477 4.443,-3.023 M 399.48,278.208 c -9.143,0.129 -5.28,14.81 2.577,11.848 m -5.537,-1.024 c -1.803,2.962 1.673,7.663 5.537,4.894 m -1.025,0.578 c -2.707,4.507 6.953,11.397 10.817,4.314 m -3.089,2.702 c 0.127,4.25 12.49,6.954 10.69,-1.545 m -1.162,4.633 c 2.96,5.022 14.037,5.538 12.877,-1.932 m -2.445,5.156 c 2.32,3.348 13.137,5.409 12.75,-1.546 M 384.8,265.464 c 1.543,3.992 6.823,5.409 12.62,3.09 m -15.964,-0.258 c 3.607,2.318 -1.673,12.878 -7.21,8.628 m 7.21,-2.06 c 3.993,1.932 8.886,0.515 10.303,-5.151 m -2.447,4.375 c 0.387,2.962 4.637,5.28 10.174,4.121 m -20.094,-1.025 c 5.153,4.379 -2.317,13.394 -5.667,9.272 m 7.603,-5.928 c 2.447,1.803 8.757,0.773 9.4,-3.992 m -2.832,3.992 c 0.517,3.09 2.963,4.25 6.44,4.379 m -14.424,-0.131 c 2.573,3.606 9.014,4.636 11.846,-0.129 m -2.838,2.705 c -0.257,3.477 3.607,6.31 7.6,5.538 m -21.632,2.19 c 3.347,1.674 6.953,-4.636 4.12,-9.014 m -0.256,15.71 c 3.993,0.258 4.507,-5.795 0.773,-9.144 m 8.371,14.68 c 3.35,-0.773 2.317,-8.114 -5.797,-8.758 m 15.965,14.174 c 3.22,-0.902 0.643,-9.015 -8.24,-8.5 m 20.48,11.332 c 2.187,-3.348 -5.023,-9.014 -10.946,-6.053 m 16.994,10.685 c 3.993,1.159 6.697,-9.4 -5.923,-7.727 m 13.267,7.727 c 3.48,-0.901 5.927,-7.212 -4.247,-5.151 m 11.975,5.671 c 3.09,1.546 4.507,-7.47 -4.897,-5.022 M 379.52,292.632 c 3.863,2.19 9.917,-0.386 9.4,-5.28 m -1.544,4.256 c 1.29,2.318 0.773,6.825 -1.673,7.984 m 2.057,-2.576 c 2.577,1.03 6.053,0.129 8.114,-3.992 m -3.602,3.992 c 0.77,1.803 1.03,5.409 -0.647,7.212 m 1.295,-4.124 c 2.833,1.545 6.18,-0.515 7.597,-3.477 m -1.805,2.573 c 2.06,1.288 3.863,7.34 0.387,9.788 m 1.933,-2.828 c 2.447,0.129 6.053,0.129 8.37,-2.962 m -1.674,1.674 c 2.19,0.644 4.763,4.25 3.863,7.47 m 0.129,-1.166 c 2.45,-0.258 6.697,-1.932 7.857,-4.894 m -1.161,1.934 c 2.063,1.159 3.48,3.606 3.22,6.439 m -0.004,-2.063 c 2.447,-0.129 4.637,-1.416 5.28,-4.121 m -0.64,1.809 c 1.803,0.644 3.993,2.704 4.123,5.151 m -0.259,-1.551 c 1.803,-0.258 3.09,-1.417 4.25,-3.22 m 4.894,-0.252 c 2.32,2.318 -0.77,10.046 -5.537,8.629 M 389.824,154.32 c -4.767,2.833 -18.29,1.932 -11.594,-9.272 m 12.882,1.672 c -9.4,3.735 -20.994,-3.477 -8.886,-11.333 m -3.218,-2.571 c -7.857,0 -13.137,12.62 -2.573,17 m -27.947,-11.72 c -2.06,3.992 5.28,8.37 10.303,4.379 3.89,-3.093 3.604,-11.462 1.287,-14.682 m -15.582,19.831 c -2.577,8.5 16.357,9.014 13.394,-4.508 m -14.426,17.132 c 0.643,6.439 18.16,4.379 12.49,-8.629 m 2.062,-3.611 c 1.417,1.932 5.28,5.28 11.846,4.636 m -8.758,-13.78 c 0.58,2.318 4.507,4.121 9.53,2.383 m -185.25,193.561 c -4.443,3.157 2.383,8.114 4.894,2.64 m -8.374,-0.192 c -4.442,3.153 2.383,8.11 4.894,2.637 m -8.566,-0.253 c -4.444,3.157 2.382,8.114 4.894,2.64 m -8.758,-0.448 c -4.25,2.253 0.708,7.79 5.022,2.897 m -9.206,-0.769 c -4.25,2.25 0.709,7.79 5.023,2.897 m 16.553,-9.537 c -0.065,3.283 6.182,4.637 8.434,-0.26 m -4.506,3.292 c -1.932,2.447 1.61,5.473 3.542,4.377 m -11.854,-4.833 c -0.194,2.77 5.215,4.38 7.856,1.353 m -4.888,1.551 c -1.739,2.253 1.674,5.28 3.863,4.377 m -10.431,-4.769 c 0.193,2.19 3.283,4.7 6.632,3.283 m -4.64,-0.323 c -1.288,1.16 -0.644,3.867 1.159,4.703 m -7.855,-4.895 c -0.515,1.997 2.898,5.54 6.375,3.22 m -5.671,-0.9 c -2.06,1.61 -1.803,4.057 0.837,4.377 m -5.789,-4.633 c -0.257,1.35 1.482,3.54 3.671,3.283 m -14.687,-3.411 c -2.06,1.093 3.22,6.697 6.503,1.48 m -11.591,0.832 c -2.576,1.227 3.8,7.407 6.633,1.097 m 10.047,-1.353 c -1.997,0.45 -3.284,3.35 -1.61,4.507 m -4.894,-3.475 c -0.258,1.16 2.19,3.09 4.186,2.383 m -5.858,-1.863 c -1.932,1.223 -0.902,4.633 1.353,4.12 m -8.241,-1.872 c -1.803,1.35 -0.58,4.057 1.932,3.413 m 1.348,-3.605 c 0.065,0.707 1.674,1.803 3.027,1.353 m -12.555,-2.513 c -2.253,0.967 -2.124,6.633 5.474,3.543 M 149,353.872 c -3.156,1.547 -2.125,5.797 4.765,1.74 m 0.579,0.324 c -0.837,0.643 -1.738,3.477 1.417,2.38 m -7.209,-1.036 c -1.288,1.16 -0.45,3.543 2.383,2.64 m -9.015,-2.248 c -2.318,1.353 2.768,3.157 6.182,-0.45 m -4.638,2.122 c -1.03,1.03 -1.03,4.057 1.674,2.963 m -8.242,-1.739 c -1.545,1.16 1.094,2.707 5.924,0.58 m -3.996,1.092 c -1.803,1.48 -1.61,3.347 1.03,2.767 m -6.374,-1.927 c -1.996,1.803 0.901,3.027 4.379,1.543 m -4.315,0.457 c -3.413,1.543 -1.932,4.377 0.193,3.283 m 113.783,6.565 c -0.791,1.703 1.803,3.09 4.25,2.703 2.35,-0.37 4.599,-2.306 2.833,-5.02 m 0.125,3.349 c 2.318,1.803 6.439,-0.257 6.439,-2.963"
         id="path110"
         inkscape:connector-curvature="0"
         style="stroke-width:0.41679999" />
    </g>
    <g
       id="g156"
       style="fill:#ffffff">
      <path
         d="m 396.776,103.064 c -10.303,-5.151 -31.68,-14.682 -37.734,-6.954 5.537,-2.318 21.764,0.129 35.157,12.492 z"
         id="path114"
         inkscape:connector-curvature="0"
         style="stroke-width:0.41679999" />
      <path
         d="M 403.024,102.52 C 391.11,88.642 384.094,91.749 375.527,86.969 c -8.046,-4.492 -20.863,-5.41 -23.346,1.733 11.757,-5.726 22.55,3.08 29.18,4.145 9.106,1.462 14.246,8.502 16.91,11.74 l 4.754,-2.067 z m 44.88,-1.776 C 441.721,86.578 428.501,90.278 422.661,84.26 c -8.497,-8.757 -30.003,-16.87 -38.89,-10.818 19.573,-1.03 27.91,13.492 38.376,18.545 7.47,3.606 15.454,11.333 25.757,8.758 z"
         id="path116"
         inkscape:connector-curvature="0"
         style="stroke-width:0.41679999" />
      <path
         d="m 424.728,99.2 c -10.56,-13.136 -26.79,-24.726 -34.257,-20.348 9.787,0.515 12.877,7.34 19.834,11.72 6.953,4.378 3.863,10.688 14.423,8.628 z m -50.232,23.184 c -11.077,-4.121 -32.71,-6.181 -42.757,6.44 16.743,2.832 41.983,1.287 42.757,-6.44 z"
         id="path118"
         inkscape:connector-curvature="0"
         style="stroke-width:0.41679999" />
      <path
         d="m 372.44,127.28 c -11.077,-5.151 -19.726,2.044 -30.137,1.03 -19.83,-1.932 -33.997,-0.773 -35.8,8.758 11.334,-10.174 30.394,-1.803 38.12,-3.864 7.727,-2.06 36.317,-0.257 45.33,3.606 -4.636,-5.666 -11.846,-7.212 -17.513,-9.53 z m 34.768,-29.496 c -2.573,-8.5 -2.447,-17.514 10.303,-16.87 -3.22,-3.993 -15.066,-6.053 -17,8.886 -14.037,-10.302 -29.363,-12.106 -32.193,-3.22 7.21,-6.181 18.413,-1.674 31.806,13.523 1.16,-0.644 4.25,-1.932 7.083,-2.318 z"
         id="path120"
         inkscape:connector-curvature="0"
         style="stroke-width:0.41679999" />
      <path
         d="m 387.896,109.504 c -7.983,-5.151 -18.803,-13.522 0.13,-16.87 -8.114,-4.379 -19.963,-2.447 -18.674,12.492 -21.636,-8.758 -37.173,-5.802 -40.44,2.833 -3.606,9.53 9.79,14.81 12.107,8.757 -2.447,1.03 -10.817,-1.803 -6.44,-7.212 4.38,-5.408 26.82,-1.348 48.166,9.788 5.924,3.09 26.27,2.576 5.15,-9.788 z"
         id="path122"
         inkscape:connector-curvature="0"
         style="stroke-width:0.41679999" />
      <path
         d="m 382.224,123.672 c -6.16,-12.578 -26.143,-1.159 -30.17,-13.342 -5.504,17.85 28.416,7.972 30.17,13.342 z m 127.112,13.648 c 4.19,2.082 7.813,-1.191 1.403,-3.758 4.194,2.08 7.85,-1.114 1.44,-3.683 4.194,2.081 7.85,-1.113 1.44,-3.682 -1.71,1.722 -4.156,8.032 -4.283,11.123 z m 2.184,-24.208 c 9.274,-9.787 -0.77,-13.136 10.56,-23.18 9.274,-8.22 1.77,-13.697 10.563,-20.091 2.834,-2.06 9.014,-6.182 9.53,-10.303 3.734,9.272 -11.593,10.56 -10.563,25.5 0.657,9.512 -5.773,8.68 -8.24,24.726 -0.516,3.348 -2.833,10.818 -11.85,3.348 z"
         id="path124"
         inkscape:connector-curvature="0"
         style="stroke-width:0.41679999" />
      <path
         d="m 515.648,117.488 c 5.15,-11.075 11.063,-10.862 13.906,-15.196 5.41,-8.242 16.87,1.417 26.53,-5.924 -1.673,10.431 -14.68,6.697 -20.346,13.394 -5.666,6.696 -10.303,9.788 -20.09,7.727 z"
         id="path126"
         inkscape:connector-curvature="0"
         style="stroke-width:0.41679999" />
      <path
         d="m 516.936,121.096 c 9.017,-7.212 15.66,-2.4 21.894,-6.182 15.71,-9.53 22.023,1.932 36.06,-2.575 -3.737,9.014 -24.47,1.288 -33.484,7.984 -9.016,6.697 -40.696,13.136 -24.47,0.773 z m -26.272,51.384 c -0.13,-4.121 -3.993,-9.402 -9.403,-10.045 -5.407,-0.644 -7.727,-6.31 -11.847,-6.568 -4.12,-0.257 -6.826,-8.5 -12.493,-8.371 -5.667,0.129 -7.984,7.47 5.28,14.166 13.266,6.697 27.946,14.424 28.463,10.819 z m -16.744,3.48 c -5.667,0.258 -6.44,8.5 -11.846,8.758 7.466,3.992 12.876,-1.803 16.74,-6.955 z"
         id="path128"
         inkscape:connector-curvature="0"
         style="stroke-width:0.41679999" />
      <path
         d="m 478.56,176.984 c -4.893,4.121 -6.31,12.75 0.773,15.196 -4.25,-5.86 7.47,-8.5 3.864,-13.909 z"
         id="path130"
         inkscape:connector-curvature="0"
         style="stroke-width:0.41679999" />
      <path
         d="m 483.448,177.248 c -3.863,7.47 6.053,8.37 3.477,14.038 5.666,-1.288 6.57,-11.977 1.416,-14.81 z"
         id="path132"
         inkscape:connector-curvature="0"
         style="stroke-width:0.41679999" />
      <path
         d="m 445.584,161.272 c 9.274,-0.515 17.754,4.501 23.44,12.62 3.607,5.152 15.71,7.212 19.834,3.091 4.12,-4.12 1.803,-12.878 -8.5,-10.044 -2.577,-4.379 -10.047,-2.834 -13.65,-6.44 -3.607,-3.605 -17.518,-13.908 -21.124,0.773 z"
         id="path134"
         inkscape:connector-curvature="0"
         style="stroke-width:0.41679999" />
      <path
         d="m 480.36,166.944 c -2.447,0.515 -3.22,4.765 -1.677,6.954 m 6.957,-4.378 c 0.773,1.288 0.257,3.09 -0.13,3.992 m -25.238,-11.848 c 4.763,0.258 5.667,3.735 10.817,5.023"
         id="path136"
         inkscape:connector-curvature="0"
         style="stroke-width:0.41679999;stroke-linecap:round" />
      <path
         d="m 457.12,149.944 c 16.457,4.121 29.514,7.727 37.61,12.363 8.097,4.637 20.634,5.924 31.604,2.834 10.97,-3.091 32.123,-5.924 31.08,7.727 5.75,-6.826 -1.567,-14.167 -16.194,-15.455 0.263,-6.696 -6.903,-12.75 -12.057,-8.757 4.767,-0.644 8.88,8.242 -0.52,11.848 1.827,-6.697 -4.833,-12.75 -11.753,-9.788 4.44,1.288 8.93,8.734 -1.004,11.59 -6.27,1.804 -15.41,-0.514 -22.2,-4.635 -6.79,-4.122 -44.923,-19.06 -36.566,-7.727 z"
         id="path138"
         inkscape:connector-curvature="0"
         style="stroke-width:0.41679999" />
      <path
         d="m 498.648,143.248 c -5.15,2.318 -1.803,7.727 -9.786,10.818 -7.987,3.09 -13.524,10.173 -11.72,16.226 5.41,-11.848 14.94,-11.333 18.286,-15.969 3.35,-4.636 8.243,-11.461 3.22,-11.075 z"
         id="path140"
         inkscape:connector-curvature="0"
         style="stroke-width:0.41679999" />
      <path
         d="m 500.064,144.016 c -0.257,9.4 -7.657,5.976 -4.767,19.189 0.904,4.12 2.577,10.817 -0.256,17.514 8.306,-6.052 2.963,-18.768 6.696,-23.567 1.804,-2.318 4.12,-5.924 5.024,-9.014 -1.934,5.408 -1.804,15.454 3.476,18.03 -4.25,-10.046 11.464,-18.288 0.644,-29.878 -1.544,2.833 -6.44,7.855 -10.817,7.727 z m -26.272,-9.4 c 1.29,1.932 2.577,6.826 1.417,9.53 2.576,-1.545 6.313,-5.537 7.47,-8.242 5.28,0.773 7.34,7.34 2.32,10.174 3.09,0 8.37,0 11.33,-3.477 -3.603,-3.993 -14.806,-10.175 -22.537,-7.985 z"
         id="path142"
         inkscape:connector-curvature="0"
         style="stroke-width:0.41679999" />
      <path
         d="m 393.688,116.144 c -0.833,-0.76 -2.24,-1.481 -4.763,-2 -7.797,-1.599 -3.77,-8.627 2.866,-8.564 14.163,-15.454 22.117,-3.541 39.374,-8.435 6.04,-1.712 10.186,-1.206 13.477,0.217 7.726,-5.15 16.79,-3.712 23.36,2.341 0.73,-1.16 1.71,-2.047 3.086,-2.43 6.05,-1.68 10.944,3.48 12.617,10.176 4.717,-0.874 10.103,1.46 13.647,4.68 4.906,-2.52 8.286,-2.632 9.53,-0.04 4.38,-2.061 10.054,-3.353 12.886,3.601 2.834,6.954 -6.696,4.894 -8.243,19.575 -0.953,9.057 -11.073,12.621 -19.06,7.212 -12.773,-8.653 -25.24,-10.045 -31.423,3.09 -6.18,13.137 -11.023,20.769 -26.014,16.485 -5.406,-1.546 -12.363,0.515 -16.74,6.439 -4.38,5.924 -11.076,0.386 -19.06,1.03 10.044,-1.545 6.197,-4.072 14.94,-4.636 7.984,-0.515 5.924,-7.984 11.074,-9.015 -20.09,5.152 -19.317,-2.318 -35.8,2.833 7.21,-9.272 18.543,-4.12 24.21,-9.53 -14.94,-0.257 -21.62,-10.017 -28.333,-5.923 -10.56,6.439 -5.927,24.772 -33.483,23.18 -13.394,-0.772 -21.894,1.03 -29.877,9.016 13.91,-28.847 32.83,-13 41.983,-22.15 5.41,-5.41 9.53,-9.531 12.363,-14.682 0.997,-1.814 2.347,-2.85 4.033,-3.25 -22.923,-7.213 -9.06,-18.447 13.35,-19.219 z"
         id="path144"
         inkscape:connector-curvature="0"
         style="stroke-width:0.41679999" />
      <path
         d="m 506.872,112.088 c 0.35,0.724 0.53,1.664 0.53,2.826 0,5.666 -8.5,5.924 -9.014,14.295 -0.27,4.379 -0.773,6.826 -3.736,6.31 -2.96,-0.515 -5.537,-5.15 -2.704,-10.56"
         id="path146"
         inkscape:connector-curvature="0"
         style="stroke-width:0.41679999;stroke-linecap:round" />
      <path
         d="m 397.936,107.704 c -2.133,-1.499 -4.267,-2.108 -6.18,-2.126 m 52.836,-8.258 c 6.82,2.953 10.146,10.037 20.054,10.384 9.536,0.335 15.456,14.166 31.423,5.151 0.433,-0.244 0.856,-0.472 1.266,-0.683 M 468,99.704 c -1.423,2.263 -1.747,5.423 -1.357,8.195 m -29.811,20.925 c -12.103,0 -15.197,6.181 -15.197,12.106 0,5.924 5.667,13.65 15.714,13.65 10.043,0 15.453,-6.18 15.453,-12.878 0,-6.697 -6.183,-12.878 -15.97,-12.878 z"
         id="path148"
         inkscape:connector-curvature="0"
         style="stroke-width:0.41679999" />
      <path
         d="m 439.016,154.32 c -0.257,-3.348 -6.31,-2.833 -6.053,-5.409 0.256,-2.576 3.35,-3.606 3.35,-7.212 0,-3.606 5.406,-3.863 7.21,-1.03 1.803,2.833 7.213,8.37 8.373,5.538 m -8.368,-5.535 c -2.833,2.833 -4.12,8.628 -0.387,13.136 m 4.251,-8.76 c -0.9,1.932 -1.157,4.894 -0.127,6.697"
         id="path150"
         inkscape:connector-curvature="0"
         style="stroke-width:0.41679999" />
      <path
         d="m 495.488,135.584 c 9.466,0.773 11.077,-9.66 3.993,-10.302 M 483.84,107.448 c -3.283,-4.185 -10.817,-5.602 -10.946,3.284"
         id="path152"
         inkscape:connector-curvature="0"
         style="fill:none;stroke-width:0.41679999" />
      <path
         d="m 471.992,120.84 c -3.22,-7.985 -11.463,-9.144 -15.843,-5.151 -3.644,3.322 -3.734,11.976 4.123,13.78 2.704,-3.22 7.984,-7.47 11.72,-8.628 z m -3.544,-5.024 c -4.637,-4.121 -11.463,3.67 -5.28,10.818 m -82.92,8.694 c 3.103,-0.737 7.64,0.782 14.597,4.054 4.38,2.06 17.517,6.44 25.757,2.06 -8.5,3.091 -14.937,-9.787 -21.377,-8.242 -6.44,1.546 -18.223,3.928 -23.18,-0.773 12.103,0.773 18.613,-8.817 32.45,-0.515 3.867,2.318 8.76,3.864 13.137,3.606 -11.33,-13.651 -26.27,-4.894 -27.817,-15.969 6.827,7.341 23.503,-1.674 32.003,12.106 m -29.554,-10.047 c -1.593,-1.983 -0.873,-3.96 -2.583,-5.524"
         id="path154"
         inkscape:connector-curvature="0"
         style="stroke-width:0.41679999" />
    </g>
    <path
       d="m 483.84,107.448 c -2.833,-3.026 -9.014,-0.644 -7.277,5.474 1.354,-2.833 4.25,-5.216 7.277,-5.474 z m -17.512,16.496 c 1.95,-1.416 3.963,-2.579 5.66,-3.105 -0.927,-2.292 -2.263,-4.021 -3.807,-5.228 -1.473,-1.018 -5.706,4.675 -1.853,8.333 z"
       id="path158"
       inkscape:connector-curvature="0"
       style="stroke:none" />
    <g
       id="g162"
       style="fill:none;stroke-linecap:round">
      <path
         d="m 458.72,113.496 c -4.637,-3.09 -8.886,-2.833 -10.303,-0.257 -3.347,-0.13 -6.117,2.318 -6.247,7.211 m 7.15,2.062 c -5.537,-3.799 -13.137,-2.382 -12.62,6.118 m -3.348,4.826 c 2.703,-2.19 6.567,-3.735 9.53,0.129 m 31.814,-8.497 c -1.03,1.416 -1.803,3.606 -0.13,6.954 -2.06,-2.704 -7.21,-2.704 -12.75,4.507 m 25.112,-11.845 c -6.697,0.773 -6.567,5.151 -1.16,7.083 M 439.28,108.344 c -5.667,-1.159 -9.786,2.19 -1.93,5.023 m 12.746,-8.887 c -7.987,-1.932 -11.206,0.129 -7.6,1.932 m -15.456,30.14 c -0.257,2.833 1.287,6.568 5.923,2.318 m -4.371,6.178 c 0,0.773 -0.13,1.674 -0.647,2.318 M 410.04,107.312 c -4.893,-1.417 -5.793,-5.924 -0.127,-5.538 m -1.545,15.97 c -5.41,-1.803 -5.41,-7.083 -0.903,-6.568 m 10.951,3.864 c -6.31,-1.546 -6.567,-5.924 -1.8,-5.28 m 2.568,-8.112 c -3.347,-0.257 -8.5,3.477 0.13,5.667 m 9.278,1.805 c -7.857,-1.159 -7.727,2.06 -3.093,4.121 m 9.013,-11.593 c -6.053,-1.159 -8.114,2.447 -3.993,3.992 m -15.063,18.288 c -1.483,-1.223 -2.703,-7.083 4.377,-5.344 m 10.303,3.544 c -4.763,-1.288 -9.27,3.348 -4.893,6.053 m 11.197,-11.589 c -5.02,-0.902 -9.27,0.515 -6.567,2.318"
         id="path160"
         inkscape:connector-curvature="0"
         style="stroke-width:0.41679999" />
    </g>
    <path
       d="m 483.568,107.448 c -2.83,0.524 -5.367,2.187 -7.01,5.472"
       id="path164"
       inkscape:connector-curvature="0"
       style="fill:#ffffff;stroke-width:0.41679999" />
  </g>
</svg>
