<?xml version="1.0" encoding="UTF-8" standalone="no"?>
<svg
   xmlns:dc="http://purl.org/dc/elements/1.1/"
   xmlns:cc="http://creativecommons.org/ns#"
   xmlns:rdf="http://www.w3.org/1999/02/22-rdf-syntax-ns#"
   xmlns:svg="http://www.w3.org/2000/svg"
   xmlns="http://www.w3.org/2000/svg"
   xmlns:sodipodi="http://sodipodi.sourceforge.net/DTD/sodipodi-0.dtd"
   xmlns:inkscape="http://www.inkscape.org/namespaces/inkscape"
   height="16"
   width="21.3333"
   viewBox="0 0 21.3333 16"
   version="1.1"
   id="svg14"
   sodipodi:docname="ck.svg"
   inkscape:version="0.92.1 r">
  <metadata
     id="metadata20">
    <rdf:RDF>
      <cc:Work
         rdf:about="">
        <dc:format>image/svg+xml</dc:format>
        <dc:type
           rdf:resource="http://purl.org/dc/dcmitype/StillImage" />
        <dc:title></dc:title>
      </cc:Work>
    </rdf:RDF>
  </metadata>
  <defs
     id="defs18" />
  <sodipodi:namedview
     pagecolor="#ffffff"
     bordercolor="#666666"
     borderopacity="1"
     objecttolerance="10"
     gridtolerance="10"
     guidetolerance="10"
     inkscape:pageopacity="0"
     inkscape:pageshadow="2"
     inkscape:window-width="1920"
     inkscape:window-height="1024"
     id="namedview16"
     showgrid="false"
     inkscape:zoom="0.49166667"
     inkscape:cx="320.003"
     inkscape:cy="240"
     inkscape:window-x="0"
     inkscape:window-y="0"
     inkscape:window-maximized="1"
     inkscape:current-layer="svg14"
     fit-margin-top="0"
     fit-margin-left="0"
     fit-margin-right="0"
     fit-margin-bottom="0" />
  <path
     d="M 9.999939e-5,9.999939e-5 H 21.3333 V 16 H 9.999939e-5 Z"
     id="path2"
     inkscape:connector-curvature="0"
     style="fill:#000066;stroke-width:0.03333313" />
  <g
     id="g10"
     transform="matrix(0.03333313,0,0,0.03333313,9.999939e-5,9.999939e-5)"
     style="stroke-width:1.00000003pt">
    <path
       d="M 0,0 V 24.81 L 319.75,221.916 H 360 v -24.81 L 40.25,0 H 0.002 Z M 360.004,0 V 24.81 L 40.246,221.917 H 0 V 197.103 L 319.75,-0.003 H 360 Z"
       id="path4"
       inkscape:connector-curvature="0"
       style="fill:#ffffff" />
    <path
       d="m 150.003,0 v 221.92 h 60 V 0 Z M 0,73.973 v 73.973 H 360.004 V 73.973 Z"
       id="path6"
       inkscape:connector-curvature="0"
       style="fill:#ffffff" />
    <path
       d="M 0,88.766 V 133.15 H 360.004 V 88.766 Z M 162.003,0 v 221.92 h 36 V 0 Z M 0,221.92 120.004,147.946 h 26.833 L 26.833,221.916 H -0.003 Z M 0,0 120.004,73.973 H 93.17 L 0.004,16.54 V 0 Z M 213.172,73.973 333.168,0 H 360 L 239.998,73.973 H 213.165 Z M 360.004,221.923 240,147.948 h 26.833 L 360,205.38 v 16.542 z"
       id="path8"
       inkscape:connector-curvature="0"
       style="fill:#cc0000" />
  </g>
  <path
     d="m 15.720002,7.10006 0.173332,-0.5556 -0.467097,-0.3549 0.588496,-0.007 0.196099,-0.54789 0.190265,0.55089 0.588563,0.0161 -0.47093,0.34793 0.167599,0.55813 -0.48133,-0.33593 m 0.901661,0.43783 0.346931,-0.46447 -0.322665,-0.49326 0.556863,0.19317 0.365898,-0.44947 -0.0029,0.58373 0.549129,0.21543 -0.558663,0.16754 -0.02667,0.58283 -0.342398,-0.48027 m -3.27988,0.4992 -0.0231,-0.58233 -0.558197,-0.17277 0.550997,-0.20986 9e-4,-0.5829 0.363497,0.4526 0.558997,-0.18767 -0.326431,0.4895 0.344531,0.4672 -0.565197,-0.1501 M 13.41531,8.44994 13.170912,7.92255 12.590416,7.98335 13.01768,7.57278 12.795181,7.03535 l 0.50833,0.27367 0.443064,-0.39327 -0.113133,0.57967 0.496464,0.29466 -0.578263,0.0845 m -0.582463,1.85276 -0.443664,-0.3702 -0.498797,0.30733 0.212499,-0.55666 -0.428164,-0.3888 0.574896,0.0262 0.234099,-0.54799 0.142766,0.57299 0.572996,0.0503 -0.486664,0.32786 m 0.109166,2.01389 -0.552263,-0.16057 -0.336998,0.48327 -0.02343,-0.5965 -0.54533,-0.18386 0.537663,-0.208 -1.33e-4,-0.5972 0.355731,0.468 0.545463,-0.18513 -0.317931,0.49723 m 0.984227,1.69505 -0.569129,0.0798 -0.115433,0.58033 -0.259332,-0.53593 -0.572063,0.0557 0.408831,-0.41093 -0.238332,-0.54607 0.511997,0.282 0.424931,-0.3932 -0.0924,0.5852 m 1.501257,1.26519 -0.50693,0.2742 0.0892,0.585 -0.425831,-0.41207 -0.517897,0.25257 0.243799,-0.52876 -0.409598,-0.429 0.576497,0.0853 0.264998,-0.51783 0.112466,0.58156 m 1.794389,0.29877 -0.276665,0.51073 0.389997,0.44033 -0.578663,-0.10887 -0.297464,0.49873 -0.08093,-0.57793 -0.574197,-0.13206 0.528664,-0.24827 -0.0572,-0.58056 0.407664,0.4246 m 1.911088,-0.43743 -0.01723,0.58249 0.54483,0.21217 -0.56413,0.1701 -0.04123,0.58139 -0.331331,-0.47733 -0.57053,0.14744 0.359431,-0.46507 -0.311398,-0.49053 0.553463,0.18993 m 1.813322,-6.77389 0.398131,0.42013 0.530663,-0.24633 -0.274998,0.52783 0.380598,0.43673 -0.567997,-0.094 -0.295465,0.51653 -0.076,-0.58589 -0.56333,-0.11767 0.521064,-0.2681 m 1.141459,0.70346 0.180666,0.55317 0.583563,0.01 -0.472464,0.356 0.157799,0.5605 -0.47253,-0.33313 -0.486164,0.3369 0.180399,-0.5619 -0.458331,-0.35253 0.58413,-0.0141 m 0.650429,1.10686 -0.06687,0.5788 0.52473,0.25916 -0.57653,0.11994 -0.09067,0.57566 -0.289331,-0.50467 -0.580997,0.0968 0.397765,-0.43183 -0.268332,-0.51599 0.53513,0.23776 m 0.0977,1.32649 -0.258898,0.52023 0.404931,0.42633 -0.582063,-0.0884 -0.280199,0.50894 -0.100666,-0.57467 -0.578429,-0.11166 0.519863,-0.26687 -0.07713,-0.57816 0.421998,0.40986 m -0.327798,1.30359 -0.489164,0.30567 0.124899,0.57826 -0.450264,-0.38446 -0.50143,0.28473 0.210932,-0.5431 -0.435097,-0.4024 0.580563,0.0488 0.232765,-0.53353 0.147899,0.57333"
     id="path12"
     inkscape:connector-curvature="0"
     style="fill:#ffffff;fill-rule:evenodd;stroke-width:0.03333313" />
</svg>
