<?xml version="1.0" encoding="UTF-8" standalone="no"?>
<svg
   xmlns:dc="http://purl.org/dc/elements/1.1/"
   xmlns:cc="http://creativecommons.org/ns#"
   xmlns:rdf="http://www.w3.org/1999/02/22-rdf-syntax-ns#"
   xmlns:svg="http://www.w3.org/2000/svg"
   xmlns="http://www.w3.org/2000/svg"
   xmlns:sodipodi="http://sodipodi.sourceforge.net/DTD/sodipodi-0.dtd"
   xmlns:inkscape="http://www.inkscape.org/namespaces/inkscape"
   height="16"
   width="21.333437"
   viewBox="0 0 21.333437 16"
   version="1.1"
   id="svg17"
   sodipodi:docname="cv.svg"
   inkscape:version="0.92.1 r">
  <metadata
     id="metadata21">
    <rdf:RDF>
      <cc:Work
         rdf:about="">
        <dc:format>image/svg+xml</dc:format>
        <dc:type
           rdf:resource="http://purl.org/dc/dcmitype/StillImage" />
        <dc:title></dc:title>
      </cc:Work>
    </rdf:RDF>
  </metadata>
  <sodipodi:namedview
     pagecolor="#ffffff"
     bordercolor="#666666"
     borderopacity="1"
     objecttolerance="10"
     gridtolerance="10"
     guidetolerance="10"
     inkscape:pageopacity="0"
     inkscape:pageshadow="2"
     inkscape:window-width="1920"
     inkscape:window-height="1024"
     id="namedview19"
     showgrid="false"
     fit-margin-top="0"
     fit-margin-left="0"
     fit-margin-right="0"
     fit-margin-bottom="0"
     inkscape:zoom="0.49166667"
     inkscape:cx="320.3042"
     inkscape:cy="241.28"
     inkscape:window-x="0"
     inkscape:window-y="0"
     inkscape:window-maximized="1"
     inkscape:current-layer="svg17" />
  <defs
     id="defs5">
    <clipPath
       id="a">
      <path
         d="M -123.43,0 H 559.24 V 512 H -123.43 Z"
         id="path2"
         inkscape:connector-curvature="0"
         style="fill-opacity:0.67000002" />
    </clipPath>
  </defs>
  <g
     clip-path="url(#a)"
     transform="matrix(0.03125,0,0,0.03125,3.8571875,0)"
     id="g15"
     style="fill-rule:evenodd">
    <path
       d="M -123.43,233.05 H 723.1 v 205.97 h -846.53 z"
       id="path7"
       inkscape:connector-curvature="0"
       style="fill:#ffffff" />
    <path
       d="m -122.76,0 h 845.95 v 256.64 h -845.95 z m 0.24,385.87 H 729.6 V 512 h -852.12 z"
       id="path9"
       inkscape:connector-curvature="0"
       style="fill:#081873" />
    <path
       d="M -122.52,302.55 H 723.43 V 342.2 H -122.52 Z"
       id="path11"
       inkscape:connector-curvature="0"
       style="fill:#de3929" />
    <path
       d="m 130.92,399.168 6.65,20.468 h 21.522 l -17.412,12.65 6.65,20.47 -17.41,-12.65 -17.41,12.65 6.65,-20.47 -17.412,-12.65 h 21.522 m 192.64,-169.138 6.65,20.468 h 21.522 l -17.412,12.65 6.65,20.47 -17.41,-12.65 -17.41,12.65 6.65,-20.47 -17.412,-12.65 h 21.522 m -221.99,64.482 6.65,20.468 h 21.523 l -17.412,12.65 6.652,20.47 -17.41,-12.65 -17.412,12.65 6.65,-20.47 -17.41,-12.65 h 21.52 m 235.289,-26.458 6.65,20.468 h 21.522 l -17.412,12.65 6.65,20.47 -17.41,-12.65 -17.41,12.65 6.65,-20.47 -17.412,-12.65 h 21.522 m -40.44,-161.748 6.65,20.468 h 21.522 l -17.412,12.65 6.65,20.47 -17.41,-12.65 -17.41,12.65 6.65,-20.47 -17.412,-12.65 h 21.522 m -64.43,-45.218 6.65,20.468 h 21.522 l -17.412,12.65 6.65,20.47 -17.41,-12.65 -17.41,12.65 6.65,-20.47 -17.412,-12.65 h 21.522 m -64.44,2.892 6.65,20.468 h 21.522 l -17.412,12.65 6.65,20.47 -17.41,-12.65 -17.41,12.65 6.65,-20.47 -17.412,-12.65 H 121 m -34.816,43.242 6.65,20.468 h 21.522 l -17.412,12.65 6.65,20.47 -17.41,-12.65 -17.41,12.65 6.65,-20.47 -17.412,-12.65 h 21.522 m 119.206,149.442 6.65,20.468 h 21.522 l -17.412,12.65 6.65,20.47 -17.41,-12.65 -17.41,12.65 6.65,-20.47 -17.412,-12.65 h 21.522 m 82.17,-41.708 6.65,20.468 h 21.522 l -17.412,12.65 6.65,20.47 -17.41,-12.65 -17.41,12.65 6.65,-20.47 -17.412,-12.65 h 21.522"
       id="path13"
       inkscape:connector-curvature="0"
       style="fill:#ffce08" />
  </g>
</svg>
