<?xml version="1.0" encoding="UTF-8" standalone="no"?>
<svg
   xmlns:dc="http://purl.org/dc/elements/1.1/"
   xmlns:cc="http://creativecommons.org/ns#"
   xmlns:rdf="http://www.w3.org/1999/02/22-rdf-syntax-ns#"
   xmlns:svg="http://www.w3.org/2000/svg"
   xmlns="http://www.w3.org/2000/svg"
   xmlns:xlink="http://www.w3.org/1999/xlink"
   xmlns:sodipodi="http://sodipodi.sourceforge.net/DTD/sodipodi-0.dtd"
   xmlns:inkscape="http://www.inkscape.org/namespaces/inkscape"
   height="16"
   width="21.333332"
   viewBox="0 0 21.333332 16"
   version="1.1"
   id="svg9"
   sodipodi:docname="cy.svg"
   inkscape:version="0.92.1 r">
  <metadata
     id="metadata15">
    <rdf:RDF>
      <cc:Work
         rdf:about="">
        <dc:format>image/svg+xml</dc:format>
        <dc:type
           rdf:resource="http://purl.org/dc/dcmitype/StillImage" />
        <dc:title></dc:title>
      </cc:Work>
    </rdf:RDF>
  </metadata>
  <defs
     id="defs13" />
  <sodipodi:namedview
     pagecolor="#ffffff"
     bordercolor="#666666"
     borderopacity="1"
     objecttolerance="10"
     gridtolerance="10"
     guidetolerance="10"
     inkscape:pageopacity="0"
     inkscape:pageshadow="2"
     inkscape:window-width="1920"
     inkscape:window-height="1024"
     id="namedview11"
     showgrid="false"
     fit-margin-top="0"
     fit-margin-left="0"
     fit-margin-right="0"
     fit-margin-bottom="0"
     inkscape:zoom="0.49166667"
     inkscape:cx="320"
     inkscape:cy="240"
     inkscape:window-x="0"
     inkscape:window-y="0"
     inkscape:window-maximized="1"
     inkscape:current-layer="svg9" />
  <path
     d="M 0,0 H 21.333333 V 16 H 0 Z"
     id="path2"
     inkscape:connector-curvature="0"
     style="fill:#ffffff;stroke-width:0.03333334" />
  <path
     id="a"
     d="m 10.261333,13.28667 a 0.02716667,0.02716667 0 0 1 -0.0093,-0.007 l -0.0033,-0.003 c -0.0087,-0.008 -0.02293,-0.0219 -0.04217,-0.0438 -0.03553,-0.0403 -0.08317,-0.0994 -0.125067,-0.1516 C 9.998429,12.97774 9.9298293,12.88854 9.9168293,12.87174 l -0.021133,-0.0275 -0.2070667,-0.0639 -0.1512333,-0.0705 0.080833,-0.0908 0.2775334,0.11884 0.2071663,0.0425 0.383,0.28166 -3.33e-4,2.7e-4 c -7.33e-4,6.7e-4 -0.05567,0.0463 -0.110267,0.096 -0.02433,0.0221 -0.055,0.0505 -0.07667,0.0742 -0.01,0.0109 -0.01883,0.0217 -0.02483,0.0304 -0.0037,0.005 -0.0057,0.0102 -0.0067,0.0126 l 0.0238,-0.0148 0.02577,0.02 -0.05247,0.005 -0.0024,5.3e-4 z M 8.8389333,12.85947 C 8.6582,12.85947 8.4797,12.80947 8.3084,12.711 l -2e-4,-10e-5 6.67e-5,-2e-4 c 0,0 0.0224,-0.0427 0.076733,-0.0825 0.051767,-0.038 0.1451333,-0.0834 0.296,-0.084 h 0.00313 c 0.1786667,0 0.3973334,0.0607 0.6499334,0.18053 -0.00853,0.006 -0.2068,0.13484 -0.4950667,0.13484 l 2.667e-4,2.6e-4 z m -0.7832,-0.1736 c -0.0334,0 -0.063433,-0.0127 -0.084533,-0.0355 -0.017333,-0.0188 -0.029667,-0.0439 -0.037933,-0.0768 -0.013433,-0.0538 -0.00973,-0.10734 -0.00933,-0.11244 a 0.116,0.116 0 0 1 0.041667,-0.009 l 0.003,-7e-5 c 0.066933,0 0.1196667,0.0581 0.1423333,0.11567 0.0128,0.0327 0.015267,0.0602 0.00727,0.0818 -0.008,0.0216 -0.033067,0.0365 -0.0624,0.0365 z m 1.3781334,-0.15974 c -0.4629,-0.0661 -0.6591334,-0.23346 -0.7422,-0.3622 C 8.603,12.0266 8.6212333,11.8996 8.6214,11.89833 l 6.67e-5,-4e-4 3.333e-4,-10e-5 c 1.667e-4,0 0.028333,-0.008 0.0709,-0.008 0.1232,0 0.4381667,0.062 0.7413333,0.63584 l 2e-4,3.3e-4 -5.333e-4,-2.3e-4 z m -0.9488,-0.0917 c -0.1977667,0 -0.3483334,-0.0341 -0.4475334,-0.10143 -0.057,-0.0387 -0.0849,-0.0812 -0.098267,-0.11 a 0.18026667,0.18026667 0 0 1 -0.015867,-0.054 c 0.00523,-0.002 0.0862,-0.0383 0.2070667,-0.044 0.010233,-4.7e-4 0.020533,-7.7e-4 0.031333,-8e-4 0.1528333,0 0.3852667,0.0499 0.6305333,0.28746 l 2.334e-4,2.4e-4 h -3.334e-4 c -0.112,0.0147 -0.2154333,0.0224 -0.3074333,0.0224 z m -0.9576,-0.0368 c -0.2085334,0 -0.495,-0.0637 -0.6736667,-0.24233 l -2e-4,-2e-4 5.333e-4,-1.4e-4 c 0.00187,-4.6e-4 0.1957667,-0.0497 0.4139334,-0.055 0.013,-3.3e-4 0.0261,-4.6e-4 0.039333,-4.6e-4 0.1955333,0 0.3451667,0.0379 0.4448667,0.11266 0.0348,0.0261 0.0538,0.0504 0.058067,0.0742 0.00357,0.0199 -0.00693,0.0413 -0.028167,0.0573 -0.044867,0.0339 -0.1251,0.052 -0.2385334,0.0538 l -0.016,5.3e-4 z M 6.8517333,12.05096 a 0.08533333,0.08533333 0 0 1 -0.0661,-0.0311 c -0.013533,-0.0163 -0.022933,-0.0377 -0.0296,-0.0672 -0.011133,-0.0493 -0.00777,-0.0975 -0.00773,-0.098 v -4.7e-4 a 0.081,0.081 0 0 1 0.032467,-0.007 h 6.66e-5 c 0.030867,0 0.054333,0.0168 0.069,0.0309 a 0.18566667,0.18566667 0 0 1 0.045067,0.0705 c 0.00973,0.0275 0.011333,0.0504 0.0048,0.0703 -0.00533,0.0157 -0.023467,0.0323 -0.048,0.0323 z m 1.5608,-0.0352 c -0.0334,0 -0.063433,-0.0127 -0.084533,-0.0355 -0.017333,-0.0188 -0.029667,-0.0439 -0.037933,-0.0768 -0.013433,-0.0538 -0.00973,-0.10733 -0.00933,-0.11243 a 0.116,0.116 0 0 1 0.041667,-0.009 l 0.003,-6e-5 c 0.066933,0 0.1196667,0.0581 0.1423333,0.11566 0.0128,0.0327 0.015267,0.0602 0.00727,0.0818 -0.008,0.0219 -0.033333,0.0365 -0.0624,0.0365 z M 7.6522667,11.98426 C 7.2326,11.9695 7.0148333,11.8502 6.9060333,11.75273 c -0.061233,-0.0549 -0.095267,-0.10933 -0.113,-0.14526 -0.0168,-0.034 -0.023133,-0.06 -0.024267,-0.065 l 5.666e-4,-2.4e-4 c 0,0 0.039667,-0.0142 0.1035667,-0.0155 l 0.00983,-10e-5 c 0.1415,0 0.4296,0.0595 0.7693334,0.45743 v 2.7e-4 z M 8.108,11.94187 c -0.3376667,-0.0514 -0.5289,-0.19634 -0.6299333,-0.30894 -0.1058667,-0.118 -0.1376,-0.2279 -0.139,-0.233 6e-4,-2e-4 0.041867,-0.0109 0.104,-0.0125 a 0.47466667,0.47466667 0 0 1 0.028733,0 c 0.1698,0.004 0.4782333,0.0807 0.6361333,0.55427 H 8.1082 Z M 6.3746667,11.77973 c -0.1106667,0 -0.218,-0.0128 -0.319,-0.0381 C 5.8789,11.69743 5.8030667,11.63 5.7706,11.58113 5.752133,11.55343 5.745433,11.52903 5.7431,11.51353 a 0.1138,0.1138 0 0 1 -8.333e-4,-0.0286 L 5.7431,11.4846 c 4.333e-4,-7e-5 0.1173333,-0.0329 0.279,-0.0353 a 1.1675667,1.1675667 0 0 1 0.2476667,0.022 c 0.281,0.0561 0.4267333,0.2682 0.4281666,0.27033 l 1.334e-4,2.3e-4 -3.334e-4,7e-5 c -0.00167,2.7e-4 -0.1355,0.0379 -0.3232333,0.0379 z M 7.1584,11.49493 c -0.033833,0 -0.063867,-0.0123 -0.0846,-0.0348 -0.017,-0.0184 -0.029433,-0.0438 -0.037867,-0.0776 -0.013467,-0.0537 -0.00973,-0.10667 -0.00933,-0.1116 a 0.116,0.116 0 0 1 0.041667,-0.009 l 0.003,-7e-5 c 0.0668,0 0.1196666,0.0581 0.1423333,0.11567 0.012467,0.0317 0.014667,0.0589 0.00647,0.0809 -0.00827,0.0224 -0.032533,0.0368 -0.0616,0.0368 z m -0.5893333,-0.0808 c -0.00253,-6e-4 -0.1594,-0.041 -0.3191334,-0.13933 C 6.1021,11.1838 5.9212667,11.0228 5.8992,10.77267 v -1.4e-4 l 3.333e-4,-10e-5 c 6.67e-5,0 0.0138,-0.003 0.034133,-0.004 0.0028,-10e-5 0.00577,-1.6e-4 0.0089,-1.6e-4 0.044167,0 0.1345666,0.0124 0.2439,0.0956 0.1392,0.10614 0.2677333,0.2912 0.3826666,0.55067 z m 0.3848,-0.0141 c -10e-4,-4e-4 -0.1127667,-0.0451 -0.2525,-0.16223 -0.1301667,-0.10914 -0.3132,-0.3056 -0.4457334,-0.62214 6.67e-5,-6e-5 0.030467,-0.0163 0.077,-0.0192 a 0.11033333,0.11033333 0 0 1 0.00813,-2.3e-4 c 0.004,0 0.00813,1.3e-4 0.012333,2.3e-4 0.064333,0.002 0.1622,0.0285 0.2707667,0.14567 0.1246666,0.1346 0.236,0.35577 0.3307666,0.6574 l 2.667e-4,8.3e-4 -8e-4,-2.3e-4 z M 5.9568,11.37093 c -0.1285667,0 -0.1725667,-0.0697 -0.1855333,-0.0997 -0.021267,-0.0493 -0.0148,-0.0983 -0.014767,-0.0989 l 6.67e-5,-5.3e-4 a 0.28326667,0.28326667 0 0 1 0.064,-0.008 l 0.00433,-7e-5 c 0.1013333,0 0.1813333,0.0515 0.2156,0.10243 0.0068,0.0101 0.027667,0.0452 0.0104,0.0726 -0.013867,0.0216 -0.045333,0.0325 -0.094133,0.0325 z M 5.672,11.01173 c -0.0718,0 -0.1816667,-0.004 -0.2971,-0.0254 -0.1145,-0.0208 -0.1794,-0.11816 -0.2136667,-0.19613 -0.037333,-0.0849 -0.047833,-0.166 -0.048,-0.1668 h 3.334e-4 c 0.3542333,0.0104 0.5215,0.1139 0.5994666,0.19887 0.0805,0.0877 0.085267,0.17883 0.085533,0.1846 h -2.334e-4 c -5.666e-4,0 -0.050433,0.005 -0.1264333,0.005 z M 6.0408,10.6432 A 1.4244333,1.4244333 0 0 1 5.959933,10.53047 c -0.042,-0.0652 -0.080767,-0.13324 -0.080767,-0.18894 0,-0.0537 -0.012667,-0.16706 -0.020167,-0.22983 -0.00957,-0.0796 -0.0192,-0.14767 -0.02,-0.15347 l 3.333e-4,10e-5 c 0.009,0.003 0.2215334,0.083 0.2215334,0.28234 0,0.19976 -0.019667,0.40043 -0.019867,0.40243 v 3.3e-4 H 6.040732 Z M 5.7653333,10.6243 c -0.00223,0 -0.00447,-2e-4 -0.00667,-5.7e-4 -0.062833,-0.0104 -0.1732334,-0.0585 -0.2952667,-0.12843 -0.1355333,-0.0777 -0.2456,-0.161 -0.3098667,-0.23444 -0.058667,-0.067 -0.093433,-0.1722 -0.1034666,-0.31266 -0.00713,-0.0997 0.0014,-0.1828 0.00233,-0.191 0.011,-0.004 0.022667,-0.005 0.035,-0.005 0.047067,7.7e-4 0.097333,0.0219 0.1650667,0.0687 0.052833,0.0363 0.1110666,0.0859 0.1730666,0.147 0.107,0.10553 0.1911667,0.21153 0.192,0.21256 l 8.334e-4,10e-4 c 0.0071,0.0127 0.067667,0.12187 0.1149,0.22817 0.03,0.0675 0.0471,0.1162 0.054,0.15323 0.0039,0.0211 0.005,0.0349 -1.334e-4,0.0475 a 0.02403333,0.02403333 0 0 1 -0.010267,0.0119 0.02886667,0.02886667 0 0 1 -0.011733,0.002 z"
     inkscape:connector-curvature="0"
     style="fill:#435125;stroke-width:0.03333334" />
  <use
     height="100%"
     width="100%"
     xlink:href="#a"
     transform="matrix(-1,0,0,1,19.7914,0)"
     id="use5"
     x="0"
     y="0" />
  <path
     d="m 17.302133,2.546 -0.0628,0.025 -0.0246,0.01 -0.07613,-0.004 -0.07127,0.0342 -0.1264,0.0864 -0.0056,0.004 -0.0471,0.0123 -0.04377,-0.0189 -0.02483,0.0113 -0.0086,0.0512 -0.02367,0.0368 -0.0291,0.0205 -0.100933,0.0103 -0.08507,0.0439 -0.110667,-0.0297 -0.0514,0.0202 -0.109333,0.0984 -0.05583,0.0265 -0.01953,-10e-4 -0.07407,-0.004 -0.03133,0.0102 -0.04667,0.0451 -0.0884,0.007 -0.02757,0.0191 -0.04313,0.0869 -0.04673,0.0482 -0.02677,0.006 -0.029,-0.0106 -0.02177,0.004 -0.0099,0.0557 -0.02113,0.0233 -0.0592,0.0204 -0.04727,0.0394 -0.0415,0.0213 -0.05557,-10e-4 H 15.5428 l -0.05533,0.0306 -0.104167,0.009 -0.04333,0.0413 -0.0095,0.009 -0.0202,0.0122 -0.03307,0.0197 -0.0081,0.005 -0.03987,-0.007 -0.04667,0.0185 -0.0189,-0.029 -0.03227,0.0193 -0.0428,0.002 -0.05327,-0.0237 -0.0406,-0.0181 -0.02967,0.004 -0.01033,0.0517 -10e-4,0.006 -0.03123,0.0415 -0.05823,0.0353 -0.0079,0.0103 -0.06627,0.0856 -0.1259,0.1324 -0.1065,0.0541 -0.110333,0.0336 -0.07727,0.0635 -0.202666,0.10046 -0.319834,0.1591 -0.0654,0.021 -0.09387,0.015 -0.167467,0.0616 -0.147667,0.0446 -0.0082,0.002 -0.02927,0.009 -0.208266,0.063 -0.09693,-0.0103 -0.0574,0.0209 -0.149466,-0.0166 -0.103934,0.002 -0.0658,0.0137 -0.123666,0.0593 -0.208667,0.10033 -0.069,0.0631 -0.107333,0.056 -0.125767,0.0398 3.33e-4,-0.0529 -8e-4,-0.002 -0.04357,0.0138 -0.0315,0.01 -0.102,0.0157 H 11.7851 l -0.0352,-0.0102 -0.0055,0.002 -0.208467,0.0687 -0.232466,0.0224 -0.116334,0.0373 -0.087,-10e-4 -0.05433,0.0162 -0.1065,0.013 -0.038,-0.0101 -0.0087,-0.002 -0.313333,0.0136 -0.143233,-0.0162 -0.06833,0.0155 -0.1146,-0.0385 -0.167166,-0.0193 -0.03907,-0.0117 -0.087867,-0.0261 -0.039767,0.0229 -0.029767,0.003 -0.071133,-0.0258 -0.0256,-6.6e-4 -0.058733,0.0212 -0.033767,-0.009 -0.0314,-0.025 -0.073667,-0.011 -0.0448,-0.0377 -0.2507333,0.0332 -0.068,-0.02 -0.2281334,-0.0664 -0.036333,0.002 -0.045167,0.0339 -0.068,0.0248 -0.058933,0.0153 -0.080333,0.003 -0.093267,-0.0245 -0.096133,-0.0466 -0.035567,-0.008 -0.079333,0.008 -0.024233,0.002 -0.1458,-0.0782 -0.1877666,-0.1174 -0.1274334,-0.0612 -0.047833,-0.008 -0.00643,0.0228 0.023733,0.0748 0.0081,0.074 -0.00243,0.0683 -0.00133,0.0423 0.0119,0.038 0.046,0.051 0.019233,0.0512 0.014,0.1409 -1.667e-4,0.143 -0.022333,0.228 -0.00757,0.0347 -0.026667,0.1181 -0.0244,0.1085 -0.094567,0.28886 -0.026,0.0358 -0.063733,0.0435 -0.1445,0.0983 -0.1064333,0.0613 -0.033667,0.014 -0.0864,0.006 -0.0538,-0.003 -0.067,-0.0363 -0.065767,-0.0169 -0.0862,-0.062 -0.095833,-0.0198 -0.1051,-0.0607 -0.027333,-0.0329 -0.057233,-0.005 -0.079333,-0.0239 v -1.7e-4 l -0.0291,-0.009 -0.020133,-0.006 -0.1012333,-0.003 -0.094333,-0.0436 -0.049733,-0.012 -0.067933,-0.003 -0.0711,0.033 v -6e-5 l -0.036,0.0168 -0.045567,-0.0181 -0.032933,0.002 -0.037333,0.0564 -0.00553,0.009 -0.025733,0.0136 -0.032,-4.3e-4 -0.025,-6.7e-4 -0.027133,0.0118 -0.036467,0.0158 v 7e-5 l -0.0322,0.0141 -0.015733,0.007 -2.666e-4,-2.7e-4 -0.00967,0.002 -0.017233,0.003 -0.021333,0.004 -0.0376,-0.022 -0.02,-0.0118 -0.0335,-0.007 -0.018067,0.013 -0.00353,0.0614 -0.0165,0.0367 -0.052333,0.0462 -0.0531,0.0468 -0.037,0.0546 -0.098067,0.22374 -0.0614,0.0903 -0.019067,0.021 -0.064233,0.0709 -0.056933,0.0442 -0.1312333,0.10166 -0.1242334,0.0465 -0.107,0.0219 -0.052067,2e-4 L 4.7980177,6.83356 4.7093507,6.80636 4.6120177,6.74546 4.5053511,6.65966 4.3508177,6.507 4.3289507,6.4939 l -0.00457,-0.003 -0.048667,-0.0312 -0.036067,9e-4 -0.014133,0.0233 -0.00773,0.0337 -0.00653,0.0299 -0.017733,0.16976 0.00133,0.01 0.00933,0.07 0.1173333,0.164 0.0362,0.0871 0.00593,0.01 0.024233,0.0407 0.018433,0.031 0.00183,0.003 0.0401,0.11966 -0.0282,0.0676 0.014267,0.0453 -0.035667,0.0277 -0.0065,0.0391 0.1053333,0.13207 0.023,0.0583 -0.025667,0.0808 -0.041,0.0446 -0.0114,0.0122 0.0058,0.0341 0.048467,0.0436 0.082333,0.0733 0.044,0.109 0.033333,0.0292 0.038867,-0.008 0.0216,0.0165 0.032733,-5.7e-4 0.032233,0.0322 0.020867,0.0101 0.033,0.0164 0.026,0.0339 0.0058,0.10433 0.048567,0.12957 7.667e-4,0.0703 2.667e-4,0.01 0.030233,0.0519 0.0095,0.041 -0.016133,0.10853 0.038533,0.0348 0.0418,-0.009 0.027,0.004 0.043333,0.0361 0.052533,0.08 0.051333,-0.007 0.0326,0.0157 0.1574,0.14224 0.035667,0.018 0.002,0.001 0.025667,0.0129 0.031933,0.0322 0.0495,-0.0329 0.0055,-6e-4 0.0538,-0.005 0.023667,0.0159 0.0454,0.0307 0.059567,-8e-4 0.1291667,0.0396 0.056533,0.0145 0.1136,0.0706 0.048333,0.0299 0.028567,0.0232 0.037933,0.031 0.075867,0.0326 0.065067,0.0156 0.035267,0.008 0.026533,0.0103 6.666e-4,-0.002 3.334e-4,7e-5 -6e-4,0.002 0.1409,0.054 0.076267,0.0178 0.070667,0.026 0.051333,0.0188 0.037733,6e-4 0.053333,-0.0449 0.051667,-0.003 0.042867,0.0107 0.041867,-0.007 0.066267,-0.0409 0.012933,-0.0192 0.047,-0.0223 0.1585,-0.0197 0.046333,0.015 0.1189334,-0.0517 0.079667,0.0222 0.070567,-0.025 0.1541,0.0342 0.041,0.0288 0.045767,0.0524 0.0056,2e-4 0.051,10e-4 -0.021333,0.0355 0.067333,0.0706 0.060767,0.0919 0.0041,0.0121 0.0442,0.12967 0.032833,0.046 0.023,0.0641 0.0011,0.0418 -0.035733,0.0273 -0.00587,0.0155 -0.002,0.006 0.00723,0.0175 0.013467,-0.007 0.025667,-0.0142 0.0311,-0.005 0.0551,0.006 0.036333,0.004 0.057467,-0.0285 0.038067,-0.0189 0.061133,0.0263 0.0672,-7.6e-4 0.028233,0.0125 0.079867,0.0362 0.040733,0.004 0.015067,-0.01 0.0096,-0.0228 -0.00493,-0.0266 -0.030533,-0.0353 -0.0675,-0.0783 -0.027667,-0.0402 -0.021,-0.0583 -0.00653,-0.0745 -0.00467,-0.0503 0.0084,-0.066 0.0181,-0.0236 0.013333,-0.0525 h 2.334e-4 l 0.00343,-0.0137 0.0375,-0.0497 0.099333,-0.0638 0.1066667,-0.0955 0.084333,-0.0556 0.0869,-0.0377 0.00233,-0.0106 0.00967,0.004 0.2211334,-0.0752 0.0036,-4.4e-4 0.098467,-0.0171 0.6645334,0.0468 0.024667,-0.007 6.67e-5,-1.6e-4 0.022133,-0.0621 0.011933,-0.0115 0.0079,-0.008 0.073,-0.0322 0.0342,-0.005 0.09483,0.0234 0.03887,0.01 0.06217,-0.0349 0.04413,7.3e-4 0.09113,-0.0497 0.05633,10e-4 0.02133,-0.009 0.109666,-0.0788 0.105667,-0.0303 0.02747,-0.0147 0.0097,-0.005 0.108267,-0.0572 0.06877,-0.0528 0.05933,-0.0316 0.065,-0.0168 0.170167,-0.012 0.03423,-0.057 0.07317,-0.01 0.0442,-0.0499 0.05053,-0.0206 0.03627,-0.0522 0.03033,-0.0437 0.04247,-0.0246 0.136,-0.008 0.1612,0.02 0.02133,-0.013 0.0364,-0.13 0.03813,-0.0243 0.102667,-0.14967 3.33e-4,-0.0546 1.34e-4,-0.0455 0.01687,-0.0649 -0.01147,-0.11706 0.0136,-0.11857 0.06383,-0.15067 0.05627,-0.0608 0.09067,-0.0613 0.04613,-0.0201 0.06533,-0.011 V 7.2718 l 0.0096,-0.002 0.01667,-0.003 0.224834,-0.003 c 0.0031,-0.002 0.08177,-10e-4 0.08177,-10e-4 l 0.075,-0.001 0.189667,0.0337 0.01353,0.002 0.0641,0.0208 0.074,0.0576 0.07827,0.0765 0.01467,0.0143 0.05077,0.0213 0.01533,0.007 0.0419,-0.007 0.05967,-0.0311 0.045,-0.0381 0.06133,-0.0335 0.0015,-0.002 0.03453,-0.052 0.0011,-10e-4 7.33e-4,1.7e-4 6.7e-5,-3.3e-4 -6e-4,-10e-5 0.0136,-0.0207 0.1186,-0.0462 0.139467,-0.008 0.01567,-0.008 0.0087,-0.005 0.03683,-0.0433 0.03453,-3.3e-4 0.0836,0.0303 0.05883,-0.0117 0.04667,0.0187 0.03627,-0.004 0.0684,-0.008 0.07343,0.0517 0.0428,0.005 0.150867,0.0883 0.0078,0.001 0.0041,7.7e-4 0.0087,10e-4 0.01787,-0.005 0.02667,-0.008 0.0035,-0.001 0.0033,0.005 0.01717,0.0242 0.02353,0.003 0.02783,-0.0371 -0.011,-0.0169 -0.0042,-0.006 -0.05387,-0.011 -0.0484,-0.0827 0.04607,-0.0497 -0.07233,-0.0887 -0.012,-0.0147 -0.004,-0.006 -0.025,-0.0379 -0.1266,-0.1929 -0.164867,-0.1316 -6.6e-5,1e-4 -0.05773,-0.0462 -3.33e-4,-2.6e-4 -0.02027,-0.0159 -0.088,-0.0896 -0.06293,-0.0834 -0.0082,-0.018 -0.013,-0.0283 -0.03767,-0.082 -0.06567,-0.0506 -0.05347,-0.0585 -0.0027,-0.003 -0.110333,-0.15 -0.01817,-0.0252 -0.02607,-0.0151 -0.0551,-3.3e-4 -0.0052,-0.005 -0.0031,-0.003 0.0019,-0.002 0.02643,-0.0263 0.02947,-0.007 0.01267,-0.0291 -0.0562,-0.16276 -3.34e-4,-0.006 -0.0042,-0.052 0.0458,-0.23613 0.0058,-0.0288 0.07807,-0.1589 0.0484,-0.0397 0.05277,-0.10373 0.0452,-0.0663 0.04333,-0.0422 0.0076,-0.004 0.07823,-0.0473 0.06573,-0.009 0.0626,-0.009 0.109333,0.0337 0.104,-0.002 0.02033,-0.002 0.04717,-0.005 0.0776,-0.0244 0.03667,-0.0227 0.019,-0.0291 0.03967,-0.133 0.01267,-0.0423 0.0245,-0.0459 0.1415,-0.1629 0.107,-0.099 0.240467,-0.17633 0.117733,-0.0703 0.0601,-0.0359 0.536667,-0.23857 0.1395,-0.14133 0.07267,-0.0736 0.128566,-0.0863 0.150334,-0.0617 0.1295,-0.1024 0.02827,-0.0356 0.0356,-0.11473 0.02973,-0.007 0.0268,-0.058 0.0077,-0.0165 0.105567,-0.0745 0.012,-0.006 0.410333,-0.20557 0.0596,0.008 0.032,-0.0478 0.119334,-0.02 0.022,-0.004 0.02943,-0.0147 0.025,-0.0427 v -0.008 l 0.0035,-0.114 0.0255,-0.0308 0.0139,-0.0751 0.013,-0.0173 0.01373,-0.018 0.0338,-0.0238 -0.0059,-0.0142 z"
     id="path7"
     inkscape:connector-curvature="0"
     style="fill:#d47600;stroke-width:0.03333334" />
</svg>
