<?xml version="1.0" encoding="UTF-8" standalone="no"?>
<svg
   xmlns:dc="http://purl.org/dc/elements/1.1/"
   xmlns:cc="http://creativecommons.org/ns#"
   xmlns:rdf="http://www.w3.org/1999/02/22-rdf-syntax-ns#"
   xmlns:svg="http://www.w3.org/2000/svg"
   xmlns="http://www.w3.org/2000/svg"
   xmlns:sodipodi="http://sodipodi.sourceforge.net/DTD/sodipodi-0.dtd"
   xmlns:inkscape="http://www.inkscape.org/namespaces/inkscape"
   height="16"
   width="21.333437"
   viewBox="0 0 21.333437 16"
   version="1.1"
   id="svg257"
   sodipodi:docname="dm.svg"
   inkscape:version="0.92.1 r">
  <metadata
     id="metadata261">
    <rdf:RDF>
      <cc:Work
         rdf:about="">
        <dc:format>image/svg+xml</dc:format>
        <dc:type
           rdf:resource="http://purl.org/dc/dcmitype/StillImage" />
        <dc:title></dc:title>
      </cc:Work>
    </rdf:RDF>
  </metadata>
  <sodipodi:namedview
     pagecolor="#ffffff"
     bordercolor="#666666"
     borderopacity="1"
     objecttolerance="10"
     gridtolerance="10"
     guidetolerance="10"
     inkscape:pageopacity="0"
     inkscape:pageshadow="2"
     inkscape:window-width="1920"
     inkscape:window-height="1024"
     id="namedview259"
     showgrid="false"
     inkscape:zoom="0.49166667"
     inkscape:cx="320.2094"
     inkscape:cy="241.28"
     inkscape:window-x="0"
     inkscape:window-y="0"
     inkscape:window-maximized="1"
     inkscape:current-layer="svg257"
     fit-margin-top="0"
     fit-margin-left="0"
     fit-margin-right="0"
     fit-margin-bottom="0" />
  <defs
     id="defs5">
    <clipPath
       id="a">
      <path
         d="M -85.01,0 H 597.66 V 512 H -85.01 Z"
         id="path2"
         inkscape:connector-curvature="0"
         style="fill-opacity:0.67000002" />
    </clipPath>
  </defs>
  <g
     clip-path="url(#a)"
     transform="matrix(0.03125,0,0,0.03125,2.6565625,0)"
     id="g255"
     style="fill-rule:evenodd">
    <path
       d="M -258.27,0 H 769.23 V 512 H -258.27 Z"
       id="path7"
       inkscape:connector-curvature="0"
       style="fill:#108c00" />
    <path
       d="M -260,178.16 H 772.6 v 50.162 H -260 Z"
       id="path9"
       inkscape:connector-curvature="0"
       style="fill:#ffd600" />
    <path
       d="m 181.08,0 h 48.432 V 512 H 181.08 Z"
       id="path11"
       inkscape:connector-curvature="0"
       style="fill:#ffd600" />
    <path
       d="m 227.78,0 h 48.432 V 512 H 227.78 Z"
       id="path13"
       inkscape:connector-curvature="0" />
    <path
       d="M -260,226.59 H 772.6 v 50.162 H -260 Z"
       id="path15"
       inkscape:connector-curvature="0" />
    <path
       d="M -260,276.76 H 772.6 v 50.162 H -260 Z"
       id="path17"
       inkscape:connector-curvature="0"
       style="fill:#ffffff" />
    <path
       d="m 276.22,0 h 48.432 V 512 H 276.22 Z"
       id="path19"
       inkscape:connector-curvature="0"
       style="fill:#ffffff" />
    <rect
       transform="scale(-1)"
       ry="137.50999"
       width="273.75"
       y="-393.87"
       x="-394.56"
       height="275.03"
       id="rect21"
       style="fill:#e72910" />
    <g
       id="g29"
       style="stroke-width:1.00000003pt">
      <path
         d="m 250.51,136.92 c 0,-0.258 5.61,-15.997 5.61,-15.997 l 5.098,15.74 c 0,0 17.08,0.515 17.08,0.257 0,-0.258 -13.51,10.32 -13.51,10.32 0,0 6.373,18.062 6.118,17.546 -0.255,-0.516 -14.787,-10.837 -14.787,-10.837 0,0 -14.787,10.32 -14.532,10.32 0.255,0 5.608,-17.03 5.608,-17.03 l -13.256,-10.063 16.57,-0.258 z"
         id="path23"
         inkscape:connector-curvature="0" />
      <path
         d="m 251.274,137.72 c 0,-0.224 4.857,-13.855 4.857,-13.855 l 4.417,13.63 c 0,0 14.794,0.448 14.794,0.225 0,-0.223 -11.7,8.938 -11.7,8.938 0,0 5.52,15.643 5.298,15.196 -0.22,-0.447 -12.807,-9.386 -12.807,-9.386 0,0 -12.805,8.94 -12.584,8.94 0.221,0 4.857,-14.75 4.857,-14.75 l -11.48,-8.716 14.35,-0.223 z"
         id="path25"
         inkscape:connector-curvature="0"
         style="fill:#ffe700" />
      <path
         d="m 253.328,139.987 c 0,-0.13 2.8,-7.99 2.8,-7.99 l 2.547,7.86 c 0,0 8.53,0.26 8.53,0.13 0,-0.13 -6.747,5.154 -6.747,5.154 0,0 3.182,9.02 3.055,8.762 -0.127,-0.257 -7.384,-5.41 -7.384,-5.41 0,0 -7.385,5.153 -7.257,5.153 0.128,0 2.8,-8.504 2.8,-8.504 l -6.62,-5.025 8.275,-0.13 z"
         id="path27"
         inkscape:connector-curvature="0"
         style="fill:#108c00" />
    </g>
    <g
       id="g37"
       style="stroke-width:1.00000003pt">
      <path
         d="m 356.875,211.8 c 0,-0.258 5.608,-15.997 5.608,-15.997 l 5.1,15.74 c 0,0 17.08,0.515 17.08,0.257 0,-0.258 -13.512,10.32 -13.512,10.32 0,0 6.375,18.062 6.12,17.546 -0.255,-0.516 -14.787,-10.837 -14.787,-10.837 0,0 -14.786,10.32 -14.53,10.32 0.256,0 5.607,-17.03 5.607,-17.03 l -13.256,-10.063 16.57,-0.258 z"
         id="path31"
         inkscape:connector-curvature="0" />
      <path
         d="m 357.638,212.6 c 0,-0.224 4.857,-13.855 4.857,-13.855 l 4.416,13.63 c 0,0 14.795,0.448 14.795,0.225 0,-0.223 -11.702,8.938 -11.702,8.938 0,0 5.52,15.643 5.3,15.196 -0.222,-0.447 -12.808,-9.386 -12.808,-9.386 0,0 -12.806,8.94 -12.585,8.94 0.221,0 4.857,-14.75 4.857,-14.75 l -11.48,-8.716 14.35,-0.223 z"
         id="path33"
         inkscape:connector-curvature="0"
         style="fill:#ffe700" />
      <path
         d="m 359.692,214.867 c 0,-0.13 2.8,-7.99 2.8,-7.99 l 2.547,7.86 c 0,0 8.53,0.26 8.53,0.13 0,-0.13 -6.748,5.154 -6.748,5.154 0,0 3.182,9.02 3.055,8.762 -0.127,-0.257 -7.384,-5.41 -7.384,-5.41 0,0 -7.384,5.153 -7.256,5.153 0.128,0 2.8,-8.504 2.8,-8.504 l -6.62,-5.025 8.275,-0.13 z"
         id="path35"
         inkscape:connector-curvature="0"
         style="fill:#108c00" />
    </g>
    <g
       id="g45"
       style="stroke-width:1.00000003pt">
      <path
         d="m 325.875,330.65 c 0,-0.258 5.608,-15.997 5.608,-15.997 l 5.1,15.74 c 0,0 17.08,0.515 17.08,0.257 0,-0.258 -13.512,10.32 -13.512,10.32 0,0 6.375,18.062 6.12,17.546 -0.255,-0.516 -14.787,-10.837 -14.787,-10.837 0,0 -14.787,10.321 -14.531,10.321 0.256,0 5.607,-17.03 5.607,-17.03 l -13.256,-10.063 16.57,-0.258 z"
         id="path39"
         inkscape:connector-curvature="0" />
      <path
         d="m 326.638,331.45 c 0,-0.224 4.857,-13.855 4.857,-13.855 l 4.416,13.63 c 0,0 14.795,0.448 14.795,0.225 0,-0.223 -11.702,8.938 -11.702,8.938 0,0 5.52,15.643 5.3,15.196 -0.222,-0.447 -12.808,-9.386 -12.808,-9.386 0,0 -12.806,8.94 -12.585,8.94 0.221,0 4.857,-14.75 4.857,-14.75 l -11.48,-8.716 14.35,-0.223 z"
         id="path41"
         inkscape:connector-curvature="0"
         style="fill:#ffe700" />
      <path
         d="m 328.692,333.717 c 0,-0.13 2.8,-7.99 2.8,-7.99 l 2.547,7.86 c 0,0 8.53,0.26 8.53,0.13 0,-0.13 -6.748,5.154 -6.748,5.154 0,0 3.182,9.02 3.055,8.762 -0.127,-0.257 -7.384,-5.41 -7.384,-5.41 0,0 -7.384,5.153 -7.256,5.153 0.128,0 2.8,-8.504 2.8,-8.504 l -6.62,-5.025 8.275,-0.13 z"
         id="path43"
         inkscape:connector-curvature="0"
         style="fill:#108c00" />
    </g>
    <g
       id="g53"
       style="stroke-width:1.00000003pt">
      <path
         d="m 177.167,330.65 c 0,-0.258 5.608,-15.997 5.608,-15.997 l 5.1,15.74 c 0,0 17.08,0.515 17.08,0.257 0,-0.258 -13.512,10.32 -13.512,10.32 0,0 6.374,18.062 6.12,17.546 -0.256,-0.516 -14.788,-10.837 -14.788,-10.837 0,0 -14.785,10.321 -14.53,10.321 0.255,0 5.607,-17.03 5.607,-17.03 l -13.256,-10.063 16.57,-0.258 z"
         id="path47"
         inkscape:connector-curvature="0" />
      <path
         d="m 177.93,331.45 c 0,-0.224 4.857,-13.855 4.857,-13.855 l 4.416,13.63 c 0,0 14.794,0.448 14.794,0.225 0,-0.223 -11.702,8.938 -11.702,8.938 0,0 5.52,15.643 5.3,15.196 -0.222,-0.447 -12.808,-9.386 -12.808,-9.386 0,0 -12.806,8.94 -12.585,8.94 0.221,0 4.857,-14.75 4.857,-14.75 l -11.482,-8.716 14.352,-0.223 z"
         id="path49"
         inkscape:connector-curvature="0"
         style="fill:#ffe700" />
      <path
         d="m 179.984,333.717 c 0,-0.13 2.8,-7.99 2.8,-7.99 l 2.547,7.86 c 0,0 8.53,0.26 8.53,0.13 0,-0.13 -6.746,5.154 -6.746,5.154 0,0 3.182,9.02 3.055,8.762 -0.128,-0.257 -7.385,-5.41 -7.385,-5.41 0,0 -7.384,5.153 -7.256,5.153 0.128,0 2.8,-8.504 2.8,-8.504 l -6.62,-5.025 8.274,-0.13 z"
         id="path51"
         inkscape:connector-curvature="0"
         style="fill:#108c00" />
    </g>
    <g
       id="g61"
       style="stroke-width:1.00000003pt">
      <path
         d="m 150.01,208.74 c 0,-0.258 5.608,-15.997 5.608,-15.997 l 5.1,15.74 c 0,0 17.08,0.515 17.08,0.257 0,-0.258 -13.512,10.32 -13.512,10.32 0,0 6.374,18.062 6.12,17.546 -0.256,-0.516 -14.788,-10.837 -14.788,-10.837 0,0 -14.786,10.32 -14.53,10.32 0.256,0 5.607,-17.03 5.607,-17.03 l -13.256,-10.063 16.57,-0.258 z"
         id="path55"
         inkscape:connector-curvature="0" />
      <path
         d="m 150.773,209.54 c 0,-0.224 4.857,-13.855 4.857,-13.855 l 4.416,13.63 c 0,0 14.794,0.448 14.794,0.225 0,-0.223 -11.702,8.938 -11.702,8.938 0,0 5.52,15.643 5.3,15.196 -0.222,-0.447 -12.808,-9.386 -12.808,-9.386 0,0 -12.806,8.94 -12.585,8.94 0.221,0 4.857,-14.75 4.857,-14.75 l -11.48,-8.716 14.35,-0.223 z"
         id="path57"
         inkscape:connector-curvature="0"
         style="fill:#ffe700" />
      <path
         d="m 152.827,211.807 c 0,-0.13 2.8,-7.99 2.8,-7.99 l 2.547,7.86 c 0,0 8.53,0.26 8.53,0.13 0,-0.13 -6.747,5.154 -6.747,5.154 0,0 3.182,9.02 3.055,8.762 -0.127,-0.257 -7.384,-5.41 -7.384,-5.41 0,0 -7.384,5.153 -7.256,5.153 0.128,0 2.8,-8.504 2.8,-8.504 l -6.62,-5.025 z"
         id="path59"
         inkscape:connector-curvature="0"
         style="fill:#108c00" />
    </g>
    <g
       id="g69"
       style="stroke-width:1.00000003pt">
      <path
         d="m 324.615,174.14 c 0,0.258 -5.608,15.997 -5.608,15.997 l -5.1,-15.74 c 0,0 -17.08,-0.515 -17.08,-0.257 0,0.258 13.512,-10.32 13.512,-10.32 0,0 -6.375,-18.062 -6.12,-17.546 0.255,0.516 14.787,10.837 14.787,10.837 0,0 14.786,-10.32 14.53,-10.32 -0.256,0 -5.607,17.03 -5.607,17.03 l 13.256,10.063 -16.57,0.258 z"
         id="path63"
         inkscape:connector-curvature="0" />
      <path
         d="m 323.852,173.34 c 0,0.224 -4.857,13.855 -4.857,13.855 l -4.416,-13.63 c 0,0 -14.795,-0.448 -14.795,-0.225 0,0.223 11.702,-8.938 11.702,-8.938 0,0 -5.52,-15.643 -5.3,-15.196 0.222,0.447 12.808,9.386 12.808,9.386 0,0 12.806,-8.94 12.585,-8.94 -0.221,0 -4.857,14.75 -4.857,14.75 l 11.48,8.716 -14.35,0.223 z"
         id="path65"
         inkscape:connector-curvature="0"
         style="fill:#ffe700" />
      <path
         d="m 321.798,171.073 c 0,0.13 -2.8,7.99 -2.8,7.99 l -2.547,-7.86 c 0,0 -8.53,-0.26 -8.53,-0.13 0,0.13 6.748,-5.154 6.748,-5.154 0,0 -3.182,-9.02 -3.055,-8.762 0.127,0.257 7.384,5.41 7.384,5.41 0,0 7.384,-5.153 7.256,-5.153 -0.128,0 -2.8,8.504 -2.8,8.504 l 6.62,5.025 -8.275,0.13 z"
         id="path67"
         inkscape:connector-curvature="0"
         style="fill:#108c00" />
    </g>
    <g
       id="g77"
       style="stroke-width:1.00000003pt">
      <path
         d="m 367.315,290.28 c 0,0.258 -5.608,15.997 -5.608,15.997 l -5.1,-15.74 c 0,0 -17.08,-0.515 -17.08,-0.257 0,0.258 13.512,-10.32 13.512,-10.32 0,0 -6.375,-18.062 -6.12,-17.546 0.255,0.516 14.787,10.837 14.787,10.837 0,0 14.786,-10.32 14.53,-10.32 -0.256,0 -5.607,17.03 -5.607,17.03 l 13.256,10.063 -16.57,0.258 z"
         id="path71"
         inkscape:connector-curvature="0" />
      <path
         d="m 366.552,289.48 c 0,0.224 -4.857,13.855 -4.857,13.855 l -4.416,-13.63 c 0,0 -14.795,-0.448 -14.795,-0.225 0,0.223 11.702,-8.938 11.702,-8.938 0,0 -5.52,-15.643 -5.3,-15.196 0.222,0.447 12.808,9.386 12.808,9.386 0,0 12.806,-8.94 12.585,-8.94 -0.221,0 -4.857,14.75 -4.857,14.75 l 11.48,8.716 -14.35,0.223 z"
         id="path73"
         inkscape:connector-curvature="0"
         style="fill:#ffe700" />
      <path
         d="m 364.498,287.213 c 0,0.13 -2.8,7.99 -2.8,7.99 l -2.547,-7.86 c 0,0 -8.53,-0.26 -8.53,-0.13 0,0.13 6.748,-5.154 6.748,-5.154 0,0 -3.182,-9.02 -3.055,-8.762 0.127,0.257 7.384,5.41 7.384,5.41 0,0 7.384,-5.153 7.256,-5.153 -0.128,0 -2.8,8.504 -2.8,8.504 l 6.62,5.025 -8.275,0.13 z"
         id="path75"
         inkscape:connector-curvature="0"
         style="fill:#108c00" />
    </g>
    <g
       id="g85"
       style="stroke-width:1.00000003pt">
      <path
         d="m 261.425,375.25 c 0,0.258 -5.608,15.997 -5.608,15.997 l -5.1,-15.74 c 0,0 -17.08,-0.515 -17.08,-0.257 0,0.258 13.512,-10.32 13.512,-10.32 0,0 -6.375,-18.062 -6.12,-17.546 0.255,0.516 14.787,10.837 14.787,10.837 0,0 14.786,-10.32 14.53,-10.32 -0.256,0 -5.607,17.03 -5.607,17.03 l 13.256,10.063 -16.57,0.258 z"
         id="path79"
         inkscape:connector-curvature="0" />
      <path
         d="m 260.662,374.45 c 0,0.224 -4.857,13.855 -4.857,13.855 l -4.416,-13.63 c 0,0 -14.795,-0.448 -14.795,-0.225 0,0.223 11.702,-8.938 11.702,-8.938 0,0 -5.52,-15.643 -5.3,-15.196 0.222,0.447 12.808,9.386 12.808,9.386 0,0 12.806,-8.94 12.585,-8.94 -0.221,0 -4.857,14.75 -4.857,14.75 l 11.48,8.716 -14.35,0.223 z"
         id="path81"
         inkscape:connector-curvature="0"
         style="fill:#ffe700" />
      <path
         d="m 258.608,372.183 c 0,0.13 -2.8,7.99 -2.8,7.99 l -2.547,-7.86 c 0,0 -8.53,-0.26 -8.53,-0.13 0,0.13 6.748,-5.154 6.748,-5.154 0,0 -3.182,-9.02 -3.055,-8.762 0.127,0.257 7.384,5.41 7.384,5.41 0,0 7.384,-5.153 7.256,-5.153 -0.128,0 -2.8,8.504 -2.8,8.504 l 6.62,5.025 -8.275,0.13 z"
         id="path83"
         inkscape:connector-curvature="0"
         style="fill:#108c00" />
    </g>
    <g
       id="g93"
       style="stroke-width:1.00000003pt">
      <path
         d="m 161.935,290.28 c 0,0.258 -5.608,15.997 -5.608,15.997 l -5.1,-15.74 c 0,0 -17.08,-0.515 -17.08,-0.257 0,0.258 13.512,-10.32 13.512,-10.32 0,0 -6.375,-18.062 -6.12,-17.546 0.255,0.516 14.787,10.837 14.787,10.837 0,0 14.786,-10.32 14.53,-10.32 -0.256,0 -5.607,17.03 -5.607,17.03 l 13.256,10.063 -16.57,0.258 z"
         id="path87"
         inkscape:connector-curvature="0" />
      <path
         d="m 161.172,289.48 c 0,0.224 -4.857,13.855 -4.857,13.855 l -4.416,-13.63 c 0,0 -14.795,-0.448 -14.795,-0.225 0,0.223 11.702,-8.938 11.702,-8.938 0,0 -5.52,-15.643 -5.3,-15.196 0.222,0.447 12.808,9.386 12.808,9.386 0,0 12.806,-8.94 12.585,-8.94 -0.221,0 -4.857,14.75 -4.857,14.75 l 11.48,8.716 -14.35,0.223 z"
         id="path89"
         inkscape:connector-curvature="0"
         style="fill:#ffe700" />
      <path
         d="m 159.118,287.213 c 0,0.13 -2.8,7.99 -2.8,7.99 l -2.547,-7.86 c 0,0 -8.53,-0.26 -8.53,-0.13 0,0.13 6.748,-5.154 6.748,-5.154 0,0 -3.182,-9.02 -3.055,-8.762 0.127,0.257 7.384,5.41 7.384,5.41 0,0 7.384,-5.153 7.256,-5.153 -0.128,0 -2.8,8.504 -2.8,8.504 l 6.62,5.025 -8.275,0.13 z"
         id="path91"
         inkscape:connector-curvature="0"
         style="fill:#108c00" />
    </g>
    <g
       id="g101"
       style="stroke-width:1.00000003pt">
      <path
         d="m 198.655,175.85 c 0,0.258 -5.608,15.997 -5.608,15.997 l -5.1,-15.74 c 0,0 -17.08,-0.515 -17.08,-0.257 0,0.258 13.512,-10.32 13.512,-10.32 0,0 -6.375,-18.062 -6.12,-17.546 0.255,0.516 14.787,10.837 14.787,10.837 0,0 14.786,-10.32 14.53,-10.32 -0.256,0 -5.607,17.03 -5.607,17.03 l 13.256,10.063 -16.57,0.258 z"
         id="path95"
         inkscape:connector-curvature="0" />
      <path
         d="m 197.892,175.05 c 0,0.224 -4.857,13.855 -4.857,13.855 l -4.416,-13.63 c 0,0 -14.795,-0.448 -14.795,-0.225 0,0.223 11.702,-8.938 11.702,-8.938 0,0 -5.52,-15.643 -5.3,-15.196 0.222,0.447 12.808,9.386 12.808,9.386 0,0 12.806,-8.94 12.585,-8.94 -0.221,0 -4.857,14.75 -4.857,14.75 l 11.48,8.716 -14.35,0.223 z"
         id="path97"
         inkscape:connector-curvature="0"
         style="fill:#ffe700" />
      <path
         d="m 195.838,172.783 c 0,0.13 -2.8,7.99 -2.8,7.99 l -2.547,-7.86 c 0,0 -8.53,-0.26 -8.53,-0.13 0,0.13 6.748,-5.154 6.748,-5.154 0,0 -3.182,-9.02 -3.055,-8.762 0.127,0.257 7.384,5.41 7.384,5.41 0,0 7.384,-5.153 7.256,-5.153 -0.128,0 -2.8,8.504 -2.8,8.504 l 6.62,5.025 -8.275,0.13 z"
         id="path99"
         inkscape:connector-curvature="0"
         style="fill:#108c00" />
    </g>
    <g
       transform="matrix(1.04,0,0,1.04,-250.6,359.43)"
       id="g253">
      <g
         transform="matrix(0.16,-0.02,0,0.18,429.84,-215.63)"
         id="g109"
         style="fill:#009200;stroke:#000000;stroke-width:2.5">
        <ellipse
           rx="30.805"
           ry="189.82001"
           transform="matrix(1.4,0,0,1,-534.29,263.72)"
           cy="586.13"
           cx="680.21002"
           id="ellipse103" />
        <ellipse
           rx="30.805"
           ry="189.82001"
           transform="matrix(1.5,0,0,1,-547.22,267.05)"
           cy="586.13"
           cx="680.21002"
           id="ellipse105" />
        <ellipse
           rx="30.805"
           ry="189.82001"
           transform="matrix(1.2,0,0,1.1,-364.93,214.1)"
           cy="586.13"
           cx="680.21002"
           id="ellipse107" />
      </g>
      <g
         transform="translate(72.86,-9.8)"
         id="g123"
         style="stroke:#000000">
        <path
           d="m 388.528,-52.952 c 5.994,-0.333 3.33,-3.33 6.327,-4.995 2.998,-1.666 7.327,-0.666 8.659,1.332 1.332,1.998 0.333,3.996 1.998,3.996 1.665,0 46.912,-2.535 48.576,-0.87 1.665,1.665 1.998,4.996 0.333,6.327 -1.665,1.332 -58.9,2.868 -60.898,1.536 -1.998,-1.332 -4.995,-6.993 -4.995,-7.326 z"
           id="path111"
           inkscape:connector-curvature="0"
           style="fill:#a95600;stroke-width:0.50099999" />
        <path
           d="m 529.59,405.46 c 0,39.983 45.562,27.88 46.81,61.25 -0.724,35.407 -76.706,3.466 -78.635,-61.25 1.93,-64.716 75.107,-97.93 76.705,-61.01 1.246,30.685 -44.88,21.027 -44.88,61.01 z"
           transform="matrix(0.15,0,0,0.1,340.42,-81.69)"
           id="path113"
           inkscape:connector-curvature="0"
           style="fill:#ffff00;stroke-width:3.85299993" />
        <path
           d="m 529.59,405.46 c 0,39.983 45.562,27.88 46.81,61.25 -0.724,35.407 -76.706,3.466 -78.635,-61.25 1.93,-64.716 75.107,-97.93 76.705,-61.01 1.246,30.685 -44.88,21.027 -44.88,61.01 z"
           transform="matrix(0.15,0,0,0.1,344.42,-81.64)"
           id="path115"
           inkscape:connector-curvature="0"
           style="fill:#ffff00;stroke-width:3.85299993" />
        <path
           d="m 529.59,405.46 c 0,39.983 45.562,27.88 46.81,61.25 -0.724,35.407 -76.706,3.466 -78.635,-61.25 1.93,-64.716 75.107,-97.93 76.705,-61.01 1.246,30.685 -44.88,21.027 -44.88,61.01 z"
           transform="matrix(0.15,0,0,0.1,348.71,-81.8)"
           id="path117"
           inkscape:connector-curvature="0"
           style="fill:#ffff00;stroke-width:3.85299993" />
        <path
           d="m 529.59,405.46 c 0,39.983 45.562,27.88 46.81,61.25 -0.724,35.407 -76.706,3.466 -78.635,-61.25 1.93,-64.716 75.107,-97.93 76.705,-61.01 1.246,30.685 -44.88,21.027 -44.88,61.01 z"
           transform="matrix(0.15,0,0,0.1,352.71,-81.75)"
           id="path119"
           inkscape:connector-curvature="0"
           style="fill:#ffff00;stroke-width:3.85299993" />
        <ellipse
           rx="3.5339999"
           ry="3.4030001"
           transform="matrix(1.1,0.02,-0.02,1.15,-75.57,4.68)"
           cy="-41.085999"
           cx="478.38"
           id="ellipse121"
           style="fill:#a95600;stroke-width:0.39899999" />
      </g>
      <g
         transform="rotate(-5.8,688.37,-625.22)"
         id="g141"
         style="fill:#009200;stroke:#000000;stroke-width:2.5">
        <ellipse
           rx="20.813999"
           ry="24.143999"
           transform="matrix(0.17,0,0,0.32,369.8,-361.65)"
           cy="905"
           cx="427.10999"
           id="ellipse125" />
        <ellipse
           rx="20.813999"
           ry="24.143999"
           transform="matrix(0.17,0,0,0.32,364.04,-362.7)"
           cy="905"
           cx="427.10999"
           id="ellipse127" />
        <ellipse
           rx="20.813999"
           ry="24.143999"
           transform="matrix(0.17,0,0,0.32,360.64,-370.55)"
           cy="905"
           cx="427.10999"
           id="ellipse129" />
        <ellipse
           rx="20.813999"
           ry="24.143999"
           transform="matrix(0.16,0,0,0.35,369.3,-399.35)"
           cy="905"
           cx="427.10999"
           id="ellipse131" />
        <ellipse
           rx="20.813999"
           ry="24.143999"
           transform="matrix(0.16,0,0,0.33,377.41,-379.07)"
           cy="905"
           cx="427.10999"
           id="ellipse133" />
        <ellipse
           rx="20.813999"
           ry="24.143999"
           transform="matrix(0.16,0,0,0.33,373.22,-382.21)"
           cy="905"
           cx="427.10999"
           id="ellipse135" />
        <ellipse
           rx="20.813999"
           ry="24.143999"
           transform="matrix(0.16,0,0,0.33,367.99,-386.66)"
           cy="905"
           cx="427.10999"
           id="ellipse137" />
        <ellipse
           rx="20.813999"
           ry="24.143999"
           transform="matrix(0.16,0,0,0.33,363.01,-389.54)"
           cy="905"
           cx="427.10999"
           id="ellipse139" />
      </g>
      <path
         d="m 482.57,-141.072 c 0,0 -11.702,10.055 -10.09,36.95 1.775,27.045 26.52,39.53 26.52,39.53 0,0 6.192,-7.742 5.231,-29.476 -2.097,-31.772 -13.868,-45.705 -13.868,-45.705 z"
         id="path143"
         inkscape:connector-curvature="0"
         style="fill:#804bff;stroke:#000000;stroke-width:0.4562" />
      <g
         transform="rotate(4.47,180.98,769.89)"
         id="g161"
         style="fill:#009200;stroke:#000000;stroke-width:2.5">
        <ellipse
           rx="20.813999"
           ry="24.143999"
           transform="matrix(0.17,0,0,0.32,369.8,-361.65)"
           cy="905"
           cx="427.10999"
           id="ellipse145" />
        <ellipse
           rx="20.813999"
           ry="24.143999"
           transform="matrix(0.17,0,0,0.32,364.04,-362.7)"
           cy="905"
           cx="427.10999"
           id="ellipse147" />
        <ellipse
           rx="20.813999"
           ry="24.143999"
           transform="matrix(0.17,0,0,0.32,360.64,-370.55)"
           cy="905"
           cx="427.10999"
           id="ellipse149" />
        <ellipse
           rx="20.813999"
           ry="24.143999"
           transform="matrix(0.16,0,0,0.35,369.3,-399.35)"
           cy="905"
           cx="427.10999"
           id="ellipse151" />
        <ellipse
           rx="20.813999"
           ry="24.143999"
           transform="matrix(0.16,0,0,0.33,377.41,-379.07)"
           cy="905"
           cx="427.10999"
           id="ellipse153" />
        <ellipse
           rx="20.813999"
           ry="24.143999"
           transform="matrix(0.16,0,0,0.33,373.22,-382.21)"
           cy="905"
           cx="427.10999"
           id="ellipse155" />
        <ellipse
           rx="20.813999"
           ry="24.143999"
           transform="matrix(0.16,0,0,0.33,367.99,-386.66)"
           cy="905"
           cx="427.10999"
           id="ellipse157" />
        <ellipse
           rx="20.813999"
           ry="24.143999"
           transform="matrix(0.16,0,0,0.33,363.01,-389.54)"
           cy="905"
           cx="427.10999"
           id="ellipse159" />
      </g>
      <ellipse
         rx="58.279999"
         ry="186.49001"
         transform="matrix(0.16,-0.06,0.06,0.15,369.61,-145.05)"
         cy="606.10999"
         cx="624.41998"
         id="ellipse163"
         style="fill:#c90000;stroke:#000000;stroke-width:1.00000003pt" />
      <g
         transform="rotate(1.02,242.4,-1957.8)"
         id="g191"
         style="fill:#009200;stroke:#000000">
        <ellipse
           rx="10.823"
           ry="12.905"
           transform="matrix(0.4,0,0,0.3,445.07,-230.53)"
           cy="356.75"
           cx="218.13"
           id="ellipse165"
           style="stroke-width:1.46399999" />
        <ellipse
           rx="10.823"
           ry="12.905"
           transform="matrix(0.35,0,0,0.3,457.17,-235.92)"
           cy="356.75"
           cx="218.13"
           id="ellipse167"
           style="stroke-width:1.546" />
        <ellipse
           rx="10.823"
           ry="12.905"
           transform="matrix(0.35,0,0,0.3,452,-235.92)"
           cy="356.75"
           cx="218.13"
           id="ellipse169"
           style="stroke-width:1.546" />
        <ellipse
           rx="10.823"
           ry="12.905"
           transform="matrix(0.37,0,0,0.27,449.48,-233.46)"
           cy="356.75"
           cx="218.13"
           id="ellipse171"
           style="stroke-width:1.55999994" />
        <ellipse
           rx="10.823"
           ry="12.905"
           transform="matrix(0.37,0,0,0.27,448.95,-237.93)"
           cy="356.75"
           cx="218.13"
           id="ellipse173"
           style="stroke-width:1.55999994" />
        <ellipse
           rx="10.823"
           ry="12.905"
           transform="matrix(0.35,0,0,0.3,447.01,-238.85)"
           cy="356.75"
           cx="218.13"
           id="ellipse175"
           style="stroke-width:1.546" />
        <ellipse
           rx="10.823"
           ry="12.905"
           transform="matrix(0.35,0,0,0.3,448.08,-241.58)"
           cy="356.75"
           cx="218.13"
           id="ellipse177"
           style="stroke-width:1.56200004" />
        <ellipse
           rx="10.823"
           ry="12.905"
           transform="matrix(0.4,0,0,0.3,432.77,-243.48)"
           cy="356.75"
           cx="218.13"
           id="ellipse179"
           style="stroke-width:1.46399999" />
        <ellipse
           rx="10.823"
           ry="12.905"
           transform="matrix(0.37,0,0,0.27,445.92,-243.48)"
           cy="356.75"
           cx="218.13"
           id="ellipse181"
           style="stroke-width:1.55999994" />
        <ellipse
           rx="10.823"
           ry="12.905"
           transform="matrix(0.35,0,0,0.3,444.16,-246.97)"
           cy="356.75"
           cx="218.13"
           id="ellipse183"
           style="stroke-width:1.56200004" />
        <ellipse
           rx="10.823"
           ry="12.905"
           transform="matrix(0.35,0,0,0.3,436.14,-243.17)"
           cy="356.75"
           cx="218.13"
           id="ellipse185"
           style="stroke-width:1.546" />
        <ellipse
           rx="10.823"
           ry="12.905"
           transform="matrix(0.35,0,0,0.3,437.42,-243.88)"
           cy="356.75"
           cx="218.13"
           id="ellipse187"
           style="stroke-width:1.56200004" />
        <ellipse
           rx="10.823"
           ry="12.905"
           transform="matrix(0.35,0,0,0.3,438.99,-247.02)"
           cy="356.75"
           cx="218.13"
           id="ellipse189"
           style="stroke-width:1.56200004" />
      </g>
      <g
         transform="matrix(0.18,0,0,0.2,420.99,-216.8)"
         id="g227"
         style="fill:#009200;stroke:#000000">
        <ellipse
           rx="67.438004"
           ry="205.64"
           transform="matrix(0.98,-0.3,0.36,0.87,-245.81,324.4)"
           cy="564.47998"
           cx="528.67999"
           id="ellipse193"
           style="stroke-width:2.54500008" />
        <ellipse
           rx="13.321"
           ry="40.796001"
           transform="rotate(-23.38,630.52,660.85)"
           cy="646.07001"
           cx="528.67999"
           id="ellipse195"
           style="stroke-width:2.5" />
        <path
           d="m 139.87,643.99 c 0,57.677 -18.755,86.17 -34.55,110.32 7.516,-32.47 12.904,-52.637 12.904,-110.31 0,-57.677 29.58,-85.337 40.38,-101.99 -4.187,16.652 -18.734,44.312 -18.734,101.99 z"
           transform="matrix(1.88,-0.46,0.95,1.18,-352.26,-10.02)"
           id="path197"
           inkscape:connector-curvature="0"
           style="stroke-width:1.53299999" />
        <path
           d="m 139.87,643.99 c 0,57.677 -18.755,86.17 -34.55,110.32 7.516,-32.47 12.904,-52.637 12.904,-110.31 0,-57.677 29.58,-85.337 40.38,-101.99 -4.187,16.652 -18.734,44.312 -18.734,101.99 z"
           transform="matrix(1.88,-0.46,0.95,1.18,-348.42,44.06)"
           id="path199"
           inkscape:connector-curvature="0"
           style="stroke-width:1.53299999" />
        <path
           d="m 139.87,643.99 c 0,57.677 -18.755,86.17 -34.55,110.32 7.516,-32.47 12.904,-52.637 12.904,-110.31 0,-57.677 29.58,-85.337 40.38,-101.99 -4.187,16.652 -18.734,44.312 -18.734,101.99 z"
           transform="matrix(1.87,-0.5,0.98,1.16,-361.92,105.78)"
           id="path201"
           inkscape:connector-curvature="0"
           style="stroke-width:1.53299999" />
        <ellipse
           rx="13.321"
           ry="40.796001"
           transform="matrix(1.8,-0.4,0.7,1.64,-915.63,-221.01)"
           cy="646.07001"
           cx="528.67999"
           id="ellipse203"
           style="stroke-width:1.38900006" />
        <ellipse
           rx="13.321"
           ry="40.796001"
           transform="matrix(1.63,-0.23,0.54,1.35,-739.49,-91.78)"
           cy="646.07001"
           cx="528.67999"
           id="ellipse205"
           style="stroke-width:1.63999999" />
        <ellipse
           rx="13.321"
           ry="40.796001"
           transform="matrix(1.63,-0.2,0.5,1.36,-750.62,-91.83)"
           cy="646.07001"
           cx="528.67999"
           id="ellipse207"
           style="stroke-width:1.63999999" />
        <ellipse
           rx="13.321"
           ry="40.796001"
           transform="matrix(1.3,-0.2,0.47,1,-531.06,47.57)"
           cy="646.07001"
           cx="528.67999"
           id="ellipse209"
           style="stroke-width:2.09699988" />
        <ellipse
           rx="13.321"
           ry="40.796001"
           transform="matrix(1.33,-0.13,0.4,1.03,-517.87,12.21)"
           cy="646.07001"
           cx="528.67999"
           id="ellipse211"
           style="stroke-width:2.09699988" />
        <path
           d="m 145.7,569.47 c 0,34.006 -6.712,61.61 -14.985,61.61 -8.272,0 -14.986,-27.604 -14.986,-61.61"
           transform="matrix(1.03,-0.5,0.46,1.18,12.77,-14.52)"
           id="path213"
           inkscape:connector-curvature="0"
           style="stroke-width:2.08599997" />
        <ellipse
           rx="13.321"
           ry="40.796001"
           transform="matrix(1.33,-0.13,0.4,1.03,-519.53,-34.41)"
           cy="646.07001"
           cx="528.67999"
           id="ellipse215"
           style="stroke-width:2.09699988" />
        <ellipse
           rx="13.321"
           ry="40.796001"
           transform="matrix(1.33,-0.1,0.38,1.04,-533.98,-40.12)"
           cy="646.07001"
           cx="528.67999"
           id="ellipse217"
           style="stroke-width:2.09699988" />
        <path
           d="m 145.7,569.47 c 0,34.006 -6.712,61.61 -14.985,61.61 -8.272,0 -14.986,-27.604 -14.986,-61.61"
           transform="matrix(0.67,-0.47,0.46,0.8,39.49,143.28)"
           id="path219"
           inkscape:connector-curvature="0"
           style="stroke-width:2.88000011" />
        <path
           d="m 145.7,569.47 c 0,34.006 -6.712,61.61 -14.985,61.61 -8.272,0 -14.986,-27.604 -14.986,-61.61"
           transform="matrix(0.67,-0.47,0.46,0.8,51.14,125.79)"
           id="path221"
           inkscape:connector-curvature="0"
           style="stroke-width:2.88000011" />
        <path
           d="m 145.7,569.47 c 0,34.006 -6.712,61.61 -14.985,61.61 -8.272,0 -14.986,-27.604 -14.986,-61.61"
           transform="matrix(0.94,-0.64,0.64,1.1,-40.2,-10.74)"
           id="path223"
           inkscape:connector-curvature="0"
           style="stroke-width:2.08599997" />
        <path
           d="m 145.7,569.47 c 0,34.006 -6.712,61.61 -14.985,61.61 -8.272,0 -14.986,-27.604 -14.986,-61.61"
           transform="matrix(0.67,-0.52,0.46,0.88,68.63,71.18)"
           id="path225"
           inkscape:connector-curvature="0"
           style="stroke-width:2.7420001" />
      </g>
      <g
         id="g237"
         style="fill:#804bff;stroke:#000000;stroke-width:2.5">
        <path
           d="m 276.27,345.41 c -12.278,9.174 0.41,25.144 12.022,30.68 13.06,7.67 86.603,58.184 136.32,11.998 -40.795,0.833 -118.66,-63.183 -148.34,-42.678 z"
           transform="matrix(0.16,0,0,0.22,457.95,-214.27)"
           id="path229"
           inkscape:connector-curvature="0" />
        <path
           d="m 276.27,345.41 c -12.278,9.174 0.41,25.144 12.022,30.68 13.06,7.67 86.603,58.184 136.32,11.998 -40.795,0.833 -118.66,-63.183 -148.34,-42.678 z"
           transform="matrix(0.16,0,0,0.22,456.55,-220.15)"
           id="path231"
           inkscape:connector-curvature="0" />
        <path
           d="m 276.27,345.41 c -12.278,9.174 0.41,25.144 12.022,30.68 13.06,7.67 86.603,58.184 136.32,11.998 -40.795,0.833 -118.66,-63.183 -148.34,-42.678 z"
           transform="matrix(0.16,0,0,0.22,454.77,-225.77)"
           id="path233"
           inkscape:connector-curvature="0" />
        <path
           d="m 276.27,345.41 c -12.278,9.174 0.41,25.144 12.022,30.68 13.06,7.67 86.603,58.184 136.32,11.998 -40.795,0.833 -118.66,-63.183 -148.34,-42.678 z"
           transform="matrix(0.16,0,0,0.22,450.9,-232.2)"
           id="path235"
           inkscape:connector-curvature="0" />
      </g>
      <g
         transform="rotate(1.02,-589.59,681.63)"
         id="g251">
        <path
           d="m 211.17,247.3 c 21.773,-12.065 56.618,-9.75 79.734,11.165 19.36,16.943 45.307,75.194 70.322,92.834 -20.227,0.018 -31.298,-5.77 -42.24,-15.18 -28.768,15.44 -38.128,16.723 -63.89,15.63 -35.882,-1.333 -62.46,-17.653 -68.18,-40.603 -6.165,-21.804 4.926,-52.498 24.254,-63.847 z"
           transform="matrix(0.2,-0.04,0.05,0.18,407.8,-213.64)"
           id="path239"
           inkscape:connector-curvature="0"
           style="fill:#804bff;stroke:#000000;stroke-width:2.5" />
        <ellipse
           rx="14.154"
           ry="14.986"
           transform="matrix(0.25,0,0,0.13,401.82,-215.18)"
           cy="323.04001"
           cx="287.23001"
           id="ellipse241"
           style="fill:#ff0000;stroke:#000000;stroke-width:2.5" />
        <ellipse
           rx="23.254"
           ry="15.895"
           transform="matrix(0.2,-0.08,0.07,0.17,398.66,-208.06)"
           cy="348.26001"
           cx="204.58"
           id="ellipse243"
           style="fill:#ffff00;stroke:#000000;stroke-width:2.5" />
        <circle
           transform="matrix(0.2,0,0,0.2,411.29,-233.74)"
           cy="333.85999"
           cx="283.89999"
           id="ellipse245"
           r="5.8280001" />
        <path
           d="m 516.8,260.29 c 4.425,18.107 -6.674,43.083 -33.133,52.61 -26.775,13.172 -46.08,41.83 -55.64,88.016 -47.245,-103.27 -23.108,-148.28 20.6,-160.35 37.376,-14.363 60.42,-13.37 68.173,19.72 z"
           transform="matrix(0.1,0,0,0.08,417.85,-191.49)"
           id="path247"
           inkscape:connector-curvature="0"
           style="fill:#ffff00;stroke:#000000;stroke-width:6.55999994" />
        <circle
           transform="matrix(0.2,0,0,0.2,418.69,-234.98)"
           cy="362.39001"
           cx="198.98"
           id="ellipse249"
           r="4.71" />
      </g>
    </g>
  </g>
</svg>
