<?xml version="1.0" encoding="UTF-8" standalone="no"?>
<svg
   xmlns:dc="http://purl.org/dc/elements/1.1/"
   xmlns:cc="http://creativecommons.org/ns#"
   xmlns:rdf="http://www.w3.org/1999/02/22-rdf-syntax-ns#"
   xmlns:svg="http://www.w3.org/2000/svg"
   xmlns="http://www.w3.org/2000/svg"
   xmlns:sodipodi="http://sodipodi.sourceforge.net/DTD/sodipodi-0.dtd"
   xmlns:inkscape="http://www.inkscape.org/namespaces/inkscape"
   height="15.999998"
   width="21.333332"
   viewBox="0 0 21.333332 15.999998"
   version="1.1"
   id="svg264"
   sodipodi:docname="ec.svg"
   inkscape:version="0.92.1 r">
  <metadata
     id="metadata270">
    <rdf:RDF>
      <cc:Work
         rdf:about="">
        <dc:format>image/svg+xml</dc:format>
        <dc:type
           rdf:resource="http://purl.org/dc/dcmitype/StillImage" />
        <dc:title></dc:title>
      </cc:Work>
    </rdf:RDF>
  </metadata>
  <defs
     id="defs268" />
  <sodipodi:namedview
     pagecolor="#ffffff"
     bordercolor="#666666"
     borderopacity="1"
     objecttolerance="10"
     gridtolerance="10"
     guidetolerance="10"
     inkscape:pageopacity="0"
     inkscape:pageshadow="2"
     inkscape:window-width="1920"
     inkscape:window-height="1024"
     id="namedview266"
     showgrid="false"
     fit-margin-top="0"
     fit-margin-left="0"
     fit-margin-right="0"
     fit-margin-bottom="0"
     inkscape:zoom="0.49166667"
     inkscape:cx="320"
     inkscape:cy="240"
     inkscape:window-x="0"
     inkscape:window-y="0"
     inkscape:window-maximized="1"
     inkscape:current-layer="svg264" />
  <g
     id="g8"
     transform="scale(0.03333333)"
     style="fill-rule:evenodd;stroke-width:1.00000003pt">
    <path
       d="M 0,0 H 640 V 480 H 0 Z"
       id="path2"
       inkscape:connector-curvature="0"
       style="fill:#ffe800" />
    <path
       d="M 0,240 H 640 V 480 H 0 Z"
       id="path4"
       inkscape:connector-curvature="0"
       style="fill:#00148e" />
    <path
       d="M 0,360 H 640 V 480 H 0 Z"
       id="path6"
       inkscape:connector-curvature="0"
       style="fill:#da0010" />
  </g>
  <g
     id="g16"
     transform="scale(0.03333333)"
     style="fill-rule:evenodd">
    <path
       d="m 269.55,290.834 -72.424,76.485 -1.277,-1.644 72.422,-76.485 1.277,1.644 z m 50.452,12.5 -94.777,99.908 -1.662,-1.572 94.777,-99.91 z"
       id="path10"
       inkscape:connector-curvature="0" />
    <path
       d="m 478.35,60.236 v 88.583 l 17.717,88.582 17.717,-88.583 V 60.235 H 478.35 Z"
       transform="matrix(-0.07,-0.07,-0.1,0.1,265.03,429.55)"
       id="path12"
       inkscape:connector-curvature="0"
       style="fill:#808080;stroke:#000000;stroke-width:4.10400009" />
    <path
       d="m 478.35,60.236 v 88.583 l 17.717,88.582 17.717,-88.583 V 60.235 H 478.35 Z"
       transform="matrix(-0.07,-0.07,-0.1,0.1,240.59,390.52)"
       id="path14"
       inkscape:connector-curvature="0"
       style="fill:#808080;stroke:#000000;stroke-width:4.10400009" />
  </g>
  <path
     d="m 6.9300333,3.82859 c 0,0 -0.26574,7.18101 0.79725,7.18101 1.06299,0 1.5945,-0.7559 1.5945,-0.7559 l -0.0129,-3.94731 -2.37885,-2.47787 z"
     id="path18"
     inkscape:connector-curvature="0"
     style="fill:#ffdf00;fill-rule:evenodd;stroke:#000000;stroke-width:0.01788854pt" />
  <path
     d="m 7.5792333,4.4976 c 0,0.37796 -0.11769,5.75616 0.413805,5.75616 0.531495,0 1.328745,-0.37796 1.328745,-0.37796 l -0.0129,-3.56928 -1.72965,-1.80886 z"
     id="path20"
     inkscape:connector-curvature="0"
     style="fill:#0000c4;fill-rule:evenodd;stroke:#000000;stroke-width:0.01788854pt" />
  <path
     d="m 7.9251333,4.85941 c 0,0.37797 0.067875,4.6383 0.59937,4.6383 h 0.79725 l -0.0129,-3.19126 -1.38372,-1.4471 z"
     id="path22"
     inkscape:connector-curvature="0"
     style="fill:#e10000;fill-rule:evenodd;stroke:#000000;stroke-width:0.01788854pt" />
  <path
     d="m 6.8734,3.86733 2.4140667,2.5495 0.042567,-0.0547 -2.4140666,-2.5495 -0.042533,0.0547 z"
     id="path24"
     inkscape:connector-curvature="0"
     style="fill-rule:evenodd;stroke-width:0.03333334" />
  <path
     d="m 6.1438133,5.29936 c 0,0 -0.685038,6.95661 1.370076,6.95661 1.7126047,0 1.7126047,-1.09844 2.0551334,-1.09844 L 9.226436,8.59445 6.143736,5.29936 Z"
     id="path26"
     inkscape:connector-curvature="0"
     style="fill:#ffdf00;fill-rule:evenodd;stroke:#000000;stroke-width:0.01998889pt" />
  <g
     id="g76"
     transform="scale(0.03333333)"
     style="stroke:#000000">
    <path
       d="m 269.59,155.24 c 1.133,0 28.318,-94.016 118.94,-147.25"
       transform="matrix(0.4,-0.03,-0.05,0.35,135.14,147.37)"
       id="path28"
       inkscape:connector-curvature="0"
       style="fill:none;stroke-width:2.30500007" />
    <path
       d="m 421.37,-20.327 c 0,18.133 -4.567,31.716 -11.328,45.31 -5.627,-18.125 -9.06,-27.177 -9.06,-45.31 0,-18.133 6.83,-35.114 12.458,-48.707 2.23,12.46 7.93,30.574 7.93,48.707 z"
       transform="matrix(0.14,-0.22,0.3,0.14,175.87,257.36)"
       id="path30"
       inkscape:connector-curvature="0"
       style="fill:#005b00;fill-rule:evenodd;stroke-width:1.00000003pt" />
    <path
       d="m 454.22,-169.28 c 0,4.066 -3.804,7.363 -8.495,7.363 -4.691,0 -8.496,-3.297 -8.496,-7.363 0,-4.066 3.803,-7.363 8.495,-7.363 4.692,0 8.495,3.297 8.495,7.363 z"
       transform="matrix(0.18,-0.1,0.1,0.17,177.61,256.68)"
       id="path32"
       inkscape:connector-curvature="0"
       style="fill:#ff0000;fill-rule:evenodd;stroke-width:1.00000003pt" />
    <path
       d="m 421.37,-20.327 c 0,18.133 -4.567,31.716 -11.328,45.31 -5.627,-18.125 -9.06,-27.177 -9.06,-45.31 0,-18.133 6.83,-35.114 12.458,-48.707 2.23,12.46 7.93,30.574 7.93,48.707 z"
       transform="matrix(0.18,0.12,-0.13,0.33,181,96.41)"
       id="path34"
       inkscape:connector-curvature="0"
       style="fill:#005b00;fill-rule:evenodd;stroke-width:1.00000003pt" />
    <path
       d="m 421.37,-20.327 c 0,18.133 -4.567,31.716 -11.328,45.31 -5.627,-18.125 -9.06,-27.177 -9.06,-45.31 0,-18.133 6.83,-35.114 12.458,-48.707 2.23,12.46 7.93,30.574 7.93,48.707 z"
       transform="matrix(0.17,-0.03,-0.03,0.33,179.31,159.26)"
       id="path36"
       inkscape:connector-curvature="0"
       style="fill:#005b00;fill-rule:evenodd;stroke-width:1.00000003pt" />
    <path
       d="m 421.37,-20.327 c 0,18.133 -4.567,31.716 -11.328,45.31 -5.627,-18.125 -9.06,-27.177 -9.06,-45.31 0,-18.133 6.83,-35.114 12.458,-48.707 2.23,12.46 7.93,30.574 7.93,48.707 z"
       transform="matrix(0.06,0.25,-0.17,0.2,227.98,45.45)"
       id="path38"
       inkscape:connector-curvature="0"
       style="fill:#005b00;fill-rule:evenodd;stroke-width:1.00000003pt" />
    <path
       d="m 421.37,-20.327 c 0,18.133 -4.567,31.716 -11.328,45.31 -5.627,-18.125 -9.06,-27.177 -9.06,-45.31 0,-18.133 6.83,-35.114 12.458,-48.707 2.23,12.46 7.93,30.574 7.93,48.707 z"
       transform="matrix(0.2,-0.2,0.2,0.24,150.27,241.08)"
       id="path40"
       inkscape:connector-curvature="0"
       style="fill:#005b00;fill-rule:evenodd;stroke-width:1.00000003pt" />
    <path
       d="m 421.37,-20.327 c 0,18.133 -4.567,31.716 -11.328,45.31 -5.627,-18.125 -9.06,-27.177 -9.06,-45.31 0,-18.133 6.83,-35.114 12.458,-48.707 2.23,12.46 7.93,30.574 7.93,48.707 z"
       transform="matrix(0.22,-0.22,0.25,0.2,135.57,282.11)"
       id="path42"
       inkscape:connector-curvature="0"
       style="fill:#005b00;fill-rule:evenodd;stroke-width:1.00000003pt" />
    <path
       d="m 421.37,-20.327 c 0,18.133 -4.567,31.716 -11.328,45.31 -5.627,-18.125 -9.06,-27.177 -9.06,-45.31 0,-18.133 6.83,-35.114 12.458,-48.707 2.23,12.46 7.93,30.574 7.93,48.707 z"
       transform="matrix(0.26,0.1,-0.2,0.32,130.78,147.66)"
       id="path44"
       inkscape:connector-curvature="0"
       style="fill:#005b00;fill-rule:evenodd;stroke-width:1.00000003pt" />
    <path
       d="m 421.37,-20.327 c 0,18.133 -4.567,31.716 -11.328,45.31 -5.627,-18.125 -9.06,-27.177 -9.06,-45.31 0,-18.133 6.83,-35.114 12.458,-48.707 2.23,12.46 7.93,30.574 7.93,48.707 z"
       transform="matrix(0.15,0.2,-0.32,0.22,178.5,103.35)"
       id="path46"
       inkscape:connector-curvature="0"
       style="fill:#005b00;fill-rule:evenodd;stroke-width:1.00000003pt" />
    <path
       d="m 421.37,-20.327 c 0,18.133 -4.567,31.716 -11.328,45.31 -5.627,-18.125 -9.06,-27.177 -9.06,-45.31 0,-18.133 6.83,-35.114 12.458,-48.707 2.23,12.46 7.93,30.574 7.93,48.707 z"
       transform="matrix(0.08,0.1,-0.14,0.16,250.68,102.64)"
       id="path48"
       inkscape:connector-curvature="0"
       style="fill:#005b00;fill-rule:evenodd;stroke-width:1.00000003pt" />
    <path
       d="m 421.37,-20.327 c 0,18.133 -4.567,31.716 -11.328,45.31 -5.627,-18.125 -9.06,-27.177 -9.06,-45.31 0,-18.133 6.83,-35.114 12.458,-48.707 2.23,12.46 7.93,30.574 7.93,48.707 z"
       transform="matrix(0.1,0,-0.08,0.17,238.09,136.41)"
       id="path50"
       inkscape:connector-curvature="0"
       style="fill:#005b00;fill-rule:evenodd;stroke-width:1.00000003pt" />
    <path
       d="m 421.37,-20.327 c 0,18.133 -4.567,31.716 -11.328,45.31 -5.627,-18.125 -9.06,-27.177 -9.06,-45.31 0,-18.133 6.83,-35.114 12.458,-48.707 2.23,12.46 7.93,30.574 7.93,48.707 z"
       transform="matrix(0,0.14,-0.14,0.08,287.38,81.13)"
       id="path52"
       inkscape:connector-curvature="0"
       style="fill:#005b00;fill-rule:evenodd;stroke-width:1.00000003pt" />
    <path
       d="m 421.37,-20.327 c 0,18.133 -4.567,31.716 -11.328,45.31 -5.627,-18.125 -9.06,-27.177 -9.06,-45.31 0,-18.133 6.83,-35.114 12.458,-48.707 2.23,12.46 7.93,30.574 7.93,48.707 z"
       transform="matrix(0.07,0.1,-0.25,0.15,220.69,115.6)"
       id="path54"
       inkscape:connector-curvature="0"
       style="fill:#005b00;fill-rule:evenodd;stroke-width:1.00000003pt" />
    <path
       d="m 421.37,-20.327 c 0,18.133 -4.567,31.716 -11.328,45.31 -5.627,-18.125 -9.06,-27.177 -9.06,-45.31 0,-18.133 6.83,-35.114 12.458,-48.707 2.23,12.46 7.93,30.574 7.93,48.707 z"
       transform="matrix(0.13,0.22,-0.33,0.2,207.03,70.11)"
       id="path56"
       inkscape:connector-curvature="0"
       style="fill:#005b00;fill-rule:evenodd;stroke-width:1.00000003pt" />
    <path
       d="m 269.59,155.24 c 1.133,0 28.318,-94.016 118.94,-147.25"
       transform="matrix(0.35,-0.2,0.14,0.28,111.76,227.82)"
       id="path58"
       inkscape:connector-curvature="0"
       style="fill:none;stroke-width:2.36999989" />
    <path
       d="m 454.22,-169.28 c 0,4.066 -3.804,7.363 -8.495,7.363 -4.691,0 -8.496,-3.297 -8.496,-7.363 0,-4.066 3.803,-7.363 8.495,-7.363 4.692,0 8.495,3.297 8.495,7.363 z"
       transform="matrix(0.18,-0.1,0.1,0.17,200.34,224.62)"
       id="path60"
       inkscape:connector-curvature="0"
       style="fill:#ff0000;fill-rule:evenodd;stroke-width:1.00000003pt" />
    <path
       d="m 454.22,-169.28 c 0,4.066 -3.804,7.363 -8.495,7.363 -4.691,0 -8.496,-3.297 -8.496,-7.363 0,-4.066 3.803,-7.363 8.495,-7.363 4.692,0 8.495,3.297 8.495,7.363 z"
       transform="matrix(0.18,-0.1,0.1,0.17,211.12,218.26)"
       id="path62"
       inkscape:connector-curvature="0"
       style="fill:#ff0000;fill-rule:evenodd;stroke-width:1.00000003pt" />
    <path
       d="m 454.22,-169.28 c 0,4.066 -3.804,7.363 -8.495,7.363 -4.691,0 -8.496,-3.297 -8.496,-7.363 0,-4.066 3.803,-7.363 8.495,-7.363 4.692,0 8.495,3.297 8.495,7.363 z"
       transform="matrix(0.2,-0.1,0.07,0.13,166.81,232.7)"
       id="path64"
       inkscape:connector-curvature="0"
       style="fill:#ff0000;fill-rule:evenodd;stroke-width:1.00000003pt" />
    <path
       d="m 454.22,-169.28 c 0,4.066 -3.804,7.363 -8.495,7.363 -4.691,0 -8.496,-3.297 -8.496,-7.363 0,-4.066 3.803,-7.363 8.495,-7.363 4.692,0 8.495,3.297 8.495,7.363 z"
       transform="matrix(0.2,-0.1,0.07,0.13,169.93,231.34)"
       id="path66"
       inkscape:connector-curvature="0"
       style="fill:#ff0000;fill-rule:evenodd;stroke-width:1.00000003pt" />
    <path
       d="m 454.22,-169.28 c 0,4.066 -3.804,7.363 -8.495,7.363 -4.691,0 -8.496,-3.297 -8.496,-7.363 0,-4.066 3.803,-7.363 8.495,-7.363 4.692,0 8.495,3.297 8.495,7.363 z"
       transform="matrix(0.2,-0.1,0.07,0.13,168.14,234.25)"
       id="path68"
       inkscape:connector-curvature="0"
       style="fill:#ff0000;fill-rule:evenodd;stroke-width:1.00000003pt" />
    <path
       d="m 252.646,167.252 c 0.407,0.813 -0.024,1.853 -0.963,2.322 -0.939,0.469 -2.029,0.19 -2.435,-0.623 -0.406,-0.813 0.024,-1.853 0.963,-2.322 0.939,-0.469 2.028,-0.19 2.435,0.623 z"
       id="path70"
       inkscape:connector-curvature="0"
       style="fill:#ff0000;fill-rule:evenodd;stroke-width:0.22361pt" />
    <path
       d="m 254.936,164.872 c 0.407,0.813 -0.024,1.853 -0.963,2.322 -0.939,0.469 -2.029,0.19 -2.435,-0.623 -0.406,-0.813 0.024,-1.853 0.963,-2.322 0.939,-0.469 2.028,-0.19 2.435,0.623 z"
       id="path72"
       inkscape:connector-curvature="0"
       style="fill:#ff0000;fill-rule:evenodd;stroke-width:0.22361pt" />
    <path
       d="m 255.516,166.022 c 0.407,0.813 -0.024,1.853 -0.963,2.322 -0.939,0.469 -2.029,0.19 -2.435,-0.623 -0.406,-0.813 0.024,-1.853 0.963,-2.322 0.939,-0.469 2.028,-0.19 2.435,0.623 z"
       id="path74"
       inkscape:connector-curvature="0"
       style="fill:#ff0000;fill-rule:evenodd;stroke-width:0.22361pt" />
  </g>
  <path
     d="m 6.8287933,6.03158 c 0,0.36615 -0.685038,4.39373 1.0275667,5.49217 0.685038,0.36613 1.7125853,-0.36615 1.7125853,0 L 9.226552,8.59445 6.828832,6.03158 Z"
     id="path78"
     inkscape:connector-curvature="0"
     style="fill:#0000c4;fill-rule:evenodd;stroke:#000000;stroke-width:0.01998889pt" />
  <path
     d="m 7.5139667,6.7638 c 0,0.36615 -0.3425094,3.2953 0.685038,4.02752 0.685038,0.73228 2.3977203,0.53365 2.3977203,0.53365 L 9.2265713,8.59449 7.5140247,6.76384 Z"
     id="path80"
     inkscape:connector-curvature="0"
     style="fill:#e10000;fill-rule:evenodd;stroke:#000000;stroke-width:0.01998889pt" />
  <path
     d="M 6.1283333,5.26933 9.2875,8.59967 9.3429,8.54727 6.1837,5.21694 6.128367,5.26944 Z"
     id="path82"
     inkscape:connector-curvature="0"
     style="fill-rule:evenodd;stroke-width:0.03333334" />
  <path
     d="m 5.6421067,4.86956 0.2007846,0.0354 0.059057,0.0591 c -0.00839,-3.1e-4 0.059053,0.0591 -0.023621,0.14173 -0.082679,0.0827 -0.2007894,-0.0354 -0.2007894,-0.0354 0,0 0.035435,0.20078 0.1535454,0.31889 0.11811,0.11811 0.2598413,0.0945 0.2598413,0.0945 0,0 -0.1345267,-0.11017 -0.035434,-0.2008 0.099097,-0.0906 0.141728,-0.0236 0.141728,-0.0236 l 0.11811,0.11811 0.082679,-0.0827 L 5.9255743,4.82236 5.8901433,4.62157 5.586342,4.57107 5.64211,4.86963 Z"
     id="path84"
     inkscape:connector-curvature="0"
     style="fill:#cececc;fill-rule:evenodd;stroke:#000000;stroke-width:0.00557773pt" />
  <path
     d="m 6.1055267,3.47153 0.24296,0.3766 0.30709,0.0827 -0.2007847,0.12992 0.3661373,-0.0118 0.165354,0.11811 0.059053,-0.0945 -0.16534,-0.1181 L 6.7500729,3.58832 6.7146419,3.83635 6.5256652,3.5647 Z"
     id="path86"
     inkscape:connector-curvature="0"
     style="fill:#cececc;fill-rule:evenodd;stroke:#000000;stroke-width:0.006pt" />
  <path
     d="m 7.0920667,3.69627 c 0,0.0207 -0.026107,0.0375 -0.058267,0.0375 -0.032173,0 -0.058293,-0.0168 -0.058293,-0.0375 0,-0.0207 0.026133,-0.0375 0.058267,-0.0375 0.032187,0 0.058293,0.0168 0.058293,0.0375 z m -0.083253,0.0791 c 0,0.358 0.2788934,1.8781 0.3010934,1.9156 0.00187,0.0444 -0.062907,0.0638 -0.09436,0.008 -0.087333,-0.17342 -0.2765734,-1.5991 -0.2844267,-1.9322 -0.00325,-0.13734 0.050133,-0.148 0.1110133,-0.1457 0.050133,0.002 0.111,0.0372 0.111,0.0791 0,0.05 -0.077733,0.0874 -0.14432,0.0749 z"
     id="path88"
     inkscape:connector-curvature="0"
     style="fill:#e10000;fill-rule:evenodd;stroke:#000000;stroke-width:0.01154701pt" />
  <path
     d="m 7.2022467,4.05003 c -0.01034,0.0207 -0.043531,0.0309 -0.074083,0.0229 -0.030565,-0.008 -0.046989,-0.0314 -0.036649,-0.052 0.01034,-0.0207 0.043562,-0.0309 0.074088,-0.0229 0.030577,0.008 0.046979,0.0314 0.036644,0.052 z M 7.083606,4.10833 c 0.091778,0.7191 -0.2167047,1.83011 -0.2143647,1.87316 -0.020427,0.0449 -0.091671,0.0481 -0.093802,-0.0153 -0.014838,-0.0414 0.3404514,-1.04403 0.2384854,-1.8856 0.065579,-0.13815 0.1216266,-0.13546 0.1783126,-0.11794 0.046577,0.0146 0.086825,0.065 0.0659,0.10685 -0.024975,0.0499 -0.1175466,0.068 -0.174564,0.0388 z"
     id="path90"
     inkscape:connector-curvature="0"
     style="fill:#0000c4;fill-rule:evenodd;stroke:#000000;stroke-width:0.01197219pt" />
  <path
     d="m 6.2218333,5.05133 c 0,0.0345 -0.032633,0.0624 -0.072833,0.0624 -0.040233,0 -0.072867,-0.028 -0.072867,-0.0624 0,-0.0345 0.032667,-0.0624 0.072833,-0.0624 0.040233,0 0.072867,0.028 0.072867,0.0624 z M 6.1177667,5.18317 c 0,0.59666 0.3486,3.13016 0.3763666,3.19266 0.00233,0.074 -0.078633,0.10637 -0.1179666,0.0139 C 6.267,8.1007 6.0304667,5.72456 6.0206333,5.1694 6.0165633,4.9405 6.0833003,4.92273 6.1594,4.92656 c 0.062667,0.003 0.1387667,0.0621 0.1387667,0.13184 0,0.0833 -0.097167,0.14566 -0.1804,0.12486 z"
     id="path92"
     inkscape:connector-curvature="0"
     style="fill:#e10000;fill-rule:evenodd;stroke:#000000;stroke-width:0.01666667pt" />
  <path
     d="M 6.40308,5.35668 C 6.389293,5.38978 6.346779,5.40678 6.308187,5.39478 6.269579,5.38268 6.249422,5.34608 6.263208,5.31298 c 0.013787,-0.0331 0.05634,-0.0502 0.0949,-0.0381 0.038624,0.0121 0.058752,0.0487 0.044972,0.0818 z M 6.2504427,5.45198 C 6.3448237,6.59204 5.9181947,8.36391 5.9198347,8.43223 5.8924747,8.50393 5.8018,8.51073 5.801056,8.41013 5.783476,8.34473 6.2662507,6.74391 6.1627147,5.40956 6.2503707,5.18859 6.3215413,5.19156 6.393064,5.21807 c 0.05876,0.0222 0.1083667,0.10122 0.080467,0.16818 -0.0333,0.0799 -0.1515467,0.11069 -0.2231307,0.0658 z"
     id="path94"
     inkscape:connector-curvature="0"
     style="fill:#0000c4;fill-rule:evenodd;stroke:#000000;stroke-width:0.0170098pt" />
  <g
     id="g102"
     transform="scale(0.03333333)"
     style="fill-rule:evenodd">
    <path
       d="m 370.454,290.834 72.423,76.485 1.277,-1.644 -72.423,-76.485 -1.276,1.644 z m -50.454,12.5 94.778,99.908 1.662,-1.572 -94.777,-99.91 -1.662,1.574 z"
       id="path96"
       inkscape:connector-curvature="0" />
    <path
       d="m 478.35,60.236 v 88.583 l 17.717,88.582 17.717,-88.583 V 60.235 H 478.35 Z"
       transform="matrix(0.07,-0.07,0.1,0.1,374.97,429.55)"
       id="path98"
       inkscape:connector-curvature="0"
       style="fill:#808080;stroke:#000000;stroke-width:4.10400009" />
    <path
       d="m 478.35,60.236 v 88.583 l 17.717,88.582 17.717,-88.583 V 60.235 H 478.35 Z"
       transform="matrix(0.07,-0.07,0.1,0.1,399.41,390.52)"
       id="path100"
       inkscape:connector-curvature="0"
       style="fill:#808080;stroke:#000000;stroke-width:4.10400009" />
  </g>
  <g
     id="g158"
     transform="scale(0.03333333)"
     style="fill-rule:evenodd;stroke-width:1.00000003pt">
    <path
       d="m 301.18,272.84 c 0,0 -17.716,336.61 53.15,336.61 70.866,0 106.3,-35.433 106.3,-35.433 l -0.86,-185.03 -158.59,-116.15 z"
       transform="matrix(-0.45,0,0,0.64,567.65,-59.76)"
       id="path104"
       inkscape:connector-curvature="0"
       style="fill:#ffdf00;stroke:#000000" />
    <path
       d="m 344.46,304.2 c 0,17.717 -7.846,269.82 27.587,269.82 35.433,0 88.583,-17.717 88.583,-17.717 l -0.86,-167.31 -115.31,-84.79 z"
       transform="matrix(-0.45,0,0,0.64,567.65,-59.76)"
       id="path106"
       inkscape:connector-curvature="0"
       style="fill:#0000c4;stroke:#000000" />
    <path
       d="m 367.52,321.16 c 0,17.717 4.525,217.42 39.958,217.42 h 53.15 l -0.86,-149.59 -92.248,-67.833 z"
       transform="matrix(-0.45,0,0,0.64,567.65,-59.76)"
       id="path108"
       inkscape:connector-curvature="0"
       style="fill:#e10000;stroke:#000000" />
    <path
       d="m 433.814,116.02 -72.423,76.485 -1.276,-1.642 72.423,-76.485 1.277,1.642 z"
       id="path110"
       inkscape:connector-curvature="0" />
    <g
       id="g136"
       style="fill:#005b00;stroke:#000000">
      <path
         d="m 428.17,-16.928 c 0,0 81.556,90.618 111.01,154.05 29.45,63.432 54.37,156.32 54.37,156.32 0,0 2.266,-86.086 -36.246,-163.11 -52.1,-97.42 -131.4,-142.73 -129.13,-147.26 z"
         transform="matrix(0.16,-0.07,0.08,0.35,309.51,210.98)"
         id="path112"
         inkscape:connector-curvature="0" />
      <path
         d="m 428.17,-16.928 c 0,0 81.556,90.618 111.01,154.05 29.45,63.432 54.37,156.32 54.37,156.32 0,0 2.266,-86.086 -36.246,-163.11 -52.1,-97.42 -131.4,-142.73 -129.13,-147.26 z"
         transform="matrix(0.2,-0.05,0.07,0.4,291.49,182.57)"
         id="path114"
         inkscape:connector-curvature="0" />
      <path
         d="m 428.17,-16.928 c 0,0 81.556,90.618 111.01,154.05 29.45,63.432 54.37,156.32 54.37,156.32 0,0 2.266,-86.086 -36.246,-163.11 -52.1,-97.42 -131.4,-142.73 -129.13,-147.26 z"
         transform="matrix(0.23,0.14,-0.03,0.4,296.48,69.41)"
         id="path116"
         inkscape:connector-curvature="0" />
      <path
         d="m 428.17,-16.928 c 0,0 81.556,90.618 111.01,154.05 29.45,63.432 54.37,156.32 54.37,156.32 0,0 2.266,-86.086 -36.246,-163.11 -52.1,-97.42 -131.4,-142.73 -129.13,-147.26 z"
         transform="matrix(0.25,0.03,0.02,0.44,274.4,114.91)"
         id="path118"
         inkscape:connector-curvature="0" />
      <path
         d="m 428.17,-16.928 c 0,0 81.556,90.618 111.01,154.05 29.45,63.432 54.37,156.32 54.37,156.32 0,0 2.266,-86.086 -36.246,-163.11 -52.1,-97.42 -131.4,-142.73 -129.13,-147.26 z"
         transform="matrix(0.18,0.17,-0.04,0.35,329.99,66.98)"
         id="path120"
         inkscape:connector-curvature="0" />
      <path
         d="m 428.17,-16.928 c 0,0 81.556,90.618 111.01,154.05 29.45,63.432 54.37,156.32 54.37,156.32 0,0 2.266,-86.086 -36.246,-163.11 -52.1,-97.42 -131.4,-142.73 -129.13,-147.26 z"
         transform="matrix(0.23,0,0.03,0.4,280.58,141.86)"
         id="path122"
         inkscape:connector-curvature="0" />
      <path
         d="m 428.17,-16.928 c 0,0 81.556,90.618 111.01,154.05 29.45,63.432 54.37,156.32 54.37,156.32 0,0 2.266,-86.086 -36.246,-163.11 -52.1,-97.42 -131.4,-142.73 -129.13,-147.26 z"
         transform="matrix(0.2,-0.07,0.07,0.38,290.14,196.84)"
         id="path124"
         inkscape:connector-curvature="0" />
      <path
         d="m 428.17,-16.928 c 0,0 81.556,90.618 111.01,154.05 29.45,63.432 54.37,156.32 54.37,156.32 0,0 2.266,-86.086 -36.246,-163.11 -52.1,-97.42 -131.4,-142.73 -129.13,-147.26 z"
         transform="matrix(0.2,-0.03,0.05,0.4,292.69,166.78)"
         id="path126"
         inkscape:connector-curvature="0" />
      <path
         d="m 428.17,-16.928 c 0,0 81.556,90.618 111.01,154.05 29.45,63.432 54.37,156.32 54.37,156.32 0,0 2.266,-86.086 -36.246,-163.11 -52.1,-97.42 -131.4,-142.73 -129.13,-147.26 z"
         transform="matrix(0.22,0.15,-0.05,0.38,305.08,65.51)"
         id="path128"
         inkscape:connector-curvature="0" />
      <path
         d="m 428.17,-16.928 c 0,0 81.556,90.618 111.01,154.05 29.45,63.432 54.37,156.32 54.37,156.32 0,0 2.266,-86.086 -36.246,-163.11 -52.1,-97.42 -131.4,-142.73 -129.13,-147.26 z"
         transform="matrix(0.24,0.05,0,0.44,278.88,97.67)"
         id="path130"
         inkscape:connector-curvature="0" />
      <path
         d="m 428.17,-16.928 c 0,0 81.556,90.618 111.01,154.05 29.45,63.432 54.37,156.32 54.37,156.32 0,0 2.266,-86.086 -36.246,-163.11 -52.1,-97.42 -131.4,-142.73 -129.13,-147.26 z"
         transform="matrix(0.17,0.17,-0.06,0.33,338.96,70)"
         id="path132"
         inkscape:connector-curvature="0" />
      <path
         d="m 428.17,-16.928 c 0,0 81.556,90.618 111.01,154.05 29.45,63.432 54.37,156.32 54.37,156.32 0,0 2.266,-86.086 -36.246,-163.11 -52.1,-97.42 -131.4,-142.73 -129.13,-147.26 z"
         transform="matrix(0.24,0.02,0,0.4,276.43,128.02)"
         id="path134"
         inkscape:connector-curvature="0" />
    </g>
    <path
       d="m 301.18,272.84 c 0,0 -35.433,336.61 70.866,336.61 88.583,0 88.583,-53.15 106.3,-53.15 L 460.626,432.28 301.176,272.84 Z"
       transform="matrix(-0.58,0,0,0.62,630.39,-10.18)"
       id="path138"
       inkscape:connector-curvature="0"
       style="fill:#ffdf00;stroke:#000000" />
    <path
       d="m 336.61,308.27 c 0,17.717 -35.433,212.6 53.15,265.75 35.433,17.716 88.582,-17.717 88.582,0 L 460.632,432.28 336.612,308.27 Z"
       transform="matrix(-0.58,0,0,0.62,630.39,-10.18)"
       id="path140"
       inkscape:connector-curvature="0"
       style="fill:#0000c4;stroke:#000000" />
    <path
       d="m 372.05,343.7 c 0,17.717 -17.716,159.45 35.433,194.88 35.433,35.433 124.02,25.822 124.02,25.822 l -70.87,-132.12 -88.58,-88.58 z"
       transform="matrix(-0.58,0,0,0.62,630.39,-10.18)"
       id="path142"
       inkscape:connector-curvature="0"
       style="fill:#e10000;stroke:#000000" />
    <path
       d="m 456.172,158.08 -94.777,99.91 -1.66,-1.573 94.775,-99.91 1.662,1.574 z"
       id="path144"
       inkscape:connector-curvature="0" />
    <path
       d="m 460.63,184.25 17.716,35.433 V 237.4 c -0.865,-1.305 0,17.716 -17.716,17.716 -17.717,0 -17.717,-35.433 -17.717,-35.433 0,0 -17.716,35.433 -17.716,70.866 0,35.433 17.716,53.15 17.716,53.15 0,0 -2.61,-36.704 17.717,-35.434 20.328,1.27 17.716,17.716 17.716,17.716 v 35.433 h 17.717 v -141.73 l 17.717,-35.433 -27.136,-53.15 -26.014,53.15 z"
       transform="matrix(-0.14,-0.14,-0.1,0.1,553.66,192.15)"
       id="path146"
       inkscape:connector-curvature="0"
       style="fill:#cececc;stroke:#000000" />
    <path
       d="m 557.82,95.67 -26.323,70.865 17.717,53.15 -35.433,-17.716 35.434,53.148 v 35.433 h 17.716 v -35.43 l 35.433,-53.15 -35.433,17.717 17.717,-53.15 z"
       transform="matrix(-0.1,-0.16,-0.14,0.1,526.03,183.83)"
       id="path148"
       inkscape:connector-curvature="0"
       style="fill:#cececc;stroke:#000000" />
    <path
       d="m 422.53,136.96 c 0,2.068 -1.958,3.746 -4.37,3.746 -2.413,0 -4.372,-1.678 -4.372,-3.746 0,-2.068 1.96,-3.747 4.37,-3.747 2.414,0 4.372,1.68 4.372,3.747 z m -6.244,7.91 c 0,35.8 20.917,187.81 22.582,191.56 0.14,4.44 -4.718,6.382 -7.077,0.832 -6.55,-17.342 -20.743,-159.91 -21.332,-193.22 -0.244,-13.734 3.76,-14.8 8.326,-14.57 3.76,0.21 8.325,3.725 8.325,7.91 0,4.995 -5.83,8.74 -10.824,7.492 z"
       transform="matrix(-0.4,0,0,0.3,596.29,69.8)"
       id="path150"
       inkscape:connector-curvature="0"
       style="fill:#e10000;stroke:#000000" />
    <path
       d="m 422.53,136.96 c 0,2.068 -1.958,3.746 -4.37,3.746 -2.413,0 -4.372,-1.678 -4.372,-3.746 0,-2.068 1.96,-3.747 4.37,-3.747 2.414,0 4.372,1.68 4.372,3.747 z m -6.244,7.91 c 31.488,61.414 48.722,166.77 50.387,170.52 0.14,4.44 -4.718,6.382 -7.077,0.832 -2.48,-3.315 -12.667,-100.18 -49.138,-172.18 -0.244,-13.734 3.76,-14.8 8.326,-14.57 3.76,0.21 8.325,3.725 8.325,7.91 0,4.995 -5.83,8.74 -10.824,7.492 z"
       transform="matrix(-0.38,0.1,0.15,0.3,563.96,38.16)"
       id="path152"
       inkscape:connector-curvature="0"
       style="fill:#0000c4;stroke:#000000" />
    <path
       d="m 453.345,151.54 c 0,1.034 0.979,1.873 2.185,1.873 1.207,0 2.186,-0.839 2.186,-1.873 0,-1.034 -0.98,-1.873 -2.185,-1.873 -1.207,0 -2.186,0.84 -2.186,1.873 z m 3.122,3.955 c 0,17.9 -10.458,93.905 -11.291,95.78 -0.07,2.22 2.359,3.191 3.539,0.416 3.275,-8.671 10.371,-79.955 10.666,-96.61 0.122,-6.867 -1.88,-7.4 -4.163,-7.285 -1.88,0.105 -4.163,1.863 -4.163,3.955 0,2.498 2.915,4.37 5.412,3.746 z"
       id="path154"
       inkscape:connector-curvature="0"
       style="fill:#e10000;stroke:#000000;stroke-width:0.50000001pt" />
    <path
       d="m 422.53,136.96 c 0,2.068 -1.958,3.746 -4.37,3.746 -2.413,0 -4.372,-1.678 -4.372,-3.746 0,-2.068 1.96,-3.747 4.37,-3.747 2.414,0 4.372,1.68 4.372,3.747 z m -6.244,7.91 c 31.488,61.414 48.722,166.77 50.387,170.52 0.14,4.44 -4.718,6.382 -7.077,0.832 -2.48,-3.315 -12.667,-100.18 -49.138,-172.18 -0.244,-13.734 3.76,-14.8 8.326,-14.57 3.76,0.21 8.325,3.725 8.325,7.91 0,4.995 -5.83,8.74 -10.824,7.492 z"
       transform="matrix(-0.48,0.15,0.2,0.48,623.32,31.58)"
       id="path156"
       inkscape:connector-curvature="0"
       style="fill:#0000c4;stroke:#000000" />
  </g>
  <g
     id="g180"
     transform="scale(0.03333333)"
     style="fill-rule:evenodd;stroke:#000000;stroke-width:1.00000003pt">
    <path
       d="m 478.35,698.03 c 17.717,10.652 37.09,8.268 53.15,0 V 556.3 h -35.433 c 17.717,53.15 17.717,106.3 -17.717,141.73 z"
       transform="matrix(0.58,0,0,0.62,9.63,-10.18)"
       id="path160"
       inkscape:connector-curvature="0"
       style="fill:#e10000" />
    <path
       d="m 513.78,609.45 c 0,88.582 -42.466,108.27 -42.466,125.98 17.716,0 29.465,-8.248 42.466,-19.685 17.716,-17.717 19.426,-107.68 17.716,-106.3 H 513.78 Z"
       transform="matrix(0.35,0,0,0.7,123.48,-89.93)"
       id="path162"
       inkscape:connector-curvature="0"
       style="fill:#0000c4" />
    <path
       d="m 478.35,609.45 c -0.81,51.77 -44.794,99.64 -36.497,110.24 9.474,9.475 36.497,-21.654 71.93,-3.937 17.717,-17.717 19.427,-107.68 17.717,-106.3 h -53.15 z"
       transform="matrix(0.35,0,0,0.7,123.48,-89.93)"
       id="path164"
       inkscape:connector-curvature="0"
       style="fill:#0000c4" />
    <path
       d="m 513.78,609.45 c 0,88.582 -40.696,94.47 -40.696,118.09 17.717,0 40.603,-12.912 40.696,-11.79 17.716,-17.718 19.426,-107.68 17.716,-106.3 z"
       transform="matrix(0.35,0,0,0.46,112.52,51)"
       id="path166"
       inkscape:connector-curvature="0"
       style="fill:#ffdf00" />
    <path
       d="m 478.35,609.45 c -0.81,51.77 -43.73,95.702 -35.433,106.3 9.474,9.475 35.433,-17.717 70.867,0 C 531.5,698.033 533.21,608.07 531.5,609.45 Z"
       transform="matrix(0.35,0,0,0.46,112.52,51)"
       id="path168"
       inkscape:connector-curvature="0"
       style="fill:#ffdf00" />
    <path
       d="m 478.35,698.03 c 17.717,10.652 37.09,8.252 53.15,-0.015 v -141.72 h -35.433 c 17.717,53.15 17.717,106.3 -17.717,141.73 z"
       transform="matrix(-0.58,0,0,0.62,630.39,-10.17)"
       id="path170"
       inkscape:connector-curvature="0"
       style="fill:#e10000" />
    <path
       d="m 513.78,609.45 c 0,88.582 -42.466,108.27 -42.466,125.98 17.716,0 29.465,-8.248 42.466,-19.685 17.716,-17.717 19.426,-107.68 17.716,-106.3 H 513.78 Z"
       transform="matrix(-0.35,0,0,0.7,516.53,-89.92)"
       id="path172"
       inkscape:connector-curvature="0"
       style="fill:#0000c4" />
    <path
       d="m 478.35,609.45 c -0.81,51.77 -44.794,99.64 -36.497,110.24 9.474,9.475 36.497,-21.654 71.93,-3.937 17.717,-17.717 19.427,-107.68 17.717,-106.3 h -53.15 z"
       transform="matrix(-0.35,0,0,0.7,516.53,-89.92)"
       id="path174"
       inkscape:connector-curvature="0"
       style="fill:#0000c4" />
    <path
       d="m 513.78,609.45 c 0,88.582 -40.696,94.47 -40.696,118.09 17.717,0 40.603,-12.912 40.696,-11.79 17.716,-17.718 19.426,-107.68 17.716,-106.3 z"
       transform="matrix(-0.35,0,0,0.46,527.51,51.01)"
       id="path176"
       inkscape:connector-curvature="0"
       style="fill:#ffdf00" />
    <path
       d="m 478.35,609.45 c -0.81,51.77 -43.73,95.702 -35.433,106.3 9.474,9.475 35.433,-17.717 70.867,0 C 531.5,698.033 533.21,608.07 531.5,609.45 Z"
       transform="matrix(-0.35,0,0,0.46,527.51,51)"
       id="path178"
       inkscape:connector-curvature="0"
       style="fill:#ffdf00" />
  </g>
  <g
     id="g208"
     transform="scale(0.03333333)"
     style="fill-rule:evenodd;stroke:#000000">
    <path
       d="m 198.56,77.952 -89.676,35.434 89.676,35.434 44.837,-17.717 22.42,17.717 22.418,35.433 22.42,-35.433 22.418,-17.717 1201.9,-0.002 V 95.668 l -1201.9,0.002 -22.42,-17.718 c 0,-17.716 4.704,-35.433 22.42,-35.433 17.717,0 54.242,-0.003 89.675,-0.003 0,-17.716 -44.838,-53.15 -134.51,-53.15 -89.675,0 -134.51,35.434 -134.51,53.15 l 89.675,0.002 c 17.716,0 22.42,17.716 22.42,35.432 l -22.44,17.717 -44.84,-17.717 z"
       transform="matrix(0.12,0,0,0.22,217.8,324.36)"
       id="path182"
       inkscape:connector-curvature="0"
       style="fill:#908f8a;stroke-width:4.46700001" />
    <path
       transform="matrix(0.28,0,0,0.27,216.06,334.6)"
       d="m 204.35,95.67 h 336.61 v 17.718 H 204.35 Z"
       id="path184"
       inkscape:connector-curvature="0"
       style="fill:#b74d00;stroke-width:1.83800006" />
    <path
       transform="matrix(0.28,0,0,0.27,216.06,334.6)"
       d="M 204.35,77.955 H 540.96 V 95.672 H 204.35 Z m 0,-17.718 H 540.96 V 77.954 H 204.35 Z"
       id="path186"
       inkscape:connector-curvature="0"
       style="fill:#b74d00;stroke-width:1.83800006" />
    <path
       transform="matrix(0.28,0,0,0.27,216.06,334.6)"
       d="M 204.35,42.522 H 540.96 V 60.24 H 204.35 Z m 0,-17.717 H 540.96 V 42.522 H 204.35 Z"
       id="path188"
       inkscape:connector-curvature="0"
       style="fill:#b74d00;stroke-width:1.83800006" />
    <path
       transform="matrix(0.28,0,0,0.27,216.06,334.6)"
       d="M 204.35,7.09 H 540.96 V 24.806 H 204.35 Z m 0,-17.718 H 540.96 V 7.09 H 204.35 Z"
       id="path190"
       inkscape:connector-curvature="0"
       style="fill:#b74d00;stroke-width:1.83800006" />
    <path
       d="m 423.23,60.236 137.8,124.02 h 19.686 l -137.8,-124.02 z"
       transform="matrix(0.25,0,0,0.27,171.89,315.18)"
       id="path192"
       inkscape:connector-curvature="0"
       style="fill:#908f8a;stroke-width:3.25500011" />
    <path
       d="m 423.23,60.236 137.8,124.02 h 19.686 l -137.8,-124.02 z"
       transform="matrix(0.25,0,0,-0.27,171.89,382.19)"
       id="path194"
       inkscape:connector-curvature="0"
       style="fill:#908f8a;stroke-width:3.25500011" />
    <path
       d="m 425.2,60.236 v 124.02 h 17.716 V 60.236 Z"
       transform="matrix(0.28,0,0,0.27,159.56,315.18)"
       id="path196"
       inkscape:connector-curvature="0"
       style="fill:#908f8a;stroke-width:3.08699989" />
    <path
       d="m 423.23,60.236 137.8,124.02 h 19.686 l -137.8,-124.02 z"
       transform="matrix(0.25,0,0,0.27,216.23,315.18)"
       id="path198"
       inkscape:connector-curvature="0"
       style="fill:#908f8a;stroke-width:3.25500011" />
    <path
       d="m 423.23,60.236 137.8,124.02 h 19.686 l -137.8,-124.02 z"
       transform="matrix(0.25,0,0,-0.27,216.23,382.19)"
       id="path200"
       inkscape:connector-curvature="0"
       style="fill:#908f8a;stroke-width:3.25500011" />
    <path
       d="m 425.2,60.236 v 124.02 h 17.716 V 60.236 Z"
       transform="matrix(0.28,0,0,0.27,238.4,315.18)"
       id="path202"
       inkscape:connector-curvature="0"
       style="fill:#908f8a;stroke-width:3.08699989" />
    <path
       d="m 425.2,60.236 v 124.02 h 17.716 V 60.236 Z"
       transform="matrix(0.28,0,0,0.27,203.91,315.18)"
       id="path204"
       inkscape:connector-curvature="0"
       style="fill:#908f8a;stroke-width:3.08699989" />
    <path
       d="m 425.2,60.236 v 124.02 h 17.716 V 60.236 Z"
       transform="matrix(0.28,0,0,0.27,194.05,315.18)"
       id="path206"
       inkscape:connector-curvature="0"
       style="fill:#908f8a;stroke-width:3.08699989" />
  </g>
  <g
     id="g216"
     transform="scale(0.03333333)"
     style="fill:#ffdf00;fill-rule:evenodd;stroke:#000000;stroke-width:1.00000003pt">
    <path
       d="m 655.51,396.85 c 0,88.016 -55.56,159.45 -124.02,159.45 -68.456,0 -124.02,-71.433 -124.02,-159.45 0,-88.015 55.56,-159.45 124.02,-159.45 68.457,0 124.02,71.433 124.02,159.45 z m -17.717,0 c 0,78.237 -47.622,141.73 -106.3,141.73 -58.677,0 -106.3,-63.495 -106.3,-141.73 0,-78.236 47.622,-141.73 106.3,-141.73 58.677,0 106.3,63.497 106.3,141.73 z"
       transform="matrix(0.58,0,0,0.62,9.63,-10.18)"
       id="path210"
       inkscape:connector-curvature="0" />
    <path
       d="m 579.75,249.94 c -14.836,-8.072 -31.144,-12.537 -48.258,-12.537 -17.114,0 -33.422,4.465 -48.257,12.537 l 6.893,16.323 c 12.716,-7.175 26.695,-11.144 41.364,-11.144 14.669,0 28.648,3.968 41.364,11.143 l 6.894,-16.323 z"
       transform="matrix(0.58,0,0,0.62,9.63,-10.18)"
       id="path212"
       inkscape:connector-curvature="0" />
    <path
       d="m 579.75,249.94 c -14.836,-8.072 -31.144,-12.537 -48.258,-12.537 -17.114,0 -33.422,4.465 -48.257,12.537 l 6.893,16.323 c 12.716,-7.175 26.695,-11.144 41.364,-11.144 14.669,0 28.648,3.968 41.364,11.143 l 6.894,-16.323 z"
       transform="matrix(0.58,0,0,-0.62,9.75,479.31)"
       id="path214"
       inkscape:connector-curvature="0" />
  </g>
  <path
     d="m 12.6518,7.86223 c 0,1.61774 -0.9201,2.9291 -2.055133,2.9291 -1.1350003,0 -2.0551337,-1.31143 -2.0551337,-2.9291 0,-1.61773 0.9201,-2.9291 2.0551337,-2.9291 1.135,0 2.055133,1.31144 2.055133,2.9291 z"
     id="path218"
     inkscape:connector-curvature="0"
     style="fill:#a7cfff;fill-rule:evenodd;stroke-width:0.03333334" />
  <path
     d="m 12.6518,7.86223 c 0.02191,0.55094 -0.08959,0.81913 -0.229873,1.39203 -0.03697,0.0616 -0.21201,-0.1351 -0.317976,-0.23221 -0.105966,-0.0971 -0.151032,0.0876 -0.281048,-0.063 -0.130017,-0.15054 -0.213634,0.0425 -0.309005,-0.0846 -0.09537,-0.12717 -0.9918,-0.14585 -0.993076,-0.15678 0.08874,-0.047 0.546553,0.003 0.473164,-0.23132 C 10.910856,8.24413 10.392855,8.47935 10.323313,8.16882 10.276143,7.86075 9.287684,7.8476 9.2170593,7.77151 c 0.027917,0.11707 0.7680747,0.16636 0.750404,0.46644 -0.016105,0.12227 -0.7287313,0.158 -0.797442,0.26148 -0.05887,0.1301 0.5592554,-0.0353 0.582204,0.12466 -0.00149,0.0658 -0.090944,10e-4 -0.412902,0.10313 C 9.178354,8.77802 9.6381007,8.9407 9.46325,9.02971 9.28838,9.11871 8.91689,9.1576 8.9328787,9.19501 8.9897187,9.37911 9.7969433,9.59875 9.7165553,9.63035 9.4313113,9.76592 9.28055,9.85504 9.1437667,9.93316 8.7717933,9.403 8.5416107,8.67069 8.5416107,7.86236 9.1547867,7.62665 9.0243253,7.5785 10.158747,7.5785 c 1.134422,0 1.507614,0.0481 2.493034,0.28386 z"
     id="path220"
     inkscape:connector-curvature="0"
     style="fill:#afff7b;fill-rule:evenodd;stroke:#000000;stroke-width:0.01998889pt" />
  <path
     d="m 12.6518,7.86223 c -0.15602,0 -0.318111,0.0703 -0.484687,0.0703 -0.166595,0 -0.337656,-0.0703 -0.511676,-0.0703 -0.174019,0 -0.372882,0.0937 -0.551232,0.0937 -0.17833,0 -0.336168,-0.0936 -0.515736,-0.0936 -0.179548,0 -0.358942,0.0702 -0.536596,0.0702 -0.1776543,0 -0.3535683,-0.0703 -0.526215,-0.0703 -0.1726467,0 -0.3420067,0.0703 -0.5065333,0.0703 -0.1645267,0 -0.32422,-0.0703 -0.4775334,-0.0703 0,-0.40424 0.057536,-0.7894 0.161588,-1.13976 0.52345,0.0413 0.2134787,-0.3248 0.52345,-0.3248 0.16733,0 0.3370574,0.0384 0.4879347,0.20228 0.047309,0 0.2799467,-0.23504 0.539632,-0.20228 0.259685,0.0328 0.164179,0.56362 0.50982,0.59183 0.175218,0.14047 0.278265,0.2301 0.517747,0.28669 0.342509,0.0332 1.321433,-0.0517 1.328277,-0.004 a 3.6387267,3.8896733 0 0 1 0.04176,0.59007 z"
     id="path222"
     inkscape:connector-curvature="0"
     style="fill:#ffffff;fill-rule:evenodd;stroke:#000000;stroke-width:0.01998889pt" />
  <path
     d="m 10.906667,9.56637 c 0,-0.0906 0.09008,-0.15139 0.09008,-0.29638 0,-0.14499 -0.07943,-0.1496 -0.08253,-0.28576 -0.0013,-0.0554 0.0688,-0.11274 0.09943,-0.11736 0.03063,-0.005 0.05662,0.11872 0.05662,0.14592 0,0.0272 -0.03108,-0.0671 -0.05719,-0.07 -0.02611,-0.003 -0.08209,0.0101 -0.08209,0.0373 0,0.0544 0.099,0.12157 0.09145,0.3028 -0.0075,0.18123 -0.08473,0.23451 -0.08473,0.28888 0,0.0544 0.03371,0.20576 0.03371,0.20576 0,0 -0.06475,-0.12048 -0.06475,-0.21107 z"
     id="path224"
     inkscape:connector-curvature="0"
     style="fill-rule:evenodd;stroke:#000000;stroke-width:0.01032796pt" />
  <path
     d="m 11.195333,9.55371 c 0,-0.0906 -0.09008,-0.1514 -0.09008,-0.29639 0,-0.14499 0.07967,-0.14957 0.08253,-0.28576 0.0063,-0.0634 -0.07876,-0.1047 -0.1094,-0.10933 -0.03064,-0.005 -0.06657,0.12672 -0.06657,0.15392 0,0.0272 0.03607,-0.0831 0.06217,-0.0861 0.0261,-0.003 0.09702,0.0101 0.09702,0.0373 0,0.0544 -0.099,0.12156 -0.09145,0.30279 0.0075,0.18123 0.08473,0.23451 0.08473,0.28888 0,0.0544 -0.03371,0.20576 -0.03371,0.20576 0,0 0.06475,-0.12048 0.06475,-0.21107 z"
     id="path226"
     inkscape:connector-curvature="0"
     style="fill-rule:evenodd;stroke:#000000;stroke-width:0.01032796pt" />
  <path
     d="m 11.098833,8.8282 c 0,0.0444 -0.02167,0.0804 -0.04847,0.0804 -0.02677,0 -0.04847,-0.036 -0.04847,-0.0805 0,-0.0445 0.02167,-0.0804 0.0485,-0.0804 0.0268,0 0.0485,0.036 0.0485,0.0804 z m 0.565034,0.2988 h 0.0155 V 9.7809 H 11.6639 Z m 0.1394,-0.0496 h 0.01547 v 0.65387 h -0.01547 z"
     id="path228"
     inkscape:connector-curvature="0"
     style="fill-rule:evenodd;stroke-width:0.03333334" />
  <path
     d="m 11.753233,9.37433 1.34e-4,-0.0164 0.1326,0.0228 -1.34e-4,0.0165 z"
     id="path230"
     inkscape:connector-curvature="0"
     style="fill-rule:evenodd;stroke-width:0.03333334" />
  <path
     d="m 9.8466933,9.56411 c 0,0 0.5036717,0.23412 0.6131757,0.37457 0.109504,0.14047 0.06569,0.14045 0.06569,0.14045 l 1.116887,0.0468 c 0,-0.0702 0.197064,-0.0703 0.240893,-0.23411 0.04377,-0.16389 0.04377,-0.21068 0.04377,-0.21068 l -0.350378,0.11706 0.02189,-0.21068 h -0.306569 l -0.04381,0.21068 -0.656985,-0.0234 0.04381,-0.56184 -0.131389,0.0234 -0.02191,0.53843 c -0.02192,0 -0.6132147,-0.16389 -0.6351,-0.2107 z"
     id="path232"
     inkscape:connector-curvature="0"
     style="fill:#b74d00;fill-rule:evenodd;stroke:#000000;stroke-width:0.01998889pt" />
  <path
     d="m 8.8379133,6.19712 c 0,0 0.7278034,-0.23176 1.7807937,-0.2152 1.05299,0.0165 1.780793,0.26484 1.765326,0.26484 -0.01547,0 -0.201337,-0.38072 -0.201337,-0.38072 0,0 -0.743289,-0.21518 -1.579475,-0.23174 C 9.766996,5.6178 9.0391927,5.79984 9.0546787,5.81638 Z"
     id="path234"
     inkscape:connector-curvature="0"
     style="fill:#fede00;fill-rule:evenodd;stroke:#fede00;stroke-width:0.01998889pt" />
  <path
     d="m 10.2024,5.66183 0.452067,-0.009 0.0046,0.26333 -0.452,0.009 z M 9.1591667,5.80517 8.9997333,6.06463 9.5385667,5.99823 9.4953337,5.7388 9.1591671,5.8051 Z m 0.4592666,-0.0998 0.4505997,-0.0396 0.02067,0.26253 -0.4505333,0.0396 z m 1.6278997,-0.0269 -0.451266,-0.0303 -0.01583,0.26294 0.451234,0.0303 z m 0.972734,0.1651 0.163933,0.323 -0.488067,-0.12047 0.05433,-0.25713 0.2698,0.0546 z m -0.3912,-0.0939 -0.448434,-0.061 -0.0319,0.26123 0.448434,0.0611 z"
     id="path236"
     inkscape:connector-curvature="0"
     style="fill:#38a9f9;fill-rule:evenodd;stroke-width:0.03333334" />
  <path
     d="m 10.618707,6.34613 -0.04988,-0.27838 -0.145774,0.23684 0.05355,-0.27756 -0.21924,0.15914 0.148866,-0.23457 -0.259646,0.0575 0.221366,-0.15582 -0.26042,-0.0533 0.26042,-0.0533 -0.221366,-0.15562 0.259646,0.0572 -0.148866,-0.23456 0.21924,0.15913 -0.05355,-0.27755 0.145774,0.23684 0.04988,-0.27838 0.04969,0.27838 0.145774,-0.23684 -0.05355,0.27755 0.219434,-0.15913 -0.14906,0.23456 0.25984,-0.0572 -0.22156,0.15562 0.26042,0.0533 -0.26042,0.0533 0.22156,0.15582 -0.25984,-0.0575 0.14906,0.23457 -0.219434,-0.15914 0.05355,0.27756 -0.145774,-0.23684 z"
     id="path238"
     inkscape:connector-curvature="0"
     style="fill:#ffdf00;fill-rule:evenodd;stroke:#000000;stroke-width:0.01998889pt" />
  <path
     d="m 11.00295,5.62267 c 0,0.15483 -0.126046,0.28033 -0.281542,0.28033 -0.155496,0 -0.281542,-0.1255 -0.281542,-0.28033 0,-0.15484 0.126046,-0.28034 0.281542,-0.28034 0.155496,0 0.281542,0.1255 0.281542,0.28034 z"
     id="path240"
     inkscape:connector-curvature="0"
     style="fill:#ffdf00;fill-rule:evenodd;stroke:#000000;stroke-width:0.01779513pt" />
  <path
     d="m 10.6892,5.68507 c 0,0.0182 -0.0419,0.0329 -0.09357,0.0329 -0.05167,0 -0.09357,-0.0148 -0.09357,-0.0329 0,-0.0182 0.04187,-0.0329 0.09353,-0.0329 0.05167,0 0.09353,0.0147 0.09353,0.0329 z m 0.202633,-7e-5 c 0,0.0182 -0.03143,0.033 -0.07017,0.033 -0.03873,0 -0.07017,-0.0148 -0.07017,-0.033 0,-0.0181 0.0314,-0.0329 0.07017,-0.0329 0.03877,0 0.07017,0.0148 0.07017,0.0329 z"
     id="path242"
     inkscape:connector-curvature="0"
     style="fill-rule:evenodd;stroke-width:0.03333334" />
  <path
     d="m 10.680233,5.80162 0.01947,0.0112 c -0.04623,-0.0266 -0.02495,-0.0165 0.04808,0.0545 0.04186,-0.0243 0.0498,-0.0463 0.0761,-0.0769"
     id="path244"
     inkscape:connector-curvature="0"
     style="fill:none;stroke:#000000;stroke-width:0.0201825pt" />
  <path
     d="m 10.494713,5.94891 0.01547,0.0165 c -0.03673,-0.0393 -0.02171,-0.0205 0.06196,0.0331 0.07786,0.0112 0.156446,-0.0247 0.201299,-0.0828"
     id="path246"
     inkscape:connector-curvature="0"
     style="fill:none;stroke:#000000;stroke-width:0.01998889pt" />
  <path
     d="m 9.3798333,6.49513 c 0,0 0.031,0.26484 -0.1703333,0.5959 -0.2013333,0.3311 -0.1703333,0.21524 -0.1703333,0.21524 0,0 0.0929,0.18206 0.077433,0.18206 C 9.1011327,7.48833 8.961733,7.3228 8.961733,7.3228 L 8.7914,7.50487 c 0,0 0.1548667,-0.2814 0.1393333,-0.2814 -0.015533,0 -0.046433,-0.0993 -0.046433,-0.0993 l 0.1238333,-0.0497 c 0,0 0.1858334,-0.3476 0.1858334,-0.331 0,0.0166 -0.5574667,0.38066 -0.5574667,0.38066 z m 0.1239334,0.0994 c -0.0155,0 0.0774,0.26487 0.1548333,0.39727 0.077433,0.13243 0.077433,0.298 0.077433,0.298 L 9.9993664,7.4222 9.658633,6.90907 l 0.2168,0.0827 z m 0,0.69524 c 0,0 0.1858,0.19866 0.2013333,0.26483 0.015533,0.0662 0.015433,0.2152 0.015433,0.2152 l -0.0774,-0.16553 -0.1084,0.149 c 0,0 0.077433,-0.23177 0.061933,-0.24834 -0.0155,-0.0166 -0.1239,0.0828 -0.1239,0.0828 0,0 0.046467,-0.13243 0.046467,-0.149 0,-0.0166 0,-0.0993 -0.015467,-0.149 z M 8.5746,7.7531 C 8.636533,7.7034 8.7604,7.6704 8.7604,7.6704 c 0,0 -0.077433,0.13243 -0.0929,0.13243 -0.015467,0 -0.061933,0 -0.0929,-0.0497 z m 2.1369,-0.72827 c 0,0 0.4026,0.24834 0.4026,0.26487 0,0.0165 -0.263233,-0.11587 -0.263233,-0.11587 l -0.139334,-0.149 z M 9.9838,6.51167 c 0.031,0.0166 0.588433,0.48 0.572933,0.48 -0.0155,0 -0.247733,-0.1324 -0.247733,-0.11584 V 6.9917 L 10.1851,6.72687 10.1541,6.82617 9.9837667,6.51167 Z M 10.123,7.2565 10.277867,7.571 10.4327,7.5379 c 0,0 -0.294167,-0.2814 -0.309667,-0.2814 z m 0.480233,-0.1986 c 0,0.0497 0.0155,0.29793 0.0155,0.29793 0,0 0.0929,0.0828 0.0929,0.0662 0,-0.0165 -0.09293,-0.34767 -0.108433,-0.36417 z"
     id="path248"
     inkscape:connector-curvature="0"
     style="fill:#b7e1ff;fill-rule:evenodd;stroke-width:0.03333334" />
  <g
     id="g262"
     transform="scale(0.03333333)">
    <path
       d="m 182.612,89.522 c 0,0 20.98,-11.61 44.87,-20.254 23.886,-8.644 50.68,-14.325 54.222,-14.325 7.077,0 19.21,17.783 21.233,17.783 2.022,0 10.11,-4.94 20.223,-4.94 10.113,0 16.178,7.904 18.2,7.904 h 18.2 c 2.023,0 -6.066,-19.76 0,-18.77 3.034,0.493 28.817,4.445 52.833,12.225 24.014,7.78 58.103,21.515 58.103,21.515 0,0 -55.714,7.44 -70.488,5.24 -2.022,0.988 -0.1,13.07 -2.933,7.754 -4.656,-1.063 -21.744,-3.727 -24.778,-3.727 -3.034,0 -8.69,3.427 -16.78,5.402 -8.088,1.976 -18.2,4.94 -18.2,4.94 l 13.146,20.747 -16.178,7.903 c 0,0 -10.11,-23.71 -14.156,-23.71 -4.046,0 -6.067,16.795 -11.123,15.807 -5.056,-0.988 -7.078,-15.808 -11.123,-19.76 -4.044,-3.95 -25.368,-5.39 -33.458,-7.366 -8.09,-1.975 -21.144,-3.5 -28.222,-5.476 -7.078,-1.976 -14.155,4.94 -17.19,4.94 -3.032,0 4.046,-5.928 1.012,-6.916 -3.034,-0.988 -5.055,2.964 -7.078,2.964 -2.022,0 -23.256,-3.952 -25.278,-4.94 -2.022,-0.988 5.056,-4.94 3.034,-4.94 h -8.09 z"
       id="path250"
       inkscape:connector-curvature="0"
       style="fill:#984000;fill-rule:evenodd" />
    <path
       d="m 462.91,-64.94 c 0,21.15 -20.5,38.298 -45.79,38.298 -25.29,0 -45.793,-17.148 -45.793,-38.298 0,-21.15 20.5,-38.298 45.79,-38.298 25.29,0 45.793,17.148 45.793,38.298 z"
       transform="matrix(0.22,0,0,0.26,231.63,96.52)"
       id="path252"
       inkscape:connector-curvature="0"
       style="fill:#808080;fill-rule:evenodd;stroke:#772600;stroke-width:3.70600009" />
    <path
       d="m 284.74,-59.945 c 6.66,-6.66 14.987,-16.65 36.633,-16.65 4.996,-1.666 4.996,-11.657 16.65,-11.657 11.657,0 8.327,9.99 16.653,13.32 8.325,3.33 76.596,-3.33 76.596,-3.33 0,0 6.66,4.996 6.66,11.657 0,6.66 -4.995,11.656 -6.66,11.656 -1.665,0 -68.27,-4.995 -73.266,-3.33 -4.995,1.666 -8.326,3.33 -19.982,3.33 -11.655,0 -14.986,-11.655 -23.31,-11.655 -8.327,0 -16.653,-1.665 -29.974,6.66 z"
       transform="matrix(0.27,0,0,0.32,205.39,100.65)"
       id="path254"
       inkscape:connector-curvature="0"
       style="fill:#984000;fill-rule:evenodd;stroke:#772600;stroke-width:5.25" />
    <path
       d="m 487.88,-76.597 h 26.642 c 9.572,0.114 12.873,3.005 21.647,3.33 h 23.31 c 8.476,-0.314 12.952,-2.295 21.648,-3.33 14.504,-0.175 9.555,-1.306 6.66,-9.99 -2.625,-6.565 -2.95,-9.61 -6.66,-13.322 -1.396,-7.944 -4.655,-10.77 -4.996,-19.98 -1.527,-7.027 -4.342,-11.753 -1.665,-19.983 3.84,5.647 5.387,7.97 14.986,8.326 10.045,0 13.937,-0.206 19.982,3.33 4.663,4.89 10.886,3.33 19.982,3.33 7.677,1.406 8.96,5.313 14.986,8.326 7.103,3.935 11.694,4.995 21.646,4.995 7.967,1.422 14.88,2.578 19.98,4.995 4.25,5.08 10.952,6.338 19.983,6.66 5.05,0 8.95,-0.524 13.32,-1.665 7.678,0.37 15.474,0 24.978,0 6.163,7.21 7.587,9.862 18.317,9.99 7.338,5.155 13.527,6.037 19.982,8.327 h 24.976 c 8.928,0.687 11.79,4.35 19.98,6.66 8.115,3.768 15.722,6.35 21.648,8.326 5.89,1.28 13.574,1.665 21.646,1.665 6.183,3.175 13.61,3.46 18.317,6.66 6.89,1.477 16.302,3.215 21.647,4.996 8.816,1.168 12.187,3.94 19.98,4.995 6.704,1.915 -2.223,3.56 -6.66,4.995 -9.826,-0.364 -10.536,-3.946 -19.98,-4.995 -5.024,-2.94 -12.64,-2.548 -19.982,-4.996 h -1.666 c 6.6,3.903 12.948,6.422 9.99,13.32 -8.49,0 -15.366,-1.097 -23.31,-1.665 -8.385,-1.616 -12.227,-3.33 -21.647,-3.33 9.394,-2.264 11.854,0.27 18.315,3.33 2.396,8.06 -2.725,4.996 -11.656,4.996 -7.61,-2.73 -12.174,-5.983 -21.648,-6.66 h -19.98 c 9.89,0.366 11.976,4.1 18.315,8.326 0.518,2.59 -0.132,2.472 -4.995,3.33 -5.16,-4.478 -11.89,-6.013 -19.982,-8.326 -7.88,-0.28 -16.217,-0.965 -23.31,-3.33 -4.868,-0.304 -4.117,-6.177 6.66,3.33 6.532,3.843 8.832,6.946 8.325,9.99 -8.576,-2.143 -12.825,-5.58 -18.317,-8.324 -7.736,-2.855 -14.128,-3.33 -23.312,-3.33 -8.61,-2.266 0.894,-3.574 6.66,4.995 12.38,8.77 -1.632,5.007 -6.66,3.33 -7.507,-2.144 -15.284,-5.184 -21.646,-6.66 -5.046,-1.44 -9.44,-2.855 -14.986,-3.33 8.63,0.785 11.57,3.823 14.986,9.99 8.755,6.032 -0.384,3.1 -8.326,1.666 -5.07,-4.402 -11.487,-6.658 -14.986,-11.656 -8.35,-4.176 -8.563,-8.982 -3.33,1.665 1.363,3.407 1.11,10.795 1.665,11.656 -6.136,-6.625 -4.825,-8.325 -11.656,-8.325 -4.634,-3.244 -11.496,-5.765 -14.986,-9.99 -6.435,-0.604 -6.84,-2.9 -13.32,-4.996 5.34,6.273 12.39,12.478 16.65,18.315 7.598,4.242 9.7,8.06 14.987,11.656 2.14,3.64 7.904,6.657 1.665,1.666 -7.144,-7.043 -12.46,-8.67 -23.312,-13.32 -6.15,-4.96 -8.37,-7.045 -14.986,-11.657 -9.003,-2.905 -5.508,-4.543 0,4.995 6.318,5.77 11.17,12.23 16.652,16.65 3.767,4.908 10.136,10.12 14.986,13.322 1.5,2.25 5.99,2.664 0,3.33 -5.09,-4.598 -12.398,-7.53 -18.317,-11.656 -8.302,-2.34 -12.19,-6.652 -18.316,-11.655 -3.9,-5.85 -10.383,-10.38 -14.987,-14.986 -9.63,-3.77 1.9,3.636 4.995,8.325 2.153,6.068 4.788,11.035 6.66,16.65 2.78,5.56 -8.47,-1.327 -11.655,-3.33 -7.32,-4.157 -12.674,-6.937 -21.647,-8.325 -5.98,-1.3 -13.602,-2.468 -19.982,-3.33 -7.614,-2.05 4.042,4.8 8.326,11.656 8.418,7.908 -8.332,1.425 -13.32,0 -8.224,-1.645 -16.288,-1.666 -24.978,-1.666 -10.67,0.628 -3.05,1.947 0,6.66 3.287,2.53 5.637,7.855 4.995,9.992 -7.032,-0.95 -13.025,-3.023 -21.646,-3.33 -6.96,2.32 -15.344,1.665 -23.31,1.665 -0.382,4.19 1.443,0.654 4.994,4.995 5.763,2.34 9.585,5.177 8.326,8.326 H 497.87 c -5.29,1.447 1.14,0.704 5,6.663 -2.16,5.403 -4.95,3.332 -11.655,3.332 -4.545,-1.818 -13.598,-2.636 -18.317,-4.996 -4.69,0 -4.336,-1.22 -8.325,-1.665 14.035,9.93 7.073,7.45 14.986,14.987 1.366,0.456 4.523,1.665 1.664,1.665 M 371.32,73.265 c -0.997,0 -3.2,-5.375 -6.66,-9.99 -2.327,-6.05 -5.392,-2.59 -8.326,-11.657 0.348,-9.402 0.684,-11.094 0,-19.982 -6.863,-4.783 -9.714,-6.27 -14.986,-14.986 -8.46,-7.078 1.236,-19.063 2.845,-27.85 -7.375,-1.638 -11,11.477 -22.34,16.194 -8.156,5.492 -0.912,-11.354 -4.892,-21.188 -2.774,-13.872 -10.825,6.956 -13.91,12.862 -5.467,3.718 -7.128,8.542 -14.986,1.665 0,-5.144 4.937,-19.49 2.845,-22.28 -7.815,3.815 -18.088,15.49 -26.158,17.284 -8.13,-1.767 1.77,-14.828 1.77,-24.518 -2.938,-0.98 -14.696,25.755 -19.52,26.002 -4.824,0.248 -2.713,-25.993 -4.972,-25.428 -3.542,4.96 -10.65,15.43 -15.576,18.948 -9.454,-1.22 1.398,-17.435 2.845,-23.427 1.628,-7.168 -8.905,13.75 -14.502,15.102 -4.1,3.554 -12.237,6.072 -14.986,6.66 3.24,-6.13 19.076,-18.712 17.935,-22.278 -9.21,0.34 -23.31,12.556 -31.256,13.952 -5.19,0 -12.387,1.758 -13.32,1.665 0.448,-7.926 19.418,-14.65 22.445,-19.465 -9.306,1.494 -27.186,9.706 -32.436,16.135 -6.146,1.336 -13.944,3.02 -19.983,0 0.897,-7.475 14.856,-21.998 17.936,-26.758 -8.396,3.697 -12.642,6.59 -21.647,8.325 -1.652,1.652 -6.524,5.23 -4.995,1.665 2.656,-6.945 6.676,-10.11 9.99,-14.986 -7.45,1.364 -10.28,5.634 -18.315,9.99 -5.094,0.222 -19.646,14.855 -24.596,15.103 -11.45,8.382 -16.01,9.807 -28.308,13.32 -7.587,1.356 -11.26,2.934 -14.986,6.66 3.796,-6.687 9.597,-13.092 14.986,-16.65 3.677,-5.567 7.12,-10.195 14.986,-13.32 1.897,-2.32 7.188,-2.906 1.665,-3.33 -4.746,4.236 -12.696,8.965 -16.65,11.655 -5.102,3.207 -11.01,6.48 -13.322,4.995 2.62,-7.197 7.438,-8.902 11.657,-14.986 8.81,-5.604 0.042,-1.914 -6.66,0 -4.338,3.868 -12.122,6.727 -18.316,9.992 -7.113,1.856 -11.703,6.132 -19.98,8.326 0,2.375 2.364,-4.25 3.33,-6.66 6.83,-7.41 8.656,-9.476 16.65,-11.657 1.912,-2.866 4.42,-1.664 -1.665,-1.664 -4.514,4.024 -10.81,6.212 -16.65,9.99 -5.892,1.282 -13.575,1.666 -21.648,1.666 -10.355,1.243 -9.46,2.025 0,-3.33 5.357,-5.042 9.77,-3.775 9.99,-9.99 -6.254,4.529 -13.868,7.859 -21.646,11.655 -6.434,0.19 -8.133,1.665 -14.985,1.665 3.298,-3.415 5.277,-7.633 9.99,-9.99 6.896,-7.663 -4.377,-1.478 -6.66,0 H -41.63 c -4.465,5.58 -0.23,0.05 3.33,-3.33 4.306,-2.24 8.756,-5.155 8.326,-6.66 -4.972,4.314 -10.726,6.297 -14.986,9.99 -4.64,1.39 -9.99,2.084 -9.99,3.33 3.626,-5.346 9.524,-8.576 13.32,-13.32 5.612,-1.22 10.396,-2.936 11.656,-4.996 h -23.312 16.65 c 8.4,0 15.63,-0.75 23.313,-1.665 13.263,-2.21 -1.16,-3.33 -8.326,-3.33 -1.39,-2.548 4.11,-3.987 9.99,-4.995 5.024,-2.38 11.233,-4.493 16.65,-6.66 5.257,-1.434 12.707,-5.81 13.322,-6.66 -5.015,0.263 -4.975,1.4 -9.99,1.664 7.446,-0.574 12.8,-1.666 21.646,-1.666 8.028,-2.58 14.906,-5.41 21.647,-8.326 2.936,-3.588 4.24,-3.33 -3.33,-3.33 6.713,-2.158 16.238,-3.193 21.647,-4.995 7.872,-1.687 14.9,-4.253 19.982,-6.66 4.876,-3.316 7.69,-7.176 13.32,-9.99 6.528,4.437 6.602,4.994 18.318,4.994 9.41,-0.112 15.17,-2.373 19.98,-6.66 7.208,-1.966 8.483,-5.43 16.652,-6.66 7.444,1.328 15.03,1.664 23.312,1.664 8.096,-2.12 15.677,-6.01 21.647,-9.99 5.093,-2.502 11.14,-6.12 16.65,-8.326 6.07,3.133 10.844,5.65 18.318,6.66 7.728,-1.148 11.747,-4.868 18.317,-6.66 3.577,-4.33 8.777,-6.632 14.986,-8.325 9.67,-4.75 8.913,1.573 13.32,6.66 4.896,5.132 11.374,2.68 18.318,4.995 3.83,5.893 6.647,9.914 11.657,13.32 3.89,4.71 8.508,6.035 16.65,6.66 2.968,3.958 0.602,6.812 6.662,8.327 2.387,2.53 6.517,3.606 9.99,4.995"
       transform="matrix(0.27,0,0,0.32,205.39,104.9)"
       id="path256"
       inkscape:connector-curvature="0"
       style="fill:none;stroke:#772600;stroke-width:3.5" />
    <path
       d="m 468.74,30.803 v 0.833 c 0,-2.327 -0.103,-1.09 1.665,3.33 0.595,3.64 -0.81,3.22 -2.498,5.828 -0.286,3.723 -0.832,6.4 -0.832,10.823 -0.537,3.612 -2.57,7.04 -4.163,9.99 -1.604,3.133 -8.555,4.87 -8.326,9.16 -3.99,1.14 -4.084,-1.445 -4.162,-5.83 -2.386,-2.726 -3.212,-6.466 -4.996,-9.99 -1.108,-3.476 -3.47,-6.032 -4.995,-9.99 -2.46,-3.787 -4.546,-4.876 -6.66,-9.16 -0.827,-2.065 -0.683,-4.617 -2.498,-5.827 -2.72,-3.438 -4.49,-3.99 -9.16,-4.163 -3.59,0.845 -4.97,2.416 -8.324,3.33 -2.57,0.857 -7.57,0.58 -10.823,1.666 -0.808,1.314 1.6,1.94 2.498,4.995 -2.135,1.764 -2.926,4.883 -4.163,7.493 -1.965,2.487 -3.283,3.706 -4.163,7.494 1.362,2.316 0.2,5.387 -1.666,7.493 -0.574,3.864 -2.434,5.874 -3.33,9.16 -2.686,1.825 -3.652,3.537 -5.828,6.66 -1.914,2.678 -3.636,2.497 -8.326,2.497 -3.667,-1 -4.18,-2.988 -7.493,-4.163 -0.352,-1.056 -0.608,-1.312 -1.665,-1.664"
       transform="matrix(0.27,0,0,0.32,205.39,104.9)"
       id="path258"
       inkscape:connector-curvature="0"
       style="fill:none;stroke:#782600;stroke-width:3.125" />
    <path
       d="m 307.65,125.534 c 0,0 -0.455,4.955 -3.643,8.258 -3.188,3.303 -9.794,7.157 -9.794,7.157 0,0 8.882,-4.222 9.793,-3.304 0.91,0.917 -5.694,8.258 -5.694,8.258 0,0 8.655,-7.708 9.794,-7.708 1.139,0 3.644,7.524 4.555,7.34 0.912,-0.183 -2.05,-9.542 -1.593,-11.01 0.455,-1.468 0,-9.36 0,-9.36 l -3.416,0.368 z m 20.496,-0.672 c 0,0 -0.456,5.297 -3.644,8.828 -3.188,3.531 -9.794,7.65 -9.794,7.65 0,0 8.882,-4.512 9.793,-3.53 0.913,0.98 -5.692,8.827 -5.692,8.827 0,0 8.654,-8.24 9.793,-8.24 1.139,0 3.645,8.043 4.556,7.847 0.91,-0.196 -2.05,-10.2 -1.594,-11.77 0.455,-1.57 0,-10.004 0,-10.004 l -3.416,0.392 z M 299.453,76.817 c 0,0.987 -0.967,1.788 -2.16,1.788 -1.193,0 -2.158,-0.8 -2.158,-1.788 0,-0.988 0.966,-1.787 2.16,-1.787 1.194,0 2.158,0.8 2.158,1.787 z"
       id="path260"
       inkscape:connector-curvature="0"
       style="fill:#812e00;fill-rule:evenodd" />
  </g>
</svg>
