<?xml version="1.0" encoding="UTF-8" standalone="no"?>
<svg
   xmlns:dc="http://purl.org/dc/elements/1.1/"
   xmlns:cc="http://creativecommons.org/ns#"
   xmlns:rdf="http://www.w3.org/1999/02/22-rdf-syntax-ns#"
   xmlns:svg="http://www.w3.org/2000/svg"
   xmlns="http://www.w3.org/2000/svg"
   xmlns:sodipodi="http://sodipodi.sourceforge.net/DTD/sodipodi-0.dtd"
   xmlns:inkscape="http://www.inkscape.org/namespaces/inkscape"
   height="16"
   width="21.333437"
   viewBox="0 0 21.333437 16"
   version="1.1"
   id="svg21"
   sodipodi:docname="eh.svg"
   inkscape:version="0.92.1 r">
  <metadata
     id="metadata25">
    <rdf:RDF>
      <cc:Work
         rdf:about="">
        <dc:format>image/svg+xml</dc:format>
        <dc:type
           rdf:resource="http://purl.org/dc/dcmitype/StillImage" />
        <dc:title></dc:title>
      </cc:Work>
    </rdf:RDF>
  </metadata>
  <sodipodi:namedview
     pagecolor="#ffffff"
     bordercolor="#666666"
     borderopacity="1"
     objecttolerance="10"
     gridtolerance="10"
     guidetolerance="10"
     inkscape:pageopacity="0"
     inkscape:pageshadow="2"
     inkscape:window-width="1920"
     inkscape:window-height="1024"
     id="namedview23"
     showgrid="false"
     fit-margin-top="0"
     fit-margin-left="0"
     fit-margin-right="0"
     fit-margin-bottom="0"
     inkscape:zoom="0.49166667"
     inkscape:cx="320.3998"
     inkscape:cy="241.28"
     inkscape:window-x="0"
     inkscape:window-y="0"
     inkscape:window-maximized="1"
     inkscape:current-layer="svg21" />
  <defs
     id="defs5">
    <clipPath
       id="a">
      <path
         d="M -158.67,0 H 524 v 512 h -682.67 z"
         id="path2"
         inkscape:connector-curvature="0"
         style="fill-opacity:0.67000002" />
    </clipPath>
  </defs>
  <g
     clip-path="url(#a)"
     transform="matrix(0.03125,0,0,0.03125,4.9584375,0)"
     id="g19"
     style="fill-rule:evenodd">
    <path
       d="M -180,0 H 844 V 256 H -180 Z"
       id="path7"
       inkscape:connector-curvature="0" />
    <path
       d="M -180,256 H 844 V 512 H -180 Z"
       id="path9"
       inkscape:connector-curvature="0"
       style="fill:#107b00" />
    <path
       d="M -180,169.31 H 844 V 345.44 H -180 Z"
       id="path11"
       inkscape:connector-curvature="0"
       style="fill:#ffffff" />
    <path
       d="m 309.98,195.55 c -45.202,-19.423 -84.107,20.644 -84.063,58.085 0.046,39.158 38.02,80.92 86.168,62.43 -34.087,-10.037 -48.156,-35.215 -48.15,-60.68 -0.245,-25.216 15.887,-54.54 46.045,-59.835 z"
       id="path13"
       inkscape:connector-curvature="0"
       style="fill:#ff00ff" />
    <path
       d="m 363.145,294.214 -25.835,-18.868 -25.993,18.898 9.963,-30.403 -26,-18.87 31.984,0.07 9.93,-30.552 9.816,30.435 32.115,0.005 -25.924,18.735"
       id="path15"
       inkscape:connector-curvature="0"
       style="fill:#ff1800" />
    <path
       d="m 314.34,315.65 c -50.517,17.536 -88.554,-20.48 -89.216,-59.456 -0.66,-38.976 37.59,-79.167 89.473,-60.865 -29.355,4.352 -50.912,30.08 -51.17,59.168 -0.196,21.994 12.812,53.345 50.913,61.152 z M -179.98,0 168.63,256.62 -180,512 l 0.002,-509.38 0.015,-2.622 z"
       id="path17"
       inkscape:connector-curvature="0"
       style="fill:#ff0000" />
  </g>
</svg>
