<?xml version="1.0" encoding="UTF-8" standalone="no"?>
<svg
   xmlns:dc="http://purl.org/dc/elements/1.1/"
   xmlns:cc="http://creativecommons.org/ns#"
   xmlns:rdf="http://www.w3.org/1999/02/22-rdf-syntax-ns#"
   xmlns:svg="http://www.w3.org/2000/svg"
   xmlns="http://www.w3.org/2000/svg"
   xmlns:sodipodi="http://sodipodi.sourceforge.net/DTD/sodipodi-0.dtd"
   xmlns:inkscape="http://www.inkscape.org/namespaces/inkscape"
   height="16"
   width="21.333437"
   viewBox="0 0 21.333437 16"
   version="1.1"
   id="svg19"
   sodipodi:docname="et.svg"
   inkscape:version="0.92.1 r">
  <metadata
     id="metadata23">
    <rdf:RDF>
      <cc:Work
         rdf:about="">
        <dc:format>image/svg+xml</dc:format>
        <dc:type
           rdf:resource="http://purl.org/dc/dcmitype/StillImage" />
        <dc:title></dc:title>
      </cc:Work>
    </rdf:RDF>
  </metadata>
  <sodipodi:namedview
     pagecolor="#ffffff"
     bordercolor="#666666"
     borderopacity="1"
     objecttolerance="10"
     gridtolerance="10"
     guidetolerance="10"
     inkscape:pageopacity="0"
     inkscape:pageshadow="2"
     inkscape:window-width="1920"
     inkscape:window-height="1024"
     id="namedview21"
     showgrid="false"
     fit-margin-top="0"
     fit-margin-left="0"
     fit-margin-right="0"
     fit-margin-bottom="0"
     inkscape:zoom="0.49166667"
     inkscape:cx="320.15328"
     inkscape:cy="241.28"
     inkscape:window-x="0"
     inkscape:window-y="0"
     inkscape:window-maximized="1"
     inkscape:current-layer="svg19" />
  <defs
     id="defs5">
    <clipPath
       id="a">
      <path
         d="m -61.312,0 h 682.67 v 512 h -682.67 z"
         id="path2"
         inkscape:connector-curvature="0"
         style="fill-opacity:0.67000002" />
    </clipPath>
  </defs>
  <g
     clip-path="url(#a)"
     transform="matrix(0.03125,0,0,0.03125,1.916,0)"
     id="g17"
     style="fill-rule:evenodd;stroke-width:1.00000003pt">
    <path
       d="m -237.99,3.5 h 1037.9 v 498 h -1037.9 z"
       id="path7"
       inkscape:connector-curvature="0"
       style="fill:#ffc621" />
    <path
       d="M -240,342.5 H 799.3 V 512 H -240 Z"
       id="path9"
       inkscape:connector-curvature="0"
       style="fill:#ef2118" />
    <path
       d="m -237.99,0 h 1038 v 180 h -1038 z"
       id="path11"
       inkscape:connector-curvature="0"
       style="fill:#298c08" />
    <circle
       cx="534.21997"
       cy="352.97"
       transform="matrix(0.54,0,0,0.54,-25.81,73.95)"
       id="ellipse13"
       r="199.64999"
       style="fill:#006bc6" />
    <path
       d="m 214.25,188.2 -6.432,4.522 23.494,33.02 6.266,-3.995 -23.33,-33.546 z m 29.41,77.942 -9.66,-6.736 3.99,-12.676 -48.12,0.672 -13.93,-10.664 65.69,-0.708 12.184,-36.908 6.545,14.924 -16.7,52.098 z m 76.522,-70.68 -6.254,-4.764 -24.378,32.374 5.703,4.766 24.93,-32.375 z m -65.412,51.588 3.503,-11.245 13.29,-0.024 -15.182,-45.67 5.958,-16.5 20.524,62.408 38.864,0.46 -12.248,10.748 -54.71,-0.176 z m 90.672,51.165 2.615,-7.415 -38.295,-13.262 -2.785,6.89 38.465,13.786 z m -69.18,-46.416 11.778,-0.12 4.104,12.64 38.803,-28.468 17.532,0.604 -53.093,38.693 11.493,37.127 -13.99,-8.357 -16.628,-52.12 z m -19.748,102.08 7.862,0.114 0.363,-40.524 -7.42,-0.443 -0.806,40.853 z m 21.944,-80.366 3.867,11.125 -10.673,7.917 39.353,27.705 5.016,16.81 -53.596,-37.99 -31.528,22.73 3.462,-15.924 44.1,-32.375 z m -103.27,12.987 2.325,7.51 38.646,-12.202 -1.877,-7.192 -39.092,11.884 z m 83.21,-4.02 -9.38,7.12 -10.835,-7.695 -14.157,45.997 -14.432,9.975 19.525,-62.727 -31.376,-22.94 16.213,-1.638 44.44,31.908 z"
       id="path15"
       inkscape:connector-curvature="0"
       style="fill:#ffc621" />
  </g>
</svg>
