<?xml version="1.0" encoding="UTF-8" standalone="no"?>
<svg
   xmlns:dc="http://purl.org/dc/elements/1.1/"
   xmlns:cc="http://creativecommons.org/ns#"
   xmlns:rdf="http://www.w3.org/1999/02/22-rdf-syntax-ns#"
   xmlns:svg="http://www.w3.org/2000/svg"
   xmlns="http://www.w3.org/2000/svg"
   xmlns:sodipodi="http://sodipodi.sourceforge.net/DTD/sodipodi-0.dtd"
   xmlns:inkscape="http://www.inkscape.org/namespaces/inkscape"
   height="16"
   width="21.333332"
   viewBox="0 0 21.333332 16"
   version="1.1"
   id="svg228"
   sodipodi:docname="fj.svg"
   inkscape:version="0.92.1 r">
  <metadata
     id="metadata234">
    <rdf:RDF>
      <cc:Work
         rdf:about="">
        <dc:format>image/svg+xml</dc:format>
        <dc:type
           rdf:resource="http://purl.org/dc/dcmitype/StillImage" />
        <dc:title></dc:title>
      </cc:Work>
    </rdf:RDF>
  </metadata>
  <defs
     id="defs232" />
  <sodipodi:namedview
     pagecolor="#ffffff"
     bordercolor="#666666"
     borderopacity="1"
     objecttolerance="10"
     gridtolerance="10"
     guidetolerance="10"
     inkscape:pageopacity="0"
     inkscape:pageshadow="2"
     inkscape:window-width="1920"
     inkscape:window-height="1024"
     id="namedview230"
     showgrid="false"
     fit-margin-top="0"
     fit-margin-left="0"
     fit-margin-right="0"
     fit-margin-bottom="0"
     inkscape:zoom="0.49166667"
     inkscape:cx="320"
     inkscape:cy="240"
     inkscape:window-x="0"
     inkscape:window-y="0"
     inkscape:window-maximized="1"
     inkscape:current-layer="svg228" />
  <path
     d="M 0,0 V 16 H 21.333333 V 0.00263 h -7.9186 V 0 Z"
     id="path2"
     inkscape:connector-curvature="0"
     style="fill:#68bfe5;stroke-width:0.03333334" />
  <g
     stroke-miterlimit="4.8"
     id="g216"
     transform="scale(0.03333333)"
     style="stroke-miterlimit:4.80000019">
    <path
       d="m 420.887,193.236 v 136.357 c 0,44.599 80.581,71.08 80.581,71.08 0,0 80.582,-26.483 80.582,-71.08 V 193.236 Z"
       id="path4"
       inkscape:connector-curvature="0"
       style="fill:#ffffff" />
    <path
       d="m 490.299,241.146 v 61.396 h -69.412 v 22.34 H 490.3 v 71.539 l 11.17,4.252 11.17,-4.252 v -71.54 h 69.41 v -22.339 h -69.41 v -61.396 z"
       id="path6"
       inkscape:connector-curvature="0"
       style="fill:#d21034" />
    <path
       d="M 420.887,193.236 H 582.05 v 52.657 H 420.887 Z"
       id="path8"
       inkscape:connector-curvature="0"
       style="fill:#d21034" />
    <g
       stroke-miterlimit="3"
       id="g82"
       style="stroke-miterlimit:3">
      <g
         transform="matrix(0.66486,0,0,0.66486,-96.907,97.536)"
         id="g18"
         style="fill:#ffffff;stroke:#000000;stroke-width:0.80500001">
        <ellipse
           ry="10.962"
           rx="13.623"
           cy="192.21201"
           cx="798.22998"
           id="ellipse10"
           style="stroke-width:0.80299997" />
        <ellipse
           ry="6.1230001"
           rx="12.114"
           cy="186.52499"
           cx="798.22998"
           id="ellipse12" />
        <ellipse
           ry="6.1230001"
           rx="12.114"
           cy="198.769"
           cx="798.22998"
           id="ellipse14" />
        <ellipse
           ry="6.1230001"
           rx="12.114"
           cy="192.213"
           cx="798.22998"
           id="ellipse16" />
      </g>
      <path
         d="m 578.06,235.448 -1.32,-3.64 c 0,0 -3.612,-1.474 -3.887,-3.393 -0.643,-5.115 -2.47,-7.032 -5.206,-7.764 -2.742,-0.73 -4.566,0.458 -4.566,0.458 -0.825,1.188 -4.937,1.188 -7.22,1.278 -2.283,0.093 -2.322,-0.992 -2.322,-0.992 -1.774,0.013 -2.52,-1.291 -2.52,-1.291 -1.16,-2.319 -2.025,-3.186 -2.598,-3.48 2.963,0.044 5.195,-1.323 8.54,-4.833 3.652,-3.837 6.26,-2.353 6.26,-2.353 -1.774,3.583 0.589,3.266 0.589,3.266 4.84,-2.464 0.638,-8.677 -0.823,-8.402 -1.46,0.272 -1.878,-0.711 -1.878,-0.711 0.045,1.115 -1.622,1.559 -1.622,1.559 1.25,-7.097 -2.985,-8.979 -2.985,-8.979 -0.64,0.64 -1.007,1.918 -1.007,1.918 -1.186,4.293 -5.114,3.654 -9.501,1.552 -4.383,-2.1 -16.076,2.194 -19.728,3.655 -3.657,1.462 -10.324,3.746 -16.353,0.365 -6.027,-3.382 -7.492,-2.742 -9.866,-2.101 -2.376,0.638 -6.574,1.646 -8.126,0.822 -1.555,-0.822 -3.326,-0.873 -3.326,-0.873 0.423,-0.236 -0.238,-1.228 -0.238,-1.228 -1.826,-2.465 0.238,-3.976 0.238,-3.976 0,0 -3.4,0.957 -2.048,6.76 l 0.622,0.871 c 0,0 0.455,1.825 1.463,2.374 l -0.037,0.4 c 0,0 0.86,-0.4 1.13,0.787 0.278,1.187 1.556,0.091 2.105,-0.912 0,0 -0.916,5.298 5.663,6.576 0,0 -0.735,-0.822 -0.46,-1.37 0.273,-0.548 -0.82,-1.009 -0.728,-1.828 0.09,-0.82 -1.642,-1.186 -0.275,-1.828 1.368,-0.64 2.012,-1.919 4.933,-0.183 2.922,1.736 5.208,1.373 5.208,1.373 0,0 -1.782,-3.659 -0.8,-3.656 0.982,10e-4 5.4,5.471 7.576,5.2 2.175,-0.267 6.378,-2.734 8.48,-1.82 0,0 0.18,-1.097 8.217,-2.467 8.04,-1.371 17.955,-5.377 21.674,-1.867 0,0 0.435,2.78 1.986,3.513 0,0 -0.278,5.753 -10.23,2.554 l -3.61,-0.95 c 0,0 -0.554,-1.747 -19.483,3.121 0,0 -1.113,0.389 -1.844,0.938 -0.733,0.546 -1.739,-0.275 -5.484,1.094 -3.742,1.373 -17.72,5.94 -26.304,4.295 l -0.011,0.023 c -1.891,-0.565 -3.663,-0.273 -3.734,-0.571 -0.093,-0.366 1.006,0.092 1.006,0.092 -0.639,-0.732 -0.914,-0.791 -0.914,-0.791 -7.217,-0.792 -5.941,-4.052 -5.941,-4.052 l 0.368,1.006 c 1.188,-1.552 -0.46,-5.206 -0.46,-5.206 l -0.07,0.012 a 3.776,3.776 0 0 0 -0.067,-0.333 l 0.597,-0.412 c 3.472,-2.924 7.492,-3.472 7.492,-3.472 -2.377,-2.921 -7.403,-1.368 -7.403,-1.368 0.093,-3.562 -1.368,-7.674 -1.368,-7.674 -4.935,0.548 -7.764,4.658 -7.764,4.658 -0.183,-3.653 -4.843,-5.752 -4.843,-5.752 1.734,2.1 0.64,7.123 0.64,7.123 l 0.183,0.092 c -0.288,-0.008 -0.458,0 -0.458,0 l -0.103,1.077 -0.171,-0.072 c 0,0 -1.734,0.638 -3.743,5.206 0,0 -0.203,1.08 -0.98,2.053 -0.007,-0.126 0.007,-0.24 -0.009,-0.372 0,0 -2.244,2.94 -7.43,0 0,0 -7.047,-4.18 -9.523,-4.026 -2.477,0.154 -4.105,1.316 -3.947,2.012 0,0 -5.654,-0.465 -7.588,2.785 0,0 -4.258,1.549 -0.619,5.033 0,0 0.488,1.514 1.547,2.326 0,0 -0.15,-3.181 0.62,-2.246 0,0 0.2,0.313 0.581,0.533 0.101,0.446 0.443,1.685 1.2,2.316 l 0.544,-0.173 c 0.083,-0.793 0.255,-1.795 0.431,-2.217 l 0.18,0.024 c -0.024,0.023 -0.047,0.036 -0.07,0.057 l 1.006,1.549 1.16,-0.62 c 0.544,-0.079 1.24,0.466 1.24,0.466 l 1.316,-1.085 c -0.008,-0.012 -0.016,-0.014 -0.024,-0.027 1.296,0.217 1.65,-2.296 1.65,-2.296 1.165,0.306 2.254,-0.037 3.181,-0.598 0.565,2.084 5.18,4.318 5.18,4.318 l 0.2,-0.016 c -0.391,0.25 -0.624,0.437 -0.624,0.437 2.1,1.464 6.029,1.098 6.029,1.098 -1.643,0.64 -1.413,3.68 -1.413,3.68 -0.96,0.395 -1.054,1.343 -1.054,1.343 3.198,1.276 5.382,0.22 5.382,0.22 0.176,1.04 -0.083,1.15 -0.083,1.15 -1.278,2.74 -1.826,5.389 -1.826,5.389 0.028,0.012 0.06,0.018 0.088,0.028 -0.04,0.072 -0.088,0.141 -0.118,0.215 0,0 -5.574,1.935 -8.051,4.645 0,0 -0.233,-0.775 -0.93,-0.775 -0.697,0 -2.865,-1.779 -3.872,-2.09 -1.004,-0.308 -2.476,0.311 -2.864,-0.152 -0.35,-0.423 -0.193,-3.594 -0.863,-4.106 l 0.013,0.003 -0.698,-1.935 c -0.464,1.005 -2.399,0.773 -2.399,0.773 -0.076,0.046 -0.374,0.263 -0.795,0.577 -0.386,0.02 -0.83,-0.112 -0.83,-0.112 -0.2,0.04 -0.396,0.598 -0.54,1.14 l -0.235,0.177 v -0.543 c -0.385,0.31 -1.16,-0.155 -1.47,-0.155 -0.152,0 -0.34,0.443 -0.492,0.899 -0.788,0.146 -1.831,0.185 -1.831,0.185 -0.31,0.155 -0.08,2.555 -0.08,2.555 -2.243,1.24 -1.16,3.096 -1.16,3.096 1.239,6.039 11.535,3.329 12.31,4.105 0.772,0.775 2.554,0.927 3.484,0.927 0.927,0 2.087,2.246 3.405,2.478 1.317,0.233 0,-1.78 6.105,-3.238 6.103,-1.459 8.137,-3.962 8.137,-3.962 1.912,-0.368 2.444,-2.691 2.587,-3.63 0.018,0.433 0.07,0.911 0.139,1.456 0.275,2.102 -1.177,2.867 -1.177,2.867 l 5.289,-1.588 c 2.099,-0.548 1.826,-2.376 1.826,-2.376 2.009,5.755 5.664,6.12 5.664,6.12 0.73,-2.193 0.64,-2.833 0.64,-2.833 l 1.644,-0.089 c 0.067,-1.239 -1.027,-2.145 -1.66,-2.566 l 2.573,1.56 1.003,-0.182 c 0,0.914 1.37,1.734 1.37,1.734 l 0.185,-1.185 c 1.188,1.553 3.38,1.004 3.38,1.004 a 7.34,7.34 0 0 0 -0.194,-0.853 c 4.681,2.889 12.158,-0.79 12.158,-0.79 2.009,0.455 2.283,-0.733 2.283,-0.733 2.284,0.273 2.813,-1.287 2.813,-1.287 5.375,-0.465 9.157,-4.286 9.157,-4.286 2.646,-0.183 2.732,-2.075 2.732,-2.075 0,0 2.654,0.523 5.213,-2.675 5.935,-8.493 14.813,-4.071 14.813,-4.071 l -5.133,0.325 c -13.426,-0.09 -7.86,9.04 -7.86,9.04 l 0.828,-0.087 c 1.279,0.273 5.661,3.745 4.045,6.33 -0.025,0.046 -0.06,0.087 -0.09,0.129 -2.737,3.747 -7.807,0.173 -9.251,-2.989 -1.464,-3.196 -4.388,-2.464 -4.388,-2.464 0,0 -7.58,1.279 -4.475,7.307 l 0.114,0.004 c 0.057,1.47 0.98,3.147 3.684,4.813 1.52,2.148 6.512,2.373 10.18,1.578 1.706,-0.373 10.711,-4.244 10.711,-4.244 0.661,-1.962 2.899,-1.51 4.908,-4.341 2.009,-2.832 -2.832,-3.838 -3.928,-5.389 -1.098,-1.555 0.275,-1.28 0.275,-1.28 4.383,2.375 4.748,-5.207 4.748,-5.207 0.458,4.383 4.293,5.571 4.293,5.571 2.377,-2.372 0.643,-7.215 0.643,-7.215 5.664,10.14 9.094,8.525 9.094,8.525 -3.049,-1.888 -1.514,-4.415 -1.514,-4.415 2.737,10.779 13.977,1.371 13.977,1.371 -0.548,1.551 0.002,2.464 1.006,3.47 1.004,1.004 2.192,1.462 1.646,3.289 -0.55,1.826 -5.753,1.462 -5.753,1.462 0,0 -5.118,-0.273 -4.659,4.02 0.268,1.003 3.65,1.369 4.93,1.096 0,0 -0.528,0.115 1.363,0.368 0.633,0.08 1.398,0.094 2.177,0.069 2.18,-0.067 4.501,-0.437 4.501,-0.437 2.92,-0.638 2.465,-1.646 2.465,-1.646 4.472,-0.824 4.931,-3.84 4.931,-3.84 z"
         id="path20"
         inkscape:connector-curvature="0"
         style="fill:#ffd100;stroke:#000000;stroke-width:0.79799998" />
      <path
         d="m 429.633,216.743 c 0.003,-0.005 0.24,-0.565 0.69,-0.632 0.349,-0.051 0.77,0.206 1.217,0.748 l 0.244,-0.183 c -0.01,-0.019 -1.206,-1.76 -0.73,-2.99 0.213,-0.547 0.741,-0.923 1.568,-1.109 l -0.067,-0.3 c -0.933,0.213 -1.533,0.651 -1.786,1.3 a 2.09,2.09 0 0 0 -0.134,0.756 c 0,0.6 0.211,1.21 0.428,1.677 -0.27,-0.17 -0.533,-0.24 -0.786,-0.202 -0.459,0.07 -0.682,0.4 -0.804,0.615 z m 140.981,23.925 c -3.052,0.484 -7.532,0.752 -7.888,-0.171 -0.062,-0.165 -0.073,-0.824 2.426,-2.45 l -0.292,-0.448 c -2.084,1.358 -2.924,2.34 -2.633,3.09 0.64,1.661 7.18,0.712 8.486,0.504 z m -58.374,1.762 c -0.696,-1.065 -0.384,-2.523 0.929,-4.338 l -0.433,-0.312 c -1.458,2.007 -1.776,3.673 -0.945,4.943 z"
         id="path22"
         inkscape:connector-curvature="0" />
      <path
         d="m 508.117,237.835 c 0.067,1.84 1.367,3.55 3.856,5.074 l 0.28,-0.456 c -2.33,-1.425 -3.54,-2.985 -3.602,-4.636 -0.092,-2.535 2.586,-4.49 2.612,-4.51 l -0.312,-0.435 c -0.12,0.085 -2.938,2.138 -2.834,4.963 z m 52.053,0.685 c -0.838,1.236 -0.558,2.733 -0.547,2.796 l 0.525,-0.103 c -0.005,-0.015 -0.248,-1.347 0.467,-2.396 0.43,-0.631 1.121,-1.04 2.06,-1.218 l -0.097,-0.525 c -1.087,0.205 -1.895,0.691 -2.409,1.446 z m -119.257,-23.376 -0.165,-0.042 -0.023,0.17 c -0.004,0.017 -0.237,1.638 -0.973,2.08 -0.206,0.122 -0.428,0.136 -0.684,0.042 l -1.248,-0.76 c -0.25,-0.219 -0.463,-0.38 -0.823,-0.275 a 1.801,1.801 0 0 1 -0.343,-1.323 c 0.089,-0.732 0.6,-1.437 1.522,-2.095 l -0.175,-0.25 c -1,0.715 -1.554,1.491 -1.652,2.314 -0.111,0.952 0.44,1.6 0.464,1.627 l 0.074,0.086 0.101,-0.047 c 0.278,-0.122 0.359,-0.05 0.63,0.19 l 1.347,0.819 c 0.342,0.126 0.659,0.103 0.945,-0.068 0.761,-0.456 1.028,-1.782 1.09,-2.15 3.242,0.696 5.852,-3.245 5.965,-3.415 l -0.259,-0.167 c -0.023,0.041 -2.686,4.078 -5.793,3.264 z"
         id="path24"
         inkscape:connector-curvature="0" />
      <path
         d="m 433.14,214.539 c -0.161,0.656 -0.05,1.3 0.325,1.916 0.358,0.583 0.71,0.893 1.078,0.942 0.449,0.062 0.807,-0.27 1.123,-0.562 0.23,-0.215 0.448,-0.415 0.628,-0.402 l 0.278,0.193 0.24,-0.191 -0.497,-0.306 c -0.313,-0.024 -0.577,0.22 -0.857,0.482 -0.28,0.257 -0.568,0.528 -0.874,0.485 -0.266,-0.036 -0.553,-0.307 -0.858,-0.801 -0.33,-0.542 -0.43,-1.11 -0.29,-1.683 0.35,-1.447 2.08,-2.51 2.098,-2.52 l -0.157,-0.26 c -0.077,0.044 -1.856,1.136 -2.236,2.707 z m -4.46,20.651 c 0.154,-0.56 0.584,-1.036 1.275,-1.42 -0.136,0.013 0.678,0.675 1.376,0.6 l 0.453,-0.244 c 0.185,0.16 1.394,1.26 1.394,2.653 0,0.294 -0.054,0.595 -0.185,0.9 l 0.283,0.119 c 0.884,-2.094 -1.34,-3.952 -1.36,-3.972 l -0.082,-0.063 -0.137,0.088 -0.397,0.216 c -0.57,0.06 -1.315,-0.545 -1.32,-0.55 -0.94,0.41 -1.419,0.95 -1.597,1.595 z m 10.325,-5.346 c -0.668,0.056 -2.528,0.411 -3.135,1.377 -0.22,0.35 -0.252,0.735 -0.092,1.152 l 0.244,0.65 c 0.579,1.557 1.18,3.167 1.836,3.531 l 0.149,-0.266 c -0.557,-0.309 -1.164,-1.937 -1.7,-3.372 l -0.242,-0.65 c -0.125,-0.328 -0.104,-0.617 0.063,-0.883 0.498,-0.791 2.17,-1.173 2.902,-1.234 0.426,-0.034 0.565,1.538 0.65,2.478 l 0.304,-0.028 c -0.122,-1.385 -0.25,-2.816 -0.98,-2.755 z"
         id="path26"
         inkscape:connector-curvature="0" />
      <path
         d="m 433.905,231.373 c -0.39,0.35 -0.312,0.876 -0.307,0.899 0.003,0.144 0.177,4.034 2.024,4.838 l 0.121,-0.28 c -1.671,-0.728 -1.84,-4.55 -1.842,-4.588 0,-0.023 -0.055,-0.41 0.21,-0.643 0.281,-0.249 0.838,-0.268 1.61,-0.055 l 0.082,-0.294 c -0.892,-0.246 -1.53,-0.205 -1.898,0.123 z"
         id="path28"
         inkscape:connector-curvature="0" />
      <path
         d="m 432.443,231.692 c -0.817,0.569 -0.784,2.192 -0.783,2.26 l 0.305,-0.005 c 0,-0.017 -0.03,-1.531 0.652,-2.004 0.255,-0.176 0.59,-0.183 0.998,-0.019 l 0.114,-0.282 c -0.51,-0.208 -0.943,-0.19 -1.286,0.05 z"
         id="path30"
         inkscape:connector-curvature="0" />
      <g
         transform="matrix(0.66486,0,0,0.66486,-96.907,97.536)"
         id="g70">
        <path
           d="m 862.33,169.49 c 0.022,0.038 1.31,2.945 1.31,5.305 0,0.419 -0.198,0.717 -0.291,1.081 -0.052,-0.135 -0.5,-1.366 -0.5,-1.366 l -0.39,0.987 c -0.017,0.055 -0.525,1.384 0.382,2.883 1.2,1.977 4.187,3.243 8.884,3.758 h -0.002 c 0,0.004 0.059,0.055 0.066,0.065 -0.195,0.026 -0.341,0.08 -0.385,0.122 l -0.189,0.16 0.025,0.4 c 0.122,0.488 0.678,0.512 1.784,0.554 0.187,0.01 0.49,0.055 0.705,0.066 0.275,0.077 0.557,0.153 0.557,0.153 l -0.094,-0.108 c 1.07,0.074 2.274,0.338 3.581,0.826 -0.289,0.076 -0.995,0.252 -0.995,0.252 l 1.162,0.458 c 0.088,0.035 8.648,3.474 12.191,6.303 -1.006,0.872 -5.3,4.08 -12.736,2.247 l -1.246,-0.306 0.845,0.965 c 0.052,0.058 4.896,5.614 5.9,8.983 -1.687,0.017 -8.185,-0.042 -10.455,-1.971 l -0.588,0.535 c 0.03,0.05 3.115,4.576 3.804,8.105 -0.884,0.116 -3,0.203 -4.252,-1.433 l -0.577,-0.751 -0.313,2.037 c -0.605,-0.456 -1.367,-1.137 -1.367,-1.867 v -0.48 l -1.833,0.333 -3.765,-2.283 a 7.975,7.975 0 0 0 -0.605,-0.365 c -0.004,-0.004 -0.035,-0.022 -0.035,-0.022 l -0.027,-0.016 -0.39,0.706 c 0,0 0.448,0.267 0.577,0.348 0.806,0.525 2.186,1.67 2.325,3.188 -0.595,0.035 -2.448,0.136 -2.448,0.136 l 0.046,0.426 v 0.067 c 0,0.252 -0.08,1.304 -0.848,3.679 -1.158,-0.276 -5.37,-1.744 -7.858,-8.874 l -0.775,0.192 c 0.004,0.02 0.013,0.114 0.013,0.265 0,0.65 -0.23,2.279 -2.465,2.86 -0.013,0.004 -4.15,1.248 -6.452,1.937 0.43,-0.616 0.824,-1.46 0.824,-2.685 0,-0.26 -0.017,-0.54 -0.051,-0.837 -0.14,-1.036 -0.224,-1.899 -0.224,-2.619 0,-1.501 0.369,-2.395 1.406,-3.031 l -0.362,-0.716 c -0.097,0.038 -9.618,3.82 -14.339,2.25 0.216,-0.922 1.016,-4.162 2.628,-7.616 l -0.208,0.198 c 0.31,-0.132 0.625,-0.615 0.364,-2.166 l -0.086,-0.528 -0.484,0.233 c -0.03,0.015 -3.052,1.363 -7.417,-0.236 0.089,-0.358 0.32,-1.001 1.235,-1.38 l 0.268,-0.108 -0.026,-0.292 c 0,-0.01 -0.01,-0.213 -0.01,-0.531 0,-1.179 0.184,-3.94 1.88,-4.602 l -0.18,-0.777 c -0.055,0.007 -5.161,0.415 -8.257,-1.307 0.812,-0.56 2.519,-1.592 4.505,-1.878 l 0.318,-0.045 0.022,-0.318 c 0.004,-0.016 0.011,-0.11 0.011,-0.26 0,-0.403 -0.156,-1.219 -0.511,-2.04 1.178,0.328 2.59,0.625 3.091,0.249 l 0.17,-0.128 -0.146,-3.099 -0.803,0.039 0.123,2.562 c -0.504,0.027 -1.788,-0.23 -3.035,-0.626 l -1.234,-0.392 0.795,1.024 c 0.645,0.829 0.727,1.858 0.737,2.331 -2.79,0.519 -4.976,2.251 -5.07,2.33 l -0.41,0.337 0.435,0.303 c 2.4,1.672 6.153,1.817 8.08,1.775 -1.136,1.28 -1.328,3.421 -1.328,4.492 0,0.22 0.007,0.278 0.011,0.386 -1.363,0.736 -1.568,2.118 -1.577,2.182 l -0.03,0.3 0.282,0.116 c 4.125,1.644 6.941,0.85 7.897,0.497 0.007,0.128 0.035,0.302 0.035,0.393 0,0.378 -0.07,0.494 -0.07,0.494 -2.026,4.248 -2.875,8.286 -2.885,8.324 l -0.066,0.334 0.313,0.124 c 3.828,1.53 10.705,-0.559 13.75,-1.634 -0.399,0.689 -0.632,1.464 -0.632,2.429 0,0.809 0.098,1.718 0.233,2.731 0.035,0.257 0.05,0.494 0.05,0.724 0,2.28 -1.541,3.142 -1.615,3.18 l 0.306,0.741 7.955,-2.389 c 1.84,-0.478 2.531,-1.565 2.824,-2.489 3.139,7.444 8.066,8.115 8.285,8.14 l 0.32,0.027 0.1,-0.302 c 0.766,-2.287 0.943,-3.449 0.978,-4.01 a 439.55,439.55 0 0 0 2.462,-0.131 l 0.02,-0.361 c 0.004,-0.063 0.004,-0.123 0.004,-0.182 0,-0.658 -0.205,-1.24 -0.49,-1.764 0.498,0.3 1.377,0.834 1.377,0.834 l 1.318,-0.24 c 0.344,1.33 1.923,2.374 2.127,2.499 l 0.512,0.307 c 0,0 0.188,-1.212 0.267,-1.74 1.965,1.758 4.753,1.235 4.885,1.202 l 0.352,-0.09 -0.052,-0.357 c -0.4,-2.688 -2.204,-5.886 -3.265,-7.596 3.491,1.587 9.85,1.471 10.163,1.461 l 0.474,-0.016 -0.093,-0.465 c -0.564,-2.825 -4.094,-7.272 -5.57,-9.04 8.201,1.541 12.606,-2.714 12.795,-2.907 l 0.288,-0.306 -0.317,-0.278 c -2.757,-2.402 -9.112,-5.19 -11.665,-6.257 l 0.894,-0.226 -0.883,-0.494 c -2.135,-1.2 -4.398,-1.349 -5.928,-1.415 l -0.007,-0.012 c -0.97,-1.111 -1.464,-1.289 -1.589,-1.316 -5.546,-0.612 -7.579,-2.166 -8.317,-3.366 -0.062,-0.099 -0.031,-0.166 -0.077,-0.262 0.12,-0.16 0.244,-0.318 0.244,-0.318 0.535,-0.697 0.726,-1.63 0.726,-2.617 0,-2.547 -1.294,-5.457 -1.367,-5.625 l -0.738,0.334 z"
           id="path32"
           inkscape:connector-curvature="0" />
        <path
           d="m 836.8,167.86 c -0.017,0.08 -0.608,3.119 -3.196,4.543 -1.947,1.07 -4.52,0.982 -7.639,-0.266 l -0.351,-0.14 0.037,0.376 c 0.008,0.078 0.213,1.864 1.897,3.172 1.402,1.092 3.408,1.475 5.922,1.2 -0.841,0.998 -3.544,4.452 -3.544,7.802 0,0.177 0.011,0.354 0.028,0.528 0.344,0.247 4.58,1.395 6.544,-1.116 0.07,1.077 0.379,4.522 1.724,5.87 0.737,0.733 0.91,1.804 0.91,2.66 0,0.771 -0.146,1.367 -0.146,1.379 l -0.152,0.613 0.511,-0.372 c 0.163,-0.119 4.057,-2.971 5.302,-6.707 -0.004,0.01 0.623,-0.937 1.825,-1.325 -0.025,0.163 -0.046,0.33 -0.046,0.563 0,1.444 0.633,4.064 4.836,5.671 l 0.345,0.132 -0.031,-0.367 a 7.135,7.135 0 0 1 -0.028,-0.726 c 0,-1.055 0.146,-2.993 1.15,-3.997 0.662,-0.66 0.86,-1.404 0.86,-2.049 0,-0.507 -0.112,-0.918 -0.226,-1.22 0.849,0.215 2.855,0.862 3.672,2.39 1.186,2.223 5.338,0.454 5.516,0.38 l -0.143,-0.437 c -0.017,0.004 -1.746,0.391 -2.837,-0.358 -0.48,-0.33 -0.768,-0.837 -0.869,-1.51 l -0.192,-2.31 c -0.042,-1.047 -0.187,-1.712 -0.713,-2.271 0.55,-0.05 1.652,-0.031 2.118,1 0.734,1.617 3.251,1.774 3.356,1.783 l 0.861,0.045 -0.723,-0.468 c -0.024,-0.014 -2.198,-1.456 -1.822,-3.336 l 0.313,-1.376 c 0.595,-2.48 1.585,-6.632 0.779,-9.181 l -0.438,0.14 c 0.2,0.636 0.282,1.39 0.282,2.196 0,2.26 -0.64,4.944 -1.072,6.738 l -0.316,1.395 a 2.608,2.608 0 0 0 -0.052,0.538 c 0,1.217 0.79,2.146 1.405,2.705 -0.74,-0.16 -1.766,-0.512 -2.151,-1.37 -0.605,-1.326 -2.229,-1.387 -3.004,-1.23 l -0.542,0.109 0.462,0.307 c 0.73,0.487 0.75,1.054 0.802,2.293 l 0.195,2.358 c 0.115,0.804 0.473,1.419 1.06,1.824 0.515,0.35 1.117,0.4 1.666,0.44 -1.233,0.321 -2.924,0.522 -3.531,-0.62 -1.145,-2.132 -4.292,-2.702 -4.424,-2.727 l -0.48,-0.083 0.24,0.421 c 0.026,0.046 0.358,0.652 0.358,1.422 0,0.546 -0.167,1.171 -0.733,1.735 -1.116,1.126 -1.287,3.167 -1.287,4.296 0,0.221 0.011,0.252 0.015,0.387 -3.595,-1.511 -4.231,-3.749 -4.231,-5.016 0,-0.539 0.104,-0.898 0.118,-0.945 l 0.105,-0.354 -0.365,0.062 c -1.746,0.288 -2.472,1.71 -2.503,1.77 -0.999,2.991 -3.71,5.359 -4.691,6.148 a 6.88,6.88 0 0 0 0.066,-0.895 c 0,-0.935 -0.202,-2.126 -1.05,-2.976 -1.43,-1.429 -1.624,-5.973 -1.624,-6.019 l -0.03,-0.82 -0.4,0.712 c -1.582,2.833 -6.2,1.472 -6.245,1.46 -0.195,-3.58 3.866,-8.16 3.908,-8.206 l 0.425,-0.472 -0.626,0.092 c -2.652,0.384 -4.712,0.03 -6.123,-1.06 a 4.63,4.63 0 0 1 -1.644,-2.499 c 3.076,1.146 5.656,1.21 7.642,0.113 2.774,-1.534 3.383,-4.675 3.407,-4.807 2.913,-6.606 5.458,-7.649 5.486,-7.656 l -0.16,-0.431 c -0.115,0.04 -2.74,1.073 -5.768,7.95 z"
           id="path34"
           inkscape:connector-curvature="0" />
        <path
           d="m 843.45,158.07 -0.194,0.007 -2.364,3.24 0.702,0.07 c 12.829,1.248 19.613,8.988 19.679,9.068 l 0.296,0.344 2.326,-2.527 -0.17,-0.26 c -6.506,-10.244 -20.136,-9.947 -20.275,-9.942 z m 0.22,0.804 c 1.585,0.004 13.27,0.365 19.189,9.331 -0.29,0.313 -0.935,1.019 -1.28,1.397 -1.387,-1.438 -7.962,-7.582 -19.237,-8.906 a 631.23,631.23 0 0 1 1.328,-1.822 z"
           id="path36"
           inkscape:connector-curvature="0" />
        <path
           d="m 841.6,164.84 c -1.096,1.495 -2.114,3.707 -2.114,4.742 0,0.198 0.038,0.354 0.122,0.453 0.007,0.01 0.046,0.013 0.059,0.029 -1.336,1.197 -2.131,3.196 -2.131,5.456 0,1.243 0.22,2.538 0.681,3.773 l 0.257,0.695 c 1.259,3.424 2.344,6.384 7.788,4.641 5.244,-1.675 5.45,-2.011 6.77,-4.189 l 0.345,-0.564 c 0.72,-1.17 1.506,-1.404 2.343,-1.652 0.999,-0.3 2.034,-0.608 2.942,-2.4 l 0.883,-1.324 c 0.953,-1.313 2.142,-2.94 2.285,-5.023 l -0.46,-0.031 c -0.132,1.95 -1.28,3.518 -2.197,4.78 l -0.922,1.388 c -0.82,1.616 -1.715,1.884 -2.664,2.167 -0.883,0.263 -1.79,0.534 -2.604,1.853 l -0.348,0.566 c -1.27,2.096 -1.431,2.366 -6.512,3.994 -5.027,1.606 -5.946,-0.9 -7.218,-4.364 l -0.257,-0.702 c -1.433,-3.818 -0.313,-7.669 1.55,-9.049 l 0.64,-0.475 -0.887,0.1 c -0.01,-0.038 -0.02,-0.071 -0.02,-0.131 0,-0.624 0.681,-2.611 2.037,-4.464 1.158,-1.578 3.89,-3.142 3.92,-3.157 l -0.23,-0.399 c -0.115,0.069 -2.845,1.63 -4.058,3.287 z"
           id="path38"
           inkscape:connector-curvature="0" />
        <path
           d="m 839.16,178.65 c 0.9,0.624 2.166,0.58 3.692,0 0.007,0.544 0.129,1.7 1.078,2.538 1.116,0.988 2.965,1.178 5.5,0.574 l -0.108,-0.446 c -2.375,0.567 -4.089,0.407 -5.087,-0.469 -1.072,-0.945 -0.922,-2.45 -0.918,-2.463 l 0.042,-0.394 -0.365,0.155 c -1.537,0.662 -2.74,0.702 -3.575,0.125 -1.495,-1.04 -1.383,-3.755 -1.38,-3.786 l -0.46,-0.022 c -10e-4,0.124 -0.127,3.002 1.581,4.188 z"
           id="path40"
           inkscape:connector-curvature="0" />
        <path
           d="m 842.07,174.99 c -0.656,0.156 -0.827,0.706 -0.827,1.13 0,0.102 0.011,0.197 0.024,0.279 0.115,1.182 1.398,1.969 2.563,2.306 1.133,0.328 2.528,0.35 3.077,-0.356 0.22,-0.282 0.38,-0.79 -0.1,-1.61 -1.75,-2.977 -4.581,-1.811 -4.737,-1.749 z m 1.888,3.271 c -1.02,-0.291 -2.142,-0.953 -2.232,-1.933 -0.022,-0.094 -0.132,-0.752 0.448,-0.89 l 0.046,-0.015 c 0.104,-0.047 2.611,-1.136 4.19,1.55 0.281,0.48 0.327,0.845 0.132,1.093 -0.338,0.44 -1.454,0.526 -2.584,0.195 z m -1.934,-3.254 c 0.004,-0.004 0.046,-0.018 0.046,-0.018 z m 1.626,5.973 c -0.295,2.514 -0.115,2.574 0.066,2.63 l 0.16,0.05 0.18,-0.212 1.456,-1.92 -1.828,-0.866 z m 0.421,0.376 0.737,0.348 c -0.198,0.253 -0.566,0.744 -0.845,1.11 0.007,-0.378 0.053,-0.912 0.108,-1.458 z m -4.211,-2.396 -0.097,2.376 1.995,-2.413 -1.887,-0.209 z m 0.449,0.266 0.552,0.06 c -0.195,0.233 -0.324,0.392 -0.585,0.706 0.02,-0.37 0.027,-0.575 0.033,-0.766 z"
           id="path42"
           inkscape:connector-curvature="0" />
        <path
           d="m 838.53,178.2 c 0.017,0.031 1.484,2.9 1.745,3.947 0.167,0.665 1.015,1.422 2.027,1.797 1.008,0.38 1.953,0.318 2.659,-0.174 l 1.325,-1.101 c 0.441,-0.425 0.588,-0.544 0.945,-0.483 l 0.077,-0.453 c -0.601,-0.101 -0.894,0.179 -1.34,0.603 l -1.269,1.058 c -0.782,0.546 -1.739,0.313 -2.239,0.12 -0.946,-0.35 -1.63,-1.028 -1.742,-1.48 -0.275,-1.094 -1.721,-3.92 -1.78,-4.04 z m 1.91,-8.6 c -1.62,0.748 -2.305,2.713 -2.333,2.796 l 0.435,0.151 c 0.007,-0.019 0.654,-1.87 2.092,-2.53 0.702,-0.322 1.488,-0.311 2.344,0.025 l 0.17,-0.425 c -0.973,-0.393 -1.884,-0.396 -2.708,-0.017 z m 10.89,5.16 c 0.128,0.096 3.188,2.414 1.43,5.243 l 0.39,0.243 c 1.984,-3.188 -1.514,-5.83 -1.545,-5.858 z m -9.2,0.45 c 0,0 -0.476,1.73 1.957,2.34 0,0 -2.288,-0.02 -2.433,-0.61 -0.154,-0.591 0.013,-1.9 0.476,-1.73 z m 7.44,2.07 c 0,0.15 -0.122,0.274 -0.271,0.274 a 0.275,0.275 0 0 1 -0.271,-0.274 c 0,-0.148 0.124,-0.271 0.27,-0.271 0.15,0 0.272,0.123 0.272,0.271 z m 0.27,1.08 c 0,0.15 -0.122,0.275 -0.271,0.275 a 0.272,0.272 0 0 1 -0.268,-0.275 0.27,0.27 0 0 1 0.268,-0.27 c 0.149,0 0.271,0.125 0.271,0.27 z"
           id="path44"
           inkscape:connector-curvature="0" />
        <circle
           r="0.27000001"
           cy="177.825"
           cx="848.01001"
           id="circle46" />
        <path
           d="m 848.75,179.45 a 0.27,0.27 0 1 1 -0.539,0 c 0,-0.151 0.123,-0.275 0.268,-0.275 0.149,0 0.271,0.123 0.271,0.275 z m -7.1,-7.32 a 0.273,0.273 0 0 1 -0.546,0 c 0,-0.146 0.125,-0.271 0.271,-0.271 0.154,0 0.275,0.125 0.275,0.271 z"
           id="path48"
           inkscape:connector-curvature="0" />
        <circle
           r="0.27000001"
           cy="173.22"
           cx="841.65002"
           id="circle50" />
        <circle
           r="0.27000001"
           cy="172.67999"
           cx="840.09003"
           id="circle52" />
        <path
           d="m 840.83,174.3 a 0.276,0.276 0 0 1 -0.275,0.271 0.273,0.273 0 0 1 0,-0.546 0.278,0.278 0 0 1 0.275,0.275 z m 4.74,-9.55 c 0,0 3.518,2.165 0.132,6.228 0,0 1.666,-1.237 1.836,-3.362 0.178,-2.123 -1.207,-3.816 -1.968,-2.866 z m 13.5,5.84 c -1.133,0.582 -2.764,-0.496 -3.58,-1.514 -0.814,-1.02 -2.5,-1.28 -3.55,0.58 -1.048,1.864 -2.56,2.562 -2.56,2.562 0,0 1.477,-0.872 2.998,-2.503 1.512,-1.627 2.385,-0.32 3.87,0.466 1.484,0.786 1.717,0.959 2.763,0.552 z"
           id="path54"
           inkscape:connector-curvature="0" />
        <path
           d="m 858.78,170.86 c -0.463,0.348 -1.312,0.64 -2.212,-0.09 -0.9,-0.727 -1.658,-1.715 -2.792,-1.134 -1.138,0.584 -3.293,2.212 -3.293,2.212 0,0 3.495,-2.417 4.165,-1.892 0.668,0.526 2.243,1.805 3.202,1.43 0.961,-0.383 0.93,-0.526 0.93,-0.526 z"
           id="path56"
           inkscape:connector-curvature="0" />
        <path
           d="m 856.1,172.34 c -1.105,-0.844 -2.212,0.989 -3.143,0.76 -0.931,-0.237 -1.69,-1.779 -1.69,-1.779 0,0 0.877,1.631 2.097,1.252 1.224,-0.377 2.069,-1.135 2.824,-0.555 0.757,0.585 -0.088,0.322 -0.088,0.322 z"
           id="path58"
           inkscape:connector-curvature="0" />
        <path
           d="m 854.37,172.57 c -2.183,0.226 -2.399,-1.813 -2.399,-1.834 0,0 0.689,1.78 2.619,1.457 z"
           id="path60"
           inkscape:connector-curvature="0" />
        <path
           d="m 854.3,171.18 c 0.143,0.552 0.112,0.803 -0.473,0.803 -0.588,0 -0.987,-0.196 -0.987,-0.766 0,-0.571 1.374,-0.392 1.46,-0.037 z m -7.84,-3.03 c 0,0.38 -0.313,0.685 -0.7,0.685 -0.386,0 -0.462,-0.26 -0.462,-0.636 0,-0.375 0.076,-0.73 0.462,-0.73 0.387,0 0.7,0.307 0.7,0.681 z"
           id="path62"
           inkscape:connector-curvature="0" />
        <path
           d="m 844.05,165.71 c 0,0 3.74,0.04 1.888,4.72 0,0 1.425,-2.33 0.531,-4.006 -0.897,-1.674 -2.305,-1.252 -2.305,-1.252 0,0 -0.343,0.317 -0.114,0.538 z"
           id="path64"
           inkscape:connector-curvature="0" />
        <path
           d="m 843.94,167.58 c -0.01,0.938 0.616,1.907 1.856,2.876 l 0.286,-0.36 c -1.123,-0.876 -1.69,-1.72 -1.682,-2.506 0.007,-0.786 0.612,-1.253 0.619,-1.26 l -0.275,-0.37 c -0.032,0.026 -0.79,0.604 -0.804,1.62 z"
           id="path66"
           inkscape:connector-curvature="0" />
        <path
           d="m 844.77,168.37 c 0.16,0.539 0.577,0.946 1.244,1.212 l 0.17,-0.425 c -0.527,-0.21 -0.855,-0.518 -0.972,-0.913 -0.237,-0.796 0.403,-1.724 0.41,-1.732 l -0.372,-0.267 c -0.036,0.048 -0.779,1.12 -0.48,2.125 z m 5.13,2.6 c 0,0 0.696,1.512 -0.32,3.143 -1.02,1.63 -0.992,1.544 -0.992,1.544 0,0 1.224,-2.241 0.759,-3.175 -0.462,-0.931 0.553,-1.512 0.553,-1.512 z m 14.55,15.79 c 3.842,0.724 12.51,7.52 12.6,7.59 l 0.498,-0.636 c -0.365,-0.282 -8.915,-6.985 -12.948,-7.744 z m 3.41,9.59 c 0.257,3.41 3.967,5.528 4.127,5.614 l 0.392,-0.7 c -0.038,-0.018 -3.49,-1.996 -3.72,-4.975 z m -9.21,0.71 c 0,3.824 3.584,8.45 3.738,8.647 l 0.632,-0.497 c -0.034,-0.043 -3.567,-4.602 -3.567,-8.15 z m -12.15,0.43 c 0.632,1.262 0.566,1.902 0.403,2.215 -0.19,0.353 -0.58,0.407 -0.594,0.41 l 0.094,0.801 c 0.295,-0.035 0.887,-0.24 1.2,-0.816 0.383,-0.7 0.253,-1.7 -0.383,-2.964 z"
           id="path68"
           inkscape:connector-curvature="0" />
      </g>
      <g
         id="g80"
         style="fill:#ffffff;stroke:#000000;stroke-width:0.36000001">
        <path
           d="m 429.57,216.3 c 0,0 0.155,1.702 1.47,2.712 0,0 -0.154,-1.861 0.234,-2.633 0,0 -0.696,-0.774 -1.704,-0.079 z m 2.627,1.084 c 0,0 0.31,1.546 1.24,2.244 l 0.544,-0.154 c 0,0 0.232,-1.937 0.541,-2.169 0.31,-0.23 -1.315,0.697 -2.325,0.08 z"
           id="path72"
           inkscape:connector-curvature="0"
           style="stroke-width:0.23899999" />
        <path
           d="m 434.524,217.304 1.006,1.549 1.16,-0.62 -0.232,-1.856 c 0,0 -0.695,-0.157 -1.934,0.927 z"
           id="path74"
           inkscape:connector-curvature="0"
           style="stroke-width:0.23899999" />
        <path
           d="m 439.244,217.617 -1.316,1.084 c 0,0 -0.696,-0.543 -1.24,-0.465 l 0.234,-1.703 c 0,0 0.93,-0.697 2.322,1.084 z m -9.368,16.023 c 0,0 -0.231,-2.4 0.08,-2.555 0,0 0.926,0.31 1.314,-0.079 0,0 0.543,1.937 0.387,2.711 -0.154,0.773 -1.083,0.466 -1.78,-0.077 z m 5.964,-2.48 c 0,0 -0.077,-2.013 0.31,-2.247 0,0 1.934,0.233 2.399,-0.772 l 0.697,1.935 c 0,0 -2.168,-0.233 -3.406,1.084 z"
           id="path76"
           inkscape:connector-curvature="0"
           style="stroke-width:0.23899999" />
        <path
           d="m 433.752,231.546 c 0,0 0.387,-2.09 0.775,-2.167 0,0 1.006,0.309 1.316,-0.08 l -0.077,2.557 c 0,0 0.077,-1.085 -2.014,-0.31 z m -2.247,0.312 c 0,0 0.464,-1.858 0.775,-1.858 0.311,0 1.085,0.464 1.471,0.155 v 1.394 c 0,0 -1.706,-0.387 -1.936,1.934 z"
           id="path78"
           inkscape:connector-curvature="0"
           style="stroke-width:0.233" />
      </g>
    </g>
    <g
       id="g122"
       style="fill:#00a651;stroke:#000000;stroke-width:0.77999997">
      <path
         d="m 461.683,270.4 c 0,0 5.262,4.887 3.886,9.147 0,0 3.382,-7.268 -0.25,-9.399 -3.636,-2.13 -3.76,-0.497 -3.636,0.252 z"
         id="path84"
         inkscape:connector-curvature="0"
         style="stroke-width:0.51899999" />
      <path
         d="m 455.041,275.154 c 0,0 -1.376,1.884 0.125,3.261 0,0 -1.627,2.377 -0.372,4.385 0,0 -1.005,2.13 -0.753,4.386 0,0 -0.879,3.507 1,5.139 0,0 2.007,1.003 2.885,0.125 0,0 1.753,-2.63 0.624,-5.39 0,0 1.253,-2.255 -0.124,-5.137 0,0 0.376,-1.63 -0.752,-3.507 0,0 0.752,-1.255 0.124,-2.256 0,0 -2.505,-2.634 -2.757,-1.006 z"
         id="path86"
         inkscape:connector-curvature="0"
         style="fill:#964b36;stroke-width:0.51899999" />
      <path
         d="m 456.544,269.017 c 0,0 -6.265,-12.027 -10.651,-12.531 -4.387,-0.502 -4.636,-4.76 -4.636,-4.76 0,0 0.5,2.004 4.01,2.004 3.51,0 10.276,4.886 11.027,8.645 0.75,3.759 1.505,3.26 1.505,3.26 z"
         id="path88"
         inkscape:connector-curvature="0"
         style="stroke-width:0.51899999" />
      <path
         d="m 456.544,268.14 c 0,0 2.256,-15.163 12.157,-15.415 9.897,-0.252 6.642,0.752 9.02,-0.878 0,0 -6.638,3.511 -10.775,4.01 -4.134,0.502 -7.519,8.519 -7.393,10.026 0.124,1.503 -2.255,4.386 -3.383,3.385 -1.128,-1.003 0.374,-1.129 0.374,-1.129 z"
         id="path90"
         inkscape:connector-curvature="0"
         style="stroke-width:0.51899999" />
      <path
         d="m 458.798,273.784 c 0,0 2.254,-6.015 6.14,-4.008 0,0 -3.01,-5.767 -8.397,-0.754 0,0 2.382,3.258 2.257,4.762 z m -7.52,-6.024 c 0,0 3.26,13.41 -1.754,17.544 0,0 0.124,-6.888 -2.883,-11.024 -3.005,-4.138 3.007,-8.646 4.637,-6.52 z"
         id="path92"
         inkscape:connector-curvature="0"
         style="stroke-width:0.51899999" />
      <path
         d="m 451.657,270.148 c 0,0 5.891,5.64 6.268,7.52 0.376,1.879 1.753,-5.64 -1.003,-7.768 -2.757,-2.133 -5.764,-2.508 -5.764,-2.508 l 0.5,2.756 z"
         id="path94"
         inkscape:connector-curvature="0"
         style="stroke-width:0.51899999" />
      <path
         d="m 440.793,284.927 c 0,0 0.534,2.368 1.987,2.825 0,0 0.075,1.76 1.375,2.293 0,0 -0.69,1.453 0.46,2.368 0,0 -0.232,2.903 0.838,3.516 0,0 2.6,-0.153 3.514,-0.918 0,0 0.536,-1.907 -0.913,-3.82 0,0 0.226,-1.834 -1.226,-2.826 0,0 0.459,-2.448 -1.375,-3.363 0,0 -0.304,-1.988 -1.452,-2.98 0,0 -2.214,3.132 -3.208,2.905 z"
         id="path96"
         inkscape:connector-curvature="0"
         style="fill:#964b36;stroke-width:0.51899999" />
      <path
         d="m 443.692,282.022 c 0,0 -7.716,-2.827 -11.995,1.223 0,0 6.569,0.918 7.41,2.216 0.84,1.297 4.89,-2.138 4.585,-3.44 z"
         id="path98"
         inkscape:connector-curvature="0"
         style="stroke-width:0.51899999" />
      <path
         d="m 441.325,286.836 c 0,0 -0.61,-0.534 -1.374,-1.07 -0.764,-0.534 -7.257,-2.292 -8.177,3.973 0,0 -2.37,-6.188 1.07,-7.03 3.44,-0.841 6.19,1.147 8.48,4.127 m -5.078,-12.806 c 0,0 2.378,5.137 3.257,5.391 0.877,0.248 1.502,-0.626 1.502,-0.626 0,0 -3.131,-4.637 -4.76,-4.765 z m -1.756,-7.892 c 0,0 -2.006,-6.64 -4.385,-4.886 -2.381,1.754 -1.755,6.514 -1.755,6.514 0,0 -4.762,-4.884 -2.006,-8.77 2.76,-3.885 8.146,0.376 8.146,7.142 z"
         id="path100"
         inkscape:connector-curvature="0"
         style="stroke-width:0.51899999" />
      <path
         d="m 439.882,279.795 c 0,0 0,1.253 0.878,1.627 0.878,0.377 2.506,1 2.506,0.252 0,-0.751 -1.252,-3.634 -1.756,-3.257 -0.502,0.377 -1.376,0.372 -1.628,1.378 z"
         id="path102"
         inkscape:connector-curvature="0"
         style="fill:#964b36;stroke-width:0.51899999" />
      <path
         d="m 438.38,272.03 c 0,0 -0.25,-5.764 3.506,-7.897 0,0 0.754,0.13 1.13,-0.998 0,0 -3.01,7.265 -2.132,10.9 l -0.124,0.501"
         id="path104"
         inkscape:connector-curvature="0"
         style="stroke-width:0.51899999" />
      <path
         d="m 439.131,265.008 c 0,0 6.766,-14.036 15.038,-9.15 0,0 -8.646,1.756 -11.777,7.896 l -3.135,4.632 -0.125,-3.378 z"
         id="path106"
         inkscape:connector-curvature="0"
         style="stroke-width:0.51899999" />
      <path
         d="m 435.494,270.148 c 0,0 -2.005,-9.398 -3.258,-10.649 -1.254,-1.254 -3.384,-2.632 -5.891,-0.503 0,0 4.387,-3.886 9.023,-0.626 4.635,3.259 3.633,8.396 3.633,8.396 l -0.5,6.517 -3.133,-2.883"
         id="path108"
         inkscape:connector-curvature="0"
         style="stroke-width:0.51899999" />
      <path
         d="m 442.761,281.297 c 0,0 -8.27,-15.659 -13.657,-4.508 0,0 -1.006,2.88 0.122,4.006 0,0 -3.008,-2.253 -1.629,-7.767 1.377,-5.511 10.524,-3.007 13.158,1.505 2.63,4.51 3.384,6.768 3.008,7.016 -0.378,0.252 -1.002,-0.252 -1.002,-0.252 z m 23.31,4.515 c 0,0 6.018,-12.407 9.524,-6.769 0,0 1.001,2.756 -0.504,3.887 0,0 -2.378,-2.883 -4.507,0.626 -2.131,3.507 -1.254,3.259 -1.254,3.259 0,0 -2.256,0.626 -3.259,-1.004 z"
         id="path110"
         inkscape:connector-curvature="0"
         style="stroke-width:0.51899999" />
      <path
         d="m 475.087,282.926 c 0,0 3.257,1.752 2.133,5.261 0,0 4.383,-8.394 -1.63,-9.147 0,0 1.13,2.633 -0.503,3.886 z m 0.379,-8.516 c 0,0 7.896,2.253 8.146,5.64 0,0 1.38,-6.52 -3.133,-8.524 0.001,10e-4 -5.39,0.88 -5.013,2.883 z"
         id="path112"
         inkscape:connector-curvature="0"
         style="stroke-width:0.51899999" />
      <path
         d="m 478.976,264.004 c 3.385,-6.641 7.645,2.13 7.645,2.13 0,0 1.502,-6.89 -2.756,-8.145 -4.263,-1.253 -7.018,14.66 -7.018,14.66 l -5.014,1.128 c 0,0 1.38,-13.907 8.897,-15.162 l 0.876,0.127"
         id="path114"
         inkscape:connector-curvature="0"
         style="stroke-width:0.51899999" />
      <path
         d="m 472.96,268.013 c 0,0 -4.76,-9.773 -8.02,-10.774 -3.259,-1.003 1.757,-2.507 3.761,-0.628 2.002,1.878 5.761,4.26 5.386,9.273 l -1.128,2.13 z m -4.888,13.411 c 0,0 1.378,-6.64 5.137,-8.646 3.759,-2.006 7.268,-1.252 7.268,-1.252 0,0 -4.512,1 -5.262,3.259 -0.753,2.254 -2.006,2.378 -2.006,2.378 l -5.137,4.26 z"
         id="path116"
         inkscape:connector-curvature="0"
         style="stroke-width:0.51899999" />
      <path
         d="m 466.071,285.812 c 0,0 -2.13,4.01 -1.63,4.635 0,0 -2.254,3.258 -1.378,4.887 0,0 2.257,1.754 3.26,1.001 0,0 2.628,-3.632 1.877,-5.638 0,0 1.754,-2.379 1.13,-3.882 0,0 -2.63,0.125 -3.259,-1.003 z"
         id="path118"
         inkscape:connector-curvature="0"
         style="fill:#964b36;stroke-width:0.51899999" />
      <path
         d="m 455.048,278.651 c 0.141,0.072 1.406,0.686 2.258,0.402 l 0.608,-0.52 -0.478,-0.238 c -0.312,0.62 -1.69,0.109 -2.15,-0.12 z m -0.206,3.889 -0.104,0.525 c 0.108,0.021 2.65,0.513 3.863,-0.564 l -0.356,-0.398 c -1.013,0.9 -3.378,0.445 -3.403,0.438 z m -0.645,4.428 -0.314,0.433 c 0.03,0.023 2.985,2.127 4.876,-0.17 l -0.414,-0.34 c -1.57,1.906 -4.043,0.154 -4.148,0.077 z m -11.476,0.639 0.111,0.286 c 0.106,-0.044 2.61,-1.049 2.769,-2.88 l -0.304,-0.028 c -0.143,1.644 -2.552,2.612 -2.576,2.622 z m 1.416,2.287 0.022,0.305 c 0.097,-0.008 2.409,-0.18 2.812,-1.796 l -0.298,-0.077 c -0.348,1.401 -2.513,1.565 -2.536,1.568 z m 0.479,2.366 -0.017,0.308 c 0.111,0.005 2.7,0.139 3.579,-1.295 l -0.261,-0.162 c -0.784,1.281 -3.275,1.152 -3.3,1.15 z m 19.634,-1.621 c 0.046,0.048 1.162,1.15 2.466,1.102 0.638,-0.023 1.204,-0.317 1.682,-0.866 l -0.404,-0.351 c -0.377,0.434 -0.814,0.665 -1.295,0.683 -1.068,0.04 -2.064,-0.935 -2.074,-0.947 z"
         id="path120"
         inkscape:connector-curvature="0"
         style="fill:#000000;stroke:none" />
    </g>
    <g
       id="g128"
       style="fill:#964b36;stroke:#000000;stroke-width:0.27900001">
      <path
         d="m 542.065,299.8 a 1.104,1.104 0 0 0 -0.405,0.268 z m 9.215,-2.307 c -0.09,-0.229 -0.148,-0.132 -0.266,-0.234 -0.168,-0.138 -0.265,-0.582 -0.414,-0.748 -0.088,-0.101 -0.189,-0.003 -0.284,-0.028 -0.215,-0.474 -0.469,-0.973 -0.696,-1.43 a 0.397,0.397 0 0 0 0.063,-0.213 7.61,7.61 0 0 0 -0.114,-0.4 c -0.064,-0.101 -0.166,-0.042 -0.229,-0.199 -0.07,-0.157 -0.016,-0.466 -0.041,-0.652 -0.019,-0.154 -0.08,-0.24 -0.07,-0.458 0.01,-0.189 0.111,-0.409 0.1,-0.575 -0.005,-0.103 -0.127,-0.337 -0.164,-0.425 -0.149,-0.358 -0.273,-0.696 -0.291,-1.138 -0.019,-0.4 0.062,-0.644 0.091,-0.991 0.038,-0.416 -0.182,-0.618 -0.182,-1.002 0.002,-0.293 0.126,-0.624 0.162,-0.887 0.048,-0.36 0.052,-0.883 0.022,-1.252 -0.027,-0.354 -0.127,-0.567 -0.072,-0.964 0.014,-0.098 0.06,-0.176 0.072,-0.312 -0.003,-0.098 -0.003,-0.192 -0.003,-0.287 v -0.57 c 0,-0.185 0.019,-0.393 0.003,-0.574 -0.016,-0.15 -0.104,-0.305 -0.104,-0.423 0,-0.203 0.13,-0.3 0.102,-0.576 -0.018,-0.198 -0.047,-0.245 -0.092,-0.418 -0.088,-0.328 -0.028,-0.659 -0.082,-1.01 -0.025,-0.168 -0.079,-0.222 -0.095,-0.414 -0.022,-0.226 0.048,-0.305 0.07,-0.465 0.023,-0.16 0.047,-0.37 0.025,-0.538 -0.025,-0.204 -0.122,-0.348 -0.095,-0.57 l -0.074,2.515 c -0.062,-2.194 -0.15,-4.225 -0.15,-4.225 l -3.336,-1.567 c 0,0 -0.283,6.126 -0.21,6.979 0.066,0.855 0.353,6.699 0.21,7.41 -0.144,0.713 -0.495,4.275 -0.495,4.275 0,0 -1.631,1.14 -2.27,2.42 -0.64,1.283 -0.497,1.71 -0.712,1.71 l 1.585,-0.246 -1.18,0.788 a 0.721,0.721 0 0 1 0.735,0.114 c 0.027,0.022 0.203,0.173 0.226,0.173 0.062,0 0.148,-0.159 0.224,-0.187 0.246,-0.083 0.453,0.378 0.686,0.343 0.125,-0.019 0.296,-0.15 0.398,-0.284 0.085,-0.114 0.117,-0.312 0.206,-0.388 0.081,-0.07 0.28,0.011 0.365,0.011 0.233,0 0.47,0.007 0.702,0 0.31,-0.009 0.562,-0.446 0.849,-0.693 0.266,-0.224 0.462,-0.303 0.747,-0.287 0.312,0.023 0.594,0.315 0.911,0.333 0.24,0.012 0.407,0.041 0.601,-0.21 0.134,-0.176 0.229,-0.437 0.356,-0.62 l 0.788,-0.122 c 0.156,0.065 0.316,0.137 0.45,0.132 0.201,-0.01 0.41,-0.034 0.609,-0.003 0.076,0.01 0.226,0.188 0.288,0.144 0.042,-0.033 0.114,-0.273 0.157,-0.345 -0.018,-0.096 -0.047,-0.337 -0.082,-0.417 z"
         id="path124"
         inkscape:connector-curvature="0" />
      <path
         d="m 544.532,299.687 c 0.2,0 0.385,-0.046 0.554,0.102 l 0.079,0.154 a 0.173,0.173 0 0 0 0.167,0.024 c 0.113,0.076 0.136,0.12 0.26,0.148 0.116,0.025 0.243,-0.005 0.359,-0.003 0.146,0.005 0.217,0.055 0.353,0.111 0.238,0.098 0.395,0.005 0.601,-0.143 0.239,-0.176 0.326,-0.042 0.555,0.178 0.171,0.164 0.136,0.149 0.29,0.037 0.024,-0.053 0.051,-0.104 0.077,-0.148 0.077,-0.032 0.155,-0.053 0.233,-0.067 0.128,-0.06 0.255,-0.053 0.375,-0.1 0.127,-0.049 0.22,-0.19 0.354,-0.164 0.115,0.023 0.248,0.118 0.358,0.153 a 0.747,0.747 0 0 1 0.24,0.122 c 0.16,-0.328 0.512,-0.426 0.736,-0.584 0.234,-0.162 0.45,0.034 0.707,0.036 0.137,0 0.192,-0.079 0.29,-0.11 0.108,-0.04 0.232,0.017 0.337,-0.026 0.11,-0.042 0.131,-0.148 0.253,-0.162 0.227,-0.028 0.48,0.341 0.706,0.41 0.127,0.043 0.715,0.175 0.628,-0.258 -0.083,-0.411 -0.452,-0.126 -0.53,-0.415 -0.043,-0.165 0.043,-0.398 -0.008,-0.583 -0.044,-0.168 -0.23,-0.363 -0.34,-0.4 -0.139,-0.043 -0.22,0.102 -0.337,-0.011 -0.098,-0.09 -0.135,-0.428 -0.22,-0.562 -0.114,0.083 -0.185,0.16 -0.335,0.13 -0.172,-0.042 -0.155,-0.1 -0.282,-0.262 -0.278,-0.348 -0.438,0.208 -0.694,0.12 -0.194,-0.062 -0.375,-0.552 -0.527,-0.752 -0.081,-0.106 -0.31,-0.45 -0.428,-0.374 -0.198,0.13 -0.018,0.504 -0.122,0.67 -0.074,0.116 -0.337,-0.002 -0.432,0.016 -0.15,0.033 -0.178,0.072 -0.287,0.252 -0.22,0.364 -0.347,0.652 -0.688,0.61 -0.162,-0.018 -0.284,-0.182 -0.442,-0.122 -0.169,0.065 -0.263,0.245 -0.449,0.266 a 0.977,0.977 0 0 1 -0.42,-0.035 c -0.13,-0.058 -0.275,-0.3 -0.393,-0.367 a 0.153,0.153 0 0 0 -0.16,-0.03 8.658,8.658 0 0 0 -0.194,-0.112 c -0.206,-0.06 -0.189,-0.052 -0.273,0.22 -0.048,0.168 -0.067,0.342 -0.129,0.502 -0.06,0.134 -0.191,0.3 -0.268,0.39 -0.144,0.154 -0.213,0.113 -0.4,0.169 -0.15,0.049 -0.35,0.282 -0.43,-0.018 -0.12,-0.454 0.333,-1.131 -0.171,-1.013 -0.132,0.03 -0.21,0.055 -0.291,0.25 -0.09,0.224 -0.018,0.37 -0.058,0.615 -0.053,0.31 -0.643,0.83 -0.526,1.11 0.078,0.197 0.342,-0.106 0.414,-0.058 0.12,0.083 0.085,0.28 0.17,0.412 0.179,0.273 0.708,-0.423 0.738,-0.046 m -2.142,-2.709 c 0,-0.039 -0.008,-0.076 -0.01,-0.117 -0.142,-0.025 -0.301,-0.175 -0.43,-0.178 -0.123,-0.007 -0.361,0.292 -0.445,0.434 -0.258,0.428 -0.187,1.01 -0.621,1.002 -0.107,-0.003 -0.356,-0.075 -0.45,-0.01 -0.163,0.116 -0.06,0.458 -0.06,0.691 0,0.22 0.1,0 -0.017,0.285 -0.035,0.078 -0.141,0.104 -0.17,0.208 -0.087,0.372 0.223,0.254 0.36,0.25 0.35,-0.003 0.7,-0.003 1.047,0 0.21,0.004 0.337,-0.07 0.533,-0.146 0.13,-0.044 0.405,-0.042 0.514,-0.157 a 2.21,2.21 0 0 0 0.184,-0.407 c 0.028,-0.144 -0.027,-0.317 0.008,-0.437 0.055,-0.21 0.243,-0.13 0.277,-0.414 0.09,-0.696 -0.653,-0.175 -0.536,-0.86"
         id="path126"
         inkscape:connector-curvature="0" />
    </g>
    <g
       id="g138"
       style="stroke:#000000;stroke-width:0.51899999">
      <path
         d="m 550.808,277.9 c 0,0.901 -0.617,1.627 -1.382,1.627 -0.756,0 -1.378,-0.726 -1.378,-1.627 0,-0.9 0.622,-1.63 1.378,-1.63 0.764,0 1.382,0.73 1.382,1.63 z m -4.508,-2.008 c 0,0.9 -0.617,1.627 -1.379,1.627 -0.762,0 -1.381,-0.728 -1.381,-1.627 0,-0.9 0.619,-1.63 1.381,-1.63 0.762,0 1.38,0.73 1.38,1.63 z"
         id="path130"
         inkscape:connector-curvature="0" />
      <path
         d="m 548.68,276.517 c 0,0.901 -0.617,1.627 -1.378,1.627 -0.762,0 -1.378,-0.726 -1.378,-1.627 0,-0.902 0.616,-1.63 1.378,-1.63 0.76,0 1.378,0.73 1.378,1.63 z"
         id="path132"
         inkscape:connector-curvature="0" />
      <path
         d="m 546.373,278.006 c 0,0.902 -0.62,1.632 -1.38,1.632 -0.76,0 -1.378,-0.731 -1.378,-1.632 0,-0.899 0.617,-1.627 1.378,-1.627 0.761,0 1.38,0.727 1.38,1.627 z"
         id="path134"
         inkscape:connector-curvature="0" />
      <path
         d="m 548.514,279.25 c 0,0.899 -0.621,1.631 -1.38,1.631 -0.76,0 -1.38,-0.732 -1.38,-1.632 0,-0.899 0.62,-1.627 1.38,-1.627 0.758,0 1.38,0.728 1.38,1.627 z"
         id="path136"
         inkscape:connector-curvature="0" />
    </g>
    <path
       d="m 549.179,261.478 c 0,0 13.907,-19.42 28.82,0.754 0,0 0.125,2.006 -1.253,4.135 l -0.377,-1.628 -0.876,0.25 -0.25,-1.003 -1.633,-0.124 0.505,-2.131 -1.757,1.378 0.252,-1.504 -2.005,2.008 0.252,-4.263 -2.132,3.634 0.25,-2.504 -0.75,1.125 -0.453,-1.46 -0.674,1.46 -1.005,-0.75 v 1.002 l -1.752,-1.503 -0.626,2.004 -0.877,-2.129 -0.251,1.502 -0.88,-1.754 -0.122,1.88 -2.884,-1.254 0.626,1.755 -1.376,-1 0.25,1 -1.877,-0.374 0.123,1.126 -2.005,-0.376 0.377,1 -2.758,-0.373 0.999,1.128 -0.278,0.458 c 0,0 15.066,-4.968 16.069,13.827 l -2.758,1.378 0.753,-1.5 -0.753,-0.504 -2.254,-1.752 0.627,-2.383 -0.751,0.252 -0.127,-1.377 -0.375,0.25 -0.88,-1.379 -0.249,0.502 -0.626,-1.631 -0.626,1.13 -0.378,-2.758 -1,1.757 -0.128,-1.003 -0.377,0.626 -1.252,-1.504 -0.373,1.002 -0.504,-0.751 -0.374,0.876 -1.379,-1.255 v 1.006 l -0.876,-0.754 -0.38,0.502 -2.126,-1.128 -0.13,1 -1.125,-1 -0.377,1 c 0,0 13.662,7.772 9.399,20.428 l -0.754,1.628 -0.247,-4.258 -1.253,2.254 0.871,-4.887 -0.871,0.876 -0.13,-1.877 -1.123,1.877 -0.382,-2.129 -0.497,0.627 -0.755,-3.26 -0.627,1.38 -1,-3.634 -0.752,1.503 -0.502,-3.13 -0.501,1.879 -1.505,-2.758 -0.248,1.125 -0.876,-2.253 -0.504,0.754 c 0,0 -2.506,-0.128 -3.257,-0.754 -0.752,-0.624 -2.883,3.76 -2.883,3.76 l 0.252,-2.632 -0.876,1.752 v -1.752 l -1.63,5.261 -0.377,-3.758 -0.877,3.257 -0.377,-1 -0.25,1.38 -0.502,-0.504 -0.437,1.48 -0.818,-0.602 v 2.004 l -0.75,-1.002 -0.627,3.007 -0.375,-1.25 v 1.376 l -0.626,-0.749 -0.629,3.008 -0.876,-1.252 -0.123,2.127 0.373,1.631 -1.001,-0.502 0.377,2.628 c 0,0 -3.885,-7.265 0.753,-14.284 4.633,-7.013 10.9,-8.895 10.9,-8.895 l -0.63,-0.624 -0.124,-0.628 -3.759,1.879 0.127,-1.13 -1.003,0.877 -0.25,-1.252 -0.629,1.128 -0.122,-0.502 -0.879,1.38 -0.503,-2.006 -0.625,2.383 -0.591,-1.667 -1.288,3.544 v -2.63 l -1.003,2.757 -0.375,-3.008 -0.75,3.507 v -3.132 l -1.131,3.132 -0.751,-3.006 -0.502,2.88 -0.75,-2.253 -0.755,3.382 -1.125,-3.008 -0.627,4.512 -0.75,-1.756 -0.127,3.259 -0.875,-2.004 0.875,4.258 -1.128,-1.628 0.377,2.63 -1.628,-2.882 0.125,3.387 -0.878,-1.13 -0.378,1.253 c 0,0 -0.372,-13.032 8.521,-15.54 8.9,-2.505 14.664,0.754 14.664,0.754 l -3.383,-2.756 0.375,-0.879 h -1.252 l 0.5,-1.002 -2.63,0.126 0.751,-1.002 -2.006,0.25 v -0.626 l -1.253,1 0.502,-1.126 -1.755,1.125 -0.106,-1.666 -0.897,1.42 -0.497,-1.506 -4.013,4.008 1.128,-4.134 -0.751,0.879 -0.124,-0.879 -1.129,1.756 -0.25,-1.254 -0.503,1.503 -0.377,-1.753 -0.874,1.753 -0.879,-1.626 -0.374,2.13 -0.629,-1.13 -0.751,1.63 -1,-1.004 -0.128,1.003 -2.005,-0.877 0.502,1.504 -1.505,-1.252 -0.377,2.004 -0.874,-1.003 -0.627,2.508 -0.626,-2.382 -0.626,1.88 c 0,0 7.836,-20.136 27.661,-6.999 0,0 2.16,2.111 2.661,3.615 0.502,1.504 0.127,0.253 0.127,0.253 l -0.377,-13.91 0.751,6.015 0.501,-2.131 -0.124,3.133 2.002,-4.387 c 0,0 -2.378,7.27 -1.503,9.9 0,0 0.88,-8.394 3.889,-9.398 l -2.758,6.014 0.876,-0.126 -0.627,1.255 h 0.752 l -0.909,1.988 -0.47,1.02 0.5,1 z"
       id="path140"
       inkscape:connector-curvature="0"
       style="fill:#00a651;stroke:#000000;stroke-width:0.51899999" />
    <path
       d="m 547.118,269.649 0.395,0.356 c 0.053,-0.055 1.292,-1.376 3.373,0.381 l 0.345,-0.41 c -2.488,-2.103 -4.102,-0.346 -4.113,-0.327 z m -0.605,-6.822 -0.082,0.482 0.967,-0.412 c -0.155,0.276 -0.664,1.162 -0.664,1.162 l 1.44,-0.48 -1.786,2.34 0.425,0.328 2.843,-3.724 -1.766,0.59 0.758,-1.334 -1.528,0.657 c 0.101,-0.618 0.316,-1.911 0.316,-1.911 l -0.53,-0.089 z"
       id="path142"
       inkscape:connector-curvature="0" />
    <path
       d="m 543.86,262.98 c 0,0 0.351,0.777 0.615,1.356 -0.114,-0.047 -0.98,-0.394 -0.98,-0.394 l 2.891,5.115 c 0,0 0.35,-0.446 0.37,-0.474 -0.291,0.747 -0.582,1.5 -0.582,1.5 l 0.5,0.195 1.245,-3.206 -0.46,-0.261 -1.003,1.285 c -0.27,-0.481 -1.27,-2.251 -1.745,-3.088 0.06,0.022 0.802,0.321 0.802,0.321 l -0.8,-1.764 1.084,0.677 v -1.906 h -0.534 v 0.943 l -1.77,-1.105 z m -1.822,6.423 0.213,0.49 c 0.783,-0.335 1.428,-0.391 1.918,-0.157 0.574,0.275 0.747,0.866 0.749,0.87 l 0.515,-0.138 c -0.007,-0.034 -0.234,-0.83 -1.026,-1.211 -0.633,-0.305 -1.43,-0.256 -2.369,0.146 z m 2.245,5.418 -0.44,-2.802 0.53,-0.083 0.44,2.802 z m 3.849,-0.461 -0.714,-2.14 0.508,-0.17 0.714,2.14 z m 1.412,1.582 -0.536,-2.138 0.52,-0.13 0.536,2.138 z"
       id="path144"
       inkscape:connector-curvature="0" />
    <path
       d="m 442.568,340.237 c 0,0 -2.35,-1.067 -3.42,-0.286 -1.068,0.786 -0.922,1.923 -1.85,1.852 0,0 3.56,0.783 4.343,-0.144 0.783,-0.922 0.927,-1.21 0.927,-1.21 m 0.432,0.772 c 0,0 -1.546,2.067 -1.011,3.278 0.533,1.212 1.677,1.315 1.407,2.204 0,0 1.53,-3.307 0.795,-4.272 -0.735,-0.96 -0.98,-1.16 -0.98,-1.16 m -2.817,-5.774 c 0,0 -2.467,0.765 -2.743,2.057 -0.283,1.294 0.584,2.052 -0.154,2.614 0,0 3.179,-1.782 3.15,-2.996 -0.03,-1.212 -0.11,-1.518 -0.11,-1.518 m 1.307,0.694 c 0,0 1.17,-2.305 0.433,-3.403 -0.735,-1.106 -1.883,-1.01 -1.77,-1.93 0,0 -0.94,3.52 -0.048,4.345 0.892,0.818 1.172,0.976 1.172,0.976 m -2.207,-0.826 c 0,0 0.056,-2.577 -1.085,-3.25 -1.14,-0.675 -2.134,-0.095 -2.432,-0.976 0,0 0.682,3.583 1.844,3.941 1.16,0.35 1.48,0.37 1.48,0.37 m 4.408,4.21 c 0,0 2.704,-0.929 2.92,1.993 0.213,2.92 -0.144,1.924 -0.144,1.924 0,0 -1.424,-3.134 -2.99,-3.633 z"
       id="path146"
       inkscape:connector-curvature="0"
       style="fill:#00a651;stroke:#000000;stroke-width:0.51899999" />
    <path
       d="m 442.954,341.268 c 0,0.062 0.283,2.27 0.283,2.27 l 0.38,-0.05 -0.286,-2.208 c 0.01,0.003 0.925,-4.854 0.925,-4.854 l -0.377,-0.069 -0.925,4.91 z"
       id="path148"
       inkscape:connector-curvature="0" />
    <path
       d="m 440.494,340.55 -0.126,0.36 c 1.293,0.455 3.099,-0.967 3.174,-1.027 l -0.24,-0.297 c -0.016,0.011 -1.713,1.352 -2.808,0.964 z m 3.39,-2.85 -6.052,-3.061 0.241,-0.477 6.052,3.061 z"
       id="path150"
       inkscape:connector-curvature="0" />
    <path
       d="m 439.496,337.013 -0.377,-0.378 1.211,-1.21 0.377,0.378 z m 2.119,-0.588 -1.282,-2.78 0.485,-0.223 1.281,2.779 z m 1.791,3.4 0.034,0.534 c 1.646,-0.111 2.048,0.955 2.05,0.967 l 0.526,-0.11 c -0.062,-0.304 -0.721,-1.518 -2.61,-1.391 z"
       id="path152"
       inkscape:connector-curvature="0" />
    <path
       d="m 471.17,341.055 c 2.018,-1.13 2.423,-5.091 2.423,-5.091 -0.483,1.457 -4.196,2.909 -4.196,2.909 2.744,-1.7 6.052,-9.364 6.052,-9.364 -0.887,2.745 -8.07,5.004 -12.673,7.587 -4.603,2.581 -2.18,10.011 -2.18,10.011 -1.29,-0.889 -3.794,-4.842 -4.276,-8.317 -0.488,-3.47 -1.86,-4.84 -5.007,-5.245 -3.15,-0.404 -5.006,3.146 -5.006,3.146 l -4.681,2.425 4.76,0.16 c 0,0 3.395,1.132 3.395,3.796 0,2.665 -2.987,13.32 1.934,19.295 3.426,4.152 16.067,6.538 16.067,6.538"
       id="path154"
       inkscape:connector-curvature="0"
       style="fill:#ffffff;stroke:#000000;stroke-width:0.66500002" />
    <path
       d="m 461.89,349.286 c 0,0 0.968,-4.764 4.116,-4.602 3.148,0.161 4.036,-3.55 5.893,-4.117 1.856,-0.564 11.463,-3.146 12.513,-7.75 0,0 -0.888,7.59 -9.685,11.384 0,0 7.1,-2.342 7.91,-3.876 0,0 -3.15,6.781 -10.819,7.83 0,0 7.185,-0.564 8.235,-2.5 0,0 -3.23,4.277 -8.556,4.844 0,0 4.923,2.017 6.216,0.321 0,0 -2.665,3.148 -5.976,3.389 l 0.89,0.243 c 0,0 -3.148,3.715 -6.62,1.211 -3.47,-2.504 -3.553,0.648 -3.553,0.648"
       id="path156"
       inkscape:connector-curvature="0"
       style="fill:#ffffff;stroke:#000000;stroke-width:0.66500002" />
    <path
       d="m 469.056,356.466 c 0,0 4.055,6.783 4.46,10.415 0,0 7.75,8.559 10.656,9.04 0,0 -1.373,0.563 -3.877,-1.533 0,0 2.1,2.18 2.504,2.26 0.402,0.084 -1.696,-0.161 -2.02,-0.728 0,0 0.89,1.295 1.453,1.456 0.567,0.162 -0.564,-0.16 -0.564,-0.16 0,0 -1.051,-0.163 -1.535,-0.567 -0.485,-0.402 -0.162,1.047 -0.162,1.047 0,0 -1.21,-0.323 -1.613,-0.726 -0.404,-0.402 0.162,0.89 0.162,0.89 l -1.049,-0.243 -0.726,0.483 c 0,0 -0.081,0.485 -0.569,0.081 -0.481,-0.4 -1.37,0 -1.37,0 0,0 -0.648,0.567 -0.97,0.162 -0.32,-0.403 -1.544,1.553 -1.544,1.553 l -5.083,-12.27"
       id="path158"
       inkscape:connector-curvature="0"
       style="fill:#ffffff;stroke:#000000;stroke-width:0.66500002" />
    <path
       d="m 473.88,378.724 -6.424,-12.228 0.674,-0.354 6.425,12.228 z m 5.613,-0.824 -10.991,-12.306 0.57,-0.51 10.992,12.306 z m 2.507,-1.085 -12.542,-11.688 0.52,-0.56 12.543,11.69 z"
       id="path160"
       inkscape:connector-curvature="0" />
    <g
       transform="matrix(0.66486,0,0,0.66486,-96.907,97.536)"
       id="g172">
      <path
         d="m 823.44,360.84 c 0,0 -1.231,-2.204 -2.303,-1.376 -1.069,0.825 -1.685,0.976 -1.87,0.919 0,0 1.076,0.059 1.687,-0.522 0.613,-0.586 1.656,-0.216 2.486,0.979 z m -6.66,-1.01 c 0,0 0.676,1.398 0.685,1.422 -0.068,0.004 -0.763,2.257 -0.763,2.257 l 0.553,0.17 0.75,-2.453 c -0.013,-0.213 -0.703,-1.642 -0.703,-1.642 z"
         id="path162"
         inkscape:connector-curvature="0" />
      <path
         d="m 823.16,360.5 c 0,0 -0.918,1.075 -2.176,0.766 l -1.252,-0.306 c 0,0 1.066,0.06 1.776,0.093 0.7,0.029 1.618,-0.337 1.652,-0.553 z"
         id="path164"
         inkscape:connector-curvature="0" />
      <path
         d="m 822.86,360.72 c 0,0 -1.132,-1.195 -1.9,-0.858 0,0 1.35,-0.43 2.116,0.73 z"
         id="path166"
         inkscape:connector-curvature="0" />
      <path
         d="m 822.67,360.5 c 0,0 -1.286,0.887 -2.699,-0.09 l -0.086,-0.066 0.183,-0.059 c 10e-4,10e-4 1.778,0.735 2.602,0.215 z"
         id="path168"
         inkscape:connector-curvature="0" />
      <circle
         r="0.38299999"
         cy="360.284"
         cx="821.573"
         id="circle170" />
    </g>
    <path
       d="m 450.015,359.625 c 0,0 -0.662,1.219 -0.316,1.953 0.351,0.734 1.922,1.114 2.13,2.092 0.212,0.98 0.736,0.978 1.469,0.842 0.735,-0.141 0.874,-0.175 0.874,-0.175 0,0 -3.075,-1.645 -3.88,-4.296 z"
       id="path174"
       inkscape:connector-curvature="0" />
    <g
       id="g212">
      <g
         id="g184"
         style="fill:#964b36;stroke:#000000;stroke-width:0.47999999">
        <path
           d="m 549.398,334.792 c 0,0 5.597,-7.38 10.56,-5.441 4.963,1.94 8.188,2.873 8.188,2.873 0,0 0.094,4.97 -2.545,4.97 -2.633,0 -5.157,-4.964 -7.557,-3.489 -2.404,1.473 -4.378,3.49 -4.533,4.187 -0.155,0.696 -6.357,0.852 -4.112,-3.1 z"
           id="path176"
           inkscape:connector-curvature="0"
           style="stroke-width:0.31900001" />
        <path
           d="m 528.156,370.375 c 0,0 -1.548,1.626 -0.85,2.016 0.7,0.386 2.092,-0.082 2.092,-0.622 0,-0.546 -0.928,-1.548 -1.242,-1.394 z"
           id="path178"
           inkscape:connector-curvature="0"
           style="stroke-width:0.51899999" />
        <path
           d="m 526.92,371.924 c 0,0 -2.867,-1.632 -5.116,2.245 -2.252,3.876 -4.11,10.157 -5.428,11.01 -1.317,0.853 12.793,-6.202 12.948,-9.147 0,0 0.929,-3.8 -0.543,-3.725 -1.473,0.082 -1.551,0.237 -1.862,-0.383 z"
           id="path180"
           inkscape:connector-curvature="0"
           style="stroke-width:0.51899999" />
        <path
           d="m 527.305,372.39 c 0,0 -2.945,0.693 -3.565,4.878 -0.62,4.19 -4.73,6.36 -4.961,6.513 m 49.375,-51.555 c 0,0 -4.48,1.558 -3.706,4.66"
           id="path182"
           inkscape:connector-curvature="0"
           style="stroke-width:0.31900001" />
      </g>
      <path
         d="m 533.74,341.3 c 0,0 0.155,-10.62 8.833,-10.156 1.644,0.152 0.86,2.092 0.86,2.092 0,0 1.877,-1.315 2.735,0.774 0,0 2.737,-1.239 3.048,1.476 0,0 2.972,-0.386 2.58,2.015 0,0 2.032,-0.464 1.956,1.241 0,0 2.344,-0.93 2.108,1.473 0,0 2.58,-1.706 2.192,1.394 0,0 2.658,-1.858 3.592,1.242 0.938,3.1 -2.656,9.69 -6.174,11.395"
         id="path186"
         inkscape:connector-curvature="0"
         style="fill:#fff200;stroke:#000000;stroke-width:0.31900001" />
      <path
         d="m 557.855,341.946 c 0.012,0.083 1.17,8.31 -3.495,11.32 l 0.164,0.26 c 4.834,-3.12 3.645,-11.54 3.635,-11.625 z m -5.618,9.009 0.216,0.22 c 2.954,-2.876 3.59,-10.623 3.612,-10.95 l -0.302,-0.026 c -0.007,0.081 -0.65,7.961 -3.526,10.755 z m -2.759,-1.842 0.305,0.025 c 0.38,-4.784 4.12,-10.256 4.159,-10.312 l -0.252,-0.171 c -0.04,0.054 -3.824,5.594 -4.212,10.458 z m -2.168,-1.396 0.305,0.03 c 0.533,-5.77 4.344,-10.103 4.381,-10.144 l -0.226,-0.205 c -0.04,0.043 -3.917,4.447 -4.46,10.32 z m -3.024,-1.928 0.304,0.01 c 0.303,-6.813 4.774,-10.158 4.818,-10.19 l -0.18,-0.248 c -0.044,0.034 -4.633,3.458 -4.942,10.428 z m -2.793,-1.696 0.307,-0.01 c -0.223,-6.2 4.545,-9.914 4.594,-9.952 l -0.185,-0.242 c -0.049,0.04 -4.942,3.843 -4.716,10.204 z m -5.033,-2.267 0.302,0.038 c 0.831,-6.713 6.806,-8.46 6.866,-8.477 l -0.083,-0.294 c -0.06,0.016 -6.232,1.814 -7.085,8.733 z"
         id="path188"
         inkscape:connector-curvature="0" />
      <path
         d="m 528.621,354.173 c 0,0 -1.47,-9.849 4.42,-12.947 0,0 1.089,-0.233 1.706,1.163 0,0 3.103,-1.317 3.181,1.315 0,0 1.549,-1.24 1.937,0.465 0,0 3.334,-0.696 2.714,1.784 0,0 2.79,-0.775 2.557,1.626 0,0 2.792,-1.007 2.325,1.086 0,0 2.944,-0.695 2.249,1.707 0,0 3.645,-0.386 2.56,2.17 0,0 2.713,-0.696 2.091,1.397 0,0 3.567,0.622 1.937,2.87 -1.627,2.245 -5.737,5.657 -9.764,7.13"
         id="path190"
         inkscape:connector-curvature="0"
         style="fill:#00a651;stroke:#000000;stroke-width:0.31900001" />
      <path
         d="m 525.443,364.092 c 0,0 -2.404,-8.214 2.174,-10.311 0,0 0.848,-0.234 1.003,0.622 0,0 1.01,-1.32 1.787,-0.155 0,0 2.323,-1.086 2.869,0.619 0,0 1.548,-1.32 2.325,0.617 0,0 1.473,-0.617 1.473,0.931 0,0 2.015,-0.852 2.015,1.009 0,0 1.935,-0.775 1.55,1.317 0,0 2.946,0.465 2.093,1.86 0,0 2.64,0.696 1.628,1.784 0,0 2.867,-0.31 1.317,1.627 0,0 2.171,-0.695 0.932,1.71 -1.242,2.4 -5.116,5.036 -7.83,5.346"
         id="path192"
         inkscape:connector-curvature="0"
         style="fill:#00a651;stroke:#000000;stroke-width:0.31900001" />
      <path
         d="m 528.309,370.601 c 0,0 -5.116,-4.96 -2.71,-6.433 0,0 1.082,0.308 1.47,1.394 0,0 1.24,-1.782 1.94,0.077 0,0 1.862,-0.62 1.862,0.624 l 1.47,1.086 c 0,0 1.708,-0.157 1.399,0.93 0,0 1.86,-0.235 1.781,0.774 0,0 1.63,0.076 1.476,1.16 0,0 2.787,0.465 1.548,1.864 0,0 -4.884,1.005 -8.294,-0.389 0,0 -1.787,-0.622 -1.942,-1.087 z"
         id="path194"
         inkscape:connector-curvature="0"
         style="fill:#00a651;stroke:#000000;stroke-width:0.31900001" />
      <path
         d="m 545.855,362.404 0.109,0.284 c 3.03,-1.168 8.296,-8.354 8.52,-8.66 l -0.247,-0.182 c -0.055,0.077 -5.434,7.422 -8.382,8.557 z m -1.722,-1.31 0.148,0.266 c 2.638,-1.472 7.89,-8.428 8.111,-8.724 l -0.243,-0.184 c -0.053,0.074 -5.435,7.203 -8.017,8.641 z m -1.496,-0.612 0.197,0.234 c 2.785,-2.312 6.842,-9.95 7.015,-10.273 l -0.27,-0.144 c -0.04,0.078 -4.202,7.91 -6.942,10.184 z m -1.37,-1.762 0.303,0.043 c 0.53,-3.861 5.953,-9.938 6.006,-9.998 l -0.227,-0.204 c -0.224,0.252 -5.541,6.207 -6.082,10.16 z m -10.857,-4.694 0.305,-0.027 c -0.455,-5.453 4.11,-11.46 4.156,-11.52 l -0.242,-0.184 c -0.049,0.059 -4.683,6.158 -4.22,11.731 z m 2.872,0.479 0.303,-0.053 c -0.755,-4.372 4.408,-10.59 4.462,-10.65 l -0.234,-0.2 c -0.217,0.26 -5.308,6.387 -4.53,10.903 z m 4.415,1.609 0.305,-0.009 c -0.15,-4.991 4.639,-9.994 4.688,-10.045 l -0.219,-0.213 c -0.049,0.05 -4.93,5.147 -4.774,10.267 z m -10.532,9.042 0.287,-0.107 c -1.74,-4.611 1.28,-10.517 1.31,-10.574 l -0.275,-0.142 c -0.03,0.061 -3.11,6.083 -1.322,10.823 z m 2.008,0.299 0.291,-0.094 c -1.516,-4.697 1.054,-10.993 1.082,-11.055 l -0.285,-0.117 c -0.024,0.061 -2.636,6.463 -1.088,11.266 z m 8.311,4.695 0.105,0.288 c 4.946,-1.78 8.18,-6.29 8.213,-6.333 l -0.25,-0.179 c -0.03,0.045 -3.208,4.48 -8.068,6.223 z m -1.017,-1.078 0.124,0.28 c 3.946,-1.78 7.624,-6.745 7.659,-6.797 l -0.245,-0.178 c -0.038,0.05 -3.667,4.948 -7.538,6.695 z m -0.957,-0.372 0.178,0.248 c 3.086,-2.236 7.05,-7.966 7.092,-8.025 l -0.251,-0.17 c -0.04,0.058 -3.974,5.742 -7.02,7.946 z m -4.947,-2.879 0.303,-0.044 c -0.682,-4.929 2.508,-10.776 2.543,-10.834 l -0.268,-0.148 c -0.035,0.06 -3.274,5.996 -2.578,11.026 z m 2.147,1.336 0.206,0.227 c 3.183,-2.874 4.268,-10.62 4.312,-10.947 l -0.304,-0.042 c -0.01,0.079 -1.112,7.965 -4.214,10.763 z"
         id="path196"
         inkscape:connector-curvature="0" />
      <path
         d="m 534.891,368.075 0.179,0.247 c 4.493,-3.25 5.711,-9.49 5.721,-9.55 l -0.298,-0.058 c -0.012,0.06 -1.208,6.18 -5.602,9.361 z m 0.519,-13.45 c 0,0.291 0.014,0.581 0.041,0.876 -0.005,-0.025 -3.407,11.025 -3.407,11.025 l 0.29,0.09 3.417,-11.086 c -0.527,-5.359 4.186,-11.208 4.233,-11.266 l -0.236,-0.191 c -0.047,0.053 -4.338,5.38 -4.338,10.552 z"
         id="path198"
         inkscape:connector-curvature="0" />
      <path
         d="m 538.973,357.324 c -0.044,0.155 -1.082,7.724 -5.164,10.517 l 0.173,0.252 c 4.198,-2.871 5.218,-10.335 5.26,-10.65 1.811,-2.156 5.986,-9.716 6.029,-9.792 l -0.268,-0.147 c -0.043,0.075 -4.201,7.612 -6.03,9.82 z m -12.053,8.271 c 0.03,0.159 0.712,3.92 1.493,5.247 l 0.263,-0.154 c -0.755,-1.281 -1.446,-5.107 -1.453,-5.146 l -0.304,0.053 z m 1.934,0.047 c 0.033,1.872 0.042,4.944 -0.062,5.217 l 0.284,0.111 c 0.157,-0.393 0.097,-4.51 0.085,-5.33 z"
         id="path200"
         inkscape:connector-curvature="0" />
      <path
         d="m 529.027,371.007 0.278,0.124 c 1.31,-2.852 1.714,-4.82 1.719,-4.838 l -0.3,-0.06 c -0.005,0.016 -0.4,1.956 -1.697,4.774 z"
         id="path202"
         inkscape:connector-curvature="0" />
      <path
         d="m 529.32,371.093 0.154,0.264 c 2.432,-1.413 2.996,-3.87 3.016,-3.974 l -0.298,-0.067 c -0.007,0.025 -0.559,2.435 -2.873,3.777 z"
         id="path204"
         inkscape:connector-curvature="0" />
      <path
         d="m 529.772,371.306 0.03,0.303 c 2.383,-0.238 4.006,-3.133 4.075,-3.255 l -0.269,-0.148 c -0.015,0.03 -1.614,2.878 -3.836,3.1 z"
         id="path206"
         inkscape:connector-curvature="0" />
      <path
         d="m 530.011,371.459 0.018,0.305 c 3.826,-0.236 5.548,-2.522 5.617,-2.619 l -0.247,-0.18 c -0.016,0.02 -1.713,2.27 -5.388,2.494 z"
         id="path208"
         inkscape:connector-curvature="0" />
      <path
         d="m 530.284,371.539 -0.063,0.298 c 0.206,0.047 5.08,1.08 6.75,-1.46 l -0.256,-0.167 c -1.552,2.365 -6.384,1.338 -6.431,1.329 z"
         id="path210"
         inkscape:connector-curvature="0" />
    </g>
    <path
       d="m 420.887,193.236 v 136.357 c 0,44.599 80.581,71.08 80.581,71.08 0,0 80.582,-26.483 80.582,-71.08 V 193.236 Z"
       id="path214"
       inkscape:connector-curvature="0"
       style="fill:none;stroke:#000000;stroke-width:2.79200006" />
  </g>
  <path
     d="M 0,0 V 8.0113 H 11.934533 V 0 Z"
     id="path218"
     inkscape:connector-curvature="0"
     style="fill:#002868;stroke-width:0.03333334" />
  <path
     style="color:#000000;font-weight:400;line-height:normal;font-family:sans-serif;text-indent:0;text-align:start;text-decoration:none;text-decoration-line:none;text-decoration-style:solid;text-decoration-color:#000000;text-transform:none;white-space:normal;overflow:visible;isolation:auto;mix-blend-mode:normal;fill:#ffffff;stroke-width:0.03333334"
     d="M 0,0 V 0.89573 L 4.633,4.0056 0,7.1156 v 0.89567 h 1.3343333 l 4.633,-3.10987 4.6329667,3.1099 h 1.334233 V 7.11557 L 7.3016,4.0056 11.934533,0.8957 V 0 h -1.3342 L 5.9673333,3.11 1.3343333,0 Z"
     font-weight="400"
     overflow="visible"
     id="path220"
     inkscape:connector-curvature="0" />
  <path
     d="M 0,0 V 0.59713 L 5.0777194,4.00566 0,7.41414 V 8.01127 H 0.88950215 L 5.9672216,4.60275 11.045001,8.01127 h 0.889502 V 7.41406 L 6.8567835,4.00562 11.934503,0.59713 V 0 H 11.045001 L 5.9672216,3.40844 0.88950215,0 Z"
     style="color:#000000;font-weight:400;line-height:normal;font-family:sans-serif;text-indent:0;text-align:start;text-decoration:none;text-decoration-line:none;text-decoration-style:solid;text-decoration-color:#000000;text-transform:none;white-space:normal;overflow:visible;isolation:auto;mix-blend-mode:normal;fill:#ce1126;stroke-width:0.03466453"
     font-weight="400"
     overflow="visible"
     id="path222"
     inkscape:connector-curvature="0" />
  <path
     style="color:#000000;font-weight:400;line-height:normal;font-family:sans-serif;text-indent:0;text-align:start;text-decoration:none;text-decoration-line:none;text-decoration-style:solid;text-decoration-color:#000000;text-transform:none;white-space:normal;overflow:visible;isolation:auto;mix-blend-mode:normal;fill:#ffffff;stroke-width:0.03333334"
     d="M 4.9727333,0 V 2.67043 H 0 V 5.34087 H 4.9727333 V 8.0113 h 1.9891 V 5.34087 H 11.934533 V 2.67043 H 6.9618333 V 0 Z"
     font-weight="400"
     overflow="visible"
     id="path224"
     inkscape:connector-curvature="0" />
  <path
     style="color:#000000;font-weight:400;line-height:normal;font-family:sans-serif;text-indent:0;text-align:start;text-decoration:none;text-decoration-line:none;text-decoration-style:solid;text-decoration-color:#000000;text-transform:none;white-space:normal;overflow:visible;isolation:auto;mix-blend-mode:normal;fill:#ce1126;stroke-width:0.03333334"
     d="M 5.3705333,0 V 3.2045 H 0 V 4.8068 H 5.3705333 V 8.0113 H 6.564 V 4.8068 h 5.370533 V 3.2045 H 6.564 V 0 Z"
     font-weight="400"
     overflow="visible"
     id="path226"
     inkscape:connector-curvature="0" />
</svg>
