<?xml version="1.0" encoding="UTF-8" standalone="no"?>
<svg
   xmlns:dc="http://purl.org/dc/elements/1.1/"
   xmlns:cc="http://creativecommons.org/ns#"
   xmlns:rdf="http://www.w3.org/1999/02/22-rdf-syntax-ns#"
   xmlns:svg="http://www.w3.org/2000/svg"
   xmlns="http://www.w3.org/2000/svg"
   xmlns:sodipodi="http://sodipodi.sourceforge.net/DTD/sodipodi-0.dtd"
   xmlns:inkscape="http://www.inkscape.org/namespaces/inkscape"
   height="16"
   width="21.333437"
   viewBox="0 0 21.333437 16"
   version="1.1"
   id="svg13"
   sodipodi:docname="fm.svg"
   inkscape:version="0.92.1 r">
  <metadata
     id="metadata17">
    <rdf:RDF>
      <cc:Work
         rdf:about="">
        <dc:format>image/svg+xml</dc:format>
        <dc:type
           rdf:resource="http://purl.org/dc/dcmitype/StillImage" />
        <dc:title></dc:title>
      </cc:Work>
    </rdf:RDF>
  </metadata>
  <sodipodi:namedview
     pagecolor="#ffffff"
     bordercolor="#666666"
     borderopacity="1"
     objecttolerance="10"
     gridtolerance="10"
     guidetolerance="10"
     inkscape:pageopacity="0"
     inkscape:pageshadow="2"
     inkscape:window-width="1920"
     inkscape:window-height="1024"
     id="namedview15"
     showgrid="false"
     fit-margin-top="0"
     fit-margin-left="0"
     fit-margin-right="0"
     fit-margin-bottom="0"
     inkscape:zoom="0.49166667"
     inkscape:cx="320.20302"
     inkscape:cy="241.28"
     inkscape:window-x="0"
     inkscape:window-y="0"
     inkscape:window-maximized="1"
     inkscape:current-layer="svg13" />
  <defs
     id="defs5">
    <clipPath
       id="a">
      <path
         d="m -81.333,0 h 682.67 v 512 h -682.67 z"
         id="path2"
         inkscape:connector-curvature="0"
         style="fill-opacity:0.67000002" />
    </clipPath>
  </defs>
  <g
     clip-path="url(#a)"
     transform="matrix(0.03125,0,0,0.03125,2.5416563,0)"
     id="g11"
     style="fill-rule:evenodd;stroke-width:1.00000003pt">
    <path
       d="M -252,0 H 772 V 512 H -252 Z"
       id="path7"
       inkscape:connector-curvature="0"
       style="fill:#6797d6" />
    <path
       d="m 259.787,122.985 -32.44,22.214 12.433,-35.9 -32.475,-22.177 40.122,0.038 12.366,-35.92 12.366,35.92 40.12,-0.026 -32.479,22.166 12.43,35.905 m -32.443,244.847 -32.44,-22.214 12.433,35.9 -32.475,22.176 40.122,-0.038 12.366,35.92 12.366,-35.92 40.12,0.027 -32.48,-22.166 12.43,-35.905 m -188.384,-92.465 -24.53,30.73 1.395,-37.967 -37.54,-11.713 38.38,-11.695 1.324,-37.966 22.328,30.735 38.36,-11.755 -24.58,30.694 22.383,30.7 m 274.28,-11.763 24.53,30.73 -1.395,-37.967 37.54,-11.713 -38.38,-11.695 -1.324,-37.966 -22.328,30.735 -38.36,-11.755 24.58,30.694 -22.383,30.7"
       id="path9"
       inkscape:connector-curvature="0"
       style="fill:#ffffff" />
  </g>
</svg>
