<?xml version="1.0" encoding="UTF-8" standalone="no"?>
<svg
   xmlns:dc="http://purl.org/dc/elements/1.1/"
   xmlns:cc="http://creativecommons.org/ns#"
   xmlns:rdf="http://www.w3.org/1999/02/22-rdf-syntax-ns#"
   xmlns:svg="http://www.w3.org/2000/svg"
   xmlns="http://www.w3.org/2000/svg"
   xmlns:xlink="http://www.w3.org/1999/xlink"
   xmlns:sodipodi="http://sodipodi.sourceforge.net/DTD/sodipodi-0.dtd"
   xmlns:inkscape="http://www.inkscape.org/namespaces/inkscape"
   height="16"
   width="21.333334"
   viewBox="0 0 21.333334 16"
   version="1.1"
   id="svg265"
   sodipodi:docname="gb-nir.svg"
   inkscape:version="0.92.1 r">
  <metadata
     id="metadata271">
    <rdf:RDF>
      <cc:Work
         rdf:about="">
        <dc:format>image/svg+xml</dc:format>
        <dc:type
           rdf:resource="http://purl.org/dc/dcmitype/StillImage" />
        <dc:title></dc:title>
      </cc:Work>
    </rdf:RDF>
  </metadata>
  <defs
     id="defs269" />
  <sodipodi:namedview
     pagecolor="#ffffff"
     bordercolor="#666666"
     borderopacity="1"
     objecttolerance="10"
     gridtolerance="10"
     guidetolerance="10"
     inkscape:pageopacity="0"
     inkscape:pageshadow="2"
     inkscape:window-width="1920"
     inkscape:window-height="1024"
     id="namedview267"
     showgrid="false"
     fit-margin-top="0"
     fit-margin-left="0"
     fit-margin-right="0"
     fit-margin-bottom="0"
     inkscape:zoom="0.49166667"
     inkscape:cx="320"
     inkscape:cy="240"
     inkscape:window-x="0"
     inkscape:window-y="0"
     inkscape:window-maximized="1"
     inkscape:current-layer="svg265" />
  <rect
     height="16"
     width="21.333334"
     rx="0"
     ry="0"
     id="rect2"
     x="0"
     y="0"
     style="fill:#ffffff;fill-rule:evenodd;stroke-width:0.03333334" />
  <rect
     id="a"
     y="6.3999939"
     ry="0"
     rx="0"
     height="3.2"
     width="21.333334"
     x="0"
     style="fill:#cc0000;fill-rule:evenodd;stroke-width:0.03333334" />
  <use
     xlink:href="#a"
     height="300"
     width="600"
     transform="matrix(0,0.75,-1,0,18.66667,0)"
     id="use5"
     x="0"
     y="0" />
  <path
     d="m 11.840167,4.887 c 0.102666,-0.16067 0.0413,-0.26443 -0.114,-0.2965 0,0 -0.495567,0.15887 -1.0308,0.1763 C 10.160167,4.7842 9.5243,4.6322 9.5243,4.6322 9.4102667,4.7038 9.4381,4.87357 9.494633,4.97957 c 0,0 0.5603,0.18613 1.198134,0.16786 0.4051,-0.0116 0.789,-0.115 1.004333,-0.1835 0.123733,-0.0393 0.143133,-0.0751 0.143067,-0.0769 z"
     id="path7"
     inkscape:connector-curvature="0"
     style="fill:#ebeae3;fill-rule:evenodd;stroke:#000000;stroke-width:0.0174" />
  <path
     d="M 10.666667,11.9184 9.6381,9.78153 7.2732333,9.9592 8.6095,8 7.2732333,6.0408 9.6381,6.21847 10.666667,4.0816 11.695233,6.21847 14.0601,6.0408 12.723833,8 14.0601,9.9592 11.695233,9.78153 Z"
     id="path9"
     inkscape:connector-curvature="0"
     style="fill:#ffffff;stroke:#161111;stroke-width:0.05333333" />
  <path
     d="m 10.651333,4.07427 c 1.2921,0.213 1.245934,0.27333 1.245934,0.27333 L 12.2345,3.33943 c 0,0 0.0355,-0.19876 -0.0568,-0.31946 -0.0923,-0.12067 -0.351433,-0.0532 -0.351433,-0.0532 0,0 -0.0355,-0.1633 -0.149067,-0.20233 -0.1136,-0.0391 -0.536,0.15263 -0.667367,0.19523 -0.131333,0.0426 -0.1988,0.0852 -0.383366,0.0817 C 10.441867,3.03737 10.111733,2.8745 10.0514,2.84254 9.991067,2.81064 9.9023,2.77864 9.8206667,2.78224 c -0.081667,0.004 -0.1668334,0.0249 -0.2094334,0.0817 -0.0426,0.0568 -0.0426,0.12777 -0.0426,0.12777 0,0 -0.067467,-0.0426 -0.1739333,-0.0426 -0.1065,0 -0.1668667,0.0142 -0.2165667,0.071 -0.049667,0.0568 -0.1135666,0.21653 -0.1135666,0.21653 l 0.1206666,0.27333 0.0071,0.37627 0.2520334,0.3976 L 10.6513,4.07441 Z"
     id="path11"
     inkscape:connector-curvature="0"
     style="fill:#b02320;fill-rule:evenodd;stroke:#000000;stroke-width:0.04346667" />
  <path
     d="m 11.8558,4.64383 c 0,0 0.06507,0.0776 0.06257,0.1051 -0.0025,0.0275 -0.03003,0.0525 -0.03003,0.0525 0,0 0.02,0.02 0.015,0.0501 -0.005,0.03 -0.045,0.0325 -0.045,0.0325 0,0 0.0075,0.0275 -0.01753,0.0401 -0.02503,0.0125 -0.127633,0.035 -0.127633,0.035 0,0 -0.500467,-0.1426 -1.035934,-0.1426 -0.5355,0 -1.1660997,0.17267 -1.1660997,0.17267 0,0 -0.065033,-0.0225 -0.067533,-0.0651 -0.0025,-0.0426 0.0075,-0.0726 0.0075,-0.0726 0,0 -0.035633,0.004 -0.045033,-0.0275 -0.0132,-0.0437 0.005,-0.0776 0.005,-0.0776 0,0 -0.024833,0.008 0.0025,-0.0501 0.02,-0.0425 0.050033,-0.0575 0.050033,-0.0575 0,0 0.5604997,-0.2002 1.1985997,-0.20266 0.6381,-0.003 1.1936,0.20266 1.1936,0.20766 z"
     id="path13"
     inkscape:connector-curvature="0"
     style="fill:#ebeae3;fill-rule:evenodd;stroke:#000000;stroke-width:0.0174" />
  <path
     d="m 9.2076333,3.38317 c 0,0 -0.021367,-0.0727 0.025633,-0.13674 0.047,-0.0641 0.1324666,-0.0598 0.1581333,-0.047 0.025633,0.0128 0.021333,0.0427 0.055533,0.0513 0.0342,0.009 0.059833,-0.0171 0.059833,-0.0171"
     id="path15"
     inkscape:connector-curvature="0"
     style="fill:none;stroke:#000000;stroke-width:0.03823333" />
  <path
     d="M 12.327467,3.55327 12.1334,3.9548 12.0571,3.9682 c 0,0 -0.04653,-0.028 -0.179333,-0.0187 -0.09503,0.007 -0.123134,0.0308 -0.123134,0.0308 L 11.9273,3.5801 c 0,0 0.01343,0.086 0.03343,0.13654 0.02543,0.0642 0.1218,0.12446 0.1218,0.12446 0,0 0.01333,-0.0768 -0.01203,-0.17 C 12.0424,3.56807 11.97683,3.42887 11.97683,3.42887 l 0.350667,0.12447 z"
     id="path17"
     inkscape:connector-curvature="0"
     style="fill:#ffcc00;fill-opacity:0.94100001;fill-rule:evenodd;stroke:#000000;stroke-width:0.04" />
  <path
     d="m 10.549733,2.30537 h 0.2172 V 3.2285 h -0.2172 z"
     id="path19"
     inkscape:connector-curvature="0"
     style="fill:#121116;stroke:#121116;stroke-width:0.039;stroke-linejoin:round" />
  <path
     d="m 9.2186667,4.00783 0.1395,0.2985 c 0,0 0.5936666,-0.23143 1.2944333,-0.2271 1.051133,0.006 1.349633,0.21734 1.349633,0.21734 l 0.1557,-0.36984 -0.116766,0.0681 L 11.9211,4.06943 11.784867,4.12133 11.6194,4.10833 11.4734,4.0013 11.3988,3.84556 11.2755,3.95913 11.058167,4.00783 10.844033,3.95263 10.655867,3.7158 c 0,0 -0.140167,0.26326 -0.317967,0.279 -0.256267,0.0227 -0.4055,-0.12327 -0.4055,-0.12327 0,0 -0.0953,0.2141 -0.2530667,0.25303 -0.2498,0.0617 -0.4574333,-0.1168 -0.4606666,-0.1168 z"
     id="path21"
     inkscape:connector-curvature="0"
     style="fill:#f6ca1f;fill-rule:evenodd;stroke:#000000;stroke-width:0.03303333" />
  <g
     id="g157"
     transform="scale(0.03333333)"
     style="stroke-width:2.24300003">
    <path
       d="m 348.447,65.647 c 0,1.881 -1.502,3.407 -3.358,3.411 -1.856,0.004 -3.365,-1.516 -3.372,-3.398 -0.007,-1.881 1.49,-3.413 3.345,-3.424 1.856,-0.012 3.37,1.503 3.385,3.384"
       id="path23"
       inkscape:connector-curvature="0"
       style="fill:#eeeeee;stroke:#1e1e1e;stroke-width:1.16983664;stroke-linejoin:round" />
    <path
       d="m 343.515,67.399 c 0,0 2.72,-0.047 2.996,-1.153 0.277,-1.106 -0.184,-2.535 -0.184,-2.535 0,0 1.29,1.429 0.922,2.535 -0.37,1.106 -0.73,1.392 -1.66,1.614 -0.63,0.15 -1.567,-0.093 -2.074,-0.461 z"
       id="path25"
       inkscape:connector-curvature="0"
       style="fill:#a3afb8;fill-rule:evenodd" />
    <path
       d="m 340.272,69.469 c 0,1.881 -1.503,3.407 -3.359,3.411 -1.856,0.004 -3.365,-1.516 -3.372,-3.398 -0.007,-1.881 1.49,-3.414 3.345,-3.425 1.856,-0.01 3.37,1.503 3.385,3.385"
       id="path27"
       inkscape:connector-curvature="0"
       style="fill:#eeeeee;stroke:#1e1e1e;stroke-width:1.16983664;stroke-linejoin:round" />
    <path
       d="m 335.339,71.22 c 0,0 2.72,-0.046 2.996,-1.152 0.277,-1.107 -0.184,-2.536 -0.184,-2.536 0,0 1.29,1.43 0.922,2.536 -0.369,1.106 -0.73,1.392 -1.66,1.613 -0.629,0.15 -1.567,-0.092 -2.074,-0.46 z"
       id="path29"
       inkscape:connector-curvature="0"
       style="fill:#a3afb8;fill-rule:evenodd" />
    <path
       d="m 357.94,63.406 c 0,1.88 -1.503,3.407 -3.36,3.41 -1.855,0.005 -3.364,-1.516 -3.371,-3.397 -0.008,-1.881 1.49,-3.414 3.345,-3.425 1.856,-0.01 3.37,1.503 3.385,3.385"
       id="path31"
       inkscape:connector-curvature="0"
       style="fill:#eeeeee;stroke:#1e1e1e;stroke-width:1.16983664;stroke-linejoin:round" />
    <path
       d="m 353.007,65.157 c 0,0 2.72,-0.046 2.996,-1.152 0.277,-1.107 -0.184,-2.536 -0.184,-2.536 0,0 1.29,1.43 0.922,2.536 -0.37,1.106 -0.73,1.392 -1.66,1.613 -0.63,0.15 -1.567,-0.092 -2.074,-0.46 z"
       id="path33"
       inkscape:connector-curvature="0"
       style="fill:#a3afb8;fill-rule:evenodd" />
    <path
       d="m 368.631,65.557 c 0,1.881 -1.502,3.408 -3.358,3.411 -1.856,0.004 -3.365,-1.516 -3.372,-3.398 -0.008,-1.88 1.489,-3.413 3.345,-3.424 1.856,-0.011 3.37,1.503 3.385,3.384"
       id="path35"
       inkscape:connector-curvature="0"
       style="fill:#eeeeee;stroke:#1e1e1e;stroke-width:1.16983664;stroke-linejoin:round" />
    <path
       d="m 363.698,67.309 c 0,0 2.72,-0.046 2.997,-1.153 0.277,-1.106 -0.184,-2.535 -0.184,-2.535 0,0 1.29,1.429 0.922,2.535 -0.37,1.107 -0.731,1.393 -1.66,1.614 -0.63,0.15 -1.567,-0.093 -2.075,-0.461 z"
       id="path37"
       inkscape:connector-curvature="0"
       style="fill:#a3afb8;fill-rule:evenodd" />
    <path
       d="m 376.78,72.272 c 0,1.881 -1.502,3.408 -3.358,3.411 -1.856,0.004 -3.365,-1.516 -3.372,-3.398 -0.007,-1.88 1.49,-3.413 3.345,-3.424 1.856,-0.011 3.37,1.503 3.385,3.384"
       id="path39"
       inkscape:connector-curvature="0"
       style="fill:#eeeeee;stroke:#1e1e1e;stroke-width:1.16983664;stroke-linejoin:round" />
    <path
       d="m 371.848,74.024 c 0,0 2.72,-0.046 2.996,-1.153 0.277,-1.106 -0.184,-2.535 -0.184,-2.535 0,0 1.29,1.429 0.922,2.535 -0.369,1.107 -0.73,1.393 -1.66,1.614 -0.63,0.15 -1.567,-0.092 -2.074,-0.461 z"
       id="path41"
       inkscape:connector-curvature="0"
       style="fill:#a3afb8;fill-rule:evenodd" />
    <path
       d="m 380.3,83.29 c 0,1.881 -1.502,3.407 -3.358,3.411 -1.856,0.004 -3.364,-1.516 -3.372,-3.398 -0.007,-1.881 1.49,-3.413 3.346,-3.424 1.856,-0.012 3.37,1.503 3.385,3.384"
       id="path43"
       inkscape:connector-curvature="0"
       style="fill:#eeeeee;stroke:#1e1e1e;stroke-width:1.16983664;stroke-linejoin:round" />
    <path
       d="m 375.368,85.042 c 0,0 2.72,-0.047 2.997,-1.153 0.276,-1.106 -0.185,-2.535 -0.185,-2.535 0,0 1.291,1.429 0.922,2.535 -0.369,1.106 -0.73,1.392 -1.66,1.614 -0.629,0.15 -1.567,-0.093 -2.074,-0.461 z"
       id="path45"
       inkscape:connector-curvature="0"
       style="fill:#a3afb8;fill-rule:evenodd" />
    <path
       d="m 378.997,94.438 c 0,1.881 -1.503,3.408 -3.359,3.411 -1.856,0.004 -3.364,-1.516 -3.371,-3.397 -0.008,-1.882 1.489,-3.414 3.345,-3.425 1.856,-0.011 3.37,1.503 3.385,3.384"
       id="path47"
       inkscape:connector-curvature="0"
       style="fill:#eeeeee;stroke:#1e1e1e;stroke-width:1.16983664;stroke-linejoin:round" />
    <path
       d="m 374.064,96.19 c 0,0 2.72,-0.046 2.997,-1.153 0.276,-1.106 -0.185,-2.535 -0.185,-2.535 0,0 1.291,1.429 0.922,2.535 -0.368,1.107 -0.73,1.393 -1.66,1.614 -0.629,0.15 -1.567,-0.092 -2.074,-0.461 z"
       id="path49"
       inkscape:connector-curvature="0"
       style="fill:#a3afb8;fill-rule:evenodd" />
    <path
       d="m 374.042,104.217 c 0,1.882 -1.502,3.408 -3.358,3.412 -1.856,0.003 -3.365,-1.517 -3.372,-3.398 -0.008,-1.882 1.49,-3.414 3.345,-3.425 1.856,-0.011 3.37,1.503 3.385,3.384"
       id="path51"
       inkscape:connector-curvature="0"
       style="fill:#eeeeee;stroke:#1e1e1e;stroke-width:1.16983664;stroke-linejoin:round" />
    <path
       d="m 369.11,105.969 c 0,0 2.72,-0.046 2.996,-1.153 0.277,-1.106 -0.184,-2.535 -0.184,-2.535 0,0 1.29,1.43 0.922,2.535 -0.37,1.107 -0.73,1.393 -1.66,1.614 -0.63,0.15 -1.567,-0.092 -2.074,-0.461 z"
       id="path53"
       inkscape:connector-curvature="0"
       style="fill:#a3afb8;fill-rule:evenodd" />
    <path
       d="m 332.318,72.402 c 0,1.882 -1.503,3.408 -3.359,3.412 -1.856,0.003 -3.364,-1.517 -3.372,-3.398 -0.007,-1.882 1.49,-3.414 3.346,-3.425 1.856,-0.011 3.37,1.503 3.385,3.385"
       id="path55"
       inkscape:connector-curvature="0"
       style="fill:#eeeeee;stroke:#1e1e1e;stroke-width:1.16983664;stroke-linejoin:round" />
    <path
       d="m 327.385,74.154 c 0,0 2.72,-0.046 2.997,-1.152 0.276,-1.107 -0.185,-2.536 -0.185,-2.536 0,0 1.291,1.43 0.922,2.536 -0.369,1.106 -0.73,1.392 -1.66,1.613 -0.629,0.15 -1.567,-0.092 -2.074,-0.46 z"
       id="path57"
       inkscape:connector-curvature="0"
       style="fill:#a3afb8;fill-rule:evenodd" />
    <g
       id="g63"
       style="stroke-width:2.68199992">
      <path
         d="m 322.15,71.53 c 0,1.573 -1.256,2.85 -2.808,2.853 -1.552,0.003 -2.814,-1.269 -2.82,-2.842 -0.006,-1.573 1.246,-2.855 2.798,-2.864 1.552,-0.01 2.818,1.257 2.83,2.83"
         id="path59"
         inkscape:connector-curvature="0"
         style="fill:#eeeeee;stroke:#1e1e1e;stroke-width:1.16978109;stroke-linejoin:round" />
      <path
         d="m 318.026,72.995 c 0,0 2.274,-0.039 2.506,-0.964 0.23,-0.925 -0.155,-2.12 -0.155,-2.12 0,0 1.08,1.195 0.771,2.12 -0.308,0.925 -0.61,1.164 -1.387,1.35 -0.527,0.124 -1.311,-0.078 -1.735,-0.386 z"
         id="path61"
         inkscape:connector-curvature="0"
         style="fill:#a3afb8;fill-rule:evenodd" />
    </g>
    <g
       id="g69"
       style="stroke-width:2.68199992">
      <path
         d="m 322.183,75.075 c 0,1.574 -1.256,2.85 -2.808,2.853 -1.552,0.003 -2.814,-1.268 -2.82,-2.841 -0.006,-1.574 1.245,-2.855 2.797,-2.864 1.552,-0.01 2.819,1.257 2.831,2.83"
         id="path65"
         inkscape:connector-curvature="0"
         style="fill:#eeeeee;stroke:#1e1e1e;stroke-width:1.16978109;stroke-linejoin:round" />
      <path
         d="m 318.058,76.54 c 0,0 2.275,-0.038 2.506,-0.964 0.231,-0.925 -0.154,-2.12 -0.154,-2.12 0,0 1.08,1.195 0.77,2.12 -0.307,0.926 -0.61,1.165 -1.387,1.35 -0.526,0.125 -1.31,-0.077 -1.735,-0.386 z"
         id="path67"
         inkscape:connector-curvature="0"
         style="fill:#a3afb8;fill-rule:evenodd" />
    </g>
    <g
       id="g75"
       style="stroke-width:2.68199992">
      <path
         d="m 322.379,80.29 c 0,1.574 -1.257,2.85 -2.809,2.854 -1.552,0.003 -2.813,-1.268 -2.82,-2.842 -0.006,-1.573 1.246,-2.855 2.798,-2.864 1.552,-0.01 2.819,1.257 2.83,2.83"
         id="path71"
         inkscape:connector-curvature="0"
         style="fill:#eeeeee;stroke:#1e1e1e;stroke-width:1.16978109;stroke-linejoin:round" />
      <path
         d="m 318.254,81.756 c 0,0 2.274,-0.039 2.506,-0.964 0.231,-0.925 -0.154,-2.12 -0.154,-2.12 0,0 1.079,1.195 0.77,2.12 -0.308,0.925 -0.61,1.164 -1.387,1.35 -0.527,0.125 -1.311,-0.078 -1.735,-0.386 z"
         id="path73"
         inkscape:connector-curvature="0"
         style="fill:#a3afb8;fill-rule:evenodd" />
    </g>
    <g
       id="g81"
       style="stroke-width:2.48000002">
      <path
         d="m 322.67,85.832 c 0,1.702 -1.359,3.082 -3.037,3.086 -1.679,0.003 -3.043,-1.372 -3.05,-3.073 -0.006,-1.702 1.347,-3.088 3.026,-3.098 1.678,-0.01 3.048,1.36 3.061,3.061"
         id="path77"
         inkscape:connector-curvature="0"
         style="fill:#eeeeee;stroke:#1e1e1e;stroke-width:1.16976643;stroke-linejoin:round" />
      <path
         d="m 318.21,87.417 c 0,0 2.459,-0.042 2.71,-1.043 0.25,-1 -0.168,-2.293 -0.168,-2.293 0,0 1.168,1.293 0.834,2.293 -0.333,1 -0.66,1.26 -1.5,1.46 -0.57,0.135 -1.418,-0.084 -1.877,-0.417 z"
         id="path79"
         inkscape:connector-curvature="0"
         style="fill:#a3afb8;fill-rule:evenodd" />
    </g>
    <path
       d="m 322.995,93.265 c 0,1.88 -1.503,3.407 -3.358,3.41 -1.856,0.005 -3.365,-1.516 -3.372,-3.397 -0.008,-1.881 1.489,-3.414 3.345,-3.425 1.856,-0.01 3.37,1.503 3.385,3.385"
       id="path83"
       inkscape:connector-curvature="0"
       style="fill:#eeeeee;stroke:#1e1e1e;stroke-width:1.16983664;stroke-linejoin:round" />
    <path
       d="m 318.062,95.016 c 0,0 2.72,-0.046 2.997,-1.152 0.276,-1.107 -0.184,-2.536 -0.184,-2.536 0,0 1.29,1.43 0.921,2.536 -0.368,1.106 -0.73,1.392 -1.66,1.613 -0.629,0.15 -1.566,-0.092 -2.074,-0.46 z"
       id="path85"
       inkscape:connector-curvature="0"
       style="fill:#a3afb8;fill-rule:evenodd" />
    <g
       id="g91"
       style="stroke-width:2.38800001">
      <path
         d="m 322.658,108.517 c 0,1.767 -1.411,3.2 -3.154,3.204 -1.743,0.003 -3.16,-1.424 -3.167,-3.191 -0.007,-1.767 1.399,-3.206 3.142,-3.216 1.743,-0.01 3.165,1.411 3.179,3.178"
         id="path87"
         inkscape:connector-curvature="0"
         style="fill:#eeeeee;stroke:#1e1e1e;stroke-width:1.16969013;stroke-linejoin:round" />
      <path
         d="m 318.025,110.162 c 0,0 2.555,-0.043 2.815,-1.082 0.26,-1.039 -0.174,-2.381 -0.174,-2.381 0,0 1.213,1.342 0.866,2.381 -0.346,1.04 -0.686,1.308 -1.558,1.515 -0.591,0.141 -1.472,-0.086 -1.949,-0.433 z"
         id="path89"
         inkscape:connector-curvature="0"
         style="fill:#a3afb8;fill-rule:evenodd" />
    </g>
    <path
       d="m 313.552,72.312 c 0,1.881 -1.502,3.407 -3.358,3.411 -1.856,0.004 -3.365,-1.516 -3.372,-3.398 -0.008,-1.881 1.49,-3.413 3.345,-3.424 1.856,-0.012 3.37,1.503 3.385,3.384"
       id="path93"
       inkscape:connector-curvature="0"
       style="fill:#eeeeee;stroke:#1e1e1e;stroke-width:1.16983664;stroke-linejoin:round" />
    <path
       d="m 308.62,74.064 c 0,0 2.72,-0.047 2.996,-1.153 0.277,-1.106 -0.184,-2.535 -0.184,-2.535 0,0 1.29,1.429 0.922,2.535 -0.37,1.106 -0.731,1.392 -1.66,1.614 -0.63,0.15 -1.567,-0.093 -2.074,-0.461 z"
       id="path95"
       inkscape:connector-curvature="0"
       style="fill:#a3afb8;fill-rule:evenodd" />
    <g
       id="g101">
      <path
         d="m 305.209,69.021 c 0,1.882 -1.503,3.408 -3.359,3.412 -1.856,0.004 -3.364,-1.517 -3.372,-3.398 -0.007,-1.881 1.49,-3.414 3.346,-3.425 1.856,-0.01 3.37,1.503 3.385,3.385"
         id="path97"
         inkscape:connector-curvature="0"
         style="fill:#eeeeee;stroke:#1e1e1e;stroke-width:1.16983664;stroke-linejoin:round" />
      <path
         d="m 300.276,70.773 c 0,0 2.72,-0.046 2.997,-1.152 0.276,-1.107 -0.185,-2.536 -0.185,-2.536 0,0 1.291,1.43 0.922,2.536 -0.369,1.106 -0.73,1.392 -1.66,1.613 -0.629,0.15 -1.567,-0.092 -2.074,-0.46 z"
         id="path99"
         inkscape:connector-curvature="0"
         style="fill:#a3afb8;fill-rule:evenodd" />
    </g>
    <g
       id="g107">
      <path
         d="m 297.218,65.261 c 0,1.881 -1.503,3.408 -3.359,3.411 -1.856,0.004 -3.364,-1.516 -3.372,-3.397 -0.007,-1.882 1.49,-3.414 3.346,-3.425 1.856,-0.011 3.37,1.503 3.385,3.384"
         id="path103"
         inkscape:connector-curvature="0"
         style="fill:#eeeeee;stroke:#1e1e1e;stroke-width:1.16983664;stroke-linejoin:round" />
      <path
         d="m 292.285,67.013 c 0,0 2.72,-0.046 2.997,-1.153 0.276,-1.106 -0.185,-2.535 -0.185,-2.535 0,0 1.291,1.429 0.922,2.535 -0.368,1.107 -0.73,1.393 -1.66,1.614 -0.629,0.15 -1.567,-0.092 -2.074,-0.461 z"
         id="path105"
         inkscape:connector-curvature="0"
         style="fill:#a3afb8;fill-rule:evenodd" />
    </g>
    <g
       id="g113">
      <path
         d="m 288.052,63.263 c 0,1.882 -1.503,3.408 -3.359,3.412 -1.856,0.003 -3.364,-1.517 -3.372,-3.398 -0.007,-1.882 1.49,-3.414 3.346,-3.425 1.856,-0.011 3.37,1.503 3.385,3.385"
         id="path109"
         inkscape:connector-curvature="0"
         style="fill:#eeeeee;stroke:#1e1e1e;stroke-width:1.16983664;stroke-linejoin:round" />
      <path
         d="m 283.12,65.015 c 0,0 2.72,-0.046 2.996,-1.152 0.276,-1.107 -0.185,-2.536 -0.185,-2.536 0,0 1.291,1.43 0.922,2.536 -0.368,1.106 -0.73,1.392 -1.66,1.613 -0.629,0.15 -1.567,-0.092 -2.074,-0.46 z"
         id="path111"
         inkscape:connector-curvature="0"
         style="fill:#a3afb8;fill-rule:evenodd" />
    </g>
    <g
       id="g119">
      <path
         d="m 277.24,65.849 c 0,1.881 -1.502,3.407 -3.358,3.411 -1.856,0.004 -3.364,-1.516 -3.372,-3.398 -0.007,-1.881 1.49,-3.413 3.346,-3.425 1.856,-0.01 3.37,1.503 3.385,3.385"
         id="path115"
         inkscape:connector-curvature="0"
         style="fill:#eeeeee;stroke:#1e1e1e;stroke-width:1.16983664;stroke-linejoin:round" />
      <path
         d="m 272.308,67.6 c 0,0 2.72,-0.046 2.997,-1.152 0.276,-1.106 -0.185,-2.536 -0.185,-2.536 0,0 1.291,1.43 0.922,2.536 -0.369,1.106 -0.73,1.392 -1.66,1.613 -0.629,0.15 -1.567,-0.092 -2.074,-0.46 z"
         id="path117"
         inkscape:connector-curvature="0"
         style="fill:#a3afb8;fill-rule:evenodd" />
    </g>
    <g
       id="g125">
      <path
         d="m 269.602,73.487 c 0,1.881 -1.502,3.408 -3.358,3.411 -1.856,0.004 -3.365,-1.516 -3.372,-3.398 -0.007,-1.88 1.49,-3.413 3.345,-3.424 1.856,-0.011 3.37,1.503 3.385,3.384"
         id="path121"
         inkscape:connector-curvature="0"
         style="fill:#eeeeee;stroke:#1e1e1e;stroke-width:1.16983664;stroke-linejoin:round" />
      <path
         d="m 264.67,75.239 c 0,0 2.72,-0.046 2.996,-1.153 0.277,-1.106 -0.184,-2.535 -0.184,-2.535 0,0 1.29,1.429 0.922,2.535 -0.369,1.107 -0.73,1.393 -1.66,1.614 -0.63,0.15 -1.567,-0.093 -2.074,-0.461 z"
         id="path123"
         inkscape:connector-curvature="0"
         style="fill:#a3afb8;fill-rule:evenodd" />
    </g>
    <g
       id="g131">
      <path
         d="m 266.43,84.18 c 0,1.882 -1.503,3.408 -3.359,3.412 -1.856,0.004 -3.365,-1.516 -3.372,-3.398 -0.007,-1.881 1.49,-3.414 3.345,-3.425 1.856,-0.01 3.37,1.503 3.386,3.385"
         id="path127"
         inkscape:connector-curvature="0"
         style="fill:#eeeeee;stroke:#1e1e1e;stroke-width:1.16983664;stroke-linejoin:round" />
      <path
         d="m 261.497,85.932 c 0,0 2.72,-0.046 2.996,-1.152 0.277,-1.107 -0.184,-2.536 -0.184,-2.536 0,0 1.29,1.43 0.922,2.536 -0.369,1.106 -0.73,1.392 -1.66,1.613 -0.629,0.15 -1.567,-0.092 -2.074,-0.46 z"
         id="path129"
         inkscape:connector-curvature="0"
         style="fill:#a3afb8;fill-rule:evenodd" />
    </g>
    <g
       id="g137">
      <path
         d="m 267.84,95.344 c 0,1.882 -1.503,3.408 -3.359,3.412 -1.856,0.003 -3.364,-1.517 -3.372,-3.398 -0.007,-1.882 1.49,-3.414 3.346,-3.425 1.856,-0.011 3.37,1.503 3.385,3.385"
         id="path133"
         inkscape:connector-curvature="0"
         style="fill:#eeeeee;stroke:#1e1e1e;stroke-width:1.16983664;stroke-linejoin:round" />
      <path
         d="m 262.907,97.096 c 0,0 2.72,-0.046 2.997,-1.152 0.276,-1.107 -0.185,-2.536 -0.185,-2.536 0,0 1.291,1.43 0.922,2.536 -0.369,1.106 -0.73,1.392 -1.66,1.613 -0.629,0.15 -1.567,-0.092 -2.074,-0.46 z"
         id="path135"
         inkscape:connector-curvature="0"
         style="fill:#a3afb8;fill-rule:evenodd" />
    </g>
    <g
       id="g143">
      <path
         d="m 273.01,105.45 c 0,1.882 -1.502,3.408 -3.358,3.412 -1.856,0.003 -3.365,-1.517 -3.372,-3.398 -0.007,-1.881 1.49,-3.414 3.345,-3.425 1.856,-0.01 3.37,1.503 3.385,3.385"
         id="path139"
         inkscape:connector-curvature="0"
         style="fill:#eeeeee;stroke:#1e1e1e;stroke-width:1.16983664;stroke-linejoin:round" />
      <path
         d="m 268.078,107.202 c 0,0 2.72,-0.046 2.996,-1.152 0.277,-1.107 -0.184,-2.536 -0.184,-2.536 0,0 1.29,1.43 0.922,2.536 -0.369,1.106 -0.73,1.392 -1.66,1.613 -0.63,0.15 -1.567,-0.092 -2.074,-0.46 z"
         id="path141"
         inkscape:connector-curvature="0"
         style="fill:#a3afb8;fill-rule:evenodd" />
    </g>
    <g
       id="g149"
       style="stroke-width:2.83200002">
      <path
         d="m 430.628,247.41 c 0,3.607 -2.88,6.533 -6.44,6.54 -3.558,0.007 -6.45,-2.907 -6.465,-6.515 -0.014,-3.607 2.856,-6.545 6.415,-6.566 3.558,-0.021 6.462,2.882 6.49,6.49"
         transform="matrix(0.31597,-0.08466,0.13499,0.50378,109.39,30)"
         id="path145"
         inkscape:connector-curvature="0"
         style="fill:#eeeeee;stroke:#1e1e1e;stroke-linejoin:round" />
      <path
         d="m 276.318,120.676 c 0,0 1.636,-0.486 1.517,-1.6 -0.118,-1.113 -0.767,-2.419 -0.767,-2.419 0,0 1.151,1.17 1.214,2.3 0.063,1.128 -0.082,1.463 -0.587,1.827 -0.343,0.247 -0.974,0.166 -1.377,-0.108 z"
         id="path147"
         inkscape:connector-curvature="0"
         style="fill:#a3afb8;fill-rule:evenodd" />
    </g>
    <g
       id="g155"
       style="stroke-width:2.83200002">
      <path
         d="m 430.628,247.41 c 0,3.607 -2.88,6.533 -6.44,6.54 -3.558,0.007 -6.45,-2.907 -6.465,-6.515 -0.014,-3.607 2.856,-6.545 6.415,-6.566 3.558,-0.021 6.462,2.882 6.49,6.49"
         transform="matrix(0.31758,0.0784,-0.125,0.50636,259.933,-40.204)"
         id="path151"
         inkscape:connector-curvature="0"
         style="fill:#eeeeee;stroke:#1e1e1e;stroke-linejoin:round" />
      <path
         d="m 362.342,119.795 c 0,0 1.667,0.364 2.101,-0.669 0.434,-1.032 0.495,-2.489 0.495,-2.489 0,0 0.444,1.581 -0.046,2.6 -0.49,1.019 -0.778,1.242 -1.397,1.317 -0.42,0.051 -0.932,-0.325 -1.153,-0.76 z"
         id="path153"
         inkscape:connector-curvature="0"
         style="fill:#a3afb8;fill-rule:evenodd" />
    </g>
  </g>
  <path
     d="m 10.5574,1.79373 0.0081,0.18997 c 0,0 -0.225233,0.0198 -0.234433,0.0404 -0.04377,0.0981 0.05253,0.2304 0.05253,0.2304 0,0 0.07573,-0.0566 0.266767,-0.0566 0.1819,0 0.274866,0.0445 0.274866,0.0445 0,0 0.0485,-0.0768 0.0485,-0.13337 0,-0.0566 -0.0202,-0.1132 -0.0202,-0.1132 0,0 -0.093,-0.0121 -0.121266,-0.0121 h -0.08083 l -0.0081,-0.194 z"
     id="path159"
     inkscape:connector-curvature="0"
     style="fill:#b3a192;fill-rule:evenodd;stroke:#000000;stroke-width:0.039" />
  <path
     d="m 10.878633,2.08843 c 0,0.0213 -0.018,0.0386 -0.04023,0.0387 -0.02223,0 -0.0403,-0.0172 -0.04037,-0.0385 -10e-5,-0.0213 0.01783,-0.0387 0.04003,-0.0388 0.02223,-1.3e-4 0.0404,0.017 0.04057,0.0383 m 0.09283,0.021 c 0,0.0222 -0.01877,0.0403 -0.042,0.0403 -0.02317,0 -0.042,-0.0179 -0.04213,-0.0402 -10e-5,-0.0222 0.01863,-0.0403 0.04183,-0.0405 0.02317,-1.3e-4 0.0421,0.0177 0.0423,0.04 m -0.1858,-0.0219 c 0,0.0213 -0.018,0.0386 -0.04023,0.0386 -0.0222,3e-5 -0.0403,-0.0172 -0.04037,-0.0385 -1e-4,-0.0213 0.01783,-0.0387 0.04003,-0.0388 0.02223,-1.3e-4 0.0404,0.017 0.04057,0.0383 m -0.186334,0.002 c 0,0.0222 -0.01867,0.0401 -0.04183,0.0402 -0.02313,3e-5 -0.04193,-0.0179 -0.042,-0.04 -1.33e-4,-0.0222 0.01853,-0.0402 0.04167,-0.0404 0.02313,-1.4e-4 0.042,0.0177 0.0422,0.0399 m -0.103434,0.007 c 0,0.0222 -0.0187,0.0401 -0.04183,0.0402 -0.02313,3e-5 -0.04197,-0.0179 -0.04203,-0.04 -10e-5,-0.0222 0.01853,-0.0402 0.04167,-0.0404 0.02313,-1.4e-4 0.042,0.0177 0.0422,0.0399 m 0.189834,-0.11596 c 0,0.0187 -0.0158,0.0339 -0.03533,0.0339 -0.0195,3e-5 -0.03533,-0.0151 -0.03543,-0.0338 -6.7e-5,-0.0187 0.01567,-0.0339 0.03517,-0.0341 0.0195,-10e-5 0.03543,0.0149 0.0356,0.0337 m 0,-0.1574 c 0,0.0187 -0.0158,0.0339 -0.03533,0.0339 -0.0195,4e-5 -0.03537,-0.0151 -0.03543,-0.0338 -6.7e-5,-0.0187 0.01567,-0.0339 0.03517,-0.0341 0.0195,-10e-5 0.03543,0.0149 0.0356,0.0337 m 0,0.0851 c 0,0.0187 -0.0158,0.0339 -0.03533,0.0339 -0.0195,7e-5 -0.03533,-0.0151 -0.03543,-0.0338 -6.7e-5,-0.0187 0.01567,-0.0339 0.03517,-0.034 0.0195,-1.3e-4 0.03543,0.0149 0.0356,0.0336 m -0.294634,0.21747 c 0,0.0214 -0.01807,0.0388 -0.0404,0.0388 -0.02233,7e-5 -0.04047,-0.0172 -0.04057,-0.0386 -10e-5,-0.0214 0.01793,-0.0388 0.04023,-0.0389 0.02233,-1.3e-4 0.04057,0.0171 0.04073,0.0385"
     id="path161"
     inkscape:connector-curvature="0"
     style="fill:#f0ddcb;stroke:#121116;stroke-width:0.01986667;stroke-linejoin:round" />
  <path
     d="m 10.694833,2.07867 c 0,0.0234 -0.01983,0.0424 -0.04437,0.0424 -0.02453,7e-5 -0.04447,-0.0188 -0.04453,-0.0423 -10e-5,-0.0234 0.01967,-0.0425 0.04417,-0.0426 0.02453,-1.3e-4 0.04453,0.0187 0.04473,0.0421"
     id="path163"
     inkscape:connector-curvature="0"
     style="fill:#916c68;stroke:#4d3126;stroke-width:0.01986667;stroke-linejoin:round" />
  <g
     id="g169"
     transform="scale(0.03333333)"
     style="stroke-width:2.53399992">
    <path
       d="m 322.063,45.45 c 0,1.392 -1.112,2.521 -2.486,2.524 -1.374,0.003 -2.49,-1.122 -2.496,-2.514 -0.005,-1.393 1.103,-2.527 2.476,-2.535 1.374,-0.008 2.495,1.112 2.506,2.505"
       id="path165"
       inkscape:connector-curvature="0"
       style="fill:#eeeeee;stroke:#1e1e1e;stroke-width:1.16996598;stroke-linejoin:round" />
    <path
       d="m 318.412,46.746 c 0,0 2.013,-0.034 2.218,-0.853 0.204,-0.819 -0.137,-1.876 -0.137,-1.876 0,0 0.955,1.057 0.683,1.876 -0.273,0.819 -0.541,1.03 -1.229,1.194 -0.466,0.111 -1.16,-0.068 -1.535,-0.341 z"
       id="path167"
       inkscape:connector-curvature="0"
       style="fill:#a3afb8;fill-rule:evenodd" />
  </g>
  <path
     d="m 9.3322333,4.33783 c 0,0 0.074067,0.0691 0.093833,0.13087 0.019733,0.0617 0.049367,0.22717 0.049367,0.22717 0,0 0.7752997,-0.2148 1.1555337,-0.19754 0.380233,0.0173 1.256733,0.20987 1.256733,0.20987 0,0 0.0148,-0.0938 0.0321,-0.19257 0.01727,-0.0988 0.08887,-0.2074 0.08887,-0.2074 0,0 -0.837,-0.26173 -1.365367,-0.23703 -0.528367,0.0247 -0.7925667,0.0815 -0.9110667,0.1185 -0.1185333,0.037 -0.4074,0.15063 -0.4,0.14813 z"
     id="path171"
     inkscape:connector-curvature="0"
     style="fill:#ffcc00;fill-rule:evenodd;stroke:#000000;stroke-width:0.0174" />
  <path
     d="m 10.4887,1.2016 h 0.333467 c 0,0 -0.0823,0.0569 -0.09903,0.11113 -0.0144,0.0467 -0.0101,0.1233 -0.0101,0.1233 0,0 0.09093,0 0.131334,-0.0344 0.04043,-0.0343 0.125333,-0.095 0.125333,-0.095 v 0.4244 c 0,0 -0.08187,-0.0791 -0.131367,-0.10507 a 0.48143333,0.48143333 0 0 0 -0.119233,-0.0425 c 0,0 0,0.0687 0.02827,0.10914 0.02833,0.0404 0.141466,0.194 0.141466,0.194 l -0.476933,0.0182 c 0,0 0.113133,-0.11927 0.159667,-0.20614 0.03033,-0.0566 0.01817,-0.1152 0.01817,-0.1152 0,0 -0.08083,0 -0.121233,0.0283 -0.04043,0.0283 -0.111167,0.11313 -0.111167,0.11313 v -0.4082 c 0,0 0.03033,0.0788 0.097,0.1091 0.0667,0.0303 0.129334,0.0142 0.129334,0.0142 0,0 0.01297,-0.0812 -0.01413,-0.13137 -0.02793,-0.0517 -0.0869,-0.10913 -0.08083,-0.1071 z"
     id="path173"
     inkscape:connector-curvature="0"
     style="fill:#ffcc00;fill-rule:evenodd;stroke:#000000;stroke-width:0.039" />
  <path
     d="m 10.462567,2.5483 c 0,0 -0.2372,-0.003 -0.440134,-0.1229 C 9.8195,2.30537 9.6148333,2.17963 9.3136333,2.25107 9.2519663,2.26567 9.0249667,2.3654 8.9249667,2.68833 c -0.0702,0.2266 0.0114,0.50014 0.082867,0.62304 0.071467,0.1229 0.1866667,0.24746 0.1866667,0.24746 l 0.1225333,-0.083 c 0,0 -0.3120666,-0.2645 -0.2749,-0.60746 0.037167,-0.34294 0.2086334,-0.423 0.2086334,-0.423 0,0 0.2115,-0.16574 0.4944333,-0.009 0.2829666,0.15717 0.5601666,0.22864 0.5601666,0.22864 0,0 0.2601,0.0629 0.282966,0.06 0.02287,-0.003 -0.131466,-0.18004 -0.125766,-0.17717 z"
     id="path175"
     inkscape:connector-curvature="0"
     style="fill:#ffcc00;fill-rule:evenodd;stroke:#121116;stroke-width:0.039" />
  <path
     d="M 9.1505,3.83467 9.0245,3.5869 9.4026,3.43913 c 0,0 -0.091267,0.12167 -0.113,0.20864 -0.026533,0.10616 -0.0174,0.19556 -0.0174,0.19556 0,0 0.034767,-0.0261 0.078233,-0.0956 0.033,-0.0528 0.086933,-0.2434 0.086933,-0.2434 l 0.1695,0.54327 c 0.00133,0.001 -0.087133,-0.0871 -0.1493334,-0.0977 -0.0701,-0.0118 -0.1549,0.0108 -0.1549,0.0108 L 9.2026656,3.9911 9.1504986,3.83463 Z"
     id="path177"
     inkscape:connector-curvature="0"
     style="fill:#ffcc00;fill-rule:evenodd;stroke:#000000;stroke-width:0.04" />
  <path
     d="m 10.8901,2.5438 c 0,0 0.237233,-0.003 0.440133,-0.12287 0.202934,-0.12006 0.4076,-0.24576 0.7088,-0.17433 0.06167,0.0146 0.288667,0.1143 0.388667,0.43727 0.0702,0.2266 -0.0114,0.50013 -0.08287,0.62303 -0.07143,0.1229 -0.120033,0.1952 -0.120033,0.1952 l -0.1473,-0.0529 c 0,0 0.2702,-0.24233 0.233033,-0.5853 -0.03713,-0.34297 -0.208633,-0.423 -0.208633,-0.423 0,0 -0.2115,-0.16573 -0.494433,-0.009 -0.282934,0.15716 -0.560167,0.22863 -0.560167,0.22863 0,0 -0.2601,0.0629 -0.282967,0.06 -0.02283,-0.003 0.1315,-0.18003 0.125767,-0.1772 z"
     id="path179"
     inkscape:connector-curvature="0"
     style="fill:#ffcc00;fill-rule:evenodd;stroke:#121116;stroke-width:0.039" />
  <path
     d="m 10.7676,2.30907 h 0.09903 V 3.23263 H 10.7676 Z m -0.333467,-0.004 h 0.1172 v 0.92357 h -0.1172 z"
     id="path181"
     inkscape:connector-curvature="0"
     style="fill:#ffcc00;stroke:#121116;stroke-width:0.039;stroke-linejoin:round" />
  <path
     d="m 10.973733,2.0908 c 0,0.16383 -0.144366,0.29677 -0.3227,0.2971 -0.178333,3.3e-4 -0.3233,-0.13207 -0.324,-0.2959 -7e-4,-0.16383 0.1431,-0.2973 0.321434,-0.29827 0.178333,-9.6e-4 0.323833,0.1309 0.325266,0.29474"
     id="path183"
     inkscape:connector-curvature="0"
     style="fill:#ffcc00;stroke:#121116;stroke-width:0.039;stroke-linejoin:round" />
  <path
     d="M 10.363567,3.2249 10.9196,3.2199 c 0,0 -0.0652,0.0389 -0.121267,0.13844 -0.05607,0.0995 -0.04807,0.16246 -0.04807,0.16246 0,0 0.08467,-10e-4 0.144166,-0.0446 0.0595,-0.0435 0.125867,-0.1247 0.125867,-0.1247 l -0.0023,0.51257 c 0,0 -0.04003,-0.0652 -0.1064,-0.1041 -0.06633,-0.0389 -0.160167,-0.0389 -0.160167,-0.0389 H 10.5615 c 0,0 -0.08683,0.005 -0.125867,0.0309 -0.055,0.0363 -0.123566,0.10644 -0.123566,0.10644 l -0.0091,-0.484 c 0,0 0.02743,0.0847 0.116667,0.119 0.08927,0.0343 0.1396,0.0298 0.1396,0.0298 0,0 0,-0.1087 -0.04577,-0.16476 -0.04577,-0.0561 -0.149866,-0.13157 -0.149866,-0.13387 z"
     id="path185"
     inkscape:connector-curvature="0"
     style="fill:#ffcc00;fill-rule:evenodd;stroke:#000000;stroke-width:0.03303333" />
  <path
     d="m 10.673367,3.62737 c 0,0 0.08137,0.18983 0.175966,0.27363 0.05507,0.0488 0.220634,0.0855 0.295467,0.0664 0.168233,-0.043 0.283833,-0.17753 0.283833,-0.17753 0,0 -0.006,0.14743 0.0993,0.22866 0.105334,0.0812 0.189567,0.10234 0.2768,0.0782 0.08727,-0.0241 0.334,-0.2076 0.334,-0.2076 l 0.05117,0.0451 c 0,0 -0.1415,0.1374 -0.290233,0.21033 -0.07657,0.0376 -0.309,0.0167 -0.384234,-0.0435 -0.07523,-0.0602 -0.1199,-0.206 -0.1199,-0.206 0,0 -0.04633,0.0937 -0.1456,0.12683 -0.09933,0.0331 -0.235766,0.0317 -0.362466,-0.005 -0.08527,-0.0249 -0.196034,-0.14257 -0.2171,-0.18167 -0.02107,-0.0391 -0.01503,-0.0602 -0.01503,-0.0602 0,0 -0.0625,0.1791 -0.192566,0.228 -0.122867,0.0461 -0.2629,0.0465 -0.3819,0.0123 C 9.9606,3.98047 9.9512,3.91323 9.9512,3.91323 c 0,0 -0.009,0.18957 -0.2707667,0.2437 -0.2618,0.0542 -0.4694,-0.1384 -0.4694,-0.1384 l 0.0361,-0.0542 c 0,0 0.1474334,0.1655 0.3731,0.15046 0.2256667,-0.0151 0.3009,-0.3039 0.3009,-0.3039 0,0 0.0993,0.15044 0.3640997,0.15344 0.264767,0.003 0.34,-0.343 0.34,-0.343 z"
     id="path187"
     inkscape:connector-curvature="0"
     style="fill:#f6ca1f;fill-rule:evenodd;stroke:#000000;stroke-width:0.0313" />
  <g
     id="g197"
     transform="scale(0.03333333)"
     style="fill:#ffcc00;stroke:#000000;stroke-width:2.20000005">
    <path
       d="m 300.629,112.134 c 0,0 0.06,-2.764 0.654,-3.595 0.842,-1.178 1.989,-1.226 2.574,-1.062 0.721,0.202 1.47,0.858 1.348,2.778 -0.123,1.92 -0.654,2.86 -0.082,3.595 0.572,0.736 0.654,1.226 1.757,1.062 1.103,-0.163 1.593,-0.53 1.348,-1.552 -0.245,-1.022 -0.572,0.082 -0.776,-0.776 -0.204,-0.858 1.067,-4.565 0.858,-6.864 -0.204,-2.247 -1.062,-4.045 -2.778,-4.495 -1.613,-0.422 -2.983,-0.408 -4.495,0.695 -1.45,1.058 -3.309,4.535 -3.309,4.535 l -0.04,7.436 3.023,-0.163 z"
       id="path189"
       inkscape:connector-curvature="0"
       style="fill-rule:evenodd;stroke-width:1.14741004" />
    <path
       d="m 294.997,114.136 c 0,0 -1.157,-2.512 -2.033,-3.037 -1.242,-0.745 -2.313,-0.332 -2.784,0.052 -0.58,0.473 -1.007,1.373 -0.129,3.085 0.878,1.712 1.74,2.362 1.508,3.265 -0.232,0.902 -0.111,1.385 -1.188,1.674 -1.077,0.29 -1.673,0.148 -1.855,-0.886 -0.183,-1.035 0.557,-0.153 0.402,-1.022 -0.154,-0.868 -2.798,-3.76 -3.522,-5.953 -0.709,-2.142 -0.638,-4.133 0.756,-5.229 1.311,-1.03 2.573,-1.563 4.4,-1.154 1.75,0.392 4.842,2.84 4.842,2.84 l 3.001,6.804 -2.838,1.055 z"
       id="path191"
       inkscape:connector-curvature="0"
       style="fill-rule:evenodd;stroke-width:1.14741004" />
    <path
       d="m 294.419,92.114 c 0,0 -2.942,4.944 -2.288,8.744 0.653,3.8 4.576,11.97 4.576,11.97 l 0.04,1.104 2.117,-0.229 -0.482,-1.12 c 0,0 1.057,-9.781 0.408,-12.87 -0.482,-2.295 -4.33,-7.558 -4.371,-7.599 z m 4.698,22.635 c 0,0 1.47,1.759 3.228,2.615 1.92,0.935 2.71,0.941 3.473,0.368 0.559,-0.42 0.367,-2.207 -0.286,-2.697 -0.654,-0.49 -1.396,-0.241 -1.512,0.245 -0.197,0.821 -0.464,0.766 -1.062,0.45 -0.873,-0.463 -2.901,-1.716 -2.901,-1.716 z m -2.277,0.399 c 0,0 -0.619,2.207 -1.87,3.71 -1.368,1.64 -2.085,1.97 -3.016,1.76 -0.683,-0.154 -1.241,-1.861 -0.846,-2.577 0.395,-0.715 1.173,-0.792 1.48,-0.397 0.515,0.669 0.737,0.509 1.152,-0.026 0.607,-0.78 1.941,-2.755 1.941,-2.755 l 1.16,0.285 z"
       id="path193"
       inkscape:connector-curvature="0"
       style="fill-rule:evenodd;stroke-width:1.14741004" />
    <path
       d="m 302.445,113.372 c 0.108,0.645 -1.838,1.509 -4.349,1.931 -2.51,0.423 -4.639,0.244 -4.757,-0.398 -0.118,-0.643 1.82,-1.508 4.33,-1.933 2.51,-0.425 4.646,-0.25 4.774,0.391"
       id="path195"
       inkscape:connector-curvature="0"
       style="stroke-width:1.14741004;stroke-linejoin:round" />
  </g>
  <g
     id="g207"
     transform="scale(0.03333333)"
     style="fill:#ffcc00;stroke:#000000;stroke-width:2.20000005">
    <path
       d="m 345.636,113.242 c 0,0 1.025,-2.568 1.873,-3.138 1.202,-0.808 2.293,-0.45 2.783,-0.092 0.605,0.442 1.076,1.32 0.288,3.074 -0.788,1.756 -1.615,2.45 -1.337,3.339 0.278,0.89 0.182,1.377 1.273,1.61 1.09,0.234 1.678,0.062 1.807,-0.98 0.128,-1.043 -0.565,-0.125 -0.455,-1 0.11,-0.875 2.6,-3.9 3.21,-6.127 0.597,-2.176 0.424,-4.16 -1.025,-5.183 -1.363,-0.961 -2.65,-1.428 -4.453,-0.925 -1.729,0.482 -4.69,3.086 -4.69,3.086 l -2.645,6.95 2.889,0.907 z"
       id="path199"
       inkscape:connector-curvature="0"
       style="fill-rule:evenodd;stroke-width:1.14741004" />
    <path
       d="m 339.66,113.141 c 0,0 -0.203,-2.758 -0.839,-3.557 -0.902,-1.133 -2.05,-1.121 -2.625,-0.928 -0.71,0.24 -1.425,0.933 -1.203,2.845 0.221,1.91 0.8,2.822 0.267,3.586 -0.533,0.764 -0.59,1.258 -1.7,1.152 -1.11,-0.107 -1.618,-0.449 -1.426,-1.481 0.192,-1.033 0.575,0.052 0.735,-0.816 0.16,-0.867 -1.302,-4.503 -1.212,-6.81 0.088,-2.255 0.852,-4.094 2.543,-4.632 1.589,-0.505 2.957,-0.562 4.524,0.462 1.503,0.982 3.54,4.358 3.54,4.358 l 0.424,7.424 -3.028,-0.007 z"
       id="path201"
       inkscape:connector-curvature="0"
       style="fill-rule:evenodd;stroke-width:1.14741004" />
    <path
       d="m 346.84,92.316 c 0,0 -4.488,3.598 -5.208,7.385 -0.72,3.788 0.087,12.816 0.087,12.816 l -0.349,1.047 2.063,0.528 -0.06,-1.217 c 0,0 4.421,-8.79 4.897,-11.91 0.353,-2.318 -1.406,-8.597 -1.43,-8.65 z m -3.537,22.844 c 0,0 0.76,2.163 2.106,3.581 1.47,1.55 2.207,1.832 3.123,1.562 0.671,-0.197 1.118,-1.937 0.678,-2.625 -0.44,-0.689 -1.222,-0.715 -1.502,-0.3 -0.472,0.7 -0.703,0.554 -1.152,0.047 -0.656,-0.74 -2.115,-2.624 -2.115,-2.624 l -1.138,0.36 z m -2.273,-0.424 c 0,0 -1.353,1.85 -3.052,2.817 -1.856,1.057 -2.643,1.114 -3.442,0.591 -0.585,-0.383 -0.509,-2.178 0.112,-2.71 0.62,-0.53 1.377,-0.33 1.524,0.148 0.25,0.807 0.513,0.735 1.09,0.38 0.84,-0.518 2.783,-1.9 2.783,-1.9 l 0.986,0.674 z"
       id="path203"
       inkscape:connector-curvature="0"
       style="fill-rule:evenodd;stroke-width:1.14741004" />
    <path
       d="m 346.902,115.038 c -0.125,0.641 -2.25,0.768 -4.75,0.283 -2.499,-0.485 -4.43,-1.398 -4.315,-2.041 0.115,-0.643 2.233,-0.774 4.733,-0.292 2.5,0.483 4.439,1.396 4.334,2.04"
       id="path205"
       inkscape:connector-curvature="0"
       style="stroke-width:1.14741004;stroke-linejoin:round" />
  </g>
  <path
     d="m 9.303,4.329 c 0,0 0.016233,0.0682 0.055167,0.0325 0.0389,-0.0357 0.5742333,-0.24657 1.330133,-0.24657 0.7559,0 1.252267,0.20767 1.281467,0.22063 0.0292,0.013 0.0422,0.0292 0.06813,0 0.02597,-0.0292 -0.02593,-0.0746 -0.02593,-0.0746 0,0 -0.525567,-0.22387 -1.346367,-0.2206 -0.8207997,0.003 -1.3528664,0.23683 -1.3528664,0.23683 0,0 -0.035667,0.0259 -0.00973,0.0519 z"
     id="path209"
     inkscape:connector-curvature="0"
     style="fill:#cca715;fill-rule:evenodd;stroke:#000000;stroke-width:0.0174" />
  <path
     d="m 10.261533,4.64347 c 0,0 0.02413,-0.0671 0.06623,-0.08 0.03357,-0.0103 0.0866,0.0227 0.0866,0.0227 0,0 -0.06387,-0.006 -0.08387,0.005 -0.01803,0.0103 -0.0235,0.0408 -0.0235,0.0408 0,0 0.0137,-0.0243 0.0627,-0.022 0.049,0.002 0.05447,0.002 0.05447,0.002 0,0 -0.08307,0.006 -0.102267,0.0302 -0.0192,0.0239 0.07837,0.0349 0.07837,0.0349 0,0 -0.149334,8e-4 -0.1689,-0.008 -0.0196,-0.009 -0.03213,-0.0396 -0.06547,-0.0302 -0.0333,0.009 -0.0674,0.0392 -0.0674,0.0392 0,0 0.038,-0.0639 0.06193,-0.0643 0.0239,-4e-4 0.038,-0.002 0.05957,0.008 0.02157,0.01 0.04153,0.0208 0.04153,0.0208 z M 9.7032333,4.7644 c 0,0 0.0113,-0.0703 0.0503,-0.0908 0.0311,-0.0163 0.089333,0.006 0.089333,0.006 0,0 -0.0639,0.006 -0.081433,0.0209 -0.015833,0.0134 -0.015567,0.0444 -0.015567,0.0444 0,0 0.009,-0.0264 0.057567,-0.0332 a 2.2836667,2.2836667 0 0 0 0.054,-0.008 c 0,0 -0.080533,0.0215 -0.095,0.0486 -0.014433,0.0271 0.0835,0.0198 0.0835,0.0198 0,0 -0.1466,0.0284 -0.1675,0.0231 -0.020933,-0.005 -0.0389,-0.0329 -0.0699,-0.0175 -0.031,0.0154 -0.059,0.051 -0.059,0.051 0,0 0.025533,-0.0698 0.048967,-0.0746 0.023433,-0.005 0.037067,-0.009 0.060067,-0.003 0.023,0.006 0.044667,0.0127 0.044667,0.0127 z M 10.7324,4.61867 c 0,0 0.028,-0.0655 0.07077,-0.076 0.03413,-0.008 0.08513,0.0277 0.08513,0.0277 0,0 -0.06343,-0.01 -0.084,6.3e-4 -0.01867,0.009 -0.02587,0.0393 -0.02587,0.0393 0,0 0.0151,-0.0235 0.06387,-0.0183 0.04877,0.005 0.05423,0.006 0.05423,0.006 0,0 -0.0833,0.001 -0.103833,0.0242 -0.02057,0.0228 0.0762,0.0394 0.0762,0.0394 0,0 -0.1491,-0.008 -0.168133,-0.018 -0.01903,-0.0101 -0.0298,-0.0414 -0.0636,-0.0339 -0.0338,0.007 -0.06953,0.0352 -0.06953,0.0352 0,0 0.04167,-0.0616 0.06553,-0.0606 0.02387,0.001 0.038,6.3e-4 0.059,0.0117 0.02093,0.011 0.04023,0.0231 0.04023,0.0231 z m 0.471467,0.0533 c 0,0 0.0354,-0.0618 0.07913,-0.0672 0.03483,-0.004 0.08133,0.0375 0.08133,0.0375 0,0 -0.0619,-0.0169 -0.08357,-0.009 -0.01957,0.007 -0.03023,0.036 -0.03023,0.036 0,0 0.01773,-0.0215 0.06557,-0.0107 0.04783,0.0108 0.05323,0.0118 0.05323,0.0118 0,0 -0.0829,-0.008 -0.106,0.0119 -0.02303,0.0202 0.07113,0.048 0.07113,0.048 0,0 -0.147167,-0.0252 -0.1649,-0.0375 -0.01773,-0.0123 -0.02473,-0.0446 -0.0592,-0.0411 -0.03443,0.003 -0.0732,0.0269 -0.0732,0.0269 0,0 0.04857,-0.0563 0.07217,-0.0525 0.02363,0.004 0.0377,0.005 0.05723,0.0185 0.01953,0.0134 0.0373,0.0277 0.0373,0.0277 z M 11.672,4.75557 c 0,0 0.033,-0.0471 0.0685,-0.0482 0.02833,-9e-4 0.06263,0.0361 0.06263,0.0361 0,0 -0.0485,-0.0181 -0.06647,-0.0135 -0.01623,0.004 -0.02693,0.0267 -0.02693,0.0267 0,0 0.01583,-0.016 0.05347,-0.004 0.03763,0.0122 0.0419,0.0134 0.0419,0.0134 0,0 -0.066,-0.0127 -0.086,0.002 -0.02003,0.0145 0.0536,0.0438 0.0536,0.0438 0,0 -0.1164,-0.031 -0.129767,-0.0422 -0.01333,-0.0112 -0.01663,-0.0377 -0.04453,-0.0374 -0.02793,2.6e-4 -0.0608,0.0162 -0.0608,0.0162 0,0 0.04313,-0.0417 0.06183,-0.0369 0.01867,0.005 0.02993,0.007 0.04463,0.019 0.0147,0.0122 0.02793,0.025 0.02793,0.025 z"
     id="path211"
     inkscape:connector-curvature="0"
     style="fill-rule:evenodd;stroke-width:0.03333334" />
  <path
     d="M 10.1674,4.32407 C 10.17867,4.37997 10.11293,4.44023 10.020667,4.45873 9.9284,4.47723 9.8445667,4.44683 9.8334333,4.39093 9.8221663,4.33513 9.8878663,4.27479 9.9801333,4.25633 10.0724,4.23783 10.156267,4.26813 10.1674,4.32403 Z"
     id="path213"
     inkscape:connector-curvature="0"
     style="fill:#0f6545;stroke:#000000;stroke-width:0.02323333;stroke-linejoin:round" />
  <path
     d="m 9.9584333,4.31493 c 0.0027,0.0136 -0.011567,0.0278 -0.031867,0.0319 -0.020333,0.004 -0.039,-0.004 -0.041667,-0.0172 -0.00273,-0.0135 0.011533,-0.0278 0.031833,-0.0319 0.020333,-0.004 0.039,0.004 0.041667,0.0172 z"
     id="path215"
     inkscape:connector-curvature="0"
     style="fill:#cecfc1;stroke-width:0.03333334" />
  <path
     d="m 11.471333,4.39167 c -0.017,0.0544 -0.1036,0.0756 -0.1934,0.0474 -0.08977,-0.0282 -0.148666,-0.0951 -0.131566,-0.14947 0.017,-0.0544 0.1036,-0.0756 0.1934,-0.0474 0.08977,0.0282 0.148666,0.0951 0.131566,0.14947 z"
     id="path217"
     inkscape:connector-curvature="0"
     style="fill:#0f6545;stroke:#000000;stroke-width:0.02323333;stroke-linejoin:round" />
  <path
     d="m 11.292533,4.2831 c -0.0041,0.0132 -0.0235,0.0188 -0.04327,0.0126 -0.01977,-0.006 -0.03243,-0.0219 -0.0283,-0.0351 0.0041,-0.0132 0.0235,-0.0188 0.04327,-0.0126 0.01977,0.006 0.03243,0.0219 0.0283,0.0351 z"
     id="path219"
     inkscape:connector-curvature="0"
     style="fill:#cecfc1;stroke-width:0.03333334" />
  <path
     d="m 10.486767,4.1981 h 0.338 v 0.1704 h -0.338 z"
     id="path221"
     inkscape:connector-curvature="0"
     style="fill:#1f2d86;stroke:#000000;stroke-width:0.03303333;stroke-linejoin:round" />
  <path
     d="m 10.629233,4.23443 c 0,0.008 -0.0144,0.014 -0.03213,0.014 -0.01773,0 -0.0321,-0.006 -0.0321,-0.014 0,-0.008 0.01437,-0.0139 0.0321,-0.0139 0.01773,0 0.03213,0.006 0.03213,0.014 z"
     id="path223"
     inkscape:connector-curvature="0"
     style="fill:#707c8b;stroke-width:0.03333334" />
  <path
     d="m 9.5314667,4.3685 0.055867,0.1648 -0.1033333,0.0559 c 0,0 -0.0475,0.0335 -0.095,0.008 C 9.3415334,4.5721 9.3135334,4.49677 9.3387334,4.46594 9.3887664,4.40474 9.5314668,4.36537 9.5314668,4.36814 Z"
     id="path225"
     inkscape:connector-curvature="0"
     style="fill:#9f1209;fill-rule:evenodd;stroke:#000000;stroke-width:0.0174" />
  <path
     d="m 9.4449,4.48583 c 0,0.0278 -0.021267,0.0503 -0.0475,0.0503 -0.026233,0 -0.0475,-0.0225 -0.0475,-0.0503 0,-0.0278 0.021267,-0.0503 0.0475,-0.0503 0.026233,0 0.0475,0.0225 0.0475,0.0503 z"
     id="path227"
     inkscape:connector-curvature="0"
     style="fill:#8f322f;stroke-width:0.03333334" />
  <path
     d="m 9.3999667,4.46613 c 0.00147,0.009 -6.334e-4,0.0177 -0.00543,0.023 a 0.01393333,0.01393333 0 0 1 -0.017933,0.003 c -0.0063,-0.004 -0.011033,-0.0112 -0.012467,-0.02 -0.00147,-0.009 6e-4,-0.0177 0.00543,-0.023 a 0.01393333,0.01393333 0 0 1 0.017933,-0.003 c 0.00627,0.004 0.011,0.0112 0.012467,0.0201 z"
     id="path229"
     inkscape:connector-curvature="0"
     style="fill:#e2a494;stroke-width:0.03333334" />
  <path
     d="m 11.796,4.38997 -0.0555,0.14676 0.131567,0.0689 c 0,0 0.05817,0.026 0.09487,-0.006 0.03137,-0.0275 0.0385,-0.0913 0.01343,-0.1235 C 11.956637,4.44563 11.7942,4.38933 11.796,4.39023 Z"
     id="path231"
     inkscape:connector-curvature="0"
     style="fill:#9f1209;fill-rule:evenodd;stroke:#000000;stroke-width:0.0174" />
  <path
     d="m 11.9535,4.50767 c 0,0.018 -0.01883,0.0327 -0.04207,0.0327 -0.0232,0 -0.04203,-0.0147 -0.04203,-0.0327 0,-0.0181 0.01883,-0.0327 0.04203,-0.0327 0.02323,0 0.04207,0.0146 0.04207,0.0327 z"
     id="path233"
     inkscape:connector-curvature="0"
     style="fill:#aa675d;stroke-width:0.03333334" />
  <path
     d="m 11.913233,4.50273 c 0,0.009 -0.0037,0.0166 -0.0098,0.0209 a 0.0166,0.0166 0 0 1 -0.0197,0 c -0.0061,-0.004 -0.0099,-0.0123 -0.0098,-0.0209 0,-0.009 0.0037,-0.0167 0.0098,-0.021 a 0.0166,0.0166 0 0 1 0.0197,0 c 0.0061,0.004 0.0098,0.0123 0.0098,0.021 z"
     id="path235"
     inkscape:connector-curvature="0"
     style="fill:#e2a494;stroke-width:0.03333334" />
  <g
     id="g239"
     transform="scale(0.03333333)"
     style="fill:#f5d8bc">
    <path
       d="m 328.55,126.38 c 0,0.377 -0.319,0.682 -0.713,0.682 -0.395,0 -0.714,-0.305 -0.714,-0.681 0,-0.377 0.32,-0.682 0.714,-0.682 0.394,0 0.714,0.305 0.713,0.682 z m 4.315,0.25 c 0,0.376 -0.32,0.681 -0.714,0.681 -0.394,0 -0.714,-0.305 -0.713,-0.681 0,-0.377 0.319,-0.682 0.713,-0.682 0.395,0 0.714,0.305 0.714,0.682 z m -2.187,1.676 c 0,0.473 -0.401,0.856 -0.897,0.856 -0.496,0 -0.897,-0.383 -0.897,-0.856 0,-0.473 0.401,-0.857 0.897,-0.857 0.496,0 0.898,0.384 0.897,0.857 z m 2.082,2.814 c 0,0.377 -0.32,0.682 -0.714,0.682 -0.394,0 -0.714,-0.305 -0.713,-0.681 0,-0.377 0.32,-0.682 0.713,-0.682 0.395,0 0.714,0.305 0.714,0.682 z m -4.164,-0.536 c 0,0.376 -0.32,0.681 -0.713,0.681 -0.395,0 -0.714,-0.305 -0.714,-0.681 0,-0.376 0.32,-0.682 0.714,-0.682 0.394,0 0.714,0.306 0.713,0.682 z"
       id="path237"
       inkscape:connector-curvature="0" />
  </g>
  <g
     id="g243"
     transform="scale(0.03333333)"
     style="fill:#f5d8bc">
    <path
       d="m 307.729,127.115 c 0.085,0.367 -0.158,0.736 -0.542,0.825 -0.384,0.09 -0.764,-0.136 -0.849,-0.503 -0.085,-0.366 0.157,-0.736 0.542,-0.825 0.384,-0.089 0.764,0.137 0.849,0.503 z m 4.259,-0.731 c 0.085,0.367 -0.157,0.736 -0.541,0.825 -0.385,0.09 -0.765,-0.136 -0.85,-0.503 -0.085,-0.366 0.158,-0.736 0.542,-0.825 0.384,-0.089 0.764,0.137 0.849,0.503 z m -1.752,2.126 c 0.107,0.461 -0.198,0.925 -0.68,1.037 -0.484,0.112 -0.962,-0.171 -1.068,-0.632 -0.107,-0.46 0.198,-0.925 0.68,-1.037 0.484,-0.112 0.961,0.172 1.068,0.632 z m 2.664,2.273 c 0.084,0.367 -0.158,0.736 -0.542,0.825 -0.385,0.09 -0.765,-0.136 -0.85,-0.503 -0.085,-0.366 0.158,-0.736 0.542,-0.825 0.384,-0.089 0.765,0.137 0.85,0.503 z m -4.179,0.417 c 0.086,0.366 -0.157,0.736 -0.541,0.825 -0.384,0.089 -0.764,-0.137 -0.849,-0.503 -0.085,-0.367 0.157,-0.736 0.541,-0.825 0.385,-0.09 0.765,0.136 0.85,0.503 z"
       id="path241"
       inkscape:connector-curvature="0" />
  </g>
  <g
     id="g247"
     transform="scale(0.03333333)"
     style="fill:#f5d8bc">
    <path
       d="m 289.54,131.041 c 0.137,0.35 -0.05,0.751 -0.418,0.894 -0.367,0.142 -0.776,-0.026 -0.912,-0.377 -0.136,-0.35 0.051,-0.751 0.419,-0.894 0.368,-0.143 0.776,0.026 0.912,0.377 z m 4.113,-1.33 c 0.136,0.351 -0.051,0.751 -0.419,0.894 -0.367,0.143 -0.776,-0.026 -0.912,-0.377 -0.136,-0.35 0.051,-0.75 0.419,-0.894 0.368,-0.142 0.776,0.027 0.912,0.377 z m -1.432,2.354 c 0.172,0.441 -0.064,0.944 -0.526,1.123 -0.462,0.18 -0.975,-0.032 -1.146,-0.473 -0.172,-0.441 0.064,-0.944 0.526,-1.124 0.462,-0.179 0.975,0.033 1.146,0.474 z m 2.959,1.871 c 0.137,0.35 -0.05,0.751 -0.418,0.894 -0.367,0.142 -0.776,-0.026 -0.912,-0.377 -0.136,-0.351 0.051,-0.751 0.419,-0.894 0.368,-0.143 0.776,0.026 0.912,0.377 z m -4.075,1.007 c 0.136,0.35 -0.051,0.75 -0.419,0.893 -0.367,0.143 -0.776,-0.026 -0.912,-0.377 -0.136,-0.35 0.051,-0.75 0.419,-0.893 0.368,-0.143 0.776,0.026 0.912,0.377 z"
       id="path245"
       inkscape:connector-curvature="0" />
  </g>
  <g
     id="g251"
     transform="scale(0.03333333)"
     style="fill:#f5d8bc">
    <path
       d="m 347.283,129.063 c -0.096,0.394 -0.508,0.631 -0.921,0.53 -0.413,-0.1 -0.669,-0.502 -0.572,-0.896 0.096,-0.394 0.509,-0.631 0.921,-0.53 0.413,0.1 0.67,0.502 0.572,0.896 z m 4.452,1.367 c -0.096,0.393 -0.51,0.63 -0.922,0.53 -0.413,-0.102 -0.669,-0.503 -0.572,-0.897 0.096,-0.393 0.509,-0.631 0.922,-0.53 0.412,0.101 0.669,0.503 0.572,0.896 z m -2.718,1.193 c -0.121,0.495 -0.64,0.793 -1.158,0.666 -0.52,-0.127 -0.841,-0.631 -0.72,-1.126 0.121,-0.495 0.64,-0.794 1.159,-0.667 0.518,0.127 0.84,0.632 0.719,1.127 z m 1.457,3.479 c -0.096,0.394 -0.509,0.632 -0.922,0.53 -0.412,-0.1 -0.669,-0.502 -0.572,-0.896 0.096,-0.393 0.509,-0.63 0.922,-0.53 0.412,0.101 0.669,0.503 0.572,0.896 z m -4.22,-1.629 c -0.096,0.394 -0.509,0.632 -0.921,0.53 -0.413,-0.1 -0.67,-0.502 -0.573,-0.896 0.096,-0.394 0.51,-0.631 0.922,-0.53 0.413,0.101 0.669,0.502 0.572,0.896 z"
       id="path249"
       inkscape:connector-curvature="0" />
  </g>
  <path
     d="m 11.865767,2.96437 c 0,0 -0.06833,0.0641 -0.149567,0.0641 -0.0812,0 -0.1282,-0.0342 -0.153833,-0.0513 -0.02567,-0.0171 0.0085,-0.0684 0.0085,-0.0684"
     id="path253"
     inkscape:connector-curvature="0"
     style="fill:none;stroke:#000000;stroke-width:0.04" />
  <path
     d="m 10.429867,3.09257 c 0,0 -0.123934,-0.0213 -0.175234,-0.0385 -0.05127,-0.0171 -0.03843,-0.0513 -0.09827,-0.047 -0.05983,0.004 -0.119667,0.047 -0.106867,0.10683 0.01283,0.0598 0.05557,0.0684 0.09833,0.0556 0.0427,-0.0128 0.0299,-0.0855 -0.02567,-0.0812 -0.05557,0.004 -0.0085,0.0513 -0.0085,0.0513"
     id="path255"
     inkscape:connector-curvature="0"
     style="fill:none;stroke:#000000;stroke-width:0.0365" />
  <path
     d="m 9.5751667,2.99857 c 0,0 0.034167,0.0513 0.1239333,0.0427 0.089733,-0.009 0.1239333,-0.0556 0.1282,-0.0769 0.00427,-0.0213 0,-0.0598 -0.0171,-0.0769 C 9.7931,2.87037 9.733267,2.86187 9.733267,2.86187"
     id="path257"
     inkscape:connector-curvature="0"
     style="fill:none;stroke:#000000;stroke-width:0.03476667" />
  <g
     id="g263"
     transform="scale(0.03333333)"
     style="stroke:#161111">
    <path
       d="m 339.19,270.402 c 2.487,-2.448 6.486,-5.158 8.707,-11.048 2.08,-5.513 3.087,-15.633 4.984,-20.762 2.48,-8.792 7.474,-17.364 1.53,-16.778 -5.66,0.56 -7.49,6.028 -9.635,10.03 -0.994,1.49 -3.283,4.683 -3.716,6.497 -0.087,-3.045 -1.625,-11.926 -1.94,-20.857 -0.293,-8.341 -0.056,-17.023 -0.28,-20.263 -0.272,-4.277 -0.244,-8.295 -1.247,-11.456 -0.467,-1.474 -2.633,-2.89 -3.743,-2.829 -2.281,0.017 -3.66,2.001 -3.969,3.865 -0.222,1.473 -0.16,0.936 -0.31,2.84 -0.19,2.408 0.045,5.513 -0.128,8.239 -0.187,2.94 0.197,6.204 0.037,8.939 -0.323,5.514 -0.722,10.566 -0.885,11.6 0,-2.045 -0.935,-11.704 -1.247,-20.872 -0.119,-3.479 -0.2,-6.908 -0.261,-10.101 -0.05,-2.583 0.063,-5.33 -0.214,-7.336 -0.473,-3.424 -1.58,-4.983 -4.064,-4.983 -1.675,0 -4.073,1.219 -4.84,5.026 -0.413,2.053 -0.43,4.566 -0.362,7.31 0.063,2.55 0.199,5.298 0.158,8.057 -0.155,10.444 -0.34,21.513 -0.766,24.774 -0.069,-1.072 -1.114,-6.536 -1.396,-13.852 -0.111,-2.882 -0.268,-6.36 -0.422,-9.684 -0.185,-3.975 -0.17,-6.94 -0.27,-9.591 -0.028,-1.602 -0.665,-6.212 -3.748,-5.935 -1.618,-0.198 -3.332,0.93 -4.022,5.293 -0.384,2.43 -0.375,6.612 -0.439,9.835 -0.121,6.12 -0.386,11.479 -0.092,16.927 0.183,3.4 0.155,6.02 0.194,7.695 0.04,0.445 -0.868,-2.856 -1.327,-7.343 -0.45,-4.389 -0.847,-9.976 -0.811,-8.687 0,-2.266 -0.11,-5.64 -0.314,-8.424 -0.16,-2.175 -0.06,-4.574 -2.418,-4.382 -2.394,0.194 -3.864,1.003 -4.36,5.102 -0.32,2.655 -0.408,8.394 -0.478,10.475 0.258,5.292 -1.156,17.63 -1.797,21.138 -0.175,2.486 -1.156,5.72 -1.571,9.185 -0.893,7.46 -0.044,16.192 0.944,20.662 1.963,7.056 7.087,10.222 6.83,15.01 -0.258,4.788 0,13.23 0,17.01 0,3.78 3.283,3.984 10.08,2.52 11.115,-2.394 17.188,2.394 26.365,-1.134 -1.164,-10.458 1.104,-16.745 1.045,-20.525 z m -6.485,-24.712 c 2.299,-6.346 5.202,-8.839 8.004,-10.223"
       id="path259"
       inkscape:connector-curvature="0"
       style="fill:#cc0000;stroke-width:1.60000002" />
    <path
       d="m 307.432,239.148 c 3.461,-1.365 7.055,-2.356 10.572,-3.558 4.304,-1.214 8.472,-2.954 12.913,-3.642 2.14,-0.436 4.291,-0.858 6.474,-1.005 m -36.132,42.064 c 0.484,-0.32 0.95,0.188 1.416,0.285 0.652,0.2 1.334,0.402 2.022,0.284 1.35,-0.022 2.703,-0.024 4.054,0.005 1.603,-0.059 2.93,-0.117 4.22,-1.024 m 10.041,0.614 c 0.464,0.381 0.992,0.68 1.55,0.9 0.859,0.38 1.798,0.429 7.368,-0.02 3.454,0.221 6.513,-2.762 7.375,-3.567"
       id="path261"
       inkscape:connector-curvature="0"
       style="fill:none;stroke-width:1.60000002" />
  </g>
</svg>
