<?xml version="1.0" encoding="UTF-8" standalone="no"?>
<svg
   xmlns:dc="http://purl.org/dc/elements/1.1/"
   xmlns:cc="http://creativecommons.org/ns#"
   xmlns:rdf="http://www.w3.org/1999/02/22-rdf-syntax-ns#"
   xmlns:svg="http://www.w3.org/2000/svg"
   xmlns="http://www.w3.org/2000/svg"
   xmlns:xlink="http://www.w3.org/1999/xlink"
   xmlns:sodipodi="http://sodipodi.sourceforge.net/DTD/sodipodi-0.dtd"
   xmlns:inkscape="http://www.inkscape.org/namespaces/inkscape"
   height="15.999998"
   width="21.333332"
   viewBox="0 0 21.333332 15.999998"
   version="1.1"
   id="svg42"
   sodipodi:docname="gd.svg"
   inkscape:version="0.92.1 r">
  <metadata
     id="metadata46">
    <rdf:RDF>
      <cc:Work
         rdf:about="">
        <dc:format>image/svg+xml</dc:format>
        <dc:type
           rdf:resource="http://purl.org/dc/dcmitype/StillImage" />
        <dc:title></dc:title>
      </cc:Work>
    </rdf:RDF>
  </metadata>
  <sodipodi:namedview
     pagecolor="#ffffff"
     bordercolor="#666666"
     borderopacity="1"
     objecttolerance="10"
     gridtolerance="10"
     guidetolerance="10"
     inkscape:pageopacity="0"
     inkscape:pageshadow="2"
     inkscape:window-width="1920"
     inkscape:window-height="1024"
     id="namedview44"
     showgrid="false"
     fit-margin-top="0"
     fit-margin-left="0"
     fit-margin-right="0"
     fit-margin-bottom="0"
     inkscape:zoom="1.3906433"
     inkscape:cx="213.02435"
     inkscape:cy="217.22865"
     inkscape:window-x="0"
     inkscape:window-y="0"
     inkscape:window-maximized="1"
     inkscape:current-layer="svg42" />
  <defs
     id="defs15">
    <g
       id="c">
      <g
         id="b">
        <path
           transform="rotate(18,0,-1)"
           d="M 0,-1 V 0 H 0.5"
           id="a"
           inkscape:connector-curvature="0"
           style="fill:#fcd116" />
        <use
           transform="scale(-1,1)"
           xlink:href="#a"
           id="use3"
           x="0"
           y="0"
           width="100%"
           height="100%" />
      </g>
      <use
         transform="rotate(72)"
         xlink:href="#b"
         id="use6"
         x="0"
         y="0"
         width="100%"
         height="100%" />
      <use
         transform="rotate(144)"
         xlink:href="#b"
         id="use8"
         x="0"
         y="0"
         width="100%"
         height="100%" />
      <use
         transform="rotate(-144)"
         xlink:href="#b"
         id="use10"
         x="0"
         y="0"
         width="100%"
         height="100%" />
      <use
         transform="rotate(-72)"
         xlink:href="#b"
         id="use12"
         x="0"
         y="0"
         width="100%"
         height="100%" />
    </g>
  </defs>
  <g
     id="g61"
     transform="matrix(0.03333333,0,0,0.03333333,0,-0.00166667)">
    <path
       id="path17"
       d="m 0,0.05 h 640 v 480 H 0 Z"
       inkscape:connector-curvature="0"
       style="fill:#ce1126" />
    <path
       id="path19"
       d="M 67.2,67.2 H 572.8 V 412.8 H 67.2 Z"
       inkscape:connector-curvature="0"
       style="fill:#007a5e" />
    <path
       id="path21"
       d="M 67.2,67.25 H 572.8 L 67.2,412.85 h 505.6 z"
       inkscape:connector-curvature="0"
       style="fill:#fcd116" />
    <circle
       id="circle23"
       r="57.599998"
       cy="240.05"
       cx="319.91699"
       style="fill:#ce1126" />
    <use
       id="use25"
       transform="matrix(52.8,0,0,52.8,319.917,240.05)"
       xlink:href="#c"
       width="100%"
       height="100%"
       x="0"
       y="0" />
    <use
       id="use27"
       transform="translate(-30.327)"
       x="-100"
       xlink:href="#d"
       width="100%"
       height="100%"
       y="0" />
    <use
       transform="matrix(31.2,0,0,31.2,320,33.65)"
       xlink:href="#c"
       id="d"
       width="100%"
       height="100%"
       x="0"
       y="0" />
    <use
       id="use30"
       transform="translate(30.327)"
       x="100"
       xlink:href="#d"
       width="100%"
       height="100%"
       y="0" />
    <path
       id="path32"
       d="m 102.315,240.706 c 7.206,13.424 21.224,28.032 33.466,33.168 0.196,-13.632 -4.64,-31.104 -11.255,-45.024 l -22.21,11.856 z"
       inkscape:connector-curvature="0"
       style="fill:#ce1126" />
    <path
       id="path34"
       d="m 90.096,194.658 c 10.446,21.776 -27.093,73.728 35.45,85.904 -7.716,-10.528 -12.69,-27.904 -10.809,-41.856 13.122,4.992 26.928,19.6 32.508,30.768 16.368,-59.44 -41.984,-55.824 -57.15,-74.816 z"
       inkscape:connector-curvature="0"
       style="fill:#fcd116" />
    <use
       id="use36"
       height="100%"
       width="100%"
       xlink:href="#d"
       x="-100"
       transform="translate(-30.327,414.55)"
       y="0" />
    <use
       id="use38"
       height="100%"
       width="100%"
       xlink:href="#c"
       transform="matrix(31.2,0,0,31.2,320,448.2)"
       x="0"
       y="0" />
    <use
       id="use40"
       height="100%"
       width="100%"
       xlink:href="#d"
       x="100"
       transform="translate(30.327,414.55)"
       y="0" />
  </g>
</svg>
