<?xml version="1.0" encoding="UTF-8" standalone="no"?>
<svg
   xmlns:dc="http://purl.org/dc/elements/1.1/"
   xmlns:cc="http://creativecommons.org/ns#"
   xmlns:rdf="http://www.w3.org/1999/02/22-rdf-syntax-ns#"
   xmlns:svg="http://www.w3.org/2000/svg"
   xmlns="http://www.w3.org/2000/svg"
   xmlns:sodipodi="http://sodipodi.sourceforge.net/DTD/sodipodi-0.dtd"
   xmlns:inkscape="http://www.inkscape.org/namespaces/inkscape"
   height="16"
   width="21.333332"
   viewBox="0 0 21.333332 16"
   version="1.1"
   id="svg10"
   sodipodi:docname="ge.svg"
   inkscape:version="0.92.1 r">
  <metadata
     id="metadata16">
    <rdf:RDF>
      <cc:Work
         rdf:about="">
        <dc:format>image/svg+xml</dc:format>
        <dc:type
           rdf:resource="http://purl.org/dc/dcmitype/StillImage" />
        <dc:title></dc:title>
      </cc:Work>
    </rdf:RDF>
  </metadata>
  <defs
     id="defs14" />
  <sodipodi:namedview
     pagecolor="#ffffff"
     bordercolor="#666666"
     borderopacity="1"
     objecttolerance="10"
     gridtolerance="10"
     guidetolerance="10"
     inkscape:pageopacity="0"
     inkscape:pageshadow="2"
     inkscape:window-width="1920"
     inkscape:window-height="1024"
     id="namedview12"
     showgrid="false"
     fit-margin-top="0"
     fit-margin-left="0"
     fit-margin-right="0"
     fit-margin-bottom="0"
     inkscape:zoom="0.49166667"
     inkscape:cx="320"
     inkscape:cy="240"
     inkscape:window-x="0"
     inkscape:window-y="0"
     inkscape:window-maximized="1"
     inkscape:current-layer="svg10" />
  <path
     d="M 0,0 H 21.333333 V 16 H 0 Z"
     id="path2"
     inkscape:connector-curvature="0"
     style="fill:#ffffff;stroke-width:0.03333334" />
  <path
     d="m 9.0667,0 h 3.2 v 16 h -3.2 z"
     id="path4"
     inkscape:connector-curvature="0"
     style="fill:#ff0000;stroke-width:0.03333334" />
  <path
     d="M 0,6.4 H 21.333333 V 9.6 H 0 Z"
     id="path6"
     inkscape:connector-curvature="0"
     style="fill:#ff0000;stroke-width:0.03333334" />
  <path
     style="mix-blend-mode:multiply;fill:#ff0000;fill-rule:evenodd;stroke-width:0.03333334"
     d="m 4.8949333,12.4385 c 0.0341,-0.5608 0.1323,-1.0385 0.1323,-1.0385 0,0 -0.328,0.0336 -0.4939,0.0336 -0.1634,0 -0.4938,-0.0336 -0.4938,-0.0336 0,0 0.0982,0.4777 0.1323,1.0385 -0.5608333,-0.0342 -1.0385,-0.1323 -1.0385,-0.1323 0,0 0.0336,0.2469 0.0336,0.4938 0,0.247 -0.0336,0.4938 -0.0336,0.4938 0,0 0.4777,-0.0981 1.0385,-0.1323 C 4.1377333,13.7223 4.0395,14.2 4.0395,14.2 c 0,0 0.247,-0.0336 0.4938333,-0.0336 0.247,0 0.4939,0.0336 0.4939,0.0336 0,0 -0.0982,-0.4777 -0.1323333,-1.0385 0.5607333,0.0342 1.0384333,0.1323 1.0384333,0.1323 0,0 -0.0335,-0.328 -0.0335,-0.4938 0,-0.1634 0.0335,-0.4938 0.0335,-0.4938 0,0 -0.4777,0.0981 -1.0384,0.1323 z M 17.1615,2.8385 C 17.1957,2.2777 17.293833,1.8 17.293833,1.8 c 0,0 -0.328,0.0336 -0.493833,0.0336 -0.1634,0 -0.4938,-0.0336 -0.4938,-0.0336 0,0 0.0981,0.4777 0.132333,1.0385 C 15.877667,2.8043 15.4,2.7062 15.4,2.7062 c 0,0 0.0336,0.2469 0.0336,0.4938 0,0.247 -0.0336,0.4938 -0.0336,0.4938 0,0 0.4777,-0.0981 1.0385,-0.1323 C 16.40433,4.1223 16.3062,4.6 16.3062,4.6 c 0,0 0.2469,-0.0336 0.4938,-0.0336 0.247,0 0.4938,0.0336 0.4938,0.0336 0,0 -0.0981,-0.4777 -0.1323,-1.0385 0.5608,0.0342 1.0385,0.1323 1.0385,0.1323 0,0 -0.0336,-0.328 -0.0336,-0.4938 0,-0.1634 0.0336,-0.4938 0.0336,-0.4938 0,0 -0.4777,0.0981 -1.0385,0.1323 z m -12.2665667,0 c 0.034067,-0.5608 0.1323,-1.0385 0.1323,-1.0385 0,0 -0.328,0.0336 -0.4939,0.0336 -0.1634,0 -0.4938,-0.0336 -0.4938,-0.0336 0,0 0.0982,0.4777 0.1323,1.0385 -0.5608333,-0.0342 -1.0385,-0.1323 -1.0385,-0.1323 0,0 0.0336,0.2469 0.0336,0.4938 0,0.247 -0.0336,0.4938 -0.0336,0.4938 0,0 0.4777,-0.0981 1.0385,-0.1323 C 4.1377333,4.1223 4.0395,4.6 4.0395,4.6 c 0,0 0.247,-0.0336 0.4938333,-0.0336 0.247,0 0.4939,0.0336 0.4939,0.0336 0,0 -0.0982,-0.4777 -0.1323333,-1.0385 0.5607333,0.0342 1.0384333,0.1323 1.0384333,0.1323 0,0 -0.0335,-0.328 -0.0335,-0.4938 0,-0.1634 0.0335,-0.4938 0.0335,-0.4938 0,0 -0.4777,0.0981 -1.0384,0.1323 z m 12.2665667,9.6 C 17.1957,11.8777 17.293833,11.4 17.293833,11.4 c 0,0 -0.328,0.0336 -0.493833,0.0336 -0.1634,0 -0.4938,-0.0336 -0.4938,-0.0336 0,0 0.0981,0.4777 0.132333,1.0385 C 15.877667,12.4043 15.4,12.3062 15.4,12.3062 c 0,0 0.0336,0.2469 0.0336,0.4938 0,0.247 -0.0336,0.4938 -0.0336,0.4938 0,0 0.4777,-0.0981 1.0385,-0.1323 -0.03417,0.5608 -0.1323,1.0385 -0.1323,1.0385 0,0 0.2469,-0.0336 0.4938,-0.0336 0.247,0 0.4938,0.0336 0.4938,0.0336 0,0 -0.0981,-0.4777 -0.1323,-1.0385 0.5608,0.0342 1.0385,0.1323 1.0385,0.1323 0,0 -0.0336,-0.328 -0.0336,-0.4938 0,-0.1634 0.0336,-0.4938 0.0336,-0.4938 0,0 -0.4777,0.0981 -1.0385,0.1323 z"
     id="path8"
     inkscape:connector-curvature="0" />
</svg>
