<?xml version="1.0" encoding="UTF-8" standalone="no"?>
<svg
   xmlns:dc="http://purl.org/dc/elements/1.1/"
   xmlns:cc="http://creativecommons.org/ns#"
   xmlns:rdf="http://www.w3.org/1999/02/22-rdf-syntax-ns#"
   xmlns:svg="http://www.w3.org/2000/svg"
   xmlns="http://www.w3.org/2000/svg"
   xmlns:xlink="http://www.w3.org/1999/xlink"
   xmlns:sodipodi="http://sodipodi.sourceforge.net/DTD/sodipodi-0.dtd"
   xmlns:inkscape="http://www.inkscape.org/namespaces/inkscape"
   height="16"
   width="21.333332"
   viewBox="0 0 21.333332 16"
   version="1.1"
   id="svg53"
   sodipodi:docname="gi.svg"
   inkscape:version="0.92.1 r">
  <metadata
     id="metadata59">
    <rdf:RDF>
      <cc:Work
         rdf:about="">
        <dc:format>image/svg+xml</dc:format>
        <dc:type
           rdf:resource="http://purl.org/dc/dcmitype/StillImage" />
        <dc:title></dc:title>
      </cc:Work>
    </rdf:RDF>
  </metadata>
  <defs
     id="defs57" />
  <sodipodi:namedview
     pagecolor="#ffffff"
     bordercolor="#666666"
     borderopacity="1"
     objecttolerance="10"
     gridtolerance="10"
     guidetolerance="10"
     inkscape:pageopacity="0"
     inkscape:pageshadow="2"
     inkscape:window-width="1920"
     inkscape:window-height="1024"
     id="namedview55"
     showgrid="false"
     fit-margin-top="0"
     fit-margin-left="0"
     fit-margin-right="0"
     fit-margin-bottom="0"
     inkscape:zoom="0.49166667"
     inkscape:cx="320"
     inkscape:cy="240"
     inkscape:window-x="0"
     inkscape:window-y="0"
     inkscape:window-maximized="1"
     inkscape:current-layer="svg53" />
  <path
     d="M 0,0 H 21.333333 V 16 H 0 Z"
     id="path2"
     inkscape:connector-curvature="0"
     style="fill:#da000c;stroke-width:0.03333334" />
  <path
     d="M 0,0 H 21.333333 V 10.71877 H 0 Z"
     id="path4"
     inkscape:connector-curvature="0"
     style="fill:#ffffff;stroke-width:0.03333334" />
  <g
     transform="matrix(0.0625,0,0,0.0625,-5.3333333,0)"
     id="g51"
     style="stroke:#000000">
    <g
       id="a"
       style="fill:#da000c;stroke-linecap:square">
      <path
         d="m 196.57,116.303 h 64 v 43.993 h -64 z"
         id="path6"
         inkscape:connector-curvature="0"
         style="fill:#000000;stroke:none" />
      <path
         d="m 229.82,153.865 h -39.07 l -8.66,5.7 v 6.04 h 47.73 m -16.35,-37.011 c 5.624,0 10.218,4.69 10.218,10.47 v 14.78 h 7.343 v -56 h -40.28 v 56 h 12.5 v -14.78 c 0,-5.555 4.515,-10.47 10.22,-10.47 z"
         id="path8"
         inkscape:connector-curvature="0" />
      <path
         d="m 204.528,59.962 h 18.523 v 33.96 H 204.53 Z"
         id="path10"
         inkscape:connector-curvature="0"
         style="fill:#000000;stroke:none" />
      <path
         d="m 223,88.656 h -16.21 v -5.75 h -11.884 v 5.75 h -8.062 v -5.75 h -4.813 V 93.344 H 223 m -36.156,-0.038 h 34.97 v 4.538 h -34.97 z M 200.72,47.625 v 35.28 h 6.07 V 73.22 c 0,-3.63 2.563,-6.6 6.148,-6.782 0.115,-0.006 0.226,0 0.343,0 a 6.78,6.78 0 0 1 6.782,6.78 v 9.688 h 5.782 v -35.28 z m -2.19,-4.781 v 4.78 h 29.25 v -4.78 z m -3.75,-9.156 v 9.156 h 35.095 v -9.157 h -5.406 v 4.657 h -6.532 v -4.657 h -9.97 v 4.657 h -6.53 V 33.687 Z M 182.09,159.564 H 230 m 31,-2.751 h -32.438 l -9.78,4.718 v 7.032 H 261"
         id="path12"
         inkscape:connector-curvature="0" />
      <path
         d="M 218.77,161.52 H 262"
         id="path14"
         inkscape:connector-curvature="0"
         style="stroke-linecap:butt" />
    </g>
    <use
       height="100%"
       width="100%"
       xlink:href="#a"
       transform="matrix(-1,0,0,1,512,0)"
       id="use17"
       x="0"
       y="0" />
    <g
       id="g39"
       style="fill:#f8d80e">
      <g
         id="g27"
         style="stroke-linecap:round">
        <path
           d="m 273.297,150.03 c -2.654,0.884 -5.053,2.37 -7.47,3.754 -3.1,1.83 -6.106,3.827 -8.903,6.1 -0.985,0.648 -1.93,1.36 -2.69,2.272 -1.025,0.878 -2.064,2.055 -1.868,3.513 0.05,0.642 0.873,-0.756 1.414,-0.824 a 4.39,4.39 0 0 1 3.142,-0.47 c 1.27,-1.34 2.91,-2.237 4.325,-3.407 3.004,-2.244 6.236,-4.17 9.525,-5.962 1.148,-0.59 2.3,-1.186 3.525,-1.602 l -1,-3.375 z"
           id="path19"
           inkscape:connector-curvature="0"
           style="stroke-width:0.76800001" />
        <path
           d="m 260.4,157.39 v 3.913 m 2.417,-5.618 v 3.883 m 2.416,-5.388 v 3.858 m 2.417,-5.344 v 3.98"
           id="path21"
           inkscape:connector-curvature="0" />
        <path
           d="m 238.89,150.156 -1.186,3.313 c 5.536,2.1 10.808,4.877 15.797,8.06 1.692,1.15 3.468,2.265 4.797,3.845 0.293,0.81 -0.514,1.49 -1.314,1.244 -0.732,-0.25 -1.453,-0.533 -2.226,-0.005 -1.107,0.503 -2.106,2.14 -0.426,2.69 2.316,1.556 6.083,0.88 7.196,-1.844 0.58,-1.4 0.618,-3.195 -0.508,-4.344 -2.063,-2.364 -4.797,-4.008 -7.42,-5.672 -4.69,-2.82 -9.574,-5.374 -14.707,-7.288 z"
           id="path23"
           inkscape:connector-curvature="0"
           style="stroke-width:0.76800001" />
        <path
           d="m 254.05,158.035 -0.313,3.34 m 3.095,-1.635 -0.862,3.27 m 3.834,-0.998 -1.808,2.537 m 2.719,3.631 -2.61,-1.4 m 3.423,-1.35 -2.995,0.28 m -0.868,4.055 -0.205,-2.633 m -0.892,-0.376 -2.473,1.822 m -9.418,-15.641 v 3.115 m 6.286,0.192 v 3.534 m -3.143,-5.185 v 3.32"
           id="path25"
           inkscape:connector-curvature="0" />
      </g>
      <path
         d="m 235.78,227.563 v 8.03 h 5.032 v -4.03 h 6.844 v 4.03 h 5.406 v -8.03 z m 0,11.062 v 8.063 h 17.282 v -8.063 h -5.406 v 4.03 h -6.844 v -4.03 z"
         id="path29"
         inkscape:connector-curvature="0" />
      <path
         d="m 253.052,193.65 h 4.99 v 58.116 h -4.99 z"
         id="path31"
         inkscape:connector-curvature="0" />
      <path
         d="m 253.052,198.68 h 4.99 v 50.06 h -4.99 z"
         id="path33"
         inkscape:connector-curvature="0" />
      <path
         d="m 255.547,179.406 10.625,6.188 -10.625,6.156 -10.625,-6.156 z m -14.22,3.97 h -2.78 v 4.436 h 2.78 l 14.22,8.25 14.22,-8.25 h 2.78 v -4.437 h -2.78 l -14.22,-8.25 z"
         id="path35"
         inkscape:connector-curvature="0"
         style="stroke-width:1.02400005" />
      <path
         d="m 255.344,164.28 c -2.42,0.34 -4.226,2.73 -4.094,5.135 0.01,3.738 -0.018,7.476 0.014,11.214 0.13,2.407 2.233,4.565 4.675,4.587 1.984,0.188 3.978,-0.972 4.81,-2.78 l -1.718,-1.03 c -0.444,1.183 -1.724,1.917 -2.97,1.78 -1.634,0.046 -2.958,-1.544 -2.812,-3.134 0.01,-3.713 -0.02,-7.428 0.015,-11.14 0.09,-1.516 1.535,-2.755 3.048,-2.6 0.626,-0.18 1.487,0.676 1.875,-0.063 0.583,-0.83 -0.415,-1.477 -0.97,-1.937 -0.613,-0.085 -1.253,-0.008 -1.874,-0.032 z m 5.78,3.907 c -0.395,0.746 -1.215,1.19 -1.874,1.58 v 7.514 l 2,1.157 c -0.008,-3.204 0.016,-6.408 -0.01,-9.61 -0.033,-0.198 -0.01,-0.5 -0.115,-0.64 z"
         id="path37"
         inkscape:connector-curvature="0"
         style="stroke-width:1.02400005" />
    </g>
    <g
       id="g49"
       style="fill:#da000c">
      <path
         d="m 240.803,38.35 h 29.33 v 53.256 h -29.33 z"
         id="path41"
         inkscape:connector-curvature="0"
         style="fill:#000000;stroke:none" />
      <path
         d="m 238.75,38.375 v 44.563 h 9.313 v -13.22 c 0,-3.048 1.952,-7.28 7.937,-7.28 5.985,0 7.938,4.232 7.938,7.28 v 13.22 h 9.312 V 38.374 Z m 15.813,5 h 2.875 v 15.25 h -2.875 z m -8.25,3 h 2.906 V 57.53 h -2.907 z m 16.468,0 h 2.908 V 57.53 h -2.907 z M 235.594,31.97 v 6.343 h 40.812 v -6.344 z m -3.844,-7.376 v 7.375 h 48.5 v -7.376 h -6.094 v 4.062 h -6.875 v -4.062 h -7.842 v 4.062 h -6.875 v -4.062 h -7.844 v 4.062 h -6.876 v -4.062 z m -9,73.25 v 4.594 h 66.5 v -4.594 z"
         id="path43"
         inkscape:connector-curvature="0" />
      <path
         d="m 220.03,82.906 v 14.938 h 71.94 V 82.906 h -6.814 v 5.75 h -9.062 v -5.75 h -12.156 v 5.75 h -15.875 v -5.75 h -12.157 v 5.75 h -9.062 v -5.75 z"
         id="path45"
         inkscape:connector-curvature="0" />
      <path
         d="m 228.688,102.438 v 54.343 h 12.843 v -20.343 c 0,-9.582 6.398,-14.093 14.47,-14.093 7.76,0 14.47,4.51 14.47,14.094 v 20.343 h 12.842 v -54.343 z"
         id="path47"
         inkscape:connector-curvature="0"
         style="stroke-linejoin:round" />
    </g>
  </g>
</svg>
