<?xml version="1.0" encoding="UTF-8" standalone="no"?>
<svg
   xmlns:dc="http://purl.org/dc/elements/1.1/"
   xmlns:cc="http://creativecommons.org/ns#"
   xmlns:rdf="http://www.w3.org/1999/02/22-rdf-syntax-ns#"
   xmlns:svg="http://www.w3.org/2000/svg"
   xmlns="http://www.w3.org/2000/svg"
   xmlns:sodipodi="http://sodipodi.sourceforge.net/DTD/sodipodi-0.dtd"
   xmlns:inkscape="http://www.inkscape.org/namespaces/inkscape"
   height="16"
   width="21.333332"
   viewBox="0 0 21.333332 16"
   version="1.1"
   id="svg48"
   sodipodi:docname="gq.svg"
   inkscape:version="0.92.1 r">
  <metadata
     id="metadata54">
    <rdf:RDF>
      <cc:Work
         rdf:about="">
        <dc:format>image/svg+xml</dc:format>
        <dc:type
           rdf:resource="http://purl.org/dc/dcmitype/StillImage" />
        <dc:title></dc:title>
      </cc:Work>
    </rdf:RDF>
  </metadata>
  <defs
     id="defs52" />
  <sodipodi:namedview
     pagecolor="#ffffff"
     bordercolor="#666666"
     borderopacity="1"
     objecttolerance="10"
     gridtolerance="10"
     guidetolerance="10"
     inkscape:pageopacity="0"
     inkscape:pageshadow="2"
     inkscape:window-width="1920"
     inkscape:window-height="1024"
     id="namedview50"
     showgrid="false"
     fit-margin-top="0"
     fit-margin-left="0"
     fit-margin-right="0"
     fit-margin-bottom="0"
     inkscape:zoom="0.49166667"
     inkscape:cx="320"
     inkscape:cy="240"
     inkscape:window-x="0"
     inkscape:window-y="0"
     inkscape:window-maximized="1"
     inkscape:current-layer="svg48" />
  <path
     d="M 0,0 H 21.333333 V 16 H 0 Z"
     id="path2"
     inkscape:connector-curvature="0"
     style="fill:#e32118;stroke-width:0.03333334" />
  <path
     d="M 0,0 H 21.333333 V 10.66667 H 0 Z"
     id="path4"
     inkscape:connector-curvature="0"
     style="fill:#ffffff;stroke-width:0.03333334" />
  <path
     d="M 0,0 H 21.333333 V 5.33333 H 0 Z"
     id="path6"
     inkscape:connector-curvature="0"
     style="fill:#3e9a00;stroke-width:0.03333334" />
  <path
     d="M 0,0 V 16 L 6,8 Z"
     id="path8"
     inkscape:connector-curvature="0"
     style="fill:#0073ce;stroke-width:0.03333334" />
  <g
     id="g46"
     transform="scale(0.03333333)"
     style="stroke:#000000">
    <path
       d="m 281.563,191.76 h 76.6 V 272 c 0,27 -35.2,6.2 -38.2,20.6 -5.2,-14.8 -38.2,6.6 -38.2,-22.2 0,-28 -0.2,-78.64 -0.2,-78.64 z"
       id="path10"
       inkscape:connector-curvature="0"
       style="fill:#ffffff;stroke-width:0.95999998" />
    <path
       d="m 325.363,279.8 c 0,0 -1,1 -2.8,0.2 -1.8,-0.8 -2,-51.4 -2,-51.4 4,-4.4 7.2,-5.8 7.2,-5.8 l 2.4,2 c -9,4.6 -8.2,11.2 -7.4,22.6 0.2,4.2 0.2,9.6 1.2,14.8 1.4,6.6 4.2,12.2 4.4,16.4 0.2,2.6 -3,1.2 -3,1.2 z"
       id="path12"
       inkscape:connector-curvature="0"
       style="fill:#73452b;stroke-width:0.2" />
    <path
       d="m 319.163,221.6 h 3.6 c -3,29 -0.4,46.2 -0.4,54.6 0,2.8 1.6,3.8 1.4,3.8 -3.6,4 -5.4,-0.2 -5.4,-0.2 z"
       id="path14"
       inkscape:connector-curvature="0"
       style="fill:#73452b;stroke-width:0.2" />
    <path
       d="m 313.563,279.8 c -3.4,1.6 -3.8,-1.6 -3.6,-2 7.4,-15 10.6,-48 3.8,-51.6 l 0.4,-3.2 c 2.6,0.8 5,4.2 5,4.2 1,37 0,52.2 -0.6,52.8 -3.6,3.8 -5,-0.6 -5.2,-1"
       id="path16"
       inkscape:connector-curvature="0"
       style="fill:#a36629;stroke-width:0.2" />
    <path
       d="m 313.363,279.2 c -0.6,-3.2 5.2,-11.4 4.8,-20 m 5,7 c 1.8,5 2.6,9.4 2.2,13.6"
       id="path18"
       inkscape:connector-curvature="0"
       style="fill:none;stroke-width:0.2" />
    <path
       d="m 330.963,208 c 1.2,-1.4 1.2,-1.4 3.4,-1.4 0.4,-3 5.4,-3 5.8,0.8 4,-0.8 4.8,1.6 3.2,4 3.8,-1 7.2,0 6.2,4.4 6.8,1.8 4.2,6.6 1.2,7.6 -0.4,3 -3.2,4 -7,2.8 -4.8,3.4 -7.6,2.2 -9.8,-1.2 -5.4,0.8 -5.8,-0.4 -8.2,-3.4 -4.2,1.8 -5,1.8 -8.6,-0.4 -0.2,2.8 -1.2,2 -3,1.8 0.2,3.6 -1.2,5.2 -4.4,4 2.4,5 -3.8,7.2 -6.8,3 -2.8,0.2 -3,-0.6 -4.4,-1.6 -1.2,4 -5.6,3.4 -6.4,1.2 -5.6,-0.8 -5,-3.8 -0.4,-4 0.4,-3.2 3.2,-2.6 5,-2.2 0.2,-2 1.4,-1.6 2.4,-1.2 -0.6,-1.4 -0.2,-2.2 1.6,-2.6 -2.6,-3.4 -1,-4.6 1.6,-5.8 -1.4,-3.2 1,-3 2.8,-3.2 -0.2,-3.4 0.8,-4 4.4,-4.4 -0.4,-1.2 0.2,-2.2 2.2,-2.2 -1.2,-3.4 0.4,-4.18 4,-3.6 0.6,-4.94 11.2,-2.6 10.4,4.2 3,0.4 4,1 4.8,3.4 z"
       id="path20"
       inkscape:connector-curvature="0"
       style="fill:#009a3b;stroke-width:0.2" />
    <g
       id="g24"
       style="fill:none">
      <path
         d="m 309.563,206.2 c 0.8,0.4 1.8,0 2,2.2 1.6,-2.8 3.6,-1.2 3.6,2 m 11,-5.8 c -0.8,1.2 -3.8,1.2 -3.4,4.4 -1,-1.4 -3,-1.8 -3.8,-0.4 m 12,-0.6 c 0,0.8 -0.2,3.2 -1,4.4 m 13.4,-1 c 0.2,0.2 -2.8,0 -4.2,1 m 11.6,11 c -0.8,-0.4 -2.4,-1.4 -3.6,0.2 0,-0.8 0,-3 -2.2,-3 m -1.2,5.6 c 0,-2 -0.4,-2.6 -0.8,-3.2 m -5.8,0.4 c -1.6,-1.2 -3.2,0.6 -3.2,1.6 m -8.4,-3.4 c 0,-0.8 -0.6,-2.4 0.8,-3 m -23.6,11.4 c 0.4,-2 1.8,-2 1.6,-3 -0.2,-1.6 -2,-3 -4.2,-0.8 m 4.2,0.8 c 1.2,-0.4 2.4,-0.2 2.8,0.4 m -6.2,-7.8 c 0.8,-0.8 2.8,-0.6 4,0 m 0,-4.8 c 1,0 2.8,-0.4 3.4,1.4 2.2,-3.4 3.8,-3 4.2,-2.2 m 4,-0.4 c 1.6,-0.6 4.4,1 6,3.8 0.8,-2.2 2,-1.8 3.2,-2 m 7.6,2 c 2.6,-1.2 4.2,1.2 5,2.2 1.2,-1.6 2.2,-1.6 3.4,-1.6 m -32.6,4.2 c 0.6,-1 2,-1.2 3,-0.6 -0.2,-1.8 1,-2.6 1.8,-2.2"
         id="path22"
         inkscape:connector-curvature="0"
         style="stroke-width:0.2" />
    </g>
    <g
       id="g28"
       style="fill:#ffd700;stroke-width:3.5">
      <path
         d="m 317.363,180.52 -4.4,0.2 -2.2,3.94 -2.4,-3.76 -4.4,0.18 2,-3.96 -2.4,-3.76 4.6,-0.2 2,-3.94 2.4,3.76 4.4,-0.18 -2,3.96 z m -18.8,1.46 -4.4,1.08 -1.2,4.26 -3.2,-3.2 -4.2,1.04 1.2,-4.26 -3,-3.24 4.2,-1.06 1.2,-4.28 3.2,3.2 4.4,-1.04 -1.4,4.28 z m -18.2,3.74 -4,1.98 -0.2,4.44 -3.8,-2.44 -4,1.96 0.4,-4.44 -3.8,-2.46 4,-2 0.4,-4.44 3.6,2.44 4,-1.96 -0.2,4.44 z m 42.8,-5.2 4.4,0.2 2,3.94 2.4,-3.76 4.4,0.18 -2,-3.96 2.4,-3.76 -4.4,-0.2 -2.2,-3.94 -2.4,3.76 -4.4,-0.18 2,3.96 z m 18.8,1.46 4.2,1.08 1.2,4.26 3.2,-3.2 4.2,1.04 -1.2,-4.26 3.2,-3.24 -4.4,-1.06 -1.2,-4.28 -3.2,3.2 -4.2,-1.04 1.2,4.28 z m 18,3.74 4,1.98 0.2,4.44 3.8,-2.44 4,1.96 -0.2,-4.44 3.6,-2.46 -4,-2 -0.2,-4.44 -3.8,2.44 -4,-1.96 0.4,4.44 z"
         id="path26"
         inkscape:connector-curvature="0"
         style="stroke-width:0.69999999" />
    </g>
    <g
       id="g44">
      <g
         id="g38"
         style="fill:#ffffff;stroke-width:3.5">
        <path
           d="m 365.363,270.4 5,7.2 4.6,-6.8 -3.2,-5.8 z m -31.8,21 0.4,7.2 c 0,0 2,0 3.8,-0.6 1.6,-0.6 3,-1.8 3,-1.8 l -0.2,-3.8 z m -26.8,0 -0.4,7 c 0,0 -1.8,0 -3.6,-0.4 -1.6,-0.4 -3,-1.4 -3,-1.4 l -2,-4.8 z m -32.2,-21 -5.2,7.2 -5.6,-9.2 4.2,-4.4 z"
           id="path30"
           inkscape:connector-curvature="0"
           style="stroke-width:0.69999999" />
        <path
           d="m 299.563,305.8 c 0,6.8 41.2,6.8 41.2,0 v -9.6 c 0,5 -41.2,4 -41.2,0 z"
           id="path32"
           inkscape:connector-curvature="0"
           style="stroke-width:0.69999999" />
        <path
           d="m 262.763,283.6 c 3.6,18.4 36.8,18.8 36.8,18.8 v -6.2 c -0.8,-2.4 0.6,-3.2 6,-4 2.2,-0.2 1.2,-3.4 1.2,-3.4 0,0 -14.4,2.6 -24.6,-1.4 -13.8,-5.6 -15.8,-16.4 -15.8,-16.4 0,0 -1,8.4 -3.6,12.6 z m 114.6,0 c -3.4,18.4 -36.6,18.8 -36.6,18.8 v -6.2 c 0.6,-2.4 -0.8,-3.2 -6.2,-4 -2.2,-0.2 -1,-3.4 -1,-3.4 0,0 14.4,2.6 24.6,-1.4 13.6,-5.6 15.2,-16.4 15.2,-16.4 0,0 1.4,8.4 4,12.6 z"
           id="path34"
           inkscape:connector-curvature="0"
           style="stroke-width:0.69999999" />
        <path
           d="m 265.363,276.6 c -9.2,-5 -2,-10.2 -1.2,-25 1.4,9 11.6,12.8 10.4,18.6 -4.2,0.2 -6.2,-6.2 -8.2,0.8 z m 109.4,0 c 9.2,-5.2 1.6,-10.2 0.8,-25 -1.4,9 -11.4,12.8 -10.2,18.6 4,0.2 6,-6.2 8,0.8 l 1.4,5.4 z"
           id="path36"
           inkscape:connector-curvature="0"
           style="stroke-width:0.69999999" />
      </g>
      <g
         id="g42"
         style="stroke:none">
        <path
           d="m 270.963,283.4 1,0.8 -2.2,2.4 c -0.88,0.96 -1.093,1.596 -0.481,2.181 0.759,0.726 1.293,0.474 2.081,-0.381 l 2.4,-2.6 0.8,0.8 -2.397,2.798 c -1.302,1.519 -2.51,1.171 -3.524,0.224 -0.883,-0.824 -1.39,-2.02 -0.09,-3.49 l 2.42,-2.72 z m 4,3.4 1,0.6 -0.2,4.8 2.2,-3.4 1,0.6 -3.2,5.2 -1.2,-0.6 0.2,-4.8 -2.2,3.4 -1,-0.6 z m 1.8,8.4 2.8,-5.6 1,0.6 -2.6,5.4 z m 4.4,-4.8 -2.208,5.796 2.208,0.804 c 2.058,0.75 3.024,-0.156 3.678,-1.896 0.66,-1.77 0.372,-3.072 -1.686,-3.9 z m 0.792,1.404 c 2.07,0.72 2.196,1.506 1.632,2.928 -0.546,1.35 -1.056,1.878 -3.024,0.864 z m 5.808,0.796 -3.6,5.4 1.392,0.408 0.804,-1.404 2.4,0.6 0.204,1.404 1.392,0.192 -1.392,-6.396 z m 0.396,1.404 0.396,2.4 -1.596,-0.204 z m 3.024,-0.884 -0.216,6.198 2.354,0.046 c 2.188,0.042 2.81,-1.124 2.864,-2.982 0.054,-1.89 -0.642,-3.03 -2.86,-3.143 l -2.141,-0.12 z m 1.201,1.075 c 2.193,0.01 2.568,0.71 2.49,2.24 -0.073,1.454 -0.39,2.117 -2.576,1.793 z m 19.779,7.605 v 6.396 h 1.404 v -2.4 c 0,0 1.2,0.072 2.196,-0.192 0.786,-0.204 1.332,-0.708 1.35,-1.95 0.018,-1.218 -0.69,-1.854 -1.914,-1.854 h -3.04 z m 1.404,0.996 1.41,0.018 c 1.176,0 0.954,1.782 0.036,1.782 h -1.446 z m 5.796,-0.996 -2.604,6.396 h 1.404 l 0.6,-1.596 h 2.604 l 0.6,1.596 h 1.392 l -2.6,-6.4 h -1.4 z m 0.6,1.404 0.996,2.4 h -1.8 z m 3.4,3.796 3.4,-4.2 h -3 v -1 h 4.8 v 1 l -3.6,4.2 h 3.6 v 1.2 h -5.2 z m 20.2,-12.4 1.2,-0.2 0.6,3.6 c 0.214,1.28 -0.371,2.153 -1.282,2.489 -1.038,0.383 -2.362,0.033 -2.518,-1.689 l 1,-0.2 c 0.233,1.03 0.648,1.12 1.128,0.958 0.38,-0.128 0.577,-0.728 0.472,-1.358 z m 2,-0.36 1.185,-0.225 0.548,2.996 c 0.234,1.282 0.636,1.827 1.47,1.682 1.034,-0.18 1.148,-0.76 0.928,-1.902 l -0.736,-3.196 1.211,-0.183 0.804,3.324 c 0.47,1.945 -0.546,2.716 -1.91,2.97 -1.187,0.222 -2.45,-0.08 -2.864,-1.997 z m 6.2,2.76 1,-0.4 c 0.491,0.881 1.256,0.836 1.851,0.573 0.827,-0.366 0.922,-1.088 0.513,-1.333 -0.583,-0.349 -1.974,0.147 -2.723,-0.127 -0.896,-0.327 -1.281,-0.831 -1.235,-1.606 0.055,-0.933 0.876,-1.446 1.769,-1.723 0.999,-0.31 1.985,-0.2 2.625,1.016 l -1.2,0.4 c -0.39,-0.657 -0.893,-0.626 -1.339,-0.416 -0.373,0.177 -0.957,0.508 -0.644,1.042 0.255,0.436 1.725,0.153 2.5,0.184 0.8,0.033 1.447,0.567 1.555,1.338 0.151,1.073 -0.246,1.655 -1.488,2.139 -1.533,0.598 -2.916,-0.072 -3.183,-1.087 z m 5.4,-5 -1.6,0.8 -0.4,-1 4.4,-1.8 0.4,0.8 -1.6,0.8 1.8,4.4 -1,0.6 z m 2.6,-2.2 1,-0.6 2.8,5.2 -1,0.6 z m 6.8,0.4 1.2,-0.4 c 0.565,1.186 -0.283,3.343 -2.355,3.299 -3.032,-0.065 -3.36,-3.406 -2.884,-4.508 0.801,-1.85 3.045,-1.815 4.04,-0.791 l -1,0.8 c -0.634,-0.813 -2.043,-0.3 -2.138,0.447 -0.155,1.222 0.382,2.358 1.474,2.897 0.926,0.457 2.352,-0.692 1.663,-1.744 z m -0.6,-4.2 1,-0.8 3.6,4.8 -1,0.8 z m 3.8,-3 -0.996,0.804 2.196,6 0.996,-0.996 -0.6,-1.2 1.8,-1.608 1.2,0.6 1.008,-0.792 z m 0.396,1.404 2.004,0.996 -1.2,1.2 z"
           id="path40"
           inkscape:connector-curvature="0" />
      </g>
    </g>
  </g>
</svg>
