<?xml version="1.0" encoding="UTF-8" standalone="no"?>
<svg
   xmlns:dc="http://purl.org/dc/elements/1.1/"
   xmlns:cc="http://creativecommons.org/ns#"
   xmlns:rdf="http://www.w3.org/1999/02/22-rdf-syntax-ns#"
   xmlns:svg="http://www.w3.org/2000/svg"
   xmlns="http://www.w3.org/2000/svg"
   xmlns:sodipodi="http://sodipodi.sourceforge.net/DTD/sodipodi-0.dtd"
   xmlns:inkscape="http://www.inkscape.org/namespaces/inkscape"
   height="16"
   width="21.333437"
   viewBox="0 0 21.333437 16"
   version="1.1"
   id="svg55"
   sodipodi:docname="hk.svg"
   inkscape:version="0.92.1 r">
  <metadata
     id="metadata59">
    <rdf:RDF>
      <cc:Work
         rdf:about="">
        <dc:format>image/svg+xml</dc:format>
        <dc:type
           rdf:resource="http://purl.org/dc/dcmitype/StillImage" />
        <dc:title></dc:title>
      </cc:Work>
    </rdf:RDF>
  </metadata>
  <sodipodi:namedview
     pagecolor="#ffffff"
     bordercolor="#666666"
     borderopacity="1"
     objecttolerance="10"
     gridtolerance="10"
     guidetolerance="10"
     inkscape:pageopacity="0"
     inkscape:pageshadow="2"
     inkscape:window-width="1920"
     inkscape:window-height="1024"
     id="namedview57"
     showgrid="false"
     fit-margin-top="0"
     fit-margin-left="0"
     fit-margin-right="0"
     fit-margin-bottom="0"
     inkscape:zoom="0.49166667"
     inkscape:cx="320.22512"
     inkscape:cy="241.28"
     inkscape:window-x="0"
     inkscape:window-y="0"
     inkscape:window-maximized="1"
     inkscape:current-layer="svg55" />
  <defs
     id="defs5">
    <clipPath
       id="a">
      <path
         d="m -89.048,0 h 682.67 v 512 h -682.67 z"
         id="path2"
         inkscape:connector-curvature="0"
         style="fill-opacity:0.67000002" />
    </clipPath>
  </defs>
  <g
     clip-path="url(#a)"
     transform="matrix(0.03125,0,0,0.03125,2.78275,0)"
     id="g53">
    <path
       d="M 618,512 H -113.43 V 0 H 618 Z"
       id="path7"
       inkscape:connector-curvature="0"
       style="fill:#ba0000;fill-rule:evenodd" />
    <path
       d="m 241.874,247.803 c 0,0 -51.62,-22.226 -44.213,-79.817 7.172,-27.723 19.837,-46.602 42.78,-56.878 10.753,-3.346 21.748,-4.78 32.98,-5.736 -2.95,2.788 -5.417,5.577 -6.692,9.082 -2.47,6.293 -0.638,12.347 2.628,18.4 4.142,7.01 6.61,14.26 7.408,23.66 1.513,13.223 -4.142,25.97 -14.578,33.697 -6.612,5.1 -14.418,6.852 -20.792,12.667 -4.938,4.86 -7.965,9.72 -9.08,18.162 -0.16,16.09 4.223,18.322 9.56,26.766 z"
       id="path9"
       inkscape:connector-curvature="0"
       style="fill:#ffffff;fill-rule:evenodd" />
    <path
       d="m 232.076,164.476 v -0.238"
       id="path11"
       inkscape:connector-curvature="0"
       style="fill:#ba0000;fill-rule:evenodd;stroke:#000000;stroke-width:2.15199995" />
    <path
       d="m 235.337,241.823 c -20.078,-17.766 -18.323,-62.45 -3.027,-77.347"
       id="path13"
       inkscape:connector-curvature="0"
       style="fill:none;stroke:#ba0000;stroke-width:2.15199995" />
    <path
       d="m 244.634,154.48 3.3,5.518 -6.12,-2.493 -4.574,4.91 0.8,-6.445 -6.126,-2.484 6.614,-1.49 0.787,-6.446 3.29,5.525 6.61,-1.5"
       id="path15"
       inkscape:connector-curvature="0"
       style="fill:#ba0000;fill-rule:evenodd" />
    <path
       d="m 246.26,243.992 c 0,0 6.125,-55.866 63.36,-65.66 28.607,-1.267 50.368,5.31 66.916,24.234 6.35,9.302 10.942,19.393 15.147,29.852 -3.53,-2.002 -6.918,-3.545 -10.643,-3.736 -6.74,-0.518 -11.992,3.008 -16.824,7.904 -5.488,6.015 -11.696,10.498 -20.45,14.015 -12.2,5.323 -26.044,3.65 -36.49,-4.063 -6.81,-4.828 -10.774,-11.777 -18.2,-16.168 -6.095,-3.298 -11.63,-4.768 -20.028,-3.36 -15.432,4.562 -16.28,9.406 -22.79,16.983 z"
       id="path17"
       inkscape:connector-curvature="0"
       style="fill:#ffffff;fill-rule:evenodd" />
    <path
       d="m 323.06,210.208 0.227,-0.07"
       id="path19"
       inkscape:connector-curvature="0"
       style="fill:#ba0000;fill-rule:evenodd;stroke:#000000;stroke-width:2.15199995" />
    <path
       d="m 250.062,235.99 c 11.104,-24.402 54.34,-35.818 73.066,-25.56"
       id="path21"
       inkscape:connector-curvature="0"
       style="fill:none;stroke:#ba0000;stroke-width:2.15199995" />
    <path
       d="m 336.298,219.285 -4.31,4.77 0.59,-6.58 -6.035,-2.934 6.396,-1.123 0.58,-6.584 3.362,5.887 6.393,-1.137 -4.318,4.764 3.372,5.88"
       id="path23"
       inkscape:connector-curvature="0"
       style="fill:#ba0000;fill-rule:evenodd" />
    <path
       d="m 250.118,248.027 c 0,0 54.92,-11.935 82.382,39.225 10.287,26.723 10.962,49.447 -1.727,71.148 -6.803,8.975 -14.914,16.535 -23.495,23.844 0.777,-3.983 1.164,-7.687 0.162,-11.28 -1.65,-6.555 -6.66,-10.415 -12.838,-13.44 -7.446,-3.296 -13.67,-7.758 -19.784,-14.94 -8.92,-9.88 -11.732,-23.538 -7.736,-35.892 2.415,-7.993 7.747,-13.957 9.55,-22.394 1.192,-6.826 0.828,-12.54 -3.174,-20.057 -9.227,-13.183 -14.09,-12.45 -23.342,-16.215 z"
       id="path25"
       inkscape:connector-curvature="0"
       style="fill:#ffffff;fill-rule:evenodd" />
    <path
       d="m 306.543,310.12 0.14,0.193"
       id="path27"
       inkscape:connector-curvature="0"
       style="fill:#ba0000;fill-rule:evenodd;stroke:#000000;stroke-width:2.15199995" />
    <path
       d="m 258.913,249.09 c 26.665,2.78 51.22,40.15 47.44,61.165"
       id="path29"
       inkscape:connector-curvature="0"
       style="fill:none;stroke:#ba0000;stroke-width:2.15199995" />
    <path
       d="m 302.14,325.555 -5.893,-2.572 6.43,-1.53 0.864,-6.654 3.098,5.706 6.428,-1.54 -4.515,5.058 3.11,5.7 -5.888,-2.58 -4.507,5.064"
       id="path31"
       inkscape:connector-curvature="0"
       style="fill:#ba0000;fill-rule:evenodd" />
    <g
       id="g41">
      <path
         d="m 248.88,253.69 c 0,0 26.88,49.358 -14.51,90.083 -22.758,17.38 -44.378,24.407 -68.77,18.323 -10.524,-4.01 -20.057,-9.67 -29.482,-15.853 4.04,-0.373 7.704,-1.042 10.87,-3.012 5.83,-3.423 8.127,-9.317 9.297,-16.095 1.07,-8.072 3.605,-15.298 8.782,-23.184 6.975,-11.335 19.295,-17.87 32.275,-17.503 8.35,0.074 15.57,3.515 24.175,2.877 6.885,-0.773 12.267,-2.727 18.358,-8.68 10.062,-12.557 7.992,-17.02 9.008,-26.956 z"
         id="path33"
         inkscape:connector-curvature="0"
         style="fill:#ffffff;fill-rule:evenodd" />
      <path
         d="m 205.134,325.283 -0.147,0.188"
         id="path35"
         inkscape:connector-curvature="0"
         style="fill:#ba0000;fill-rule:evenodd;stroke:#000000;stroke-width:2.15199995" />
      <path
         d="m 250.33,262.43 c 4.823,26.373 -24.15,60.436 -45.38,62.708"
         id="path37"
         inkscape:connector-curvature="0"
         style="fill:none;stroke:#ba0000;stroke-width:2.15199995" />
      <path
         d="m 189.083,325.392 0.813,-6.378 3.275,5.74 6.63,-1.04 -4.61,4.577 3.284,5.737 -6.12,-2.912 -4.6,4.584 0.824,-6.377 -6.127,-2.902"
         id="path39"
         inkscape:connector-curvature="0"
         style="fill:#ba0000;fill-rule:evenodd" />
    </g>
    <g
       id="g51">
      <path
         d="m 242.792,252.62 c 0,0 -37.622,41.75 -89.786,16.245 -23.953,-15.692 -37.766,-33.748 -40.13,-58.774 0.283,-11.258 2.454,-22.13 5.155,-33.074 1.695,3.686 3.543,6.92 6.454,9.252 5.166,4.36 11.49,4.568 18.27,3.42 7.97,-1.673 15.627,-1.683 24.785,0.58 13.008,2.813 23.264,12.26 27.232,24.625 2.705,7.9 1.858,15.854 5.32,23.757 3.016,6.237 6.647,10.664 14.284,14.43 15.188,5.32 18.71,1.885 28.42,-0.46 z"
         id="path43"
         inkscape:connector-curvature="0"
         style="fill:#ffffff;fill-rule:evenodd" />
      <path
         d="m 160.732,235.146 -0.226,-0.076"
         id="path45"
         inkscape:connector-curvature="0"
         style="fill:#ba0000;fill-rule:evenodd;stroke:#000000;stroke-width:2.15199995" />
      <path
         d="m 235.03,256.89 c -23.27,13.312 -65.026,-2.696 -74.223,-21.965"
         id="path47"
         inkscape:connector-curvature="0"
         style="fill:none;stroke:#ba0000;stroke-width:2.15199995" />
      <path
         d="m 155.296,220.043 6.286,-1.352 -4.327,4.997 3.183,5.907 -5.847,-2.826 -4.32,5.002 0.714,-6.74 -5.852,-2.816 6.288,-1.34 0.702,-6.744"
         id="path49"
         inkscape:connector-curvature="0"
         style="fill:#ba0000;fill-rule:evenodd" />
    </g>
  </g>
</svg>
