<?xml version="1.0" encoding="UTF-8" standalone="no"?>
<svg
   xmlns:dc="http://purl.org/dc/elements/1.1/"
   xmlns:cc="http://creativecommons.org/ns#"
   xmlns:rdf="http://www.w3.org/1999/02/22-rdf-syntax-ns#"
   xmlns:svg="http://www.w3.org/2000/svg"
   xmlns="http://www.w3.org/2000/svg"
   xmlns:sodipodi="http://sodipodi.sourceforge.net/DTD/sodipodi-0.dtd"
   xmlns:inkscape="http://www.inkscape.org/namespaces/inkscape"
   height="15.999998"
   width="21.333332"
   viewBox="0 0 21.333332 15.999998"
   version="1.1"
   id="svg14"
   sodipodi:docname="hm.svg"
   inkscape:version="0.92.1 r">
  <metadata
     id="metadata20">
    <rdf:RDF>
      <cc:Work
         rdf:about="">
        <dc:format>image/svg+xml</dc:format>
        <dc:type
           rdf:resource="http://purl.org/dc/dcmitype/StillImage" />
        <dc:title></dc:title>
      </cc:Work>
    </rdf:RDF>
  </metadata>
  <defs
     id="defs18" />
  <sodipodi:namedview
     pagecolor="#ffffff"
     bordercolor="#666666"
     borderopacity="1"
     objecttolerance="10"
     gridtolerance="10"
     guidetolerance="10"
     inkscape:pageopacity="0"
     inkscape:pageshadow="2"
     inkscape:window-width="1920"
     inkscape:window-height="1024"
     id="namedview16"
     showgrid="false"
     fit-margin-top="0"
     fit-margin-left="0"
     fit-margin-right="0"
     fit-margin-bottom="0"
     inkscape:zoom="0.49166667"
     inkscape:cx="320"
     inkscape:cy="240"
     inkscape:window-x="0"
     inkscape:window-y="0"
     inkscape:window-maximized="1"
     inkscape:current-layer="svg14" />
  <g
     id="g12"
     transform="scale(0.03333333)"
     style="stroke-width:1.00000003pt">
    <path
       d="M 0,0 H 640 V 480 H 0 Z"
       id="path2"
       inkscape:connector-curvature="0"
       style="fill:#000066" />
    <path
       d="m 0,0 v 30.59 l 372.58,243.023 h 46.898 v -30.59 L 46.898,0 Z M 419.478,0 V 30.59 L 46.898,273.612 H 0 v -30.59 L 372.58,0 Z"
       id="path4"
       inkscape:connector-curvature="0"
       style="fill:#ffffff" />
    <path
       d="m 174.782,0 v 273.612 h 69.913 V 0 Z M 0,91.204 v 91.204 H 419.478 V 91.204 Z"
       id="path6"
       inkscape:connector-curvature="0"
       style="fill:#ffffff" />
    <path
       d="m 0,109.445 v 54.722 H 419.478 V 109.445 Z M 188.765,0 v 273.612 h 41.948 V 0 Z M 0,273.612 139.826,182.408 h 31.265 L 31.266,273.612 Z M 0,0 139.826,91.204 H 108.56 L 0,20.394 Z M 248.387,91.204 388.213,0 h 31.265 L 279.652,91.204 Z m 171.09,182.408 -139.825,-91.204 h 31.265 l 108.56,70.81 z"
       id="path8"
       inkscape:connector-curvature="0"
       style="fill:#cc0000" />
    <path
       d="m 125.512,416.48 -27.478,-2.388 23.717,-14.077 -15.26,-22.972 25.79,9.766 8.448,-26.258 8.447,26.257 25.79,-9.767 -15.26,22.972 23.716,14.077 -27.477,2.39 3.786,27.32 -19.002,-19.993 -19.002,19.993 m 370.437,1.897 -19.346,-1.684 16.698,-9.913 -10.748,-16.173 18.165,6.877 5.943,-18.49 5.943,18.49 18.164,-6.877 -10.748,16.173 16.698,9.913 -19.346,1.684 2.67,19.23 -13.382,-14.072 -13.382,14.073 m 2.671,-307.008 -19.346,-1.683 16.698,-9.912 -10.748,-16.175 18.165,6.878 5.943,-18.487 5.943,18.488 18.164,-6.878 -10.748,16.175 16.698,9.912 -19.346,1.684 2.67,19.232 -13.382,-14.073 -13.382,14.072 m -105.245,97.677 -19.346,-1.684 16.698,-9.913 -10.748,-16.173 18.165,6.877 5.943,-18.49 5.943,18.49 18.165,-6.877 -10.748,16.173 16.698,9.913 -19.346,1.684 2.67,19.23 -13.382,-14.072 -13.382,14.073 m 206.48,-48.009 -19.317,-1.683 16.728,-9.915 -10.77,-16.173 18.18,6.878 5.9,-18.49 5.97,18.49 18.13,-6.878 -10.72,16.173 16.692,9.914 -19.353,1.682 2.662,19.23 -13.383,-14.07 -13.38,14.07 m -22.247,40.414 -9.503,8.022 2.97,12.08 -10.575,-6.555 -10.575,6.555 2.97,-12.08 -9.503,-8.02 12.41,-0.915 4.698,-11.518 4.698,11.518"
       id="path10"
       inkscape:connector-curvature="0"
       style="fill:#ffffff;fill-rule:evenodd" />
  </g>
</svg>
