<?xml version="1.0" encoding="UTF-8" standalone="no"?>
<svg
   xmlns:dc="http://purl.org/dc/elements/1.1/"
   xmlns:cc="http://creativecommons.org/ns#"
   xmlns:rdf="http://www.w3.org/1999/02/22-rdf-syntax-ns#"
   xmlns:svg="http://www.w3.org/2000/svg"
   xmlns="http://www.w3.org/2000/svg"
   xmlns:sodipodi="http://sodipodi.sourceforge.net/DTD/sodipodi-0.dtd"
   xmlns:inkscape="http://www.inkscape.org/namespaces/inkscape"
   height="16"
   width="21.333437"
   viewBox="0 0 21.333437 16"
   version="1.1"
   id="svg19"
   sodipodi:docname="il.svg"
   inkscape:version="0.92.1 r">
  <metadata
     id="metadata23">
    <rdf:RDF>
      <cc:Work
         rdf:about="">
        <dc:format>image/svg+xml</dc:format>
        <dc:type
           rdf:resource="http://purl.org/dc/dcmitype/StillImage" />
        <dc:title></dc:title>
      </cc:Work>
    </rdf:RDF>
  </metadata>
  <sodipodi:namedview
     pagecolor="#ffffff"
     bordercolor="#666666"
     borderopacity="1"
     objecttolerance="10"
     gridtolerance="10"
     guidetolerance="10"
     inkscape:pageopacity="0"
     inkscape:pageshadow="2"
     inkscape:window-width="1920"
     inkscape:window-height="1024"
     id="namedview21"
     showgrid="false"
     fit-margin-top="0"
     fit-margin-left="0"
     fit-margin-right="0"
     fit-margin-bottom="0"
     inkscape:zoom="0.49166667"
     inkscape:cx="320.2228"
     inkscape:cy="241.28"
     inkscape:window-x="0"
     inkscape:window-y="0"
     inkscape:window-maximized="1"
     inkscape:current-layer="svg19" />
  <defs
     id="defs5">
    <clipPath
       id="a">
      <path
         d="M -87.62,0 H 595.05 V 512 H -87.62 Z"
         id="path2"
         inkscape:connector-curvature="0"
         style="fill-opacity:0.67000002" />
    </clipPath>
  </defs>
  <g
     clip-path="url(#a)"
     transform="matrix(0.03125,0,0,0.03125,2.738125,0)"
     id="g17"
     style="fill-rule:evenodd">
    <path
       d="M 619.43,512 H -112 V 0 h 731.43 z"
       id="path7"
       inkscape:connector-curvature="0"
       style="fill:#ffffff" />
    <path
       d="M 619.43,115.23 H -112 V 48.003 h 731.43 z m 0,350.45 H -112 v -67.227 h 731.43 z m -483,-274.9 110.12,191.54 112.49,-190.75 z"
       id="path9"
       inkscape:connector-curvature="0"
       style="fill:#0000cc" />
    <path
       d="m 225.75,317.81 20.95,35.506 21.4,-35.36 -42.35,-0.145 z"
       id="path11"
       inkscape:connector-curvature="0"
       style="fill:#ffffff" />
    <path
       d="M 136.02,320.58 246.15,129.04 358.63,319.79 Z"
       id="path13"
       inkscape:connector-curvature="0"
       style="fill:#0000cc" />
    <path
       d="m 225.75,191.61 20.95,-35.506 21.4,35.36 -42.35,0.145 z m -43.78,79.5 -21.64,35.982 40.9,-0.127 z m -21.27,-66.5 41.225,0.29 -19.834,36.26 -21.39,-36.55 z m 151.24,66.91 20.83,35.576 -41.71,-0.533 z m 20.45,-66.91 -41.225,0.29 19.835,36.26 z m -114.27,-0.04 -28.394,51.515 28.8,50.297 52.73,1.217 32.044,-51.515 -29.61,-51.92 -55.572,0.405 z"
       id="path15"
       inkscape:connector-curvature="0"
       style="fill:#ffffff" />
  </g>
</svg>
