<?xml version="1.0" encoding="UTF-8" standalone="no"?>
<svg
   xmlns:dc="http://purl.org/dc/elements/1.1/"
   xmlns:cc="http://creativecommons.org/ns#"
   xmlns:rdf="http://www.w3.org/1999/02/22-rdf-syntax-ns#"
   xmlns:svg="http://www.w3.org/2000/svg"
   xmlns="http://www.w3.org/2000/svg"
   xmlns:sodipodi="http://sodipodi.sourceforge.net/DTD/sodipodi-0.dtd"
   xmlns:inkscape="http://www.inkscape.org/namespaces/inkscape"
   height="16"
   width="21.333437"
   viewBox="0 0 21.333437 16"
   version="1.1"
   id="svg275"
   sodipodi:docname="io.svg"
   inkscape:version="0.92.1 r">
  <metadata
     id="metadata279">
    <rdf:RDF>
      <cc:Work
         rdf:about="">
        <dc:format>image/svg+xml</dc:format>
        <dc:type
           rdf:resource="http://purl.org/dc/dcmitype/StillImage" />
        <dc:title></dc:title>
      </cc:Work>
    </rdf:RDF>
  </metadata>
  <sodipodi:namedview
     pagecolor="#ffffff"
     bordercolor="#666666"
     borderopacity="1"
     objecttolerance="10"
     gridtolerance="10"
     guidetolerance="10"
     inkscape:pageopacity="0"
     inkscape:pageshadow="2"
     inkscape:window-width="1920"
     inkscape:window-height="1024"
     id="namedview277"
     showgrid="false"
     fit-margin-top="0"
     fit-margin-left="0"
     fit-margin-right="0"
     fit-margin-bottom="0"
     inkscape:zoom="0.49166667"
     inkscape:cx="320"
     inkscape:cy="240"
     inkscape:window-x="0"
     inkscape:window-y="0"
     inkscape:window-maximized="1"
     inkscape:current-layer="svg275" />
  <defs
     id="defs5">
    <clipPath
       id="a">
      <path
         d="M 0,0 H 682.67 V 512 H 0 Z"
         id="path2"
         inkscape:connector-curvature="0"
         style="fill-opacity:0.67000002" />
    </clipPath>
  </defs>
  <g
     clip-path="url(#a)"
     transform="scale(0.03125)"
     id="g273">
    <path
       d="M 0,0 H 1024 V 512 H 0 Z"
       id="path7"
       inkscape:connector-curvature="0"
       style="fill:#ffffff;fill-rule:evenodd" />
    <path
       d="m 1024,445.24 c -11.474,6.903 -21.332,23.035 -51.814,23.035 -60.947,0 -76.188,-33.965 -121.9,-33.965 -30.474,0 -45.712,33.965 -76.187,33.965 -60.952,0 -76.191,-33.965 -121.9,-33.965 -30.477,0 -45.715,33.965 -76.191,33.965 -60.952,0 -76.191,-33.965 -121.9,-33.965 -30.477,0 -45.715,33.965 -76.191,33.965 -60.952,0 -76.191,-33.965 -121.9,-33.965 -30.478,0 -45.715,33.965 -76.191,33.965 -60.952,0 -76.192,-33.965 -121.91,-33.965 -30.476,0 -39.619,24.203 -57.905,24.203 v 43.727 c 18.286,0 27.428,-24.2 57.905,-24.2 45.715,0 60.955,33.96 121.9,33.96 30.476,0 45.713,-33.965 76.191,-33.965 45.713,0 60.952,33.965 121.9,33.965 30.476,0 45.714,-33.965 76.191,-33.965 45.714,0 60.952,33.965 121.9,33.965 30.476,0 45.714,-33.965 76.191,-33.965 45.714,0 60.952,33.965 121.9,33.965 30.476,0 45.714,-33.965 76.187,-33.965 45.715,0 60.956,33.965 121.9,33.965 30.482,0 40.34,-9.625 51.814,-16.528 v -50.235 z m 0,-84.92 c -11.474,6.903 -21.332,23.035 -51.814,23.035 -60.947,0 -76.188,-33.965 -121.9,-33.965 -30.474,0 -45.712,33.965 -76.187,33.965 -60.952,0 -76.191,-33.965 -121.9,-33.965 -30.477,0 -45.715,33.965 -76.191,33.965 -60.952,0 -76.191,-33.965 -121.9,-33.965 -30.477,0 -45.715,33.965 -76.191,33.965 -60.952,0 -76.191,-33.965 -121.9,-33.965 -30.478,0 -45.715,33.965 -76.191,33.965 -60.952,0 -76.192,-33.965 -121.91,-33.965 -30.476,0 -39.619,24.203 -57.905,24.203 v 43.727 c 18.286,0.01 27.428,-24.2 57.905,-24.2 45.714,0 60.953,33.965 121.91,33.965 30.476,0 45.713,-33.965 76.191,-33.965 45.713,0 60.952,33.965 121.9,33.965 30.476,0 45.714,-33.965 76.191,-33.965 45.714,0 60.952,33.965 121.9,33.965 30.476,0 45.714,-33.965 76.191,-33.965 45.714,0 60.952,33.965 121.9,33.965 30.476,0 45.714,-33.965 76.187,-33.965 45.715,0 60.956,33.965 121.9,33.965 30.482,0 40.34,-9.625 51.814,-16.528 v -50.235 z m 0,-84.91 c -11.474,6.903 -21.332,23.035 -51.814,23.035 -60.947,0 -76.188,-33.965 -121.9,-33.965 -30.474,0 -45.712,33.965 -76.187,33.965 -60.952,0 -76.191,-33.965 -121.9,-33.965 -30.477,0 -45.715,33.965 -76.191,33.965 -60.952,0 -76.191,-33.965 -121.9,-33.965 -30.477,0 -45.715,33.965 -76.191,33.965 -60.952,0 -76.191,-33.965 -121.9,-33.965 -30.478,0 -45.715,33.965 -76.191,33.965 -60.952,0 -76.192,-33.965 -121.91,-33.965 -30.476,0 -39.619,24.203 -57.905,24.203 v 43.727 c 18.286,0 27.428,-24.2 57.905,-24.2 45.714,0 60.953,33.965 121.91,33.965 30.476,0 45.713,-33.965 76.191,-33.965 45.713,0 60.952,33.965 121.9,33.965 30.476,0 45.714,-33.965 76.191,-33.965 45.714,0 60.952,33.965 121.9,33.965 30.476,0 45.714,-33.965 76.191,-33.965 45.714,0 60.952,33.965 121.9,33.965 30.476,0 45.714,-33.965 76.187,-33.965 45.715,0 60.956,33.965 121.9,33.965 30.482,0 40.34,-9.625 51.814,-16.528 v -50.235 z m 0,-84.91 c -11.474,6.903 -21.332,23.035 -51.814,23.035 -60.947,0 -76.188,-33.965 -121.9,-33.965 -30.474,0 -45.712,33.965 -76.187,33.965 -60.952,0 -76.191,-33.965 -121.9,-33.965 -30.477,0 -45.715,33.965 -76.191,33.965 -60.952,0 -76.191,-33.965 -121.9,-33.965 -30.477,0 -45.715,33.965 -76.191,33.965 -60.952,0 -76.191,-33.965 -121.9,-33.965 -30.478,0 -45.715,33.965 -76.191,33.965 -60.952,0 -76.192,-33.965 -121.91,-33.965 -30.476,0 -39.619,24.203 -57.905,24.203 V 247.5 c 18.286,0 27.428,-24.2 57.905,-24.2 45.714,0 60.953,33.965 121.91,33.965 30.476,0 45.713,-33.965 76.191,-33.965 45.713,0 60.952,33.965 121.9,33.965 30.476,0 45.714,-33.965 76.191,-33.965 45.714,0 60.952,33.965 121.9,33.965 30.476,0 45.714,-33.965 76.191,-33.965 45.714,0 60.952,33.965 121.9,33.965 30.476,0 45.714,-33.965 76.187,-33.965 45.715,0 60.956,33.965 121.9,33.965 30.482,0 40.34,-9.625 51.814,-16.528 v -50.235 z m 0,-84.91 c -11.474,6.903 -21.332,23.035 -51.814,23.035 -60.947,0 -76.188,-33.965 -121.9,-33.965 -30.474,0 -45.712,33.965 -76.187,33.965 -60.952,0 -76.191,-33.965 -121.9,-33.965 -30.477,0 -45.715,33.965 -76.191,33.965 -60.952,0 -76.191,-33.965 -121.9,-33.965 -30.477,0 -45.715,33.965 -76.191,33.965 -60.952,0 -76.191,-33.965 -121.9,-33.965 -30.478,0 -45.715,33.965 -76.191,33.965 -60.952,0 -76.192,-33.965 -121.91,-33.965 -30.491,-0.002 -39.634,24.2 -57.92,24.2 v 43.727 c 18.286,0 27.428,-24.203 57.905,-24.203 45.714,0 60.953,33.965 121.91,33.965 30.476,0 45.713,-33.965 76.191,-33.965 45.713,0 60.952,33.965 121.9,33.965 30.476,0 45.714,-33.965 76.191,-33.965 45.714,0 60.952,33.965 121.9,33.965 30.476,0 45.714,-33.965 76.191,-33.965 45.714,0 60.952,33.965 121.9,33.965 30.476,0 45.714,-33.965 76.187,-33.965 45.715,0 60.956,33.965 121.9,33.965 30.482,0 40.34,-9.625 51.814,-16.528 v -50.235 z m 0,-84.915 c -11.474,6.903 -21.332,23.035 -51.814,23.035 -60.947,0 -76.188,-33.965 -121.9,-33.965 -30.474,0 -45.712,33.965 -76.187,33.965 -60.952,0 -76.191,-33.965 -121.9,-33.965 -30.477,0 -45.715,33.965 -76.191,33.965 -60.952,0 -76.191,-33.965 -121.9,-33.965 -30.477,0 -45.715,33.965 -76.191,33.965 -60.952,0 -76.191,-33.965 -121.9,-33.965 -30.478,0 -45.715,33.965 -76.191,33.965 -60.952,0 -76.192,-33.965 -121.91,-33.965 -30.491,0 -39.634,24.203 -57.92,24.203 v 43.727 c 18.286,0 27.428,-24.203 57.905,-24.203 45.714,0 60.953,33.965 121.91,33.965 30.476,0 45.713,-33.965 76.191,-33.965 45.713,0 60.952,33.965 121.9,33.965 30.476,0 45.714,-33.965 76.191,-33.965 45.714,0 60.952,33.965 121.9,33.965 30.476,0 45.714,-33.965 76.191,-33.965 45.714,0 60.952,33.965 121.9,33.965 30.476,0 45.714,-33.965 76.187,-33.965 45.715,0 60.956,33.965 121.9,33.965 30.482,0 40.34,-9.625 51.814,-16.528 V 20.674 Z"
       id="path9"
       inkscape:connector-curvature="0"
       style="fill:#000063;fill-rule:evenodd" />
    <path
       d="m 0,0.063 h 261.31 v 157.91 H 0 Z"
       id="path11"
       inkscape:connector-curvature="0"
       style="fill:#000063;fill-rule:evenodd" />
    <g
       id="g19"
       style="stroke-width:1.00000003pt">
      <path
         d="M 0,0.063 V 17.717 L 232.097,157.97 h 29.215 V 140.316 L 29.215,0.064 H 0 Z m 261.312,0 V 17.717 L 29.215,157.968 H 0 V 140.314 L 232.097,0.064 h 29.215 z"
         id="path13"
         inkscape:connector-curvature="0"
         style="fill:#ffffff" />
      <path
         d="m 108.88,0.063 v 157.905 h 43.552 V 0.063 Z M 0,52.698 v 52.635 H 261.312 V 52.698 Z"
         id="path15"
         inkscape:connector-curvature="0"
         style="fill:#ffffff" />
      <path
         d="M 0,63.225 V 94.806 H 261.312 V 63.226 H 0 Z M 117.59,0.063 v 157.905 h 26.132 V 0.063 Z M 0,157.968 87.104,105.333 H 106.58 L 19.476,157.968 Z M 0,0.063 87.104,52.698 H 67.628 L 0,11.833 Z M 154.732,52.698 241.836,0.063 h 19.476 l -87.104,52.635 z m 106.58,105.27 -87.104,-52.635 h 19.476 l 67.628,40.866 v 11.77 z"
         id="path17"
         inkscape:connector-curvature="0"
         style="fill:#cc0000" />
    </g>
    <path
       d="m 814.96,-301.18 -17.72,708.66 c 0,37.298 80.097,37.298 88.583,0 l -17.717,-708.66 h -53.149 z"
       transform="matrix(0.2064,0,0,0.4902,211.633,267.436)"
       id="path21"
       inkscape:connector-curvature="0"
       style="fill:#a24300;fill-rule:evenodd;stroke:#ffffff;stroke-width:6.93499994" />
    <path
       d="m 496.06,549.21 17.717,70.866 35.433,-53.15 -17.717,88.583 35.433,-35.433 -35.433,88.582 35.433,-35.433 -35.433,88.583 35.433,-35.433 -35.433,106.3 35.433,-35.433 -35.433,106.3 35.433,-35.433 -35.433,106.3 -17.716,53.151 -17.717,17.72 -17.717,-17.72 -17.716,-53.151 -35.433,-106.3 35.433,35.433 -35.433,-106.3 35.433,35.433 -35.433,-106.3 35.433,35.433 -35.433,-88.583 35.433,35.433 -35.433,-88.582 35.433,35.433 -17.717,-88.583 35.433,53.15 z"
       transform="matrix(-0.2354,0.06743,-0.1035,-0.19501,591.314,322.549)"
       id="path23"
       inkscape:connector-curvature="0"
       style="fill:#006d00;fill-rule:evenodd;stroke:#ffffff;stroke-width:8.25" />
    <path
       d="m 496.06,549.21 v 496.07 m -70.86,-177.17 70.86,106.3 70.87,-106.3"
       transform="matrix(-0.2354,0.06743,-0.1035,-0.19501,591.314,322.549)"
       id="path25"
       inkscape:connector-curvature="0"
       style="fill:none;stroke:#000000;stroke-width:1.00000003pt" />
    <path
       d="m 425.2,797.24 70.866,106.3 70.866,-106.3"
       transform="matrix(-0.2354,0.06743,-0.1035,-0.19501,591.314,322.549)"
       id="path27"
       inkscape:connector-curvature="0"
       style="fill:none;stroke:#000000;stroke-width:1.00000003pt" />
    <path
       d="m 425.2,726.38 70.866,106.3 70.866,-106.3"
       transform="matrix(-0.2354,0.06743,-0.1035,-0.19501,591.314,322.549)"
       id="path29"
       inkscape:connector-curvature="0"
       style="fill:none;stroke:#000000;stroke-width:1.00000003pt" />
    <path
       d="m 425.2,673.23 70.866,88.583 70.866,-88.583"
       transform="matrix(-0.2354,0.06743,-0.1035,-0.19501,591.314,322.549)"
       id="path31"
       inkscape:connector-curvature="0"
       style="fill:none;stroke:#000000;stroke-width:1.00000003pt" />
    <path
       d="m 425.2,620.08 70.866,88.582 70.866,-88.582"
       transform="matrix(-0.2354,0.06743,-0.1035,-0.19501,591.314,322.549)"
       id="path33"
       inkscape:connector-curvature="0"
       style="fill:none;stroke:#000000;stroke-width:1.00000003pt" />
    <path
       d="m 442.91,566.93 53.15,106.3 53.15,-106.3"
       transform="matrix(-0.2354,0.06743,-0.1035,-0.19501,591.314,322.549)"
       id="path35"
       inkscape:connector-curvature="0"
       style="fill:none;stroke:#000000;stroke-width:1.00000003pt" />
    <g
       id="g51">
      <path
         d="m 496.06,549.21 17.717,70.866 35.433,-53.15 -17.717,88.583 35.433,-35.433 -35.433,88.582 35.433,-35.433 -35.433,88.583 35.433,-35.433 -35.433,106.3 35.433,-35.433 -35.433,106.3 35.433,-35.433 -35.433,106.3 -17.716,53.151 -17.717,17.72 -17.717,-17.72 -17.716,-53.151 -35.433,-106.3 35.433,35.433 -35.433,-106.3 35.433,35.433 -35.433,-106.3 35.433,35.433 -35.433,-88.583 35.433,35.433 -35.433,-88.582 35.433,35.433 -17.717,-88.583 35.433,53.15 z"
         transform="matrix(0.17703,-0.18126,0.22077,0.14638,73.835,93.526)"
         id="path37"
         inkscape:connector-curvature="0"
         style="fill:#006d00;fill-rule:evenodd;stroke:#ffffff;stroke-width:8.25" />
      <path
         d="m 496.06,549.21 v 496.07 m -70.86,-177.17 70.86,106.3 70.87,-106.3"
         transform="matrix(0.17703,-0.18126,0.22077,0.14638,73.835,93.526)"
         id="path39"
         inkscape:connector-curvature="0"
         style="fill:none;stroke:#000000;stroke-width:1.00000003pt" />
      <path
         d="m 425.2,797.24 70.866,106.3 70.866,-106.3"
         transform="matrix(0.17703,-0.18126,0.22077,0.14638,73.835,93.526)"
         id="path41"
         inkscape:connector-curvature="0"
         style="fill:none;stroke:#000000;stroke-width:1.00000003pt" />
      <path
         d="m 425.2,726.38 70.866,106.3 70.866,-106.3"
         transform="matrix(0.17703,-0.18126,0.22077,0.14638,73.835,93.526)"
         id="path43"
         inkscape:connector-curvature="0"
         style="fill:none;stroke:#000000;stroke-width:1.00000003pt" />
      <path
         d="m 425.2,673.23 70.866,88.583 70.866,-88.583"
         transform="matrix(0.17703,-0.18126,0.22077,0.14638,73.835,93.526)"
         id="path45"
         inkscape:connector-curvature="0"
         style="fill:none;stroke:#000000;stroke-width:1.00000003pt" />
      <path
         d="m 425.2,620.08 70.866,88.582 70.866,-88.582"
         transform="matrix(0.17703,-0.18126,0.22077,0.14638,73.835,93.526)"
         id="path47"
         inkscape:connector-curvature="0"
         style="fill:none;stroke:#000000;stroke-width:1.00000003pt" />
      <path
         d="m 442.91,566.93 53.15,106.3 53.15,-106.3"
         transform="matrix(0.17703,-0.18126,0.22077,0.14638,73.835,93.526)"
         id="path49"
         inkscape:connector-curvature="0"
         style="fill:none;stroke:#000000;stroke-width:1.00000003pt" />
    </g>
    <g
       id="g67">
      <path
         d="m 496.06,549.21 17.717,70.866 35.433,-53.15 -17.717,88.583 35.433,-35.433 -35.433,88.582 35.433,-35.433 -35.433,88.583 35.433,-35.433 -35.433,106.3 35.433,-35.433 -35.433,106.3 35.433,-35.433 -35.433,106.3 -17.716,53.151 -17.717,17.72 -17.717,-17.72 -17.716,-53.151 -35.433,-106.3 35.433,35.433 -35.433,-106.3 35.433,35.433 -35.433,-106.3 35.433,35.433 -35.433,-88.583 35.433,35.433 -35.433,-88.582 35.433,35.433 -17.717,-88.583 35.433,53.15 z"
         transform="matrix(0.1135,0.2156,-0.24917,0.1076,581.756,-57.78)"
         id="path53"
         inkscape:connector-curvature="0"
         style="fill:#006d00;fill-rule:evenodd;stroke:#ffffff;stroke-width:8.25" />
      <path
         d="m 496.06,549.21 v 496.07 m -70.86,-177.17 70.86,106.3 70.87,-106.3"
         transform="matrix(0.1135,0.2156,-0.24917,0.1076,581.756,-57.78)"
         id="path55"
         inkscape:connector-curvature="0"
         style="fill:none;stroke:#000000;stroke-width:1.00000003pt" />
      <path
         d="m 425.2,797.24 70.866,106.3 70.866,-106.3"
         transform="matrix(0.1135,0.2156,-0.24917,0.1076,581.756,-57.78)"
         id="path57"
         inkscape:connector-curvature="0"
         style="fill:none;stroke:#000000;stroke-width:1.00000003pt" />
      <path
         d="m 425.2,726.38 70.866,106.3 70.866,-106.3"
         transform="matrix(0.1135,0.2156,-0.24917,0.1076,581.756,-57.78)"
         id="path59"
         inkscape:connector-curvature="0"
         style="fill:none;stroke:#000000;stroke-width:1.00000003pt" />
      <path
         d="m 425.2,673.23 70.866,88.583 70.866,-88.583"
         transform="matrix(0.1135,0.2156,-0.24917,0.1076,581.756,-57.78)"
         id="path61"
         inkscape:connector-curvature="0"
         style="fill:none;stroke:#000000;stroke-width:1.00000003pt" />
      <path
         d="m 425.2,620.08 70.866,88.582 70.866,-88.582"
         transform="matrix(0.1135,0.2156,-0.24917,0.1076,581.756,-57.78)"
         id="path63"
         inkscape:connector-curvature="0"
         style="fill:none;stroke:#000000;stroke-width:1.00000003pt" />
      <path
         d="m 442.91,566.93 53.15,106.3 53.15,-106.3"
         transform="matrix(0.1135,0.2156,-0.24917,0.1076,581.756,-57.78)"
         id="path65"
         inkscape:connector-curvature="0"
         style="fill:none;stroke:#000000;stroke-width:1.00000003pt" />
    </g>
    <g
       id="g83">
      <path
         d="m 496.06,549.21 17.717,70.866 35.433,-53.15 -17.717,88.583 35.433,-35.433 -35.433,88.582 35.433,-35.433 -35.433,88.583 35.433,-35.433 -35.433,106.3 35.433,-35.433 -35.433,106.3 35.433,-35.433 -35.433,106.3 -17.716,53.151 -17.717,17.72 -17.717,-17.72 -17.716,-53.151 -35.433,-106.3 35.433,35.433 -35.433,-106.3 35.433,35.433 -35.433,-106.3 35.433,35.433 -35.433,-88.583 35.433,35.433 -35.433,-88.582 35.433,35.433 -17.717,-88.583 35.433,53.15 z"
         transform="matrix(-0.15682,0.19451,-0.23555,-0.12827,705.85,197.798)"
         id="path69"
         inkscape:connector-curvature="0"
         style="fill:#006d00;fill-rule:evenodd;stroke:#ffffff;stroke-width:8.25" />
      <path
         d="m 496.06,549.21 v 496.07 m -70.86,-177.17 70.86,106.3 70.87,-106.3"
         transform="matrix(-0.15682,0.19451,-0.23555,-0.12827,705.85,197.798)"
         id="path71"
         inkscape:connector-curvature="0"
         style="fill:none;stroke:#000000;stroke-width:1.00000003pt" />
      <path
         d="m 425.2,797.24 70.866,106.3 70.866,-106.3"
         transform="matrix(-0.15682,0.19451,-0.23555,-0.12827,705.85,197.798)"
         id="path73"
         inkscape:connector-curvature="0"
         style="fill:none;stroke:#000000;stroke-width:1.00000003pt" />
      <path
         d="m 425.2,726.38 70.866,106.3 70.866,-106.3"
         transform="matrix(-0.15682,0.19451,-0.23555,-0.12827,705.85,197.798)"
         id="path75"
         inkscape:connector-curvature="0"
         style="fill:none;stroke:#000000;stroke-width:1.00000003pt" />
      <path
         d="m 425.2,673.23 70.866,88.583 70.866,-88.583"
         transform="matrix(-0.15682,0.19451,-0.23555,-0.12827,705.85,197.798)"
         id="path77"
         inkscape:connector-curvature="0"
         style="fill:none;stroke:#000000;stroke-width:1.00000003pt" />
      <path
         d="m 425.2,620.08 70.866,88.582 70.866,-88.582"
         transform="matrix(-0.15682,0.19451,-0.23555,-0.12827,705.85,197.798)"
         id="path79"
         inkscape:connector-curvature="0"
         style="fill:none;stroke:#000000;stroke-width:1.00000003pt" />
      <path
         d="m 442.91,566.93 53.15,106.3 53.15,-106.3"
         transform="matrix(-0.15682,0.19451,-0.23555,-0.12827,705.85,197.798)"
         id="path81"
         inkscape:connector-curvature="0"
         style="fill:none;stroke:#000000;stroke-width:1.00000003pt" />
    </g>
    <g
       id="g99">
      <path
         d="m 496.06,549.21 17.717,70.866 35.433,-53.15 -17.717,88.583 35.433,-35.433 -35.433,88.582 35.433,-35.433 -35.433,88.583 35.433,-35.433 -35.433,106.3 35.433,-35.433 -35.433,106.3 35.433,-35.433 -35.433,106.3 -17.716,53.151 -17.717,17.72 -17.717,-17.72 -17.716,-53.151 -35.433,-106.3 35.433,35.433 -35.433,-106.3 35.433,35.433 -35.433,-106.3 35.433,35.433 -35.433,-88.583 35.433,35.433 -35.433,-88.582 35.433,35.433 -17.717,-88.583 35.433,53.15 z"
         transform="matrix(-0.15547,-0.16616,0.17678,-0.15123,275.837,396.088)"
         id="path85"
         inkscape:connector-curvature="0"
         style="fill:#006d00;fill-rule:evenodd;stroke:#ffffff;stroke-width:8.25" />
      <path
         d="m 496.06,549.21 v 496.07 m -70.86,-177.17 70.86,106.3 70.87,-106.3"
         transform="matrix(-0.15547,-0.16616,0.17678,-0.15123,275.837,396.088)"
         id="path87"
         inkscape:connector-curvature="0"
         style="fill:none;stroke:#000000;stroke-width:1.00000003pt" />
      <path
         d="m 425.2,797.24 70.866,106.3 70.866,-106.3"
         transform="matrix(-0.15547,-0.16616,0.17678,-0.15123,275.837,396.088)"
         id="path89"
         inkscape:connector-curvature="0"
         style="fill:none;stroke:#000000;stroke-width:1.00000003pt" />
      <path
         d="m 425.2,726.38 70.866,106.3 70.866,-106.3"
         transform="matrix(-0.15547,-0.16616,0.17678,-0.15123,275.837,396.088)"
         id="path91"
         inkscape:connector-curvature="0"
         style="fill:none;stroke:#000000;stroke-width:1.00000003pt" />
      <path
         d="m 425.2,673.23 70.866,88.583 70.866,-88.583"
         transform="matrix(-0.15547,-0.16616,0.17678,-0.15123,275.837,396.088)"
         id="path93"
         inkscape:connector-curvature="0"
         style="fill:none;stroke:#000000;stroke-width:1.00000003pt" />
      <path
         d="m 425.2,620.08 70.866,88.582 70.866,-88.582"
         transform="matrix(-0.15547,-0.16616,0.17678,-0.15123,275.837,396.088)"
         id="path95"
         inkscape:connector-curvature="0"
         style="fill:none;stroke:#000000;stroke-width:1.00000003pt" />
      <path
         d="m 442.91,566.93 53.15,106.3 53.15,-106.3"
         transform="matrix(-0.15547,-0.16616,0.17678,-0.15123,275.837,396.088)"
         id="path97"
         inkscape:connector-curvature="0"
         style="fill:none;stroke:#000000;stroke-width:1.00000003pt" />
    </g>
    <g
       id="g117">
      <path
         d="m 460.63,549.21 28.643,70.866 42.223,-53.15 -10.184,88.583 27.9,-35.433 -17.716,88.582 25.249,-35.433 -25.249,88.583 35.433,-35.433 -35.433,106.3 35.433,-35.433 -35.433,106.3 35.433,-35.433 -35.433,106.3 -17.716,53.151 -17.717,17.72 -17.717,-17.72 -17.716,-53.151 -35.433,-106.3 35.433,35.433 -35.433,-106.3 35.433,35.433 -35.433,-106.3 35.433,35.433 -45.617,-88.583 45.617,35.433 -53.15,-88.582 42.966,35.433 -25.25,-88.583 35.433,53.15 z"
         transform="matrix(-0.27108,-0.06397,-0.15704,0.20433,684.121,-32.23)"
         id="path101"
         inkscape:connector-curvature="0"
         style="fill:#006d00;fill-rule:evenodd;stroke:#ffffff;stroke-width:8.25" />
      <path
         d="m 467.21,584.65 28.855,124.02 v 336.62"
         transform="matrix(-0.27108,-0.06397,-0.15704,0.20433,684.121,-32.23)"
         id="path103"
         inkscape:connector-curvature="0"
         style="fill:none;stroke:#000000;stroke-width:1.00000003pt" />
      <path
         d="m 436.23,885.83 59.833,88.582 60.682,-88.582"
         transform="matrix(-0.27108,-0.06397,-0.15704,0.20433,684.121,-32.23)"
         id="path105"
         inkscape:connector-curvature="0"
         style="fill:none;stroke:#000000;stroke-width:1.00000003pt" />
      <path
         d="m 434.53,814.96 61.53,88.582 60.682,-88.582"
         transform="matrix(-0.27108,-0.06397,-0.15704,0.20433,684.121,-32.23)"
         id="path107"
         inkscape:connector-curvature="0"
         style="fill:none;stroke:#000000;stroke-width:1.00000003pt" />
      <path
         d="m 435.38,744.1 60.682,88.582 59.833,-88.582"
         transform="matrix(-0.27108,-0.06397,-0.15704,0.20433,684.121,-32.23)"
         id="path109"
         inkscape:connector-curvature="0"
         style="fill:none;stroke:#000000;stroke-width:1.00000003pt" />
      <path
         d="m 432.84,690.94 63.228,70.866 53.149,-70.866"
         transform="matrix(-0.27108,-0.06397,-0.15704,0.20433,684.121,-32.23)"
         id="path111"
         inkscape:connector-curvature="0"
         style="fill:none;stroke:#000000;stroke-width:1.00000003pt" />
      <path
         d="m 425.2,637.8 70.866,70.865 45.406,-70.865"
         transform="matrix(-0.27108,-0.06397,-0.15704,0.20433,684.121,-32.23)"
         id="path113"
         inkscape:connector-curvature="0"
         style="fill:none;stroke:#000000;stroke-width:1.00000003pt" />
      <path
         d="m 436.12,593.24 53.15,86.886 35.327,-95.478"
         transform="matrix(-0.27108,-0.06397,-0.15704,0.20433,684.121,-32.23)"
         id="path115"
         inkscape:connector-curvature="0"
         style="fill:none;stroke:#000000;stroke-width:1.00000003pt" />
    </g>
    <g
       id="g135">
      <path
         d="m 460.63,549.21 28.643,70.866 42.223,-53.15 -10.184,88.583 27.9,-35.433 -17.716,88.582 25.249,-35.433 -25.249,88.583 35.433,-35.433 -35.433,106.3 35.433,-35.433 -35.433,106.3 35.433,-35.433 -35.433,106.3 -17.716,53.151 -17.717,17.72 -17.717,-17.72 -17.716,-53.151 -35.433,-106.3 35.433,35.433 -35.433,-106.3 35.433,35.433 -35.433,-106.3 35.433,35.433 -45.617,-88.583 45.617,35.433 -53.15,-88.582 42.966,35.433 -25.25,-88.583 35.433,53.15 z"
         transform="matrix(0.27011,0.06695,0.00989,0.24471,240.767,-138.419)"
         id="path119"
         inkscape:connector-curvature="0"
         style="fill:#006d00;fill-rule:evenodd;stroke:#ffffff;stroke-width:8.25" />
      <path
         d="m 467.21,584.65 28.855,124.02 v 336.62"
         transform="matrix(0.27011,0.06695,0.00989,0.24471,240.767,-138.419)"
         id="path121"
         inkscape:connector-curvature="0"
         style="fill:none;stroke:#000000;stroke-width:1.00000003pt" />
      <path
         d="m 436.23,885.83 59.833,88.582 60.682,-88.582"
         transform="matrix(0.27011,0.06695,0.00989,0.24471,240.767,-138.419)"
         id="path123"
         inkscape:connector-curvature="0"
         style="fill:none;stroke:#000000;stroke-width:1.00000003pt" />
      <path
         d="m 434.53,814.96 61.53,88.582 60.682,-88.582"
         transform="matrix(0.27011,0.06695,0.00989,0.24471,240.767,-138.419)"
         id="path125"
         inkscape:connector-curvature="0"
         style="fill:none;stroke:#000000;stroke-width:1.00000003pt" />
      <path
         d="m 435.38,744.1 60.682,88.582 59.833,-88.582"
         transform="matrix(0.27011,0.06695,0.00989,0.24471,240.767,-138.419)"
         id="path127"
         inkscape:connector-curvature="0"
         style="fill:none;stroke:#000000;stroke-width:1.00000003pt" />
      <path
         d="m 432.84,690.94 63.228,70.866 53.149,-70.866"
         transform="matrix(0.27011,0.06695,0.00989,0.24471,240.767,-138.419)"
         id="path129"
         inkscape:connector-curvature="0"
         style="fill:none;stroke:#000000;stroke-width:1.00000003pt" />
      <path
         d="m 425.2,637.8 70.866,70.865 45.406,-70.865"
         transform="matrix(0.27011,0.06695,0.00989,0.24471,240.767,-138.419)"
         id="path131"
         inkscape:connector-curvature="0"
         style="fill:none;stroke:#000000;stroke-width:1.00000003pt" />
      <path
         d="m 436.12,593.24 53.15,86.886 35.327,-95.478"
         transform="matrix(0.27011,0.06695,0.00989,0.24471,240.767,-138.419)"
         id="path133"
         inkscape:connector-curvature="0"
         style="fill:none;stroke:#000000;stroke-width:1.00000003pt" />
    </g>
    <g
       id="g149">
      <path
         d="m 354.33,531.5 88.583,88.583 17.716,-53.149 v 88.582 l 35.433,-35.433 -17.716,88.583 35.432,-35.434 -17.716,88.584 35.433,-35.433 -17.716,106.3 35.433,-35.433 -35.433,106.3 35.433,-35.433 -17.717,106.3 -17.716,53.151 -17.717,17.72 -17.717,-17.72 -17.716,-53.151 -53.15,-82.294 35.434,11.429 -35.433,-106.3 35.433,35.433 -53.15,-106.3 35.433,35.433 -53.15,-88.584 53.15,35.434 -70.866,-88.583 53.149,35.433 -70.866,-70.866 70.866,35.433 -53.149,-88.583 z"
         transform="matrix(0.03453,-0.23456,0.24402,0.04167,115.462,229.538)"
         id="path137"
         inkscape:connector-curvature="0"
         style="fill:#006d00;fill-rule:evenodd;stroke:#ffffff;stroke-width:8.25" />
      <path
         d="m 378.96,560.02 63.952,95.497 17.716,53.15 8.859,45.205 8.858,78.811 9.315,70.866 8.401,141.74"
         transform="matrix(0.03453,-0.23456,0.24402,0.04167,115.462,229.538)"
         id="path139"
         inkscape:connector-curvature="0"
         style="fill:none;stroke:#000000;stroke-width:1.00000003pt" />
      <path
         d="m 425.2,903.54 63.665,70.866 50.749,-88.583"
         transform="matrix(0.03453,-0.23456,0.24402,0.04167,115.462,229.538)"
         id="path141"
         inkscape:connector-curvature="0"
         style="fill:none;stroke:#000000;stroke-width:1.00000003pt" />
      <path
         d="m 417.08,814.96 70.579,88.583 50.75,-88.583"
         transform="matrix(0.03453,-0.23456,0.24402,0.04167,115.462,229.538)"
         id="path143"
         inkscape:connector-curvature="0"
         style="fill:none;stroke:#000000;stroke-width:1.00000003pt" />
      <path
         d="m 407.48,752.44 70.867,80.235 45.948,-88.583 M 372.05,637.8 460.633,708.666 486.464,637.8"
         transform="matrix(0.03453,-0.23456,0.24402,0.04167,115.462,229.538)"
         id="path145"
         inkscape:connector-curvature="0"
         style="fill:none;stroke:#000000;stroke-width:1.00000003pt" />
      <path
         d="m 360.62,602.36 82.296,53.149 10.515,-53.149 m -63.671,88.58 81.095,70.866 33.946,-70.866"
         transform="matrix(0.03453,-0.23456,0.24402,0.04167,115.462,229.538)"
         id="path147"
         inkscape:connector-curvature="0"
         style="fill:none;stroke:#000000;stroke-width:1.00000003pt" />
    </g>
    <g
       id="g271"
       style="fill-rule:evenodd">
      <path
         d="m 541.46,1173.3 -1.7,-229.13 -61.1,-106.94 c -15.277,-52.618 -7.754,-78.079 16.973,-79.776 24.728,-1.698 49.224,13.579 84.868,15.276 35.645,1.697 28.856,-59.408 81.474,-57.71 52.618,1.697 144.28,32.25 222.36,37.342 78.078,5.092 118.81,-27.158 208.77,-30.553 89.97,-3.395 113.73,42.435 118.82,42.435 5.09,0 30.55,-18.672 56.01,-22.066 25.46,-3.395 33.95,10.184 33.95,10.184 0,0 -1.7,57.71 -13.58,91.657 -11.88,33.948 -54.32,89.961 -56.01,89.961 -1.7,0 -15.28,249.52 -15.28,251.21 0,1.7 -675.55,-6.79 -675.55,-11.88 z"
         transform="matrix(0.13659,0,0,0.12573,266.36,208.19)"
         id="path151"
         inkscape:connector-curvature="0"
         style="fill:#cc0000;stroke:#000000;stroke-width:1.00000003pt" />
      <g
         id="g185"
         style="stroke:#000000;stroke-width:1.00000003pt">
        <path
           d="m 531.5,584.65 c 0,0 -67.982,-52.097 -69.813,-177.17 -1.053,-71.929 34.38,-124.02 122.96,-124.02 124.02,0 301.18,53.149 301.18,53.149 v 17.717 c 0,0 -141.73,-53.15 -301.18,-53.15 -70.866,0 -106.3,52.087 -106.3,105.24 0,88.583 70.867,178.23 70.867,178.23 v 141.73 h -17.717 v -141.73 z"
           transform="matrix(-0.13659,0,0,0.12573,508.357,252.74)"
           id="path153"
           inkscape:connector-curvature="0"
           style="fill:#fff100" />
        <path
           d="m 478.35,549.21 c 0,9.785 -7.932,17.717 -17.717,17.717 -9.785,0 -17.717,-7.932 -17.717,-17.717 0,-9.785 7.932,-17.717 17.717,-17.717 9.785,0 17.717,7.932 17.717,17.717 z"
           transform="matrix(-0.13659,0,0,0.12573,506.168,252.526)"
           id="path155"
           inkscape:connector-curvature="0"
           style="fill:#ffffff" />
        <path
           d="m 478.35,549.21 c 0,9.785 -7.932,17.717 -17.717,17.717 -9.785,0 -17.717,-7.932 -17.717,-17.717 0,-9.785 7.932,-17.717 17.717,-17.717 9.785,0 17.717,7.932 17.717,17.717 z"
           transform="matrix(-0.13659,0,0,0.12573,508.588,247.431)"
           id="path157"
           inkscape:connector-curvature="0"
           style="fill:#ffffff" />
        <path
           d="m 478.35,549.21 c 0,9.785 -7.932,17.717 -17.717,17.717 -9.785,0 -17.717,-7.932 -17.717,-17.717 0,-9.785 7.932,-17.717 17.717,-17.717 9.785,0 17.717,7.932 17.717,17.717 z"
           transform="matrix(-0.13659,0,0,0.12573,509.849,242.243)"
           id="path159"
           inkscape:connector-curvature="0"
           style="fill:#ffffff" />
        <path
           d="m 478.35,549.21 c 0,9.785 -7.932,17.717 -17.717,17.717 -9.785,0 -17.717,-7.932 -17.717,-17.717 0,-9.785 7.932,-17.717 17.717,-17.717 9.785,0 17.717,7.932 17.717,17.717 z"
           transform="matrix(-0.13659,0,0,0.12573,510.776,236.694)"
           id="path161"
           inkscape:connector-curvature="0"
           style="fill:#ffffff" />
        <path
           d="m 478.35,549.21 c 0,9.785 -7.932,17.717 -17.717,17.717 -9.785,0 -17.717,-7.932 -17.717,-17.717 0,-9.785 7.932,-17.717 17.717,-17.717 9.785,0 17.717,7.932 17.717,17.717 z"
           transform="matrix(-0.13659,0,0,0.12573,510.545,230.678)"
           id="path163"
           inkscape:connector-curvature="0"
           style="fill:#ffffff" />
        <path
           d="m 478.35,549.21 c 0,9.785 -7.932,17.717 -17.717,17.717 -9.785,0 -17.717,-7.932 -17.717,-17.717 0,-9.785 7.932,-17.717 17.717,-17.717 9.785,0 17.717,7.932 17.717,17.717 z"
           transform="matrix(-0.13659,0,0,0.12573,502.69,257.008)"
           id="path165"
           inkscape:connector-curvature="0"
           style="fill:#ffffff" />
        <path
           d="m 478.35,549.21 c 0,9.785 -7.932,17.717 -17.717,17.717 -9.785,0 -17.717,-7.932 -17.717,-17.717 0,-9.785 7.932,-17.717 17.717,-17.717 9.785,0 17.717,7.932 17.717,17.717 z"
           transform="matrix(-0.13659,0,0,0.12573,508.487,224.996)"
           id="path167"
           inkscape:connector-curvature="0"
           style="fill:#ffffff" />
        <path
           d="m 478.35,549.21 c 0,9.785 -7.932,17.717 -17.717,17.717 -9.785,0 -17.717,-7.932 -17.717,-17.717 0,-9.785 7.932,-17.717 17.717,-17.717 9.785,0 17.717,7.932 17.717,17.717 z"
           transform="matrix(-0.13659,0,0,0.12573,504.082,220.515)"
           id="path169"
           inkscape:connector-curvature="0"
           style="fill:#ffffff" />
        <path
           d="m 478.35,549.21 c 0,9.785 -7.932,17.717 -17.717,17.717 -9.785,0 -17.717,-7.932 -17.717,-17.717 0,-9.785 7.932,-17.717 17.717,-17.717 9.785,0 17.717,7.932 17.717,17.717 z"
           transform="matrix(-0.13659,0,0,0.12573,498.054,217.528)"
           id="path171"
           inkscape:connector-curvature="0"
           style="fill:#ffffff" />
        <path
           d="m 478.35,549.21 c 0,9.785 -7.932,17.717 -17.717,17.717 -9.785,0 -17.717,-7.932 -17.717,-17.717 0,-9.785 7.932,-17.717 17.717,-17.717 9.785,0 17.717,7.932 17.717,17.717 z"
           transform="matrix(-0.13659,0,0,0.12573,492.026,217.1)"
           id="path173"
           inkscape:connector-curvature="0"
           style="fill:#ffffff" />
        <path
           d="m 478.35,549.21 c 0,9.785 -7.932,17.717 -17.717,17.717 -9.785,0 -17.717,-7.932 -17.717,-17.717 0,-9.785 7.932,-17.717 17.717,-17.717 9.785,0 17.717,7.932 17.717,17.717 z"
           transform="matrix(-0.13659,0,0,0.12573,485.535,217.314)"
           id="path175"
           inkscape:connector-curvature="0"
           style="fill:#ffffff" />
        <path
           d="m 478.35,549.21 c 0,9.785 -7.932,17.717 -17.717,17.717 -9.785,0 -17.717,-7.932 -17.717,-17.717 0,-9.785 7.932,-17.717 17.717,-17.717 9.785,0 17.717,7.932 17.717,17.717 z"
           transform="matrix(-0.13659,0,0,0.12573,479.043,218.168)"
           id="path177"
           inkscape:connector-curvature="0"
           style="fill:#ffffff" />
        <path
           d="m 478.35,549.21 c 0,9.785 -7.932,17.717 -17.717,17.717 -9.785,0 -17.717,-7.932 -17.717,-17.717 0,-9.785 7.932,-17.717 17.717,-17.717 9.785,0 17.717,7.932 17.717,17.717 z"
           transform="matrix(-0.13659,0,0,0.12573,472.55,219.022)"
           id="path179"
           inkscape:connector-curvature="0"
           style="fill:#ffffff" />
        <path
           d="m 478.35,549.21 c 0,9.785 -7.932,17.717 -17.717,17.717 -9.785,0 -17.717,-7.932 -17.717,-17.717 0,-9.785 7.932,-17.717 17.717,-17.717 9.785,0 17.717,7.932 17.717,17.717 z"
           transform="matrix(-0.13659,0,0,0.12573,465.596,220.088)"
           id="path181"
           inkscape:connector-curvature="0"
           style="fill:#ffffff" />
        <path
           d="m 478.35,549.21 c 0,9.785 -7.932,17.717 -17.717,17.717 -9.785,0 -17.717,-7.932 -17.717,-17.717 0,-9.785 7.932,-17.717 17.717,-17.717 9.785,0 17.717,7.932 17.717,17.717 z"
           transform="matrix(-0.13659,0,0,0.12573,459.568,221.583)"
           id="path183"
           inkscape:connector-curvature="0"
           style="fill:#ffffff" />
      </g>
      <path
         d="m 478.35,549.21 c 0,9.785 -7.932,17.717 -17.717,17.717 -9.785,0 -17.717,-7.932 -17.717,-17.717 0,-9.785 7.932,-17.717 17.717,-17.717 9.785,0 17.717,7.932 17.717,17.717 z"
         transform="matrix(0.13659,0,0,0.12573,268.548,252.526)"
         id="path187"
         inkscape:connector-curvature="0"
         style="fill:#ffffff;stroke:#000000;stroke-width:1.00000003pt" />
      <path
         d="m 478.35,549.21 c 0,9.785 -7.932,17.717 -17.717,17.717 -9.785,0 -17.717,-7.932 -17.717,-17.717 0,-9.785 7.932,-17.717 17.717,-17.717 9.785,0 17.717,7.932 17.717,17.717 z"
         transform="matrix(0.13659,0,0,0.12573,266.128,247.432)"
         id="path189"
         inkscape:connector-curvature="0"
         style="fill:#ffffff;stroke:#000000;stroke-width:1.00000003pt" />
      <path
         d="m 478.35,549.21 c 0,9.785 -7.932,17.717 -17.717,17.717 -9.785,0 -17.717,-7.932 -17.717,-17.717 0,-9.785 7.932,-17.717 17.717,-17.717 9.785,0 17.717,7.932 17.717,17.717 z"
         transform="matrix(0.13659,0,0,0.12573,264.867,242.243)"
         id="path191"
         inkscape:connector-curvature="0"
         style="fill:#ffffff;stroke:#000000;stroke-width:1.00000003pt" />
      <path
         d="m 478.35,549.21 c 0,9.785 -7.932,17.717 -17.717,17.717 -9.785,0 -17.717,-7.932 -17.717,-17.717 0,-9.785 7.932,-17.717 17.717,-17.717 9.785,0 17.717,7.932 17.717,17.717 z"
         transform="matrix(0.13659,0,0,0.12573,263.94,236.694)"
         id="path193"
         inkscape:connector-curvature="0"
         style="fill:#ffffff;stroke:#000000;stroke-width:1.00000003pt" />
      <path
         d="m 478.35,549.21 c 0,9.785 -7.932,17.717 -17.717,17.717 -9.785,0 -17.717,-7.932 -17.717,-17.717 0,-9.785 7.932,-17.717 17.717,-17.717 9.785,0 17.717,7.932 17.717,17.717 z"
         transform="matrix(0.13659,0,0,0.12573,264.172,230.678)"
         id="path195"
         inkscape:connector-curvature="0"
         style="fill:#ffffff;stroke:#000000;stroke-width:1.00000003pt" />
      <path
         d="m 478.35,549.21 c 0,9.785 -7.932,17.717 -17.717,17.717 -9.785,0 -17.717,-7.932 -17.717,-17.717 0,-9.785 7.932,-17.717 17.717,-17.717 9.785,0 17.717,7.932 17.717,17.717 z"
         transform="matrix(0.13659,0,0,0.12573,266.23,224.996)"
         id="path197"
         inkscape:connector-curvature="0"
         style="fill:#ffffff;stroke:#000000;stroke-width:1.00000003pt" />
      <path
         d="m 478.35,549.21 c 0,9.785 -7.932,17.717 -17.717,17.717 -9.785,0 -17.717,-7.932 -17.717,-17.717 0,-9.785 7.932,-17.717 17.717,-17.717 9.785,0 17.717,7.932 17.717,17.717 z"
         transform="matrix(0.13659,0,0,0.12573,270.635,220.515)"
         id="path199"
         inkscape:connector-curvature="0"
         style="fill:#ffffff;stroke:#000000;stroke-width:1.00000003pt" />
      <path
         d="m 478.35,549.21 c 0,9.785 -7.932,17.717 -17.717,17.717 -9.785,0 -17.717,-7.932 -17.717,-17.717 0,-9.785 7.932,-17.717 17.717,-17.717 9.785,0 17.717,7.932 17.717,17.717 z"
         transform="matrix(0.13659,0,0,0.12573,276.662,217.527)"
         id="path201"
         inkscape:connector-curvature="0"
         style="fill:#ffffff;stroke:#000000;stroke-width:1.00000003pt" />
      <path
         d="m 478.35,549.21 c 0,9.785 -7.932,17.717 -17.717,17.717 -9.785,0 -17.717,-7.932 -17.717,-17.717 0,-9.785 7.932,-17.717 17.717,-17.717 9.785,0 17.717,7.932 17.717,17.717 z"
         transform="matrix(0.13659,0,0,0.12573,282.69,217.1)"
         id="path203"
         inkscape:connector-curvature="0"
         style="fill:#ffffff;stroke:#000000;stroke-width:1.00000003pt" />
      <path
         d="m 478.35,549.21 c 0,9.785 -7.932,17.717 -17.717,17.717 -9.785,0 -17.717,-7.932 -17.717,-17.717 0,-9.785 7.932,-17.717 17.717,-17.717 9.785,0 17.717,7.932 17.717,17.717 z"
         transform="matrix(0.13659,0,0,0.12573,289.181,217.314)"
         id="path205"
         inkscape:connector-curvature="0"
         style="fill:#ffffff;stroke:#000000;stroke-width:1.00000003pt" />
      <path
         d="m 478.35,549.21 c 0,9.785 -7.932,17.717 -17.717,17.717 -9.785,0 -17.717,-7.932 -17.717,-17.717 0,-9.785 7.932,-17.717 17.717,-17.717 9.785,0 17.717,7.932 17.717,17.717 z"
         transform="matrix(0.13659,0,0,0.12573,295.674,218.168)"
         id="path207"
         inkscape:connector-curvature="0"
         style="fill:#ffffff;stroke:#000000;stroke-width:1.00000003pt" />
      <path
         d="m 478.35,549.21 c 0,9.785 -7.932,17.717 -17.717,17.717 -9.785,0 -17.717,-7.932 -17.717,-17.717 0,-9.785 7.932,-17.717 17.717,-17.717 9.785,0 17.717,7.932 17.717,17.717 z"
         transform="matrix(0.13659,0,0,0.12573,302.166,219.021)"
         id="path209"
         inkscape:connector-curvature="0"
         style="fill:#ffffff;stroke:#000000;stroke-width:1.00000003pt" />
      <path
         d="m 478.35,549.21 c 0,9.785 -7.932,17.717 -17.717,17.717 -9.785,0 -17.717,-7.932 -17.717,-17.717 0,-9.785 7.932,-17.717 17.717,-17.717 9.785,0 17.717,7.932 17.717,17.717 z"
         transform="matrix(0.13659,0,0,0.12573,309.12,220.088)"
         id="path211"
         inkscape:connector-curvature="0"
         style="fill:#ffffff;stroke:#000000;stroke-width:1.00000003pt" />
      <path
         d="m 478.35,549.21 c 0,9.785 -7.932,17.717 -17.717,17.717 -9.785,0 -17.717,-7.932 -17.717,-17.717 0,-9.785 7.932,-17.717 17.717,-17.717 9.785,0 17.717,7.932 17.717,17.717 z"
         transform="matrix(0.13659,0,0,0.12573,315.149,221.583)"
         id="path213"
         inkscape:connector-curvature="0"
         style="fill:#ffffff;stroke:#000000;stroke-width:1.00000003pt" />
      <path
         d="m 478.35,549.21 c 0,9.785 -7.932,17.717 -17.717,17.717 -9.785,0 -17.717,-7.932 -17.717,-17.717 0,-9.785 7.932,-17.717 17.717,-17.717 9.785,0 17.717,7.932 17.717,17.717 z"
         transform="matrix(0.13659,0,0,0.12573,272.026,257.008)"
         id="path215"
         inkscape:connector-curvature="0"
         style="fill:#ffffff;stroke:#000000;stroke-width:1.00000003pt" />
      <path
         d="m 531.5,584.65 c 0,0 -67.982,-52.097 -69.813,-177.17 -1.053,-71.929 34.38,-124.02 122.96,-124.02 124.02,0 301.18,53.149 301.18,53.149 v 17.717 c 0,0 -141.73,-53.15 -301.18,-53.15 -70.866,0 -106.3,52.087 -106.3,105.24 0,88.583 70.867,178.23 70.867,178.23 v 141.73 h -17.717 v -141.73 z"
         transform="matrix(0.13659,0,0,0.12573,266.36,252.74)"
         id="path217"
         inkscape:connector-curvature="0"
         style="fill:#fff100;stroke:#000000;stroke-width:1.00000003pt" />
      <path
         d="m 1240.2,531.5 c 0,0 15.35,-35.433 70.86,-35.433 37.79,0 70.87,35.433 70.87,70.866 v 70.866 h 35.43 v -70.866 c 0,-35.47 35.44,-70.866 70.87,-70.866 53.15,0 70.87,35.433 70.87,35.433 0,0 0,-106.3 -70.87,-106.3 -53.15,0 -70.87,35.433 -70.87,35.433 0,0 17.72,-53.15 17.72,-106.3 0,-53.15 -35.43,-88.583 -35.43,-88.583 0,6.79 -35.44,35.433 -35.44,88.583 0,53.149 17.72,106.3 17.72,106.3 0,0 -17.72,-35.433 -70.87,-35.433 -70.86,0 -70.86,106.3 -70.86,106.3 z"
         transform="matrix(0.04553,0,0,0.0479,299.433,309.064)"
         id="path219"
         inkscape:connector-curvature="0"
         style="fill:#fff100;stroke:#000000;stroke-width:2.99099994" />
      <path
         d="m 1240.2,531.5 c 0,0 15.35,-35.433 70.86,-35.433 37.79,0 70.87,35.433 70.87,70.866 v 70.866 h 35.43 v -70.866 c 0,-35.47 35.44,-70.866 70.87,-70.866 53.15,0 70.87,35.433 70.87,35.433 0,0 0,-106.3 -70.87,-106.3 -53.15,0 -70.87,35.433 -70.87,35.433 0,0 17.72,-53.15 17.72,-106.3 0,-53.15 -35.43,-88.583 -35.43,-88.583 0,6.79 -35.44,35.433 -35.44,88.583 0,53.149 17.72,106.3 17.72,106.3 0,0 -17.72,-35.433 -70.87,-35.433 -70.86,0 -70.86,106.3 -70.86,106.3 z"
         transform="matrix(0.04553,0,0,0.0479,347.83,309.064)"
         id="path221"
         inkscape:connector-curvature="0"
         style="fill:#fff100;stroke:#000000;stroke-width:2.99099994" />
      <path
         d="M 531.5,832.68 V 673.23 c 0,0 35.433,53.15 88.583,53.15 43.489,0 88.582,-70.866 88.582,-70.866 0,0 41.515,53.149 88.583,53.149 42.021,0 88.516,-68.572 88.516,-68.572 0,0 43.207,68.572 88.649,68.572 45.441,0 88.581,-53.149 88.581,-53.149 0,0 46.29,70.866 106.3,70.866 53.15,0 70.87,-53.15 70.87,-53.15 v 159.45 h -708.66 z"
         transform="matrix(0.13659,0,0,0.12573,266.36,252.74)"
         id="path223"
         inkscape:connector-curvature="0"
         style="fill:#fff100;stroke:#000000;stroke-width:1.00000003pt" />
      <path
         d="M 708.66,832.68 V 708.66 c 0,0 106.3,35.433 106.3,124.02 z"
         transform="matrix(0.13659,0,0,0.12573,242.16,252.74)"
         id="path225"
         inkscape:connector-curvature="0"
         style="fill:#fff100;stroke:#000000;stroke-width:1.00000003pt" />
      <path
         d="M 708.66,832.68 V 708.66 c 0,0 106.3,35.433 106.3,124.02 z"
         transform="matrix(-0.13659,0,0,0.12573,532.547,252.74)"
         id="path227"
         inkscape:connector-curvature="0"
         style="fill:#fff100;stroke:#000000;stroke-width:1.00000003pt" />
      <path
         d="m 602.36,832.68 c 0,-88.583 106.37,-144.6 106.37,-144.6 0,0 106.23,56.016 106.23,144.6 z"
         transform="matrix(0.13659,0,0,0.12573,266.36,252.74)"
         id="path229"
         inkscape:connector-curvature="0"
         style="fill:#fff100;stroke:#000000;stroke-width:1.00000003pt" />
      <path
         d="m 602.36,832.68 c 0,-88.583 106.37,-144.6 106.37,-144.6 0,0 106.23,56.016 106.23,144.6 z"
         transform="matrix(0.13659,0,0,0.12573,314.758,252.74)"
         id="path231"
         inkscape:connector-curvature="0"
         style="fill:#fff100;stroke:#000000;stroke-width:1.00000003pt" />
      <path
         d="m 584.65,847.53 c 0,-88.583 124.08,-159.45 124.08,-159.45 0,0 123.95,70.866 123.95,159.45 z"
         transform="matrix(0.13659,0,0,0.12573,290.558,250.873)"
         id="path233"
         inkscape:connector-curvature="0"
         style="fill:#fff100;stroke:#000000;stroke-width:1.00000003pt" />
      <path
         d="m 1275.6,655.51 c -35.43,-17.716 -166.02,-35.433 -376.28,-35.433 -210.26,0 -350.1,17.717 -385.53,35.433 -35.434,17.717 -35.434,53.149 -10e-4,70.866 35.433,17.716 175.28,35.433 385.54,35.433 210.26,0 340.84,-17.716 376.28,-35.433 35.43,-17.716 35.43,-53.149 0,-70.866 z"
         transform="matrix(0.13505,0,0,0.12573,265.898,275.015)"
         id="path235"
         inkscape:connector-curvature="0"
         style="fill:#ffffff;stroke:#000000;stroke-width:1.00000003pt" />
      <path
         d="m 435.757,366.342 c 0,4.455 -40.256,4.455 -48.399,4.455 -8.797,0 -48.398,1.207 -48.398,-4.455 0,-4.455 39.928,-4.455 48.398,-4.455 8.47,0 48.399,0.906 48.399,4.455 z"
         id="path237"
         inkscape:connector-curvature="0"
         style="fill:#808080" />
      <path
         d="m 343.797,350.342 c 0,1.456 -1.084,2.636 -2.42,2.636 -1.337,0 -2.42,-1.18 -2.42,-2.636 0,-1.456 1.083,-2.637 2.42,-2.637 1.336,0 2.42,1.18 2.42,2.637 z m 91.956,0 c 0,1.456 -1.083,2.636 -2.42,2.636 -1.336,0 -2.42,-1.18 -2.42,-2.636 0,-1.456 1.084,-2.637 2.42,-2.637 1.337,0 2.42,1.18 2.42,2.637 z"
         id="path239"
         inkscape:connector-curvature="0"
         style="fill:#cc0000" />
      <path
         d="m 392.195,348.932 c 0,1.456 -2.167,2.636 -4.84,2.636 -2.673,0 -4.84,-1.18 -4.84,-2.636 0,-1.456 2.167,-2.636 4.84,-2.636 2.673,0 4.84,1.18 4.84,2.636 z"
         id="path241"
         inkscape:connector-curvature="0" />
      <path
         d="m 415.41,348.932 c 0,1.456 -1.625,2.636 -3.63,2.636 -2.004,0 -3.63,-1.18 -3.63,-2.636 0,-1.456 1.626,-2.636 3.63,-2.636 2.005,0 3.63,1.18 3.63,2.636 z m -49.834,0 c 0,1.456 -1.626,2.636 -3.63,2.636 -2.005,0 -3.63,-1.18 -3.63,-2.636 0,-1.456 1.625,-2.636 3.63,-2.636 2.004,0 3.63,1.18 3.63,2.636 z"
         id="path243"
         inkscape:connector-curvature="0"
         style="fill:#006300" />
      <path
         d="m 1257.9,496.06 c 0,0 35.44,-53.15 70.87,-53.15 h 35.43 v 35.433 c 0,53.15 -53.15,70.867 -53.15,70.867 h 141.74 c 0,0 -53.15,-17.717 -53.15,-70.867 V 442.91 h 35.43 c 35.43,0 70.87,53.15 70.87,53.15 V 354.33 c 0,0 -35.44,53.15 -70.87,53.15 h -35.43 v -35.433 c 0,-53.15 53.15,-70.867 53.15,-70.867 h -141.74 c 0,0 53.15,17.717 53.15,70.867 v 35.433 h -35.43 c -35.43,0 -70.87,-53.15 -70.87,-53.15 z"
         transform="matrix(0.07805,0,0,0.07185,279.5,297.926)"
         id="path245"
         inkscape:connector-curvature="0"
         style="fill:#fff100;stroke:#000000;stroke-width:2.18799996" />
      <path
         d="m 1381.9,549.21 70.87,10e-4 c 0,0 -53.15,-17.717 -53.15,-70.867 v -35.433 h 35.43 c 35.43,0 70.87,53.15 70.87,53.15 v -141.73 c 0,0 -35.44,53.15 -70.87,53.15 h -35.43 v -35.433 c 0,-53.15 53.15,-70.867 53.15,-70.867 h -70.87 v 248.03 z"
         transform="matrix(0.03903,0,0,0.06287,285.03,307.314)"
         id="path247"
         inkscape:connector-curvature="0"
         style="fill:#fff100;stroke:#000000;stroke-width:3.30699992" />
      <path
         d="m 1381.9,549.21 70.87,10e-4 c 0,0 -53.15,-17.717 -53.15,-70.867 v -35.433 h 35.43 c 35.43,0 70.87,53.15 70.87,53.15 v -141.73 c 0,0 -35.44,53.15 -70.87,53.15 h -35.43 v -35.433 c 0,-53.15 53.15,-70.867 53.15,-70.867 h -70.87 v 248.03 z"
         transform="matrix(-0.03903,0,0,0.06287,489.685,307.314)"
         id="path249"
         inkscape:connector-curvature="0"
         style="fill:#fff100;stroke:#000000;stroke-width:3.30699992" />
      <path
         d="m 903.54,602.36 c 0,9.785 -7.932,17.717 -17.717,17.717 -9.785,0 -17.717,-7.932 -17.717,-17.717 0,-9.785 7.932,-17.717 17.717,-17.717 9.785,0 17.717,7.932 17.717,17.717 z"
         transform="matrix(0.13659,0,0,0.12573,266.36,252.74)"
         id="path251"
         inkscape:connector-curvature="0"
         style="fill:#ffffff;stroke:#000000;stroke-width:1.00000003pt" />
      <path
         d="m 1257.9,496.06 c 0,0 35.44,-53.15 70.87,-53.15 h 35.43 v 35.433 c 0,53.15 -53.15,70.867 -53.15,70.867 h 141.74 c 0,0 -53.15,-17.717 -53.15,-70.867 V 442.91 h 35.43 c 35.43,0 70.87,53.15 70.87,53.15 V 354.33 c 0,0 -35.44,53.15 -70.87,53.15 h -35.43 v -35.433 c 0,-53.15 53.15,-70.867 53.15,-70.867 h -141.74 c 0,0 53.15,17.717 53.15,70.867 v 35.433 h -35.43 c -35.43,0 -70.87,-53.15 -70.87,-53.15 z"
         transform="matrix(0.07805,0,0,0.07185,279.5,251.15)"
         id="path253"
         inkscape:connector-curvature="0"
         style="fill:#fff100;stroke:#000000;stroke-width:2.18799996" />
      <path
         d="m 903.54,602.36 c 0,9.785 -7.932,17.717 -17.717,17.717 -9.785,0 -17.717,-7.932 -17.717,-17.717 0,-9.785 7.932,-17.717 17.717,-17.717 9.785,0 17.717,7.932 17.717,17.717 z"
         transform="matrix(0.13659,0,0,0.12573,266.592,206.336)"
         id="path255"
         inkscape:connector-curvature="0"
         style="fill:#ffffff;stroke:#000000;stroke-width:1.00000003pt" />
      <path
         d="m 850.39,655.51 h 70.866 v 53.15 H 850.39 Z"
         transform="matrix(0.13659,0,0,0.12573,266.36,208.19)"
         id="path257"
         inkscape:connector-curvature="0"
         style="fill:#fff100;stroke:#000000;stroke-width:1.00000003pt" />
      <path
         d="m 850.39,683.3 h 70.866 V 885.83 H 850.39 Z"
         transform="matrix(0.13659,0,0,0.12573,266.36,208.19)"
         id="path259"
         inkscape:connector-curvature="0"
         style="fill:#fff100;stroke:#000000;stroke-width:1.00000003pt" />
      <path
         d="m 478.35,549.21 c 0,9.785 -7.932,17.717 -17.717,17.717 -9.785,0 -17.717,-7.932 -17.717,-17.717 0,-9.785 7.932,-17.717 17.717,-17.717 9.785,0 17.717,7.932 17.717,17.717 z"
         transform="matrix(0.13659,0,0,0.12573,324.438,246.057)"
         id="path261"
         inkscape:connector-curvature="0"
         style="fill:#ffffff;stroke:#000000;stroke-width:1.00000003pt" />
      <path
         d="m 478.35,549.21 c 0,9.785 -7.932,17.717 -17.717,17.717 -9.785,0 -17.717,-7.932 -17.717,-17.717 0,-9.785 7.932,-17.717 17.717,-17.717 9.785,0 17.717,7.932 17.717,17.717 z"
         transform="matrix(0.13659,0,0,0.12573,324.438,240.295)"
         id="path263"
         inkscape:connector-curvature="0"
         style="fill:#ffffff;stroke:#000000;stroke-width:1.00000003pt" />
      <path
         d="m 478.35,549.21 c 0,9.785 -7.932,17.717 -17.717,17.717 -9.785,0 -17.717,-7.932 -17.717,-17.717 0,-9.785 7.932,-17.717 17.717,-17.717 9.785,0 17.717,7.932 17.717,17.717 z"
         transform="matrix(0.13659,0,0,0.12573,324.438,234.92)"
         id="path265"
         inkscape:connector-curvature="0"
         style="fill:#ffffff;stroke:#000000;stroke-width:1.00000003pt" />
      <path
         d="m 478.35,549.21 c 0,9.785 -7.932,17.717 -17.717,17.717 -9.785,0 -17.717,-7.932 -17.717,-17.717 0,-9.785 7.932,-17.717 17.717,-17.717 9.785,0 17.717,7.932 17.717,17.717 z"
         transform="matrix(0.13659,0,0,0.12573,324.438,229.372)"
         id="path267"
         inkscape:connector-curvature="0"
         style="fill:#ffffff;stroke:#000000;stroke-width:1.00000003pt" />
      <path
         d="m 392.495,357.482 c 0,1 -2.202,1.81 -4.918,1.81 -2.716,0 -4.918,-0.81 -4.918,-1.81 0,-1 2.202,-1.811 4.918,-1.811 2.717,0 4.918,0.81 4.918,1.81 z m 44.57,4.421 c -0.272,0.685 -2.668,0.742 -5.35,0.127 -2.683,-0.615 -4.638,-1.67 -4.366,-2.355 0.273,-0.686 2.668,-0.743 5.35,-0.128 2.684,0.616 4.638,1.67 4.366,2.356 z m -18.628,-3.004 c -0.108,0.882 -2.439,1.44 -5.206,1.247 -2.768,-0.194 -4.925,-1.065 -4.817,-1.947 0.108,-0.882 2.439,-1.44 5.206,-1.247 2.768,0.193 4.925,1.065 4.817,1.947 z m -81.87,3.004 c 0.272,0.685 2.668,0.742 5.35,0.127 2.683,-0.615 4.638,-1.67 4.366,-2.355 -0.273,-0.686 -2.668,-0.743 -5.35,-0.128 -2.684,0.616 -4.638,1.67 -4.366,2.356 z m 19.561,-3.431 c 0.108,0.882 2.439,1.44 5.206,1.247 2.768,-0.193 4.925,-1.065 4.817,-1.947 -0.108,-0.882 -2.439,-1.44 -5.207,-1.247 -2.767,0.193 -4.924,1.065 -4.816,1.947 z"
         id="path269"
         inkscape:connector-curvature="0" />
    </g>
  </g>
</svg>
