<?xml version="1.0" encoding="UTF-8" standalone="no"?>
<svg
   xmlns:dc="http://purl.org/dc/elements/1.1/"
   xmlns:cc="http://creativecommons.org/ns#"
   xmlns:rdf="http://www.w3.org/1999/02/22-rdf-syntax-ns#"
   xmlns:svg="http://www.w3.org/2000/svg"
   xmlns="http://www.w3.org/2000/svg"
   xmlns:sodipodi="http://sodipodi.sourceforge.net/DTD/sodipodi-0.dtd"
   xmlns:inkscape="http://www.inkscape.org/namespaces/inkscape"
   height="16"
   width="21.333332"
   viewBox="0 0 21.333332 16"
   version="1.1"
   id="svg16"
   sodipodi:docname="iq.svg"
   inkscape:version="0.92.1 r">
  <metadata
     id="metadata22">
    <rdf:RDF>
      <cc:Work
         rdf:about="">
        <dc:format>image/svg+xml</dc:format>
        <dc:type
           rdf:resource="http://purl.org/dc/dcmitype/StillImage" />
        <dc:title></dc:title>
      </cc:Work>
    </rdf:RDF>
  </metadata>
  <defs
     id="defs20" />
  <sodipodi:namedview
     pagecolor="#ffffff"
     bordercolor="#666666"
     borderopacity="1"
     objecttolerance="10"
     gridtolerance="10"
     guidetolerance="10"
     inkscape:pageopacity="0"
     inkscape:pageshadow="2"
     inkscape:window-width="1920"
     inkscape:window-height="1024"
     id="namedview18"
     showgrid="false"
     fit-margin-top="0"
     fit-margin-left="0"
     fit-margin-right="0"
     fit-margin-bottom="0"
     inkscape:zoom="0.49166667"
     inkscape:cx="320"
     inkscape:cy="240"
     inkscape:window-x="0"
     inkscape:window-y="0"
     inkscape:window-maximized="1"
     inkscape:current-layer="svg16" />
  <path
     d="m 0,5.33333 h 21.333333 v 5.33334 H 0 Z"
     id="path2"
     inkscape:connector-curvature="0"
     style="fill:#ffffff;stroke-width:0.03333334" />
  <path
     d="M 0,0 H 21.333333 V 5.33333 H 0 Z"
     id="path4"
     inkscape:connector-curvature="0"
     style="fill:#ce1126;stroke-width:0.03333334" />
  <path
     d="M 0,10.66667 H 21.333333 V 16 H 0 Z"
     id="path6"
     inkscape:connector-curvature="0"
     style="stroke-width:0.03333334" />
  <g
     transform="matrix(0.058394,0,0,0.058394,-5.9756667,-3.0949)"
     id="g14"
     style="fill:#007a3d">
    <path
       d="m 325.525,173.177 c -0.558,-0.294 -1.186,-0.767 -1.395,-1.053 -0.314,-0.44 -0.13,-0.456 1.163,-0.105 2.32,0.628 3.815,0.383 5.298,-0.873 l 1.31,-1.103 1.54,0.784 c 0.847,0.428 1.747,0.724 2.007,0.656 0.667,-0.176 2.05,-1.95 2.005,-2.564 -0.054,-0.76 0.587,-0.57 0.896,0.263 0.615,1.63 -0.28,3.503 -1.865,3.918 -0.774,0.203 -1.488,0.128 -2.66,-0.28 -1.438,-0.5 -1.683,-0.494 -2.405,0.058 -1.617,1.24 -3.87,1.356 -5.893,0.3 z m 5.733,-5.242 c -0.563,-0.716 -1.24,-3.423 -1.02,-4.088 0.192,-0.575 0.39,-0.69 0.914,-0.526 0.918,0.288 1.13,0.92 0.993,3.064 -0.107,1.748 -0.366,2.207 -0.887,1.55 z m -67.515,-1.945 c -0.185,1.31 2.325,4.568 3.458,5.158 -0.77,0.345 -1.727,0.19 -2.433,0.577 -3.948,3.948 -18.367,18.005 -21,21.366 7.8,0.155 16.45,-0.105 23.76,-0.44 -0.006,-5.298 5.02,-5.572 8.382,-7.502 1.73,2.725 6.074,2.516 6.617,6.618 0,4.91 0.01,12.306 0.01,17.646 H 215.91 c -1.17,5.176 -5.843,9.125 -12.353,7.5 2.014,-2.103 5.406,-2.827 6.62,-5.734 1.024,-6.365 -2.046,-10.296 -4.032,-13.907 3.284,-1.194 3.782,-1.492 7.12,-3.736 -2.342,7.12 6.092,6.338 12.354,6.175 0.21,-2.418 0.088,-5.272 -1.767,-5.625 2.396,-0.87 2.794,-1.168 6.62,-4.412 v 9.592 c 14.885,0 30.942,-0.11 46.138,-0.11 0,-3.003 0.796,-7.825 -1.58,-7.825 -2.27,0 -0.107,6.173 -1.87,6.173 h -35.63 c 0,-1.328 -0.034,-4.104 -0.034,-6.104 1.51,-1.512 1.33,-1.38 11.648,-11.7 1.028,-1.028 8.266,-7.566 14.6,-13.71 z m 89.06,-0.253 c 2.488,1.338 4.457,3.19 7.502,3.97 -0.353,1.26 -1.475,1.76 -1.77,3.088 v 26.91 c 3.403,0.75 4.12,-1.178 5.738,-2.205 0.442,4.307 3.185,8.53 3.088,11.91 H 352.803 Z M 333.39,180.15 c 0,0 5.297,-4.472 5.297,-4.644 v 23.485 l 3.814,-0.005 c 0,-8.948 -0.117,-18.023 -0.117,-26.338 1.548,-1.55 4.58,-3.792 5.338,-5.36 v 42.06 c -10.745,0 -30.792,0.013 -33.442,0.013 -0.493,-8.73 -0.577,-17.77 9.6,-15.827 v -3.562 c -0.31,-0.608 -0.87,0.148 -1,-0.644 1.617,-1.617 2.164,-2.03 6.54,-5.85 0,4.61 0.08,15.498 0.08,15.498 1.07,0 3.153,0.004 3.857,0.004 0,0 0.036,-18.228 0.036,-18.83 z m -12.553,18.6 c 0.716,1.076 3.155,1.057 3.04,-0.754 -0.41,-1.493 -3.615,-0.924 -3.04,0.755 z"
       id="path8"
       inkscape:connector-curvature="0" />
    <circle
       cx="224.026"
       cy="214.369"
       r="2.0420001"
       id="circle10" />
    <path
       d="m 287.048,165.78 c 2.488,1.338 4.457,3.19 7.502,3.97 -0.353,1.26 -1.476,1.76 -1.768,3.087 v 26.91 c 3.4,0.75 4.117,-1.178 5.736,-2.205 0.44,4.307 3.185,8.53 3.088,11.91 h -14.56 c 0.002,-14.555 0.002,-29.114 0.002,-43.673 z"
       id="path12"
       inkscape:connector-curvature="0" />
  </g>
</svg>
