<?xml version="1.0" encoding="UTF-8" standalone="no"?>
<svg
   xmlns:dc="http://purl.org/dc/elements/1.1/"
   xmlns:cc="http://creativecommons.org/ns#"
   xmlns:rdf="http://www.w3.org/1999/02/22-rdf-syntax-ns#"
   xmlns:svg="http://www.w3.org/2000/svg"
   xmlns="http://www.w3.org/2000/svg"
   xmlns:xlink="http://www.w3.org/1999/xlink"
   xmlns:sodipodi="http://sodipodi.sourceforge.net/DTD/sodipodi-0.dtd"
   xmlns:inkscape="http://www.inkscape.org/namespaces/inkscape"
   height="16"
   width="21.333332"
   viewBox="0 0 21.333332 16"
   version="1.1"
   id="svg129"
   sodipodi:docname="kh.svg"
   inkscape:version="0.92.1 r">
  <metadata
     id="metadata135">
    <rdf:RDF>
      <cc:Work
         rdf:about="">
        <dc:format>image/svg+xml</dc:format>
        <dc:type
           rdf:resource="http://purl.org/dc/dcmitype/StillImage" />
        <dc:title></dc:title>
      </cc:Work>
    </rdf:RDF>
  </metadata>
  <defs
     id="defs133" />
  <sodipodi:namedview
     pagecolor="#ffffff"
     bordercolor="#666666"
     borderopacity="1"
     objecttolerance="10"
     gridtolerance="10"
     guidetolerance="10"
     inkscape:pageopacity="0"
     inkscape:pageshadow="2"
     inkscape:window-width="1920"
     inkscape:window-height="1024"
     id="namedview131"
     showgrid="false"
     fit-margin-top="0"
     fit-margin-left="0"
     fit-margin-right="0"
     fit-margin-bottom="0"
     inkscape:zoom="0.49166667"
     inkscape:cx="320"
     inkscape:cy="240"
     inkscape:window-x="0"
     inkscape:window-y="0"
     inkscape:window-maximized="1"
     inkscape:current-layer="svg129" />
  <path
     d="M 0,0 H 21.333333 V 16 H 0 Z"
     id="path2"
     inkscape:connector-curvature="0"
     style="fill:#032ea1;stroke-width:0.03333334" />
  <path
     d="m 0,4 h 21.333333 v 8 H 0 Z"
     id="path4"
     inkscape:connector-curvature="0"
     style="fill:#e00025;stroke-width:0.03333334" />
  <g
     transform="matrix(0.04,0,0,0.04,2.8523667,-17.39733)"
     id="g127"
     style="fill:#ffffff;stroke:#000000;stroke-width:0.95999998">
    <g
       id="g16"
       style="stroke-linejoin:bevel">
      <path
         d="m 139.02,623.46 h 113.8 v 43.788 h -113.8 z"
         id="path6"
         inkscape:connector-curvature="0" />
      <path
         d="m 246.95,647.64 h 3.586 v 16.495 h -3.586 z m -107.93,-8.15 h 113.8 v 5.09 h -113.8 z m 0,-6.9 h 113.8 v 4.489 h -113.8 z"
         id="path8"
         inkscape:connector-curvature="0" />
      <path
         d="m 139.02,625.7 h 113.8 v 4.354 h -113.8 z"
         id="path10"
         inkscape:connector-curvature="0"
         style="stroke-width:0.94499999" />
      <path
         d="m 168.98,647.64 h 3.586 v 16.495 h -3.586 z m 48.99,0 h 3.586 v 16.495 h -3.586 z m -78.05,0 h 3.586 v 16.495 h -3.586 z m 7.03,0 h 3.586 v 16.495 h -3.586 z m 7.5,0 h 3.586 v 16.495 h -3.586 z m 7.5,0 h 3.586 v 16.495 h -3.586 z m 62.82,0 h 3.586 v 16.495 h -3.586 z m 7.5,0 h 3.586 v 16.495 h -3.586 z m 7.5,0 h 3.586 v 16.495 h -3.586 z"
         id="path12"
         inkscape:connector-curvature="0" />
      <path
         d="m 94.509,669.55 c 1.76,-0.897 3.768,-2.984 4.425,-5.319 h 193.07 c 0.657,2.335 2.665,4.422 4.425,5.319 z"
         id="path14"
         inkscape:connector-curvature="0"
         style="stroke-linejoin:miter" />
    </g>
    <path
       d="m 193,556.8 c 0,0 -0.144,-4.112 2.25,-4.157 2.396,0.044 2.251,4.157 2.251,4.157 z m -12.49,54.54 v -5.536 c -0.079,-2.768 -2.76,-2.968 -2.838,-4.986 0,0 -0.346,-3.027 0.452,-4.408 1.084,4.047 3.056,3.304 3.056,1.64 0,-1.453 -1.117,-2.804 -3.408,-6.33 -0.732,-1.128 -0.28,-4.66 0.747,-5.923 0.398,3.07 0.853,4.54 2.171,4.54 0.805,0 1.462,-0.524 1.462,-2.062 0,-1.957 -1.325,-2.945 -1.977,-4.725 -0.76,-2.078 -0.236,-4.196 1.026,-5.38 0.541,3.03 0.38,4.237 1.726,4.237 2.713,-0.858 0,-4.786 -0.58,-5.777 -0.666,-1.155 0.897,-3.46 0.897,-3.46 0.863,2.69 1.14,2.91 2.07,2.66 1.174,-0.315 1.023,-2.056 -0.41,-3.463 -0.904,-0.889 -0.808,-2.212 0.163,-3.274 0.975,1.905 2.223,1.79 2.343,0.658 l -0.784,-4.393 h 17.255 l -0.857,4.249 c -0.245,1.216 1.396,1.48 2.416,-0.514 0.972,1.062 1.067,2.385 0.163,3.274 -1.432,1.407 -1.584,3.148 -0.41,3.463 0.93,0.25 1.208,0.03 2.07,-2.66 0,0 1.403,1.571 0.897,3.46 -0.58,0.99 -3.293,4.919 -0.58,5.777 1.346,0 1.185,-1.208 1.726,-4.237 1.263,1.184 1.786,3.302 1.026,5.38 -0.651,1.78 -1.976,2.768 -1.976,4.725 0,1.538 0.657,2.062 1.461,2.062 1.319,0 1.774,-1.47 2.172,-4.54 1.026,1.263 1.479,4.795 0.747,5.922 -2.291,3.527 -3.408,4.878 -3.408,6.33 0,1.665 1.971,2.408 3.056,-1.64 0.797,1.382 0.451,4.41 0.451,4.41 -0.079,2.017 -2.759,2.217 -2.838,4.985 v 5.536 z m 7.22,-46.02 -0.397,-3.125 h 15.838 l -0.397,3.125 z m 1.06,-3.19 -0.341,-2.569 h 13.604 l -0.341,2.569 z m 2.16,-2.66 -0.227,-2.569 h 9.058 l -0.227,2.569 z m 33.02,110.08 c -2.027,-0.781 -4.977,-2.919 -4.977,-5.07 v -24.297 l 2.638,-3.358 h -52.776 l 2.53,3.359 v 24.297 c 0,2.15 -2.027,4.288 -4.053,5.07 z"
       id="path18"
       inkscape:connector-curvature="0" />
    <path
       d="m 178.24,647.64 h 3.586 v 16.495 h -3.586 z m 30.32,0 h 3.586 v 16.495 h -3.586 z"
       id="path20"
       inkscape:connector-curvature="0"
       style="stroke-linejoin:bevel" />
    <path
       d="m 167.91,609.17 v 27.656 h 54.023 v -5.957 l 0.078,-21.7 c -2.21,0.869 -2.597,2.872 -2.597,2.872 v 11.777 h -48.75 V 612.04 c 0,0 -0.544,-2.003 -2.754,-2.871 z"
       id="path22"
       inkscape:connector-curvature="0" />
    <path
       d="m 214.6,669.55 c -1.766,-0.781 -5.612,-2.919 -5.612,-5.07 v -27.192 c 0.378,-1.518 2.436,-2.414 3.761,-3.358 h -35.823 c 1.705,0.902 3.606,1.652 4.285,3.359 v 27.192 c 0,2.15 -3.041,4.288 -4.807,5.069 z"
       id="path24"
       inkscape:connector-curvature="0" />
    <path
       d="m 219.41,634.22 v -19.587 h -4.91 v -1.909 h -38.84 v 1.909 h -4.91 v 19.587 z m -12.55,35.33 c -1.73,-0.781 -4.249,-2.919 -4.249,-5.07 v -23.214 l 1.42,-2.11 h -17.69 l 1.42,2.11 v 23.215 c 0,2.15 -2.519,4.288 -4.249,5.07 z"
       id="path26"
       inkscape:connector-curvature="0" />
    <path
       d="m 190.71,639.16 h 8.966 v 30.377 h -8.966 z"
       id="path28"
       inkscape:connector-curvature="0"
       style="stroke-width:0.98100001" />
    <path
       d="m 204.38,632.48 c 0.021,-2.001 5.838,-2.091 8.832,-3.795 H 177.26 c 2.994,1.704 8.675,1.844 8.675,3.795 l 1.217,3.882 14.883,0.598 z"
       id="path30"
       inkscape:connector-curvature="0"
       style="stroke-linejoin:bevel" />
    <path
       d="m 211.41,611.34 c 0,-4.899 0.205,-6.786 1.71,-6.786 v 15.58 c -3.69,1.34 -6.325,6.05 -6.325,6.05 h -23.211 c 0,0 -2.634,-4.71 -6.325,-6.05 v -15.58 c 1.856,0 1.868,1.972 1.868,6.786 z m 1.71,-2.01 c 0,-5.618 4.851,-6.25 4.851,-6.25 v 5 c -1.846,-0.08 -2.737,1.578 -2.737,4.044 0,2.466 1.487,2.506 1.487,2.506 v 14.19 h -3.601 z"
       id="path32"
       inkscape:connector-curvature="0" />
    <path
       d="m 177.28,609.33 c 0,-5.618 -4.851,-6.25 -4.851,-6.25 v 5 c 1.846,-0.08 2.737,1.578 2.737,4.044 0,2.466 -1.487,2.506 -1.487,2.506 v 14.19 h 3.601 z"
       id="path34"
       inkscape:connector-curvature="0" />
    <g
       id="g40"
       style="fill:none;stroke-width:0.80000001">
      <path
         d="m 186.84,570.62 h 17.128 m -19.158,5.35 h 20.921 m -22.951,6.49 h 24.904 m -27.024,7.93 h 29.536 m -30.216,9.04 h 30.426"
         id="path36"
         inkscape:connector-curvature="0" />
      <path
         d="m 170.75,628.92 h 48.661 m -33.221,0.01 h 18.036 v 6.629 H 186.19 Z"
         id="path38"
         inkscape:connector-curvature="0"
         style="stroke-width:0.95999998" />
    </g>
    <g
       id="g58">
      <path
         d="m 183.93,614.24 c 2.99,3.59 2.713,9.68 2.679,13.27 h 17.343 c -0.035,-3.59 -0.312,-9.68 2.678,-13.27 z m 9.75,-41.13 -2.376,-1.224 v -3.497 c 0.971,0.292 2.062,0.411 2.168,1.96 0.338,-2.21 0.948,-2.103 1.907,-2.964 0.958,0.861 1.568,0.753 1.906,2.963 0.107,-1.548 1.197,-1.667 2.169,-1.96 v 3.498 l -2.377,1.224 z"
         id="path42"
         inkscape:connector-curvature="0" />
      <path
         d="m 193.52,578.85 -3.946,-2.713 v -3.223 c 1.383,0.32 2.936,0.451 3.088,2.149 0.482,-2.423 1.35,-3.675 2.715,-4.62 1.365,0.945 2.233,2.197 2.715,4.62 0.152,-1.698 1.705,-1.828 3.089,-2.149 v 3.223 l -3.947,2.713 z"
         id="path44"
         inkscape:connector-curvature="0" />
      <path
         d="m 193.24,587.8 -4.538,-3.985 v -4.736 c 1.591,0.471 3.377,0.663 3.552,3.157 0.553,-3.56 1.552,-5.4 3.121,-6.787 1.57,1.388 2.568,3.227 3.122,6.787 0.175,-2.494 1.96,-2.686 3.551,-3.157 v 4.736 l -4.537,3.985 z m 8.37,5.29 -4.104,5.676 h -4.646 l -4.104,-5.676 z m -15.22,9.53 c 2.053,1.122 2.81,3.357 3.03,7.553 h 11.55 c 0.22,-4.196 0.977,-6.431 3.03,-7.553 z"
         id="path46"
         inkscape:connector-curvature="0" />
      <path
         d="m 204.17,593.09 v -5.702 c -1.95,0.537 -3.213,1.691 -3.776,3.258 0,-1.893 -2.49,-6.257 -5.207,-8.43 -2.724,2.432 -5.257,6.38 -5.206,8.43 -0.464,-1.492 -1.826,-2.721 -3.776,-3.258 v 5.702 z"
         id="path48"
         inkscape:connector-curvature="0"
         style="stroke-linejoin:bevel" />
      <path
         d="m 205.04,602.62 v -5.702 c -2.138,0.537 -3.522,1.691 -4.139,3.258 0,-1.893 -2.73,-6.258 -5.708,-8.43 -2.986,2.432 -5.763,6.38 -5.707,8.43 -0.508,-1.492 -2.002,-2.721 -4.139,-3.258 v 5.702 z"
         id="path50"
         inkscape:connector-curvature="0"
         style="stroke-linejoin:bevel" />
      <path
         d="m 207.44,614.32 v -6.577 c -2.66,0.687 -4.312,2.653 -5.15,3.8 0,-3.561 -4.02,-8.99 -7.1,-10.768 -3.16,1.825 -7.101,7.435 -7.101,10.768 -0.86,-1.14 -2.49,-3.113 -5.15,-3.8 v 6.577 z"
         id="path52"
         inkscape:connector-curvature="0"
         style="stroke-linejoin:bevel" />
      <path
         d="m 206,628.92 v -6.762 c -2.346,0.92 -3.048,3.18 -3.786,4.717 0.29,-6.859 -3.862,-14.23 -7.024,-16.1 -3.163,1.87 -7.393,9.4 -7.024,16.1 -0.758,-1.527 -1.44,-3.797 -3.786,-4.717 v 6.762 z"
         id="path54"
         inkscape:connector-curvature="0"
         style="stroke-linejoin:bevel" />
      <path
         d="m 204.36,639.16 v -6.762 c -2.458,0.585 -2.61,1.491 -3.392,3.006 0.29,-4.097 -2.611,-8.77 -5.773,-10.64 -3.163,1.87 -6.064,6.544 -5.774,10.64 -0.782,-1.515 -0.878,-2.421 -3.392,-3.006 v 6.762 z"
         id="path56"
         inkscape:connector-curvature="0" />
    </g>
    <g
       id="a">
      <path
         d="m 98.935,664.23 v -20.44 c -0.67,-2.603 -2.88,-4.905 -4.54,-5.366 V 620.43 l 3.741,2.023 4.271,18.81 v 22.966 z"
         id="path60"
         inkscape:connector-curvature="0" />
      <path
         d="m 98.935,664.31 v -20.519 c -0.67,-2.603 -2.88,-4.905 -4.54,-5.366 v -19.243 c 2.511,0 3.741,3.273 3.741,3.273 l 4.271,18.81 v 22.887 z"
         id="path62"
         inkscape:connector-curvature="0" />
      <path
         d="m 96.275,669.55 c 1.73,-0.781 4.249,-2.919 4.249,-5.07 v -25.547 l -1.185,-2.108 h 43.522 l -1.699,2.108 v 25.547 c 0,2.151 1.73,4.289 3.46,5.07 z"
         id="path64"
         inkscape:connector-curvature="0" />
      <path
         d="m 135.84,669.55 c -1.73,-0.781 -4.249,-2.919 -4.249,-5.07 v -24.297 l 3.62,-3.359 h -29.589 l 3.62,3.36 v 24.296 c 0,2.151 -2.52,4.289 -4.25,5.07 z"
         id="path66"
         inkscape:connector-curvature="0" />
      <path
         d="m 131.69,669.55 c -1.73,-0.781 -4.249,-2.919 -4.249,-5.07 v -21.965 l 2.37,-3.359 h -18.799 l 2.37,3.36 v 21.965 c 0,2.15 -2.52,4.288 -4.25,5.069 z"
         id="path68"
         inkscape:connector-curvature="0" />
      <path
         d="m 115.92,639.16 h 8.982 v 30.393 h -8.982 z"
         id="path70"
         inkscape:connector-curvature="0" />
      <path
         d="m 103.7,647.64 h 3.586 v 16.495 H 103.7 Z m 30.75,0 h 3.586 v 16.495 h -3.586 z m -33.81,-27.82 h 4.32 v 16.909 h -4.32 z m 0,-3.18 h 4.295 v 3.139 h -4.295 z"
         id="path72"
         inkscape:connector-curvature="0"
         style="stroke-linejoin:bevel" />
      <path
         d="m 136.17,623.46 h 6.16 v 13.054 h -6.16 z"
         id="path74"
         inkscape:connector-curvature="0"
         style="stroke-width:1.03400004;stroke-linejoin:bevel" />
      <path
         d="m 104.89,636.6 v -28.941 c 1.232,0 1.422,4.242 4.249,4.242 1.472,0 1.315,-1.757 0.489,-3.188 -0.732,-1.268 -1.637,-3.018 -0.407,-6.279 0.843,2.495 3.112,3.287 2.693,1.722 -0.72,-2.688 -2.795,-3.13 -1.239,-7.302 0.54,3.48 2.773,3.327 2.231,1.304 -0.61,-2.28 -1.873,-3.214 -0.316,-6.428 0.873,3.65 2.052,3.435 2.052,1.171 0,-3.347 -0.128,-6.957 4.203,-8.296 0,0 0.25,-3.068 1.812,-3.068 1.563,0 1.813,3.068 1.813,3.068 4.33,1.34 4.202,4.95 4.202,8.296 0,2.264 1.18,2.478 2.052,-1.17 1.558,3.213 0.295,4.147 -0.315,6.427 -0.543,2.023 1.69,2.177 2.23,-1.304 1.557,4.172 -0.517,4.614 -1.238,7.302 -0.42,1.565 1.85,0.773 2.693,-1.722 1.23,3.26 0.325,5.011 -0.407,6.279 -0.826,1.43 -0.983,3.188 0.489,3.188 2.827,0 3.017,-4.242 4.249,-4.242 V 636.6 Z m -6.766,-21.86 v 22.079 h 2.511 v -22.135 c -0.905,-0.457 -1.755,-0.527 -2.511,0.056 z"
         id="path76"
         inkscape:connector-curvature="0" />
      <path
         d="m 98.203,629.03 c 3.112,1.591 6.195,3.433 6.975,7.793 h -6.975 z m 43.167,-6.61 v 14.407 h 2.035 v -14.443 c -0.635,-0.298 -1.503,-0.344 -2.035,0.036 z"
         id="path78"
         inkscape:connector-curvature="0" />
      <path
         d="m 143.41,628.92 c -3.112,1.591 -6.195,3.433 -6.975,7.793 h 6.975 z"
         id="path80"
         inkscape:connector-curvature="0" />
      <g
         id="g98">
        <path
           d="m 122.83,595.27 1.814,-1.525 v -1.953 c -0.664,0.065 -1.026,0.293 -1.516,0.936 -0.417,-1.295 -1.334,-2.305 -2.562,-2.933 -1.229,0.628 -2.146,1.593 -2.563,2.887 -0.49,-0.643 -0.852,-0.825 -1.516,-0.89 v 1.953 l 1.815,1.525 z"
           id="path82"
           inkscape:connector-curvature="0" />
        <path
           d="m 123.8,600.16 0.843,-1.825 v -2.539 c -0.664,0.066 -1.026,0.297 -1.516,0.949 -0.417,-1.313 -1.334,-2.338 -2.562,-2.974 -1.229,0.636 -2.146,1.615 -2.563,2.927 -0.49,-0.651 -0.852,-0.836 -1.516,-0.902 v 2.539 l 0.844,1.825 z"
           id="path84"
           inkscape:connector-curvature="0" />
        <path
           d="m 123.93,606.79 2.695,-3.287 v -3.243 c -0.986,0.111 -1.524,0.503 -2.252,1.606 -0.62,-2.222 -1.981,-2.708 -3.806,-3.786 -1.825,1.078 -3.187,1.485 -3.806,3.707 -0.729,-1.103 -1.267,-1.416 -2.252,-1.527 v 3.243 l 2.694,3.287 z"
           id="path86"
           inkscape:connector-curvature="0" />
        <path
           d="m 124.72,613.3 c 0,0 3.14,-2.74 3.327,-4.244 v -3.467 c -1.217,0.143 -2.368,0.459 -3.267,1.883 -0.765,-2.87 -1.959,-3.67 -4.212,-5.062 -2.253,1.392 -3.447,2.192 -4.212,5.062 -0.899,-1.425 -2.05,-1.74 -3.267,-1.883 v 3.467 c 0.397,1.504 3.327,4.244 3.327,4.244 z"
           id="path88"
           inkscape:connector-curvature="0" />
        <path
           d="m 126.06,625.32 c 0,0 4.301,-4.761 4.4,-6.616 v -5.406 c -1.61,0.223 -3.132,1.33 -4.321,3.551 -1.011,-4.475 -2.59,-7.595 -5.57,-9.765 -2.98,2.17 -4.56,5.29 -5.57,9.765 -1.19,-2.221 -2.712,-3.329 -4.321,-3.551 v 5.406 c 0.308,1.855 4.4,6.616 4.4,6.616 z"
           id="path90"
           inkscape:connector-curvature="0" />
        <path
           d="m 126.06,632.43 c 0,0 3.676,-3.742 4.4,-5.366 v -5.406 c -1.61,0.223 -3.132,1.33 -4.321,3.551 -1.011,-4.475 -2.59,-7.037 -5.57,-9.207 -2.98,2.17 -4.56,4.732 -5.57,9.207 -1.19,-2.221 -2.712,-3.329 -4.321,-3.551 v 5.406 c 0.933,1.624 4.4,5.366 4.4,5.366 z"
           id="path92"
           inkscape:connector-curvature="0" />
        <path
           d="m 127.54,636.56 c -1.073,-4.668 -1.996,-8.13 -7.163,-11.641 -5.167,3.51 -6.09,6.973 -7.163,11.641 z"
           id="path94"
           inkscape:connector-curvature="0" />
        <path
           d="m 130.2,639.16 v -6.762 c -2.346,0.92 -4.467,2.28 -5.249,3.795 -0.873,-3.754 -2.557,-5.408 -4.653,-7.679 -2.097,2.271 -3.501,3.925 -4.375,7.679 -0.782,-1.515 -2.902,-2.875 -5.249,-3.795 v 6.762 z"
           id="path96"
           inkscape:connector-curvature="0" />
      </g>
    </g>
    <use
       height="100%"
       width="100%"
       xlink:href="#a"
       transform="matrix(-1,0,0,1,390.74,0)"
       id="use101"
       x="0"
       y="0" />
    <g
       id="g121">
      <path
         d="m 72.694,694.25 h 245.33 v 12.531 H 72.694 Z"
         id="path103"
         inkscape:connector-curvature="0" />
      <path
         d="m 66.228,706.76 h 258.26 v 12.512 H 66.228 Z m 19.348,-31.25 h 219.56 v 8.11 H 85.576 Z"
         id="path105"
         inkscape:connector-curvature="0" />
      <path
         d="m 79.157,683.56 h 232.4 v 10.622 h -232.4 z m 10.255,-14.28 h 211.89 v 6.174 H 89.412 Z"
         id="path107"
         inkscape:connector-curvature="0" />
      <path
         d="m 112.41,669.31 h 16.005 v 49.935 H 112.41 Z"
         id="path109"
         inkscape:connector-curvature="0"
         style="stroke-width:1.04499996" />
      <path
         d="m 115.95,669.31 h 8.917 v 49.936 h -8.917 z"
         id="path111"
         inkscape:connector-curvature="0"
         style="stroke-width:1.04299998" />
      <path
         d="m 187.08,669.31 h 16.006 v 49.935 h -16.005 z"
         id="path113"
         inkscape:connector-curvature="0"
         style="stroke-width:1.04499996" />
      <path
         d="m 190.73,669.31 h 8.917 v 49.936 h -8.917 z"
         id="path115"
         inkscape:connector-curvature="0"
         style="stroke-width:1.04299998" />
      <path
         d="m 262.19,669.31 h 16.005 v 49.935 H 262.19 Z"
         id="path117"
         inkscape:connector-curvature="0"
         style="stroke-width:1.04499996" />
      <path
         d="m 265.73,669.31 h 8.917 v 49.936 h -8.917 z"
         id="path119"
         inkscape:connector-curvature="0"
         style="stroke-width:1.04299998" />
    </g>
    <g
       id="g125"
       style="fill:none">
      <path
         d="m 98.935,664.23 h 193.07 M 115.79,712.97 h 9.244 m -9.244,-6.25 h 9.244 m -9.244,-6.25 h 9.244 m -9.244,-6.25 h 9.244 m -9.244,-6.25 h 9.244 m -9.244,-6.25 h 9.244 m -9.244,-6.25 h 9.244 m 65.736,37.51 h 8.607 m -8.607,-6.253 h 8.607 m -8.607,-6.254 h 8.607 m -8.607,-6.253 h 8.607 m -8.607,-6.253 h 8.607 m -8.607,-6.253 h 8.607 m -8.607,-6.254 h 8.607 m 66.193,37.51 h 9.244 m -9.244,-6.25 h 9.244 m -9.244,-6.25 h 9.244 m -9.244,-6.25 h 9.244 m -9.244,-6.25 h 9.244 m -9.244,-6.25 h 9.244 m -9.244,-6.25 h 9.244"
         id="path123"
         inkscape:connector-curvature="0" />
    </g>
  </g>
</svg>
