<?xml version="1.0" encoding="UTF-8" standalone="no"?>
<svg
   xmlns:dc="http://purl.org/dc/elements/1.1/"
   xmlns:cc="http://creativecommons.org/ns#"
   xmlns:rdf="http://www.w3.org/1999/02/22-rdf-syntax-ns#"
   xmlns:svg="http://www.w3.org/2000/svg"
   xmlns="http://www.w3.org/2000/svg"
   xmlns:sodipodi="http://sodipodi.sourceforge.net/DTD/sodipodi-0.dtd"
   xmlns:inkscape="http://www.inkscape.org/namespaces/inkscape"
   height="16"
   width="21.333437"
   viewBox="0 0 21.333437 16"
   version="1.1"
   id="svg19"
   sodipodi:docname="kn.svg"
   inkscape:version="0.92.1 r">
  <metadata
     id="metadata23">
    <rdf:RDF>
      <cc:Work
         rdf:about="">
        <dc:format>image/svg+xml</dc:format>
        <dc:type
           rdf:resource="http://purl.org/dc/dcmitype/StillImage" />
        <dc:title></dc:title>
      </cc:Work>
    </rdf:RDF>
  </metadata>
  <sodipodi:namedview
     pagecolor="#ffffff"
     bordercolor="#666666"
     borderopacity="1"
     objecttolerance="10"
     gridtolerance="10"
     guidetolerance="10"
     inkscape:pageopacity="0"
     inkscape:pageshadow="2"
     inkscape:window-width="1920"
     inkscape:window-height="1024"
     id="namedview21"
     showgrid="false"
     fit-margin-top="0"
     fit-margin-left="0"
     fit-margin-right="0"
     fit-margin-bottom="0"
     inkscape:zoom="0.49166667"
     inkscape:cx="320.00019"
     inkscape:cy="240"
     inkscape:window-x="0"
     inkscape:window-y="0"
     inkscape:window-maximized="1"
     inkscape:current-layer="svg19" />
  <defs
     id="defs5">
    <clipPath
       id="a">
      <path
         d="m -80.109,0 h 682.67 v 512 h -682.67 z"
         id="path2"
         inkscape:connector-curvature="0"
         style="fill-opacity:0.67000002" />
    </clipPath>
  </defs>
  <g
     clip-path="url(#a)"
     transform="matrix(0.03125,0,0,0.03125,2.5034063,0)"
     id="g17"
     style="fill-rule:evenodd">
    <path
       d="M -107.85,0.239 H 629.8 v 511.29 h -737.65 z"
       id="path7"
       inkscape:connector-curvature="0"
       style="fill:#ffe900" />
    <path
       d="m -108.24,0.239 0.86,368.58 573.98,-368.82 -574.84,0.238 z"
       id="path9"
       inkscape:connector-curvature="0"
       style="fill:#35a100" />
    <path
       d="m 630.69,511.53 -1.347,-383.25 -578.98,383.54 580.33,-0.283 z"
       id="path11"
       inkscape:connector-curvature="0"
       style="fill:#c70000" />
    <path
       d="M -107.87,396.61 -107.38,512 17.87,511.84 629.63,101.7 628.94,1.38 505.18,0.239 -107.87,396.609 Z"
       id="path13"
       inkscape:connector-curvature="0" />
    <path
       d="m 380.455,156.62 -9.913,-42.245 33.354,27.075 38.014,-24.636 -17.437,41.311 33.404,27.021 -44.132,-1.541 -17.37,41.333 -9.835,-42.265 -44.138,-1.48 z m -275.245,178.91 -9.913,-42.245 33.354,27.075 38.014,-24.636 -17.437,41.311 33.404,27.021 -44.132,-1.541 -17.37,41.333 -9.835,-42.265 -44.138,-1.48 z"
       id="path15"
       inkscape:connector-curvature="0"
       style="fill:#ffffff" />
  </g>
</svg>
