<?xml version="1.0" encoding="UTF-8" standalone="no"?>
<svg
   xmlns:dc="http://purl.org/dc/elements/1.1/"
   xmlns:cc="http://creativecommons.org/ns#"
   xmlns:rdf="http://www.w3.org/1999/02/22-rdf-syntax-ns#"
   xmlns:svg="http://www.w3.org/2000/svg"
   xmlns="http://www.w3.org/2000/svg"
   xmlns:sodipodi="http://sodipodi.sourceforge.net/DTD/sodipodi-0.dtd"
   xmlns:inkscape="http://www.inkscape.org/namespaces/inkscape"
   height="16"
   width="21.333332"
   viewBox="0 0 21.333332 16"
   version="1.1"
   id="svg120"
   sodipodi:docname="ky.svg"
   inkscape:version="0.92.1 r">
  <metadata
     id="metadata126">
    <rdf:RDF>
      <cc:Work
         rdf:about="">
        <dc:format>image/svg+xml</dc:format>
        <dc:type
           rdf:resource="http://purl.org/dc/dcmitype/StillImage" />
        <dc:title></dc:title>
      </cc:Work>
    </rdf:RDF>
  </metadata>
  <defs
     id="defs124" />
  <sodipodi:namedview
     pagecolor="#ffffff"
     bordercolor="#666666"
     borderopacity="1"
     objecttolerance="10"
     gridtolerance="10"
     guidetolerance="10"
     inkscape:pageopacity="0"
     inkscape:pageshadow="2"
     inkscape:window-width="1920"
     inkscape:window-height="1024"
     id="namedview122"
     showgrid="false"
     fit-margin-top="0"
     fit-margin-left="0"
     fit-margin-right="0"
     fit-margin-bottom="0"
     inkscape:zoom="0.49166667"
     inkscape:cx="320"
     inkscape:cy="240"
     inkscape:window-x="0"
     inkscape:window-y="0"
     inkscape:window-maximized="1"
     inkscape:current-layer="svg120" />
  <path
     d="M 0,0 H 21.333333 V 16 H 0 Z"
     id="path2"
     inkscape:connector-curvature="0"
     style="fill:#000066;stroke-width:0.03333334" />
  <path
     d="M 0,0 H 13.333333 V 6.66667 H 0 Z"
     id="path4"
     inkscape:connector-curvature="0"
     style="fill:#000066;fill-rule:evenodd;stroke-width:0.03333334" />
  <g
     id="g12"
     transform="scale(0.03333333)"
     style="stroke-width:1.00000003pt">
    <path
       d="m 0,0 v 27.09 l 334.411,215.208 h 42.094 v -27.09 L 42.093,0.002 H 0 Z M 376.505,0 V 27.089 L 42.093,242.297 H 0 V 215.208 L 334.411,0 Z"
       id="path6"
       inkscape:connector-curvature="0"
       style="fill:#ffffff" />
    <path
       d="m 156.877,0 v 242.297 h 62.75 V 0 Z M 0,80.766 v 80.765 H 376.505 V 80.766 Z"
       id="path8"
       inkscape:connector-curvature="0"
       style="fill:#ffffff" />
    <path
       d="m 0,96.919 v 48.46 H 376.505 V 96.919 Z M 169.427,0 v 242.297 h 37.65 V 0 Z M 0,242.297 125.502,161.531 h 28.062 L 28.062,242.297 Z M 0,0 125.502,80.766 H 97.439 L 0,18.06 Z M 222.941,80.766 348.443,0 h 28.062 L 251.003,80.766 Z m 153.564,161.53 -125.502,-80.765 h 28.062 l 97.44,62.707 v 18.059 z"
       id="path10"
       inkscape:connector-curvature="0"
       style="fill:#cc0000" />
  </g>
  <g
     id="g118"
     transform="scale(0.03333333)">
    <path
       d="m 448.33,179.141 c -1.009,0.61 -3.028,2.44 -5.048,1.83 -2.019,-0.61 -6.562,-8.542 -11.61,-7.322 -5.05,1.22 -8.078,3.051 -10.097,3.051 -2.02,0 -7.573,1.831 -7.573,6.712 0,4.882 0.505,8.543 1.515,8.543 1.01,0 2.524,-3.05 2.524,-3.05 0,0 0.505,6.1 4.039,6.1 3.534,0 11.106,0.611 11.61,2.442 0.506,1.83 -3.533,6.102 -2.523,9.763 1.01,3.661 5.553,9.763 5.553,9.763 0,0 -6.563,4.881 -6.563,7.933 0,3.052 1.01,6.102 1.01,6.102 l -29.28,1.22 c 0,0 -2.02,86.647 -1.01,93.36 1.01,6.71 3.533,23.186 3.533,23.186 0,0 -6.562,-2.134 -12.116,3.358 -5.553,5.493 -24.988,14.948 -25.493,19.219 -0.505,4.271 -2.272,7.934 -0.252,10.984 2.019,3.05 9.124,11.34 7.067,10.985 -6.777,-1.17 -9.3,-10.798 -13.882,-14.34 -4.504,-3.476 -13.378,-2.745 -14.387,0.914 -1.01,3.662 -0.505,9.763 0,10.984 0.504,1.22 6.057,20.747 7.572,25.018 1.515,4.271 17.416,10.677 24.484,10.068 13.377,0.304 19.435,-5.796 19.94,-5.184 0.505,0.608 28.78,29.768 86.83,29.898 45.188,0.1 79.258,-29.29 79.258,-28.678 0,0.609 18.679,6.101 25.241,4.272 6.563,-1.834 16.155,-6.105 18.174,-10.376 2.02,-4.27 7.573,-26.239 8.078,-29.897 0.505,-3.663 0,-7.934 -4.544,-9.155 -4.544,-1.221 -7.067,-0.916 -9.591,0.304 -2.524,1.22 -3.282,4.58 -7.068,10.68 -2.019,1.833 -7.32,6.713 -5.805,5.492 1.515,-1.221 4.795,-10.372 5.3,-13.426 0.505,-3.05 2.02,-8.542 -1.514,-11.593 -3.534,-3.05 -8.947,-4.297 -15.145,-8.846 -5.886,-4.034 -10.6,-10.68 -14.135,-10.68 -3.534,0 -7.573,-1.829 -7.068,-1.829 0.505,0 4.552,-8.865 3.542,-18.016 -1.01,-9.155 0.496,-96.7 -0.008,-96.7 -0.505,0 -25.242,1.83 -25.242,0.61 0,-1.22 2.02,-9.763 0,-15.255 -2.019,-5.491 -10.601,-9.153 -8.077,-10.373 2.524,-1.22 13.63,-4.271 13.125,-9.153 -0.505,-4.882 -7.572,-4.271 -10.601,-6.102 -3.029,-1.83 -12.116,-10.373 -13.126,-10.373 -1.01,0 26.25,-16.475 24.232,-16.475 -2.019,0 -12.62,-3.05 -16.154,-1.22 0,-3.051 14.64,-12.204 12.116,-13.425 -2.524,-1.22 -14.136,-2.44 -11.107,-3.05 3.03,-0.61 4.039,-7.933 3.534,-7.933 -0.505,0 -13.125,1.83 -13.125,1.83 0,0 -3.03,-4.27 -4.039,-4.27 -1.01,0 -5.553,2.44 -5.553,2.44 l -2.524,-6.712 -5.553,3.661 -2.524,-3.051 c 0,0 -4.544,1.22 -4.544,0 0.191,-0.044 -0.523,-3.064 -1.236,-3.064 -0.715,0 -5.712,3.883 -5.89,3.667 -0.179,-0.215 -5.712,-7.982 -5.712,-7.766 0,0.216 -3.927,14.67 -4.105,14.67 -0.178,0 -3.927,0.431 -4.105,0.647 -0.179,0.216 -19.99,-11.434 -19.811,-11.218 0.178,0.216 5.175,11.218 5.175,11.218 0,0 -4.283,2.373 -4.283,2.59 0,0.215 0.714,4.96 0.714,4.96 l -13.21,-4.53 c 0,0 4.998,10.139 4.64,10.139 -0.356,0 -9.816,0.432 -9.637,0.432 0.178,0 4.462,8.413 4.462,8.413 l -1.606,4.962 c 0,0 14.217,10.033 13.207,10.644 z m 84.307,212.347 c 1.262,1.83 8.077,10.372 7.067,10.372 -1.01,0 -17.92,11.289 -24.737,13.426 -6.815,2.134 -29.027,6.1 -27.765,5.796 1.262,-0.304 19.946,-10.535 27.519,-15.414 7.572,-4.88 17.915,-13.57 17.915,-14.18 z M 427.124,391.18 c -1.01,1.22 -5.806,10.68 -5.806,10.68 0,0 13.883,9.763 24.232,13.425 10.349,3.659 28.018,4.88 27.008,4.575 -1.01,-0.304 -22.212,-9.763 -28.27,-14.643 -6.058,-4.883 -16.912,-14.038 -17.165,-14.038 z"
       id="path14"
       inkscape:connector-curvature="0"
       style="fill:#ffffff;fill-rule:evenodd" />
    <g
       id="g48"
       style="fill:#fec500;fill-rule:evenodd;stroke:#6d6666">
      <path
         d="m 394.65,-212.97 c 0,0 28.777,17.265 35.354,21.376 6.577,4.111 27.954,22.199 29.598,21.377 1.645,-0.822 13.155,-9.866 13.155,-9.866 0,0 -23.843,-18.91 -38.642,-23.021 -14.799,-4.111 -39.465,-8.222 -39.465,-9.866 z"
         transform="matrix(0.307,0,0,0.37108,317.054,244.257)"
         id="path16"
         inkscape:connector-curvature="0"
         style="stroke-width:1.403" />
      <path
         d="m 390.54,-231.88 c 2.467,0 47.687,23.022 61.664,34.532 13.977,11.51 19.732,26.31 21.377,26.31 1.644,0 23.021,-3.289 22.198,-3.289 -0.822,0 -9.866,-29.598 -30.42,-38.642 -20.555,-9.044 -73.996,-18.911 -74.819,-18.911 z"
         transform="matrix(0.307,0,0,0.37108,317.054,244.257)"
         id="path18"
         inkscape:connector-curvature="0"
         style="stroke-width:1.403" />
      <path
         d="m 603.48,-296.01 c -0.822,0 -9.044,24.666 -11.511,32.065 -2.466,7.4 -6.577,23.021 -6.577,23.021 0,0 -36.176,3.289 -34.532,-0.822 1.645,-4.111 55.086,-54.264 52.62,-54.264 z"
         transform="matrix(0.307,0,0,0.37108,317.054,245.983)"
         id="path20"
         inkscape:connector-curvature="0"
         style="stroke-width:1.403" />
      <path
         d="m 398.76,-261.48 c 0,0 42.754,28.776 57.553,45.22 14.799,16.443 29.598,45.22 30.42,45.22 0.823,0 40.287,-8.222 40.287,-7.4 0,0.822 -46.042,-46.042 -68.241,-60.019 -22.199,-13.977 -59.197,-21.377 -60.019,-23.021 z"
         transform="matrix(0.307,0,0,0.37108,317.054,244.257)"
         id="path22"
         inkscape:connector-curvature="0"
         style="stroke-width:1.403" />
      <path
         d="m 443.16,-273.81 c 0,0 21.377,32.887 25.487,44.398 4.111,11.51 16.444,41.109 16.444,41.109 H 518.8 c 0,0 -16.443,-36.998 -34.531,-55.086 -18.088,-18.088 -40.287,-28.776 -41.109,-30.421 z"
         transform="matrix(0.307,0,0,0.37108,317.054,245.983)"
         id="path24"
         inkscape:connector-curvature="0"
         style="stroke-width:1.403" />
      <path
         d="m 454.66,-291.9 c 0.823,2.467 31.243,31.243 38.643,50.153 7.399,18.91 13.155,42.754 13.155,42.754 l 29.598,-7.4 c 0,0 -26.31,-48.509 -42.753,-61.664 -16.444,-13.154 -36.998,-22.198 -38.643,-23.843 z"
         transform="matrix(0.307,0,0,0.37108,317.054,245.983)"
         id="path26"
         inkscape:connector-curvature="0"
         style="stroke-width:1.403" />
      <path
         d="m 700.5,-209.68 c 0,0 -61.663,6.578 -83.862,12.333 -22.199,5.755 -34.532,27.132 -34.532,27.132 0,0 28.777,10.688 30.421,9.044 1.644,-1.644 18.91,-18.91 37.82,-25.488 18.91,-6.577 51.797,-22.199 50.153,-23.021 z"
         transform="matrix(0.307,0,0,0.37108,317.054,244.257)"
         id="path28"
         inkscape:connector-curvature="0"
         style="stroke-width:1.403" />
      <path
         d="m 698.03,-249.97 c -1.645,0.823 -50.975,41.11 -66.597,54.264 -15.621,13.155 -30.421,27.132 -32.065,27.954 -1.644,0.823 -32.065,-4.11 -30.421,-5.755 1.645,-1.644 45.22,-36.998 73.997,-52.619 28.776,-15.622 52.619,-22.199 55.086,-23.844 z"
         transform="matrix(0.307,0,0,0.37108,317.054,244.257)"
         id="path30"
         inkscape:connector-curvature="0"
         style="stroke-width:1.403" />
      <path
         d="m 685.7,-278.75 c -4.933,5.755 -53.442,45.22 -66.597,59.197 -13.155,13.977 -34.531,38.643 -34.531,38.643 0,0 -25.488,-11.511 -23.843,-16.444 1.644,-4.933 36.175,-33.709 60.841,-50.153 24.665,-16.444 66.596,-29.599 64.13,-31.243 z"
         transform="matrix(0.307,0,0,0.37108,317.054,244.257)"
         id="path32"
         inkscape:connector-curvature="0"
         style="stroke-width:1.403" />
      <path
         d="m 636.37,-282.04 c -0.822,0.823 -29.598,31.243 -35.354,39.465 -5.755,8.222 -23.021,44.398 -23.021,44.398 0,0 -25.487,-22.199 -25.487,-23.021 0,-0.822 32.065,-34.532 50.975,-47.687 18.91,-13.155 33.709,-10.688 32.887,-13.155 z"
         transform="matrix(0.307,0,0,0.37108,317.054,244.257)"
         id="path34"
         inkscape:connector-curvature="0"
         style="stroke-width:1.403" />
      <path
         d="m 565.09,-241.77 c 0,5.78 -4.685,10.465 -10.465,10.465 -5.78,0 -10.465,-4.685 -10.465,-10.465 0,-5.78 4.685,-10.465 10.465,-10.465 5.78,0 10.465,4.685 10.465,10.465 z m 20.93,13.96 c 0,5.137 -4.685,9.302 -10.465,9.302 -5.78,0 -10.465,-4.165 -10.465,-9.302 0,-5.137 4.685,-9.302 10.465,-9.302 5.78,0 10.465,4.165 10.465,9.302 z m -46.51,-10.47 c 0,5.137 -5.726,9.302 -12.79,9.302 -7.064,0 -12.79,-4.165 -12.79,-9.302 0,-5.137 5.726,-9.302 12.79,-9.302 7.064,0 12.79,4.165 12.79,9.302 z"
         transform="matrix(0.307,0,0,0.37108,317.054,245.983)"
         id="path36"
         inkscape:connector-curvature="0"
         style="stroke-width:1.49699998" />
      <path
         d="m 573.23,-219.09 c 0,9.954 -6.507,18.022 -14.534,18.022 -8.027,0 -14.534,-8.069 -14.534,-18.022 0,-9.954 6.507,-18.022 14.534,-18.022 8.027,0 14.534,8.069 14.534,18.022 z m -39.53,0.58 c 0,7.706 -6.507,13.953 -14.534,13.953 -8.027,0 -14.534,-6.247 -14.534,-13.953 0,-7.706 6.507,-13.953 14.534,-13.953 8.027,0 14.534,6.247 14.534,13.953 z"
         transform="matrix(0.307,0,0,0.37108,317.054,245.983)"
         id="path38"
         inkscape:connector-curvature="0"
         style="stroke-width:1.49699998" />
      <path
         d="m 513.93,-207.46 c 0,6.743 -4.946,12.209 -11.046,12.209 -6.1,0 -11.046,-5.466 -11.046,-12.209 0,-6.743 4.945,-12.209 11.046,-12.209 6.1,0 11.046,5.466 11.046,12.209 z m 81.39,-1.17 c 0,8.027 -7.548,14.534 -16.86,14.534 -9.311,0 -16.86,-6.507 -16.86,-14.534 0,-8.027 7.548,-14.534 16.86,-14.534 9.311,0 16.86,6.507 16.86,14.534 z m -40.69,-20.93 c 0,4.816 -5.987,8.72 -13.372,8.72 -7.385,0 -13.372,-3.904 -13.372,-8.72 0,-4.816 5.987,-8.72 13.372,-8.72 7.385,0 13.372,3.904 13.372,8.72 z"
         transform="matrix(0.307,0,0,0.37108,317.054,245.983)"
         id="path40"
         inkscape:connector-curvature="0"
         style="stroke-width:1.49699998" />
      <path
         d="m 556.95,-210.37 c 0,7.064 -8.33,12.79 -18.604,12.79 -10.274,0 -18.604,-5.726 -18.604,-12.79 0,-7.064 8.33,-12.79 18.604,-12.79 10.274,0 18.604,5.726 18.604,12.79 z m 47.67,22.67 c 0,8.67 -7.809,15.697 -17.441,15.697 -9.632,0 -17.441,-7.028 -17.441,-15.697 0,-8.669 7.809,-15.697 17.441,-15.697 9.633,0 17.441,7.028 17.441,15.697 z m -95.34,-4.07 c 0,5.78 -4.425,10.465 -9.883,10.465 -5.458,0 -9.884,-4.685 -9.884,-10.465 0,-5.78 4.425,-10.465 9.884,-10.465 5.459,0 9.883,4.685 9.883,10.465 z"
         transform="matrix(0.307,0,0,0.37108,317.054,245.983)"
         id="path42"
         inkscape:connector-curvature="0"
         style="stroke-width:1.49699998" />
      <path
         d="m 579.04,-193.51 c 0,7.385 -6.768,13.372 -15.116,13.372 -8.348,0 -15.116,-5.987 -15.116,-13.372 0,-7.385 6.768,-13.372 15.116,-13.372 8.348,0 15.116,5.987 15.116,13.372 z m -47.67,-0.58 c 0,6.422 -5.987,11.627 -13.371,11.627 -7.385,0 -13.371,-5.206 -13.371,-11.627 0,-6.422 5.987,-11.627 13.371,-11.627 7.385,0 13.371,5.206 13.371,11.627 z"
         transform="matrix(0.307,0,0,0.37108,317.054,245.983)"
         id="path44"
         inkscape:connector-curvature="0"
         style="stroke-width:1.49699998" />
      <path
         d="m 554.63,-190.61 c 0,7.064 -6.247,12.79 -13.953,12.79 -7.706,0 -13.953,-5.726 -13.953,-12.79 0,-7.064 6.247,-12.79 13.953,-12.79 7.706,0 13.953,5.726 13.953,12.79 z m -60.47,-76.74 c 3.488,0 27.906,8.139 27.906,8.139 0,0 -30.232,11.628 -25.581,10.465 4.651,-1.163 33.72,-4.651 31.394,-4.651 -2.325,0 -25.58,22.092 -18.604,20.929 6.977,-1.162 20.93,-15.115 22.092,-15.115 1.163,0 15.116,22.092 16.279,20.929 1.162,-1.163 0,-22.092 1.162,-22.092 1.163,0 29.069,13.953 26.743,12.79 -2.325,-1.163 -18.603,-17.441 -17.441,-17.441 1.163,0 38.371,3.488 36.045,2.325 -2.325,-1.162 -24.417,-11.627 -24.417,-11.627 0,0 16.278,-15.115 12.79,-15.115 -3.488,0 -30.231,15.115 -27.906,13.952 2.326,-1.162 29.069,-31.393 29.069,-31.393 l -26.743,12.79 c 0,0 4.651,-18.604 2.325,-17.442 -2.325,1.163 -20.929,24.418 -22.092,24.418 -1.163,0 -5.814,-23.255 -5.814,-23.255 0,0 1.163,25.58 -5.813,26.743 -6.977,1.163 -31.394,5.814 -31.394,4.651 z"
         transform="matrix(0.307,0,0,0.37108,317.054,245.983)"
         id="path46"
         inkscape:connector-curvature="0"
         style="stroke-width:1.49699998" />
    </g>
    <g
       id="g62"
       style="fill-rule:evenodd">
      <path
         d="m 445.509,216.536 c 0.178,0.863 5.89,16.396 14.636,15.964 8.746,-0.432 12.315,-3.02 11.958,-3.236 -0.357,-0.216 -4.105,-2.804 -6.247,-8.414 -2.142,-5.609 -2.499,-7.982 -2.499,-7.982 z m 31.235,-6.041 c 0,0 6.425,15.317 9.28,17.474 2.857,2.158 9.46,3.884 12.316,3.668 2.856,-0.216 6.247,0 6.247,0 0,0 -2.855,-1.51 -5.176,-9.924 -2.321,-8.414 -3.034,-11.218 -3.034,-11.218 z m 39.266,5.609 c 0,0 -1.25,11.218 0,14.023 1.25,2.805 7.496,7.982 7.496,7.982 0,0 7.496,-1.079 7.675,-7.982 0.178,-6.904 -2.499,-13.376 -2.499,-13.376 z"
         id="path50"
         inkscape:connector-curvature="0"
         style="fill:#00389b" />
      <path
         d="m 288.94,21.015 c 0,0 1.163,4.65 0,8.14 -1.163,3.49 -11.046,12.79 -11.046,20.347 0,7.558 11.627,30.812 47.091,31.394 35.463,0.581 80.229,-19.185 79.647,-19.767 -0.58,-0.58 -84.88,-56.974 -86.04,-56.393 -1.16,0.582 -29.65,17.441 -29.65,16.28 z m 234.29,40.114 c 0,0 7.557,20.348 10.464,22.674 2.907,2.325 4.07,6.976 4.651,6.976 0.581,0 48.835,10.464 48.835,10.464 0,0 4.651,-13.37 -2.325,-23.836 -6.977,-10.465 -33.138,-37.789 -33.138,-37.789 l -28.49,21.511 z M 556.37,36.13 c 1.162,0 12.79,9.883 22.092,4.65 9.301,-5.231 24.417,-19.184 24.417,-19.184 0,0 -12.79,4.07 -22.092,3.488 -9.302,-0.581 -23.836,11.627 -24.417,11.046 z"
         transform="matrix(0.307,0,0,0.37108,350.733,188.675)"
         id="path52"
         inkscape:connector-curvature="0"
         style="fill:#005120;stroke:#000000;stroke-width:1.49699998" />
      <path
         d="m 287.2,23.34 c 0,0 -3.488,-9.883 -12.79,-10.465 -9.302,-0.581 -26.162,1.163 -31.975,-3.488 -5.814,-4.651 -7.558,-15.697 -10.465,-15.116 -2.907,0.581 -10.465,0 -11.046,0 -0.581,0 -3.488,-9.302 4.651,-13.953 8.139,-4.651 15.116,-0.582 19.766,-4.07 4.651,-3.488 11.628,-5.814 20.93,-6.395 9.302,-0.581 24.417,11.628 31.394,14.534 6.976,2.907 22.092,6.395 27.905,3.488 5.814,-2.907 38.371,-15.697 49.998,-16.278 11.627,-0.581 36.045,-1.162 45.347,-0.581 9.302,0.581 45.928,5.232 56.974,10.465 11.046,5.232 69.764,25.58 77.903,30.23 8.139,4.652 26.162,11.628 26.162,11.628 0,0 -31.976,31.394 -47.672,36.626 -15.697,5.232 -65.695,13.372 -95.345,11.627 -29.65,-1.744 -52.904,-4.651 -75.578,-16.278 -22.68,-11.626 -47.1,-22.672 -48.26,-28.486 -1.16,-5.813 -0.58,-13.371 -0.58,-13.371 l -27.324,9.883 z"
         transform="matrix(0.307,0,0,0.37108,350.733,188.675)"
         id="path54"
         inkscape:connector-curvature="0"
         style="fill:#005120;stroke:#000000;stroke-width:1.49699998" />
      <path
         d="m 251.15,-14.449 c -1.163,0.581 -6.976,2.907 -5.814,4.07 1.163,1.162 3.489,4.65 10.465,4.07 6.977,-0.582 14.534,-4.652 14.534,-4.652 0,0 -8.72,-4.07 -19.185,-3.488 z"
         transform="matrix(0.307,0,0,0.37108,350.733,188.675)"
         id="path56"
         inkscape:connector-curvature="0"
         style="fill:#005120;stroke:#000000;stroke-width:1.49699998" />
      <path
         d="m 250.57,-13.286 v 6.395 c 0,0 8.139,2.325 8.139,0.581 0,-1.744 0.581,-5.813 -1.163,-5.813 -1.744,0 -6.395,-0.582 -6.976,-1.163 z"
         transform="matrix(0.307,0,0,0.37108,350.733,188.675)"
         id="path58"
         inkscape:connector-curvature="0"
         style="stroke:#000000;stroke-width:1.49699998" />
      <path
         d="m 331.95,-8.453 c 2.056,-3.7 0,-8.632 11.922,-14.388 11.921,-5.755 32.681,-4.11 32.681,-4.11 0,0 -5.96,4.521 -6.166,9.249 -0.205,4.727 0.411,6.783 0.411,6.783 0,0 -11.305,-3.7 -19.938,-1.439 -8.633,2.261 -18.704,4.522 -18.91,3.905 z m 53.45,-20.143 c -1.233,0.617 -10.277,10.688 -9.25,13.772 1.028,3.083 13.155,10.483 17.061,9.866 3.905,-0.616 21.787,-9.25 22.815,-13.566 1.028,-4.316 1.85,-10.072 0.411,-11.305 -1.439,-1.233 -30.832,1.645 -31.037,1.233 z m 39.26,-1.644 c -2.261,2.261 -1.439,13.155 -0.617,14.388 0.822,1.233 15.005,15.416 18.088,16.238 3.083,0.822 25.899,-1.439 27.749,-3.905 1.85,-2.466 7.399,-12.95 5.755,-15.416 -1.645,-2.467 -6.578,-5.756 -21.788,-9.044 -15.21,-3.288 -24.254,-2.878 -29.187,-2.261 z m 58.16,13.771 c 3.7,1.85 25.282,12.333 38.026,20.76 12.743,8.427 17.882,18.088 21.582,18.91 3.7,0.822 18.704,-8.222 19.321,-10.688 0.617,-2.467 -18.293,-15.621 -31.037,-21.582 -12.744,-5.96 -47.892,-6.783 -47.892,-7.4 z m -4.52,8.839 c -1.85,1.644 23.021,45.014 27.748,46.453 4.728,1.438 33.093,-8.428 32.682,-11.716 C 538.32,23.819 530.92,17.241 513.45,7.581 495.98,-2.08 481.8,-8.452 478.3,-7.63 Z M 447.47,8.196 c -3.905,2.261 -10.071,41.11 -6.166,42.96 3.905,1.85 52.003,-4.728 53.853,-9.044 1.849,-4.317 -19.733,-38.643 -26.105,-38.643 -6.371,0 -17.882,1.645 -21.582,4.728 z m -49.74,-8.221 c -5.14,4.727 -4.11,40.903 -1.85,43.164 2.261,2.26 30.831,9.66 33.914,6.988 3.084,-2.672 7.195,-43.37 4.317,-46.453 -2.878,-3.083 -10.894,-10.483 -17.06,-11.099 -6.167,-0.616 -16.444,5.96 -19.321,7.4 z m -64.54,-0.617 c -4.728,3.7 -4.933,13.36 0.205,15.005 5.139,1.644 17.882,7.194 29.804,12.333 11.922,5.139 18.705,11.305 22.199,11.099 3.494,-0.206 6.783,-36.381 3.083,-38.437 -3.7,-2.055 -14.594,-3.7 -24.871,-3.289 -10.277,0.411 -25.282,1.44 -30.42,3.289 z"
         transform="matrix(0.307,0,0,0.37108,350.733,188.675)"
         id="path60"
         inkscape:connector-curvature="0"
         style="fill:#001707;stroke:#000007;stroke-width:1.49699998" />
    </g>
    <path
       d="m 387.976,359.201 c 2.59,-2.52 6.616,-8.682 12.081,-8.962 5.466,-0.28 11.22,4.761 11.22,4.761 0,0 5.752,23.528 5.465,23.528 -0.288,0 -9.493,6.722 -9.78,6.722 -0.288,0 -4.028,-9.243 -7.48,-8.404 -3.451,0.841 -3.164,13.445 -3.739,12.605 -0.575,-0.84 -15.245,-18.206 -14.67,-18.766 0.576,-0.56 7.192,-10.642 6.904,-11.483 z m 151.89,-3.081 c 1.726,-0.28 9.493,-6.163 14.958,-5.882 5.466,0.28 8.63,2.8 11.506,5.321 2.876,2.521 6.329,8.962 6.329,8.962 0,0 -6.904,19.046 -7.479,19.046 -0.575,0 -3.452,1.681 -4.028,0.28 -0.576,-1.401 -2.3,-5.882 -5.753,-6.442 -3.451,-0.56 -4.315,6.161 -4.315,6.161 l -11.217,-27.447 z"
       id="path64"
       inkscape:connector-curvature="0"
       style="fill:#d40f0f;fill-opacity:0.99599998;fill-rule:evenodd" />
    <path
       d="m 543.604,362.007 c 0,1.682 10.643,28.01 27.903,33.05 17.258,5.041 22.724,-4.761 24.737,-8.122 2.013,-3.361 9.205,-3.08 9.205,-3.08 0,0 -1.725,24.647 -4.603,27.727 -2.876,3.081 -5.178,9.803 -21.286,10.082 -16.107,0.281 -30.778,-15.123 -35.667,-19.605 -4.892,-4.482 -11.22,-16.244 -13.81,-21.567 -2.587,-5.32 13.809,-17.924 13.52,-18.485 z m -187.556,52.367 c 0.288,0 7.767,8.123 18.697,7.282 10.931,-0.839 29.629,-7.282 38.258,-18.485 8.63,-11.202 12.944,-23.247 12.944,-23.247 0,0 -12.656,-22.406 -12.944,-22.406 -0.288,0 -1.438,7.282 -3.74,12.043 -2.301,4.762 -8.63,18.205 -19.272,22.408 -10.644,4.2 -10.644,5.88 -14.958,5.32 -4.315,-0.56 -15.533,-7.281 -15.533,-7.562 0,-0.28 -5.465,13.165 -5.465,13.165 0,0 -1.151,8.682 2.013,11.483 z"
       id="path66"
       inkscape:connector-curvature="0"
       style="fill:#fddc59;fill-opacity:0.99599998;fill-rule:evenodd" />
    <path
       d="m 387.782,358.423 c -0.814,0 -21.154,11.091 -20.34,15.844 0.813,4.753 34.985,72.089 108.206,72.88 73.223,0.794 117.975,-60.998 114.719,-71.296 -3.254,-10.298 -26.034,-22.181 -26.034,-22.181 0,0 5.694,4.753 4.881,11.09 -0.814,6.338 -26.036,61 -89.497,59.416 -63.461,-1.585 -93.565,-49.908 -93.565,-55.453 0,-5.545 3.255,-8.715 1.628,-10.299 z"
       id="path68"
       inkscape:connector-curvature="0"
       style="fill:#fddc59;fill-opacity:0.99599998;fill-rule:evenodd" />
    <path
       d="m 586.171,407.38 c 1.727,-1.4 12.37,-30.529 18.41,-29.688 6.042,0.84 4.029,9.522 3.453,11.763 -0.575,2.24 -6.616,22.407 -6.616,22.407 0,0 0.288,-4.762 -3.74,-5.882 -4.026,-1.12 -10.643,1.961 -11.506,1.401 z m -230.123,7.291 c 0,-1.583 -4.882,-7.129 0.813,-8.714 5.696,-1.583 13.019,1.585 13.019,1.585 0,0 -4.069,-11.883 -8.95,-21.39 -4.882,-9.505 -6.51,-7.92 -10.577,-6.337 -4.068,1.585 -3.97,5.778 -1.528,12.115 2.44,6.338 7.223,24.326 7.223,22.741 z"
       id="path70"
       inkscape:connector-curvature="0"
       style="fill:#d40f0f;fill-opacity:0.99599998;fill-rule:evenodd" />
    <path
       d="m 423.176,360.347 7.063,-23.923 -19.616,-15.038 24.568,-0.567 8.012,-23.608 8.123,23.568 24.567,0.455 -19.549,15.13 7.17,23.887 -20.201,-14.216 z"
       id="path72"
       inkscape:connector-curvature="0"
       style="fill:#fdc400;fill-rule:evenodd" />
    <path
       d="m 555.637,235.833 v 92.04 c 0.18,44.983 -45.689,84.374 -76.147,92.04 -30.461,-7.666 -76.328,-47.057 -76.147,-92.036 v -92.04 h 152.294 z"
       id="path74"
       inkscape:connector-curvature="0"
       style="fill:#ffffff;fill-rule:evenodd" />
    <path
       d="m 177.16,325.98 0.421,160.73 c 0,0 2.386,-3.288 35.012,-1.284 32.627,2.004 35.433,35.433 70.867,35.433 35.433,0 35.433,-35.433 70.866,-35.433 35.433,0 35.433,35.433 70.866,35.433 35.433,0 35.433,-35.433 70.866,-35.433 35.433,0 35.433,35.433 72.87,37.459 33.429,-2.026 33.429,-37.459 69.062,-39.463 l 35.233,2.004 v -159.45 h -496.06 z"
       transform="matrix(0.307,0,0,0.35829,348.952,119.039)"
       id="path76"
       inkscape:connector-curvature="0"
       style="fill:#d40f0f;fill-opacity:0.99599998;fill-rule:evenodd;stroke:#000000;stroke-width:1.49699998" />
    <path
       d="m 403.34,312.006 v 19.043 h 10.879 c 10.016,0.718 10.878,12.695 21.756,12.695 10.878,0 10.878,-12.695 21.756,-12.695 10.878,0 10.878,12.695 21.757,12.695 10.879,0 10.878,-12.695 21.756,-12.695 10.878,0 10.263,11.969 21.756,12.695 10.263,-0.726 10.817,-11.977 21.757,-12.695 h 10.878 v -19.043 h -10.878 c -10.879,0 -10.879,12.695 -21.757,12.695 -10.878,0 -10.878,-12.695 -21.756,-12.695 -10.878,0 -10.878,12.694 -21.756,12.694 -10.879,0 -10.879,-12.695 -21.757,-12.695 -10.878,0 -10.878,12.695 -21.756,12.695 -10.878,0 -10.878,-12.695 -21.756,-12.695 H 403.34 Z m 3.283,38.082 7.596,19.043 c 10.017,0.718 10.878,12.695 21.757,12.695 10.878,0 10.878,-12.695 21.756,-12.695 10.878,0 10.878,12.695 21.756,12.695 10.878,0 10.879,-12.695 21.757,-12.695 10.878,0 10.263,11.97 21.756,12.695 10.263,-0.726 10.564,-11.977 21.504,-12.695 l 7.85,-19.337 -7.598,0.294 c -10.878,0 -10.878,12.695 -21.756,12.696 -10.878,0 -10.878,-12.696 -21.756,-12.696 -10.878,0 -10.878,12.695 -21.757,12.695 -10.878,0 -10.878,-12.695 -21.756,-12.695 -10.878,0 -10.878,12.695 -21.756,12.695 -10.878,0 -10.878,-12.695 -21.757,-12.695 z m 72.867,69.823 c 10.879,0 35.803,-19.043 35.548,-19.043 0.253,0 -2.914,-12.695 -13.792,-12.695 -10.878,0 -10.878,12.695 -21.757,12.695 -10.878,0 -10.878,-12.695 -21.756,-12.695 -10.878,0 -13.655,12.695 -13.68,12.695 -0.504,0 24.558,19.043 35.435,19.043 z"
       id="path78"
       inkscape:connector-curvature="0"
       style="fill:#0062bb;fill-opacity:0.99599998;fill-rule:evenodd" />
    <path
       d="m 90.849,117.57 c 0.822,0 8.222,1.233 13.565,0.822 5.344,-0.411 7.4,-2.467 7.4,-2.878 v -1.233 h 6.988 c 0,0 1.233,5.755 0.411,6.166 -0.822,0.411 -2.878,2.056 -3.289,2.056 -0.411,0 0,-2.878 -0.822,-2.056 -0.822,0.822 -1.233,2.056 -1.233,2.056 0,0 -0.822,-1.234 -1.233,-1.234 -0.411,0 -1.233,1.234 -1.233,1.234 0,0 0,-1.234 -0.412,-1.234 -0.411,0 -2.466,2.056 -2.466,2.056 l -2.055,-1.645 c 0,0 -1.234,2.056 -1.645,2.056 -0.411,0 -2.877,-1.644 -2.877,-1.644 l -4.111,2.466 c 0,0 0,-3.7 -0.822,-3.289 -0.822,0.411 -5.344,0.411 -5.344,0.411 0,0 -1.234,2.467 -1.645,2.467 -0.411,0 -2.055,-2.055 -1.644,-2.055 0.411,0 1.233,-1.234 0.822,-1.645 -0.41,-0.411 -2.466,0 -2.466,-0.411 0,-0.411 -0.822,-2.878 -0.411,-2.878 0.411,0 2.055,0.412 2.055,0.412 v -2.467 h 2.055 z"
       transform="matrix(1.5005,0,0,1.3054,286.934,126.302)"
       id="path80"
       inkscape:connector-curvature="0"
       style="fill:#fdc400;fill-opacity:0.99599998;fill-rule:evenodd;stroke:#000000;stroke-width:0.70099998" />
    <path
       d="m 98.248,94.136 c -0.411,0 -3.289,3.289 -2.878,6.988 0.411,3.7 7.4,9.044 7.4,9.044 0,0 3.7,-1.644 4.933,0 1.233,1.644 1.233,6.577 0.822,6.577 -0.411,0 -5.344,1.234 -5.344,0.41 0,-0.821 0,-1.643 -0.411,-1.643 -0.411,0 -4.933,0.41 -4.933,0.41 l 0.411,-1.643 -4.11,-0.822 1.644,-1.645 c 0,0 -6.578,-2.877 -6.167,-2.877 0.411,0 2.878,-1.644 2.878,-1.644 L 87.56,104 h 2.878 c 0,0 -4.111,-3.288 -3.7,-3.288 0.41,0 2.466,0.41 2.466,0.41 l -1.233,-3.287 h 1.233 l -1.233,-2.467 2.055,-0.822 1.234,2.055 -0.411,-4.933 2.877,0.412 v 4.11 c 0,0 1.233,-2.466 1.233,-2.877 0,-0.411 3.7,1.644 3.289,0.822 z"
       transform="matrix(1.5005,0,0,1.3054,286.934,126.302)"
       id="path82"
       inkscape:connector-curvature="0"
       style="fill:#fdc400;fill-opacity:0.99599998;fill-rule:evenodd;stroke:#000000;stroke-width:0.70099998" />
    <path
       d="m 529.965,282.453 c -0.771,0.671 -3.085,2.146 -3.085,2.146 0,0 5.244,-0.402 5.09,-0.402 -0.154,0 -1.85,-1.342 -2.005,-1.744 z m 4.471,2.545 c -0.307,0.403 -1.233,4.562 -0.616,4.293 0.616,-0.268 3.083,-3.354 3.083,-3.354 z m 7.083,0.536 c 0.77,0.67 4.317,3.755 3.854,3.084 -0.462,-0.67 -0.925,-3.488 -1.233,-3.62 -0.31,-0.135 -2.314,0.803 -2.621,0.536 z m -62.135,-4.426 c -0.462,0.135 -4.317,2.684 -4.317,2.684 0,0 6.477,-1.074 6.167,-1.074 -0.307,0 -2.004,-1.206 -1.85,-1.61 z m 4.006,3.225 c -0.616,0.536 -2.62,4.292 -1.85,4.159 0.772,-0.135 4.164,-2.55 4.164,-2.55 l -2.313,-1.61 z m -2.475,-5.235 c -0.462,-0.134 -3.702,-1.476 -3.547,-1.476 0.155,0 4.318,-0.939 4.318,-0.939 z m -61.057,-1.736 -4.626,-3.22 5.86,1.61 z m -4.009,2.141 c -0.617,0 -6.477,3.219 -6.323,3.219 0.154,0 8.173,0.134 8.019,0 -0.154,-0.133 -1.388,-2.95 -1.696,-3.22 z m 3.7,4.699 c -0.617,0.27 -5.243,3.354 -4.935,3.354 0.309,0 6.94,0.134 6.94,0 0,-0.134 -1.851,-3.22 -2.005,-3.354 z m -0.617,-33.41 c 0,0 -1.696,-3.756 -1.542,-3.756 0.154,0 4.318,2.951 4.318,2.951 z m 4.626,-4.696 c 0,-0.134 0.463,-2.414 0.463,-2.414 0,0 4.163,2.817 4.009,2.817 -0.154,0 -4.164,0 -4.472,-0.403 z m 6.477,1.744 c 0,-0.134 0.463,-3.488 0.463,-3.488 0,0 3.855,4.562 3.547,4.696 -0.309,0.134 -3.701,-0.67 -4.01,-1.208 z"
       id="path84"
       inkscape:connector-curvature="0"
       style="fill-opacity:0.99599998;fill-rule:evenodd" />
    <path
       d="m 137.26,110.86 c 0,0.206 4.316,3.7 4.419,4.522 0.102,0.822 -7.811,1.028 -7.811,1.028 0,0 -2.261,-1.747 -2.98,-1.645 -0.72,0.103 -1.028,1.85 -1.028,1.85 l 1.85,1.028 -3.494,0.205 1.028,1.953 2.672,-0.206 -0.617,1.85 c 0,0 1.644,1.234 1.953,1.028 0.308,-0.205 1.336,-2.055 2.158,-2.364 0.822,-0.308 2.569,-0.308 2.569,-0.308 0,0 -1.336,2.261 -0.719,2.261 0.616,0 3.391,-2.364 3.391,-2.364 0,0 0.617,2.158 0.719,2.158 0.103,0 2.056,-2.466 2.056,-2.466 0,0 0,1.953 0.308,1.953 0.308,0 3.186,-2.467 3.186,-2.467 0,0 2.261,2.878 2.569,2.672 0.309,-0.205 0.617,-3.083 0.925,-3.083 0.308,0 2.261,-0.308 2.261,-0.411 0,-0.103 -1.233,-1.131 -1.439,-2.569 -0.205,-1.439 0.206,-4.83 0.103,-4.83 -0.103,0 -13.874,0.513 -14.079,0.205 z"
       transform="matrix(1.5005,0,0,1.3054,285.91,126.597)"
       id="path86"
       inkscape:connector-curvature="0"
       style="fill:#fdc400;fill-opacity:0.99599998;fill-rule:evenodd;stroke:#000000;stroke-width:0.70099998" />
    <path
       d="m 115.37,104.6 h 40.286 c 4.111,0 7.81,-1.644 7.81,-4.111 0,-2.466 -6.577,-2.877 -9.043,-2.055 -2.467,0.822 -13.155,5.755 -17.677,5.344 -4.522,-0.411 -8.632,-3.289 -9.043,-6.166 -0.412,-2.878 2.055,-5.344 6.577,-5.344 4.522,0 10.277,1.644 11.51,1.233 1.233,-0.411 4.111,-3.7 5.344,-4.11 1.233,-0.412 4.933,-0.823 4.933,-0.823 l -1.644,1.233 5.344,-1.233 c 0,0 -4.111,4.522 -8.222,5.755 -4.111,1.234 -12.743,0.822 -16.032,0.822 -3.289,0 -4.933,-0.41 -4.522,2.056 0.411,2.466 2.878,4.111 4.933,3.699 2.056,-0.411 8.222,-2.466 8.222,-2.466 l -1.645,-1.233 7.4,-0.411 c 0,0 -0.411,-1.233 0,-1.233 0.411,0 4.111,0.41 4.111,0.41 0,0 -2.467,-1.233 -2.056,-1.233 0.411,0 2.056,0 5.344,0.412 3.289,0.41 10.277,1.644 9.866,4.932 -0.411,3.289 -2.877,6.166 -5.755,6.166 -2.878,0 -5.344,-0.822 -5.344,0.412 0,1.233 3.289,2.055 5.344,2.055 2.055,0 4.522,-1.644 4.933,-1.644 0.411,0 1.233,2.466 1.644,2.466 0.411,0 2.878,-0.822 2.878,-0.822 l -1.644,4.522 2.877,0.822 c 0,0 -1.644,1.644 -1.233,1.644 0.411,0 2.877,0 2.877,0.411 0,0.411 -3.288,2.878 -3.288,3.289 0,0.411 2.466,1.644 2.466,1.644 0,0 -1.644,2.467 -2.055,2.056 -0.411,-0.411 -2.056,-2.467 -2.056,-2.467 0,0 -0.411,1.645 -1.233,1.645 -0.822,0 -2.466,-0.411 -2.466,-0.411 0,0 1.233,-2.467 0.822,-2.467 -0.411,0 -2.467,1.644 -2.467,1.233 l -1.232,-1.236 c 0,0 3.288,-1.336 3.288,-3.289 0,-1.952 -1.336,-3.905 -7.296,-4.213 -5.961,-0.309 -6.064,1.438 -10.483,1.233 -4.419,-0.206 -4.419,-1.953 -7.708,-1.953 -3.288,0 -13.463,4.111 -18.19,4.008 -4.727,-0.102 -10.688,-0.411 -10.483,-0.616 0.206,-0.206 3.906,-9.661 4.008,-9.966 z"
       transform="matrix(1.5005,0,0,1.3054,285.91,126.597)"
       id="path88"
       inkscape:connector-curvature="0"
       style="fill:#fdc400;fill-opacity:0.99599998;fill-rule:evenodd;stroke:#000000;stroke-width:0.70099998" />
    <path
       d="m 106.88,102.46 c -0.411,0.206 -4.008,0.72 -4.214,4.522 -0.205,3.803 0.309,3.803 0.72,3.597 0.411,-0.205 1.233,-3.494 1.233,-3.494 0,0 -1.233,4.522 0.103,5.55 a 9.298,9.298 0 0 0 2.775,1.438 l 0.513,-3.597 c 0,0 -1.027,3.495 1.439,4.728 2.467,1.233 3.392,0.308 3.186,-0.617 -0.205,-0.925 -0.925,-3.288 -0.925,-3.288 0,0 1.953,2.158 2.056,2.363 0.102,0.206 1.027,1.85 3.494,1.131 2.466,-0.72 0.719,-2.364 0.719,-2.364 l -2.98,-2.46 c 0,0 3.083,3.185 4.419,2.055 1.336,-1.13 -1.028,-3.597 -0.925,-3.494 0.103,0.103 1.953,3.494 2.672,1.336 0.719,-2.158 -1.13,-2.775 -1.747,-4.83 -0.617,-2.056 -1.131,-2.261 -0.514,-3.495 0.617,-1.233 0.72,-3.596 0.72,-3.596 0,0 2.569,0.616 2.363,-1.542 -0.205,-2.158 -2.775,-2.672 -3.288,-2.775 -0.514,-0.103 -0.412,-2.26 -0.617,-2.158 -0.206,0.103 -1.85,1.336 -1.85,1.336 0,0 -1.439,-3.392 -1.747,-3.186 -0.308,0.206 -1.953,1.953 -3.186,2.055 -1.233,0.103 -1.953,1.85 -1.953,1.85 0,0 -4.316,-2.055 -4.213,1.336 0.103,3.392 2.569,2.57 2.569,2.672 0,0.102 -0.411,4.728 -0.822,4.933 z"
       transform="matrix(1.5005,0,0,1.3054,286.934,126.302)"
       id="path90"
       inkscape:connector-curvature="0"
       style="fill:#fdc400;fill-opacity:0.99599998;fill-rule:evenodd;stroke:#000000;stroke-width:0.70099998" />
    <path
       d="m 450.874,253.257 c 0.742,-0.227 1.833,-1.174 3.098,-1.06 1.265,0.114 3.291,1.085 2.288,1.615 -1.005,0.53 -1.745,0.758 -2.88,0.491 -1.133,-0.267 -2.005,-0.837 -2.506,-1.046 z m 12.578,-0.134 c -0.742,-0.227 -1.833,-1.175 -3.098,-1.06 -1.265,0.115 -3.29,1.085 -2.287,1.615 1.004,0.53 1.745,0.757 2.88,0.49 1.132,-0.266 2.004,-0.836 2.505,-1.045 z"
       id="path92"
       inkscape:connector-curvature="0"
       style="fill-opacity:0.99599998;fill-rule:evenodd" />
    <path
       d="m 110.99,103.17 c 0.103,0.514 0.411,4.831 0.616,4.522 0.206,-0.308 1.748,-4.419 1.645,-4.419 -0.103,0 -2.158,0.103 -2.261,-0.103 z"
       transform="matrix(1.5005,0,0,1.3054,287.143,126.366)"
       id="path94"
       inkscape:connector-curvature="0"
       style="fill:#000039;fill-opacity:0.99599998;fill-rule:evenodd;stroke:#000000;stroke-width:0.421" />
    <path
       d="m 109.96,103.17 c 0.049,-1.215 0.822,-1.13 2.467,-0.925 1.644,0.206 2.466,1.028 2.363,1.234 -0.102,0.205 -1.438,0.719 -2.569,0.616 -1.336,-0.411 -2.298,0.089 -2.261,-0.925 z"
       transform="matrix(1.5005,0,0,1.3054,287.143,126.556)"
       id="path96"
       inkscape:connector-curvature="0"
       style="fill:none;stroke:#000000;stroke-width:0.84200001" />
    <path
       d="m 112.43,100.08 -0.206,1.953 m 7.096,-7.189 c 0,0 1.336,0.617 1.131,1.233 -0.206,0.617 -1.131,0.925 -1.131,0.925 m -11.2,-2.672 c -0.308,0.103 -0.719,0.308 -0.925,1.13 -0.205,0.823 0.925,1.337 0.925,1.337"
       transform="matrix(1.5005,0,0,1.3054,287.143,126.556)"
       id="path98"
       inkscape:connector-curvature="0"
       style="fill:none;stroke:#000000;stroke-width:1.49699998" />
    <path
       d="m 111.19,136.13 c 0,0 -1.454,1.454 1.017,1.454 2.471,0 0.727,-1.308 0.727,-1.308"
       transform="matrix(1.5005,0,0,1.3054,287.361,77.606)"
       id="path100"
       inkscape:connector-curvature="0"
       style="fill:none;stroke:#000000;stroke-width:1.49699998" />
    <path
       d="m 462.348,403.76 6.41,-21.062 -17.8,-13.24 22.293,-0.498 7.271,-20.784 7.37,20.75 22.294,0.4 -17.74,13.32 6.506,21.03 -18.33,-12.516 z"
       id="path102"
       inkscape:connector-curvature="0"
       style="fill:#fdc400;fill-rule:evenodd" />
    <path
       d="m 465.383,398.115 5.34,-16.73 -14.832,-10.518 18.577,-0.396 6.06,-16.51 6.141,16.482 18.578,0.318 -14.783,10.582 5.421,16.705 -15.275,-9.942 z"
       id="path104"
       inkscape:connector-curvature="0"
       style="fill:#003017;fill-opacity:0.99599998;fill-rule:evenodd" />
    <path
       d="m 425.661,361.105 6.34,-19.917 -17.607,-12.52 22.052,-0.472 7.193,-19.655 7.291,19.622 22.053,0.378 -17.548,12.597 6.435,19.887 -18.132,-11.836 z"
       id="path106"
       inkscape:connector-curvature="0"
       style="fill:#fdc400;fill-rule:evenodd" />
    <path
       d="m 428.673,355.764 5.283,-15.822 -14.673,-9.946 18.377,-0.374 5.994,-15.614 6.076,15.588 18.377,0.3 -14.623,10.007 5.363,15.798 -15.11,-9.403 z"
       id="path108"
       inkscape:connector-curvature="0"
       style="fill:#003017;fill-opacity:0.99599998;fill-rule:evenodd" />
    <path
       d="m 499.57,361.105 6.423,-19.917 -17.835,-12.52 22.337,-0.472 7.285,-19.655 7.385,19.622 22.337,0.378 -17.774,12.597 6.518,19.887 -18.366,-11.836 z"
       id="path110"
       inkscape:connector-curvature="0"
       style="fill:#fdc400;fill-rule:evenodd" />
    <path
       d="m 502.618,355.764 5.352,-15.822 -14.862,-9.946 18.614,-0.374 6.07,-15.614 6.154,15.588 18.614,0.3 -14.811,10.007 5.431,15.798 -15.304,-9.403 z"
       id="path112"
       inkscape:connector-curvature="0"
       style="fill:#003017;fill-opacity:0.99599998;fill-rule:evenodd" />
    <path
       d="m 373.272,372.554 c 8.026,34.543 41.902,60.18 87.528,66.243 58.605,7.787 114.514,-21.906 124.795,-66.277"
       id="path114"
       inkscape:connector-curvature="0"
       style="fill:none" />
    <path
       d="m 373.128,377.899 11.006,-6.218 1.036,2.263 -4.317,2.439 1.429,3.12 4.316,-2.438 1.036,2.263 -11.006,6.218 -1.036,-2.263 4.988,-2.818 -1.428,-3.121 -4.988,2.818 -1.036,-2.263 m 4.607,9.63 10.276,-7.607 3.516,5.865 -1.708,1.264 -2.25,-3.752 -2.375,1.759 2.094,3.492 -1.628,1.205 -2.094,-3.492 -2.829,2.094 2.303,3.84 -1.735,1.285 -3.57,-5.954 m 7.16,11.046 9.065,-9.315 1.552,1.863 -3.555,3.654 2.139,2.57 3.555,-3.653 1.552,1.864 -9.065,9.315 -1.551,-1.864 4.108,-4.222 -2.14,-2.57 -4.108,4.222 -1.551,-1.864 m 11.837,5.516 1.47,1.434 2.674,-5.05 -4.144,3.616 m -5.75,1.72 10.232,-8.277 2.321,2.261 -6.031,12.372 -1.863,-1.815 1.588,-3.039 -1.99,-1.938 -2.491,2.157 -1.767,-1.72 m 8.93,8.294 6.097,-9.238 -2.134,-1.739 1.205,-1.825 6.122,4.99 -1.204,1.825 -2.134,-1.74 -6.097,9.24 -1.856,-1.513 m 5.008,4.003 6.432,-11.71 1.95,1.322 -2.522,4.593 2.69,1.824 2.522,-4.593 1.95,1.323 -6.432,11.71 -1.95,-1.322 2.915,-5.308 -2.69,-1.824 -2.915,5.308 -1.95,-1.323 m 12.09,7.652 5.19,-12.448 5.857,3.014 -0.849,2.037 -3.768,-1.94 -1.227,2.943 3.557,1.83 -0.829,1.99 -3.557,-1.832 -2.285,5.48 -2.088,-1.074 m 11.453,-1.89 c -0.721,2.11 -1.065,3.486 -1.033,4.128 0.039,0.64 0.358,1.085 0.958,1.338 0.59,0.249 1.083,0.152 1.48,-0.29 0.403,-0.446 0.97,-1.735 1.698,-3.868 0.728,-2.133 1.075,-3.516 1.041,-4.153 -0.034,-0.637 -0.348,-1.08 -0.943,-1.332 -0.594,-0.25 -1.095,-0.15 -1.5,0.301 -0.406,0.452 -0.973,1.743 -1.701,3.876 m -2.197,-0.927 c 0.465,-1.36 0.893,-2.421 1.285,-3.183 0.394,-0.768 0.783,-1.306 1.169,-1.613 0.533,-0.442 1.076,-0.69 1.626,-0.744 0.55,-0.054 1.204,0.08 1.964,0.4 0.76,0.32 1.33,0.703 1.709,1.149 0.38,0.446 0.64,1.032 0.78,1.758 0.1,0.526 0.067,1.217 -0.1,2.074 -0.162,0.859 -0.474,1.966 -0.937,3.32 -0.46,1.35 -0.888,2.408 -1.282,3.176 -0.392,0.762 -0.78,1.304 -1.164,1.625 -0.539,0.44 -1.083,0.686 -1.633,0.74 -0.55,0.054 -1.205,-0.08 -1.965,-0.4 -0.76,-0.32 -1.329,-0.703 -1.708,-1.149 -0.38,-0.446 -0.637,-1.03 -0.773,-1.755 -0.105,-0.514 -0.076,-1.2 0.086,-2.06 0.164,-0.865 0.478,-1.977 0.943,-3.338 m 10.62,-2.914 2.205,0.73 -2.375,8.862 c -0.271,1.014 -0.345,1.739 -0.223,2.176 0.13,0.433 0.478,0.744 1.047,0.932 0.564,0.186 1.002,0.133 1.315,-0.16 0.317,-0.291 0.614,-0.952 0.89,-1.983 l 2.366,-8.828 2.175,0.72 -2.432,9.076 c -0.237,0.882 -0.456,1.513 -0.658,1.892 a 2.88,2.88 0 0 1 -0.732,0.92 2.867,2.867 0 0 1 -1.539,0.625 c -0.584,0.054 -1.234,-0.037 -1.951,-0.274 -1.353,-0.448 -2.221,-1.088 -2.605,-1.922 -0.378,-0.837 -0.35,-2.067 0.085,-3.69 l 2.432,-9.076 m 5.906,16.178 2.696,-13.388 2.308,0.574 1.252,10.143 1.823,-9.379 2.12,0.528 -2.696,13.387 -2.292,-0.57 -1.272,-10.166 -1.827,9.396 -2.112,-0.525 m 12.07,0.682 1.006,0.175 c 0.512,0.09 0.877,0.11 1.094,0.064 a 0.966,0.966 0 0 0 0.551,-0.337 c 0.26,-0.315 0.48,-0.77 0.655,-1.365 0.177,-0.6 0.36,-1.575 0.55,-2.925 0.185,-1.314 0.267,-2.28 0.246,-2.896 -0.021,-0.617 -0.137,-1.1 -0.347,-1.45 a 1.086,1.086 0 0 0 -0.47,-0.406 c -0.198,-0.1 -0.518,-0.19 -0.961,-0.266 l -0.975,-0.17 -1.35,9.576 m -2.507,1.61 1.91,-13.554 3.652,0.636 c 0.745,0.13 1.326,0.303 1.745,0.52 0.424,0.218 0.756,0.51 0.996,0.877 0.363,0.538 0.58,1.177 0.655,1.917 0.08,0.735 0.015,1.848 -0.195,3.338 -0.27,1.925 -0.523,3.276 -0.757,4.053 -0.233,0.77 -0.535,1.41 -0.904,1.916 -0.358,0.509 -0.804,0.831 -1.337,0.967 -0.527,0.13 -1.405,0.089 -2.636,-0.125 l -3.129,-0.545 m 9.55,1.57 1.188,-13.655 6.312,0.677 -0.197,2.27 -4.038,-0.433 -0.275,3.157 3.76,0.403 -0.189,2.164 -3.759,-0.404 -0.326,3.76 4.133,0.444 -0.2,2.305 -6.408,-0.687 m 10.43,-1.106 1.018,0.04 c 0.518,0.022 0.882,-0.005 1.093,-0.08 a 1,1 0 0 0 0.511,-0.408 c 0.225,-0.347 0.393,-0.828 0.504,-1.441 0.111,-0.62 0.189,-1.612 0.233,-2.978 0.043,-1.329 0.021,-2.299 -0.066,-2.908 -0.087,-0.61 -0.254,-1.074 -0.5,-1.393 a 1.048,1.048 0 0 0 -0.511,-0.341 c -0.206,-0.074 -0.534,-0.12 -0.982,-0.138 l -0.986,-0.04 -0.314,9.687 m -2.317,1.931 0.444,-13.71 3.694,0.148 c 0.753,0.03 1.35,0.125 1.788,0.285 0.444,0.16 0.805,0.407 1.083,0.739 0.418,0.486 0.703,1.092 0.856,1.817 0.159,0.72 0.213,1.833 0.165,3.34 -0.064,1.947 -0.17,3.322 -0.319,4.124 -0.148,0.796 -0.379,1.47 -0.691,2.023 -0.301,0.552 -0.71,0.931 -1.224,1.136 -0.51,0.2 -1.386,0.275 -2.63,0.225 l -3.166,-0.127 m 13.754,0.18 -0.49,-13.71 2.3,-0.1 0.49,13.708 -2.3,0.102 m 6.141,-0.361 -0.844,-11.419 -2.637,0.241 -0.166,-2.255 7.567,-0.69 0.167,2.255 -2.637,0.24 0.844,11.418 -2.294,0.21 m 8.1,-14.71 2.268,-0.438 1.425,9.11 c 0.163,1.042 0.387,1.728 0.672,2.059 0.29,0.324 0.726,0.43 1.31,0.316 0.58,-0.112 0.951,-0.376 1.114,-0.793 0.168,-0.419 0.169,-1.157 0.003,-2.216 l -1.42,-9.076 2.236,-0.431 1.46,9.33 c 0.141,0.906 0.198,1.58 0.169,2.02 -0.025,0.432 -0.12,0.827 -0.287,1.185 a 3.267,3.267 0 0 1 -1.128,1.321 c -0.5,0.338 -1.12,0.578 -1.856,0.72 -1.39,0.269 -2.425,0.125 -3.103,-0.431 -0.674,-0.563 -1.142,-1.679 -1.403,-3.346 l -1.46,-9.33 m 12.285,3.479 0.935,-0.253 c 0.696,-0.189 1.151,-0.47 1.366,-0.847 0.213,-0.381 0.24,-0.939 0.08,-1.672 -0.163,-0.738 -0.405,-1.214 -0.726,-1.426 -0.318,-0.22 -0.838,-0.232 -1.56,-0.037 l -0.965,0.262 0.87,3.973 m -0.514,8.08 -2.922,-13.33 3.88,-1.05 c 1.183,-0.32 2.1,-0.257 2.748,0.191 0.648,0.448 1.119,1.342 1.412,2.68 0.289,1.316 0.226,2.372 -0.188,3.169 -0.41,0.79 -1.184,1.338 -2.321,1.646 l -1.628,0.44 1.239,5.652 -2.22,0.601 m 8.817,-9.659 c 0.614,2.151 1.113,3.468 1.498,3.95 0.387,0.473 0.887,0.602 1.498,0.387 0.601,-0.212 0.934,-0.628 0.998,-1.249 0.067,-0.628 -0.21,-2.029 -0.83,-4.203 -0.62,-2.174 -1.122,-3.499 -1.504,-3.974 -0.383,-0.476 -0.877,-0.607 -1.484,-0.394 -0.606,0.214 -0.942,0.638 -1.008,1.272 -0.066,0.634 0.212,2.037 0.832,4.211 m -2.239,0.79 c -0.396,-1.388 -0.653,-2.515 -0.772,-3.383 -0.12,-0.873 -0.115,-1.563 0.015,-2.07 0.171,-0.715 0.458,-1.283 0.859,-1.705 0.401,-0.422 0.989,-0.77 1.763,-1.042 0.775,-0.273 1.435,-0.366 1.982,-0.278 0.546,0.088 1.078,0.368 1.594,0.84 0.372,0.343 0.733,0.907 1.08,1.694 0.354,0.785 0.727,1.869 1.122,3.25 0.392,1.376 0.649,2.5 0.77,3.374 0.118,0.868 0.117,1.56 -0.005,2.076 -0.177,0.717 -0.466,1.286 -0.867,1.707 -0.4,0.422 -0.989,0.77 -1.763,1.042 -0.775,0.273 -1.435,0.366 -1.982,0.278 -0.546,-0.088 -1.075,-0.369 -1.586,-0.843 -0.37,-0.33 -0.73,-0.889 -1.084,-1.674 -0.354,-0.79 -0.73,-1.88 -1.126,-3.267 m 11.286,3.136 -4.594,-12.735 2.196,-0.977 6.197,7.576 -3.273,-8.88 2.017,-0.897 4.594,12.734 -2.18,0.972 -6.226,-7.584 3.279,8.896 -2.01,0.895 m 14.3,-7.024 -4.816,-10.13 -2.34,1.374 -0.951,-2 6.713,-3.942 0.951,2 -2.339,1.374 4.817,10.13 -2.034,1.194 m 5.435,-3.24 -6.593,-11.6 1.932,-1.356 2.586,4.55 2.664,-1.87 -2.586,-4.55 1.932,-1.355 6.593,11.6 -1.932,1.355 -2.988,-5.257 -2.664,1.87 2.988,5.257 -1.932,1.355 m 8.236,-5.932 -7.441,-10.947 5.06,-4.247 1.238,1.82 -3.238,2.716 1.72,2.531 3.014,-2.529 1.18,1.735 -3.014,2.529 2.048,3.014 3.315,-2.781 1.256,1.848 -5.138,4.311 m 6.352,-11.772 1.641,-1.792 0.557,0.63 c 0.532,0.6 0.962,0.939 1.29,1.014 0.328,0.066 0.658,-0.082 0.99,-0.444 0.347,-0.38 0.524,-0.764 0.53,-1.154 0.011,-0.395 -0.152,-0.783 -0.49,-1.164 -0.258,-0.293 -0.542,-0.474 -0.851,-0.544 -0.313,-0.074 -0.825,-0.048 -1.537,0.08 l -1.425,0.257 c -1.22,0.231 -2.089,0.273 -2.61,0.125 -0.516,-0.152 -1.018,-0.503 -1.505,-1.054 -0.726,-0.822 -1.077,-1.705 -1.05,-2.65 0.026,-0.944 0.424,-1.837 1.194,-2.678 0.816,-0.89 1.66,-1.325 2.534,-1.304 0.874,0.021 1.72,0.495 2.54,1.423 0.082,0.093 0.144,0.167 0.185,0.222 0.045,0.051 0.082,0.098 0.112,0.14 l -1.555,1.698 -0.23,-0.26 c -0.469,-0.53 -0.882,-0.823 -1.24,-0.882 -0.36,-0.058 -0.718,0.109 -1.076,0.5 -0.263,0.287 -0.394,0.601 -0.393,0.941 0,0.332 0.136,0.65 0.406,0.956 0.363,0.41 1.103,0.497 2.22,0.26 a 0.103,0.103 0 0 1 0.029,-0.005 l 1.505,-0.307 c 1.063,-0.229 1.897,-0.257 2.5,-0.083 0.6,0.17 1.188,0.58 1.765,1.233 0.787,0.89 1.165,1.826 1.135,2.808 -0.03,0.983 -0.471,1.938 -1.321,2.866 -0.885,0.966 -1.769,1.432 -2.653,1.398 -0.88,-0.038 -1.782,-0.578 -2.703,-1.62 -0.098,-0.11 -0.251,-0.3 -0.46,-0.571 l -0.034,-0.038 m 9.554,-3.854 -9.463,-8.811 4.073,-5.401 1.573,1.465 -2.606,3.455 2.188,2.037 2.426,-3.217 1.5,1.397 -2.426,3.216 2.605,2.426 2.668,-3.537 1.598,1.487 -4.136,5.483 m 2.404,-12.282 1.093,-1.803 -4.847,-2.307 3.754,4.11 m 2.264,6.12 -8.687,-10.229 1.725,-2.844 11.809,5.078 -1.384,2.284 -2.914,-1.365 -1.479,2.438 2.242,2.473 -1.312,2.165 m 1.465,-11.156 1.051,-2.275 0.707,0.403 c 0.675,0.385 1.179,0.556 1.511,0.512 0.33,-0.052 0.602,-0.307 0.815,-0.767 0.222,-0.48 0.28,-0.908 0.177,-1.28 -0.102,-0.38 -0.366,-0.69 -0.794,-0.935 -0.328,-0.187 -0.65,-0.26 -0.963,-0.218 -0.318,0.039 -0.797,0.243 -1.436,0.612 l -1.28,0.742 c -1.092,0.646 -1.906,0.99 -2.442,1.03 -0.533,0.037 -1.109,-0.121 -1.727,-0.474 -0.922,-0.526 -1.505,-1.242 -1.747,-2.148 -0.242,-0.906 -0.117,-1.893 0.376,-2.96 0.523,-1.13 1.201,-1.839 2.036,-2.124 0.835,-0.284 1.773,-0.13 2.814,0.464 0.105,0.06 0.184,0.109 0.239,0.147 0.057,0.032 0.105,0.063 0.146,0.093 l -0.996,2.155 -0.293,-0.166 c -0.594,-0.34 -1.07,-0.474 -1.427,-0.404 -0.356,0.07 -0.65,0.354 -0.88,0.85 -0.168,0.365 -0.203,0.708 -0.106,1.031 0.095,0.315 0.314,0.57 0.656,0.765 0.461,0.263 1.189,0.087 2.182,-0.528 a 0.079,0.079 0 0 1 0.025,-0.016 l 1.342,-0.816 c 0.945,-0.59 1.729,-0.907 2.35,-0.953 0.618,-0.048 1.293,0.137 2.025,0.554 0.999,0.57 1.622,1.327 1.871,2.27 0.25,0.943 0.102,2.004 -0.443,3.182 -0.566,1.226 -1.274,1.977 -2.123,2.254 -0.846,0.271 -1.854,0.073 -3.024,-0.594 a 11.54,11.54 0 0 1 -0.599,-0.382 l -0.042,-0.024"
       id="path116"
       inkscape:connector-curvature="0" />
  </g>
</svg>
