<?xml version="1.0" encoding="UTF-8" standalone="no"?>
<svg
   xmlns:dc="http://purl.org/dc/elements/1.1/"
   xmlns:cc="http://creativecommons.org/ns#"
   xmlns:rdf="http://www.w3.org/1999/02/22-rdf-syntax-ns#"
   xmlns:svg="http://www.w3.org/2000/svg"
   xmlns="http://www.w3.org/2000/svg"
   xmlns:sodipodi="http://sodipodi.sourceforge.net/DTD/sodipodi-0.dtd"
   xmlns:inkscape="http://www.inkscape.org/namespaces/inkscape"
   height="15.999998"
   width="21.333332"
   viewBox="0 0 21.333332 15.999998"
   version="1.1"
   id="svg36"
   sodipodi:docname="kz.svg"
   inkscape:version="0.92.1 r">
  <metadata
     id="metadata42">
    <rdf:RDF>
      <cc:Work
         rdf:about="">
        <dc:format>image/svg+xml</dc:format>
        <dc:type
           rdf:resource="http://purl.org/dc/dcmitype/StillImage" />
        <dc:title></dc:title>
      </cc:Work>
    </rdf:RDF>
  </metadata>
  <defs
     id="defs40" />
  <sodipodi:namedview
     pagecolor="#ffffff"
     bordercolor="#666666"
     borderopacity="1"
     objecttolerance="10"
     gridtolerance="10"
     guidetolerance="10"
     inkscape:pageopacity="0"
     inkscape:pageshadow="2"
     inkscape:window-width="1920"
     inkscape:window-height="1024"
     id="namedview38"
     showgrid="false"
     fit-margin-top="0"
     fit-margin-left="0"
     fit-margin-right="0"
     fit-margin-bottom="0"
     inkscape:zoom="0.49166667"
     inkscape:cx="320"
     inkscape:cy="240"
     inkscape:window-x="0"
     inkscape:window-y="0"
     inkscape:window-maximized="1"
     inkscape:current-layer="svg36" />
  <g
     id="g34"
     transform="scale(0.03333333)"
     style="fill-rule:evenodd">
    <path
       d="M 0,0 H 640 V 480 H 0 Z"
       id="path2"
       inkscape:connector-curvature="0"
       style="fill:#6fdcff" />
    <g
       id="g16"
       style="fill:#ffe400">
      <path
         d="m 60.235,466.995 c 3.252,3.184 2.182,8.539 11.225,7.85 13.806,0 14.204,-8.445 14.204,-14.343 0,-5.888 -20.571,-14.124 -21.518,-22.789 -0.96,-8.674 4.748,-11.096 9.524,-11.096 4.748,0 8.082,2.777 8.082,5.198 0,2.421 -2.374,3.122 -5.708,3.122 -3.334,0 1.427,-1.733 -1.427,-3.122 -2.854,-1.389 -4.762,2.078 -4.762,4.166 0,2.077 7.136,2.766 11.897,1.21 0.961,4.677 1.428,5.032 -5.242,12.997 4.776,-3.121 5.229,-3.81 10.485,-2.077 -5.243,-4.51 -1.318,-13.696 -1.14,-16.035 0.178,-2.339 -1.001,-5.115 -3.142,-6.503 -3.815,-3.466 -12.145,-3.622 -17.14,-1.388 -7.273,3.246 -7.63,12.819 -5.722,15.95 l 20.159,20.67 c 1.427,2.432 1.92,9.186 -6.642,9.53 -9.044,0.69 -12.145,-11.64 -13.75,-15.742 -2.155,4.479 -4.557,16.838 -13.6,16.15 -8.577,-0.345 -10.224,-7.1 -8.797,-9.531 l 20.708,-21.077 c 1.894,-3.131 1.537,-12.704 -5.736,-15.95 -4.995,-2.234 -13.311,-2.078 -17.126,1.388 -2.141,1.388 -3.335,4.165 -3.156,6.503 0.179,2.338 4.103,11.525 -1.14,16.035 5.256,-1.733 5.723,-1.044 10.485,2.077 -6.67,-7.965 -6.19,-8.32 -5.242,-12.997 4.762,1.556 11.911,0.867 11.911,-1.21 0,-2.088 -1.921,-5.554 -4.775,-4.166 -2.841,1.389 1.907,3.122 -1.414,3.122 -3.348,0 -5.722,-0.7 -5.722,-3.122 0,-2.422 3.334,-5.198 8.096,-5.198 4.762,0 10.47,2.422 9.51,11.096 -0.947,8.665 -22.053,18.123 -22.053,24.01 0,5.898 1.469,13.122 15.274,13.122 9.044,0.689 10.114,-4.666 13.394,-7.85 z"
         id="path4"
         inkscape:connector-curvature="0" />
      <path
         d="m 59.137,343.293 c 3.252,-3.184 5.928,-12.621 14.972,-11.932 13.805,0 19.034,7.63 19.034,13.529 0,5.887 -28.078,54.084 -29.024,62.749 -0.961,8.674 4.748,11.096 9.523,11.096 4.748,0 8.083,-2.776 8.083,-5.198 0,-2.422 -2.374,-3.122 -5.709,-3.122 -3.335,0 1.428,1.733 -1.427,3.122 -2.855,1.389 -4.762,-2.078 -4.762,-4.165 0,-2.078 7.136,-2.767 11.898,-1.211 0.96,-4.677 1.427,-5.032 -5.242,-12.997 4.776,3.121 5.228,3.81 10.484,2.077 -5.242,4.51 -1.317,13.696 -1.139,16.035 0.178,2.339 -1.001,5.115 -3.142,6.503 -3.815,3.466 -12.145,3.623 -17.14,1.389 -7.273,-3.247 -7.63,-12.82 -5.723,-15.951 l 27.13,-58.594 c 1.428,-2.433 -2.373,-10.408 -10.937,-10.752 -9.043,-0.69 -12.144,8.79 -13.75,12.892 l 12.323,-0.898 c 0,0 0.48,1.9 0,3.132 -6.367,0.417 -12.323,1.576 -12.323,1.576 l -0.467,6.242 h 6.08 l -0.48,2.767 c 0,0 -5.133,-0.345 -5.6,0 -0.48,0.344 -0.96,6.253 -0.96,6.253 0,0 -0.947,0.344 -1.976,0.344 -1.043,0 -1.99,-0.344 -1.99,-0.344 0,0 -0.48,-5.909 -0.947,-6.253 -0.48,-0.345 -5.613,0 -5.613,0 l -0.466,-2.767 h 6.079 l -0.48,-6.242 c 0,0 -5.956,-1.159 -12.324,-1.576 -0.466,-1.232 0,-3.132 0,-3.132 l 12.324,0.898 c -1.606,-4.103 -4.707,-13.581 -13.737,-12.892 -8.577,0.344 -12.378,8.32 -10.951,10.752 l 27.144,58.594 c 1.894,3.132 1.537,12.704 -5.736,15.95 -4.995,2.235 -13.312,2.078 -17.126,-1.388 -2.141,-1.388 -3.335,-4.165 -3.157,-6.503 0.178,-2.338 4.103,-11.525 -1.139,-16.035 5.256,1.733 5.723,1.044 10.485,-2.077 -6.67,7.965 -6.19,8.32 -5.243,12.997 4.762,-1.556 11.912,-0.867 11.912,1.21 0,2.088 -1.921,5.554 -4.776,4.166 -2.84,-1.389 1.908,-3.122 -1.413,-3.122 -3.349,0 -5.723,0.7 -5.723,3.122 0,2.422 3.335,5.198 8.097,5.198 4.762,0 10.47,-2.422 9.51,-11.096 -0.947,-8.665 -29.024,-56.862 -29.024,-62.75 0,-5.897 5.228,-13.528 19.034,-13.528 9.043,-0.69 12.254,8.748 15.534,11.932 z"
         id="path6"
         inkscape:connector-curvature="0" />
      <path
         d="m 59.137,319.408 c 3.252,3.184 5.928,12.621 14.972,11.932 13.805,0 19.034,-7.63 19.034,-13.529 0,-5.888 -28.078,-54.084 -29.025,-62.749 -0.96,-8.675 4.749,-11.096 9.524,-11.096 4.748,0 8.083,2.776 8.083,5.198 0,2.422 -2.374,3.121 -5.709,3.121 -3.335,0 1.427,-1.732 -1.427,-3.12 -2.854,-1.388 -4.762,2.077 -4.762,4.164 0,2.078 7.136,2.767 11.898,1.211 0.96,4.677 1.427,5.032 -5.242,12.997 4.775,-3.121 5.228,-3.81 10.484,-2.077 -5.242,-4.51 -1.317,-13.696 -1.139,-16.035 0.178,-2.339 -1.002,-5.115 -3.142,-6.503 -3.815,-3.466 -12.145,-3.623 -17.14,-1.389 -7.274,3.247 -7.63,12.82 -5.723,15.951 l 27.13,58.594 c 1.428,2.433 -2.374,10.408 -10.937,10.752 -9.043,0.69 -12.145,-8.79 -13.75,-12.892 l 12.323,0.898 c 0,0 0.48,-1.9 0,-3.132 -6.367,-0.417 -12.323,-1.576 -12.323,-1.576 l -0.467,-6.243 h 6.08 l -0.48,-2.766 c 0,0 -5.133,0.345 -5.6,0 -0.48,-0.344 -0.96,-6.253 -0.96,-6.253 0,0 -0.947,-0.344 -1.977,-0.344 -1.042,0 -1.99,0.344 -1.99,0.344 0,0 -0.48,5.909 -0.946,6.253 -0.48,0.345 -5.613,0 -5.613,0 l -0.467,2.766 h 6.08 l -0.48,6.243 c 0,0 -5.956,1.159 -12.324,1.576 -0.466,1.232 0,3.132 0,3.132 l 12.323,-0.898 c -1.605,4.103 -4.707,13.581 -13.736,12.892 -8.577,-0.344 -12.378,-8.32 -10.951,-10.752 l 27.144,-58.594 c 1.894,-3.132 1.537,-12.704 -5.736,-15.95 -4.995,-2.235 -13.312,-2.078 -17.127,1.388 -2.14,1.388 -3.334,4.165 -3.156,6.503 0.178,2.338 4.103,11.525 -1.139,16.035 5.256,-1.733 5.723,-1.044 10.484,2.077 -6.669,-7.965 -6.189,-8.32 -5.242,-12.997 4.762,1.556 11.912,0.867 11.912,-1.21 0,-2.088 -1.921,-5.554 -4.776,-4.166 -2.84,1.389 1.908,3.121 -1.413,3.121 -3.349,0 -5.723,-0.699 -5.723,-3.12 0,-2.421 3.335,-5.2 8.097,-5.2 4.762,0 10.47,2.422 9.51,11.097 -0.947,8.665 -29.024,56.861 -29.024,62.75 0,5.897 5.228,13.528 19.034,13.528 9.043,0.689 12.254,-8.748 15.534,-11.932 z"
         id="path8"
         inkscape:connector-curvature="0" />
      <path
         d="m 59.137,160.61 c 3.252,-3.184 5.928,-12.62 14.972,-11.932 13.805,0 19.034,7.631 19.034,13.53 0,5.887 -28.078,54.084 -29.024,62.748 -0.961,8.675 4.748,11.097 9.523,11.097 4.748,0 8.083,-2.777 8.083,-5.199 0,-2.422 -2.374,-3.121 -5.709,-3.121 -3.335,0 1.428,1.733 -1.427,3.121 -2.855,1.388 -4.762,-2.077 -4.762,-4.165 0,-2.077 7.136,-2.766 11.898,-1.21 0.96,-4.678 1.427,-5.032 -5.242,-12.997 4.776,3.12 5.228,3.81 10.484,2.077 -5.242,4.51 -1.317,13.696 -1.139,16.034 0.178,2.338 -1.001,5.115 -3.142,6.504 -3.815,3.465 -12.145,3.622 -17.14,1.388 -7.273,-3.246 -7.63,-12.819 -5.723,-15.95 l 27.13,-58.595 c 1.428,-2.432 -2.373,-10.407 -10.937,-10.752 -9.043,-0.689 -12.144,8.79 -13.75,12.892 l 12.323,-0.898 c 0,0 0.48,1.9 0,3.132 -6.367,0.418 -12.323,1.576 -12.323,1.576 l -0.467,6.243 h 6.08 l -0.48,2.766 c 0,0 -5.133,-0.344 -5.6,0 -0.48,0.345 -0.96,6.253 -0.96,6.253 0,0 -0.947,0.345 -1.976,0.345 -1.043,0 -1.99,-0.345 -1.99,-0.345 0,0 -0.48,-5.908 -0.947,-6.253 -0.48,-0.344 -5.613,0 -5.613,0 l -0.466,-2.766 h 6.079 l -0.48,-6.243 c 0,0 -5.956,-1.158 -12.324,-1.576 -0.466,-1.232 0,-3.132 0,-3.132 l 12.324,0.898 c -1.606,-4.102 -4.707,-13.58 -13.737,-12.892 -8.577,0.345 -12.378,8.32 -10.951,10.752 l 27.144,58.594 c 1.894,3.132 1.537,12.705 -5.736,15.951 -4.995,2.234 -13.312,2.077 -17.126,-1.388 -2.141,-1.389 -3.335,-4.165 -3.157,-6.504 0.178,-2.339 4.103,-11.524 -1.139,-16.034 5.256,1.733 5.723,1.044 10.485,-2.077 -6.67,7.965 -6.19,8.32 -5.243,12.996 4.762,-1.555 11.912,-0.866 11.912,1.211 0,2.088 -1.921,5.554 -4.776,4.165 -2.84,-1.388 1.908,-3.121 -1.413,-3.121 -3.349,0 -5.723,0.7 -5.723,3.121 0,2.421 3.335,5.199 8.097,5.199 4.762,0 10.47,-2.422 9.51,-11.097 -0.947,-8.664 -29.024,-56.861 -29.024,-62.749 0,-5.898 5.228,-13.529 19.034,-13.529 9.043,-0.689 12.254,8.748 15.534,11.932 z"
         id="path10"
         inkscape:connector-curvature="0" />
      <path
         d="m 59.137,136.726 c 3.252,3.184 5.928,12.62 14.972,11.932 13.805,0 19.034,-7.631 19.034,-13.53 0,-5.887 -28.078,-54.084 -29.025,-62.748 -0.96,-8.675 4.749,-11.097 9.524,-11.097 4.748,0 8.083,2.777 8.083,5.199 0,2.422 -2.374,3.121 -5.709,3.121 -3.335,0 1.427,-1.733 -1.427,-3.121 -2.854,-1.388 -4.762,2.077 -4.762,4.165 0,2.077 7.136,2.766 11.898,1.21 0.96,4.677 1.427,5.032 -5.242,12.997 4.775,-3.12 5.228,-3.81 10.484,-2.077 -5.242,-4.51 -1.317,-13.696 -1.139,-16.034 0.178,-2.338 -1.002,-5.115 -3.142,-6.504 -3.815,-3.466 -12.145,-3.622 -17.14,-1.388 -7.274,3.246 -7.63,12.819 -5.723,15.95 l 27.13,58.595 c 1.428,2.432 -2.374,10.407 -10.937,10.752 -9.043,0.689 -12.145,-8.79 -13.75,-12.892 l 12.323,0.897 c 0,0 0.48,-1.9 0,-3.131 -6.367,-0.418 -12.323,-1.577 -12.323,-1.577 l -0.467,-6.242 h 6.08 l -0.48,-2.766 c 0,0 -5.133,0.344 -5.6,0 -0.48,-0.345 -0.96,-6.253 -0.96,-6.253 0,0 -0.947,-0.345 -1.977,-0.345 -1.042,0 -1.99,0.345 -1.99,0.345 0,0 -0.48,5.908 -0.946,6.253 -0.48,0.344 -5.613,0 -5.613,0 l -0.467,2.766 h 6.08 l -0.48,6.242 c 0,0 -5.956,1.16 -12.324,1.577 -0.466,1.232 0,3.131 0,3.131 l 12.323,-0.897 c -1.605,4.102 -4.707,13.58 -13.736,12.892 -8.577,-0.345 -12.378,-8.32 -10.951,-10.752 L 57.902,74.802 c 1.894,-3.132 1.537,-12.705 -5.736,-15.951 -4.995,-2.234 -13.312,-2.078 -17.127,1.388 -2.14,1.389 -3.334,4.165 -3.156,6.504 0.178,2.339 4.103,11.524 -1.139,16.034 5.256,-1.733 5.723,-1.044 10.484,2.077 -6.669,-7.965 -6.189,-8.32 -5.242,-12.996 4.762,1.555 11.912,0.866 11.912,-1.211 0,-2.088 -1.921,-5.554 -4.776,-4.165 -2.84,1.388 1.908,3.121 -1.413,3.121 -3.349,0 -5.723,-0.7 -5.723,-3.121 0,-2.421 3.335,-5.199 8.097,-5.199 4.762,0 10.47,2.422 9.51,11.097 -0.947,8.664 -29.024,56.861 -29.024,62.749 0,5.898 5.228,13.529 19.034,13.529 9.043,0.689 12.254,-8.748 15.534,-11.932 z"
         id="path12"
         inkscape:connector-curvature="0" />
      <path
         d="m 60.234,13.003 c 3.253,-3.184 2.182,-8.54 11.226,-7.85 13.805,0 14.203,8.445 14.203,14.343 0,5.887 -20.57,14.124 -21.518,22.788 -0.96,8.675 4.749,11.097 9.524,11.097 4.748,0 8.083,-2.777 8.083,-5.199 0,-2.422 -2.374,-3.121 -5.709,-3.121 -3.335,0 1.427,1.733 -1.427,3.121 -2.854,1.388 -4.762,-2.077 -4.762,-4.165 0,-2.077 7.136,-2.766 11.898,-1.21 0.96,-4.678 1.427,-5.033 -5.242,-12.997 4.775,3.12 5.228,3.81 10.484,2.077 -5.242,4.51 -1.317,13.696 -1.139,16.034 0.178,2.338 -1.002,5.115 -3.142,6.504 -3.815,3.465 -12.145,3.622 -17.14,1.388 -7.274,-3.246 -7.63,-12.819 -5.723,-15.95 L 80.01,19.193 C 81.436,16.761 81.93,10.007 73.367,9.663 64.324,8.973 61.222,21.302 59.617,25.404 57.462,20.926 55.061,8.566 46.017,9.255 37.441,9.6 35.794,16.354 37.221,18.785 l 20.708,21.077 c 1.894,3.132 1.537,12.705 -5.736,15.951 -4.995,2.234 -13.312,2.077 -17.127,-1.388 -2.14,-1.389 -3.334,-4.165 -3.156,-6.504 0.178,-2.339 4.103,-11.524 -1.139,-16.034 5.256,1.733 5.723,1.044 10.484,-2.077 -6.669,7.964 -6.189,8.32 -5.242,12.996 4.762,-1.555 11.912,-0.866 11.912,1.211 0,2.088 -1.921,5.554 -4.776,4.165 -2.84,-1.388 1.908,-3.121 -1.413,-3.121 -3.349,0 -5.723,0.7 -5.723,3.121 0,2.421 3.335,5.199 8.097,5.199 4.762,0 10.47,-2.422 9.51,-11.097 -0.947,-8.664 -22.053,-18.122 -22.053,-24.01 0,-5.898 1.468,-13.121 15.274,-13.121 9.043,-0.69 10.114,4.666 13.393,7.85 z"
         id="path14"
         inkscape:connector-curvature="0" />
    </g>
    <g
       transform="matrix(1.0673,0,0,1.0673,-194.73,8.285)"
       id="g32"
       style="fill:#ffe400">
      <rect
         rx="85.120003"
         ry="80.648003"
         height="161.3"
         width="170.24001"
         y="104.45"
         x="425.89999"
         id="rect18" />
      <path
         d="m 506.94,56.355 c -0.708,-0.007 -4.534,26.842 -6.013,32.876 -1.325,13.43 18.07,12.94 14.897,-0.532 l -8.88,-32.344 z m 6.83,259.855 c 0.706,0.053 6.49,-26.479 8.408,-32.401 2.306,-13.31 -17.078,-14.098 -14.9,-0.45 l 6.492,32.85 z m -135.6,-131.6 c -0.06,0.669 27.915,6.277 34.156,8.123 14.037,2.249 14.962,-16.113 0.547,-14.115 z m 271.72,3.19 c 0.03,-0.67 -28.166,-5.274 -34.483,-6.896 -14.123,-1.745 -14.234,16.638 0.079,14.125 l 34.404,-7.23 z M 406.79,99.641 c -0.482,0.492 17.893,21.249 21.605,26.348 9.588,9.97 22.265,-3.945 9.616,-10.793 L 406.791,99.637 Z M 617.95,270.64 c 0.435,-0.53 -19.772,-19.698 -23.937,-24.472 -10.465,-9.145 -21.819,5.761 -8.59,11.543 l 32.528,12.929 z M 448.97,70.619 c -0.644,0.28 7.966,26.114 9.34,32.171 4.84,12.685 22.167,4.414 13.24,-6.493 z M 571.98,302.96 c 0.663,-0.237 -6.032,-26.575 -6.96,-32.708 -3.897,-12.973 -21.79,-5.862 -13.682,5.606 l 20.642,27.101 z M 602.16,88.602 c -0.511,-0.465 -22.711,16.61 -28.152,20.045 -10.676,8.923 3.807,21.156 11.236,9.282 z M 419.24,282.33 c 0.476,0.497 23.874,-15.076 29.553,-18.145 11.304,-8.199 -2.247,-21.355 -10.528,-9.999 z M 384.15,138.16 c -0.29,0.612 24.124,14.715 29.362,18.422 12.449,6.543 19.765,-10.482 5.47,-13.139 z m 253.92,98.44 c 0.335,-0.591 -22.987,-16.266 -27.941,-20.309 -11.939,-7.347 -20.486,9.156 -6.419,12.748 z M 557.37,63.719 c -0.657,-0.251 -14.571,23.416 -18.275,28.521 -6.412,12.042 11.831,18.301 14.072,4.662 l 4.204,-33.183 z M 463.52,307.97 c 0.637,0.294 16.252,-22.401 20.322,-27.25 7.28,-11.591 -10.461,-19.035 -13.696,-5.577 l -6.626,32.826 z m -77.48,-69.29 c 0.257,0.625 27.986,-5.986 34.449,-6.926 13.652,-3.825 5.965,-20.703 -6.056,-12.906 z M 638.13,136.11 c -0.21,-0.64 -28.357,4.13 -34.873,4.643 -13.899,2.917 -7.468,20.261 5.096,13.273 z"
         id="path20"
         inkscape:connector-curvature="0" />
      <path
         d="m 534.62,58.119 c -0.692,-0.141 -10.14,25.429 -12.87,31.058 -4.149,12.903 14.954,16.119 14.705,2.318 L 534.62,58.12 Z M 486.15,313.97 c 0.68,0.187 11.979,-24.7 15.115,-30.136 5.085,-12.599 -13.736,-17.064 -14.5,-3.28 z M 476.38,60.639 c -0.692,0.144 1.918,27.122 1.9,33.317 1.88,13.37 20.668,8.783 14.395,-3.675 l -16.29,-29.642 z m 68.01,251.821 c 0.7,-0.098 0.075,-27.183 0.546,-33.362 -0.895,-13.462 -19.974,-10.121 -14.628,2.72 l 14.082,30.641 z M 428.16,83.092 c -0.58,0.384 12.765,24.345 15.26,30.07 7.154,11.661 22.642,0.589 11.8,-8.63 z M 593.02,290.86 c 0.607,-0.345 -10.95,-25.126 -13.019,-31.002 -6.283,-12.104 -22.545,-2.077 -12.404,7.834 z M 393,116.64 c -0.397,0.556 21.128,18.39 25.624,22.888 11.091,8.456 21.36,-7.142 7.75,-12.065 z m 234.19,139.62 c 0.436,-0.529 -19.729,-19.736 -23.885,-24.519 -10.445,-9.165 -21.832,5.72 -8.615,11.526 l 32.5,12.992 z M 377.57,158.53 c -0.181,0.649 26.336,10.784 32.143,13.63 13.409,4.53 17.693,-13.4 3.13,-13.809 z m 267.47,57.82 c 0.229,-0.635 -25.482,-12.49 -31.067,-15.712 -13.045,-5.4 -18.632,12.204 -4.135,13.57 l 35.202,2.143 z M 376.7,209.96 c 0.098,0.665 28.689,0.262 35.207,0.752 14.214,-0.753 10.823,-18.853 -2.767,-13.879 z m 270.21,-44.99 c -0.05,-0.67 -28.601,-2.149 -35.067,-3.067 -14.235,-0.184 -12.178,18.095 1.743,14.027 z m -245.73,98.46 c 0.395,0.557 25.926,-11.641 32.015,-13.899 12.438,-6.562 1.04,-21.438 -8.89,-11.338 z M 623.48,111.1 c -0.353,-0.582 -26.717,9.907 -32.956,11.759 -12.889,5.727 -2.61,21.318 8.037,11.896 l 24.92,-23.654 z M 442.83,298.77 c 0.597,0.362 18.872,-20.474 23.505,-24.846 8.643,-10.718 -8.072,-20.052 -12.925,-7.037 z M 582.54,75.063 c -0.569,-0.4 -20.327,19.183 -25.269,23.239 -9.407,10.124 6.583,20.535 12.378,7.87 l 12.891,-31.11 z"
         id="path22"
         inkscape:connector-curvature="0" />
      <g
         transform="matrix(2.1824,0,0,2.0629,-405.01,-272.56)"
         id="g30">
        <path
           d="m 360.137,247.889 c 0.625,2.5 0.781,16.562 14.844,30 14.062,13.437 37.969,16.406 37.969,16.406 0,0 0.156,1.875 -1.563,2.031 -1.719,0.157 -9.844,-1.562 -13.906,-2.812 -4.063,-1.25 -7.656,-3.438 -8.125,-3.281 -0.469,0.156 -1.25,1.562 -2.5,1.406 -1.25,-0.156 -7.031,-6.25 -9.531,-7.813 -2.5,-1.562 -10.938,-10.781 -13.75,-15.312 -2.813,-4.531 -3.438,-7.5 -4.375,-7.5 -0.938,0 -4.219,2.187 -4.219,2.187 0,0 -2.969,-4.531 -5.625,-11.719 -2.656,-7.187 -2.344,-11.406 -1.719,-11.718 0.625,-0.313 0.625,5.312 2.656,10.468 2.032,5.157 4.844,6.719 4.844,6.719 0,0 -1.875,-2.656 -3.281,-9.375 -1.406,-6.719 -1.875,-13.125 -0.938,-15.156 0.938,-2.031 1.875,-2.656 2.032,-2.5 0.156,0.156 -1.719,3.125 -0.469,10.781 1.25,7.656 4.844,14.219 5.625,13.906 0.781,-0.312 -0.469,-1.875 -1.094,-6.406 -0.625,-4.531 0.625,-7.344 1.719,-7.656 0.469,-0.469 1.25,5 1.406,7.344 z m -9.845,12.81 c -2.656,-2.5 -6.875,-11.25 -7.812,-10.781 -0.938,0.469 6.875,12.969 7.031,14.063 0.156,1.093 1.875,4.531 0.625,4.062 -1.25,-0.469 -10.625,-10.312 -9.531,-8.437 1.094,1.875 8.125,10.468 7.656,10.937 -0.469,0.469 -5.781,-4.688 -5.937,-4.062 -0.157,0.625 5.312,5.781 5.156,6.406 -0.156,0.625 -3.438,-3.281 -3.438,-2.5 0,0.781 3.438,4.687 3.438,5.312 0,0.625 -2.969,-2.812 -2.031,-0.937 0.937,1.875 3.593,3.594 3.437,4.219 -0.156,0.625 -2.187,-0.782 -2.187,-0.469 0,0.312 3.906,1.719 4.843,2.812 0.938,1.094 7.344,8.438 12.188,12.188 4.844,3.75 18.594,10.156 19.531,10.156 0.938,0 2.344,-2.031 2.031,-2.812 -0.312,-0.782 -13.75,-5.313 -17.5,-8.75 -3.75,-3.438 -12.968,-11.563 -13.75,-12.032 -0.781,-0.468 -2.812,-0.312 -2.812,-0.781 0,-0.469 2.656,0.313 2.5,0 -0.156,-0.312 -3.75,-1.875 -3.594,-2.187 0.156,-0.313 2.5,0.625 2.5,0.312 0,-0.312 -4.219,-2.656 -4.062,-3.125 0.156,-0.469 3.125,1.406 3.125,1.094 0,-0.313 -4.063,-3.125 -3.907,-3.594 0.157,-0.469 3.125,2.188 2.969,1.563 -0.156,-0.625 -2.344,-3.907 -2.344,-4.375 0,-0.469 3.594,3.437 3.907,2.656 0.312,-0.781 -1.25,-7.188 -1.094,-7.344 0.156,-0.156 2.645,1.422 3.114,0.484 0.468,-0.937 -1.837,-2.241 -4.052,-4.078 z M 396.4,309.9 c -1.893,0.249 -2.747,-0.393 -1.672,-1.934 1.488,-0.11 5.449,-1.379 6.849,-1.96 1.4,-0.581 2.894,-1.416 4.137,-2.534 1.24,-1.22 1.903,0.782 1.282,1.819 -0.515,0.73 -2.838,2.044 -4.545,2.739 -2.479,0.825 -4.61,1.967 -6.051,1.87 z m 12.487,-5.131 c -1.25,-1.407 -0.156,-2.344 1.719,-3.438 2.812,-1.562 2.032,-3.593 5.625,-5.312 1.563,-0.938 23.906,-10 31.25,-14.844 7.344,-4.844 27.813,-20.313 33.281,-30.938 5.469,-10.625 2.813,-11.406 3.594,-11.875 0.781,-0.468 1.563,1.563 1.406,3.907 -0.156,2.343 -1.875,9.375 -1.406,10 0.469,0.625 8.281,-5.469 11.406,-12.969 3.125,-7.5 5.625,-15.313 7.188,-15.313 1.562,0 -2.656,12.813 -5.313,17.813 -2.656,5 -5.781,7.5 -5,8.594 0.782,1.093 8.594,-5.469 11.25,-10.313 2.657,-4.844 5.157,-9.219 5.625,-8.281 0.469,0.937 -2.5,11.25 -6.718,16.094 -4.219,4.843 -9.219,8.281 -8.438,9.062 0.781,0.782 6.406,1.563 12.344,-2.5 5.937,-4.062 6.562,-10 7.344,-9.687 0.781,0.312 -0.782,8.437 -6.407,13.437 -5.625,5 -13.281,5.469 -12.968,6.563 0.312,1.094 16.25,-4.531 15.937,-3.281 -0.312,1.25 -20.625,9.218 -20.782,10 10e-4,0.625 3.439,0.781 8.907,-0.469 5.469,-1.25 10.626,-5.468 11.407,-4.531 0.155,1.406 -3.907,4.844 -10.157,6.406 -6.25,1.563 -9.375,3.75 -9.531,4.219 -0.156,0.468 11.094,-1.407 11.094,-0.782 0,0.625 -14.688,3.438 -14.844,4.22 -0.156,0.781 14.062,-2.813 13.75,-2.032 -0.313,0.781 -19.219,6.406 -19.063,6.719 0.157,0.312 15.782,-3.438 15.469,-2.813 -0.312,0.625 -26.406,7.969 -26.562,8.438 -0.157,0.468 22.968,-5.157 22.812,-4.688 -0.156,0.469 -12.031,3.437 -12.031,3.75 0,0.312 9.531,-1.562 9.375,-1.094 -0.156,0.469 -24.063,6.563 -24.532,7.5 -0.468,0.938 12.344,-2.5 12.188,-0.781 -0.156,1.719 -27.656,11.094 -27.813,9.375 -0.156,-1.719 16.719,-6.094 16.563,-6.562 -0.156,-0.469 -9.687,1.093 -9.844,0.156 -0.156,-0.938 6.25,-2.969 5.782,-3.438 -0.469,-0.468 -5.313,1.406 -4.844,0.313 0.469,-1.094 9.531,-5.313 9.375,-5.625 -0.156,-0.313 -3.281,1.093 -2.969,0 0.313,-1.094 19.687,-6.719 19.375,-7.344 -0.313,-0.625 -8.906,1.406 -9.687,1.562 -0.313,-0.624 12.031,-5.156 11.718,-5.937 -0.312,-0.781 -6.562,2.656 -6.874,1.719 -0.313,-0.938 10.781,-5.313 10.156,-5.938 -0.625,-0.625 -5.781,1.719 -6.406,1.094 -0.625,-0.625 10.468,-8.437 8.749,-8.594 -1.718,-0.156 -3.75,2.345 -4.062,0.782 0.313,-2.032 8.75,-5.313 6.875,-6.875 -2.969,-0.938 -13.125,0.625 -17.344,3.125 -4.219,2.5 -18.125,16.406 -21.563,18.593 -3.437,2.188 -15,7.032 -17.187,7.969 -3.438,1.25 -4.063,3.125 -7.5,4.844 -6.251,1.719 -6.25,3.594 -9.219,4.687 -1.093,0.313 -12.343,5.781 -12.5,5.313 z m -15.78,7.028 c -1.875,0.938 -3.593,3.438 -2.501,4.375 0.626,1.25 2.501,-2.656 4.063,-2.5 1.563,0.156 3.75,0.157 7.969,0.47 4.219,0.312 6.406,-0.938 8.75,-0.782 2.344,0.156 7.657,-1.25 10.157,-1.25 2.5,0 2.968,0.312 3.281,-0.782 0.312,-1.093 -7.813,-0.312 -11.407,-0.468 -3.593,-0.156 -8.125,0.781 -10.781,0.781 -2.5,-0.156 -6.875,-0.938 -9.531,0.156 z"
           id="path24"
           inkscape:connector-curvature="0" />
        <rect
           rx="1.719"
           ry="1.484"
           height="2.9690001"
           width="3.438"
           y="309.14001"
           x="401.70001"
           id="rect26" />
        <path
           d="m 445.02,307.731 c 1.718,-0.313 6.307,1.25 9.478,2.031 5.828,2.188 16.603,1.094 16.603,2.188 0,1.094 -0.67,2.5 -3.242,2.656 -2.572,0.156 -8.758,-0.937 -8.587,-0.937 0.171,0 4.972,2.187 3.6,2.812 -1.372,0.625 -5.486,-1.25 -6.171,-0.781 -0.685,0.469 3.771,1.406 3.086,1.719 -0.686,0.312 -3.782,-0.469 -4.811,-0.312 -1.028,0.155 0.868,1.249 -0.333,1.718 -1.199,0.469 -3.216,-0.624 -4.073,-0.313 -0.857,0.314 1.845,2.032 0.645,2.188 -1.2,0.156 -4.089,-0.781 -5.632,-0.937 -1.543,-0.156 1.518,1.562 0.49,1.718 -1.03,0.156 -3.827,-1.249 -4.512,-1.249 -0.685,0 0.054,1.874 -0.974,1.874 -1.029,0 -2.239,-1.562 -2.753,-1.562 -0.514,0 0.01,1.875 -1.018,1.875 -1.028,0 -1.397,-2.031 -2.254,-1.875 -1.014,0.157 0.025,2.656 -1.346,2.5 -1.371,-0.157 -1.553,-2.656 -2.581,-2.5 -1.03,0.156 0.182,2.5 -0.847,2.5 -1.028,0 -1.195,-2.344 -2.224,-2.5 -1.028,-0.156 -0.52,2.187 -1.205,2.187 -0.685,0 -1.195,-2.187 -1.538,-2.187 -0.342,0 -0.004,2.187 -1.205,2.031 -1.201,-0.156 -1.194,-2.5 -1.538,-2.344 -0.342,0.157 -0.348,1.719 -1.204,1.719 -0.856,0 -0.853,-1.562 -1.195,-1.406 -0.344,0.156 -1.548,2.187 -2.405,1.875 -0.857,-0.313 0.206,-1.875 -0.136,-1.875 -0.343,0 -1.406,1.093 -2.092,0.937 -0.686,-0.156 0.035,-1.406 -0.137,-1.406 -0.171,0 -1.75,0.781 -2.435,0.781 -0.685,0 -2.571,1.094 -3.086,0.156 -0.513,-0.937 1.342,-0.937 1.684,-1.875 0.344,-0.937 -0.998,-3.593 0.373,-4.531 1.372,-0.937 5.658,1.25 12,-0.312 11.656,-3.125 20.652,-6.718 21.575,-6.563 z"
           id="path28"
           inkscape:connector-curvature="0" />
      </g>
    </g>
  </g>
</svg>
