<?xml version="1.0" encoding="UTF-8" standalone="no"?>
<svg
   xmlns:dc="http://purl.org/dc/elements/1.1/"
   xmlns:cc="http://creativecommons.org/ns#"
   xmlns:rdf="http://www.w3.org/1999/02/22-rdf-syntax-ns#"
   xmlns:svg="http://www.w3.org/2000/svg"
   xmlns="http://www.w3.org/2000/svg"
   xmlns:sodipodi="http://sodipodi.sourceforge.net/DTD/sodipodi-0.dtd"
   xmlns:inkscape="http://www.inkscape.org/namespaces/inkscape"
   height="16.000002"
   width="21.333731"
   viewBox="0 0 21.333731 16.000002"
   version="1.1"
   id="svg19"
   sodipodi:docname="lb.svg"
   inkscape:version="0.92.1 r">
  <metadata
     id="metadata23">
    <rdf:RDF>
      <cc:Work
         rdf:about="">
        <dc:format>image/svg+xml</dc:format>
        <dc:type
           rdf:resource="http://purl.org/dc/dcmitype/StillImage" />
        <dc:title></dc:title>
      </cc:Work>
    </rdf:RDF>
  </metadata>
  <sodipodi:namedview
     pagecolor="#ffffff"
     bordercolor="#666666"
     borderopacity="1"
     objecttolerance="10"
     gridtolerance="10"
     guidetolerance="10"
     inkscape:pageopacity="0"
     inkscape:pageshadow="2"
     inkscape:window-width="1920"
     inkscape:window-height="1024"
     id="namedview21"
     showgrid="false"
     fit-margin-top="0"
     fit-margin-left="0"
     fit-margin-right="0"
     fit-margin-bottom="0"
     inkscape:zoom="0.49166667"
     inkscape:cx="319.99969"
     inkscape:cy="239.99344"
     inkscape:window-x="0"
     inkscape:window-y="0"
     inkscape:window-maximized="1"
     inkscape:current-layer="svg19" />
  <defs
     id="defs5">
    <clipPath
       id="a">
      <path
         d="m -85.333,0 h 682.67 v 512 h -682.67 z"
         id="path2"
         inkscape:connector-curvature="0"
         style="fill-opacity:0.67000002" />
    </clipPath>
  </defs>
  <g
     clip-path="url(#a)"
     transform="matrix(0.03125043,0,0,0.03125043,2.6666929,0)"
     id="g17">
    <g
       id="g11"
       style="fill-rule:evenodd;stroke-width:1.00000003pt">
      <path
         d="m -128,383.993 h 767.975 v 128 H -128 Z M -128,0 H 639.975 V 128.001 H -128 Z"
         id="path7"
         inkscape:connector-curvature="0"
         style="fill:#ff0000" />
      <path
         d="M -128,128.001 H 639.975 V 383.993 H -128 Z"
         id="path9"
         inkscape:connector-curvature="0"
         style="fill:#ffffff" />
    </g>
    <path
       d="m 252.1,129.95 c -7.81,15.593 -13.018,15.593 -26.034,25.99 -5.206,5.198 -13.016,7.797 -2.603,12.996 -10.413,5.197 -15.62,7.797 -20.827,18.192 l 2.603,2.599 c 0,0 9.895,-4.85 10.414,-2.599 1.73,2.078 -13.024,10.051 -14.929,11.263 -1.904,1.212 -11.106,6.93 -11.106,6.93 -13.016,10.397 -20.827,7.796 -28.637,23.39 l 26.034,-2.597 c 5.207,18.192 -13.017,20.79 -26.034,28.588 l -20.827,12.996 c 5.208,18.192 20.827,7.796 33.844,2.598 l 2.604,2.6 v 5.197 l -26.034,12.996 c 0,0 -30.733,17.584 -31.24,18.192 -0.21,0.942 0,5.198 0,5.198 10.413,2.6 26.034,5.199 36.448,0 13.016,-5.198 15.619,-10.396 31.24,-10.396 -18.224,12.994 -31.24,18.193 -52.068,20.791 v 10.397 c 15.62,0 26.033,0 39.051,-2.599 l 33.844,-10.396 c 7.81,0 15.62,7.797 13.017,15.593 -7.81,28.588 -39.052,23.391 -49.466,46.781 l 41.656,-15.593 c 10.413,-5.198 20.826,-10.396 33.843,-7.796 15.62,5.196 15.62,15.594 36.448,20.79 l -5.206,-12.993 c 5.206,2.598 10.413,2.598 15.619,5.197 13.018,5.2 15.621,10.396 31.24,7.797 -13.016,-15.594 -15.619,-12.994 -26.033,-23.39 -10.413,-15.594 -15.62,-38.984 0,-41.584 l 18.224,5.199 c 18.223,2.598 18.223,-2.599 44.257,7.797 15.621,5.197 20.828,12.994 39.052,7.796 -7.81,-18.192 -36.448,-31.188 -54.671,-36.386 20.826,-12.996 15.619,5.198 44.257,-2.6 v -5.196 c -20.826,-15.594 -28.637,-28.59 -57.275,-28.59 l 44.259,-5.198 v -5.198 c 0,0 -43.649,-11.451 -44.664,-11.858 0.304,-1.32 1.372,-3.366 4.27,-4.497 8.289,5.366 33.357,4.74 34.78,4.64 -0.732,-6.396 -12.61,-11.676 -23.023,-16.873 0,0 -44.59,-27.483 -44.811,-29.916 0.884,-6.965 18.314,1.107 37,6.524 -5.206,-10.396 -15.62,-15.593 -26.033,-18.192 l 15.62,-2.598 C 319.79,158.541 293.755,161.14 278.136,150.744 267.721,142.947 267.721,137.748 252.102,129.952 Z"
       id="path13"
       inkscape:connector-curvature="0"
       style="fill:#007900" />
    <path
       d="m 223.96,303.07 c 1.932,-6.194 4.476,-11.674 -7.117,-16.954 -11.593,-5.278 5.795,21.114 7.117,16.954 z m 13.73,-12.39 c -2.337,0.304 -3.56,8.835 1.117,11.169 5.188,0.81 0.917,-11.066 -1.117,-11.169 z m 13.53,-0.91 c -2.442,0.712 -2.543,12.691 6,10.56 8.543,-2.13 -0.103,-11.573 -6,-10.56 z m 15.76,-30.76 c 1.83,-2.945 -0.101,-15.025 -7.425,-9.95 -7.321,5.077 5.085,10.762 7.425,9.95 z m -15.97,-10.05 c 2.239,-0.812 2.442,-8.223 -3.964,-6.294 -6.405,1.93 2.238,7.817 3.964,6.294 z m -14.43,2.94 c 0,0 -4.475,-6.193 -7.933,-4.874 -4.373,4.163 8.238,4.975 7.933,4.874 z m -49.59,19.79 c 1.905,0.173 16.027,-2.329 20.908,-7.81 4.88,-5.483 -25.127,2.346 -25.127,2.447 0,0.101 2.835,4.844 4.22,5.363 z M 328.1,236.73 c 0.728,-1.295 -7.517,-7.172 -12.416,-4.856 -1.261,4.339 12.375,5.748 12.416,4.856 z m -27.76,-13.97 c 1.526,-2.233 -3.558,-11.37 -13.727,-6.294 -10.17,5.076 10.676,9.848 13.727,6.294 z m -32.14,-5.38 c 0,0 2.541,-8.223 8.644,-6.6 6.916,5.281 -8.34,6.905 -8.644,6.6 z m -6,-6.19 c -0.917,-2.335 -7.323,-0.913 -14.644,3.858 -7.324,4.772 16.88,1.422 14.644,-3.858 z m 18.71,-22.13 c 0,0 6.523,-2.92 8.44,0 2.747,4.366 -8.541,0.102 -8.44,0 z m -5.47,-2.86 c -1.322,-2.64 -8.54,-2.89 -8.355,0.925 -1.21,2.989 9.38,2.432 8.355,-0.925 z m -17.2,0.01 c -0.711,-1.523 -10.98,0.029 -14.032,6.193 4.899,2.382 16.271,-2.335 14.032,-6.193 z m -21.97,6.3 c 0,0 -13.51,8.26 -14.339,14.315 0.41,5.229 16.778,-9.442 16.778,-9.442 0,0 1.424,-5.787 -2.439,-4.873 z M 221.32,185 c 0.378,-1.68 6.675,-5.572 7.22,-5.28 0.51,1.694 -5.143,6.28 -7.22,5.28 z m 4.27,31.57 c 0.304,-2.437 -16.068,-2.235 -9.864,5.278 5.166,6.301 10.984,-4.161 9.864,-5.278 z m -14.9,10.78 c -0.854,-1.647 -2.082,-6.038 -4.324,-6.442 -1.827,-0.103 -11.672,1.928 -12.425,3.594 -0.406,1.32 4.075,9.435 5.602,9.638 1.729,0.71 10.842,-5.978 11.147,-6.79 z m 88.33,55.11 c 0.508,-1.725 17.239,-7.507 23.015,-1.976 6.812,9.34 -23.421,4.922 -23.015,1.976 z M 345,293.39 c 3.666,-6.204 -11.257,-13.559 -17.592,-6.47 2.165,8.517 14.628,11.6 17.592,6.47 z"
       id="path15"
       inkscape:connector-curvature="0"
       style="fill:#ffffff;fill-rule:evenodd;stroke:#ffffff;stroke-width:3.2190001;stroke-linecap:round;stroke-linejoin:round" />
  </g>
</svg>
