<?xml version="1.0" encoding="UTF-8" standalone="no"?>
<svg
   xmlns:dc="http://purl.org/dc/elements/1.1/"
   xmlns:cc="http://creativecommons.org/ns#"
   xmlns:rdf="http://www.w3.org/1999/02/22-rdf-syntax-ns#"
   xmlns:svg="http://www.w3.org/2000/svg"
   xmlns="http://www.w3.org/2000/svg"
   xmlns:sodipodi="http://sodipodi.sourceforge.net/DTD/sodipodi-0.dtd"
   xmlns:inkscape="http://www.inkscape.org/namespaces/inkscape"
   height="16"
   width="21.333332"
   viewBox="0 0 21.333332 16"
   version="1.1"
   id="svg14"
   sodipodi:docname="ls.svg"
   inkscape:version="0.92.1 r">
  <metadata
     id="metadata20">
    <rdf:RDF>
      <cc:Work
         rdf:about="">
        <dc:format>image/svg+xml</dc:format>
        <dc:type
           rdf:resource="http://purl.org/dc/dcmitype/StillImage" />
        <dc:title></dc:title>
      </cc:Work>
    </rdf:RDF>
  </metadata>
  <defs
     id="defs18" />
  <sodipodi:namedview
     pagecolor="#ffffff"
     bordercolor="#666666"
     borderopacity="1"
     objecttolerance="10"
     gridtolerance="10"
     guidetolerance="10"
     inkscape:pageopacity="0"
     inkscape:pageshadow="2"
     inkscape:window-width="1920"
     inkscape:window-height="1024"
     id="namedview16"
     showgrid="false"
     fit-margin-top="0"
     fit-margin-left="0"
     fit-margin-right="0"
     fit-margin-bottom="0"
     inkscape:zoom="0.49166667"
     inkscape:cx="320"
     inkscape:cy="240"
     inkscape:window-x="0"
     inkscape:window-y="0"
     inkscape:window-maximized="1"
     inkscape:current-layer="svg14" />
  <path
     d="M 0,0 H 21.333333 V 16 H 0 Z"
     id="path2"
     inkscape:connector-curvature="0"
     style="fill:#ffffff;stroke-width:0.03333334" />
  <path
     d="M 0,11.2 H 21.333333 V 16 H 0 Z"
     id="path4"
     inkscape:connector-curvature="0"
     style="fill:#009543;stroke-width:0.03333334" />
  <path
     d="M 0,0 H 21.333333 V 4.8 H 0 Z"
     id="path6"
     inkscape:connector-curvature="0"
     style="fill:#00209f;stroke-width:0.03333334" />
  <path
     d="m 10.654067,5.097 c -0.0912,0.002 -0.180134,0.10293 -0.180134,0.10293 l 0.0079,1.07917 -0.340667,0.3569 H 10.4169 l -0.0023,0.61877 -1.6314997,2.19696 -0.2411666,-0.0833 -0.4216,0.89923 c 0,0 1.0426666,0.65284 2.5560663,0.63504 1.660934,-0.0197 2.5634,-0.66517 2.5634,-0.66517 L 12.804167,9.34986 12.590834,9.44266 10.9384,7.25706 10.9361,6.61986 h 0.2757 l -0.375333,-0.35253 0.0023,-1.07517 c 0,0 -0.09347,-0.0971 -0.184666,-0.0951 z"
     id="path8"
     inkscape:connector-curvature="0"
     style="stroke:#000000;stroke-width:0.05336666" />
  <path
     d="m 11.222933,7.68053 h -1.128166 c 0,0 -0.4095003,-0.86276 -0.3431003,-1.46593 0.0676,-0.61417 0.4185663,-0.90467 0.8852333,-0.90987 0.551733,-0.006 0.8409,0.2704 0.928267,0.8853 0.08657,0.60927 -0.3423,1.49044 -0.3423,1.49044 z"
     id="path10"
     inkscape:connector-curvature="0"
     style="fill:none;stroke:#000000;stroke-width:0.26666668" />
  <path
     d="M 8.682,9.73707 C 8.663567,9.76157 8.5283333,10.0321 8.5283333,10.0321 l 0.2336,-0.0492 -0.0799,-0.24586 z m 0.1352667,0.3504 -0.2458667,0.0799 0.2950667,0.1168 z M 8.9279,9.7432 9.0509,10.10587 9.3521,10.01987 9.272167,9.84767 8.9279,9.74313 Z m 0.1906,0.4918 0.043,0.1475 0.3996333,0.0984 -0.1598666,-0.33813 z M 9.5610667,9.92763 9.7025,10.26577 10.003733,10.14897 9.905333,10.0014 9.561133,9.9276 Z M 9.7578,10.3887 9.807,10.51777 10.2742,10.58537 10.0775,10.278 9.7578333,10.38867 Z m 0.448767,-0.36273 0.172166,0.30123 0.4364,-0.15983 -0.04917,-0.1168 -0.5594,-0.0245 z m 0.252033,0.4119 0.09223,0.15983 0.540967,-0.0184 -0.2029,-0.30124 z m 0.571733,-0.39957 0.147534,0.252 0.344266,-0.166 -0.09227,-0.13523 z m 0.565567,0.1905 -0.344267,0.17217 0.0922,0.1475 0.461067,-0.0737 -0.209067,-0.24586 z M 11.706567,9.96447 11.8848,10.1858 12.173767,9.95833 12.075367,9.8538 Z m 0.528633,0.1168 -0.276667,0.20906 0.07383,0.12907 0.381133,-0.0983 z m 0.381167,-0.43647 0.06757,0.0984 -0.190533,0.28277 -0.1967,-0.25204 0.319667,-0.12906 z m 0.129066,0.24593 0.1168,0.2336 -0.2336,0.0799 -0.01843,-0.11067 z"
     id="path12"
     inkscape:connector-curvature="0"
     style="fill:#ffffff;stroke-width:0.03333334" />
</svg>
