<?xml version="1.0" encoding="UTF-8" standalone="no"?>
<svg
   xmlns:dc="http://purl.org/dc/elements/1.1/"
   xmlns:cc="http://creativecommons.org/ns#"
   xmlns:rdf="http://www.w3.org/1999/02/22-rdf-syntax-ns#"
   xmlns:svg="http://www.w3.org/2000/svg"
   xmlns="http://www.w3.org/2000/svg"
   xmlns:sodipodi="http://sodipodi.sourceforge.net/DTD/sodipodi-0.dtd"
   xmlns:inkscape="http://www.inkscape.org/namespaces/inkscape"
   height="15.999998"
   width="21.33272"
   viewBox="0 0 21.33272 15.999998"
   version="1.1"
   id="svg10"
   sodipodi:docname="mh.svg"
   inkscape:version="0.92.1 r">
  <metadata
     id="metadata16">
    <rdf:RDF>
      <cc:Work
         rdf:about="">
        <dc:format>image/svg+xml</dc:format>
        <dc:type
           rdf:resource="http://purl.org/dc/dcmitype/StillImage" />
        <dc:title></dc:title>
      </cc:Work>
    </rdf:RDF>
  </metadata>
  <defs
     id="defs14" />
  <sodipodi:namedview
     pagecolor="#ffffff"
     bordercolor="#666666"
     borderopacity="1"
     objecttolerance="10"
     gridtolerance="10"
     guidetolerance="10"
     inkscape:pageopacity="0"
     inkscape:pageshadow="2"
     inkscape:window-width="1920"
     inkscape:window-height="1024"
     id="namedview12"
     showgrid="false"
     fit-margin-top="0"
     fit-margin-left="0"
     fit-margin-right="0"
     fit-margin-bottom="0"
     inkscape:zoom="0.49166667"
     inkscape:cx="320.003"
     inkscape:cy="240.001"
     inkscape:window-x="0"
     inkscape:window-y="0"
     inkscape:window-maximized="1"
     inkscape:current-layer="svg10" />
  <g
     id="g8"
     transform="matrix(0.03333326,0,0,0.03333326,9.999978e-5,0)"
     style="fill-rule:evenodd">
    <path
       d="M 0,0 H 639.864 V 480 H 0 Z"
       id="path2"
       inkscape:connector-curvature="0"
       style="fill:#3b5aa3" />
    <path
       d="M 0,467.08 639.904,0 639.877,86.915 0,479.995 v -12.92 z"
       id="path4"
       inkscape:connector-curvature="0"
       style="fill:#e2ae57" />
    <path
       d="M 22.397,479.98 639.98,179.22 639.847,83.741 -0.003,480.001 22.393,479.981 Z M 175.32,15.163 l -6.314,102.79 -27.01,-65.552 10.361,69.775 -41.83,-56.378 27.42,64.338 -54.935,-42.616 42.765,53.546 -62.102,-27.52 54.392,41.19 -67.65,-8.95 63.93,25.34 -100.35,9.18 100.59,6.723 -63.742,26.207 66.972,-9.062 -54.195,40.018 62.891,-27.595 -42.896,53.99 54.573,-41.318 -27.036,62.889 43.684,-54.69 -11.824,68.173 27.478,-63.7 6.212,100.63 9.69,-100.38 23.692,64.088 -9.032,-69.057 43.468,54.738 -28.561,-63.93 54.55,43.996 -43.37,-54.93 64.834,26.995 -57.38,-41.902 69.879,11.78 -66.896,-25.694 104.05,-6.46 -104.05,-9.691 68.486,-22.828 -70.972,8.914 58.638,-40.996 -66.091,26.586 45.644,-55.334 -55.582,43.408 26.746,-66.412 -43.146,56.474 9.267,-70.43 -25.665,66.455 -9.587,-102.79 z"
       id="path6"
       inkscape:connector-curvature="0"
       style="fill:#ffffff" />
  </g>
</svg>
