<?xml version="1.0" encoding="UTF-8" standalone="no"?>
<svg
   xmlns:dc="http://purl.org/dc/elements/1.1/"
   xmlns:cc="http://creativecommons.org/ns#"
   xmlns:rdf="http://www.w3.org/1999/02/22-rdf-syntax-ns#"
   xmlns:svg="http://www.w3.org/2000/svg"
   xmlns="http://www.w3.org/2000/svg"
   xmlns:xlink="http://www.w3.org/1999/xlink"
   xmlns:sodipodi="http://sodipodi.sourceforge.net/DTD/sodipodi-0.dtd"
   xmlns:inkscape="http://www.inkscape.org/namespaces/inkscape"
   height="16"
   width="21.333332"
   viewBox="0 0 21.333332 16"
   version="1.1"
   id="svg13"
   sodipodi:docname="mo.svg"
   inkscape:version="0.92.1 r">
  <metadata
     id="metadata19">
    <rdf:RDF>
      <cc:Work
         rdf:about="">
        <dc:format>image/svg+xml</dc:format>
        <dc:type
           rdf:resource="http://purl.org/dc/dcmitype/StillImage" />
        <dc:title></dc:title>
      </cc:Work>
    </rdf:RDF>
  </metadata>
  <defs
     id="defs17" />
  <sodipodi:namedview
     pagecolor="#ffffff"
     bordercolor="#666666"
     borderopacity="1"
     objecttolerance="10"
     gridtolerance="10"
     guidetolerance="10"
     inkscape:pageopacity="0"
     inkscape:pageshadow="2"
     inkscape:window-width="1920"
     inkscape:window-height="1024"
     id="namedview15"
     showgrid="false"
     fit-margin-top="0"
     fit-margin-left="0"
     fit-margin-right="0"
     fit-margin-bottom="0"
     inkscape:zoom="0.49166667"
     inkscape:cx="320"
     inkscape:cy="240"
     inkscape:window-x="0"
     inkscape:window-y="0"
     inkscape:window-maximized="1"
     inkscape:current-layer="svg13" />
  <path
     d="M 0,0 H 21.333333 V 16 H 0 Z"
     id="path2"
     inkscape:connector-curvature="0"
     style="fill:#00785e;stroke-width:0.03333334" />
  <path
     d="M 9.8305,3.62423 11.183333,4.607 10.666667,3.01667 10.15,4.607 11.502833,3.62423 Z"
     id="path4"
     inkscape:connector-curvature="0"
     style="fill:#fbd116;stroke-width:0.03333334" />
  <g
     id="a"
     transform="scale(0.03333333)">
    <path
       d="M 320,331.625 H 217.523 a 146.33,146.33 0 0 1 -3.805,-4 H 320 a 2.14,2.14 0 0 1 1.425,1.894 c 0.046,0.92 -0.533,1.783 -1.425,2.105 z m 0,-31.336 c 0.595,-1.216 1.753,-4.03 1.227,-7.55 A 12.39,12.39 0 0 0 320,288.929 c -5.75,5.44 -16.555,14.16 -32.493,18.982 A 81.04,81.04 0 0 1 264,311.374 h -63.133 a 144.396,144.396 0 0 0 5.852,8 h 61.03 c 19.9,0 38.13,-7.18 52.25,-19.085 z M 210.406,275.593 a 32.286,32.286 0 0 1 -9.695,2.1 c 14.87,16.818 36.596,27.43 60.79,27.43 22.98,0 43.736,-9.572 58.5,-24.945 a 440.94,440.94 0 0 0 4.546,-58.908 440.923,440.923 0 0 0 -4.546,-67.67 c -6.595,5.91 -18.95,18.684 -24.775,38.267 a 81.045,81.045 0 0 0 -3.35,23.13 c 0,16.68 5.042,32.188 13.687,45.086 -10.616,-13.713 -16.938,-30.914 -16.938,-49.586 0,-12.403 2.79,-24.157 7.774,-34.673 a 32.49,32.49 0 0 1 -7.53,-12.984 c -6.68,11.786 -10.494,25.4 -10.494,39.907 0,18.042 5.9,34.71 15.875,48.187 -17.37,-18.21 -41.867,-29.562 -69,-29.562 -1.458,0 -2.91,0.037 -4.353,0.1 a 32.644,32.644 0 0 1 6.75,8.9 c 26.992,0.04 51.36,11.32 68.69,29.4 -16.55,-13.825 -37.853,-22.15 -61.086,-22.15 -12.983,0 -25.363,2.6 -36.647,7.305 11.595,30.638 41.214,52.445 75.898,52.445 2.248,0 4.474,-0.1 6.673,-0.28 -4.68,0.84 -9.5,1.28 -14.42,1.28 -21.886,0 -41.75,-8.68 -56.347,-22.78 z M 320,364.374 h -53.11 c 16.437,6.533 34.355,10.125 53.11,10.125 a 10.912,10.912 0 0 0 1.25,-4.956 10.927,10.927 0 0 0 -1.25,-5.17 z m 0,-24.5 h -93.633 a 143.792,143.792 0 0 0 7.82,6.25 H 320 c 0.215,-0.22 1.273,-1.348 1.273,-3.125 0,-1.778 -1.058,-2.906 -1.273,-3.125 z m 0,12.5 h -76.695 a 143.623,143.623 0 0 0 14.446,8 H 320 a 7.557,7.557 0 0 0 1.16,-4.193 7.53,7.53 0 0 0 -1.16,-3.805 z"
       id="path6"
       inkscape:connector-curvature="0"
       style="fill:#ffffff" />
    <path
       d="m 200.484,174.766 25.384,23.67 -6.625,-34.07 -14.664,31.462 30.35,-16.836 z m 36.891,-32.009 34.71,0.603 -27.725,-20.884 10.148,33.196 11.304,-32.828 z"
       id="path8"
       inkscape:connector-curvature="0"
       style="fill:#fbd116" />
  </g>
  <use
     height="100%"
     width="100%"
     xlink:href="#a"
     transform="matrix(-1,0,0,1,21.333333,0)"
     id="use11"
     x="0"
     y="0" />
</svg>
