<?xml version="1.0" encoding="UTF-8" standalone="no"?>
<svg
   xmlns:dc="http://purl.org/dc/elements/1.1/"
   xmlns:cc="http://creativecommons.org/ns#"
   xmlns:rdf="http://www.w3.org/1999/02/22-rdf-syntax-ns#"
   xmlns:svg="http://www.w3.org/2000/svg"
   xmlns="http://www.w3.org/2000/svg"
   xmlns:xlink="http://www.w3.org/1999/xlink"
   xmlns:sodipodi="http://sodipodi.sourceforge.net/DTD/sodipodi-0.dtd"
   xmlns:inkscape="http://www.inkscape.org/namespaces/inkscape"
   height="16"
   width="21.333332"
   viewBox="0 0 21.333332 16"
   version="1.1"
   id="svg20"
   sodipodi:docname="mr.svg"
   inkscape:version="0.92.1 r">
  <metadata
     id="metadata26">
    <rdf:RDF>
      <cc:Work
         rdf:about="">
        <dc:format>image/svg+xml</dc:format>
        <dc:type
           rdf:resource="http://purl.org/dc/dcmitype/StillImage" />
        <dc:title></dc:title>
      </cc:Work>
    </rdf:RDF>
  </metadata>
  <defs
     id="defs24" />
  <sodipodi:namedview
     pagecolor="#ffffff"
     bordercolor="#666666"
     borderopacity="1"
     objecttolerance="10"
     gridtolerance="10"
     guidetolerance="10"
     inkscape:pageopacity="0"
     inkscape:pageshadow="2"
     inkscape:window-width="1920"
     inkscape:window-height="1024"
     id="namedview22"
     showgrid="false"
     fit-margin-top="0"
     fit-margin-left="0"
     fit-margin-right="0"
     fit-margin-bottom="0"
     inkscape:zoom="0.49166667"
     inkscape:cx="320"
     inkscape:cy="240"
     inkscape:window-x="0"
     inkscape:window-y="0"
     inkscape:window-maximized="1"
     inkscape:current-layer="svg20" />
  <path
     d="M 0,0 H 21.333333 V 16 H 0 Z"
     id="path2"
     inkscape:connector-curvature="0"
     style="fill:#006233;stroke-width:0.03333334" />
  <circle
     cx="10.666667"
     cy="6"
     r="5.1666665"
     id="circle4"
     style="fill:#ffc400;stroke-width:0.03333334" />
  <path
     d="m 8.1141667,0.37387 a 5,5 0 0 0 -2.4475,4.2928 5,5 0 0 0 5.0000003,5 5,5 0 0 0 5,-5 5,5 0 0 0 -2.447767,-4.2928 z"
     id="path6"
     inkscape:connector-curvature="0"
     style="fill:#006233;stroke-width:0.03333334" />
  <g
     id="b"
     transform="matrix(0.16666667,0,0,0.16666667,10.666667,4.66667)">
    <path
       id="a"
       d="M 0,-12 -3.708,-0.587 1.998,1.267"
       inkscape:connector-curvature="0"
       style="fill:#ffc400" />
    <use
       height="100%"
       width="100%"
       xlink:href="#a"
       transform="scale(-1,1)"
       id="use9"
       x="0"
       y="0" />
  </g>
  <use
     height="100%"
     width="100%"
     xlink:href="#b"
     transform="rotate(72,10.666666,4.66667)"
     id="use12"
     x="0"
     y="0" />
  <use
     height="100%"
     width="100%"
     xlink:href="#b"
     transform="rotate(144,10.666667,4.66667)"
     id="use14"
     x="0"
     y="0" />
  <use
     height="100%"
     width="100%"
     xlink:href="#b"
     transform="rotate(-144,10.666667,4.66667)"
     id="use16"
     x="0"
     y="0" />
  <use
     height="100%"
     width="100%"
     xlink:href="#b"
     transform="rotate(-72,10.666664,4.66667)"
     id="use18"
     x="0"
     y="0" />
</svg>
