<?xml version="1.0" encoding="UTF-8" standalone="no"?>
<svg
   xmlns:dc="http://purl.org/dc/elements/1.1/"
   xmlns:cc="http://creativecommons.org/ns#"
   xmlns:rdf="http://www.w3.org/1999/02/22-rdf-syntax-ns#"
   xmlns:svg="http://www.w3.org/2000/svg"
   xmlns="http://www.w3.org/2000/svg"
   xmlns:sodipodi="http://sodipodi.sourceforge.net/DTD/sodipodi-0.dtd"
   xmlns:inkscape="http://www.inkscape.org/namespaces/inkscape"
   height="15.999998"
   width="21.333332"
   viewBox="0 0 21.333332 15.999998"
   version="1.1"
   id="svg84"
   sodipodi:docname="mt.svg"
   inkscape:version="0.92.1 r">
  <metadata
     id="metadata90">
    <rdf:RDF>
      <cc:Work
         rdf:about="">
        <dc:format>image/svg+xml</dc:format>
        <dc:type
           rdf:resource="http://purl.org/dc/dcmitype/StillImage" />
        <dc:title></dc:title>
      </cc:Work>
    </rdf:RDF>
  </metadata>
  <defs
     id="defs88" />
  <sodipodi:namedview
     pagecolor="#ffffff"
     bordercolor="#666666"
     borderopacity="1"
     objecttolerance="10"
     gridtolerance="10"
     guidetolerance="10"
     inkscape:pageopacity="0"
     inkscape:pageshadow="2"
     inkscape:window-width="1920"
     inkscape:window-height="1024"
     id="namedview86"
     showgrid="false"
     fit-margin-top="0"
     fit-margin-left="0"
     fit-margin-right="0"
     fit-margin-bottom="0"
     inkscape:zoom="0.49166667"
     inkscape:cx="320"
     inkscape:cy="240"
     inkscape:window-x="0"
     inkscape:window-y="0"
     inkscape:window-maximized="1"
     inkscape:current-layer="svg84" />
  <g
     id="g6"
     transform="scale(0.03333333)"
     style="fill-rule:evenodd;stroke-width:1.00000003pt">
    <path
       d="M 320,0 H 640 V 480 H 320 Z"
       id="path2"
       inkscape:connector-curvature="0"
       style="fill:#ce0000" />
    <path
       d="M 0,0 H 320 V 480 H 0 Z"
       id="path4"
       inkscape:connector-curvature="0"
       style="fill:#ffffff" />
  </g>
  <g
     transform="matrix(0.05328667,0,0,0.05328667,-0.41266667,-1.02503)"
     id="g82">
    <path
       d="m 104.824,108.068 c 0,0.81 -0.918,1.466 -2.049,1.466 -1.131,0 -2.049,-0.656 -2.049,-1.466 0,-0.81 0.918,-1.466 2.049,-1.466 1.131,0 2.049,0.656 2.049,1.466 z"
       id="path8"
       inkscape:connector-curvature="0"
       style="fill:#f1eeee;fill-rule:evenodd" />
    <path
       d="m 40.727,100.98 v 37.209 h 37.211 c 0,6.2 6.202,12.402 12.404,12.402 v 37.207 h 37.208 v -37.207 c 6.202,0 12.404,-6.202 12.404,-12.402 h 37.211 V 100.98 h -37.211 c 0,-6.2 -6.202,-12.402 -12.404,-12.402 V 51.371 H 90.342 v 37.207 c -6.202,0 -12.404,6.202 -12.404,12.402 z"
       id="path10"
       inkscape:connector-curvature="0"
       style="fill:#cc0000;fill-rule:evenodd" />
    <path
       d="m 41.969,102.22 v 34.727 H 79.18 c 0,6.2 6.2,12.404 12.402,12.404 v 37.207 h 34.73 v -37.207 c 6.202,0 12.402,-6.204 12.402,-12.404 h 37.211 V 102.22 h -37.211 c 0,-6.2 -6.2,-12.404 -12.402,-12.404 V 52.609 h -34.73 v 37.207 c -6.202,0 -12.402,6.204 -12.402,12.404 z"
       id="path12"
       inkscape:connector-curvature="0"
       style="fill:#ffe600;fill-rule:evenodd" />
    <path
       d="m 43.209,103.46 v 32.249 h 37.208 c 0,6.2 6.202,12.402 12.404,12.402 v 37.207 h 32.248 v -37.207 c 6.202,0 12.404,-6.202 12.404,-12.402 h 37.208 V 103.46 h -37.208 c 0,-6.2 -6.202,-12.402 -12.404,-12.402 V 53.851 H 92.821 v 37.207 c -6.202,0 -12.404,6.202 -12.404,12.402 z"
       id="path14"
       inkscape:connector-curvature="0"
       style="fill:#707070;fill-rule:evenodd" />
    <path
       d="m 44.45,104.7 v 29.766 h 37.208 c 0,6.2 6.202,12.404 12.404,12.404 v 37.207 h 29.767 V 146.87 c 6.202,0 12.404,-6.204 12.404,-12.404 h 37.208 V 104.7 h -37.208 c 0,-6.2 -6.202,-12.402 -12.404,-12.402 V 55.091 H 94.062 v 37.207 c -6.202,0 -12.404,6.202 -12.404,12.402 z"
       id="path16"
       inkscape:connector-curvature="0"
       style="fill:#a0a0a0;fill-rule:evenodd" />
    <g
       id="g24"
       style="fill-rule:evenodd">
      <path
         d="m 94.37,89.223 c 2.179,2.18 0.412,7.48 -3.947,11.84 -4.359,4.36 -9.66,6.125 -11.84,3.946 -2.18,-2.18 -0.413,-7.48 3.946,-11.84 4.359,-4.36 9.66,-6.126 11.84,-3.946 z"
         id="path18"
         inkscape:connector-curvature="0"
         style="fill:#d0d0d0" />
      <path
         d="m 91.74,91.852 c 2.18,2.18 1.59,6.303 -1.316,9.209 -2.906,2.906 -7.03,3.495 -9.209,1.315 -2.18,-2.18 -1.59,-6.302 1.316,-9.208 2.906,-2.906 7.029,-3.495 9.209,-1.316 z"
         id="path20"
         inkscape:connector-curvature="0"
         style="fill:#808080" />
      <path
         d="m 80.774,98.429 0.877,-0.877 3.508,1.754 -1.754,-3.508 0.877,-0.877 3.508,7.016 z m 5.263,-5.262 0.877,-0.877 5.263,5.262 -0.877,0.877 z"
         id="path22"
         inkscape:connector-curvature="0"
         style="fill:#d0d0d0" />
    </g>
    <g
       id="g32"
       style="fill-rule:evenodd">
      <path
         d="m 139.308,105.009 c -2.18,2.18 -7.481,0.412 -11.84,-3.947 -4.359,-4.359 -6.127,-9.66 -3.947,-11.84 2.18,-2.179 7.48,-0.412 11.84,3.947 4.36,4.359 6.126,9.66 3.947,11.84 z"
         id="path26"
         inkscape:connector-curvature="0"
         style="fill:#d0d0d0" />
      <path
         d="m 136.678,102.38 c -2.18,2.179 -6.303,1.59 -9.209,-1.316 -2.906,-2.906 -3.495,-7.03 -1.315,-9.209 2.18,-2.18 6.302,-1.59 9.209,1.316 2.907,2.906 3.495,7.029 1.315,9.208 z"
         id="path28"
         inkscape:connector-curvature="0"
         style="fill:#808080" />
      <path
         d="m 130.101,91.414 0.877,0.877 -1.754,3.508 3.508,-1.754 0.877,0.877 -7.016,3.508 z m 5.262,5.263 0.877,0.877 -5.262,5.262 -0.877,-0.877 z"
         id="path30"
         inkscape:connector-curvature="0"
         style="fill:#d0d0d0" />
    </g>
    <g
       id="g40"
       style="fill-rule:evenodd">
      <path
         d="m 123.52,149.947 c -2.179,-2.18 -0.412,-7.48 3.947,-11.84 4.359,-4.36 9.66,-6.125 11.84,-3.946 2.18,2.18 0.413,7.48 -3.946,11.84 -4.359,4.36 -9.66,6.126 -11.84,3.946 z"
         id="path34"
         inkscape:connector-curvature="0"
         style="fill:#d0d0d0" />
      <path
         d="m 126.15,147.318 c -2.18,-2.18 -1.59,-6.303 1.316,-9.209 2.906,-2.906 7.03,-3.495 9.209,-1.315 2.18,2.18 1.59,6.302 -1.316,9.208 -2.906,2.906 -7.029,3.495 -9.209,1.316 z"
         id="path36"
         inkscape:connector-curvature="0"
         style="fill:#808080" />
      <path
         d="m 137.116,140.741 -0.877,0.877 -3.508,-1.754 1.754,3.508 -0.877,0.877 -3.508,-7.016 z m -5.263,5.262 -0.877,0.877 -5.263,-5.262 0.877,-0.877 z"
         id="path38"
         inkscape:connector-curvature="0"
         style="fill:#d0d0d0" />
    </g>
    <g
       id="g48"
       style="fill-rule:evenodd">
      <path
         d="m 78.585,134.157 c 2.18,-2.18 7.481,-0.412 11.84,3.947 4.359,4.359 6.127,9.66 3.947,11.84 -2.18,2.179 -7.48,0.412 -11.84,-3.947 -4.36,-4.359 -6.126,-9.66 -3.947,-11.84 z"
         id="path42"
         inkscape:connector-curvature="0"
         style="fill:#d0d0d0" />
      <path
         d="m 81.215,136.787 c 2.18,-2.18 6.303,-1.59 9.209,1.315 2.906,2.905 3.495,7.03 1.315,9.209 -2.18,2.18 -6.302,1.59 -9.209,-1.316 -2.907,-2.906 -3.495,-7.029 -1.315,-9.208 z"
         id="path44"
         inkscape:connector-curvature="0"
         style="fill:#808080" />
      <path
         d="m 87.792,147.752 -0.877,-0.877 1.754,-3.508 -3.508,1.754 -0.877,-0.877 7.016,-3.508 z m -5.262,-5.263 -0.877,-0.877 5.262,-5.262 0.877,0.877 z"
         id="path46"
         inkscape:connector-curvature="0"
         style="fill:#d0d0d0" />
    </g>
    <path
       d="m 269.29,414.57 c 0,41.095 -34.107,74.409 -76.181,74.409 -42.074,0 -76.181,-33.314 -76.181,-74.409 0,-41.095 34.107,-74.409 76.181,-74.409 42.074,0 76.181,33.314 76.181,74.409 z"
       transform="matrix(0.34191,0,0,0.35003,42.921,-25.527)"
       id="path50"
       inkscape:connector-curvature="0"
       style="fill:none;stroke:#707070;stroke-width:1.00000003pt" />
    <path
       d="m 269.29,414.57 c 0,41.095 -34.107,74.409 -76.181,74.409 -42.074,0 -76.181,-33.314 -76.181,-74.409 0,-41.095 34.107,-74.409 76.181,-74.409 42.074,0 76.181,33.314 76.181,74.409 z"
       transform="matrix(0.2605,0,0,0.26669,58.641,9.023)"
       id="path52"
       inkscape:connector-curvature="0"
       style="fill:none;stroke:#707070;stroke-width:1.00000003pt" />
    <path
       d="m 100.265,140.667 a 1.2405,1.2405 0 1 1 -2.481,0 1.24,1.24 0 0 1 2.48,0 z m 19.845,0 a 1.24,1.24 0 1 1 -2.48,0 1.24,1.24 0 0 1 2.48,0 z m -11.99,0.003 v 1.293 h -1.654 c -1.654,0 -1.654,1.293 0,1.293 h 1.654 v 1.294 c 0.006,1.34 1.443,1.502 1.549,0.104 l 0.105,-1.398 h 1.654 c 1.653,0 1.653,-1.293 0,-1.293 h -1.654 v -1.293 c 0,-1.293 -1.654,-1.293 -1.654,0 z"
       id="path54"
       inkscape:connector-curvature="0"
       style="fill:#d0d0d0;fill-rule:evenodd" />
    <path
       d="m 102.77,122.35 v 0.733 c 0,0 -0.389,0.561 -2.868,0.733 -2.48,0.172 -2.868,0 -2.868,0 0.065,0.64 0.547,1.852 0.41,3.3 0.096,1.685 -0.475,3.21 -0.475,3.21 0.065,0.089 -0.233,0.133 -0.754,0.089 0.41,-0.367 0.362,-1.428 0.41,-2.933 0.047,-1.506 -1.565,-3.772 -1.23,-4.399 0.335,-0.627 7.375,-0.733 7.375,-0.733 z m 9.84,-2.66 c 2.412,-0.111 6.459,-0.087 6.459,-0.087 0,0 0.954,1.914 0.915,2.971 -0.04,1.058 -0.368,1.958 -0.819,1.508 -0.45,-0.45 0.209,-0.366 0.29,-1.508 0.08,-1.142 -0.771,-2.325 -0.771,-2.325 0,0 -1.73,0.755 -4.332,0.603 -2.602,-0.153 -1.45,-1.117 -1.742,-1.162 z"
       id="path56"
       inkscape:connector-curvature="0"
       style="fill:#d0d0d0;fill-rule:evenodd;stroke:#707070;stroke-width:0.146" />
    <path
       d="m 113.43,121.58 c 2.412,-0.111 3.995,0.258 3.995,0.258 0,0 0.954,1.915 0.915,2.972 -0.04,1.057 -0.368,1.957 -0.819,1.507 -0.45,-0.45 0.21,-0.365 0.29,-1.507 0.08,-1.142 -0.771,-2.326 -0.771,-2.326 0,0 -1.73,0.756 -4.332,0.603 -2.602,-0.152 -1.86,-0.308 -2.152,-0.353 -0.291,-0.045 -0.362,0.72 -4.298,0.827 -3.937,0.107 -5.944,-0.827 -5.944,-0.827 0,0 -0.39,0.561 -2.868,0.733 -2.48,0.172 -2.868,0 -2.868,0 0.064,0.64 0.547,1.852 0.41,3.3 0.096,1.685 -0.475,3.21 -0.475,3.21 0.065,0.089 -0.233,0.133 -0.755,0.089 0.41,-0.367 0.363,-1.428 0.41,-2.933 0.047,-1.506 -1.564,-3.772 -1.23,-4.399 0.336,-0.627 2.12,-0.04 2.46,-0.366 0.337,-0.326 -1.59,-2.621 -1.23,-4.766 0.36,-2.145 2.404,-1.54 4.917,-1.466 2.512,0.074 8.078,0.724 9.423,0 1.345,-0.725 0.763,-3.407 2.049,-5.132 0.819,-1.1 2.048,-1.466 3.277,-1.466 0.82,0 2.049,2.932 2.049,3.665 l -0.41,0.367 h -0.41 v 0.366 c -0.935,0.094 -1.065,-0.8 -1.639,-1.466 -0.246,1.033 0.82,4.4 0.82,6.598 0,1.833 -0.766,2.641 -0.814,2.512 z"
       id="path58"
       inkscape:connector-curvature="0"
       style="fill:#d0d0d0;fill-rule:evenodd;stroke:#707070;stroke-width:0.146" />
    <path
       d="m 105.54,118.4 c 0.034,0.73 -3.166,2.369 -3.427,3.017 -0.26,0.649 0.814,1.008 0.481,1.378 -0.332,0.37 -0.605,0.233 -0.673,0.302 -0.068,0.068 -1.204,-2.541 -1.204,-2.541 0,0 3.002,-1.354 2.888,-1.938 -0.114,-0.585 -2.216,-0.94 -2.599,-2.412 -0.383,-1.472 -0.17,-4.315 -0.481,-4.91 -0.311,-0.594 -3.995,-1.161 -3.999,-2.06 -0.003,-0.9 3.787,-3.367 4.197,-3.733 0.41,-0.367 0.82,0.366 0.41,0.733 -0.41,0.366 -3.377,2.633 -3.377,3 0,0.366 2.458,0.733 3.277,0.733 0.82,0 1.23,-0.367 1.23,-0.733 0.004,-0.317 -0.82,-0.367 -0.82,-1.1 0,-0.733 0.41,-1.1 1.229,-1.1 0.41,0 1.197,0.47 1.229,1.1 0.032,0.63 -0.729,0.684 -0.82,1.1 -0.09,0.416 0.82,0.733 1.64,0.733 0.819,0 3.616,2.132 4.026,2.499 0.41,0.366 0.82,0.366 0.41,0.733 -0.41,0.366 -0.17,0.8 -0.58,0.434 -0.348,-0.354 -0.41,-0.733 -0.41,-0.733 -0.035,-0.334 -3.037,-1.833 -3.447,-1.467 -0.41,0.367 0,4.766 0,5.132 0,0.733 0.854,0.73 0.82,1.833 z"
       id="path60"
       inkscape:connector-curvature="0"
       style="fill:#d0d0d0;fill-rule:evenodd;stroke:#707070;stroke-width:0.146" />
    <path
       d="m 100.32,109.9 h 4.917 v 5.132 h -4.917 z"
       id="path62"
       inkscape:connector-curvature="0"
       style="fill:#a7a7a7;fill-rule:evenodd" />
    <rect
       transform="matrix(0.55442,0.83223,-0.88237,0.47055,0,0)"
       rx="0.44499999"
       ry="0.199"
       height="0.39899999"
       width="30.646999"
       y="-25.672001"
       x="138.60001"
       id="rect64"
       style="fill:#808080;fill-rule:evenodd" />
    <path
       d="m 180.71,42.52 a 7.087,7.087 0 1 1 -14.173,0 7.087,7.087 0 0 1 14.173,0 z"
       transform="matrix(0.11563,0,0,0.10345,80.65,101.47)"
       id="path66"
       inkscape:connector-curvature="0"
       style="fill:#d0d0d0;fill-rule:evenodd;stroke:#707070;stroke-width:1.00000003pt" />
    <path
       d="m 115.88,112.54 c 0,0.304 -1.902,0.66 -4.097,0.66 -2.195,0 -4.097,-0.356 -4.097,-0.66 0,-0.304 1.902,0.44 4.097,0.44 2.195,0 4.097,-0.744 4.097,-0.44 z"
       id="path68"
       inkscape:connector-curvature="0"
       style="fill:#808080;fill-rule:evenodd" />
    <path
       d="m 100.73,115.03 h 4.097 v 1.466 h -4.097 z"
       id="path70"
       inkscape:connector-curvature="0"
       style="fill:#a7a7a7;fill-rule:evenodd" />
    <path
       d="m 114.048,111.417 c -0.397,0.744 -0.774,1.275 -0.841,1.186 -0.068,-0.089 0.199,-0.764 0.596,-1.508 0.397,-0.744 0.774,-1.275 0.842,-1.186 0.068,0.089 -0.2,0.764 -0.597,1.508 z m 1.035,1.926 c -0.452,0.397 -0.83,0.654 -0.842,0.574 -0.013,-0.08 0.344,-0.466 0.796,-0.863 0.453,-0.397 0.83,-0.654 0.842,-0.574 0.013,0.08 -0.343,0.466 -0.796,0.863 z"
       id="path72"
       inkscape:connector-curvature="0"
       style="fill:#808080;fill-rule:evenodd" />
    <path
       d="m 114.564,112.414 c 0.333,0.606 0.553,1.12 0.491,1.146 -0.062,0.027 -0.383,-0.443 -0.717,-1.05 -0.334,-0.607 -0.553,-1.12 -0.491,-1.147 0.062,-0.027 0.383,0.444 0.717,1.05 z m -0.32,3.169 c 0,0.1 -1.284,0.183 -2.868,0.183 -1.584,0 -2.867,-0.082 -2.867,-0.183 0,-0.102 1.284,-0.184 2.867,-0.184 1.584,0 2.868,0.082 2.868,0.184 z m -9.42,-0.368 c 0,0.102 -0.918,0.184 -2.049,0.184 -1.131,0 -2.049,-0.082 -2.049,-0.184 0,-0.1 0.918,-0.183 2.049,-0.183 1.131,0 2.049,0.082 2.049,0.183 z"
       id="path74"
       inkscape:connector-curvature="0"
       style="fill:#808080;fill-rule:evenodd" />
    <path
       d="m 95.813,127.96 c 0,0 0.676,1.643 3.556,1.666 2.881,0.022 3.872,-0.493 2.707,-1.363 -1.165,-0.87 -3.333,-0.6 -3.053,0.151 0.28,0.751 -0.813,1.001 -1.07,0.473 -0.257,-0.527 -1.289,-2.09 0.567,-2.195 1.855,-0.105 5.784,-0.674 6.766,0.416 0.982,1.09 -1.11,2.078 0.472,2.31 1.582,0.23 1.807,-0.265 4.528,-0.414 2.722,-0.15 3.761,0.505 4.694,0.413 0.932,-0.09 0.8,-1.694 0.062,-2.1 -0.737,-0.407 -2.154,-0.482 -2.517,-0.928 -0.363,-0.446 -1.351,-0.083 -1.26,-0.587 0.093,-0.503 1.402,0.347 1.417,0.09 0,-0.008 0.216,-0.179 0.26,-0.222 -0.165,-0.038 -0.259,0.023 -0.383,0.089 0.135,-0.108 0.126,-0.157 0.171,-0.245 -0.023,-0.033 -0.186,0.124 -0.213,0.092 -0.028,-0.033 0.19,-0.257 0.09,-0.176 -0.033,0.024 -0.292,0.152 -0.295,0.064 0.004,-0.036 0.136,-0.128 0.09,-0.178 -0.038,-0.042 -0.235,0.048 -0.26,0.058 0.113,-0.15 0.105,-0.148 -0.004,-0.26 -0.094,-0.111 -0.163,-0.109 -0.317,0.017 0.064,-0.18 0.081,-0.219 -0.074,-0.287 -0.127,-0.07 -0.133,-0.135 -0.291,0.189 0.06,-0.347 -0.102,-0.362 -0.035,-0.526 0.04,-0.15 0.252,-0.214 0.6,-0.18 0.676,0.005 1.038,0.816 1.259,0.813 0.22,-0.002 0.468,-0.858 1.416,-0.51 0.948,0.347 1.065,0.417 1.542,0.624 0.477,0.206 -0.335,0.52 -0.063,0.927 0.273,0.407 2.134,1.764 1.605,3.18 -0.529,1.415 -1.892,1.64 -2.014,2.252 -0.122,0.613 4.314,0.362 5.445,0.568 1.13,0.206 1.843,1.05 1.888,1.192 0.046,0.142 -1.983,0.133 -1.983,0.133 0,0 -1.041,-0.538 -3.525,-0.587 -2.483,-0.049 -3.429,-1.05 -4.358,-1.176 -0.93,-0.126 -2.911,0.21 -4.018,0.16 -1.108,-0.049 -2.23,-0.224 -2.947,-0.321 -0.717,-0.098 -4.286,1.61 -4.274,2.009 -0.744,-0.029 -2.495,-0.124 -2.423,-0.076 0.072,0.047 0.314,-0.775 1.68,-0.92 1.365,-0.144 2.694,-0.798 2.65,-1.228 -0.044,-0.43 0.264,-1.904 0.378,-2.536 0.114,-0.632 0.625,-0.938 0.503,-1.268 -0.122,-0.331 -1.682,-0.672 -3.179,-0.663 -1.497,0.01 -3.157,0.094 -3.399,0.454 -0.24,0.361 -0.059,1.408 0.252,1.287 0.311,-0.12 -0.075,-0.805 0.252,-0.946 0.327,-0.14 1.165,-0.266 1.951,-0.284 0.787,-0.018 2.154,0.67 2.14,0.89 -0.014,0.22 0.44,0.952 -0.188,1.23 -0.63,0.279 -1.916,0.403 -3.148,0.34 -1.232,-0.061 -2.478,-0.485 -2.927,-0.756 -0.448,-0.272 -0.723,-1.098 -0.723,-1.155 z"
       id="path76"
       inkscape:connector-curvature="0"
       style="fill:#d0d0d0;fill-rule:evenodd;stroke:#808080;stroke-width:0.078" />
    <path
       d="m 114.053,125.53 a 0.329,0.329 0 1 1 -0.657,0 0.329,0.329 0 0 1 0.657,0 z"
       id="path78"
       inkscape:connector-curvature="0"
       style="fill-rule:evenodd" />
    <path
       d="m 129.51,120.77 1.595,0.344 2.665,-1.824 -0.206,0.958 -1.389,0.927 c -0.258,0.17 -0.514,0.326 -0.767,0.467 0.158,0.221 0.334,0.485 0.525,0.793 l 0.86,1.39 -0.198,0.917 -1.66,-2.84 -1.595,-0.345 z m -2.72,-11.73 3.086,-1.421 -0.838,-1.82 0.413,-0.191 2.017,4.38 -0.413,0.19 -0.842,-1.828 -3.086,1.421 z m -4.78,-5.81 2.841,-2.602 0.558,0.61 -0.073,4.398 2.23,-2.042 0.522,0.569 -2.841,2.602 -0.558,-0.61 0.075,-4.4 -2.233,2.044 -0.52,-0.569 z m -12.42,-5.016 0.466,-3.824 0.799,0.097 -0.411,3.373 2.974,0.362 -0.055,0.452 z m -6.11,0.548 -0.69,-3.79 0.793,-0.144 0.608,3.342 2.947,-0.536 0.082,0.448 z m -11.282,5.568 -0.283,-0.353 2.01,-1.613 0.894,1.116 a 5.69,5.69 0 0 1 -0.673,1.118 c -0.266,0.34 -0.572,0.65 -0.917,0.927 -0.466,0.373 -0.941,0.65 -1.424,0.83 -0.482,0.177 -0.916,0.224 -1.302,0.14 a 1.59,1.59 0 0 1 -0.934,-0.569 1.702,1.702 0 0 1 -0.367,-1.049 c -0.009,-0.41 0.119,-0.822 0.383,-1.235 0.264,-0.414 0.632,-0.81 1.106,-1.189 a 4.786,4.786 0 0 1 1.014,-0.637 c 0.335,-0.153 0.632,-0.23 0.89,-0.231 0.258,0 0.51,0.068 0.754,0.205 l -0.488,0.552 a 1.293,1.293 0 0 0 -0.555,-0.148 c -0.176,-0.003 -0.383,0.048 -0.621,0.153 a 3.203,3.203 0 0 0 -0.719,0.444 c -0.287,0.23 -0.512,0.457 -0.677,0.681 -0.166,0.222 -0.278,0.43 -0.335,0.625 -0.055,0.192 -0.075,0.37 -0.06,0.536 0.028,0.283 0.13,0.533 0.304,0.75 0.214,0.268 0.466,0.435 0.755,0.5 0.292,0.062 0.612,0.026 0.96,-0.11 0.349,-0.135 0.68,-0.329 0.993,-0.58 0.272,-0.217 0.512,-0.463 0.718,-0.735 0.206,-0.275 0.345,-0.504 0.42,-0.686 l -0.45,-0.56 z m -0.13,27.7 -3.141,2.23 -2.377,-3.346 0.371,-0.263 1.91,2.69 0.973,-0.69 -1.653,-2.329 0.37,-0.263 1.654,2.328 1.427,-1.013 z m -4.627,-5.01 c 0.447,-0.126 0.746,-0.414 0.897,-0.866 0.149,-0.453 0.143,-0.965 -0.02,-1.538 -0.164,-0.583 -0.429,-1.025 -0.794,-1.328 -0.367,-0.304 -0.788,-0.39 -1.266,-0.255 a 1.36,1.36 0 0 0 -0.72,0.466 c -0.18,0.224 -0.289,0.509 -0.324,0.855 -0.037,0.345 -0.002,0.71 0.107,1.096 0.155,0.548 0.408,0.987 0.76,1.316 0.348,0.327 0.802,0.412 1.36,0.254 z m 0.218,0.8 c -0.615,0.174 -1.17,0.05 -1.665,-0.375 -0.496,-0.423 -0.861,-1.047 -1.094,-1.872 -0.152,-0.54 -0.209,-1.051 -0.167,-1.531 0.042,-0.48 0.176,-0.875 0.405,-1.184 a 1.63,1.63 0 0 1 0.898,-0.624 c 0.375,-0.106 0.746,-0.081 1.11,0.074 0.364,0.156 0.686,0.432 0.963,0.828 0.276,0.397 0.485,0.849 0.629,1.357 0.156,0.552 0.21,1.068 0.164,1.55 -0.046,0.481 -0.183,0.875 -0.412,1.181 -0.229,0.306 -0.506,0.505 -0.83,0.597 z m 0.322,-7.82 -3.852,-0.087 0.061,-2.697 c 0.013,-0.542 0.057,-0.953 0.134,-1.234 0.074,-0.28 0.2,-0.503 0.38,-0.668 a 0.821,0.821 0 0 1 0.586,-0.24 c 0.273,0.006 0.5,0.151 0.682,0.435 0.18,0.284 0.29,0.718 0.328,1.302 0.07,-0.21 0.137,-0.371 0.203,-0.48 0.141,-0.232 0.317,-0.452 0.527,-0.657 l 1.072,-1.034 -0.023,1.012 -0.82,0.787 c -0.236,0.23 -0.417,0.42 -0.543,0.569 -0.126,0.149 -0.215,0.284 -0.267,0.404 -0.052,0.118 -0.088,0.24 -0.11,0.363 -0.015,0.092 -0.024,0.24 -0.029,0.447 l -0.021,0.934 1.71,0.04 z m -2.134,-0.853 0.04,-1.731 a 4.067,4.067 0 0 0 -0.052,-0.864 c -0.044,-0.209 -0.118,-0.368 -0.22,-0.478 a 0.48,0.48 0 0 0 -0.344,-0.17 c -0.182,-0.004 -0.334,0.098 -0.456,0.306 -0.122,0.204 -0.188,0.531 -0.198,0.982 l -0.044,1.926 z M 96.55,102.2 l 0.026,-4.505 0.745,-0.446 4.115,2.027 -0.787,0.47 -1.208,-0.636 -2.183,1.307 0.026,1.344 z m 0.694,-2.259 1.77,-1.059 -1.093,-0.59 a 8.264,8.264 0 0 1 -0.78,-0.463 c 0.06,0.251 0.092,0.518 0.096,0.8 z m 18.606,-1.207 4.157,-1.738 0.7,0.51 -0.255,4.58 -0.741,-0.54 0.113,-1.36 -2.056,-1.498 -1.227,0.55 z m 2.35,-0.245 1.667,1.215 0.115,-1.237 a 8.44,8.44 0 0 1 0.122,-0.9 3.692,3.692 0 0 1 -0.698,0.402 l -1.205,0.52 z m 10.3,14.341 3.747,-0.897 0.628,2.624 c 0.126,0.527 0.188,0.936 0.185,1.227 0,0.29 -0.067,0.538 -0.198,0.743 a 0.82,0.82 0 0 1 -0.506,0.381 c -0.265,0.064 -0.522,-0.019 -0.77,-0.247 -0.247,-0.228 -0.463,-0.62 -0.648,-1.176 a 2.463,2.463 0 0 1 -0.074,0.517 c -0.078,0.26 -0.192,0.517 -0.343,0.769 l -0.773,1.273 -0.236,-0.984 0.592,-0.97 c 0.17,-0.282 0.297,-0.512 0.382,-0.688 0.083,-0.177 0.135,-0.33 0.154,-0.46 0.02,-0.127 0.025,-0.253 0.015,-0.379 a 3.717,3.717 0 0 0 -0.087,-0.44 l -0.217,-0.908 -1.664,0.398 z m 2.28,0.282 0.403,1.683 c 0.086,0.358 0.176,0.632 0.27,0.823 0.096,0.19 0.208,0.326 0.335,0.406 0.13,0.08 0.254,0.106 0.375,0.077 0.177,-0.043 0.298,-0.18 0.364,-0.411 0.066,-0.23 0.046,-0.563 -0.059,-1.002 l -0.448,-1.872 z"
       id="path80"
       inkscape:connector-curvature="0"
       style="fill:#d0d0d0" />
  </g>
</svg>
