<?xml version="1.0" encoding="UTF-8" standalone="no"?>
<svg
   xmlns:dc="http://purl.org/dc/elements/1.1/"
   xmlns:cc="http://creativecommons.org/ns#"
   xmlns:rdf="http://www.w3.org/1999/02/22-rdf-syntax-ns#"
   xmlns:svg="http://www.w3.org/2000/svg"
   xmlns="http://www.w3.org/2000/svg"
   xmlns:sodipodi="http://sodipodi.sourceforge.net/DTD/sodipodi-0.dtd"
   xmlns:inkscape="http://www.inkscape.org/namespaces/inkscape"
   height="16"
   width="21.333437"
   viewBox="0 0 21.333437 16"
   version="1.1"
   id="svg33"
   sodipodi:docname="mz.svg"
   inkscape:version="0.92.1 r">
  <metadata
     id="metadata37">
    <rdf:RDF>
      <cc:Work
         rdf:about="">
        <dc:format>image/svg+xml</dc:format>
        <dc:type
           rdf:resource="http://purl.org/dc/dcmitype/StillImage" />
        <dc:title></dc:title>
      </cc:Work>
    </rdf:RDF>
  </metadata>
  <sodipodi:namedview
     pagecolor="#ffffff"
     bordercolor="#666666"
     borderopacity="1"
     objecttolerance="10"
     gridtolerance="10"
     guidetolerance="10"
     inkscape:pageopacity="0"
     inkscape:pageshadow="2"
     inkscape:window-width="1920"
     inkscape:window-height="1024"
     id="namedview35"
     showgrid="false"
     fit-margin-top="0"
     fit-margin-left="0"
     fit-margin-right="0"
     fit-margin-bottom="0"
     inkscape:zoom="0.49166667"
     inkscape:cx="320"
     inkscape:cy="240"
     inkscape:window-x="0"
     inkscape:window-y="0"
     inkscape:window-maximized="1"
     inkscape:current-layer="svg33" />
  <defs
     id="defs5">
    <clipPath
       id="a">
      <path
         d="M 0,0 H 682.67 V 512 H 0 Z"
         id="path2"
         inkscape:connector-curvature="0"
         style="fill-opacity:0.67000002" />
    </clipPath>
  </defs>
  <g
     clip-path="url(#a)"
     transform="scale(0.03125)"
     id="g31">
    <path
       d="M 0,0 H 768 V 160 H 0 Z"
       id="path7"
       inkscape:connector-curvature="0"
       style="fill:#009a00;fill-rule:evenodd" />
    <path
       d="m 0,159.96 h 768 v 16.018 H 0 Z"
       id="path9"
       inkscape:connector-curvature="0"
       style="fill:#ffffff;fill-rule:evenodd" />
    <path
       d="m 0,175.98 h 768 v 160 H 0 Z"
       id="path11"
       inkscape:connector-curvature="0"
       style="fill-rule:evenodd" />
    <path
       d="m 0,335.98 h 768 v 16.018 H 0 Z"
       id="path13"
       inkscape:connector-curvature="0"
       style="fill:#ffffff;fill-rule:evenodd" />
    <path
       d="M 0,352 H 768 V 512 H 0 Z"
       id="path15"
       inkscape:connector-curvature="0"
       style="fill:#ffca00;fill-rule:evenodd" />
    <path
       d="M 0,0 V 512 L 336.02,256 Z"
       id="path17"
       inkscape:connector-curvature="0"
       style="fill:#ff0000;fill-rule:evenodd" />
    <path
       d="m 198.532,332.966 -51.23,-37.505 -51.163,37.514 19.841,-60.31 -51.49,-37.066 63.493,0.235 19.336,-60.424 19.397,60.46 63.442,-0.29 -51.506,37.13 z"
       id="path19"
       inkscape:connector-curvature="0"
       style="fill:#ffca00;fill-rule:evenodd" />
    <path
       d="m 102.837,290.905 h 36.905 c 2.969,3.331 9.594,4.69 15.904,-0.04 11.567,-6.334 33.945,0.04 33.945,0.04 l 4.407,-4.682 -10.742,-35.252 -3.856,-4.131 c 0,0 -8.261,-4.957 -23.96,-3.305 -15.698,1.653 -21.207,-0.55 -21.207,-0.55 0,0 -13.77,1.652 -17.625,3.58 -0.424,0.343 -4.407,4.406 -4.407,4.406 z"
       id="path21"
       inkscape:connector-curvature="0"
       style="fill:#ffffff;fill-rule:evenodd;stroke:#000000;stroke-width:1.10271251;stroke-linecap:round;stroke-linejoin:round" />
    <path
       d="m 110.274,281.819 c 0,0 35.251,-4.407 45.442,9.088 -5.755,3.938 -10.823,4.263 -16.25,0.276 0.865,-1.44 12.67,-13.77 42.689,-9.64"
       id="path23"
       inkscape:connector-curvature="0"
       style="fill:none;stroke:#000000;stroke-width:1.10271251;stroke-linecap:round;stroke-linejoin:round" />
    <path
       d="m 148.002,246.567 -0.273,38.833 m 31.67,-38.286 6.61,30.846"
       id="path25"
       inkscape:connector-curvature="0"
       style="fill:none;stroke:#000000;stroke-width:0.88217005pt" />
    <path
       d="m 116.971,246.63 -3.668,15.906"
       id="path27"
       inkscape:connector-curvature="0"
       style="fill:none;stroke:#000000;stroke-width:1.10271251;stroke-linecap:round;stroke-linejoin:round" />
    <path
       d="m 78.868,295.14 8.68,10.175 c 1.018,0.608 1.924,0.57 2.829,0 l 12.862,-15.434 5.402,-6.689 c 0.837,-0.99 1.104,-2.096 1.03,-3.086 l 10.327,-9.178 c 0.845,0.059 1.348,0.154 2.193,0.211 -0.998,-0.258 -1.73,-0.744 -0.945,-1.838 l 2.315,-1.8 1.8,2.314 c 0,0 -2.571,3.344 -2.829,3.344 h -2.83 l -5.402,4.889 2.362,2.087 3.555,9.746 4.374,-3.088 -2.83,-10.032 6.174,-6.688 -2.316,-3.602 1.544,-2.058 c 0,0 21.368,13.453 29.6,9.852 0.223,0.08 0.498,-9.595 0.498,-9.595 0,0 -22.123,-2.315 -22.638,-6.688 -0.515,-4.373 4.888,-4.888 4.888,-4.888 l -2.316,-3.344 0.515,-1.801 3.859,4.888 8.747,-7.46 51.449,58.652 c 2.809,-1.139 3.408,-1.826 3.602,-4.63 -0.073,-0.07 -50.42,-57.881 -50.42,-57.881 l 3.858,-4.116 c 0.76,-0.857 1.027,-1.221 1.028,-2.573 l 5.917,-5.144 c 1.78,0.61 2.914,1.677 3.859,3.086 l 16.266,-13.786 c 0.429,0.43 1.73,0.858 2.615,0.376 l 26.888,-25.816 -29.305,20.703 -1.033,-0.772 c 0,-0.858 1.064,-1.07 0,-2.573 -1.138,-1.366 -2.83,1.286 -3.086,1.286 -0.258,0 -4.243,-1.408 -5.116,-3.192 l -0.287,4.736 -7.46,6.946 -5.66,-0.258 -8.232,7.975 -1.028,3.087 1.286,2.573 c 0,0 -4.374,3.859 -4.374,3.601 0,-0.257 -0.884,-1.137 -0.922,-1.25 l 3.752,-3.38 0.514,-2.316 -1.251,-1.954 c -0.38,0.275 -5.18,5.299 -5.437,4.784 -0.432,-0.477 -13.894,-15.69 -13.894,-15.69 l 0.77,-2.83 -8.745,-9.519 c -3.189,-1.1 -8.232,-1.286 -9.261,5.66 -0.801,1.631 -7.46,0.257 -7.46,0.257 l -3.602,0.772 -20.322,28.811 11.319,13.634 23.152,-29.326 0.688,-8.308 4.857,5.432 c 1.62,0.208 3.163,0.227 4.631,-0.514 l 13.717,15.31 -2.284,2.229 c 0.772,0.858 1.303,1.405 2.075,2.263 0.772,-0.514 1.508,-1.132 2.28,-1.647 0.258,0.344 0.686,0.996 0.944,1.339 -1.15,0.625 -1.956,1.458 -3.105,2.084 -1.84,-1.2 -3.615,-2.692 -3.48,-5.068 l -7.718,6.431 -0.257,1.287 -22.895,19.036 -2.058,0.258 -0.515,5.916 14.92,-12.347 v -1.802 l 1.544,1.286 11.576,-9.26 c 0,0 0.772,1.029 0.515,1.029 -0.257,0 -10.29,9.26 -10.29,9.26 l -0.257,1.03 -1.801,1.543 -1.03,-0.772 -13.89,12.348 h -2.059 l -7.717,7.718 c -1.99,0.173 -3.715,0.384 -5.402,1.543 L 78.86,295.14 Z"
       id="path29"
       inkscape:connector-curvature="0"
       style="fill-rule:evenodd;stroke:#000000;stroke-width:1.10271251;stroke-linecap:round;stroke-linejoin:round" />
  </g>
</svg>
