<?xml version="1.0" encoding="UTF-8" standalone="no"?>
<svg
   xmlns:dc="http://purl.org/dc/elements/1.1/"
   xmlns:cc="http://creativecommons.org/ns#"
   xmlns:rdf="http://www.w3.org/1999/02/22-rdf-syntax-ns#"
   xmlns:svg="http://www.w3.org/2000/svg"
   xmlns="http://www.w3.org/2000/svg"
   xmlns:sodipodi="http://sodipodi.sourceforge.net/DTD/sodipodi-0.dtd"
   xmlns:inkscape="http://www.inkscape.org/namespaces/inkscape"
   height="15.999998"
   width="21.333332"
   viewBox="0 0 21.333332 15.999998"
   version="1.1"
   id="svg25"
   sodipodi:docname="na.svg"
   inkscape:version="0.92.1 r">
  <metadata
     id="metadata29">
    <rdf:RDF>
      <cc:Work
         rdf:about="">
        <dc:format>image/svg+xml</dc:format>
        <dc:type
           rdf:resource="http://purl.org/dc/dcmitype/StillImage" />
        <dc:title></dc:title>
      </cc:Work>
    </rdf:RDF>
  </metadata>
  <sodipodi:namedview
     pagecolor="#ffffff"
     bordercolor="#666666"
     borderopacity="1"
     objecttolerance="10"
     gridtolerance="10"
     guidetolerance="10"
     inkscape:pageopacity="0"
     inkscape:pageshadow="2"
     inkscape:window-width="1920"
     inkscape:window-height="1024"
     id="namedview27"
     showgrid="false"
     fit-margin-top="0"
     fit-margin-left="0"
     fit-margin-right="0"
     fit-margin-bottom="0"
     inkscape:zoom="0.49166667"
     inkscape:cx="320"
     inkscape:cy="240"
     inkscape:window-x="0"
     inkscape:window-y="0"
     inkscape:window-maximized="1"
     inkscape:current-layer="svg25" />
  <defs
     id="defs5">
    <clipPath
       id="a">
      <path
         d="M 0,0 H 640 V 480 H 0 Z"
         id="path2"
         inkscape:connector-curvature="0"
         style="fill-opacity:0.67000002" />
    </clipPath>
  </defs>
  <g
     clip-path="url(#a)"
     id="g23"
     transform="scale(0.03333333)"
     style="fill-rule:evenodd">
    <path
       d="M 0,0 H 640 V 480 H 0 Z"
       id="path7"
       inkscape:connector-curvature="0"
       style="fill:#ffffff" />
    <path
       d="M -26.374,0.224 -25.571,345.767 512.535,0 -26.378,0.222 Z"
       id="path9"
       inkscape:connector-curvature="0"
       style="fill:#3662a2" />
    <path
       d="m 666.37,479.56 -1.262,-359.298 -542.793,359.57 544.059,-0.266 z"
       id="path11"
       inkscape:connector-curvature="0"
       style="fill:#38a100" />
    <path
       d="M -26.028,371.822 -25.57,480 91.851,479.85 665.375,95.344 664.729,1.294 548.704,0.224 -26.031,371.82 Z"
       id="path13"
       inkscape:connector-curvature="0"
       style="fill:#c70000" />
    <g
       id="g21">
      <path
         d="m 219.556,171.927 -21.733,-13.122 -12.575,22.103 -12.235,-22.246 -21.93,12.883 0.536,-25.406 -25.413,0.198 13.167,-21.759 -22.082,-12.531 22.27,-12.278 -12.837,-21.907 25.405,0.487 -0.15,-25.41 21.734,13.125 12.575,-22.106 12.235,22.246 21.93,-12.88 -0.536,25.407 25.41,-0.201 -13.165,21.76 22.08,12.532 -22.27,12.278 12.84,21.906 -25.405,-0.488 z"
         id="path15"
         inkscape:connector-curvature="0"
         style="fill:#ffe700" />
      <path
         d="m 232.384,112.437 c 0,25.544 -20.87,46.252 -46.613,46.252 -25.743,0 -46.614,-20.708 -46.614,-46.252 0,-25.544 20.87,-46.253 46.614,-46.253 25.744,0 46.613,20.708 46.613,46.253 z"
         id="path17"
         inkscape:connector-curvature="0"
         style="fill:#3662a2" />
      <path
         d="m 222.267,112.437 c 0,20.156 -16.34,36.496 -36.496,36.496 -20.156,0 -36.497,-16.34 -36.497,-36.496 0,-20.156 16.34,-36.497 36.497,-36.497 20.157,0 36.496,16.34 36.496,36.497 z"
         id="path19"
         inkscape:connector-curvature="0"
         style="fill:#ffe700" />
    </g>
  </g>
</svg>
