<?xml version="1.0" encoding="UTF-8" standalone="no"?>
<svg
   xmlns:dc="http://purl.org/dc/elements/1.1/"
   xmlns:cc="http://creativecommons.org/ns#"
   xmlns:rdf="http://www.w3.org/1999/02/22-rdf-syntax-ns#"
   xmlns:svg="http://www.w3.org/2000/svg"
   xmlns="http://www.w3.org/2000/svg"
   xmlns:sodipodi="http://sodipodi.sourceforge.net/DTD/sodipodi-0.dtd"
   xmlns:inkscape="http://www.inkscape.org/namespaces/inkscape"
   height="16.000004"
   width="21.333319"
   viewBox="0 0 21.333319 16.000004"
   version="1.1"
   id="svg17"
   sodipodi:docname="np.svg"
   inkscape:version="0.92.1 r">
  <metadata
     id="metadata21">
    <rdf:RDF>
      <cc:Work
         rdf:about="">
        <dc:format>image/svg+xml</dc:format>
        <dc:type
           rdf:resource="http://purl.org/dc/dcmitype/StillImage" />
        <dc:title></dc:title>
      </cc:Work>
    </rdf:RDF>
  </metadata>
  <sodipodi:namedview
     pagecolor="#ffffff"
     bordercolor="#666666"
     borderopacity="1"
     objecttolerance="10"
     gridtolerance="10"
     guidetolerance="10"
     inkscape:pageopacity="0"
     inkscape:pageshadow="2"
     inkscape:window-width="1920"
     inkscape:window-height="1024"
     id="namedview19"
     showgrid="false"
     fit-margin-top="0"
     fit-margin-left="0"
     fit-margin-right="0"
     fit-margin-bottom="0"
     inkscape:zoom="0.49166667"
     inkscape:cx="320"
     inkscape:cy="240.00031"
     inkscape:window-x="0"
     inkscape:window-y="0"
     inkscape:window-maximized="1"
     inkscape:current-layer="svg17" />
  <defs
     id="defs5">
    <clipPath
       id="a">
      <path
         d="m 0,-15.957 h 512 v 512 H 0 Z"
         id="path2"
         inkscape:connector-curvature="0"
         style="fill-opacity:0.67000002" />
    </clipPath>
  </defs>
  <path
     d="M 0,0 H 21.333319 V 15.99999 H 0 Z"
     id="path7"
     inkscape:connector-curvature="0"
     style="fill:#ffffff;stroke-width:0.03333331" />
  <g
     clip-path="url(#a)"
     transform="matrix(0.03124998,0,0,0.03124998,0,0.49867)"
     id="g15">
    <g
       id="g13"
       style="fill-rule:evenodd">
      <path
         d="M 6.54,489.54 385.326,489.53 137.399,238.11 394.662,238.412 6.561,-9.474 Z"
         id="path9"
         inkscape:connector-curvature="0"
         style="fill:#ce0000;stroke:#000063;stroke-width:13.83283234" />
      <path
         d="m 180.737,355.803 -26.986,8.936 21.11,19.862 -28.438,-1.827 11.716,26.232 -25.549,-12.29 0.526,28.597 -18.786,-20.9 -10.741,26.632 -9.15,-26.32 -20.365,20.588 1.861,-27.734 -26.884,11.427 12.602,-24.918 -29.335,0.513 21.43,-18.322 -27.295,-10.476 26.987,-8.923 -21.122,-19.862 28.436,1.815 -11.703,-26.22 25.55,12.29 -0.527,-28.61 18.787,20.901 10.728,-26.62 9.162,26.32 20.365,-20.6 -1.873,27.734 26.896,-11.414 -12.601,24.917 29.322,-0.513 -21.43,18.323 z m -32.417,-184.678 -11.33,8.387 5.584,4.614 c 13.561,-10.482 23.211,-20.062 30.753,-35.96 1.769,21.22 -17.683,68.855 -68.73,69.381 -54.633,-0.046 -73.59,-50.587 -71.482,-70.276 10.037,18.209 16.161,27.088 31.916,36.568 l 4.82,-4.424 -10.671,-8.891 13.737,-3.572 -7.39,-12.44 14.391,1.05 -1.808,-14.486 12.616,7.383 3.948,-13.484 9.065,10.86 8.491,-10.296 4.624,13.99 11.79,-8.203 -1.512,14.228 14.133,-1.659 -6.626,13.153 13.682,4.077 z"
         id="path11"
         inkscape:connector-curvature="0"
         style="fill:#ffffff" />
    </g>
  </g>
</svg>
