<?xml version="1.0" encoding="UTF-8" standalone="no"?>
<svg
   xmlns:dc="http://purl.org/dc/elements/1.1/"
   xmlns:cc="http://creativecommons.org/ns#"
   xmlns:rdf="http://www.w3.org/1999/02/22-rdf-syntax-ns#"
   xmlns:svg="http://www.w3.org/2000/svg"
   xmlns="http://www.w3.org/2000/svg"
   xmlns:sodipodi="http://sodipodi.sourceforge.net/DTD/sodipodi-0.dtd"
   xmlns:inkscape="http://www.inkscape.org/namespaces/inkscape"
   height="15.999998"
   width="21.333332"
   viewBox="0 0 21.333332 15.999998"
   version="1.1"
   id="svg223"
   sodipodi:docname="om.svg"
   inkscape:version="0.92.1 r">
  <metadata
     id="metadata227">
    <rdf:RDF>
      <cc:Work
         rdf:about="">
        <dc:format>image/svg+xml</dc:format>
        <dc:type
           rdf:resource="http://purl.org/dc/dcmitype/StillImage" />
        <dc:title></dc:title>
      </cc:Work>
    </rdf:RDF>
  </metadata>
  <sodipodi:namedview
     pagecolor="#ffffff"
     bordercolor="#666666"
     borderopacity="1"
     objecttolerance="10"
     gridtolerance="10"
     guidetolerance="10"
     inkscape:pageopacity="0"
     inkscape:pageshadow="2"
     inkscape:window-width="1920"
     inkscape:window-height="1024"
     id="namedview225"
     showgrid="false"
     fit-margin-top="0"
     fit-margin-left="0"
     fit-margin-right="0"
     fit-margin-bottom="0"
     inkscape:zoom="0.49166667"
     inkscape:cx="320"
     inkscape:cy="240"
     inkscape:window-x="0"
     inkscape:window-y="0"
     inkscape:window-maximized="1"
     inkscape:current-layer="svg223" />
  <defs
     id="defs5">
    <clipPath
       id="a">
      <path
         d="M 0,0 H 640 V 480 H 0 Z"
         id="path2"
         inkscape:connector-curvature="0"
         style="fill-opacity:0.67000002" />
    </clipPath>
  </defs>
  <g
     clip-path="url(#a)"
     id="g221"
     transform="scale(0.03333333)">
    <path
       d="m -3.299,-21.609 h 702.27 v 553.02 H -3.299 Z"
       id="path7"
       inkscape:connector-curvature="0"
       style="fill:#ef2d29;fill-rule:evenodd" />
    <path
       d="M 174.57,317.33 H 710.33 V 524.89 H 174.57 Z"
       id="path9"
       inkscape:connector-curvature="0"
       style="fill:#009025;fill-rule:evenodd" />
    <path
       d="m 174.57,-35.415 h 564.88 v 190.08 H 174.57 Z"
       id="path11"
       inkscape:connector-curvature="0"
       style="fill:#ffffff;fill-rule:evenodd" />
    <g
       id="g219"
       style="stroke:#ef2d28;stroke-width:0.98299998">
      <g
         transform="matrix(0.19848,0,0,0.17744,111.26,-13.444)"
         id="g29"
         style="fill:#ffffff;fill-rule:evenodd">
        <rect
           rx="11.298"
           ry="11.851"
           height="85.039001"
           width="138.19"
           y="467.72"
           x="17.716999"
           id="rect13"
           style="stroke-width:1.40600002" />
        <rect
           rx="10.719"
           ry="10.864"
           height="77.953003"
           width="131.10001"
           y="471.26001"
           x="21.26"
           id="rect15"
           style="stroke-width:1.31099999" />
        <path
           d="m 64.966,396.07 9.723,0.443 0.442,5.745 7.955,5.303 6.187,-6.629 7.513,5.303 -7.07,5.746 1.767,7.955 8.838,-0.442 v 10.607 l -7.07,-0.442 -3.536,6.629 7.955,7.513 -6.187,6.187 -6.63,-6.629 -9.722,2.652 0.442,9.723 -10.607,0.884 -1.326,-9.281 -8.839,-4.862 -4.861,6.629 -7.514,-4.861 4.42,-7.513 -5.304,-4.862 H 34.03 l -0.442,-13.7 7.513,0.884 5.304,-7.955 -6.187,-6.187 7.955,-7.071 5.745,5.745 9.723,-1.768 1.326,-5.746 z"
           transform="matrix(0.68108,0,0,0.5852,37.972,260.74)"
           id="path17"
           inkscape:connector-curvature="0"
           style="stroke-width:1.31099999" />
        <ellipse
           transform="matrix(0.65819,0,0,0.70224,38.845,209.62)"
           cx="68.944"
           rx="11.049"
           cy="426.78"
           ry="9.9440002"
           id="ellipse19"
           style="stroke-width:1.31099999" />
        <g
           id="g23"
           style="stroke-width:1.31099999">
          <path
             d="m 38.976,474.8 -10.63,10.63 m 17.717,-10.63 -10.63,10.63 m 17.716,-10.63 -10.63,10.63 m 17.717,-10.63 -10.63,10.63 m 17.716,-10.63 -10.63,10.63 m 17.717,-10.63 -10.63,10.63 m 17.717,-10.63 -10.63,10.63 m 17.716,-10.63 -10.63,10.63 m 17.717,-10.63 -10.63,10.63 m 17.716,-10.63 -10.63,10.63 m 17.717,-10.63 -10.63,10.63 m 17.717,-10.63 -10.63,10.63 M 88.582,474.8 77.952,485.43 m 46.063,-10.63 -10.63,10.63 m 17.717,-10.63 -10.63,10.63 m 17.717,-10.63 -10.63,10.63 m 17.717,-10.63 -10.63,10.63 m -0.002,-10.63 10.63,10.63 m -17.71,-10.63 10.63,10.63 m -17.72,-10.63 10.63,10.63 m -17.72,-10.63 10.63,10.63 m -17.71,-10.63 10.63,10.63 m -17.72,-10.63 10.63,10.63 m -17.72,-10.63 10.63,10.63 m -17.71,-10.63 10.63,10.63 m -17.72,-10.63 10.63,10.63 m -17.72,-10.63 10.63,10.63 m -17.71,-10.63 10.63,10.63 m -17.721,-10.63 10.63,10.63 m 17.721,-10.63 10.63,10.63 M 49.607,474.8 60.237,485.43 M 42.52,474.8 53.15,485.43 m -17.716,-10.63 10.63,10.63 m -17.717,-10.63 10.63,10.63"
             id="path21"
             inkscape:connector-curvature="0" />
        </g>
        <g
           id="g27"
           style="stroke-width:1.31099999">
          <path
             d="m 38.976,535.036 -10.63,10.63 m 17.717,-10.63 -10.63,10.63 m 17.716,-10.63 -10.63,10.63 m 17.717,-10.63 -10.63,10.63 m 17.716,-10.63 -10.63,10.63 m 17.717,-10.63 -10.63,10.63 m 17.717,-10.63 -10.63,10.63 m 17.716,-10.63 -10.63,10.63 m 17.717,-10.63 -10.63,10.63 m 17.716,-10.63 -10.63,10.63 m 17.717,-10.63 -10.63,10.63 m 17.717,-10.63 -10.63,10.63 m -17.717,-10.63 -10.63,10.63 m 46.063,-10.63 -10.63,10.63 m 17.717,-10.63 -10.63,10.63 m 17.717,-10.63 -10.63,10.63 m 17.717,-10.63 -10.63,10.63 m -0.002,-10.63 10.63,10.63 m -17.71,-10.63 10.63,10.63 m -17.72,-10.63 10.63,10.63 m -17.72,-10.63 10.63,10.63 m -17.71,-10.63 10.63,10.63 m -17.72,-10.63 10.63,10.63 m -17.72,-10.63 10.63,10.63 m -17.71,-10.63 10.63,10.63 m -17.72,-10.63 10.63,10.63 m -17.72,-10.63 10.63,10.63 m -17.71,-10.63 10.63,10.63 m -17.721,-10.63 10.63,10.63 m 17.721,-10.63 10.63,10.63 m -46.067,-10.63 10.63,10.63 m -17.717,-10.63 10.63,10.63 m -17.716,-10.63 10.63,10.63 m -17.717,-10.63 10.63,10.63"
             id="path25"
             inkscape:connector-curvature="0" />
        </g>
      </g>
      <g
         transform="matrix(0.19848,0,0,0.17744,19.131,-14.073)"
         id="g47"
         style="fill:#ffffff;fill-rule:evenodd">
        <rect
           rx="11.298"
           ry="11.851"
           height="85.039001"
           width="138.19"
           y="467.72"
           x="17.716999"
           id="rect31"
           style="stroke-width:1.40600002" />
        <rect
           rx="10.719"
           ry="10.864"
           height="77.953003"
           width="131.10001"
           y="471.26001"
           x="21.26"
           id="rect33"
           style="stroke-width:1.31099999" />
        <path
           d="m 64.966,396.07 9.723,0.443 0.442,5.745 7.955,5.303 6.187,-6.629 7.513,5.303 -7.07,5.746 1.767,7.955 8.838,-0.442 v 10.607 l -7.07,-0.442 -3.536,6.629 7.955,7.513 -6.187,6.187 -6.63,-6.629 -9.722,2.652 0.442,9.723 -10.607,0.884 -1.326,-9.281 -8.839,-4.862 -4.861,6.629 -7.514,-4.861 4.42,-7.513 -5.304,-4.862 H 34.03 l -0.442,-13.7 7.513,0.884 5.304,-7.955 -6.187,-6.187 7.955,-7.071 5.745,5.745 9.723,-1.768 1.326,-5.746 z"
           transform="matrix(0.68108,0,0,0.5852,37.972,260.74)"
           id="path35"
           inkscape:connector-curvature="0"
           style="stroke-width:1.31099999" />
        <ellipse
           transform="matrix(0.65819,0,0,0.70224,38.845,209.62)"
           cx="68.944"
           rx="11.049"
           cy="426.78"
           ry="9.9440002"
           id="ellipse37"
           style="stroke-width:1.31099999" />
        <g
           id="g41"
           style="stroke-width:1.31099999">
          <path
             d="m 38.976,474.8 -10.63,10.63 m 17.717,-10.63 -10.63,10.63 m 17.716,-10.63 -10.63,10.63 m 17.717,-10.63 -10.63,10.63 m 17.716,-10.63 -10.63,10.63 m 17.717,-10.63 -10.63,10.63 m 17.717,-10.63 -10.63,10.63 m 17.716,-10.63 -10.63,10.63 m 17.717,-10.63 -10.63,10.63 m 17.716,-10.63 -10.63,10.63 m 17.717,-10.63 -10.63,10.63 m 17.717,-10.63 -10.63,10.63 M 88.582,474.8 77.952,485.43 m 46.063,-10.63 -10.63,10.63 m 17.717,-10.63 -10.63,10.63 m 17.717,-10.63 -10.63,10.63 m 17.717,-10.63 -10.63,10.63 m -0.002,-10.63 10.63,10.63 m -17.71,-10.63 10.63,10.63 m -17.72,-10.63 10.63,10.63 m -17.72,-10.63 10.63,10.63 m -17.71,-10.63 10.63,10.63 m -17.72,-10.63 10.63,10.63 m -17.72,-10.63 10.63,10.63 m -17.71,-10.63 10.63,10.63 m -17.72,-10.63 10.63,10.63 m -17.72,-10.63 10.63,10.63 m -17.71,-10.63 10.63,10.63 m -17.721,-10.63 10.63,10.63 m 17.721,-10.63 10.63,10.63 M 49.607,474.8 60.237,485.43 M 42.52,474.8 53.15,485.43 m -17.716,-10.63 10.63,10.63 m -17.717,-10.63 10.63,10.63"
             id="path39"
             inkscape:connector-curvature="0" />
        </g>
        <g
           id="g45"
           style="stroke-width:1.31099999">
          <path
             d="m 38.976,535.036 -10.63,10.63 m 17.717,-10.63 -10.63,10.63 m 17.716,-10.63 -10.63,10.63 m 17.717,-10.63 -10.63,10.63 m 17.716,-10.63 -10.63,10.63 m 17.717,-10.63 -10.63,10.63 m 17.717,-10.63 -10.63,10.63 m 17.716,-10.63 -10.63,10.63 m 17.717,-10.63 -10.63,10.63 m 17.716,-10.63 -10.63,10.63 m 17.717,-10.63 -10.63,10.63 m 17.717,-10.63 -10.63,10.63 m -17.717,-10.63 -10.63,10.63 m 46.063,-10.63 -10.63,10.63 m 17.717,-10.63 -10.63,10.63 m 17.717,-10.63 -10.63,10.63 m 17.717,-10.63 -10.63,10.63 m -0.002,-10.63 10.63,10.63 m -17.71,-10.63 10.63,10.63 m -17.72,-10.63 10.63,10.63 m -17.72,-10.63 10.63,10.63 m -17.71,-10.63 10.63,10.63 m -17.72,-10.63 10.63,10.63 m -17.72,-10.63 10.63,10.63 m -17.71,-10.63 10.63,10.63 m -17.72,-10.63 10.63,10.63 m -17.72,-10.63 10.63,10.63 m -17.71,-10.63 10.63,10.63 m -17.721,-10.63 10.63,10.63 m 17.721,-10.63 10.63,10.63 m -46.067,-10.63 10.63,10.63 m -17.717,-10.63 10.63,10.63 m -17.716,-10.63 10.63,10.63 m -17.717,-10.63 10.63,10.63"
             id="path43"
             inkscape:connector-curvature="0" />
        </g>
      </g>
      <path
         d="m 538.58,531.5 c 1.717,166.56 24.803,201.97 3.543,201.97 -21.26,0 -31.89,-92.07 -31.89,-205.51 0,-113.44 14.173,-205.51 35.433,-205.51 21.26,0 -8.913,31.909 -7.086,209.06 z"
         transform="matrix(-0.32136,-0.12684,-0.20158,0.20221,345.89,61.391)"
         id="path49"
         inkscape:connector-curvature="0"
         style="fill:#ffffff;fill-rule:evenodd;stroke-width:1.31099999" />
      <path
         d="m 545.67,779.53 -60.236,17.716 c 56.693,60.236 120.47,85.039 138.19,74.409 17.717,-10.629 -31.89,-35.433 -77.953,-92.125 z"
         transform="matrix(-0.19848,0,0,0.17744,145.247,-13.446)"
         id="path51"
         inkscape:connector-curvature="0"
         style="fill:#ffffff;fill-rule:evenodd;stroke-width:1.22899997" />
      <path
         d="m 547.27,786.9 -50.926,14.74 c 56.693,60.236 112.77,77.385 127.28,70.015 14.591,-7.37 -30.287,-28.063 -76.35,-84.755 z"
         transform="matrix(-0.19334,0,0,0.17062,142.75,-8.126)"
         id="path53"
         inkscape:connector-curvature="0"
         style="fill:#ffffff;fill-rule:evenodd;stroke-width:1.26999998" />
      <path
         d="m 353.13,634.23 c 0.187,1.273 0.748,7.068 1.25,9.375 0,3.186 0.288,5.632 0.625,8.125 0.796,2.177 0.661,4.198 3.125,5.001 1.694,2.631 2.76,3.313 5,4.375 1.527,1.323 3.84,2.642 6.25,3.75 2.499,1.071 4.771,1.218 7.5,0.625 2.19,-1.526 3.804,-3.1 5.625,-4.375 0.429,-1.973 0.822,-4.903 1.25,-6.875 -0.674,2.024 -1.147,5.265 -1.25,8.125 0.24,3.12 1.265,4.481 2.5,6.875"
         transform="matrix(-0.13978,0,0,0.12414,123.027,20.362)"
         id="path55"
         inkscape:connector-curvature="0"
         style="fill:none;stroke-width:1.75100005" />
      <path
         d="m 389.38,681.73 0.625,-0.625 c -1.484,1.484 -0.878,0.776 2.5,-1.25 2.426,-1.246 5.015,-1.908 8.125,-2.5 h 8.75 c 3.405,0 5.696,0.511 8.125,1.25 1.762,1.762 4.393,2.763 6.25,4.375 1.905,1.295 2.722,2.829 3.75,5 1.701,1.701 2.803,4.326 4.375,5.625 0.704,2.871 2.141,2.773 3.125,5 -2.948,0.227 -5.311,0.631 -6.875,2.5 -2.597,1.344 2.179,-1.317 3.125,-2.5 2.046,-0.618 2.576,-1.25 5.625,-1.25 2.85,-0.904 4.579,0.737 7.5,1.25 1.705,0.987 2.178,1.25 4.376,1.25"
         transform="matrix(-0.13978,0,0,0.12414,124.863,19.663)"
         id="path57"
         inkscape:connector-curvature="0"
         style="fill:none;stroke-width:1.75100005" />
      <path
         d="m 438.13,724.86 c 1.273,0.075 7.083,1.146 9.376,0 2.552,-0.696 4.068,-2.04 5.625,-4.375 0.767,-1.689 0,2.998 0,5 0.283,3.68 1.366,3.714 3.125,6.25 1.814,1.163 3.725,2.8 5.625,3.75 1.576,1.366 3.513,2.28 5.625,3.125 1.896,0.898 4.111,1.813 5.625,3.125 2.09,1.493 1.888,3.278 3.125,5.625 -0.235,3.057 -0.733,4.79 -2.5,6.25 -0.738,2.113 -2.395,4.205 -3.75,5.625 -1.545,2.87 -3.256,4.224 0.625,5 2.132,0.914 3.327,0.197 5.625,0"
         transform="matrix(-0.13978,0,0,0.12414,126.96,18.19)"
         id="path59"
         inkscape:connector-curvature="0"
         style="fill:none;stroke-width:1.75100005" />
      <path
         d="m 480.63,771.73 c 1.536,-0.391 6.983,-2.213 9.375,-3.125 h 8.75 c 3.391,0.261 4.037,1.256 6.876,2.5 1.832,1.871 3.089,3.162 5.625,4.376 1.341,1.733 3.953,4.677 5,6.875 0.745,2.133 1.25,5.018 1.25,8.125 -0.044,3.648 -1.002,4.271 -1.25,7.5 -0.701,2.684 -1.839,5.143 -3.75,7.5 -0.265,0.793 -0.457,0.986 -1.25,1.25"
         transform="matrix(-0.13978,0,0,0.12414,127.396,17.802)"
         id="path61"
         inkscape:connector-curvature="0"
         style="fill:none;stroke-width:1.75100005" />
      <path
         d="m 538.13,817.98 c 0.374,0 1.201,2.018 2.5,3.75 2.828,2.906 3.192,3.125 7.5,3.125 3.884,-0.143 3.522,-1.532 6.25,-2.5 1.289,-2.008 2.896,-3.6 4.375,-6.25 1.006,-1.634 1.89,-4.129 3.125,-5.625 1.141,-1.854 2.563,-3.254 3.75,-5 1.172,-0.502 1.618,-0.984 3.126,-1.25 -3.6,0.578 -3.915,1.867 -6.251,3.75 -1.094,1.779 -2.181,3.633 -3.125,5.625 -0.361,2.673 -1.21,4.779 -1.25,8.125 0,3.457 0.017,5.872 1.25,8.75 1.473,1.545 2.563,3.143 4.375,4.376 1.439,1.405 3.244,3.336 4.376,5 1.96,1.206 3.385,2.189 5.625,3.75 1.884,1.102 3.915,2.234 6.875,2.5 3.67,-0.262 4.755,-1.297 7.5,-2.5 2.329,-1.713 4.163,-2.838 6.25,-4.375 1.629,-1.141 3.288,-3.403 4.375,-5 3.382,-0.846 5.529,-0.508 7.5,1.25 a 16.536,16.536 0 0 1 4.375,4.375 c 1.02,0.51 2.73,1.99 3.75,2.5"
         transform="matrix(-0.09924,0,0,0.09799,109.457,38.807)"
         id="path63"
         inkscape:connector-curvature="0"
         style="fill:none;stroke-width:2.33899999" />
      <path
         d="m 503.76,836.11 c -0.802,0.334 -3.717,2.367 -5,3.125 -0.8,2.631 -2.077,4.069 -2.5,6.875 -0.677,2.709 -0.625,5.692 -0.625,8.75 0.685,3.194 2.015,5.557 3.125,8.125 1.974,1.342 2.967,2.33 5.625,3.75 2.494,0.337 4.94,0.625 8.126,0.625 1.904,0.635 5.615,0.942 7.5,0 2.783,-0.376 4.854,-1.507 6.875,-2.5 2.306,-1.307 3.728,-2.542 6.25,-3.75 1.225,-1.801 3.13,-3.46 5,-5.625 1.556,-2.105 2.7,-3.286 3.75,-5.625 -0.924,2.669 -2.327,4.999 -3.125,7.5 -1.422,2.661 -2.248,3.604 -2.5,6.875 -0.871,2.613 -0.625,5.76 -0.625,8.75 0.274,2.031 0.418,5.837 1.25,7.5 v 1.875"
         transform="matrix(-0.12338,0,0,0.12229,111.375,19.248)"
         id="path65"
         inkscape:connector-curvature="0"
         style="fill:none;stroke-width:1.87800002" />
      <path
         d="m 541.26,799.23 v 0.625 c 0,-1.687 0.041,-0.83 -0.625,2.5 -1.179,1.462 -3.944,1.868 -6.25,1.25 -2.022,-1.67 -1.96,-2.935 -5.625,-3.75 -3.542,0.253 -4.892,1.279 -6.875,2.5 -2.354,1.177 -3.438,1.771 -5,4.375 -0.776,2.12 -1.209,3.555 1.25,4.375 1.954,1.386 4.277,2.149 6.875,2.5 2.887,0 4.968,-0.339 6.25,1.25 1.983,2.055 1.875,3.277 1.875,6.875 0.667,1.112 0.799,4.394 1.25,5.625 1.736,0.823 2.755,1.25 5.625,1.25 0.674,-1.931 1.423,-5.419 1.875,-7.5 0.489,-2.248 0.64,-5.379 1.875,-6.875 a 16.58,16.58 0 0 1 4.375,-4.375 c 0.766,-1.073 2.223,-1.965 3.75,-2.5 -2.452,1.251 -2.801,2.603 -3.125,5.625 2.155,1.078 2.731,1.833 6.25,1.875 3.459,-0.291 4.295,-1.169 5.625,-3.125 0.242,3.136 1.243,4.186 1.875,6.875 1.286,1.891 1.832,3.828 3.125,6.25 -0.551,3.012 -1.737,3.163 -1.875,6.875 -0.811,2.435 -0.723,4.783 -2.5,6.251 -0.792,0.968 -1.384,1.158 -3.125,1.25 3.618,0 5.727,-0.391 8.125,-1.875 1.854,-1.141 3.255,-2.563 5.001,-3.75 2.212,-1.603 4.947,-3.085 7.5,-3.751 2.887,0 4.968,-0.339 6.25,1.25 1.77,1.265 2.959,3.447 3.75,6.251 0.579,3.244 0.8,5.404 -0.625,7.5 -1.057,2.408 -1.297,3.346 0,6.25 1.452,2.033 3.617,2.272 6.875,3.125 2.379,-0.128 4.668,-0.671 6.25,-1.25"
         transform="matrix(-0.19848,0,0,0.17744,145.247,-13.446)"
         id="path67"
         inkscape:connector-curvature="0"
         style="fill:none;stroke-width:1.22899997" />
      <g
         transform="matrix(-0.19848,0,0,0.17744,145.247,-13.446)"
         id="g81"
         style="fill-rule:evenodd;stroke-width:1.31099999">
        <path
           d="m 531.5,359.64 c 0,-165.27 7.937,-299.41 17.717,-299.41 9.779,0 17.716,134.13 17.716,299.41 z"
           transform="matrix(1.4216,-0.73423,0.46161,0.89375,-716.84,541.07)"
           id="path69"
           inkscape:connector-curvature="0"
           style="fill:#ffffff" />
        <path
           d="m 531.5,359.64 c 0,-165.27 7.937,-299.41 17.717,-299.41 9.779,0 17.716,134.13 17.716,299.41"
           transform="matrix(1.1373,-0.58739,0.44532,0.86221,-554.83,471.77)"
           id="path71"
           inkscape:connector-curvature="0"
           style="fill:#ffffff" />
        <path
           d="m 563.39,301.18 c 0.189,18.908 0,40.188 0,60.236 h -28.347 c 0,-20.048 -0.189,-41.328 0,-60.236 z"
           transform="matrix(1.4216,-0.73423,0.45889,0.88849,-716.67,541.39)"
           id="path73"
           inkscape:connector-curvature="0"
           style="fill:#ffffff" />
        <path
           d="m 559.84,304.72 c 0.189,18.908 0,33.102 0,53.15 h -21.26 c 0,-20.048 -0.189,-34.242 0,-53.15 z"
           transform="matrix(1.4216,-0.73423,0.45889,0.88849,-716.67,541.39)"
           id="path75"
           inkscape:connector-curvature="0"
           style="fill:#ffffff" />
        <path
           transform="matrix(1.4216,-0.73423,0.45889,0.88849,-716.67,541.39)"
           d="m 542.13,311.81 h 14.173 v 38.976 H 542.13 Z m 0,0 14.173,38.976 m -14.173,0.004 14.173,-38.976 M 542.13,113.39 h 14.173"
           id="path77"
           inkscape:connector-curvature="0"
           style="fill:#ffffff" />
        <circle
           transform="matrix(1.6046,0.45375,-0.36215,1.5787,-734.9,-170.85)"
           cx="545.66998"
           cy="92.125999"
           id="ellipse79"
           r="3.543"
           style="fill:#ef0000" />
      </g>
      <g
         id="g103">
        <path
           d="m 538.58,531.5 c 1.717,166.56 24.803,201.97 3.543,201.97 -21.26,0 -31.89,-92.07 -31.89,-205.51 0,-113.44 14.173,-205.51 35.433,-205.51 21.26,0 -8.913,31.909 -7.086,209.06 z"
           transform="matrix(0.32136,-0.12684,0.20158,0.20221,-181.512,60.764)"
           id="path83"
           inkscape:connector-curvature="0"
           style="fill:#ffffff;fill-rule:evenodd;stroke-width:1.31099999" />
        <path
           d="m 545.67,779.53 -60.236,17.716 c 56.693,60.236 120.47,85.039 138.19,74.409 17.717,-10.629 -31.89,-35.433 -77.953,-92.125 z"
           transform="matrix(0.19848,0,0,0.17744,19.131,-14.073)"
           id="path85"
           inkscape:connector-curvature="0"
           style="fill:#ffffff;fill-rule:evenodd;stroke-width:1.22899997" />
        <path
           d="m 547.27,786.9 -50.926,14.74 c 56.693,60.236 112.77,77.385 127.28,70.015 14.591,-7.37 -30.287,-28.063 -76.35,-84.755 z"
           transform="matrix(0.19334,0,0,0.17062,21.629,-8.754)"
           id="path87"
           inkscape:connector-curvature="0"
           style="fill:#ffffff;fill-rule:evenodd;stroke-width:1.26999998" />
        <path
           d="m 353.13,634.23 c 0.187,1.273 0.748,7.068 1.25,9.375 0,3.186 0.288,5.632 0.625,8.125 0.796,2.177 0.661,4.198 3.125,5.001 1.694,2.631 2.76,3.313 5,4.375 1.527,1.323 3.84,2.642 6.25,3.75 2.499,1.071 4.771,1.218 7.5,0.625 2.19,-1.526 3.804,-3.1 5.625,-4.375 0.429,-1.973 0.822,-4.903 1.25,-6.875 -0.674,2.024 -1.147,5.265 -1.25,8.125 0.24,3.12 1.265,4.481 2.5,6.875"
           transform="matrix(0.13978,0,0,0.12414,41.35,19.735)"
           id="path89"
           inkscape:connector-curvature="0"
           style="fill:none;stroke-width:1.75100005" />
        <path
           d="m 389.38,681.73 0.625,-0.625 c -1.484,1.484 -0.878,0.776 2.5,-1.25 2.426,-1.246 5.015,-1.908 8.125,-2.5 h 8.75 c 3.405,0 5.696,0.511 8.125,1.25 1.762,1.762 4.393,2.763 6.25,4.375 1.905,1.295 2.722,2.829 3.75,5 1.701,1.701 2.803,4.326 4.375,5.625 0.704,2.871 2.141,2.773 3.125,5 -2.948,0.227 -5.311,0.631 -6.875,2.5 -2.597,1.344 2.179,-1.317 3.125,-2.5 2.046,-0.618 2.576,-1.25 5.625,-1.25 2.85,-0.904 4.579,0.737 7.5,1.25 1.705,0.987 2.178,1.25 4.376,1.25"
           transform="matrix(0.13978,0,0,0.12414,39.515,19.036)"
           id="path91"
           inkscape:connector-curvature="0"
           style="fill:none;stroke-width:1.75100005" />
        <path
           d="m 438.13,724.86 c 1.273,0.075 7.083,1.146 9.376,0 2.552,-0.696 4.068,-2.04 5.625,-4.375 0.767,-1.689 0,2.998 0,5 0.283,3.68 1.366,3.714 3.125,6.25 1.814,1.163 3.725,2.8 5.625,3.75 1.576,1.366 3.513,2.28 5.625,3.125 1.896,0.898 4.111,1.813 5.625,3.125 2.09,1.493 1.888,3.278 3.125,5.625 -0.235,3.057 -0.733,4.79 -2.5,6.25 -0.738,2.113 -2.395,4.205 -3.75,5.625 -1.545,2.87 -3.256,4.224 0.625,5 2.132,0.914 3.327,0.197 5.625,0"
           transform="matrix(0.13978,0,0,0.12414,37.419,17.563)"
           id="path93"
           inkscape:connector-curvature="0"
           style="fill:none;stroke-width:1.75100005" />
        <path
           d="m 480.63,771.73 c 1.536,-0.391 6.983,-2.213 9.375,-3.125 h 8.75 c 3.391,0.261 4.037,1.256 6.876,2.5 1.832,1.871 3.089,3.162 5.625,4.376 1.341,1.733 3.953,4.677 5,6.875 0.745,2.133 1.25,5.018 1.25,8.125 -0.044,3.648 -1.002,4.271 -1.25,7.5 -0.701,2.684 -1.839,5.143 -3.75,7.5 -0.265,0.793 -0.457,0.986 -1.25,1.25"
           transform="matrix(0.13978,0,0,0.12414,36.982,17.174)"
           id="path95"
           inkscape:connector-curvature="0"
           style="fill:none;stroke-width:1.75100005" />
        <path
           d="m 538.13,817.98 c 0.374,0 1.201,2.018 2.5,3.75 2.828,2.906 3.192,3.125 7.5,3.125 3.884,-0.143 3.522,-1.532 6.25,-2.5 1.289,-2.008 2.896,-3.6 4.375,-6.25 1.006,-1.634 1.89,-4.129 3.125,-5.625 1.141,-1.854 2.563,-3.254 3.75,-5 1.172,-0.502 1.618,-0.984 3.126,-1.25 -3.6,0.578 -3.915,1.867 -6.251,3.75 -1.094,1.779 -2.181,3.633 -3.125,5.625 -0.361,2.673 -1.21,4.779 -1.25,8.125 0,3.457 0.017,5.872 1.25,8.75 1.473,1.545 2.563,3.143 4.375,4.376 1.439,1.405 3.244,3.336 4.376,5 1.96,1.206 3.385,2.189 5.625,3.75 1.884,1.102 3.915,2.234 6.875,2.5 3.67,-0.262 4.755,-1.297 7.5,-2.5 2.329,-1.713 4.163,-2.838 6.25,-4.375 1.629,-1.141 3.288,-3.403 4.375,-5 3.382,-0.846 5.529,-0.508 7.5,1.25 a 16.536,16.536 0 0 1 4.375,4.375 c 1.02,0.51 2.73,1.99 3.75,2.5"
           transform="matrix(0.09924,0,0,0.09799,54.92,38.18)"
           id="path97"
           inkscape:connector-curvature="0"
           style="fill:none;stroke-width:2.33899999" />
        <path
           d="m 503.76,836.11 c -0.802,0.334 -3.717,2.367 -5,3.125 -0.8,2.631 -2.077,4.069 -2.5,6.875 -0.677,2.709 -0.625,5.692 -0.625,8.75 0.685,3.194 2.015,5.557 3.125,8.125 1.974,1.342 2.967,2.33 5.625,3.75 2.494,0.337 4.94,0.625 8.126,0.625 1.904,0.635 5.615,0.942 7.5,0 2.783,-0.376 4.854,-1.507 6.875,-2.5 2.306,-1.307 3.728,-2.542 6.25,-3.75 1.225,-1.801 3.13,-3.46 5,-5.625 1.556,-2.105 2.7,-3.286 3.75,-5.625 -0.924,2.669 -2.327,4.999 -3.125,7.5 -1.422,2.661 -2.248,3.604 -2.5,6.875 -0.871,2.613 -0.625,5.76 -0.625,8.75 0.274,2.031 0.418,5.837 1.25,7.5 v 1.875"
           transform="matrix(0.12338,0,0,0.12229,53.004,18.62)"
           id="path99"
           inkscape:connector-curvature="0"
           style="fill:none;stroke-width:1.87800002" />
        <path
           d="m 541.26,799.23 v 0.625 c 0,-1.687 0.041,-0.83 -0.625,2.5 -1.179,1.462 -3.944,1.868 -6.25,1.25 -2.022,-1.67 -1.96,-2.935 -5.625,-3.75 -3.542,0.253 -4.892,1.279 -6.875,2.5 -2.354,1.177 -3.438,1.771 -5,4.375 -0.776,2.12 -1.209,3.555 1.25,4.375 1.954,1.386 4.277,2.149 6.875,2.5 2.887,0 4.968,-0.339 6.25,1.25 1.983,2.055 1.875,3.277 1.875,6.875 0.667,1.112 0.799,4.394 1.25,5.625 1.736,0.823 2.755,1.25 5.625,1.25 0.674,-1.931 1.423,-5.419 1.875,-7.5 0.489,-2.248 0.64,-5.379 1.875,-6.875 a 16.58,16.58 0 0 1 4.375,-4.375 c 0.766,-1.073 2.223,-1.965 3.75,-2.5 -2.452,1.251 -2.801,2.603 -3.125,5.625 2.155,1.078 2.731,1.833 6.25,1.875 3.459,-0.291 4.295,-1.169 5.625,-3.125 0.242,3.136 1.243,4.186 1.875,6.875 1.286,1.891 1.832,3.828 3.125,6.25 -0.551,3.012 -1.737,3.163 -1.875,6.875 -0.811,2.435 -0.723,4.783 -2.5,6.251 -0.792,0.968 -1.384,1.158 -3.125,1.25 3.618,0 5.727,-0.391 8.125,-1.875 1.854,-1.141 3.255,-2.563 5.001,-3.75 2.212,-1.603 4.947,-3.085 7.5,-3.751 2.887,0 4.968,-0.339 6.25,1.25 1.77,1.265 2.959,3.447 3.75,6.251 0.579,3.244 0.8,5.404 -0.625,7.5 -1.057,2.408 -1.297,3.346 0,6.25 1.452,2.033 3.617,2.272 6.875,3.125 2.379,-0.128 4.668,-0.671 6.25,-1.25"
           transform="matrix(0.19848,0,0,0.17744,19.131,-14.073)"
           id="path101"
           inkscape:connector-curvature="0"
           style="fill:none;stroke-width:1.22899997" />
      </g>
      <g
         transform="matrix(0.19848,0,0,0.17744,19.131,-14.073)"
         id="g117"
         style="fill-rule:evenodd;stroke-width:1.31099999">
        <path
           d="m 531.5,359.64 c 0,-165.27 7.937,-299.41 17.717,-299.41 9.779,0 17.716,134.13 17.716,299.41 z"
           transform="matrix(1.4216,-0.73423,0.46161,0.89375,-716.84,541.07)"
           id="path105"
           inkscape:connector-curvature="0"
           style="fill:#ffffff" />
        <path
           d="m 531.5,359.64 c 0,-165.27 7.937,-299.41 17.717,-299.41 9.779,0 17.716,134.13 17.716,299.41"
           transform="matrix(1.1373,-0.58739,0.44532,0.86221,-554.83,471.77)"
           id="path107"
           inkscape:connector-curvature="0"
           style="fill:#ffffff" />
        <path
           d="m 563.39,301.18 c 0.189,18.908 0,40.188 0,60.236 h -28.347 c 0,-20.048 -0.189,-41.328 0,-60.236 z"
           transform="matrix(1.4216,-0.73423,0.45889,0.88849,-716.67,541.39)"
           id="path109"
           inkscape:connector-curvature="0"
           style="fill:#ffffff" />
        <path
           d="m 559.84,304.72 c 0.189,18.908 0,33.102 0,53.15 h -21.26 c 0,-20.048 -0.189,-34.242 0,-53.15 z"
           transform="matrix(1.4216,-0.73423,0.45889,0.88849,-716.67,541.39)"
           id="path111"
           inkscape:connector-curvature="0"
           style="fill:#ffffff" />
        <path
           transform="matrix(1.4216,-0.73423,0.45889,0.88849,-716.67,541.39)"
           d="m 542.13,311.81 h 14.173 v 38.976 H 542.13 Z m 0,0 14.173,38.976 m -14.173,0.004 14.173,-38.976 M 542.13,113.39 h 14.173"
           id="path113"
           inkscape:connector-curvature="0"
           style="fill:#ffffff" />
        <circle
           transform="matrix(1.6046,0.45375,-0.36215,1.5787,-734.9,-170.85)"
           cx="545.66998"
           cy="92.125999"
           id="ellipse115"
           r="3.543"
           style="fill:#ef0000" />
      </g>
      <g
         transform="matrix(0.19848,0,0,0.17744,19.131,-14.073)"
         id="g195"
         style="fill:#ffffff;fill-rule:evenodd">
        <path
           d="m 305.61,396.85 c 0,124.02 0.491,170.76 -5.62,177.17 -5.79,6.857 -167.12,0 -167.12,35.433 0,35.433 132.87,70.867 172.74,70.866 53.149,0 79.723,-35.433 79.723,-106.3 V 396.849 H 305.61 Z"
           transform="matrix(1.3333,0,0,1,-141.74,0)"
           id="path119"
           inkscape:connector-curvature="0"
           style="stroke-width:1.31099999" />
        <path
           d="m 265.75,396.85 v 17.717 c 35.433,5.906 70.866,5.906 106.3,0 V 396.85 c -35.433,5.906 -70.866,5.906 -106.3,0 z"
           transform="matrix(1,0,0,0.99999,0,35.437)"
           id="path121"
           inkscape:connector-curvature="0"
           style="stroke-width:1.31099999" />
        <path
           d="m 265.75,396.85 v 17.717 c 35.433,5.906 70.866,5.906 106.3,0 V 396.85 c -35.433,5.906 -70.866,5.906 -106.3,0 z"
           transform="matrix(1,0,0,0.99999,0,0.004)"
           id="path123"
           inkscape:connector-curvature="0"
           style="stroke-width:1.31099999" />
        <path
           d="m 265.75,396.85 v 17.717 c 35.433,5.906 70.866,5.906 106.3,0 V 396.85 c -35.433,5.906 -70.866,5.906 -106.3,0 z"
           transform="matrix(1,0,0,0.99999,0,17.721)"
           id="path125"
           inkscape:connector-curvature="0"
           style="stroke-width:1.31099999" />
        <path
           d="m 265.75,396.85 v 17.717 c 35.433,5.906 70.866,5.906 106.3,0 V 396.85 c -35.433,5.906 -70.866,5.906 -106.3,0 z"
           transform="matrix(1,0,0,0.99999,0,53.154)"
           id="path127"
           inkscape:connector-curvature="0"
           style="stroke-width:1.31099999" />
        <ellipse
           transform="matrix(0.54545,0,0,0.14383,130.46,394.32)"
           cx="256.89001"
           rx="8.8579998"
           cy="210.83"
           ry="26.575001"
           id="ellipse129"
           style="stroke-width:4.38800001" />
        <ellipse
           transform="matrix(0.54545,0,0,0.14383,130.46,391.13)"
           cx="292.32001"
           rx="8.8579998"
           cy="246.25999"
           ry="26.575001"
           id="ellipse131"
           style="stroke-width:4.38800001" />
        <ellipse
           transform="matrix(0.54545,0,0,0.14383,130.46,390.49)"
           cx="327.76001"
           rx="8.8579998"
           cy="263.98001"
           ry="26.575001"
           id="ellipse133"
           style="stroke-width:4.38800001" />
        <ellipse
           transform="matrix(0.54545,0,0,0.14383,130.46,390.49)"
           cx="363.19"
           rx="8.8579998"
           cy="263.98001"
           ry="26.575001"
           id="ellipse135"
           style="stroke-width:4.38800001" />
        <ellipse
           transform="matrix(0.54545,0,0,0.14383,130.46,391.13)"
           cx="398.62"
           rx="8.8579998"
           cy="246.25999"
           ry="26.575001"
           id="ellipse137"
           style="stroke-width:4.38800001" />
        <ellipse
           transform="matrix(0.54545,0,0,0.14383,130.46,394.32)"
           cx="434.06"
           rx="8.8579998"
           cy="210.83"
           ry="26.575001"
           id="ellipse139"
           style="stroke-width:4.38800001" />
        <path
           d="m 265.75,485.43 106.3,95.669 m -95.67,-95.669 95.669,85.039 M 290.55,488.98 372.046,559.846 M 301.18,488.98 372.046,549.217 M 311.81,488.98 372.046,538.587 M 322.44,488.98 372.046,527.957 M 333.07,488.98 372.046,517.327 M 343.7,488.98 l 28.346,21.26 m -17.716,-21.26 17.716,14.174 m -7.086,-14.174 7.086,7.087 m -106.296,-0.007 106.3,95.669 m 0,-106.299 -116.93,106.3 m 106.3,-106.3 -102.76,92.126 m 88.59,-88.576 -81.496,70.866 M 336.62,488.98 265.754,549.217 M 325.99,488.98 265.754,538.587 M 315.36,488.98 265.754,527.957 M 304.73,488.98 265.754,517.327 M 294.1,488.98 265.754,510.24 m 17.716,-21.26 -17.716,14.174 m 7.086,-14.174 -7.086,7.087 M 372.05,496.06 255.12,602.36 M 372.05,506.69 255.12,612.99 M 372.05,517.32 255.12,623.62 M 372.05,527.95 255.12,634.25 M 372.05,538.58 255.12,644.88 M 372.05,549.21 255.12,655.51 M 372.05,559.84 255.12,666.14 M 372.05,570.47 255.12,676.77 M 372.05,581.1 262.21,680.31 m 109.84,-88.58 -99.212,88.583 M 368.5,605.9 290.547,676.766 M 364.96,620.08 301.181,676.773 M 357.87,637.79 325.98,666.136 M 265.75,506.69 368.51,598.816 m -102.763,-81.489 102.76,92.126 m -102.76,-81.496 99.213,88.583 m -99.213,-77.953 99.213,88.583 m -99.207,-77.957 95.67,85.039 m -99.219,-77.949 95.669,85.04 m -95.669,-74.41 88.583,77.953 m -92.124,-70.873 88.583,77.953 m -92.132,-70.863 85.04,74.409 m -85.041,-63.782 81.496,70.865 m -81.496,-60.235 70.866,63.779"
           id="path141"
           inkscape:connector-curvature="0"
           style="stroke-width:1.31099999" />
        <path
           d="m 265.75,396.85 v 17.717 c 35.433,5.906 70.866,5.906 106.3,0 V 396.85 c -35.433,5.906 -70.866,5.906 -106.3,0 z"
           transform="matrix(1,0,0,0.99999,0,70.87)"
           id="path143"
           inkscape:connector-curvature="0"
           style="stroke-width:1.31099999" />
        <path
           d="m 255.114,612.99 63.78,56.692 m -63.78,-46.062 56.693,49.606 m -56.694,-38.976 49.606,42.519 m -49.605,-31.889 35.434,31.889 m -35.434,-21.259 28.347,24.804 m -28.348,-14.174 17.716,14.173"
           id="path145"
           inkscape:connector-curvature="0"
           style="stroke-width:1.31099999" />
        <ellipse
           transform="matrix(0.54545,0,0,0.14383,130.46,447.47)"
           cx="256.89001"
           rx="8.8579998"
           cy="210.83"
           ry="26.575001"
           id="ellipse147"
           style="stroke-width:4.38800001" />
        <ellipse
           transform="matrix(0.54545,0,0,0.14383,130.46,444.28)"
           cx="292.32001"
           rx="8.8579998"
           cy="246.25999"
           ry="26.575001"
           id="ellipse149"
           style="stroke-width:4.38800001" />
        <ellipse
           transform="matrix(0.54545,0,0,0.14383,130.46,443.64)"
           cx="327.76001"
           rx="8.8579998"
           cy="263.98001"
           ry="26.575001"
           id="ellipse151"
           style="stroke-width:4.38800001" />
        <ellipse
           transform="matrix(0.54545,0,0,0.14383,130.46,443.64)"
           cx="363.19"
           rx="8.8579998"
           cy="263.98001"
           ry="26.575001"
           id="ellipse153"
           style="stroke-width:4.38800001" />
        <ellipse
           transform="matrix(0.54545,0,0,0.14383,130.46,444.28)"
           cx="398.62"
           rx="8.8579998"
           cy="246.25999"
           ry="26.575001"
           id="ellipse155"
           style="stroke-width:4.38800001" />
        <ellipse
           transform="matrix(0.54545,0,0,0.14383,130.46,447.47)"
           cx="434.06"
           rx="8.8579998"
           cy="210.83"
           ry="26.575001"
           id="ellipse157"
           style="stroke-width:4.38800001" />
        <path
           d="m 113.39,651.97 127.55,-74.41 m -134.637,70.867 120.47,-70.87 M 102.76,641.341 212.6,577.561 M 99.217,634.254 194.886,577.561 M 92.127,627.16 180.71,577.554 m -85.043,38.983 60.236,-35.433 m -63.776,28.35 46.063,-28.346 m -46.066,17.709 31.89,-17.717 m -10e-4,74.407 120.47,-70.86 m -109.836,74.407 113.38,-67.32 M 145.28,662.6 251.58,598.82 m -95.67,67.324 88.583,-53.15 m -74.41,53.142 77.952,-46.063 m -67.322,49.607 67.323,-38.976 m -56.7,42.523 53.15,-31.89 m -38.976,31.896 42.52,-24.803 m -28.35,28.347 28.347,-17.717 m -14.164,17.713 17.717,-10.63"
           id="path159"
           inkscape:connector-curvature="0"
           style="stroke-width:1.31099999" />
        <path
           d="m 265.75,396.85 v 17.717 c 35.433,5.906 70.866,5.906 106.3,0 V 396.85 c -35.433,5.906 -70.866,5.906 -106.3,0 z"
           transform="matrix(0,1,-0.99999,0,655.51,308.27)"
           id="path161"
           inkscape:connector-curvature="0"
           style="stroke-width:1.31099999" />
        <path
           d="M 49.61,623.624 92.13,588.191 M 49.61,598.8 92.13,641.32"
           id="path163"
           inkscape:connector-curvature="0"
           style="stroke-width:1.31099999" />
        <path
           d="m 260.15,387.99 5.595,26.575 c 35.433,5.906 65.271,5.906 100.7,0 l 11.19,-26.575 c -35.433,5.906 -82.056,5.906 -117.49,0 z"
           transform="matrix(0,0.63333,-0.8,0,423.78,416.34)"
           id="path165"
           inkscape:connector-curvature="0"
           style="stroke-width:1.31099999" />
        <path
           d="m 258.66,350.79 v -17.865 c -10.63,0.149 -17.716,-10.481 -17.717,-21.26 l -35.432,0.149 c 0,10.63 -7.087,21.26 -17.717,21.26 v 17.716 z"
           transform="matrix(1.4983,0,0,1,-15.633,53.149)"
           id="path167"
           inkscape:connector-curvature="0"
           style="stroke-width:1.31099999" />
        <path
           d="m 296.09,343.7 h 45.506 v 21.26 H 296.09 Z m 3.79,-21.26 h 37.922 V 343.7 H 299.88 Z m 0,-21.26 h 37.922 v 21.26 H 299.88 Z m 3.79,-28.35 h 30.337 v 28.346 H 303.67 Z"
           id="path169"
           inkscape:connector-curvature="0"
           style="stroke-width:1.35599995" />
        <path
           d="m 302.36,248.03 h 32.953 v 24.803 H 302.36 Z"
           id="path171"
           inkscape:connector-curvature="0"
           style="stroke-width:1.41299999" />
        <ellipse
           transform="matrix(1.0333,0,0,1,75.354,63.779)"
           cx="237.39999"
           rx="42.52"
           cy="161.22"
           ry="33.660999"
           id="ellipse173"
           style="stroke-width:1.31099999" />
        <path
           d="m 258.66,159.45 c 0,9.291 10.63,24.803 10.63,24.803 -7.696,6.093 -20.154,10.63 -31.889,10.63 -11.735,0 -26.349,-2.528 -31.89,-10.63 0,0 10.63,-15.512 10.63,-24.803 0,-9.291 -10.63,-21.26 -10.63,-21.26 7.696,-6.093 20.154,-10.63 31.89,-10.63 11.735,0 24.193,4.537 31.889,10.63 0,0 -10.63,11.969 -10.63,21.26 z"
           transform="matrix(1.0333,0,0,1,75.354,63.779)"
           id="path175"
           inkscape:connector-curvature="0"
           style="stroke-width:1.31099999" />
        <path
           d="m 251.58,159.45 c 0,9.291 10.63,28.346 10.63,28.346 -7.696,6.093 -13.068,7.087 -24.803,7.087 -11.735,0 -19.262,1.015 -24.803,-7.087 0,0 10.63,-19.055 10.63,-28.346 0,-9.291 -10.63,-24.803 -10.63,-24.803 7.696,-6.093 13.067,-7.087 24.803,-7.087 11.735,0 17.107,0.994 24.803,7.087 0,0 -10.63,15.512 -10.63,24.803 z"
           transform="matrix(1.0333,0,0,1,75.354,63.779)"
           id="path177"
           inkscape:connector-curvature="0"
           style="stroke-width:1.31099999" />
        <circle
           transform="matrix(1.0333,0,0,1,75.354,60.236)"
           cx="194.88"
           cy="166.53999"
           id="ellipse179"
           r="10.63"
           style="stroke-width:1.31099999" />
        <circle
           transform="matrix(1.0333,0,0,1,163.23,60.236)"
           cx="194.88"
           cy="166.53999"
           id="ellipse181"
           r="10.63"
           style="stroke-width:1.31099999" />
        <circle
           transform="matrix(1.0333,0,0,1,119.29,60.236)"
           cx="194.88"
           cy="166.53999"
           id="ellipse183"
           r="10.63"
           style="stroke-width:1.31099999" />
        <circle
           transform="matrix(1.0333,0,0,1,119.29,24.803)"
           cx="194.88"
           cy="166.53999"
           id="ellipse185"
           r="10.63"
           style="stroke-width:1.31099999" />
        <circle
           transform="matrix(1.0702,0,0,1,79.931,226.77)"
           cx="194.88"
           cy="166.53999"
           id="ellipse187"
           r="10.63"
           style="stroke-width:1.31099999" />
        <circle
           transform="matrix(1.0702,0,0,1,140.61,226.77)"
           cx="194.88"
           cy="166.53999"
           id="ellipse189"
           r="10.63"
           style="stroke-width:1.31099999" />
        <path
           d="m 212.6,311.81 h 49.607 l -24.803,31.89 z"
           transform="matrix(1.0702,0,0,1,64.762,53.149)"
           id="path191"
           inkscape:connector-curvature="0"
           style="stroke-width:1.31099999" />
        <circle
           transform="matrix(1.427,0,0,1.3333,40.745,167.72)"
           cx="194.88"
           cy="166.53999"
           id="ellipse193"
           r="10.63"
           style="stroke-width:1.31099999" />
      </g>
      <g
         transform="matrix(0.19848,0,0,0.17744,18.78,-19.095)"
         id="g217"
         style="fill:#ffffff;fill-rule:evenodd">
        <rect
           rx="4.349"
           ry="3.687"
           height="21.26"
           width="81.496002"
           y="524.40997"
           x="262.20001"
           id="rect197"
           style="stroke-width:1.22899997" />
        <path
           d="m 368.51,506.69 c -9.814,0 -17.716,8.259 -17.716,18.519 v 16.111 c 0,10.26 7.902,18.52 17.716,18.52 9.815,0 17.717,-8.26 17.717,-18.52 v -16.111 c 0,-10.26 -7.902,-18.519 -17.717,-18.519 z m 0,7.087 c -5.888,0 -10.63,6.608 -10.63,14.816 v 9.345 c 0,8.208 4.742,14.816 10.63,14.816 5.889,0 10.63,-6.608 10.63,-14.816 v -9.345 c 0,-8.208 -4.741,-14.816 -10.63,-14.816 z m -92.13,-3.537 c -5.888,0 -10.63,6.608 -10.63,14.816 v 16.432 c 0,8.208 4.742,14.816 10.63,14.816 5.889,0 10.63,-6.608 10.63,-14.816 v -16.432 c 0,-8.208 -4.741,-14.816 -10.63,-14.816 z m 0,-7.087 c -9.814,0 -17.716,8.259 -17.716,18.519 v 23.198 c 0,10.26 7.902,18.52 17.716,18.52 9.815,0 17.717,-8.26 17.717,-18.52 v -23.198 c 0,-10.26 -7.902,-18.519 -17.717,-18.519 z"
           id="path199"
           inkscape:connector-curvature="0"
           style="stroke-width:1.22899997" />
        <path
           d="m 248.03,517.32 c -5.888,0 -10.63,6.608 -10.63,14.816 L 237.399,536 c 0,8.208 4.742,14.816 10.63,14.816 5.889,0 10.63,-6.608 10.63,-14.816 l 0.001,-3.864 c 0,-8.208 -4.741,-14.816 -10.63,-14.816 z m 0,-7.087 c -9.814,0 -17.716,8.259 -17.716,18.519 l -0.001,10.63 c 0,10.26 7.902,18.52 17.716,18.52 9.815,0 17.717,-8.26 17.717,-18.52 l 0.001,-10.63 c 0,-10.26 -7.902,-18.519 -17.717,-18.519 z"
           id="path201"
           inkscape:connector-curvature="0"
           style="stroke-width:1.22899997" />
        <path
           d="m 478.35,237.4 c -5.888,0 -10.63,6.608 -10.63,14.816 v 16.432 c 0,8.208 4.742,14.816 10.63,14.816 5.889,0 10.63,-6.608 10.63,-14.816 v -16.432 c 0,-8.208 -4.741,-14.816 -10.63,-14.816 z m 0,-7.087 c -9.814,0 -17.716,8.259 -17.716,18.519 v 23.198 c 0,10.26 7.902,18.52 17.716,18.52 9.815,0 17.717,-8.26 17.717,-18.52 v -23.198 c 0,-10.26 -7.902,-18.519 -17.717,-18.519 z"
           transform="matrix(1.8,0,0,1.1176,-655.51,242.2)"
           id="path203"
           inkscape:connector-curvature="0"
           style="stroke-width:0.86699998" />
        <path
           d="m 478.35,237.4 c -5.888,0 -10.63,6.608 -10.63,14.816 v 16.432 c 0,8.208 4.742,14.816 10.63,14.816 5.889,0 10.63,-6.608 10.63,-14.816 v -16.432 c 0,-8.208 -4.741,-14.816 -10.63,-14.816 z m 0,-7.087 c -9.814,0 -17.716,8.259 -17.716,18.519 v 23.198 c 0,10.26 7.902,18.52 17.716,18.52 9.815,0 17.717,-8.26 17.717,-18.52 v -23.198 c 0,-10.26 -7.902,-18.519 -17.717,-18.519 z"
           transform="matrix(1.8,0,0,1.1176,-425.2,245.74)"
           id="path205"
           inkscape:connector-curvature="0"
           style="stroke-width:0.86699998" />
        <rect
           rx="2.2690001"
           ry="3.687"
           height="21.26"
           width="42.52"
           y="524.40997"
           x="375.59"
           id="rect207"
           style="stroke-width:1.22899997" />
        <rect
           rx="1.324"
           ry="4.9159999"
           height="28.346001"
           width="24.802999"
           y="520.87"
           x="336.60999"
           id="rect209"
           style="stroke-width:1.22899997" />
        <rect
           rx="1.324"
           ry="4.9159999"
           height="28.346001"
           width="24.802999"
           y="520.87"
           x="219.69"
           id="rect211"
           style="stroke-width:1.22899997" />
        <rect
           rx="2.6470001"
           ry="6.145"
           height="35.432999"
           width="49.605999"
           y="517.32001"
           x="141.73"
           id="rect213"
           style="stroke-width:1.22899997" />
        <rect
           rx="2.4579999"
           ry="6.145"
           height="35.432999"
           width="46.063"
           y="520.87"
           x="450"
           id="rect215"
           style="stroke-width:1.22899997" />
      </g>
    </g>
  </g>
</svg>
