<?xml version="1.0" encoding="UTF-8" standalone="no"?>
<svg
   xmlns:dc="http://purl.org/dc/elements/1.1/"
   xmlns:cc="http://creativecommons.org/ns#"
   xmlns:rdf="http://www.w3.org/1999/02/22-rdf-syntax-ns#"
   xmlns:svg="http://www.w3.org/2000/svg"
   xmlns="http://www.w3.org/2000/svg"
   xmlns:sodipodi="http://sodipodi.sourceforge.net/DTD/sodipodi-0.dtd"
   xmlns:inkscape="http://www.inkscape.org/namespaces/inkscape"
   height="15.999998"
   width="21.333332"
   viewBox="0 0 21.333332 15.999998"
   version="1.1"
   id="svg47"
   sodipodi:docname="pf.svg"
   inkscape:version="0.92.1 r">
  <metadata
     id="metadata51">
    <rdf:RDF>
      <cc:Work
         rdf:about="">
        <dc:format>image/svg+xml</dc:format>
        <dc:type
           rdf:resource="http://purl.org/dc/dcmitype/StillImage" />
        <dc:title></dc:title>
      </cc:Work>
    </rdf:RDF>
  </metadata>
  <sodipodi:namedview
     pagecolor="#ffffff"
     bordercolor="#666666"
     borderopacity="1"
     objecttolerance="10"
     gridtolerance="10"
     guidetolerance="10"
     inkscape:pageopacity="0"
     inkscape:pageshadow="2"
     inkscape:window-width="1920"
     inkscape:window-height="1024"
     id="namedview49"
     showgrid="false"
     fit-margin-top="0"
     fit-margin-left="0"
     fit-margin-right="0"
     fit-margin-bottom="0"
     inkscape:zoom="0.49166667"
     inkscape:cx="320"
     inkscape:cy="240"
     inkscape:window-x="0"
     inkscape:window-y="0"
     inkscape:window-maximized="1"
     inkscape:current-layer="svg47" />
  <defs
     id="defs5">
    <clipPath
       id="a">
      <path
         d="M 0,0 H 640 V 480 H 0 Z"
         id="path2"
         inkscape:connector-curvature="0"
         style="fill-opacity:0.67000002" />
    </clipPath>
  </defs>
  <g
     clip-path="url(#a)"
     id="g45"
     transform="scale(0.03333333)">
    <path
       d="M 0,0 H 640 V 480 H 0 Z"
       id="path7"
       inkscape:connector-curvature="0"
       style="fill:#ffffff" />
    <path
       d="M 80,0 H 560 V 480 H 80 Z"
       id="path9"
       inkscape:connector-curvature="0"
       style="fill:#ffffff" />
    <path
       d="m 277.28,340.75 c 0,0 10.839,-8.788 21.386,-8.788 10.547,0 13.477,7.323 20.801,7.909 7.324,0.586 13.475,-7.324 22.558,-7.617 9.082,-0.292 20.508,6.445 20.508,6.445 l -39.843,12.013 z m -22.85,-12.89 135.35,0.586 c 0,0 -11.718,-12.597 -25.488,-12.89 -13.769,-0.295 -9.96,5.86 -20.507,6.737 -10.546,0.88 -13.185,-6.444 -22.852,-6.152 -9.666,0.292 -15.234,6.152 -22.557,6.446 -7.324,0.292 -16.699,-7.326 -22.266,-7.03 -5.567,0.292 -25.488,8.787 -25.488,8.787 l 3.809,3.516 z m -17.28,-16.11 166.99,0.587 c 2.636,-3.808 -8.204,-12.89 -18.163,-13.77 -8.205,0.293 -14.062,8.496 -20.801,8.79 -6.739,0.292 -14.355,-8.497 -21.973,-8.202 -7.616,0.292 -15.526,8.202 -23.144,8.202 -7.616,0 -13.183,-8.497 -22.85,-8.497 -9.668,0 -14.062,9.375 -21.386,8.79 -7.326,-0.587 -13.77,-9.375 -20.801,-9.375 -7.03,0 -18.75,10.546 -21.093,9.96 -2.344,-0.586 2.928,4.395 3.223,3.515 z"
       id="path11"
       inkscape:connector-curvature="0"
       style="fill:#083d9c;fill-rule:evenodd;stroke:#083d9c;stroke-width:2.00000006pt" />
    <path
       d="m 301.3,218.88 38.38,10.255 v -54.786 c -17.579,0.88 -32.226,-33.397 -1.172,-35.741 -30.468,-4.395 -33.985,3.515 -37.5,12.011 z"
       id="path13"
       inkscape:connector-curvature="0"
       style="fill:#ff0000;fill-rule:evenodd;stroke:#000000;stroke-width:2.5;stroke-linejoin:round" />
    <path
       d="m 276.99,258.72 86.718,0.292"
       id="path15"
       inkscape:connector-curvature="0"
       style="fill:#083d9c;fill-rule:evenodd;stroke:#083d9c;stroke-width:5;stroke-linecap:round" />
    <g
       id="g19"
       style="fill:none;stroke:#000000;stroke-width:2.1329999;stroke-linecap:round">
      <path
         d="m 281.094,237.919 10.254,13.77 m -10.254,0.011 11.134,-13.476 m -5.266,-1.187 -0.292,8.496"
         id="path17"
         inkscape:connector-curvature="0"
         style="stroke-width:3.9993751" />
    </g>
    <g
       id="g23"
       style="fill:none;stroke:#000000;stroke-width:2.1329999;stroke-linecap:round">
      <path
         d="m 297.5,237.919 10.254,13.77 M 297.5,251.7 308.634,238.224 m -5.266,-1.187 -0.292,8.496"
         id="path21"
         inkscape:connector-curvature="0"
         style="stroke-width:3.9993751" />
    </g>
    <g
       id="g27"
       style="fill:none;stroke:#000000;stroke-width:2.1329999;stroke-linecap:round">
      <path
         d="m 314.198,237.919 10.255,13.77 m -10.255,0.011 11.134,-13.476 m -5.265,-1.187 -0.292,8.496"
         id="path25"
         inkscape:connector-curvature="0"
         style="stroke-width:3.9993751" />
    </g>
    <g
       id="g31"
       style="fill:none;stroke:#000000;stroke-width:2.1329999;stroke-linecap:round">
      <path
         d="m 331.484,237.919 10.254,13.77 m -10.254,0.011 11.134,-13.476 m -5.266,-1.187 -0.292,8.496"
         id="path29"
         inkscape:connector-curvature="0"
         style="stroke-width:3.9993751" />
    </g>
    <g
       id="g35"
       style="fill:none;stroke:#000000;stroke-width:2.1329999;stroke-linecap:round">
      <path
         d="m 348.183,237.919 10.254,13.77 m -10.254,0.011 11.134,-13.476 m -5.266,-1.187 -0.292,8.496"
         id="path33"
         inkscape:connector-curvature="0"
         style="stroke-width:3.9993751" />
    </g>
    <path
       d="m 218.69,259.6 36.913,0.293 V 236.75 l -42.187,-2.05 5.274,24.902 z m -1.76,-31.93 39.258,3.809 -0.292,-16.406 -38.38,-15.234 -0.587,27.832 z m 7.91,-32.81 30.176,14.648 4.309,-4.498 c 0,0 -2.775,-1.912 -2.638,-3.672 0.052,-1.78 2.792,-2.05 2.844,-3.98 0.05,-1.78 -3.103,-1.994 -3.137,-3.774 -0.206,-1.93 2.43,-3.998 2.43,-3.998 l -27.245,-23.73 z m 198.04,65.03 h -38.964 l -0.292,-22.558 42.772,-3.223 -3.516,25.78 z m -38.67,-27.83 46.29,-5.565 -9.962,-26.66 -36.62,15.526 0.292,16.698 z m 33.69,-39.55 -33.398,17.578 c -0.488,-1.905 -0.902,-3.737 -3.221,-5.274 0,0 2.05,-1.172 2.05,-3.224 0,-2.049 -2.638,-2.343 -2.638,-3.515 0,-1.172 2.417,-2.195 2.564,-4.833 -0.293,-1.831 -2.564,-4.393 -2.124,-4.907 l 25.928,-19.85 z m -72.36,39.11 16.698,-0.732 0.292,-6.74 z m -50.97,-0.51 -17.578,-0.512 v -7.032 z m -0.08,-2.05 -17.505,-9.01 v -11.718 c 0,0 -2.051,0.293 -1.758,-2.05 0.097,-4.884 12.865,8.91 19.409,13.402 l -0.146,9.375 z m 51.05,-1.1 -0.072,-7.616 c 0,0 15.818,-14.281 19.187,-16.92 0,2.93 -1.83,5.2 -1.83,5.2 v 11.133 l -17.285,8.202 z M 243,163.8 c 0.292,0.293 17.75,19.696 17.75,19.696 0.49,-1.839 4.515,-2.118 8.616,-1.825 4.102,0.292 7.372,-0.275 7.372,2.655 0,2.93 -2.081,2.513 -2.081,4.565 0,2.052 3.118,1.879 3.118,4.513 0,2.636 -2.261,2.098 -2.273,4.14 -0.007,1.688 2.36,1.778 2.36,1.778 l 16.625,16.114 0.073,-17.213 -34.276,-53.758 z m 27.43,-20.35 c 0.26,0.782 23.216,47.477 23.216,47.477 0,0 0.26,-43.825 4.173,-46.173 l -6.52,-12 -20.87,10.696 z m 100.95,1.82 -25.923,46.245 0.034,-19.491 c 0,0 2.15,-3.277 -1.242,-3.016 -3.39,0.26 -7.564,-0.261 -7.564,-0.261 l 10.434,-36.521 24.26,13.044 z m 26.61,19.83 c -0.261,0.522 -17.488,18.04 -17.488,18.04 -0.782,-2.086 -5.99,-1.085 -10.947,-1.085 -4.957,0 -5.647,1.59 -5.385,2.893 0.522,3.392 2.196,0.893 2.196,4.024 0,3.13 -2.412,1.987 -2.627,4.279 0.24,2.632 3.786,1.981 1.708,3.976 l -19.947,19.149 0.057,-18.146 37.042,-57.652 15.392,24.52 z"
       id="path37"
       inkscape:connector-curvature="0"
       style="fill:#ef7d08;fill-rule:evenodd" />
    <path
       d="m 309.82,268.4 c -8.348,13.826 -30.664,9.726 -35.882,0.073 -1.564,-0.443 -0.639,-59.55 -0.639,-59.55 0,0 -2.493,-1.136 -2.608,-2.954 -0.115,-1.835 3.39,-2.002 3.39,-4.351 0,-2.348 -3.579,-1.427 -3.65,-3.79 0.015,-2.26 3.82,-1.948 3.65,-4.036 -0.201,-2.353 -4.262,-2.005 -4.434,-4.175 -0.132,-1.723 2.904,-3.225 3.748,-4 -0.546,0.027 -2.82,-0.034 -2.835,-0.042 l -6.392,0.13 c -4.541,0.005 0.078,0.99 0.012,3.61 -0.042,1.712 -2.303,2.851 -2.506,4.34 -0.071,1.527 3.236,2.6 3.278,4.434 0.037,1.636 -3.25,1.748 -3.132,3.268 0.205,2.573 2.912,3.139 2.871,4.696 -0.041,1.556 -3.643,2.15 -3.652,3.391 0.125,2.402 0.521,60.781 0.521,60.781 5.74,29.739 38.868,37.304 48.26,-1.825 z m 21.84,0 c 8.348,13.826 30.663,9.726 35.881,0.073 1.564,-0.443 0.64,-59.55 0.64,-59.55 0,0 2.493,-1.136 2.607,-2.954 0.114,-1.835 -3.17,-2.002 -3.17,-4.351 0,-2.348 3.36,-1.427 3.43,-3.79 -0.014,-2.26 -3.527,-2.094 -3.357,-4.183 0.2,-2.353 2.959,-2.078 3.116,-4.247 0.131,-1.869 -1.732,-3.007 -2.576,-3.782 0.546,0.027 2.673,-0.034 2.689,-0.041 l 6.391,0.13 c 4.542,0.005 -0.078,0.99 -0.01,3.61 0.04,1.712 2.301,2.851 2.505,4.34 0.07,1.527 -3.237,2.6 -3.279,4.434 -0.036,1.636 3.25,1.747 3.131,3.268 -0.204,2.572 -2.911,3.139 -2.87,4.696 0.041,1.556 3.644,2.15 3.652,3.39 -0.125,2.403 -0.52,60.782 -0.52,60.782 -5.74,29.739 -38.868,37.304 -48.26,-1.825 z"
       id="path39"
       inkscape:connector-curvature="0"
       style="fill:#ff0000;fill-rule:evenodd;stroke:#000000;stroke-width:2.5;stroke-linejoin:round" />
    <path
       d="m 301.71,295.59 37.277,-0.022 c 0.29,-0.293 -8.346,-12.874 -18.632,-11.987 -11.46,0.3 -19.244,12.009 -18.644,12.009 z m 118.86,-0.91 h -51.008 c 0,0 6.602,-3.901 8.402,-7.502 3.3,1.8 2.4,3.6 9.002,3.9 6.6,0.3 12.9,-7.5 19.203,-7.2 6.3,0.3 14.4,11.102 14.4,10.802 z m -201,0 h 51.008 c 0,0 -6.602,-3.901 -8.402,-7.502 -3.3,1.8 -2.4,3.6 -9.002,3.9 -6.599,0.3 -12.9,-7.5 -19.203,-7.2 -6.3,0.3 -14.4,11.102 -14.4,10.802 z m 3.81,-16.04 36.327,0.292 c 0,0 -2.344,-4.98 -2.636,-11.13 -9.377,-3.222 -16.993,7.03 -23.732,7.323 -6.736,0.292 -13.767,-7.324 -13.767,-7.324 l 3.808,10.84 z m 193.94,0 -36.328,0.292 c 0,0 2.344,-4.98 2.637,-11.13 9.376,-3.222 16.992,7.03 23.73,7.323 6.738,0.292 13.769,-7.324 13.769,-7.324 l -3.808,10.84 z m -106.35,0.3 18.455,-0.584 c 0,0 0.294,-5.567 -9.374,-5.567 -9.668,0 -8.788,6.445 -9.081,6.151 z m -11.13,-7.91 c 3.223,-1.76 6.152,-3.515 8.204,-7.618 l -12.598,0.292 c 0,0 -5.858,3.517 -8.788,7.326 h 13.183 z m 40.72,0 c -3.223,-1.76 -6.151,-3.515 -8.203,-7.618 l 12.597,0.292 c 0,0 5.858,3.517 8.788,7.326 z"
       id="path41"
       inkscape:connector-curvature="0"
       style="fill:#083d9c;fill-rule:evenodd;stroke:#083d9c;stroke-width:2.00000006pt" />
    <path
       d="M -40,360 H 680 V 480 H -40 Z M -40,0 H 680 V 120 H -40 Z"
       id="path43"
       inkscape:connector-curvature="0"
       style="fill:#de2010;fill-rule:evenodd" />
  </g>
</svg>
