<?xml version="1.0" encoding="UTF-8" standalone="no"?>
<svg
   xmlns:dc="http://purl.org/dc/elements/1.1/"
   xmlns:cc="http://creativecommons.org/ns#"
   xmlns:rdf="http://www.w3.org/1999/02/22-rdf-syntax-ns#"
   xmlns:svg="http://www.w3.org/2000/svg"
   xmlns="http://www.w3.org/2000/svg"
   xmlns:sodipodi="http://sodipodi.sourceforge.net/DTD/sodipodi-0.dtd"
   xmlns:inkscape="http://www.inkscape.org/namespaces/inkscape"
   height="16.000002"
   width="21.333492"
   viewBox="0 0 21.333492 16.000002"
   version="1.1"
   id="svg14"
   sodipodi:docname="pg.svg"
   inkscape:version="0.92.1 r">
  <metadata
     id="metadata20">
    <rdf:RDF>
      <cc:Work
         rdf:about="">
        <dc:format>image/svg+xml</dc:format>
        <dc:type
           rdf:resource="http://purl.org/dc/dcmitype/StillImage" />
        <dc:title></dc:title>
      </cc:Work>
    </rdf:RDF>
  </metadata>
  <defs
     id="defs18" />
  <sodipodi:namedview
     pagecolor="#ffffff"
     bordercolor="#666666"
     borderopacity="1"
     objecttolerance="10"
     gridtolerance="10"
     guidetolerance="10"
     inkscape:pageopacity="0"
     inkscape:pageshadow="2"
     inkscape:window-width="1920"
     inkscape:window-height="1024"
     id="namedview16"
     showgrid="false"
     fit-margin-top="0"
     fit-margin-left="0"
     fit-margin-right="0"
     fit-margin-bottom="0"
     inkscape:zoom="0.49166667"
     inkscape:cx="318.856"
     inkscape:cy="239.985"
     inkscape:window-x="0"
     inkscape:window-y="0"
     inkscape:window-maximized="1"
     inkscape:current-layer="svg14" />
  <g
     id="g6"
     transform="matrix(0.03333431,0,0,0.03333431,-0.03813445,3.333431e-5)"
     style="fill-rule:evenodd">
    <path
       d="m 1.644,0 -0.5,479.985 H 641.13 L 1.64,0 Z"
       id="path2"
       inkscape:connector-curvature="0" />
    <path
       d="m 640.63,479.984 0.5,-479.985 H 1.145 l 639.49,479.985 z"
       id="path4"
       inkscape:connector-curvature="0"
       style="fill:#ff0000" />
  </g>
  <path
     d="m 13.171765,3.9816433 -0.284154,-0.0147 c -0.08732,-0.20497 -0.333956,-0.28188 -0.485652,-0.19561 -0.137638,0.0118 -0.858383,-0.0108 -0.858383,-0.0108 l 0.526869,0.23005 c 0.130238,0.35097 0.583108,0.43355 0.583108,0.43355 -0.04018,0.64694 -0.65718,-0.0835 -1.17517,0.28513 -0.369992,0.2212 -0.374358,0.48539 -0.574302,0.91216 -0.06216,0.11871 -0.322633,0.42478 -0.322633,0.42478 l 0.435111,-0.0369 -0.139117,0.18433 0.517989,-0.0737 c 0,0 -0.06956,0.0579 -0.110998,0.10175 0.07674,0.015 0.591988,-0.12018 0.591988,-0.12018 l -0.037,0.1659 c 0.264175,-0.10544 0.591988,-0.21236 0.591988,-0.21236 0,0 0.116178,0.0966 0.221995,0.13862 l 0.074,-0.29493 0.295994,0.0737 0.074,-0.29493 c 0.443991,0.58987 0.591988,1.17973 1.405972,1.3272 l -0.074,-0.29493 c 0.226436,0.0966 0.646747,0.30157 0.646747,0.30157 l 0.06364,-0.13494 c 0.352973,0.25217 0.646007,0.24775 0.843583,0.27577 0,0 -0.147257,-0.3672 -0.147997,-0.36867 0.0096,0.004 0.147257,0.0745 0.147997,0.0737 l -0.221996,-0.58986 0.221996,0.0737 -0.295994,-0.4424 0.110997,-0.0737 -0.037,-0.2212 c 0.443991,0.14747 1.035979,0.36867 1.109977,0.88481 0.074,0.81106 -0.813983,1.03226 -1.405971,0.95853 0.443991,0.36867 1.257974,0.2212 1.627967,-0.14747 0.147997,-0.14746 0.221995,-0.36866 0.295994,-0.58986 0.074,0.2212 0.221995,0.51613 0.221995,0.81106 -0.074,0.66361 -0.96198,0.88481 -1.553968,0.95854 0.665986,0.36867 1.849962,-0.0737 1.923961,-1.03227 0,-0.81107 -0.51799,-1.17973 -0.739985,-1.5484 -0.0333,-0.1342 -0.074,-0.39669 -0.074,-0.39669 0.02871,0.008 0.221996,0.10249 0.221996,0.10249 0,0 -0.130977,-0.24406 -0.147997,-0.29567 0,0 -0.230875,-0.62673 -0.314494,-0.76535 0.01376,-0.008 0.166497,0.0258 0.166497,0.0258 l -0.606048,-0.75724 c 0,0 0.146221,-0.0133 0.171677,-0.0177 0,0 -0.704466,-0.55373 -0.897602,-0.62378 l 0.221996,-0.0737 c -0.443991,-0.2212 -0.961981,-0.0737 -1.405972,0.2212 l 0.074,-0.2212 -0.135418,0.0125 v -0.25291 l 0.135418,-0.20202 -0.221996,-0.0737 0.147997,-0.36867 -0.221995,0.0737 0.074,-0.36867 c 0,0 -0.165756,0.0767 -0.266394,0.0656 0.0037,0.008 0.117657,-0.25217 0.117657,-0.25217 -0.0703,-0.10986 7.4e-4,-0.32958 7.4e-4,-0.32958 -0.517989,0.0737 -0.591988,0.14746 -0.887982,0.58986 -0.443991,0.81107 -0.295994,1.17974 -0.221995,1.99081 z"
     id="path8"
     inkscape:connector-curvature="0"
     style="fill:#ffcc00;stroke:#ffcc00;stroke-width:0.07866716" />
  <path
     d="m 15.967428,5.1936733 c 0.03855,0.0634 0.458569,0.265 0.774616,0.44358 -0.0848,-0.33991 -0.701432,-0.41475 -0.774616,-0.44358 z"
     id="path10"
     inkscape:connector-curvature="0"
     style="fill:#ff0000;fill-rule:evenodd;stroke:#ff0000;stroke-width:0.10488953" />
  <path
     d="m 5.7937022,13.301553 -0.4706804,-0.29934 -0.6316851,0.30154 0.1400708,-0.53824 -0.4829141,-0.50582 0.5572829,-0.0339 0.3332097,-0.61348 0.2042393,0.51761 0.6889201,0.1261 -0.4309792,0.35391 z m 1.2078352,-2.63154 -0.2183397,-0.10397 -0.2098727,0.12017 0.031968,-0.23961 -0.1796053,-0.16147 0.2380736,-0.0435 0.098836,-0.22044 0.1152367,0.21234 0.2407071,0.0258 -0.1668716,0.17477 z m 1.0643311,-1.5093397 -0.4787806,-0.23301 -0.4641136,0.26104 0.074069,-0.52571 -0.3928447,-0.35908 0.5248819,-0.0922 0.2210065,-0.48295 0.250874,0.46892 0.5290821,0.0605 -0.3700108,0.38195 z m -2.1902972,-2.1014 -0.5640165,-0.28157 -0.5524494,0.30324 0.094503,-0.62142 -0.4602801,-0.42984 0.6223849,-0.10251 0.2681078,-0.56901 0.2901418,0.55818 0.6258849,0.0782 -0.4430129,0.44742 z m -2.0267591,2.1825 -0.56875,-0.33624 -0.5672165,0.34361 0.1454042,-0.64296 -0.5036813,-0.43061 0.6586525,-0.0612 0.2558741,-0.61052 0.2616743,0.60535 0.6618194,0.0538 -0.4968812,0.43501 z"
     id="path12"
     inkscape:connector-curvature="0"
     style="fill:#ffffff;fill-rule:evenodd;stroke-width:0.03333431" />
</svg>
