<?xml version="1.0" encoding="UTF-8" standalone="no"?>
<svg
   xmlns:dc="http://purl.org/dc/elements/1.1/"
   xmlns:cc="http://creativecommons.org/ns#"
   xmlns:rdf="http://www.w3.org/1999/02/22-rdf-syntax-ns#"
   xmlns:svg="http://www.w3.org/2000/svg"
   xmlns="http://www.w3.org/2000/svg"
   xmlns:sodipodi="http://sodipodi.sourceforge.net/DTD/sodipodi-0.dtd"
   xmlns:inkscape="http://www.inkscape.org/namespaces/inkscape"
   height="16.000002"
   width="21.333332"
   viewBox="0 0 21.333332 16.000002"
   version="1.1"
   id="svg109"
   sodipodi:docname="pn.svg"
   inkscape:version="0.92.1 r">
  <metadata
     id="metadata113">
    <rdf:RDF>
      <cc:Work
         rdf:about="">
        <dc:format>image/svg+xml</dc:format>
        <dc:type
           rdf:resource="http://purl.org/dc/dcmitype/StillImage" />
        <dc:title></dc:title>
      </cc:Work>
    </rdf:RDF>
  </metadata>
  <sodipodi:namedview
     pagecolor="#ffffff"
     bordercolor="#666666"
     borderopacity="1"
     objecttolerance="10"
     gridtolerance="10"
     guidetolerance="10"
     inkscape:pageopacity="0"
     inkscape:pageshadow="2"
     inkscape:window-width="1920"
     inkscape:window-height="1024"
     id="namedview111"
     showgrid="false"
     fit-margin-top="0"
     fit-margin-left="0"
     fit-margin-right="0"
     fit-margin-bottom="0"
     inkscape:zoom="0.49166667"
     inkscape:cx="320"
     inkscape:cy="240"
     inkscape:window-x="0"
     inkscape:window-y="0"
     inkscape:window-maximized="1"
     inkscape:current-layer="svg109" />
  <defs
     id="defs5">
    <clipPath
       id="a">
      <path
         d="m -15,-7.5 h 30 v 15 h -30 z"
         id="path2"
         inkscape:connector-curvature="0" />
    </clipPath>
  </defs>
  <path
     d="M 0,2.4999999e-6 H 21.333333 V 16.000002 H 0 Z"
     id="path7"
     inkscape:connector-curvature="0"
     style="fill:#00247d;stroke-width:0.03333334" />
  <g
     clip-path="url(#a)"
     transform="matrix(0.711111,0,0,0.711111,10.666667,5.3333325)"
     id="g21">
    <circle
       r="20"
       id="circle9"
       cx="0"
       cy="0"
       style="fill:#00247d" />
    <path
       d="m -20,-10 40,20 m -40,0 40,-20"
       id="path11"
       inkscape:connector-curvature="0"
       style="stroke:#ffffff;stroke-width:3" />
    <path
       d="m -20,-10 40,20 m -40,0 40,-20"
       id="path13"
       inkscape:connector-curvature="0"
       style="stroke:#cf142b;stroke-width:2" />
    <path
       d="M 0,0 20,10 H 17 L -3,0 m 3,0 20,-10 h 3 L 3,0 M 0,0 -20,10 h -3 L -3,0 m 3,0 -20,-10 h 3 L 3,0"
       id="path15"
       inkscape:connector-curvature="0"
       style="fill:#ffffff" />
    <path
       d="M -20,0 H 20 M 0,-10 v 20"
       id="path17"
       inkscape:connector-curvature="0"
       style="stroke:#ffffff;stroke-width:5" />
    <path
       d="M -20,0 H 20 M 0,-10 v 20"
       id="path19"
       inkscape:connector-curvature="0"
       style="stroke:#cf142b;stroke-width:3" />
  </g>
  <path
     d="m 13.6647,10.345972 c -0.305767,0.25883 -0.597333,0.63713 -0.668433,0.97846 -0.201234,0.96144 -0.468634,1.17547 -0.881767,0.96854 0,0.51626 0.452967,0.5561 0.651367,0.2546 0,0.48353 0.175666,0.9038 0.571733,1.2622 0.1671,0.15076 0.1991,0.0477 0.119467,-0.11874 -0.07967,-0.16713 -0.07967,-0.70686 -0.238234,-1.0169 0.253867,0.18277 0.6272,0.0797 0.5952,-0.421 -0.325666,0.1906 -0.649233,0.1835 -0.682666,-0.2702 -0.0398,-0.5319 0.167833,-1.30346 0.533333,-1.637 z M 13.278567,6.5209025 c 0.02133,-0.1906 -0.0192,-0.38687 -0.158567,-0.50917 -0.2695,-0.2375 -0.533333,-0.15856 -0.7296,0.032 -0.293667,-0.15856 -0.450133,0.40464 -0.783667,0.30934 0.0555,0.18276 0.142967,0.26166 0.310067,0.1984 -0.174933,0.15856 0,0.34916 -0.206233,0.54043 0.372633,0.11877 0.571733,-0.0875 0.5554,-0.44513 0.142933,0.12726 0.3655,0.11946 0.484266,-0.0235 -0.1984,-0.064 -0.199133,-0.2368 -0.118766,-0.39753 0.118766,-0.2382 0.6784,-0.22897 0.6471,0.29513 z"
     id="path23"
     inkscape:connector-curvature="0"
     style="fill:#f7e017;stroke:#000000;stroke-width:0.021" />
  <path
     d="m 14.140433,9.2835725 c -0.420966,0.22186 -1.1918,0.12656 -1.262933,-0.421 -0.0711,-0.54754 0.4608,-0.7943 0.603733,-0.8654 0.2226,-0.11167 0.3968,0.0867 0.3257,0.31713 a 0.36053333,0.36053333 0 0 0 0.182034,-0.54043 c 0.3257,0.0242 0.627933,-0.22187 0.7545,-0.571 -0.113767,0.10876 -0.425234,0.0355 -0.681967,0.0185 0.07967,-0.0875 0.07823,-0.2567 0.05477,-0.34416 -0.270234,0.27733 -0.6592,0.15076 -1.175467,0.9529 0.07967,-0.27734 0.2304,-0.83414 0.317867,-1.19894 a 0.9031,0.9031 0 0 0 0.0199,-0.11023 c 0.0313,-0.5241 -0.527634,-0.53333 -0.6471,-0.2951 0.130833,0.1472 0.06257,0.31927 0.01567,0.57953 -0.0555,0.31007 -0.174966,1.02474 -0.277333,1.26294 -0.032,-0.37334 -0.278767,-0.3968 -0.326433,-0.57954 -0.0711,0.0476 -0.110934,0.17494 -0.09527,0.26167 -0.08747,-0.0953 -0.389,0.0242 -0.499933,-0.11873 -0.119467,0.2382 0.07113,0.47643 0.270233,0.57953 -0.1159,0.008 -0.143667,0.1472 -0.270233,0.1472 0.170666,0.1984 0.3449,0.27733 0.547566,0.2937 0.202667,0.0164 0.353434,0.091 0.476434,0.33777 0.199133,0.3968 0.955,0.65423 1.668266,0.2937 z"
     id="path25"
     inkscape:connector-curvature="0"
     style="fill:#337321;stroke:#000000;stroke-width:0.021" />
  <path
     d="m 15.188633,8.7985725 c -0.238233,0.6592 -0.8896,1.12853 -1.184,1.19966 C 13.5047,10.119102 12.484967,10.614772 12.2112,10.869332"
     id="path27"
     inkscape:connector-curvature="0"
     style="fill:#f7e017;stroke:#000000;stroke-width:0.021" />
  <path
     d="m 13.6647,10.345972 c -0.376867,0.32 -0.573133,1.10506 -0.533333,1.63766 0.01067,0.14794 0.05263,0.2482 0.1152,0.30934 0.02847,-0.3015 0.238233,-1.08087 0.7744,-1.42934 0.452266,-0.29366 1.159133,-0.9528595 1.421533,-1.7073595 -0.04767,-0.1351 -0.1273,-0.2304 -0.278067,-0.32567 C 14.9049,9.5431025 14.208,9.8844325 13.664,10.345272 Z"
     id="path29"
     inkscape:connector-curvature="0"
     style="fill:#337321;stroke:#000000;stroke-width:0.021" />
  <path
     d="m 14.946833,8.4935025 c -0.1351,0.20197 -0.440866,0.48 -0.734566,0.59167 0.0633,-0.0718 0.0832,-0.16357 0.08677,-0.23894 -0.373333,0.14364 -1.1193,0.128 -1.421533,0.0163 a 1.9392,1.9392 0 0 0 1.922133,-0.5717 c 0.064,0.0711 0.118767,0.1351 0.1472,0.20266 z"
     id="path31"
     inkscape:connector-curvature="0"
     style="fill:#316d3a;stroke:#000000;stroke-width:0.021" />
  <path
     d="m 12.091,10.156802 c -0.606567,0.5689 -0.2062,1.06453 0.032,1.17547 -0.064,0.3968 0.310067,0.34916 0.301533,0.68266 0.151467,-0.0875 0.1913,-0.31716 0.1671,-0.4999 0.1906,0.2062 0.675567,-0.0242 0.777967,0.35697 0.064,-0.421 -0.261667,-0.84197 -0.667,-0.80213 0.1671,-0.15077 0.0711,-0.3968 -0.08677,-0.4601 -0.032,0.30933 -0.381166,0.30933 -0.516266,0.21406 -0.135134,-0.0953 -0.246767,-0.40533 -0.0085,-0.66703 z"
     id="path33"
     inkscape:connector-curvature="0"
     style="fill:#337321;stroke:#000000;stroke-width:0.021" />
  <path
     d="m 13.405867,13.769972 c -0.06613,0.0377 -0.06117,0.123 -0.0199,0.17846 0.0832,0.11094 -0.05833,0.36267 0.210466,0.41674 0.07967,0.0163 0.1408,-0.0327 0.170667,-0.12304 0.08393,-0.25033 -0.182733,-0.27733 -0.2062,-0.3968 -0.0242,-0.11946 -0.09957,-0.10736 -0.155033,-0.0754 z"
     id="path35"
     inkscape:connector-curvature="0"
     style="fill:#f7e017;stroke:#000000;stroke-width:0.021" />
  <path
     d="m 13.632,14.238572 c -0.0889,0.0413 -0.1671,0.0996 -0.130833,0.38473 0.0142,0.11873 0.0071,0.40533 -0.0953,0.4096 0.0633,0.0313 0.1984,0.0654 0.253866,-0.009 0.05333,0.0896 0.174934,0.064 0.222567,-0.0477 0.0633,0.0519 0.150767,-0.0355 0.150767,-0.11093 0.05547,0.0356 0.1664,-0.0156 0.138666,-0.1863 0.06757,0.0235 0.155,-0.0242 0.187,-0.0676 -0.09953,-0.0199 -0.349833,-0.155 -0.409566,-0.2624 -0.05903,-0.10667 -0.214067,-0.15857 -0.317167,-0.11093 z"
     id="path37"
     inkscape:connector-curvature="0"
     style="fill:#f7e017;stroke:#000000;stroke-width:0.021" />
  <path
     d="m 12.256,6.2073025 c 0.04053,-0.0597 0.08533,-0.1152 0.1351,-0.16357 m 1.376,1.21457 c 0.07113,-0.0398 0.177067,-0.0448 0.295133,-0.037 m -0.4018,7.8029995 c -0.02843,-0.0391 -0.03767,-0.2062 -0.01847,-0.30716 m 0.240333,0.26026"
     id="path39"
     inkscape:connector-curvature="0"
     style="fill:none;stroke:#000000;stroke-width:0.02133333" />
  <path
     d="m 17.833233,10.164632 c 0.977067,0.81777 1.040367,1.46914 0.8896,1.8503 -0.07963,-0.357 -0.484266,-0.91306 -0.905233,-1.056 l 0.01567,-0.79433 z"
     id="path41"
     inkscape:connector-curvature="0"
     style="fill:#f7e017;stroke:#000000;stroke-width:0.021" />
  <path
     d="m 16.086033,9.7045325 h 1.8112 v 2.1439995 c 0,1.82614 -1.016866,2.90634 -2.0494,3.47804 -1.032533,-0.571 -2.048733,-1.6519 -2.048733,-3.47804 V 9.7045325 h 1.270767 c 0.0021,0.11094 0.0121,0.27734 0.142233,0.4444395 0.300067,-0.0299 0.64,-0.2538695 0.874667,-0.4444395 z"
     id="path43"
     inkscape:connector-curvature="0"
     style="fill:#337321;stroke:#000000;stroke-width:0.021" />
  <path
     d="m 17.896533,9.7045325 v 2.1439995 c 0,0.5511 -0.09243,1.03467 -0.250333,1.45634 l -1.797667,-3.29954 -1.7984,3.29957"
     id="path45"
     inkscape:connector-curvature="0"
     style="fill:#006ec7;stroke:#000000;stroke-width:0.021" />
  <g
     id="g55"
     transform="matrix(0.03333333,0,0,0.03333333,0,2.5e-6)"
     style="fill:#f7e017;stroke:#000000;stroke-width:0.03">
    <path
       d="m 499.968,429.653 c 1.43,0.726 4.053,2.048 5.248,2.518 2.859,-5.718 3.35,-13.803 2.39,-20.971 -3.094,7.893 -13.59,7.637 -16.427,12.395 1.749,0.874 3.37,2.026 4.778,3.05 -3.562,3.563 -11.946,9.6 -16.704,11.008 V 386.56 c 0,-3.584 -1.194,-6.55 -1.194,-9.536 v -10.56 c 0,-2.39 -0.47,-5.845 -2.624,-5.845 -2.155,0 -2.603,3.456 -2.603,5.845 v 10.56 c 0,2.987 -1.195,6.421 -1.195,9.536 v 51.093 c -2.624,-7.616 -12.885,-5.013 -17.642,-12.629 a 13.525,13.525 0 0 1 5.717,-0.235 c -3.563,-12.16 -13.333,-13.098 -15.232,-16.682 0,5.013 -2.133,16.682 1.173,21.696 a 13.27,13.27 0 0 1 3.243,-2.646 c 4.053,8.811 22.25,8.832 26.539,23.36 3.456,-5.333 15.85,-11.52 24.533,-20.864 z"
       id="path47"
       inkscape:connector-curvature="0"
       style="stroke-width:0.63999993" />
    <path
       d="m 475.435,387.136 c 4.053,0 16.917,-1.323 21.546,-1.323 1.216,0 2.219,-1.792 2.219,-4.032 0,-2.24 -1.003,-4.053 -2.197,-4.053 -4.651,0 -17.515,-1.301 -21.547,-1.301 -4.032,0 -16.939,1.301 -21.59,1.301 -1.194,0 -2.175,1.813 -2.175,4.053 0,2.24 0.981,4.054 2.176,4.054 4.65,0 17.514,1.301 21.568,1.301 z m -2.603,-20.928"
       id="path49"
       inkscape:connector-curvature="0"
       style="stroke-width:0.63999993" />
    <path
       d="m 453.888,385.813 c 1.216,0 2.197,-1.792 2.197,-4.032 0,-2.24 -0.981,-4.053 -2.197,-4.053"
       id="path51"
       inkscape:connector-curvature="0"
       style="stroke-width:0.63999993" />
    <path
       d="m 455.68,385.813 c 1.216,0 2.197,-1.792 2.197,-4.032 0,-2.24 -0.981,-4.053 -2.197,-4.053 m 11.755,8.917 c 1.472,0 2.645,-2.176 2.645,-4.864 0,-2.688 -1.173,-4.885 -2.645,-4.885 m 2.752,9.984 c 1.514,0 2.773,-2.283 2.773,-5.12 0,-2.795 -1.259,-5.077 -2.773,-5.077 m 9.152,10.24 c 1.536,0 2.773,-2.304 2.773,-5.142 0,-2.858 -1.237,-5.162 -2.773,-5.162 m 2.88,10.154 c 1.514,0 2.773,-2.24 2.773,-4.992 0,-2.773 -1.259,-4.992 -2.773,-4.992 m 12.778,9.131 c 1.216,0 2.219,-1.856 2.219,-4.139 0,-2.282 -1.003,-4.117 -2.219,-4.117 m -46.144,49.493 a 18.133,18.133 0 0 1 5.12,-2.133 m 43.392,2.603 -1.408,-1.003 m 4.011,3.03 c 3.328,-3.563 6.123,-7.617 7.637,-12.246"
       id="path53"
       inkscape:connector-curvature="0"
       style="stroke-width:0.63999993" />
  </g>
  <g
     id="g63"
     transform="matrix(0.03333333,0,0,0.03333333,0,2.5e-6)"
     style="stroke:#000000;stroke-width:0.03">
    <path
       d="m 464.533,336.597 c 0,-1.152 0.939,-1.664 2.07,-2.496 1.322,-1.002 1.877,-1.493 3.093,-1.493 h 15.637 c 1.152,0 1.43,0.299 1.43,1.365 v 21.27 c 0,1.066 -0.278,1.365 -1.43,1.365 h -20.8 v -20.181"
       id="path57"
       inkscape:connector-curvature="0"
       style="fill:#ffffff;stroke-width:0.63999993" />
    <path
       d="m 481.472,358.464 c 2.048,0 1.685,-0.043 3.115,-1.493 1.493,-1.494 1.365,-1.366 1.365,-2.752 v -19.435 c 0,-1.003 -0.235,-1.28 -1.323,-1.28 h -14.442 c -1.131,0 -1.622,0.427 -2.859,1.387 -1.045,0.789 -1.92,1.258 -1.92,2.346 v 21.227 h 16.085 z"
       id="path59"
       inkscape:connector-curvature="0"
       style="fill:#e5e5e5;stroke-width:0.63999993" />
    <path
       d="m 482.987,358.016 c 0,1.067 -0.256,1.365 -1.43,1.365 H 465.92 c -1.152,0 -1.408,-0.298 -1.408,-1.365 v -21.27 c 0,-1.066 0.256,-1.365 1.408,-1.365 h 15.637 c 1.174,0 1.43,0.299 1.43,1.366 z"
       id="path61"
       inkscape:connector-curvature="0"
       style="fill:#ffffff;stroke-width:0.63999993" />
  </g>
  <path
     d="m 17.110767,9.2892325 c 0.101666,0.11307 0.1351,0.26527 0.07963,0.4146 H 17.03963 c 0.0633,-0.1906 0.02347,-0.37263 -0.246733,-0.3968 -0.4032,-0.0356 -0.873267,0.7466695 -1.5801,0.8419395 -0.206233,-0.2460395 -0.195567,-0.7153695 0.06683,-0.9372395 -0.1351,-0.3911 -0.421666,-0.82063 -0.620066,-1.00623"
     id="path65"
     inkscape:connector-curvature="0"
     style="fill:#96877d;stroke:#000000;stroke-width:0.021" />
  <path
     d="m 15.348633,9.4976025 c -0.03487,-0.5305 -0.2489,-0.96567 -0.549,-1.26293 0.142234,0.0391 0.436634,0.0391 0.635034,-0.10384 0.2624,-0.1742 0.945066,-0.48 1.194666,-0.34913 a 0.38966667,0.38966667 0 0 1 0.01633,0.2062 c -0.0597,-0.15857 -0.7182,0.0875 -0.905234,0.16357 -0.178466,0.0832 -0.258133,0.19413 -0.194833,0.44443 -0.1031,-0.0875 -0.06757,-0.17067 -0.174233,-0.23467 0.0434,0.10314 0.07893,0.29014 0.09103,0.4409 -0.03983,-0.10523 -0.110933,-0.33706 -0.265967,-0.47146 0.135134,0.26166 0.252467,0.891 0.197,1.22453 0.106667,0 0.343467,-0.10523 0.438034,-0.18063 -0.0832,0.11946 -0.323567,0.20266 -0.477867,0.23466 -0.06967,0.0832 -0.117333,0.29727 -0.113767,0.4167405 -0.0114,-0.1472005 0.03483,-0.5049005 0.1088,-0.5283705 z m 1.762134,-0.20833 c -0.131567,-0.1465 -0.3769,-0.22617 -0.6912,-0.14084 0.04763,-0.0242 0.151466,-0.064 0.242466,-0.0796 -0.01207,-0.0832 -0.08747,-0.4409 -0.09953,-0.52767 l 0.08747,-0.0355 c 0.04407,0.21333 0.09953,0.4601 0.1351,0.55967 0.02843,0.007 0.09173,0.0199 0.1472,0.0476 -0.02417,-0.0839 -0.1593,-0.68267 -0.155,-0.74667 l 0.119433,-0.064 c 0.04767,0.32567 0.123033,0.79857 0.213333,0.987 z"
     id="path67"
     inkscape:connector-curvature="0"
     style="stroke-width:0.03333334" />
  <path
     d="m 17.039667,9.7038325 c 0.06327,-0.1906 0.02343,-0.37263 -0.246067,-0.3968 -0.209767,-0.0185 -0.436633,0.18487 -0.705433,0.3968 h 0.951466 z m -1.755034,-1.71093"
     id="path69"
     inkscape:connector-curvature="0"
     style="fill:#96877d;stroke:#000000;stroke-width:0.02133333" />
  <path
     d="m 15.279667,9.2117325 c 0.04407,0.12657 0.0725,0.2489 0.07677,0.35767 M 14.9191,7.6280725 c -0.0711,0.10456 -0.1344,0.21763 -0.155,0.3129 0.1351,0.0441 0.401067,0.0676 0.520533,0.0519"
     id="path71"
     inkscape:connector-curvature="0"
     style="fill:none;stroke:#000000;stroke-width:0.021" />
  <path
     d="m 14.659567,8.2055025 c 0.0512,0.009 0.09953,0.0185 0.140066,0.0292 0.142934,0.0398 0.436634,0.0398 0.635734,-0.1031 0.199133,-0.14294 0.738133,-0.58667 1.3497,-0.635"
     id="path73"
     inkscape:connector-curvature="0"
     style="fill:none;stroke:#000000;stroke-width:0.021" />
  <path
     d="m 14.501667,8.0682725 c 0.1906,0.0398 0.583833,0.0597 0.782233,-0.0754 0.4608,-0.3136 0.905267,-0.49637 1.3497,-0.52053"
     id="path75"
     inkscape:connector-curvature="0"
     style="fill:none;stroke:#000000;stroke-width:0.021" />
  <path
     d="m 17.833233,10.164632 c 0.667034,0.4608 1.159134,0.90524 1.302767,1.6206 0.142233,0.71467 0.412433,0.90527 0.746667,0.71467 -0.07967,0.41247 -0.4928,0.4601 -0.841967,0.14223 0.032,0.47644 -0.159267,1.0489 -0.651367,1.2551 -0.032,-0.28586 0.157167,-0.512 0.1031,-0.74666 -0.02347,-0.1031 -0.03127,-0.34134 0.103134,-0.45227 -0.2617,0.0875 -0.674867,-0.0796 -0.714667,-0.4686 0.3022,0.14293 0.6912,0.1671 0.841933,-0.21407 0.150767,-0.38113 0.08747,-1.03253 -0.888866,-1.851 z M 18.6752,6.4483725 c 0.206233,-0.54047 0.746667,-0.48427 0.9287,-0.25387 0.532633,-0.30223 0.604467,0.38113 1.056733,0.24603 -0.0085,0.12657 -0.1593,0.24604 -0.3257,0.23824 0.174234,0.15856 -0.0711,0.3968 0.3015,0.54043 -0.317866,0.15857 -0.7623,-0.009 -0.881766,-0.44517 -0.1031,0.20624 -0.476434,0.20624 -0.6272,0.0398 0.325666,-0.0875 0.302233,-0.38967 0.119466,-0.50844 -0.184166,-0.1202 -0.508433,-0.0711 -0.571733,0.1422 z m -1.610667,1.18896 c 0.1479,0.47787 0.4551,0.92234 0.785067,1.22524 0.381167,0.34916 0.956433,0.2617 1.278567,-0.0711 0.0071,0.6649 -0.681234,0.7161 -1.064534,0.50773 -0.168533,-0.0924 -0.305766,-0.0434 -0.1422,0.1031 0.245334,0.2226 0.784334,0.38757 1.4208,0.5241 1.112167,0.2382295 0.714667,1.1199995 0.388967,1.1121695 0.09387,-0.002 0.170667,-0.0995 0.03557,-0.22044 -0.964267,-0.8675595 -2.926234,-0.52623 -2.894234,-2.4639995 -0.206233,0.50844 -1.056,0.31004 -0.6592,-0.29366 0.1273,0.1031 0.349867,0.1109 0.412434,-0.0477 0.0498,-0.12373 0.0178,-0.3385 -0.2048,-0.52337 0.03627,-0.003 0.1152,0 0.106666,-0.091 0.01067,0.0533 0.05903,0.133 0.1842,0.10667 0.03553,0.0562 0.07323,0.0932 0.123734,0.0732 0.0099,-0.004 0.0398,-0.0192 0.02843,-0.0761 0.0092,0.10524 0.1351,0.14294 0.200533,0.1351 z"
     id="path77"
     inkscape:connector-curvature="0"
     style="fill:#337321;stroke:#000000;stroke-width:0.021" />
  <path
     d="m 18.063667,9.2992025 c 0.460766,0.3015 0.981333,0.3015 1.461333,-0.25387 0.150733,-0.17493 0.388967,-0.32566 0.556067,-0.34133 0.1664,-0.0164 0.158566,-0.17493 0.285866,-0.20623 -0.07967,-0.0242 -0.110933,-0.11947 -0.2304,-0.10807 0.297967,-0.10313 0.2105,-0.34133 0.357667,-0.45653 -0.119433,0.0441 -0.305767,-0.13514 -0.476433,0.0917 0.0434,-0.10383 -0.01633,-0.22687 -0.05973,-0.2745 0.01567,0.11947 -0.234666,0.14293 -0.2823,0.44517 -0.02633,0.16923 -0.118766,0.15856 -0.1351,-0.10314 -0.0114,-0.192 -0.103133,-0.7232 -0.213333,-0.9927 -0.111667,-0.27023 -0.137267,-0.6407 0.0142,-0.6969 m -1.118567,7.8094395 c 0.09813,0.0498 0.182034,0.11803 0.129434,0.4359 -0.02133,0.13156 -0.02633,0.45156 0.08887,0.4608 -0.07253,0.0327 -0.2247,0.064 -0.283,-0.0199 -0.064,0.0974 -0.1984,0.0633 -0.246766,-0.0633 -0.07323,0.0547 -0.1664,-0.0462 -0.163567,-0.13087 -0.06327,0.0377 -0.184867,-0.0249 -0.146467,-0.21403 -0.0768,0.0235 -0.1721,-0.0334 -0.206233,-0.0832 0.112333,-0.0178 0.3975,-0.15787 0.468633,-0.2752 0.0711,-0.11663 0.246034,-0.16783 0.3591,-0.11023 z"
     id="path79"
     inkscape:connector-curvature="0"
     style="fill:#f7e017;stroke:#000000;stroke-width:0.021" />
  <path
     d="m 18.1575,15.089072 c 0.03273,-0.0427 0.0512,-0.229 0.03343,-0.34277 m -0.279466,0.2809 A 0.5248,0.5248 0 0 0 18.08,14.754132 m -0.3321,0.1415 c 0.0626,-0.0263 0.221167,-0.21546 0.259567,-0.3406 m -0.406767,0.12587 c 0.07397,-0.0121 0.303667,-0.14933 0.4025,-0.30153"
     id="path81"
     inkscape:connector-curvature="0"
     style="fill:none;stroke:#000000;stroke-width:0.02133333" />
  <path
     d="m 16.872533,8.3541325 c -0.0135,0.81424 0.325,1.22597 0.7936,1.49404 -0.174233,-0.10454 -0.09883,-0.4622 -0.3335,-0.5767 0.05617,-0.004 0.142934,0.0754 0.2823,0.0434 -0.06757,-0.15073 -0.1785,-0.38113 -0.436633,-0.41243 0.06757,-0.008 0.214067,0.0156 0.309333,-0.0199 -0.1351,-0.20623 -0.492066,-0.1074 -0.6151,-0.52837 z m -0.08463,-0.77366 c -0.02843,-0.01 -0.05333,-0.0384 -0.0768,-0.0761 -0.125133,0.027 -0.1735,-0.0526 -0.183467,-0.10667 0.0071,0.0924 -0.0711,0.0882 -0.108066,0.091 0.224,0.1849 0.256,0.40037 0.2062,0.5241 -0.064,0.15857 -0.285867,0.15077 -0.412434,0.0477 -0.01633,0.33703 0.420267,0.448 0.578834,0.0234 0,0.0711 0.09173,0.064 0.1152,0.1593 0.1138,-0.18277 0.02847,-0.44517 -0.119467,-0.66277 z"
     id="path83"
     inkscape:connector-curvature="0"
     style="fill:#f7e017;stroke:#000000;stroke-width:0.021" />
  <path
     d="m 16.233233,5.0225725 c -0.0028,-0.0711 0.1209,-0.16427 0.288,-0.16284 0.200534,0.002 0.355567,0.1849 0.515567,0.1671 0.16,-0.0178 0.08177,0.0711 0.04767,0.0953 -0.03343,0.0235 -0.05333,0.0597 -0.04127,0.1031 0.0121,0.0434 -0.0085,0.0725 -0.07323,0.032 -0.142934,-0.0896 -0.2866,0.0356 -0.475034,-0.0341 -0.163566,-0.0597 -0.258133,-0.0924 -0.261666,-0.20053 z"
     id="path85"
     inkscape:connector-curvature="0"
     style="fill:#cf142b;stroke:#000000;stroke-width:0.02133333" />
  <path
     d="m 15.415467,6.8970725 c -0.07967,-0.25034 -0.381167,-0.5241 -0.528334,-0.5881 l -0.0078,-0.1351 c 0.07963,-0.0313 0.2702,-0.18204 0.357667,-0.26597 0.5952,0.28587 1.405166,-0.11873 1.7785,-0.53973 l 0.142933,0.0875 -0.0711,0.0953 -0.0754,-0.0398 c -0.09173,0.11093 -0.432333,0.43237 -0.536167,0.4992 0.139367,0.0356 0.328534,0.0597 0.381167,0.0569 0.3335,-0.23823 0.5952,-0.453 0.722467,-0.46933 l 0.106666,0.14366 -0.09457,0.0675 -0.07537,-0.0441 c -0.3577,0.2944 -0.762333,0.93726 -0.9216,1.36606 -0.221867,-0.0477 -1.0169,-0.0157 -1.179033,-0.23466 z"
     id="path87"
     inkscape:connector-curvature="0"
     style="fill:#96877d;stroke:#000000;stroke-width:0.02133333" />
  <path
     d="m 15.446767,6.8096025 c -0.05333,-0.29583 0.032,-0.62367 0.182733,-0.7225 0.329967,0.21833 0.893867,0.21833 1.2274,-0.0199"
     id="path89"
     inkscape:connector-curvature="0"
     style="fill:none;stroke:#000000;stroke-width:0.02133333" />
  <path
     d="m 15.446767,6.6545725 c 0.254566,-0.007 0.8064,0.0356 0.9415,0.0555 0.1351,0.0199 0.361233,0.0754 0.329233,0.14294 m -1.1534,-0.24034 0.07323,-0.0733 -0.07323,-0.0725 -0.07253,0.0725 z"
     id="path91"
     inkscape:connector-curvature="0"
     style="fill:none;stroke:#000000;stroke-width:0.02133333" />
  <path
     d="m 15.7369,5.1342325 c -0.09103,-0.128 -0.342767,-0.16783 -0.3968,0.004 -0.0242,0.0754 -0.05973,0.15503 -0.119467,0.1906 -0.05903,0.0355 -0.04553,0.14433 -0.0192,0.19056 0.06327,0.1152 0.0071,0.22614 0.130834,0.30224 0,-0.0917 0.1351,-0.18704 0.250333,-0.2105 0.115167,-0.0242 0.2894,-0.1273 0.312867,-0.24177 0.02417,-0.11593 0.064,-0.2112 -0.158567,-0.23467 z"
     id="path93"
     inkscape:connector-curvature="0"
     style="fill:#337321;stroke:#000000;stroke-width:0.02133333" />
  <path
     d="m 15.164433,6.2776725 h 0.032 v 0.2169 c 0.0071,0.002 0.01423,0.006 0.0192,0.01 l 0.187034,-0.1081 0.01633,0.0285 -0.1877,0.10807 a 0.0569,0.0569 0 0 1 0,0.0213 l 0.187733,0.1088 -0.01637,0.027 -0.187734,-0.1081"
     id="path95"
     inkscape:connector-curvature="0"
     style="fill:#96877d;stroke:#000000;stroke-width:0.02133333" />
  <path
     d="m 15.022233,7.1673025 c -0.02347,-0.0285 -0.06757,-0.10383 -0.064,-0.1593 a 0.20623333,0.20623333 0 0 1 0.1351,0.0519 c -0.0036,-0.0398 -0.0192,-0.12727 -0.01137,-0.1671 0.04337,0.0163 0.1351,0.0676 0.1664,0.1273"
     id="path97"
     inkscape:connector-curvature="0"
     style="fill:#337321;stroke:#000000;stroke-width:0.02133333" />
  <path
     d="m 16.3513,5.0631025 c -0.0014,-0.0284 0.064,-0.0953 0.1806,-0.0946 0.1401,7e-4 0.270233,0.10384 0.3826,0.0967 0.112333,-0.007 0.05687,0.0285 0.0334,0.0384 -0.02347,0.01 -0.03767,0.0249 -0.02913,0.0427 0.0085,0.0178 -0.0064,0.0292 -0.0512,0.0128 -0.100267,-0.0363 -0.200534,0.0142 -0.3328,-0.0142 -0.1138,-0.0242 -0.180634,-0.0377 -0.183467,-0.0818 z"
     id="path99"
     inkscape:connector-curvature="0"
     style="fill:#f7e017;stroke-width:0.03333334" />
  <g
     id="g107"
     transform="matrix(0.03333333,0,0,0.03333333,0,2.5e-6)"
     style="stroke:#000000;stroke-width:0.186">
    <path
       d="m 454.357,222.165 c -3.562,4.267 -7.146,3.563 -7.85,0.832 -0.726,-2.752 1.92,-4.053 0.938,-6.442 -0.938,-2.39 1.558,-3.456 2.752,-2.39 1.195,1.067 4.992,-2.368 6.678,1.195 1.664,3.584 2.986,6.08 2.005,7.51 -0.939,1.429 -3.797,0.725 -4.523,-0.705 z m 15.36,-6.442 c -0.682,-1.558 3.03,-4.587 4.928,-2.432 1.92,2.133 4.907,-2.347 6.571,1.066 1.664,3.392 2.197,5.184 3.03,7.083 0.853,1.92 -4.523,2.923 -6.187,1.259 0.213,1.13 -4.63,2.005 -5.974,-1.195 z m 24.79,1.962 c -0.896,-1.664 3.456,-4.053 5.717,-1.002 0.597,-1.259 4.907,-1.494 5.184,2.133 0.299,3.627 0.427,5.781 0.533,7.21 0.107,1.43 -2.602,2.731 -4.586,-0.895 -3.499,0.725 -5.12,-1.238 -5.547,-3.328 -0.427,-2.091 -0.81,-3.094 -1.28,-4.118 z"
       id="path101"
       inkscape:connector-curvature="0"
       style="fill:#f7e017;stroke-width:0.63999993" />
    <path
       d="m 456.661,215.317 c -0.533,-1.194 3.051,-3.584 5.483,-1.792 2.453,1.792 5.824,-1.557 7.253,1.664 2.923,6.486 3.115,6.976 2.219,8.214 -0.896,1.258 -4.693,0.768 -5.653,-0.939 -0.192,1.173 -3.478,0.981 -5.184,0.043 -1.963,-1.067 -3.35,-5.056 -4.118,-7.19 z m 25.088,0.278 c -0.853,-1.835 4.758,-3.435 7.19,-0.214 1.258,-1.152 3.989,-1.216 5.546,2.304 1.558,3.52 1.792,5.483 0.64,6.379 -0.789,0.64 -3.669,1.13 -4.629,-0.47 -1.323,0.833 -5.355,0.107 -6.25,-2.133 -0.897,-2.282 -1.665,-4.266 -2.497,-5.866 z m 23.702,3.52 c -0.107,-1.664 2.922,-2.432 4.053,0 1.13,2.432 4.757,0.256 5.077,4.288 0.043,0.768 -0.426,3.754 -1.557,5.184 -1.13,1.429 -6.677,0 -7.04,-3.03"
       id="path103"
       inkscape:connector-curvature="0"
       style="fill:#337321;stroke-width:0.63999993" />
    <path
       d="m 454.357,222.165 c -1.301,-1.792 -3.093,-4.65 -5.354,-1.557 m 16.981,1.835"
       id="path105"
       inkscape:connector-curvature="0"
       style="fill:none;stroke-width:0.63999993" />
  </g>
</svg>
