<?xml version="1.0" encoding="UTF-8" standalone="no"?>
<svg
   xmlns:dc="http://purl.org/dc/elements/1.1/"
   xmlns:cc="http://creativecommons.org/ns#"
   xmlns:rdf="http://www.w3.org/1999/02/22-rdf-syntax-ns#"
   xmlns:svg="http://www.w3.org/2000/svg"
   xmlns="http://www.w3.org/2000/svg"
   xmlns:sodipodi="http://sodipodi.sourceforge.net/DTD/sodipodi-0.dtd"
   xmlns:inkscape="http://www.inkscape.org/namespaces/inkscape"
   height="16"
   width="21.333332"
   viewBox="0 0 21.333332 16"
   version="1.1"
   id="svg308"
   sodipodi:docname="py.svg"
   inkscape:version="0.92.1 r">
  <metadata
     id="metadata314">
    <rdf:RDF>
      <cc:Work
         rdf:about="">
        <dc:format>image/svg+xml</dc:format>
        <dc:type
           rdf:resource="http://purl.org/dc/dcmitype/StillImage" />
        <dc:title></dc:title>
      </cc:Work>
    </rdf:RDF>
  </metadata>
  <defs
     id="defs312" />
  <sodipodi:namedview
     pagecolor="#ffffff"
     bordercolor="#666666"
     borderopacity="1"
     objecttolerance="10"
     gridtolerance="10"
     guidetolerance="10"
     inkscape:pageopacity="0"
     inkscape:pageshadow="2"
     inkscape:window-width="1920"
     inkscape:window-height="1024"
     id="namedview310"
     showgrid="false"
     fit-margin-top="0"
     fit-margin-left="0"
     fit-margin-right="0"
     fit-margin-bottom="0"
     inkscape:zoom="0.49166667"
     inkscape:cx="320"
     inkscape:cy="240"
     inkscape:window-x="0"
     inkscape:window-y="0"
     inkscape:window-maximized="1"
     inkscape:current-layer="svg308" />
  <path
     d="M 0,10.65667 H 21.333333 V 16 H 0 Z"
     id="path2"
     inkscape:connector-curvature="0"
     style="fill:#0038a8;stroke-width:0.03333334" />
  <path
     d="m 0,5.33333 h 21.333333 v 5.33334 H 0 Z"
     id="path4"
     inkscape:connector-curvature="0"
     style="fill:#ffffff;stroke-width:0.03333334" />
  <path
     d="M 0,0 H 21.333333 V 5.33333 H 0 Z"
     id="path6"
     inkscape:connector-curvature="0"
     style="fill:#d52b1e;stroke-width:0.03333334" />
  <g
     transform="matrix(0.048485,0,0,0.048485,-3.8788,0)"
     id="g14"
     style="fill:none;stroke:#000000">
    <circle
       cx="300"
       cy="165"
       r="42.200001"
       id="circle8"
       style="stroke-width:1.07599998" />
    <circle
       cx="300"
       cy="165"
       r="34.669998"
       id="circle10"
       style="stroke-width:0.47799999" />
    <circle
       cx="300"
       cy="165"
       r="26.559999"
       id="circle12"
       style="stroke-width:0.43799999" />
  </g>
  <path
     d="m 9.5772333,8.78933 -0.2372,0.1409 -0.072533,-0.12216 c -0.013433,-0.0227 -0.0218,-0.0411 -0.025,-0.0554 a 0.06433333,0.06433333 0 0 1 0.0044,-0.0418 c 0.00617,-0.0136 0.016767,-0.0249 0.0319,-0.0338 0.013133,-0.008 0.026167,-0.0117 0.039,-0.0118 a 0.07666667,0.07666667 0 0 1 0.037,0.009 c 0.0075,0.004 0.015733,0.0107 0.024667,0.0202 -0.00227,-0.0105 -0.00313,-0.0186 -0.0026,-0.0243 3.333e-4,-0.004 0.00217,-0.0102 0.0055,-0.0191 0.00333,-0.009 0.0062,-0.0153 0.00867,-0.019 l 0.047667,-0.0763 0.0492,0.0829 -0.049233,0.0822 c -0.00647,0.0105 -0.00993,0.0186 -0.010433,0.0241 -5.333e-4,0.007 0.0012,0.0145 0.00517,0.0212 l 0.00383,0.006 0.096333,-0.0572 z m -0.1848,0.0102 -0.018333,-0.0309 c -0.002,-0.003 -0.00693,-0.009 -0.0148,-0.0175 a 0.02253333,0.02253333 0 0 0 -0.014533,-0.007 0.0255,0.0255 0 0 0 -0.0165,0.004 c -0.00767,0.005 -0.012133,0.0105 -0.013333,0.0178 -0.00123,0.007 0.00213,0.0176 0.010067,0.031 l 0.019133,0.0322 z M 9.169,8.61627 9.0969,8.39947 l 0.0559,-0.0186 0.045133,0.13567 0.0416,-0.0138 -0.041867,-0.1259 0.0534,-0.0178 0.041867,0.1259 0.0516,-0.0172 L 9.2981,8.32808 9.357433,8.30838 9.430766,8.52905 Z M 9.074467,8.29383 9.058334,8.15307 c -0.0035,-0.0307 0.00117,-0.0545 0.014,-0.0714 0.012833,-0.017 0.032667,-0.027 0.059667,-0.03 0.027667,-0.003 0.050233,0.003 0.067667,0.0175 0.017533,0.0148 0.028233,0.0393 0.032133,0.0735 l 0.00533,0.0463 0.1016667,-0.0116 0.00977,0.0851 z m 0.1071,-0.0984 -0.00233,-0.0208 C 9.177337,8.15833 9.173167,8.14713 9.16677,8.14113 a 0.0276,0.0276 0 0 0 -0.022933,-0.007 0.03066667,0.03066667 0 0 0 -0.0209,0.0111 c -0.00533,0.006 -0.00707,0.0175 -0.00527,0.0333 l 0.00277,0.0242 z m -0.1158334,-0.4194 0.0091,-0.0845 0.1635334,0.0177 a 0.13866667,0.13866667 0 0 1 0.045167,0.0125 c 0.013867,0.007 0.0256,0.0158 0.035233,0.0278 0.00967,0.0119 0.016,0.0241 0.019067,0.0364 0.00433,0.0171 0.00527,0.0372 0.00277,0.0603 -0.00143,0.0133 -0.00393,0.0278 -0.0075,0.0433 -0.00357,0.0156 -0.00867,0.0284 -0.0154,0.0384 -0.00667,0.01 -0.015667,0.0188 -0.0268,0.0265 -0.0112,0.008 -0.022333,0.0126 -0.0336,0.0147 -0.018,0.003 -0.033767,0.004 -0.047233,0.003 l -0.1635,-0.0177 0.00913,-0.0846 0.1674,0.0181 c 0.015,0.002 0.027133,-10e-4 0.036433,-0.009 0.00933,-0.007 0.014767,-0.0184 0.016333,-0.0332 0.0016,-0.0146 -0.00133,-0.0265 -0.00867,-0.0357 -0.00743,-0.009 -0.018767,-0.0146 -0.034,-0.0162 z M 9.1025666,7.57386 9.1552336,7.4232 c 0.00877,-0.0251 0.021733,-0.0422 0.038867,-0.0513 a 0.064,0.064 0 0 1 0.053233,-0.004 c 0.0154,0.005 0.026933,0.0148 0.0346,0.0283 0.0051,0.009 0.00767,0.0203 0.0076,0.0342 0.011,-0.0172 0.023567,-0.0282 0.0376,-0.0332 0.014,-0.005 0.029333,-0.005 0.045933,0.001 0.0135,0.005 0.024567,0.0121 0.033133,0.0221 0.0086,0.01 0.0141,0.0216 0.016567,0.0347 0.00157,0.008 8.333e-4,0.0193 -0.00213,0.0336 -0.004,0.0189 -0.007,0.0313 -0.0091,0.0373 l -0.048567,0.13893 z m 0.1305333,-0.0455 0.012233,-0.035 c 0.0044,-0.0125 0.00533,-0.022 0.00267,-0.0284 -0.0026,-0.006 -0.008,-0.0111 -0.016167,-0.0139 -0.00757,-0.003 -0.014333,-0.002 -0.020333,0.001 -0.006,0.003 -0.0111,0.0112 -0.015333,0.0234 l -0.012433,0.0355 z m 0.1023333,0.0358 0.014333,-0.041 c 0.00487,-0.0139 0.0058,-0.0245 0.0029,-0.0319 a 0.02633333,0.02633333 0 0 0 -0.016833,-0.0155 0.02433333,0.02433333 0 0 0 -0.021533,0.002 c -0.00667,0.004 -0.012467,0.013 -0.017333,0.0271 l -0.014333,0.0409 z M 9.233,7.2422 9.277,7.1692 9.4551,7.27667 9.523833,7.16273 9.582,7.19783 9.4692,7.38477 Z m 0.1668,-0.2526 0.054667,-0.0657 0.212,0.17667 -0.054733,0.0657 z m 0.3708667,-0.14253 0.0714,-0.0316 c 0.00987,0.0191 0.015267,0.0376 0.016267,0.0553 0.001,0.0177 -0.00233,0.0345 -0.00977,0.0503 -0.00747,0.0158 -0.020567,0.0318 -0.039333,0.0479 -0.022733,0.0196 -0.044167,0.0322 -0.064267,0.038 -0.020133,0.006 -0.042567,0.005 -0.067333,-0.003 -0.024767,-0.008 -0.048333,-0.0245 -0.070667,-0.0505 -0.029733,-0.0346 -0.0434,-0.0691 -0.041,-0.10357 0.00243,-0.0344 0.0205,-0.0661 0.054167,-0.095 0.026333,-0.0227 0.051667,-0.0352 0.0759,-0.0375 0.024267,-0.002 0.049533,0.004 0.075833,0.0202 l -0.0462,0.0618 c -0.00743,-0.005 -0.013533,-0.007 -0.018267,-0.009 a 0.04906667,0.04906667 0 0 0 -0.023067,0 0.05033333,0.05033333 0 0 0 -0.021,0.0111 c -0.014667,0.0126 -0.0208,0.0281 -0.018467,0.0467 0.0016,0.0138 0.010467,0.0301 0.026567,0.0488 0.02,0.0232 0.037167,0.0361 0.0516,0.0387 0.014467,0.003 0.028067,-0.002 0.040833,-0.0126 0.012333,-0.0107 0.018733,-0.0221 0.0191,-0.0345 C 9.783296,6.8763 9.7792327,6.8622 9.7707297,6.8465 Z M 10.0645,6.74133 9.978833,6.78703 9.988503,6.83353 9.91157,6.87453 9.873237,6.5823 9.955304,6.5386 l 0.221267,0.19467 -0.07867,0.042 z m -0.04383,-0.0442 -0.073567,-0.0732 0.019933,0.1018 z m 0.260566,-0.28256 0.1248,-0.0216 c 0.02467,-0.004 0.0451,-0.004 0.0614,-2.7e-4 0.01633,0.004 0.03047,0.0115 0.04253,0.0222 0.012,0.0108 0.02167,0.024 0.029,0.0398 0.0073,0.0158 0.0126,0.033 0.0158,0.0515 0.005,0.0291 0.0056,0.0522 0.0018,0.0693 a 0.11376667,0.11376667 0 0 1 -0.0206,0.045 0.09116667,0.09116667 0 0 1 -0.0341,0.0281 0.19776667,0.19776667 0 0 1 -0.0488,0.0161 l -0.1248,0.0216 z m 0.09467,0.0471 0.02567,0.1485 0.02057,-0.004 c 0.01753,-0.003 0.02967,-0.007 0.03643,-0.0123 0.0068,-0.005 0.0114,-0.0129 0.01393,-0.0233 0.0025,-0.0105 0.0019,-0.0266 -0.0019,-0.0483 -0.005,-0.0288 -0.0131,-0.0477 -0.02433,-0.0567 -0.01123,-0.009 -0.02773,-0.0117 -0.0495,-0.008 z m 0.259767,-0.0946 0.228266,0.01 -0.0025,0.0589 -0.1429,-0.006 -0.0019,0.0438 0.132534,0.006 -0.0024,0.0562 -0.132567,-0.006 -0.0023,0.0543 0.147066,0.006 -0.0027,0.0624 -0.232434,-0.01 z m 0.332133,0.0262 0.0828,0.0203 -0.04943,0.202 0.129233,0.0317 -0.01617,0.0659 -0.212,-0.0519 z m 0.442667,0.1469 0.122,0.0721 c 0.02653,0.0157 0.04267,0.0338 0.04847,0.0542 0.0058,0.0205 0.0018,0.0423 -0.012,0.0657 -0.0142,0.024 -0.0325,0.0385 -0.0549,0.0434 -0.02233,0.005 -0.04833,-0.001 -0.078,-0.0188 l -0.04013,-0.0238 -0.0521,0.0881 -0.07367,-0.0436 z m 0.01387,0.14484 0.018,0.0106 c 0.0141,0.008 0.0255,0.0118 0.03413,0.0103 a 0.0276,0.0276 0 0 0 0.01973,-0.0138 0.03066667,0.03066667 0 0 0 0.0038,-0.0233 c -0.0019,-0.008 -0.0098,-0.0163 -0.02347,-0.0244 l -0.0209,-0.0123 z m 0.239234,0.3216 -0.07113,-0.0661 -0.0408,0.0243 -0.06383,-0.0593 0.263833,-0.1314 0.06807,0.0633 -0.112,0.27267 -0.06527,-0.0608 z m 0.02753,-0.0559 0.0452,-0.0933 -0.08977,0.052 z m 0.03307,0.18337 0.227466,-0.15607 0.08033,0.11713 c 0.01493,0.0217 0.02447,0.0397 0.02867,0.0537 0.0041,0.014 0.0036,0.028 -0.0017,0.042 -0.0053,0.0139 -0.01517,0.0259 -0.02967,0.0358 -0.0126,0.009 -0.02533,0.0134 -0.03817,0.0143 a 0.07653333,0.07653333 0 0 1 -0.0375,-0.007 c -0.0077,-0.004 -0.0164,-0.01 -0.02593,-0.0185 0.003,0.0103 0.0043,0.0183 0.0042,0.0241 -6.7e-5,0.004 -0.0015,0.0103 -0.0042,0.0194 a 0.10843333,0.10843333 0 0 1 -0.0073,0.0195 l -0.04267,0.0792 -0.0545,-0.0794 0.04377,-0.0853 c 0.0057,-0.0109 0.0087,-0.0192 0.0088,-0.0248 a 0.036,0.036 0 0 0 -0.0065,-0.0208 l -0.0043,-0.006 -0.09233,0.0633 z m 0.183766,-0.0222 0.02033,0.0297 c 0.0022,0.003 0.0075,0.009 0.01587,0.0165 0.0041,0.004 0.0091,0.006 0.015,0.007 a 0.0254,0.0254 0 0 0 0.0162,-0.005 c 0.0073,-0.005 0.01133,-0.0112 0.0121,-0.0186 7.67e-4,-0.007 -0.0033,-0.0174 -0.01207,-0.0303 l -0.02117,-0.0309 z m 0.0853,0.41304 -0.036,-0.0902 -0.04723,0.005 -0.03233,-0.0809 0.294733,-0.006 0.03443,0.0864 -0.2178,0.19854 -0.033,-0.0829 z m 0.0488,-0.0387 0.08087,-0.0651 -0.103333,0.009 z m 0.07197,0.30147 0.05673,-0.008 0.0195,0.13033 -0.116333,0.0173 c -0.02073,-0.0223 -0.0356,-0.0427 -0.0446,-0.061 -0.009,-0.0182 -0.0155,-0.0405 -0.01947,-0.0668 -0.0048,-0.0323 -0.0033,-0.0596 0.0047,-0.0817 0.008,-0.022 0.02207,-0.0403 0.04223,-0.0548 0.02013,-0.0145 0.04433,-0.0239 0.07267,-0.0281 0.02977,-0.004 0.0566,-0.002 0.08047,0.007 a 0.12066667,0.12066667 0 0 1 0.0582,0.0465 c 0.01157,0.0172 0.01967,0.0414 0.02433,0.0727 0.0046,0.0302 0.0052,0.0531 0.002,0.0689 a 0.08883333,0.08883333 0 0 1 -0.01987,0.041 c -0.01,0.0117 -0.02343,0.0212 -0.04033,0.0288 L 12.2076,7.82 C 12.2174,7.815 12.22443,7.8082 12.2287,7.7994 12.233,7.7904 12.2342,7.7799 12.2323,7.7675 12.2296,7.749 12.22097,7.7352 12.20647,7.7262 12.19197,7.7172 12.1708,7.7147 12.14304,7.7192 c -0.02953,0.004 -0.0498,0.0131 -0.0608,0.0261 -0.011,0.013 -0.015,0.0294 -0.012,0.0493 0.0014,0.009 0.0041,0.0182 0.0081,0.0263 0.0041,0.008 0.01017,0.0173 0.0184,0.0273 l 0.02567,-0.004 z m 0.180333,0.40046 -0.0075,0.0847 -0.163833,-0.0146 a 0.13866667,0.13866667 0 0 1 -0.0454,-0.0117 0.0998,0.0998 0 0 1 -0.03573,-0.0272 c -0.0098,-0.0118 -0.01643,-0.0238 -0.01973,-0.0361 -0.0047,-0.017 -0.006,-0.0371 -0.0039,-0.0602 0.0012,-0.0133 0.0034,-0.0279 0.0067,-0.0435 0.0032,-0.0157 0.0081,-0.0285 0.01467,-0.0387 a 0.09966667,0.09966667 0 0 1 0.02633,-0.027 c 0.011,-0.008 0.02207,-0.013 0.03323,-0.0153 0.018,-0.004 0.03367,-0.005 0.0472,-0.004 l 0.163833,0.0146 -0.0076,0.0847 -0.167733,-0.015 c -0.015,-10e-4 -0.02707,0.002 -0.03623,0.009 -0.0092,0.008 -0.0144,0.0188 -0.01567,0.0335 -0.0013,0.0147 0.0018,0.0265 0.0093,0.0355 0.0076,0.009 0.019,0.0143 0.03423,0.0157 z m -0.305,0.29187 0.03033,-0.0922 -0.03907,-0.0269 0.02723,-0.0828 0.229667,0.18467 -0.029,0.0883 -0.2945,0.0123 0.02787,-0.0848 z m 0.06233,0.002 0.103666,0.002 -0.08473,-0.0597 z m 0.09867,0.22433 -0.04867,0.0812 -0.108534,-10e-5 0.05127,0.0957 -0.04833,0.0807 -0.08243,-0.1744 -0.09913,-0.0594 0.04393,-0.0733 0.0991,0.0594 z"
     id="path16"
     inkscape:connector-curvature="0"
     style="stroke-width:0.03333334" />
  <g
     id="g304"
     transform="scale(0.03333333)"
     style="fill:#009b3a;stroke:#000000;stroke-width:0.145">
    <path
       d="m 328.117,211.346 c 0,0 23.35,10.06 19.272,30.847 -4.078,20.787 -17.078,20.647 -22.174,22.945 -5.098,2.297 -8.614,5.585 -10.625,5.125 -2.01,-0.46 -4.67,-2.012 -4.67,-2.012 0,0 -0.212,3.415 3.882,4.037 4.094,0.62 9.476,-5.388 12.06,-6.056 2.586,-0.668 18.456,-2.39 22.318,-23.54 4.507,-22.58 -19.917,-30.68 -20.06,-31.344 z"
       id="path18"
       inkscape:connector-curvature="0" />
    <path
       d="m 339.9,215.768 a 3.2051065,0.76002526 75.104 0 1 -1.54,0.118 3.2051065,0.76002526 75.104 1 1 1.54,-0.118 z"
       id="path20"
       inkscape:connector-curvature="0" />
    <path
       d="m 339.1,215.986 a 3.3034646,0.73710366 63.335 1 1 -1.393,0.51 3.303,0.737 63.335 0 1 1.392,-0.51 z m -2.343,1.542 a 3.128,0.778 17.053 0 1 -0.146,1.58 3.128,0.778 17.053 0 1 0.147,-1.58 z"
       id="path22"
       inkscape:connector-curvature="0" />
    <path
       d="m 337.107,216.67 a 3.29,0.74 34.225 1 1 -0.672,1.332 3.29,0.74 34.225 1 1 0.672,-1.332 z"
       id="path24"
       inkscape:connector-curvature="0" />
    <path
       d="m 338.096,216.262 a 3.3469572,0.7276429 46.194 1 1 -1.017,1.042 3.3452999,0.72728261 46.194 0 1 1.016,-1.042 z"
       id="path26"
       inkscape:connector-curvature="0" />
    <path
       d="m 339.725,219.2 c 0.013,0.015 -0.9,0.51 -1.108,0.582 -0.207,0.074 -0.488,-0.275 -1.083,0.03 -0.595,0.306 -1.004,0.863 -1.134,1.19 -0.13,0.327 0.17,0.464 0.888,0.114 0.72,-0.35 0.91,-0.904 1.256,-1.12 0.347,-0.218 0.93,-0.537 1.26,-0.655 0.143,-0.312 0.61,-0.983 0.85,-1.37 0.24,-0.384 1.185,-1.02 1.53,-1.76 0.3,-0.612 0.186,-1.133 -0.215,-0.915 -0.403,0.217 -0.922,0.833 -1.164,1.275 -0.242,0.44 -0.035,1.004 -0.303,1.418 -0.212,0.3 -0.723,1.212 -0.778,1.213 z m 7.229,2.386 a 1.08,4.807 -1.585 1 1 -2.17,-0.52 1.08,4.807 -1.585 1 1 2.17,0.52 z"
       id="path28"
       inkscape:connector-curvature="0" />
    <path
       d="m 345.747,221.543 a 5.008,1.036 77.49 1 1 -2.097,0.105 5.008,1.036 77.49 1 1 2.097,-0.105 z"
       id="path30"
       inkscape:connector-curvature="0" />
    <path
       d="m 342.008,222.706 a 4.665,1.112 34.91 1 1 -0.725,2.198 4.665,1.112 34.91 1 1 0.725,-2.198 z"
       id="path32"
       inkscape:connector-curvature="0" />
    <path
       d="m 342.765,221.644 a 4.99,1.04 50.904 0 1 -1.37,1.607 4.99,1.04 50.904 1 1 1.37,-1.606 z"
       id="path34"
       inkscape:connector-curvature="0" />
    <path
       d="m 344.277,221.5 a 5.096,1.018 61.837 1 1 -1.752,1.036 5.096,1.018 61.837 1 1 1.752,-1.037 z"
       id="path36"
       inkscape:connector-curvature="0" />
    <path
       d="m 345.557,226.43 c 0.015,0.026 -1.415,0.324 -1.726,0.337 -0.31,0.013 -0.583,-0.613 -1.51,-0.442 -0.924,0.17 -1.675,0.786 -1.963,1.197 -0.288,0.41 0.08,0.74 1.192,0.56 1.11,-0.178 1.557,-0.887 2.11,-1.042 0.552,-0.156 1.463,-0.353 1.96,-0.374 0.303,-0.384 1.17,-1.137 1.63,-1.58 0.462,-0.445 1.98,-0.933 2.702,-1.84 0.618,-0.74 0.635,-1.538 0.007,-1.406 -0.63,0.132 -1.552,0.78 -2.033,1.306 -0.482,0.524 -0.38,1.423 -0.89,1.895 -0.392,0.336 -1.403,1.413 -1.48,1.39 z m 5.193,4.843 a 1.0740489,4.8282198 8.74 1 1 -2.026,-0.93 1.0740489,4.8282198 8.74 1 1 2.026,0.93 z"
       id="path38"
       inkscape:connector-curvature="0" />
    <path
       d="m 349.6,230.983 a 1.03,5.04 -2.05 1 1 -2.067,-0.3 1.03,5.04 -2.05 1 1 2.068,0.3 z"
       id="path40"
       inkscape:connector-curvature="0" />
    <path
       d="m 345.732,231.42 a 4.688,1.106 46.026 1 1 -1.106,2.03 4.688,1.106 46.026 1 1 1.106,-2.03 z"
       id="path42"
       inkscape:connector-curvature="0" />
    <path
       d="m 346.663,230.517 a 5.026,1.032 61.79 1 1 -1.63,1.324 5.026,1.032 61.79 1 1 1.63,-1.323 z"
       id="path44"
       inkscape:connector-curvature="0" />
    <path
       d="m 348.147,230.663 a 5.136,1.01 72.543 1 1 -1.9,0.687 5.136,1.01 72.543 1 1 1.9,-0.687 z"
       id="path46"
       inkscape:connector-curvature="0" />
    <path
       d="m 348.525,235.768 c 0.008,0.028 -1.442,0.048 -1.75,0 -0.305,-0.046 -0.46,-0.717 -1.394,-0.725 -0.935,-0.01 -1.78,0.454 -2.135,0.804 -0.356,0.35 -0.056,0.746 1.064,0.783 1.118,0.037 1.682,-0.577 2.25,-0.625 0.567,-0.047 1.494,-0.067 1.984,0.008 0.365,-0.322 1.348,-0.9 1.88,-1.25 0.53,-0.35 2.102,-0.54 2.97,-1.295 0.738,-0.615 0.898,-1.4 0.26,-1.39 -0.638,0.01 -1.657,0.475 -2.222,0.9 -0.565,0.426 -0.628,1.333 -1.21,1.7 -0.445,0.257 -1.627,1.127 -1.697,1.09 m 2.515,6.298 a 1.074,4.83 31.31 0 1 -1.472,-1.7 1.074,4.83 31.31 0 1 1.473,1.7"
       id="path48"
       inkscape:connector-curvature="0" />
    <path
       d="m 350.096,241.324 a 1.0225048,5.0745055 20.618 0 1 -1.757,-1.132 1.0220388,5.0721929 20.618 0 1 1.756,1.132 m -3.665,-1.192 a 4.7660105,1.0884592 69.934 0 1 -1.79,1.426 4.7660105,1.0884592 69.934 0 1 1.79,-1.426"
       id="path50"
       inkscape:connector-curvature="0" />
    <path
       d="m 347.623,239.68 a 1.015615,5.110095 -4.863 0 1 -1.99,0.554 1.015569,5.1098628 -4.863 1 1 1.99,-0.553"
       id="path52"
       inkscape:connector-curvature="0" />
    <path
       d="m 348.917,240.437 a 0.99600876,5.2050458 5.55 1 1 -1.987,-0.148 0.996,5.205 5.55 1 1 1.987,0.147"
       id="path54"
       inkscape:connector-curvature="0" />
    <path
       d="m 347.274,245.324 c -0.003,0.03 -1.324,-0.55 -1.584,-0.72 -0.26,-0.172 -0.138,-0.857 -0.98,-1.252 -0.845,-0.395 -1.79,-0.314 -2.247,-0.137 -0.458,0.177 -0.34,0.67 0.66,1.166 0.998,0.498 1.747,0.162 2.28,0.352 0.532,0.19 1.378,0.556 1.793,0.828 0.455,-0.147 1.57,-0.276 2.185,-0.38 0.618,-0.106 2.115,0.368 3.195,0.026 0.907,-0.265 1.356,-0.926 0.775,-1.18 -0.582,-0.255 -1.685,-0.247 -2.36,-0.086 -0.678,0.16 -1.087,0.976 -1.758,1.077 -0.5,0.053 -1.91,0.37 -1.958,0.307 m 0.857,7.695 a 1.2577223,5.5031607 48.457 1 1 -1.063,-2.41 1.2573978,5.5017412 48.457 1 1 1.062,2.41"
       id="path56"
       inkscape:connector-curvature="0" />
    <path
       d="m 347.332,251.87 a 1.194,5.792 37.466 1 1 -1.56,-1.885 1.194,5.792 37.466 1 1 1.56,1.885"
       id="path58"
       inkscape:connector-curvature="0" />
    <path
       d="m 343.696,249.223 a 1.2489436,5.5441885 -3.478 1 1 -2.44,0.927 1.2489436,5.5441885 -3.478 1 1 2.44,-0.927"
       id="path60"
       inkscape:connector-curvature="0" />
    <path
       d="m 345.15,249.15 a 1.1733082,5.897549 11.633 0 1 -2.372,-0.11 1.1733082,5.897549 11.633 1 1 2.372,0.11"
       id="path62"
       inkscape:connector-curvature="0" />
    <path
       d="m 346.328,250.444 a 1.1573031,5.979566 22.12 1 1 -2.14,-0.882 1.1573031,5.979566 22.12 1 1 2.14,0.882"
       id="path64"
       inkscape:connector-curvature="0" />
    <path
       d="m 342.91,255.26 c -0.013,0.03 -1.276,-1.09 -1.506,-1.37 -0.23,-0.282 0.13,-0.995 -0.67,-1.736 -0.798,-0.74 -1.864,-0.994 -2.426,-0.964 -0.562,0.03 -0.594,0.616 0.342,1.526 0.936,0.91 1.87,0.81 2.395,1.212 0.524,0.403 1.335,1.112 1.702,1.563 0.55,0.002 1.818,0.264 2.53,0.37 0.714,0.108 2.206,1.173 3.507,1.185 1.085,0.037 1.797,-0.53 1.24,-1.022 -0.556,-0.49 -1.772,-0.88 -2.57,-0.948 -0.798,-0.067 -1.516,0.684 -2.288,0.553 -0.57,-0.122 -2.223,-0.28 -2.256,-0.37 m -2.298,7.345 a 1.407,6.065 79.752 1 1 0.29,-2.905 1.407,6.065 79.752 1 1 -0.29,2.904"
       id="path66"
       inkscape:connector-curvature="0" />
    <path
       d="m 340.496,261.048 a 1.3430425,6.3552011 68.504 0 1 -0.478,-2.696 1.3430425,6.3552011 68.504 0 1 0.478,2.696"
       id="path68"
       inkscape:connector-curvature="0" />
    <path
       d="m 338.416,256.423 a 1.403,6.085 26.238 0 1 -2.86,-0.53 1.403,6.085 26.238 1 1 2.86,0.53"
       id="path70"
       inkscape:connector-curvature="0" />
    <path
       d="m 339.87,257.208 a 1.3232937,6.4514317 41.823 0 1 -2.23,-1.475 1.3232937,6.4514317 41.823 0 1 2.23,1.475"
       id="path72"
       inkscape:connector-curvature="0" />
    <path
       d="m 340.292,259.128 a 1.3053414,6.5397107 52.67 1 1 -1.583,-2.076 1.3050382,6.5381917 52.67 0 1 1.582,2.076"
       id="path74"
       inkscape:connector-curvature="0" />
    <path
       d="m 334.357,261.717 c -0.03,0.023 -0.637,-1.773 -0.705,-2.173 -0.067,-0.4 0.668,-0.87 0.302,-2.038 -0.366,-1.166 -1.257,-2.023 -1.816,-2.32 -0.56,-0.296 -0.91,0.242 -0.503,1.65 0.406,1.406 1.364,1.85 1.65,2.537 0.284,0.686 0.68,1.83 0.788,2.47 0.53,0.32 1.61,1.303 2.24,1.817 0.63,0.514 1.49,2.39 2.738,3.154 1.03,0.662 2.026,0.534 1.757,-0.255 -0.27,-0.79 -1.23,-1.864 -1.963,-2.39 -0.734,-0.525 -1.837,-0.225 -2.51,-0.797 -0.483,-0.445 -1.993,-1.553 -1.976,-1.656"
       id="path76"
       inkscape:connector-curvature="0" />
    <path
       d="m 330.765,267.986 a 1.763,6.137 89.068 0 1 0.01,-3.526 1.763,6.137 89.068 0 1 -0.01,3.526"
       id="path78"
       inkscape:connector-curvature="0" />
    <path
       d="m 329.95,262.474 a 1.704,6.35 37.587 0 1 -2.616,-2.188 1.704,6.35 37.587 1 1 2.616,2.188"
       id="path80"
       inkscape:connector-curvature="0" />
    <path
       d="m 330.808,265.28 a 1.742,6.213 66.472 0 1 -1.246,-3.255 1.742,6.213 66.472 0 1 1.246,3.256 m 1.672,-53.411 a 3.812,0.775 41.126 0 1 -1.446,0.788 3.812,0.775 41.126 1 1 1.447,-0.788 m -1.876,1.585 a 3.8618812,0.76537283 8.163 0 1 0.293,1.585 3.8618812,0.76537283 8.163 1 1 -0.293,-1.585"
       id="path82"
       inkscape:connector-curvature="0" />
    <path
       d="m 331.36,212.452 a 4.038,0.732 26.817 1 1 -0.765,1.252 4.038,0.732 26.817 0 1 0.766,-1.252 m -27.666,49.556 c 0,0 5.144,1.103 9.615,2.728 4.47,1.625 11.264,7.203 13.09,7.52 2.048,0.092 4.888,-0.607 5.966,-3.565 -3.154,0.843 -5.045,2.12 -8.056,0.466 -1.064,-0.403 -4.548,-3.575 -8.367,-5.272 -3.82,-1.698 -11.52,-3.634 -11.52,-3.634 l -0.727,1.758 m 5.484,-46.503 c -0.02,-0.044 5.92,-3.123 5.92,-3.123 l -6.53,1.67 -0.757,1.148 1.366,0.306"
       id="path84"
       inkscape:connector-curvature="0" />
    <path
       d="m 314.794,216.946 c -2.292,-0.417 -5.817,-1.187 -8.062,-1.367 1.552,-1.72 3.69,-4.625 5.007,-6.408 -0.87,1.7 -2.237,3.944 -2.776,5.572 1.58,0.853 4.064,1.52 5.83,2.202"
       id="path86"
       inkscape:connector-curvature="0" />
    <path
       d="m 308.117,215.87 c -0.025,-0.04 5.26,-4.074 5.26,-4.074 l -6.11,2.734 -0.543,1.263 1.393,0.077"
       id="path88"
       inkscape:connector-curvature="0" />
    <path
       d="m 313.732,216.888 c -2.308,-0.44 -5.86,-1.248 -8.116,-1.442 1.524,-1.77 3.614,-4.764 4.902,-6.603 -0.84,1.755 -2.168,4.068 -2.678,5.75 1.602,0.886 4.107,1.585 5.892,2.295"
       id="path90"
       inkscape:connector-curvature="0" />
    <path
       d="m 307.245,216.204 c -0.015,-0.045 6.195,-2.594 6.195,-2.594 l -6.67,1.098 -0.863,1.075 1.338,0.42"
       id="path92"
       inkscape:connector-curvature="0" />
    <path
       d="m 313.034,216.946 c -2.335,-0.194 -5.943,-0.63 -8.197,-0.58 1.3,-1.966 3.014,-5.238 4.072,-7.247 -0.626,1.874 -1.667,4.37 -1.974,6.134 1.69,0.727 4.248,1.165 6.098,1.692"
       id="path94"
       inkscape:connector-curvature="0" />
    <path
       d="m 306.605,216.233 c -0.034,-0.034 4.197,-5.114 4.197,-5.114 l -5.318,3.976 -0.247,1.356 1.368,-0.22"
       id="path96"
       inkscape:connector-curvature="0" />
    <path
       d="m 313.005,217.28 c -2.502,-0.047 -6.38,-0.267 -8.772,-0.055 1.183,-2.237 2.677,-5.93 3.6,-8.196 -0.477,2.09 -1.332,4.887 -1.48,6.834 1.867,0.675 4.633,0.97 6.652,1.417"
       id="path98"
       inkscape:connector-curvature="0" />
    <path
       d="m 305.76,217.44 c -0.03,-0.044 5.098,-4.89 5.098,-4.89 l -6.167,3.413 -0.422,1.46 1.493,0.018"
       id="path100"
       inkscape:connector-curvature="0" />
    <path
       d="m 311.885,217.44 c -2.688,0.01 -6.827,-0.135 -9.45,0.16 1.74,-2.495 4.116,-6.6 5.58,-9.12 -0.946,2.315 -2.45,5.418 -3.012,7.567 1.875,0.696 4.796,0.954 6.882,1.394"
       id="path102"
       inkscape:connector-curvature="0" />
    <path
       d="m 304.045,217.804 c -0.026,-0.048 6.51,-5.514 6.51,-5.514 l -7.36,3.913 -0.757,1.62 1.607,-0.02"
       id="path104"
       inkscape:connector-curvature="0" />
    <path
       d="m 310.91,217.6 c -2.662,0.385 -6.784,0.818 -9.34,1.47 1.366,-2.673 3.133,-7.005 4.223,-9.666 -0.606,2.39 -1.65,5.623 -1.9,7.795 1.957,0.417 4.888,0.262 7.017,0.4"
       id="path106"
       inkscape:connector-curvature="0" />
    <path
       d="m 303.172,218.895 c -0.038,-0.04 5.016,-6.948 5.016,-6.948 l -6.26,5.66 -0.335,1.734 1.58,-0.445"
       id="path108"
       inkscape:connector-curvature="0" />
    <path
       d="m 309.44,218.43 c -2.68,0.25 -6.82,0.475 -9.41,0.997 1.514,-2.6 3.522,-6.836 4.76,-9.437 -0.74,2.354 -1.964,5.53 -2.336,7.687 1.932,0.515 4.868,0.507 6.987,0.753"
       id="path110"
       inkscape:connector-curvature="0" />
    <path
       d="m 302.27,219.623 c -0.026,-0.05 6.386,-5.526 6.386,-5.526 l -7.246,3.903 -0.732,1.632 1.592,-0.01"
       id="path112"
       inkscape:connector-curvature="0" />
    <path
       d="m 308.656,218.706 c -2.672,0.564 -6.818,1.278 -9.37,2.098 1.248,-2.73 2.817,-7.122 3.786,-9.82 -0.493,2.396 -1.387,5.656 -1.532,7.815 2,0.274 4.956,-0.083 7.116,-0.094"
       id="path114"
       inkscape:connector-curvature="0" />
    <path
       d="m 301.208,219.913 c -0.043,-0.03 4.08,-7.574 4.08,-7.574 l -5.522,6.55 -0.09,1.73 1.532,-0.707"
       id="path116"
       inkscape:connector-curvature="0" />
    <path
       d="m 308.656,219.143 c -2.867,0.745 -7.335,1.723 -10.04,2.75 1.04,-3.103 2.228,-8.077 2.963,-11.134 -0.25,2.697 -0.835,6.378 -0.73,8.796 2.23,0.22 5.434,-0.307 7.806,-0.414"
       id="path118"
       inkscape:connector-curvature="0" />
    <path
       d="m 300.408,221.66 c -0.043,-0.045 5.14,-7.592 5.14,-7.592 l -6.572,6.135 -0.277,1.915 1.708,-0.46"
       id="path120"
       inkscape:connector-curvature="0" />
    <path
       d="m 307.52,220 c -2.817,0.892 -7.217,2.1 -9.86,3.26 0.888,-3.123 1.838,-8.103 2.427,-11.162 -0.122,2.68 -0.532,6.348 -0.315,8.73 2.23,0.1 5.394,-0.594 7.75,-0.827"
       id="path122"
       inkscape:connector-curvature="0" />
    <path
       d="m 299.375,222.78 c -0.05,-0.036 3.907,-8.38 3.907,-8.38 l -5.554,7.216 0.025,1.927 1.622,-0.764"
       id="path124"
       inkscape:connector-curvature="0" />
    <path
       d="m 306.445,221.15 c -2.887,0.658 -7.378,1.5 -10.115,2.44 1.168,-3.038 2.566,-7.924 3.43,-10.926 -0.365,2.66 -1.106,6.284 -1.107,8.678 2.213,0.28 5.425,-0.152 7.792,-0.192"
       id="path126"
       inkscape:connector-curvature="0" />
    <path
       d="m 298.445,223.58 c -0.035,-0.053 6.382,-6.56 6.382,-6.56 l -7.524,4.857 -0.613,1.842 1.755,-0.14"
       id="path128"
       inkscape:connector-curvature="0" />
    <path
       d="m 305.165,222.284 c -2.86,0.384 -7.298,0.798 -10.028,1.484 1.327,-2.978 2.993,-7.812 4.022,-10.782 -0.522,2.672 -1.468,6.287 -1.616,8.723 2.143,0.503 5.307,0.38 7.62,0.574"
       id="path130"
       inkscape:connector-curvature="0" />
    <path
       d="m 297.18,222.924 c -0.048,-0.04 4.342,-8.205 4.342,-8.205 l -5.89,6.904 -0.093,1.955 1.64,-0.656"
       id="path132"
       inkscape:connector-curvature="0" />
    <path
       d="m 305.514,221.31 c -3.11,1.273 -7.968,3.048 -10.882,4.618 0.955,-3.692 1.963,-9.54 2.588,-13.136 -0.112,3.115 -0.533,7.4 -0.273,10.14 2.47,-0.077 5.963,-1.15 8.567,-1.622"
       id="path134"
       inkscape:connector-curvature="0" />
    <path
       d="m 296.583,225.412 c -0.05,-0.044 5.198,-9.416 5.198,-9.416 l -6.86,7.967 -0.19,2.225 1.853,-0.776"
       id="path136"
       inkscape:connector-curvature="0" />
    <path
       d="m 304.32,222.473 c -3.046,1.433 -7.816,3.46 -10.655,5.172 0.79,-3.692 1.535,-9.512 1.998,-13.088 0.027,3.074 -0.202,7.318 0.18,10.005 2.46,-0.218 5.9,-1.475 8.478,-2.09"
       id="path138"
       inkscape:connector-curvature="0" />
    <path
       d="m 295.52,226.837 c -0.056,-0.033 3.794,-10.133 3.794,-10.133 l -5.677,9.05 0.144,2.194 1.74,-1.11"
       id="path140"
       inkscape:connector-curvature="0" />
    <path
       d="m 302.983,223.317 c -3.04,1.457 -7.8,3.52 -10.63,5.255 0.766,-3.695 1.475,-9.517 1.916,-13.095 0.045,3.072 -0.157,7.315 0.242,9.997 2.46,-0.238 5.895,-1.523 8.47,-2.157"
       id="path142"
       inkscape:connector-curvature="0" />
    <path
       d="m 294.663,228.044 c -0.047,-0.05 5.868,-8.935 5.868,-8.935 l -7.398,7.312 -0.36,2.216 1.89,-0.594"
       id="path144"
       inkscape:connector-curvature="0" />
    <path
       d="m 302.706,222.852 c -2.71,2.164 -7,5.344 -9.443,7.722 -0.004,-3.73 -0.504,-9.48 -0.805,-13.016 0.68,2.928 1.355,7.04 2.304,9.504 2.39,-0.85 5.525,-2.95 7.944,-4.21"
       id="path146"
       inkscape:connector-curvature="0" />
    <path
       d="m 294.954,228.466 c -0.065,-0.01 0.68,-10.707 0.68,-10.707 l -2.828,10.41 0.79,1.96 1.358,-1.664"
       id="path148"
       inkscape:connector-curvature="0" />
    <path
       d="m 301.935,223.84 c -2.718,2.15 -7.018,5.31 -9.47,7.675 0.01,-3.732 -0.465,-9.487 -0.752,-13.025 0.668,2.932 1.325,7.05 2.264,9.52 2.39,-0.84 5.534,-2.923 7.958,-4.17"
       id="path150"
       inkscape:connector-curvature="0" />
    <path
       d="m 294.27,230.284 c -0.06,-0.025 2.735,-10.462 2.735,-10.462 l -4.732,9.62 0.373,2.15 1.624,-1.308"
       id="path152"
       inkscape:connector-curvature="0" />
    <path
       d="m 301.63,224.088 c -2.57,2.53 -6.66,6.286 -8.93,9.006 -0.403,-3.828 -1.534,-9.67 -2.223,-13.265 1.015,2.925 2.152,7.067 3.396,9.488 2.377,-1.147 5.392,-3.66 7.757,-5.23"
       id="path154"
       inkscape:connector-curvature="0" />
    <path
       d="m 294.285,231.623 c -0.068,-0.01 0.51,-11.127 0.51,-11.127 l -2.732,10.81 0.85,2.04 1.372,-1.723"
       id="path156"
       inkscape:connector-curvature="0" />
    <path
       d="m 300.815,225.935 c -2.75,2.273 -7.104,5.618 -9.574,8.11 -0.085,-3.876 -0.727,-9.846 -1.116,-13.517 0.766,3.036 1.553,7.302 2.587,9.854 2.447,-0.906 5.636,-3.116 8.106,-4.447"
       id="path158"
       inkscape:connector-curvature="0" />
    <path
       d="m 293.47,232.888 c -0.06,-0.036 3.874,-10.466 3.874,-10.466 l -5.81,9.273 0.153,2.297 1.783,-1.104"
       id="path160"
       inkscape:connector-curvature="0" />
    <path
       d="m 300.772,225.98 c -2.433,2.573 -6.308,6.393 -8.46,9.157 -0.383,-3.88 -1.46,-9.802 -2.115,-13.444 0.965,2.965 2.045,7.16 3.226,9.612 2.252,-1.17 5.108,-3.728 7.35,-5.326"
       id="path162"
       inkscape:connector-curvature="0" />
    <path
       d="m 293.615,233.426 c -0.068,0 -0.458,-11.065 -0.458,-11.065 l -1.79,11.022 1.026,1.915 1.223,-1.87"
       id="path164"
       inkscape:connector-curvature="0" />
    <path
       d="m 299.58,226.808 c -2.355,2.597 -6.112,6.453 -8.18,9.24 -0.497,-3.883 -1.746,-9.802 -2.508,-13.442 1.05,2.96 2.253,7.152 3.505,9.595 2.214,-1.19 4.99,-3.773 7.182,-5.392"
       id="path166"
       inkscape:connector-curvature="0" />
    <path
       d="m 292.99,234.532 c -0.062,-0.02 1.236,-11.24 1.236,-11.24 l -3.296,10.63 0.657,2.185 1.403,-1.575"
       id="path168"
       inkscape:connector-curvature="0" />
    <path
       d="m 299.07,227.244 c -2.152,2.813 -5.61,7.014 -7.46,9.986 -0.792,-3.812 -2.487,-9.578 -3.524,-13.124 1.273,2.84 2.79,6.894 4.226,9.202 2.12,-1.4 4.695,-4.24 6.758,-6.064"
       id="path170"
       inkscape:connector-curvature="0" />
    <path
       d="m 292.946,235.58 c -0.064,-0.004 -0.713,-11.255 -0.713,-11.255 l -1.417,11.165 1.02,1.967 1.11,-1.878"
       id="path172"
       inkscape:connector-curvature="0" />
    <path
       d="m 298.852,227.884 c -2.02,2.945 -5.28,7.357 -6.99,10.446 -0.99,-3.796 -2.984,-9.513 -4.205,-13.03 1.423,2.794 3.153,6.795 4.71,9.044 2.06,-1.52 4.504,-4.515 6.485,-6.46"
       id="path174"
       inkscape:connector-curvature="0" />
    <path
       d="m 293.645,236.626 c -0.063,-0.02 1.145,-11.304 1.145,-11.304 l -3.222,10.626 0.68,2.224 1.397,-1.546"
       id="path176"
       inkscape:connector-curvature="0" />
    <path
       d="m 298.445,228.932 c -1.742,3.208 -4.583,8.048 -6.003,11.357 -1.323,-3.638 -3.82,-9.044 -5.35,-12.37 1.665,2.58 3.744,6.316 5.494,8.336 1.908,-1.797 4.066,-5.116 5.86,-7.324"
       id="path178"
       inkscape:connector-curvature="0" />
    <path
       d="m 293.252,237.557 c -0.063,0.018 -3.16,-10.72 -3.16,-10.72 l 1.068,11.3 1.424,1.593 0.668,-2.173"
       id="path180"
       inkscape:connector-curvature="0" />
    <path
       d="m 298.372,230.183 c -1.815,3.2 -4.772,8.024 -6.257,11.323 -1.33,-3.627 -3.854,-9.017 -5.4,-12.333 1.69,2.572 3.798,6.298 5.58,8.312 1.974,-1.792 4.217,-5.1 6.077,-7.302"
       id="path182"
       inkscape:connector-curvature="0" />
    <path
       d="m 293.397,239.58 c -0.066,0 -1.16,-11.273 -1.16,-11.273 l -1.044,11.273 1.128,1.932 1.077,-1.933"
       id="path184"
       inkscape:connector-curvature="0" />
    <path
       d="m 298.56,231.172 c -1.865,3.156 -4.9,7.91 -6.437,11.175 -1.272,-3.658 -3.707,-9.107 -5.2,-12.46 1.65,2.612 3.695,6.388 5.445,8.443 2.003,-1.745 4.3,-5 6.193,-7.158"
       id="path186"
       inkscape:connector-curvature="0" />
    <path
       d="m 293.295,240.48 c -0.066,0.008 -2.09,-11.07 -2.09,-11.07 l -0.103,11.338 1.283,1.785 0.91,-2.052"
       id="path188"
       inkscape:connector-curvature="0" />
    <path
       d="m 297.76,232.772 c -2.012,3.022 -5.267,7.56 -6.957,10.714 -1.095,-3.74 -3.266,-9.35 -4.595,-12.803 1.52,2.723 3.383,6.635 5.03,8.808 2.083,-1.603 4.53,-4.695 6.523,-6.718"
       id="path190"
       inkscape:connector-curvature="0" />
    <path
       d="m 292.32,241.717 c -0.064,-0.018 0.937,-11.315 0.937,-11.315 l -3.083,10.73 0.744,2.186 1.403,-1.6"
       id="path192"
       inkscape:connector-curvature="0" />
    <path
       d="m 297.877,233.048 c -1.72,3.273 -4.536,8.22 -5.924,11.58 -1.436,-3.568 -4.115,-8.847 -5.756,-12.095 1.764,2.5 3.98,6.132 5.82,8.07 1.92,-1.875 4.066,-5.276 5.86,-7.555"
       id="path194"
       inkscape:connector-curvature="0" />
    <path
       d="m 291.943,242.663 c -0.065,0.02 -3.473,-10.546 -3.473,-10.546 l 1.337,11.214 1.496,1.527 0.64,-2.194"
       id="path196"
       inkscape:connector-curvature="0" />
    <path
       d="m 297.412,233.892 c -1.202,3.592 -3.23,9.067 -4.09,12.67 -1.95,-3.19 -5.38,-7.79 -7.485,-10.624 2.112,2.07 4.84,5.156 6.94,6.657 1.61,-2.262 3.21,-6.072 4.635,-8.703"
       id="path198"
       inkscape:connector-curvature="0" />
    <path
       d="m 295.026,243.52 c -0.064,0.024 -3.76,-10.4 -3.76,-10.4 l 1.644,11.154 1.537,1.465 0.58,-2.22"
       id="path200"
       inkscape:connector-curvature="0" />
    <path
       d="m 297.383,234.997 c -1.176,3.605 -3.164,9.1 -4,12.714 -1.972,-3.17 -5.436,-7.734 -7.56,-10.545 2.127,2.047 4.875,5.105 6.99,6.583 1.592,-2.278 3.165,-6.105 4.57,-8.75"
       id="path202"
       inkscape:connector-curvature="0" />
    <path
       d="m 295.055,245.295 c -0.06,0.033 -4.837,-9.726 -4.837,-9.726 l 2.817,10.8 1.68,1.214 0.34,-2.29"
       id="path204"
       inkscape:connector-curvature="0" />
    <path
       d="m 297.02,235.9 c -0.752,3.74 -2.092,9.475 -2.505,13.176 -2.323,-2.86 -6.284,-6.89 -8.715,-9.37 2.346,1.724 5.424,4.36 7.69,5.524 1.32,-2.487 2.44,-6.506 3.53,-9.33"
       id="path206"
       inkscape:connector-curvature="0" />
    <path
       d="m 295.375,246.823 c -0.066,0.013 -2.608,-10.906 -2.608,-10.906 l 0.43,11.322 1.366,1.693 0.812,-2.11"
       id="path208"
       inkscape:connector-curvature="0" />
    <path
       d="m 297.034,237.063 c -0.398,3.825 -1.194,9.713 -1.26,13.453 -2.57,-2.534 -6.874,-6.01 -9.517,-8.154 2.488,1.4 5.788,3.61 8.144,4.463 1.078,-2.653 1.816,-6.804 2.634,-9.762"
       id="path210"
       inkscape:connector-curvature="0" />
    <path
       d="m 295.506,247.623 c -0.05,0.05 -6.895,-7.874 -6.895,-7.874 l 5.197,9.535 1.9,0.65 -0.2,-2.312"
       id="path212"
       inkscape:connector-curvature="0" />
    <path
       d="m 297.18,238.4 c -0.414,3.824 -1.233,9.707 -1.313,13.446 -2.56,-2.55 -6.85,-6.05 -9.486,-8.207 2.484,1.413 5.775,3.642 8.128,4.507 1.088,-2.646 1.842,-6.793 2.67,-9.746"
       id="path214"
       inkscape:connector-curvature="0" />
    <path
       d="m 296.277,249.44 c -0.06,0.036 -5.296,-9.49 -5.296,-9.49 l 3.328,10.653 1.738,1.137 0.23,-2.3"
       id="path216"
       inkscape:connector-curvature="0" />
    <path
       d="m 297.485,239.972 c -0.252,3.846 -0.823,9.775 -0.746,13.517 -2.663,-2.392 -7.092,-5.63 -9.812,-7.628 2.537,1.263 5.914,3.29 8.3,4.013 0.974,-2.71 1.553,-6.9 2.257,-9.903"
       id="path218"
       inkscape:connector-curvature="0" />
    <path
       d="m 296.946,251.186 c -0.053,0.047 -6.543,-8.297 -6.543,-8.297 l 4.772,9.846 1.868,0.77 -0.097,-2.32"
       id="path220"
       inkscape:connector-curvature="0" />
    <path
       d="m 297.557,241.746 c -0.228,3.85 -0.763,9.784 -0.664,13.525 -2.676,-2.367 -7.124,-5.568 -9.856,-7.54 2.545,1.24 5.934,3.24 8.323,3.94 0.958,-2.72 1.512,-6.915 2.197,-9.924"
       id="path222"
       inkscape:connector-curvature="0" />
    <path
       d="m 297.543,252.597 c -0.062,0.03 -4.588,-10.003 -4.588,-10.003 l 2.54,10.95 1.65,1.316 0.398,-2.263"
       id="path224"
       inkscape:connector-curvature="0" />
    <path
       d="m 297.732,242.895 c 0.13,3.862 0.152,9.84 0.598,13.552 -2.874,-1.997 -7.585,-4.584 -10.478,-6.18 2.64,0.893 6.188,2.426 8.623,2.802 0.697,-2.837 0.856,-7.088 1.257,-10.175"
       id="path226"
       inkscape:connector-curvature="0" />
    <path
       d="m 298.343,252.204 c -0.04,0.064 -8.38,-5.737 -8.38,-5.737 l 7.104,7.828 1.974,0.102 -0.697,-2.193"
       id="path228"
       inkscape:connector-curvature="0" />
    <path
       d="m 297.994,243.303 c 0.333,3.844 0.667,9.802 1.308,13.484 -2.983,-1.882 -7.836,-4.283 -10.816,-5.764 2.69,0.79 6.323,2.184 8.78,2.467 0.55,-2.853 0.488,-7.096 0.728,-10.188"
       id="path230"
       inkscape:connector-curvature="0" />
    <path
       d="m 299.245,254.343 c -0.052,0.048 -6.983,-8.027 -6.983,-8.027 l 5.29,9.638 1.91,0.696 -0.217,-2.307"
       id="path232"
       inkscape:connector-curvature="0" />
    <path
       d="m 298.605,244.772 c 0.494,3.828 1.078,9.773 1.873,13.42 -3.052,-1.705 -7.988,-3.815 -11.02,-5.12 2.713,0.63 6.392,1.807 8.853,1.942 0.43,-2.89 0.186,-7.133 0.295,-10.242"
       id="path234"
       inkscape:connector-curvature="0" />
    <path
       d="m 300.64,255.695 c -0.038,0.063 -8.315,-5.876 -8.315,-5.876 l 7.014,7.943 1.974,0.136 -0.673,-2.205"
       id="path236"
       inkscape:connector-curvature="0" />
    <path
       d="m 298.866,246.4 c 0.746,3.784 1.72,9.676 2.752,13.25 -3.145,-1.417 -8.188,-3.06 -11.286,-4.078 2.737,0.373 6.47,1.2 8.923,1.104 0.232,-2.93 -0.29,-7.154 -0.39,-10.275"
       id="path238"
       inkscape:connector-curvature="0" />
    <path
       d="m 301.557,256.86 c -0.052,0.047 -6.878,-8.155 -6.878,-8.155 l 5.16,9.73 1.904,0.734 -0.187,-2.31"
       id="path240"
       inkscape:connector-curvature="0" />
    <path
       d="m 299.317,247.448 c 1.092,3.68 2.608,9.434 3.963,12.866 -3.24,-0.994 -8.38,-1.962 -11.54,-2.563 2.74,0.007 6.508,0.335 8.925,-0.09 -0.045,-2.96 -0.957,-7.108 -1.348,-10.212"
       id="path242"
       inkscape:connector-curvature="0" />
    <path
       d="m 301.92,256.874 c -0.014,0.075 -9.608,-2.06 -9.608,-2.06 l 9.138,4.544 1.846,-0.695 -1.375,-1.79"
       id="path244"
       inkscape:connector-curvature="0" />
    <path
       d="m 299.943,248.597 c 1.077,3.685 2.57,9.447 3.912,12.886 -3.238,-1.013 -8.375,-2.01 -11.53,-2.628 2.74,0.02 6.507,0.37 8.925,-0.04 -0.033,-2.96 -0.93,-7.112 -1.307,-10.218"
       id="path246"
       inkscape:connector-curvature="0" />
    <path
       d="m 303.492,257.892 c -0.03,0.068 -9.194,-4.44 -9.194,-4.44 l 8.246,6.684 1.976,-0.185 -1.028,-2.058"
       id="path248"
       inkscape:connector-curvature="0" />
    <path
       d="m 299.463,249.237 c 1.826,3.358 4.496,8.652 6.527,11.71 -3.368,-0.258 -8.583,-0.07 -11.79,0.04 2.675,-0.6 6.42,-1.11 8.69,-2.06 -0.656,-2.884 -2.404,-6.74 -3.427,-9.69"
       id="path250"
       inkscape:connector-curvature="0" />
    <path
       d="m 304.946,258.895 c -0.017,0.074 -9.553,-2.638 -9.553,-2.638 l 8.966,5.077 1.884,-0.576 -1.298,-1.863"
       id="path252"
       inkscape:connector-curvature="0" />
    <path
       d="m 300.452,250.663 c 1.846,3.344 4.546,8.62 6.596,11.662 -3.368,-0.23 -8.578,0.003 -11.78,0.14 2.668,-0.623 6.407,-1.165 8.67,-2.134 -0.675,-2.88 -2.445,-6.724 -3.486,-9.667"
       id="path254"
       inkscape:connector-curvature="0" />
    <path
       d="m 306.154,259.68 c -0.034,0.065 -8.903,-5.325 -8.903,-5.325 l 7.78,7.444 2,0.02 -0.876,-2.14"
       id="path256"
       inkscape:connector-curvature="0" />
    <path
       d="m 301.194,251.506 c 2.137,3.122 5.302,8.073 7.61,10.865 -3.33,0.21 -8.424,1.122 -11.557,1.676 2.562,-0.974 6.18,-2.006 8.308,-3.275 -0.94,-2.807 -3.053,-6.44 -4.36,-9.264"
       id="path258"
       inkscape:connector-curvature="0" />
    <path
       d="m 306.808,260.466 c -0.003,0.08 -9.61,-0.226 -9.61,-0.226 l 9.508,2.81 1.69,-1.05 -1.588,-1.534 m 5.572,-46.56 c 0,-0.03 6.913,-1.153 6.913,-1.153 l -6.88,0.16 -1.2,0.617 1.166,0.376"
       id="path260"
       inkscape:connector-curvature="0" />
    <path
       d="m 316.176,215.375 c -2.006,-0.606 -5.038,-1.62 -7.097,-2.07 2.187,-0.87 5.426,-2.41 7.42,-3.357 -1.535,0.96 -3.764,2.192 -4.952,3.155 1.148,0.78 3.23,1.575 4.628,2.272"
       id="path262"
       inkscape:connector-curvature="0" />
    <path
       d="m 312.074,214.14 c -0.008,-0.03 6.69,-1.84 6.69,-1.84 l -6.93,0.885 -1.046,0.717 1.286,0.237"
       id="path264"
       inkscape:connector-curvature="0" />
    <path
       d="m 316.496,215.87 c -2.344,-0.22 -5.94,-0.67 -8.252,-0.694 1.743,-1.543 4.186,-4.124 5.69,-5.71 -1.034,1.49 -2.625,3.467 -3.31,4.876 1.57,0.63 4.093,1.053 5.872,1.528"
       id="path266"
       inkscape:connector-curvature="0" />
    <path
       d="m 309.586,214.62 c 0.006,-0.032 6.952,-0.786 6.952,-0.786 l -6.773,-0.217 -1.267,0.557 1.09,0.445"
       id="path268"
       inkscape:connector-curvature="0" />
    <path
       d="m 314.736,216.132 c -2.132,-0.408 -5.37,-1.118 -7.526,-1.37 2.048,-1.006 5.033,-2.736 6.87,-3.798 -1.37,1.036 -3.395,2.39 -4.42,3.4 1.298,0.643 3.542,1.223 5.076,1.768"
       id="path270"
       inkscape:connector-curvature="0" />
    <path
       d="m 308.99,214.546 c -0.018,-0.026 6.12,-2.633 6.12,-2.633 l -6.703,1.77 -0.803,0.815 1.386,0.048"
       id="path272"
       inkscape:connector-curvature="0" />
    <path
       d="m 314.532,216.902 c -1.774,-0.732 -4.49,-1.973 -6.246,-2.49 1.36,-1.263 3.274,-3.48 4.453,-4.838 -0.82,1.358 -2.075,3.114 -2.63,4.46 1.18,1.003 3.084,1.987 4.422,2.87"
       id="path274"
       inkscape:connector-curvature="0" />
    <path
       d="m 309.34,214.997 c -0.014,-0.04 4.76,-2.063 4.76,-2.063 l -5.185,0.71 -0.637,0.924 1.06,0.43 m -3.984,44.582 c 0.004,0.075 -9.867,0.073 -9.867,0.073 l 9.99,2.443 1.64,-1.074 -1.763,-1.443"
       id="path276"
       inkscape:connector-curvature="0" />
    <path
       d="m 307.128,260.22 c -0.01,0.07 -10.02,-2.332 -10.02,-2.332 l 9.622,4.718 1.886,-0.607 -1.488,-1.78"
       id="path278"
       inkscape:connector-curvature="0" />
    <path
       d="m 308.772,260.888 c 0,0.076 -9.95,-0.5 -9.95,-0.5 l 9.95,2.997 1.705,-0.967 -1.705,-1.53"
       id="path280"
       inkscape:connector-curvature="0" />
    <path
       d="m 302.46,253.863 c 2.587,2.852 6.465,7.397 9.18,9.913 -3.34,0.505 -8.374,1.855 -11.47,2.68 2.46,-1.182 5.983,-2.516 7.964,-3.947 -1.334,-2.656 -3.967,-6.01 -5.675,-8.647"
       id="path282"
       inkscape:connector-curvature="0" />
    <path
       d="m 310.14,261.397 c -0.02,0.07 -9.945,-3.254 -9.945,-3.254 l 9.344,5.556 1.957,-0.414 -1.358,-1.89"
       id="path284"
       inkscape:connector-curvature="0" />
    <path
       d="m 303.375,254.517 c 2.82,2.573 7.076,6.703 9.985,8.918 -3.202,0.922 -7.962,2.91 -10.89,4.125 2.272,-1.5 5.563,-3.285 7.342,-4.98 -1.58,-2.525 -4.496,-5.6 -6.437,-8.063"
       id="path286"
       inkscape:connector-curvature="0" />
    <path
       d="m 310.954,262.008 c 0.015,0.077 -9.437,1.856 -9.437,1.856 l 9.944,0.677 1.405,-1.385 -1.91,-1.147"
       id="path288"
       inkscape:connector-curvature="0" />
    <path
       d="m 308.99,261.412 c 0.01,0.076 -9.842,0.755 -9.842,0.755 l 10.155,1.745 1.555,-1.184 -1.868,-1.316"
       id="path290"
       inkscape:connector-curvature="0" />
    <path
       d="m 310.808,261.935 c -0.007,0.073 -10.177,-1.63 -10.177,-1.63 l 9.96,4.037 1.837,-0.735 z"
       id="path292"
       inkscape:connector-curvature="0" />
    <path
       d="m 312.496,262.488 c 0.005,0.075 -9.968,0.187 -9.968,0.187 l 10.155,2.302 1.63,-1.08 -1.817,-1.41 z"
       id="path294"
       inkscape:connector-curvature="0" />
    <path
       d="m 305.66,255.914 c 2.797,2.664 7.008,6.927 9.908,9.246 -3.298,0.734 -8.22,2.428 -11.248,3.463 2.367,-1.347 5.783,-2.92 7.653,-4.484 -1.532,-2.555 -4.41,-5.716 -6.314,-8.226 z"
       id="path296"
       inkscape:connector-curvature="0" />
    <path
       d="m 313.906,262.895 c -0.013,0.07 -10.17,-2.557 -10.17,-2.557 l 9.745,4.893 1.924,-0.545 -1.498,-1.79 z"
       id="path298"
       inkscape:connector-curvature="0" />
    <path
       d="m 306.634,256.495 c 3.008,2.37 7.565,6.193 10.635,8.2 -3.128,1.14 -7.73,3.45 -10.562,4.862 2.156,-1.65 5.307,-3.657 6.955,-5.468 -1.765,-2.41 -4.907,-5.275 -7.03,-7.595 z"
       id="path300"
       inkscape:connector-curvature="0" />
    <path
       d="m 314.765,263.448 c 0.02,0.076 -9.28,2.5 -9.28,2.5 l 9.976,-0.01 1.298,-1.478 -1.993,-1.01 z"
       id="path302"
       inkscape:connector-curvature="0" />
  </g>
  <path
     d="M 10.919333,8.31613 10.666667,8.14153 10.414,8.31613 10.50873,8.0368 10.28763,7.86213 h 0.2842 l 0.09477,-0.2794 0.09467,0.2794 h 0.28433 l -0.221133,0.17467 0.09477,0.27933 z"
     id="path306"
     inkscape:connector-curvature="0"
     style="fill:#fedf00;stroke:#000000;stroke-width:0.0145" />
</svg>
