<?xml version="1.0" encoding="UTF-8" standalone="no"?>
<svg
   xmlns:dc="http://purl.org/dc/elements/1.1/"
   xmlns:cc="http://creativecommons.org/ns#"
   xmlns:rdf="http://www.w3.org/1999/02/22-rdf-syntax-ns#"
   xmlns:svg="http://www.w3.org/2000/svg"
   xmlns="http://www.w3.org/2000/svg"
   xmlns:sodipodi="http://sodipodi.sourceforge.net/DTD/sodipodi-0.dtd"
   xmlns:inkscape="http://www.inkscape.org/namespaces/inkscape"
   height="16"
   width="21.333715"
   viewBox="0 0 21.333715 16"
   version="1.1"
   id="svg148"
   sodipodi:docname="sh.svg"
   inkscape:version="0.92.1 r">
  <metadata
     id="metadata154">
    <rdf:RDF>
      <cc:Work
         rdf:about="">
        <dc:format>image/svg+xml</dc:format>
        <dc:type
           rdf:resource="http://purl.org/dc/dcmitype/StillImage" />
        <dc:title></dc:title>
      </cc:Work>
    </rdf:RDF>
  </metadata>
  <defs
     id="defs152" />
  <sodipodi:namedview
     pagecolor="#ffffff"
     bordercolor="#666666"
     borderopacity="1"
     objecttolerance="10"
     gridtolerance="10"
     guidetolerance="10"
     inkscape:pageopacity="0"
     inkscape:pageshadow="2"
     inkscape:window-width="1920"
     inkscape:window-height="1024"
     id="namedview150"
     showgrid="false"
     fit-margin-top="0"
     fit-margin-left="0"
     fit-margin-right="0"
     fit-margin-bottom="0"
     inkscape:zoom="0.49166667"
     inkscape:cx="320.013"
     inkscape:cy="240.02"
     inkscape:window-x="0"
     inkscape:window-y="0"
     inkscape:window-maximized="1"
     inkscape:current-layer="svg148" />
  <path
     d="M 21.333715,16 V 7e-4 H 5.3692e-4 V 16 Z"
     id="path2"
     inkscape:connector-curvature="0"
     style="fill:#000066;stroke-width:0.03333257" />
  <path
     d="M 2.3693e-4,2.44434 H 2.5346455 L 2.3693e-4,0.89195 V 7e-4 H 1.4503037 L 4.9956558,2.15798 V 7e-4 H 6.99201 V 2.15798 L 10.537196,7e-4 h 1.462633 V 0.89195 L 9.452887,2.44431 h 2.546942 V 4.88992 H 9.452887 l 2.546942,1.5524 V 7.33383 H 10.537196 L 6.9919434,5.17621 V 7.33383 H 4.9955891 V 5.17625 L 1.4503037,7.33387 H 2.3693e-4 V 6.44235 L 2.5346455,4.88992 H 2.3693e-4 Z"
     id="path4"
     inkscape:connector-curvature="0"
     style="fill:#ffffff;stroke-width:0.03333257" />
  <path
     d="M 11.056351,6e-4 7.0511087,2.44598 h 0.958778 L 11.999596,6e-4 Z M 12.000096,7.33387 8.0061201,4.88982 h 0.962978 L 12.000096,6.75121 Z M 4.0130116,2.44538 1.036e-4,0 V 0.58399 L 3.0458005,2.44538 H 4.0129783 Z M 4.0046416,4.88912 0,7.33317 H 0.95824471 L 4.9634863,4.88912 Z"
     id="path6"
     inkscape:connector-curvature="0"
     style="fill:#ce1126;stroke-width:0.03333257" />
  <path
     d="M 2.3693e-4,2.95163 H 5.4208127 V 6e-4 H 6.5939525 V 2.95163 H 11.999829 V 4.38367 H 6.5939525 v 2.9501 H 5.4208127 V 4.38367 H 2.7026e-4 V 2.95163 Z"
     id="path8"
     inkscape:connector-curvature="0"
     style="fill:#ce1126;stroke-width:0.03333257" />
  <g
     id="g146"
     transform="matrix(0.03333257,0,0,0.03333257,4.3692e-4,-3e-4)">
    <path
       d="m 399.67,640.77 c -0.046,16.332 -2.623,33.927 -23.764,42.308 -21.142,-8.381 -23.719,-25.976 -23.765,-42.308 z"
       transform="matrix(4.4862,0,0,4.4867,-1190.9,-2609)"
       id="path10"
       inkscape:connector-curvature="0"
       style="fill:#8fc5ff;stroke:#ffffff;stroke-width:1.11199999" />
    <path
       d="m 375.9,683.08 c 9.584,-3.799 15.353,-9.493 18.8,-16.104 -0.516,0.02 -1.597,-0.011 -2.064,-0.043 -0.52,-0.034 -20.271,-2.018 -22.61,-2.876 -2.035,-0.746 -9.799,0.634 -13.423,1.929 3.381,7.032 9.237,13.106 19.297,17.094 z"
       transform="matrix(4.4862,0,0,4.4867,-1190.9,-2609)"
       id="path12"
       inkscape:connector-curvature="0"
       style="fill:#366cc9;stroke:#000000;stroke-width:1.102" />
    <path
       d="m 361.13,672.95 c 0.323,-0.105 0.94,-0.08 1.183,-0.036 0.286,0.052 0.338,0.078 0.442,-0.234 0.104,-0.312 0.338,-0.234 0.52,-0.078 0.182,0.156 0.649,0.078 0.831,-0.182 0.182,-0.259 0.234,-0.233 0.416,-0.052 0.182,0.182 0.26,0.13 0.442,0.078 0.182,-0.051 0.494,-0.259 0.65,-0.545 0.156,-0.286 0.389,-0.39 0.519,-0.234 0.13,0.156 0.26,0.234 0.442,0.208 0.182,-0.026 0.234,0.156 0.208,0.389 -0.026,0.234 0.078,0.286 0.52,-0.077 0.39,0.389 0.519,0.233 0.519,-0.182 0,-0.416 -0.103,-1.949 -0.259,-2.157 -0.156,-0.208 -0.312,-0.806 -0.338,-1.274 -0.049,-0.883 -0.052,-0.935 -1.118,-1.481 0,-0.312 -0.078,-0.442 -0.831,-0.39 0.026,-0.104 -0.104,-0.416 -0.26,-0.546 -0.156,-0.13 -0.182,-0.182 -0.104,-0.545 0.312,0.026 0.65,-0.026 0.832,-0.286 0.181,-0.26 0.779,-0.208 1.143,-0.052 0.364,0.156 0.832,0.182 1.533,0.078 0.26,-0.208 0.702,-0.442 1.17,-0.702 0.467,-0.26 0.597,-0.364 0.623,-0.728 0.067,-0.933 -0.26,-2.001 -0.52,-2.494 -0.259,-0.494 -0.337,-1.118 -0.701,-1.898 -0.396,-0.849 -0.39,-1.065 -0.832,-1.585 -0.121,-0.143 -0.26,-0.26 -0.286,-0.545 -0.026,-0.286 -0.13,-0.676 -0.441,-0.962 -0.786,-0.721 -1.092,-3.041 -1.404,-4.756 -0.179,-0.983 -0.052,-3.3 -0.467,-3.664 -0.702,-0.572 -1.04,-0.468 -1.508,-0.65 -0.338,-0.468 -0.493,-1.403 -0.805,-2.235 -0.494,0.078 -0.832,0.598 -1.17,0.78 -0.338,0.182 -0.39,0.182 -0.39,0.65 0,0.467 -0.26,1.117 -0.727,1.845 -0.468,0.727 -1.248,0.52 -1.897,1.611 -1.43,-1.741 -1.456,-2.235 -1.56,-2.729 -0.104,-0.493 -0.338,-0.597 -1.143,-1.299 0,-0.208 -0.104,-1.039 -0.026,-1.507 -0.598,-0.494 -1.04,-0.416 -1.325,-0.052 -0.286,0.364 -0.494,0.909 -0.936,1.117 -0.265,0.337 -1.064,1.187 -1.718,2.199 0.595,9.044 2.636,18.022 8.773,25.202 z"
       transform="matrix(4.4862,0,0,4.4867,-1190.9,-2609)"
       id="path14"
       inkscape:connector-curvature="0"
       style="fill:#5d3100;stroke:#000000;stroke-width:0.138" />
    <path
       d="m 399.67,640.77 c 0.018,-6.152 -0.324,-12.125 -0.168,-17.359 -7.9,-3.535 -18.295,-4.262 -23.596,-4.262 -5.302,0 -15.697,0.727 -23.597,4.262 0.156,5.234 -0.185,11.207 -0.168,17.359 z"
       transform="matrix(4.4862,0,0,4.4867,-1190.9,-2609)"
       id="path16"
       inkscape:connector-curvature="0"
       style="fill:#ffff00;stroke:#ffffff;stroke-width:1.08000004" />
    <path
       d="m 394.613,297.888 c 1.166,1.867 3.266,5.075 3.499,6.82 0.817,-1.692 1.458,-2.445 1.633,-3.495 0.175,-1.05 1.4,-3.092 0.933,-4.2 -0.467,-1.108 -0.816,-1.983 0.467,-1.166 1.278,0.816 1.032,2.23 0.753,4.316 -0.753,5.711 -3.144,6.878 -3.494,10.728 3.44,8.102 0.874,11.019 4.602,18.947 0.584,0.35 2.14,-0.274 2.607,-0.157 1.978,-1.4 3.459,-0.893 6.254,-0.31 2.8,0.584 4.315,2.562 4.315,4.312 0,1.75 0,2.216 0.584,3.266 0.584,1.05 1.75,2.683 1.516,3.85 -0.233,1.162 0.233,1.862 0.583,2.445 0.35,0.583 -0.116,1.867 -0.466,2.683 -0.35,0.816 -0.234,1.867 1.166,3.616 1.4,1.746 4.661,9.095 4.661,13.407 0,4.316 0.233,6.299 1.983,7.111 1.75,0.817 2.333,1.517 2.1,3.383 -0.233,1.866 0.816,11.544 1.05,13.06 0.234,1.516 0.816,1.167 1.516,1.984 0.695,0.812 1.162,1.745 3.495,1.745 2.333,0 4.584,-0.31 6.1,-0.076 2.1,2.916 3.383,6.878 3.85,9.328 0.467,2.45 0.426,5.792 1.243,5.792 0.817,0 1.633,0.117 1.4,-2.916 -0.233,-3.033 -0.467,-3.5 -1.517,-5.012 -1.05,-1.516 -1.633,-2.216 -1.05,-3.15 0.583,-0.934 0.7,-2.45 0.467,-3.616 -0.233,-1.166 -0.583,-2.912 1.4,-0.583 1.982,2.333 2.566,2.916 3.149,3.733 0.583,0.817 0.812,2.333 0.7,3.733 -0.117,1.395 0.112,1.979 0.928,1.279 0.817,-0.696 1.866,0.466 1.4,1.983 -0.466,1.517 0.117,2.45 1.516,2.916 1.399,0.466 1.983,0.817 2.333,1.867 0.35,1.05 1.516,1.512 1.516,-0.584 0,-2.1 -0.816,-6.532 -1.4,-7.928 -0.582,-1.4 -1.049,-4.433 -1.166,-6.182 -0.117,-1.749 -0.466,-2.212 -1.283,-2.562 -0.817,-0.35 -1.516,-0.934 -1.633,-1.75 -0.117,-0.816 -0.816,-1.108 -1.341,-1.108 -0.525,0 -0.987,-0.409 -1.279,-0.992 -0.292,-0.583 -0.583,-0.641 -1.166,-0.7 -0.583,-0.059 -1.516,0.292 -1.808,-0.641 -0.292,-0.933 -0.7,-2.275 -1.283,-3.033 -0.583,-0.758 -1.108,-0.992 -1.166,-3.612 -0.059,-2.625 -0.117,-2.975 -0.934,-3.908 -0.817,-0.933 -2.216,-3.379 -2.799,-4.429 -0.579,-1.05 -1.162,-2.1 -1.162,0.117 0,2.212 0,3.379 1.395,4.195 1.4,0.817 1.75,0.817 1.167,1.983 -0.583,1.166 0,1.983 0.233,2.8 0.233,0.817 0.7,1.633 0,2.445 -0.7,0.817 -1.4,0.584 -1.283,-0.695 0.117,-1.283 -0.35,-2.8 -0.929,-3.85 -0.583,-1.05 -1.05,-1.75 -1.75,-1.166 -0.7,0.584 -1.282,-0.117 -0.816,-0.584 0.466,-0.467 0.35,-0.816 0,-1.166 -0.35,-0.35 -0.466,-0.7 0.117,-1.4 0.583,-0.7 0.583,-1.05 0.233,-2.679 -0.35,-1.633 -2.916,-9.794 -4.082,-11.66 -1.166,-1.866 -1.05,-3.267 0.466,-1.4 1.516,1.867 2.8,3.5 2.916,5.011 0.117,1.517 0.467,2.45 0.933,3.033 0.466,0.583 0.817,0.35 1.05,-0.933 0.233,-1.283 1.167,-0.816 -0.466,-3.262 -1.633,-2.45 -4.666,-6.532 -5.832,-13.877 -1.166,-7.345 -1.633,-12.244 -2.8,-14.223 -1.162,-1.983 -1.512,-2.45 -1.628,-4.316 -0.116,-1.866 0,-3.733 -0.817,-5.128 -0.816,-1.4 -1.4,-1.634 -1.516,0.466 -0.117,2.095 0.116,6.762 0.7,7.578 0.584,0.816 0.233,2.912 0.116,4.079 -0.117,1.167 -1.951,2.32 1.867,4.666 1.516,0.933 1.278,2.216 1.05,3.033 -0.234,0.812 -0.467,0.695 -1.284,-0.583 -0.816,-1.284 -1.633,-2.334 -2.45,-3.033 -0.817,-0.699 -0.932,-1.167 -0.816,-2.8 0.116,-1.633 0.467,-2.8 0,-3.379 -0.466,-0.583 -0.7,-0.116 -0.933,0.812 -0.233,0.934 -0.466,3.5 -0.933,4.2 -0.467,0.7 -0.7,0.233 -1.05,-1.283 -0.35,-1.516 0.117,-3.845 0.933,-6.528 0.816,-2.683 1.283,-5.483 0.584,-8.978 -0.7,-3.5 -0.35,-4.55 -3.033,-7.462 -2.678,-2.916 -5.711,-5.716 -6.994,-9.327 -1.283,-3.617 -1.516,-6.766 -2.916,-8.4 -1.395,-1.628 -3.378,-3.728 -4.661,-4.311 v -5.362 c 0,-1.283 -0.583,-2.1 -2.1,-1.866 -1.517,0.234 -2.45,1.516 -3.378,3.261 -0.933,1.75 -1.633,0.934 -2.916,3.967 -1.283,3.033 -3.15,4.545 -3.15,7.811 z"
       id="path18"
       inkscape:connector-curvature="0"
       style="fill:#cf6200" />
    <path
       d="m 403.047,332.077 c 0.933,0.583 1.826,0.973 3.225,0.273 1.399,-0.7 3.073,-2.719 4.94,-0.735 1.862,1.978 2.911,5.245 2.911,7.81 0,2.563 0,7.346 2.916,10.029 2.916,2.678 4.428,5.478 4.545,8.978 0.116,3.495 1.4,8.86 1.75,10.26 0.35,1.396 1.166,3.03 2.099,3.962 0.933,0.932 1.633,3.617 1.75,6.412 0.116,2.8 -0.35,4.783 0,6.183 0.35,1.4 0,2.566 -1.05,1.866 -1.05,-0.7 -1.283,-1.05 -1.866,-2.216 -0.583,-1.166 -1.283,-0.934 -0.7,0.816 0.583,1.75 2.333,3.379 3.849,3.379 1.516,0 1.983,0.233 2.916,1.166 0.929,0.933 1.045,1.4 2.678,1.4 1.633,0 1.866,0 3.383,0.467 1.517,0.467 1.516,0.233 2.333,0 0.817,-0.233 1.628,0.466 2.211,1.983 0.583,1.517 1.983,5.711 1.983,6.878 0,1.167 0,2.333 0.817,3.5 0.817,1.167 0.583,2.333 -0.35,1.633 -0.933,-0.7 -0.933,-0.467 -1.633,-0.35 -0.7,0.117 -1.167,-0.234 -2.095,-0.817 -0.933,-0.583 -0.35,-0.466 -1.283,-1.866 -0.933,-1.4 -1.517,-1.867 -1.517,-0.817 0,1.05 -0.116,2.333 -0.816,1.75 -0.7,-0.583 -1.05,-0.583 -1.633,0 -0.583,0.583 -0.817,1.05 -1.516,-0.117 -0.699,-1.167 -1.517,-1.166 -2.217,-1.4 -0.7,-0.234 -0.7,-0.233 -1.045,-1.283 -0.35,-1.05 -1.4,-1.283 -2.333,-1.283 -0.933,0 -1.4,-0.467 -1.516,-1.166 -0.117,-0.696 -0.7,-1.163 -1.166,-1.513 -0.466,-0.35 -0.234,-1.166 -0.35,-1.983 -0.116,-0.817 -0.817,-0.466 -1.283,-0.7 -0.466,-0.234 -0.817,-0.116 -0.817,-1.283 0,-1.167 -0.467,-1.516 -0.816,-2.333 -0.346,-0.816 0,-1.633 0.233,-2.562 0.233,-0.933 0.116,-1.516 -0.579,-2.333 -0.7,-0.816 -0.117,-1.633 -1.983,-3.266 -1.866,-1.633 -2.8,-0.233 -3.382,-4.079 -0.584,-3.85 -1.75,-11.777 -2.8,-13.06 -1.05,-1.283 -1.745,-2.217 -2.795,-2.567 -1.05,-0.35 -1.75,-0.116 -1.866,-2.333 -0.117,-2.212 -0.816,-5.011 -2.216,-6.411 -1.4,-1.4 -1.983,-1.867 -2.683,-2.45 -0.7,-0.583 -0.933,-1.633 0,-3.612 0.933,-1.983 0.583,-4.666 0.467,-5.95 -0.117,-1.278 -0.467,-2.911 -0.234,-4.31 0.233,-1.399 0.117,-3.15 -0.233,-4.084 -0.35,-0.934 -0.816,-1.166 -0.233,-1.866 z M 431.13,298.92 c -1.579,2.032 -3.261,3.733 -5.437,5.285 -2.176,1.557 -4.975,2.8 -3.423,5.443 1.557,2.642 2.8,2.956 3.11,4.975 0.313,2.02 0.78,3.733 2.332,4.2 1.557,0.462 2.176,0.153 2.176,3.419 0,3.266 0,4.509 1.4,5.752 1.4,1.243 1.242,2.485 1.866,5.442 0.619,2.952 0.619,9.328 2.485,13.68 1.866,4.352 6.065,12.594 5.599,14.304 -0.466,1.71 -1.09,2.952 0.776,4.971 1.866,2.024 3.109,4.976 3.266,6.685 0.152,1.714 0.467,2.333 2.328,1.714 1.867,-0.624 2.8,-1.247 3.423,-2.023 0.62,-0.777 1.862,-0.62 3.576,0.31 1.709,0.932 4.351,1.866 5.904,0.932 1.556,-0.933 2.332,-2.328 3.732,-2.328 2.176,-1.557 2.952,-4.823 3.419,-5.752 0.466,-0.933 0.157,-0.933 -0.777,-1.867 -0.934,-0.934 -0.466,-2.49 -0.623,-4.042 -0.153,-1.557 -0.776,-3.886 -2.642,-7.309 -1.862,-3.419 -2.952,-7.618 -4.195,-8.704 -1.243,-1.09 -1.866,-3.733 -2.023,-4.976 -0.153,-1.243 -1.553,-2.333 -2.486,-3.266 -0.933,-0.929 -1.866,-2.329 -2.952,-7.771 -1.09,-5.443 -1.866,-9.328 -1.866,-10.261 0,-0.933 -0.157,-1.09 -1.09,-1.4 -0.933,-0.31 -1.4,-1.867 -1.086,-2.643 0.31,-0.776 -0.314,-1.552 -0.623,-2.485 -0.309,-0.933 0,-2.643 0.623,-3.576 0.62,-0.934 0.467,-3.576 -0.157,-5.752 -0.624,-2.176 -1.242,-4.043 -3.732,-4.357 -2.486,-0.31 -2.952,-0.929 -3.885,-2.952 -0.933,-2.02 -1.867,-5.595 -2.176,-6.376 -0.31,-0.776 -0.776,-0.933 -2.642,0.624 -1.867,1.552 -2.486,2.068 -2.486,4.976 0,1.866 0.31,2.485 0.929,3.576 0.623,1.085 0.78,1.4 1.247,4.352 0.467,2.952 3.109,7.618 -0.314,10.26 -3.419,2.643 -2.952,3.267 -2.795,5.13 0.153,1.866 -0.933,3.108 -1.557,0.466 -0.619,-2.643 0,-4.195 1.867,-5.438 1.866,-1.247 3.575,-2.8 2.332,-4.51 -1.247,-1.709 -1.709,-5.751 -1.866,-7.618 -0.157,-1.867 -0.466,-2.49 -1.557,-1.09 z"
       id="path20"
       inkscape:connector-curvature="0"
       style="fill:#cf6200" />
    <path
       d="m 403.406,338.538 c -0.085,1.265 0.197,2.656 0.296,3.773 0.116,1.283 0.466,3.966 -0.467,5.95 -0.933,1.978 -0.7,3.028 0,3.611 0.04,0.031 0.077,0.063 0.112,0.094 1.903,-0.637 2.15,-2.76 1.638,-3.787 -0.543,-1.085 -0.386,-2.409 0.233,-3.495 0.624,-1.09 0.624,-1.71 0.08,-2.49 -0.546,-0.776 -0.546,-0.776 0.077,-2.952 0.548,-1.916 -0.834,-1.902 -1.97,-0.704 z m 19.918,30.15 c -0.35,-1.4 -1.632,-6.766 -1.75,-10.26 -0.116,-3.5 -1.628,-6.3 -4.544,-8.979 -2.274,-2.095 -2.772,-5.46 -2.88,-8.058 -1.709,-1.045 -2.431,-0.57 -2.288,1.373 0.153,2.095 2.252,3.11 1.943,6.138 -0.31,3.033 -0.31,2.257 1.166,3.733 1.476,1.476 2.019,2.876 1.243,3.5 -0.776,0.619 -0.857,1.709 0.233,2.095 1.086,0.39 1.167,1.557 1.01,2.642 -0.157,1.09 0.856,1.324 1.475,2.1 0.624,0.776 0.7,2.643 0.081,3.733 -0.623,1.086 -0.7,2.795 0.386,1.867 1.09,-0.934 1.557,-0.081 2.41,1.395 0.74,1.274 1.358,0.875 2.161,0.489 a 9.836,9.836 0 0 1 -0.646,-1.768 z m 15.164,27.145 c -0.7,1.4 -1.516,0.933 -2.216,0.233 -0.7,-0.7 -1.517,-0.7 -1.167,-1.983 0.35,-1.283 0.234,-1.517 -0.7,-2.217 -0.107,-0.08 -0.215,-0.152 -0.323,-0.224 -0.291,-0.009 -0.632,-0.009 -1.076,-0.009 -1.633,0 -1.75,-0.466 -2.679,-1.4 a 7.84,7.84 0 0 0 -0.574,-0.52 c -0.018,0.224 -0.009,0.52 -0.009,0.87 0,1.283 0,1.05 -1.283,1.4 -1.283,0.35 -1.05,-1.283 -1.283,-2.333 a 3.854,3.854 0 0 0 -0.202,-0.628 c -1.404,-0.27 -2.884,-1.75 -3.414,-3.334 -0.583,-1.75 0.117,-1.983 0.7,-0.816 0.583,1.167 0.817,1.516 1.866,2.216 1.049,0.7 1.4,-0.466 1.05,-1.866 -0.112,-0.449 -0.139,-0.97 -0.125,-1.548 -0.252,-0.453 -0.593,-0.821 -1.041,-1.019 -1.867,-0.816 -1.283,-1.05 -1.167,-2.566 0.117,-1.512 -0.233,-1.512 -1.4,-0.7 -1.166,0.817 -1.282,-0.117 -1.282,-2.445 0,-2.333 -1.517,-2.333 -1.862,-0.7 -0.35,1.633 -0.933,0.583 -1.633,-1.75 -0.7,-2.333 -1.633,-2.916 -1.75,-0.7 -0.099,1.875 -0.619,2.324 -1.84,1.283 0.216,1.355 0.405,2.62 0.557,3.617 0.583,3.845 1.516,2.445 3.383,4.078 1.867,1.633 1.283,2.45 1.983,3.266 0.695,0.817 0.812,1.4 0.578,2.333 -0.233,0.93 -0.578,1.746 -0.233,2.562 0.35,0.817 0.817,1.167 0.817,2.333 0,1.166 0.35,1.05 0.816,1.284 0.292,0.143 0.668,0.062 0.942,0.179 0.3,-0.395 0.574,-0.88 0.924,-1.23 1.4,-1.4 3.5,0.117 4.2,1.867 0.7,1.75 1.511,2.217 2.561,0.817 1.05,-1.4 0.7,-1.167 1.866,0.116 1.166,1.283 1.633,1.05 1.633,1.05 0,0 1.167,-0.466 1.983,0.234 0.816,0.7 1.283,0.583 2.795,-1.634 1.516,-2.216 -0.695,-1.516 -1.395,-0.116 z m 4.127,-63.981 c 0.462,-3.418 0.153,-6.837 1.552,-8.085 1.4,-1.242 3.11,-3.728 2.952,1.557 -0.152,5.286 -0.31,4.976 -1.395,6.219 -1.09,1.243 -2.023,1.552 -0.933,3.576 1.086,2.019 1.243,2.176 1.086,5.285 -0.153,3.11 -0.153,4.352 1.09,5.909 1.242,1.552 1.552,1.71 1.866,3.419 0.31,1.71 1.395,4.042 2.795,5.285 1.4,1.243 2.956,4.819 3.109,7.309 0.157,2.486 2.333,3.11 4.351,4.819 2.024,1.71 -0.462,2.952 -2.018,2.176 -1.553,-0.776 -0.933,0 -1.867,1.086 -0.933,1.09 -1.242,1.247 -2.018,-0.62 -0.776,-1.867 -3.423,-3.109 -4.666,-3.575 -1.243,-0.466 -2.328,-2.49 -3.419,-4.51 -0.933,-1.736 -2.78,-3.006 -4.468,-3.136 0.467,1.31 0.718,2.338 0.583,2.827 -0.466,1.71 -1.09,2.952 0.777,4.971 1.866,2.024 3.108,4.976 3.266,6.685 0.152,1.714 0.466,2.333 2.328,1.714 1.866,-0.623 2.8,-1.247 3.423,-2.023 0.619,-0.777 1.862,-0.62 3.575,0.31 1.71,0.932 4.352,1.866 5.904,0.932 1.557,-0.933 2.333,-2.328 3.733,-2.328 2.175,-1.557 2.952,-4.823 3.418,-5.752 0.467,-0.933 0.157,-0.933 -0.776,-1.867 -0.933,-0.934 -0.467,-2.49 -0.624,-4.042 -0.152,-1.557 -0.776,-3.886 -2.642,-7.309 -1.862,-3.419 -2.952,-7.618 -4.194,-8.704 -1.243,-1.09 -1.867,-3.733 -2.024,-4.976 -0.152,-1.243 -1.552,-2.333 -2.485,-3.266 -0.933,-0.929 -1.866,-2.329 -2.952,-7.771 -0.852,-4.253 -1.512,-7.551 -1.759,-9.238 -1.117,1.781 -1.88,2.216 -2.283,0.996 -0.467,-1.396 -1.09,-2.176 -1.71,-1.243 -0.623,0.933 -0.78,-0.776 -0.78,-1.552 0,-0.781 -0.152,-0.934 -0.933,-0.934 -0.776,0 -0.153,-1.242 -0.467,-3.576 -0.31,-2.333 -0.776,-2.642 -1.085,0.158 -0.31,2.795 -1.867,4.504 -1.243,5.128 0.62,0.623 0.31,1.866 -0.314,3.733 -0.62,1.862 -0.31,2.952 0.157,4.195 0.467,1.243 -0.31,3.576 -0.624,5.6 -0.31,2.018 1.248,4.037 1.714,0.618 z m -28.398,-27.907 c -1.152,0.085 -1.942,1.095 -1.283,4.626 0.413,2.185 -1.242,1.71 -1.861,0.62 -0.624,-1.087 -1.09,-3.42 -2.333,-5.443 -1.247,-2.02 -0.624,1.4 -0.776,3.266 -0.157,1.866 1.085,1.866 2.176,3.419 1.085,1.557 0.152,2.18 -1.09,2.18 -1.242,0 -0.62,2.486 -0.31,4.195 0.31,1.709 -0.31,2.024 -1.247,0.624 -0.929,-1.4 -0.31,-3.576 -0.153,-6.218 0.153,-2.643 0.31,-2.024 -1.4,-2.643 -1.709,-0.624 -1.4,-0.933 -0.776,-2.49 0.62,-1.553 1.243,-2.333 0.467,-3.11 -0.78,-0.776 -0.624,-1.242 0.619,-1.4 1.243,-0.152 0.78,-1.085 1.866,-1.4 1.09,-0.309 1.557,0.158 1.71,-1.861 0.13,-1.687 0.695,-2.724 1.96,-2.212 0.763,2.598 1.754,6.64 2.431,7.847 z m 15.657,18.305 c 0,3.267 0,4.51 1.4,5.753 1.4,1.243 1.243,2.485 1.866,5.442 0.62,2.952 0.62,9.328 2.486,13.68 0.556,1.297 1.323,2.943 2.108,4.657 1.032,-0.812 1.93,-2.207 2.248,-2.947 0.462,-1.09 -0.933,-3.267 -2.024,-5.129 -1.085,-1.866 0.157,-2.49 1.243,-4.823 1.09,-2.329 -0.152,-2.486 -1.862,-3.11 -1.713,-0.618 -1.713,-2.175 -2.646,-4.66 -0.933,-2.485 -0.777,-3.577 -0.153,-4.977 0.62,-1.4 0.153,-2.485 -1.09,-2.8 -1.243,-0.309 -0.933,-1.242 -0.467,-2.795 0.467,-1.556 0.776,-1.866 -1.085,-1.4 -1.414,0.35 -1.754,0.615 -2.176,1.127 0.103,0.448 0.152,1.072 0.152,1.983 z"
       id="path22"
       inkscape:connector-curvature="0"
       style="fill:#00b800" />
    <path
       d="m 447.774,328.757 c -0.17,1.866 -0.157,2.8 -0.623,3.418 -0.462,0.624 -0.153,1.557 0.314,2.49 0.467,0.933 0.776,2.177 0.31,3.886 -0.466,1.709 0.309,3.11 1.242,3.576 0.933,0.466 1.4,0 1.09,2.176 -0.314,2.176 0.933,4.51 2.019,5.442 1.09,0.934 1.866,2.486 1.71,3.42 -0.153,0.932 0.78,1.866 1.865,2.332 1.09,0.467 0.934,0.624 0.934,1.243 0,0.624 0.466,0.624 1.709,0.933 1.243,0.309 2.176,1.09 3.575,2.8 1.399,1.71 3.419,2.643 3.11,0.776 -0.309,-1.867 0,-3.109 -1.867,-4.042 -1.862,-0.934 -3.262,-5.443 -4.042,-8.552 -0.776,-3.11 -3.262,-7.304 -4.661,-8.08 -0.157,-2.181 0.157,-3.267 -1.243,-4.357 -1.4,-1.086 -1.866,-2.486 -1.866,-3.576 0,-1.086 -0.776,-2.486 -1.4,-2.795 -0.619,-0.314 -0.933,-1.09 -0.933,-2.024 0,-0.934 -1.086,-0.776 -1.243,0.934 z"
       id="path24"
       inkscape:connector-curvature="0"
       style="fill:#5d3100" />
    <path
       d="m 439.52,412.164 c 2.795,-0.233 10.376,-2.45 11.188,-3.15 1.867,1.284 5.132,3.034 6.532,3.034 -2.683,0.583 -4.432,0.233 -5.132,-0.234 0.35,0.817 1.283,2.1 1.866,2.217 -2.566,-0.117 -5.477,-0.7 -6.41,-1.633 -2.217,0.933 -5.95,1.166 -8.044,-0.234 z m 5.024,3.5 c 0.992,0.292 5.944,1.108 6.586,1.108 -1.633,1.396 -0.233,2.737 2.508,2.504 -1.342,0.175 -2.804,0.682 -1.808,0.875 2.39,0.466 8.86,-1.284 10.143,-1.983 -2.216,2.858 -12.996,5.482 -17.429,-2.504 z m 4.442,7.089 c 1.336,-0.7 4.66,-0.467 6.235,0.292 -1.75,0.641 -5.186,0.641 -6.235,-0.292 z"
       id="path26"
       inkscape:connector-curvature="0"
       style="fill:#00d860" />
    <path
       d="m 453.965,422.663 c 2.391,-0.408 9.152,1.225 11.543,-0.233 -0.816,2.158 -5.074,2.45 -6.532,1.983 -1.453,-0.467 -2.853,-1.05 -3.844,-0.992 0.525,-0.291 -0.35,-0.35 -1.167,-0.758 z"
       id="path28"
       inkscape:connector-curvature="0" />
    <path
       d="m 456.433,425.983 c 1.808,0.287 8.277,-0.525 10.26,-1.283 2.095,0.7 6.235,1.804 7.169,1.687 -1.983,1.225 -5.774,0.525 -6.994,0 -3.5,1.167 -6.357,1.517 -10.435,-0.404 z"
       id="path30"
       inkscape:connector-curvature="0"
       style="fill:#00d860" />
    <path
       d="m 459.528,427.06 c 2.589,0.583 4.796,0.166 7.344,-0.686 0.794,0.34 2.665,0.758 4.423,0.673 1.171,0.668 2.746,1.601 4.262,1.718 -1.574,0.642 -7.348,0 -8.51,-0.641 -2.916,0.058 -7.932,0.7 -9.152,1.691 -0.058,-0.817 0.471,-1.952 1.633,-2.755 z"
       id="path32"
       inkscape:connector-curvature="0"
       style="fill:#00d860" />
    <path
       d="m 456.433,413.914 c 2.018,0.673 9.326,0.35 13.054,-1.4 1.472,-0.69 2.383,0.467 0.7,1.05 -6.06,2.1 -10.843,2.917 -14.338,1.05 -1.381,-0.736 -1.516,-1.4 0.584,-0.7 z"
       id="path34"
       inkscape:connector-curvature="0" />
    <path
       d="m 492.233,403.999 c -8.977,4.195 -14.926,5.478 -27.398,1.633 -1.162,-0.36 -1.983,0 -0.7,0.816 1.283,0.812 8.16,2.679 9.794,2.795 1.634,0.116 1.05,0.875 0.058,1.167 -0.992,0.292 -1.283,0.992 0.058,0.467 1.341,-0.525 8.834,-0.723 11.893,0.875 1.337,0.7 1.687,0.583 1.57,0.058 -0.117,-0.525 0.584,-0.875 1.575,-0.992 0.991,-0.117 1.575,-0.466 0.817,-0.758 -0.758,-0.292 -0.875,-0.467 -0.292,-0.758 0.583,-0.291 0.642,-0.583 -0.233,-0.758 -0.875,-0.175 -1.458,-0.409 -0.642,-0.817 0.817,-0.404 2.042,-0.7 2.975,-0.812 0.233,-0.642 -0.175,-2.333 0.525,-2.916 z"
       id="path36"
       inkscape:connector-curvature="0"
       style="fill:#00d860" />
    <path
       d="m 477.293,405.075 c 5.133,0.364 14.576,-1.983 19.592,-6.878 1.745,1.046 4.194,2.212 5.477,2.445 1.283,0.233 2.45,1.4 0.467,1.4 -1.983,0 -4.782,-0.816 -6.06,-1.4 -6.65,4.083 -14.429,5.425 -19.359,5.017 -1.395,-0.117 -1.745,-0.7 -0.117,-0.584 z"
       id="path38"
       inkscape:connector-curvature="0" />
    <path
       d="m 462.13,377.078 c 1.75,1.225 4.84,3.262 8.86,2.97 1.983,1.575 5.074,2.917 6.474,3.209 -2.683,1.108 -5.599,2.041 -6.357,2.916 -1.225,-1.167 -2.795,-0.992 -3.203,-1.575 -1.167,0.933 -0.992,1.517 -0.233,1.983 0.759,0.466 6.644,1.458 8.102,1.05 1.458,-0.408 1.848,0.799 0.641,1.22 -3.15,1.109 -9.268,0.059 -11.368,-3.32 -2.1,-3.383 -3.907,-4.666 -9.618,-1.575 -0.642,-1.633 -0.642,-2.041 -1.75,-2.041 -1.108,0 -3.15,-1.458 -1.575,-1.4 1.575,0.058 6.24,-0.641 10.027,-3.437 z"
       id="path40"
       inkscape:connector-curvature="0"
       style="fill:#00d860" />
    <path
       d="m 463.52,384.571 c -0.973,0.242 -3.732,1.75 -4.719,1.867 -0.991,0.116 -2.74,1.516 -0.933,1.574 1.804,0.059 4.137,-1.924 5.42,-2.1 1.283,-0.176 1.4,-1.633 0.233,-1.34 z m 5.653,5.923 c -0.69,0.12 -3.67,0.816 -4.486,0.758 -0.816,-0.058 -1.633,0.175 -1.574,0.758 0.059,0.583 0.291,0.933 -0.934,0.817 -1.225,-0.116 -2.274,0.35 -2.566,0.7 -0.292,0.35 -0.525,0.7 0.7,0.816 1.225,0.116 1.866,0.233 3.266,-0.408 1.4,-0.641 2.741,-1.633 4.258,-1.692 1.511,-0.058 3.028,-2.041 1.336,-1.75 z"
       id="path42"
       inkscape:connector-curvature="0"
       style="fill:#00d860" />
    <path
       d="m 465.001,394.083 c 1.274,0.825 7.577,2.975 9.852,2.8 2.275,-0.175 1.848,0.91 0.117,1.283 -3.558,0.754 -7.9,-0.794 -10.844,-3.15 -1.458,-1.166 -0.116,-1.575 0.875,-0.933 z"
       id="path44"
       inkscape:connector-curvature="0" />
    <path
       d="m 494.835,397.179 c -4.823,1.539 -9.736,0.991 -11.718,0.466 -1.982,-0.525 -3.791,-0.641 -2.45,0.642 1.341,1.279 5.657,2.154 8.102,1.512 -8.685,1.983 -10.96,1.808 -13.113,1.458 -2.158,-0.35 -6.209,-0.274 -7.927,-0.117 -1.283,0.117 -3.033,-0.058 -3.79,-0.524 -0.757,-0.466 -0.992,-1.342 1.282,-1.109 2.27,0.234 2.566,-0.233 0.583,-0.525 -1.983,-0.292 -4.724,0.525 -2.04,2.217 2.684,1.692 8.568,-0.117 12.3,0.933 3.728,1.05 11.655,1.808 19.179,-4.258 0.386,-0.31 1.05,-1.162 -0.408,-0.695 z m -23.688,-7.089 c 0.175,0.583 0.175,1.225 0,1.633 -0.175,0.408 -0.175,0.933 0.584,0.35 0.759,-0.583 1.224,-1.283 1.982,-0.875 0.758,0.408 2.683,0.35 3.554,0.233 0.879,-0.116 1.166,-0.291 -0.113,-0.816 -1.283,-0.525 -2.566,-0.7 -3.266,-0.642 -0.7,0.058 -1.574,-0.117 -2.157,-0.35 -0.583,-0.233 -0.759,-0.117 -0.584,0.467 z"
       id="path46"
       inkscape:connector-curvature="0"
       style="fill:#00d860" />
    <path
       d="m 483.574,392.333 c -0.991,0.058 -2.74,-0.583 -3.674,-0.991 -0.934,-0.408 -2.27,-0.467 -1.279,0.874 0.987,1.342 5.303,2.1 6.82,1.459 1.517,-0.641 0.874,-1.342 2.386,-0.409 1.516,0.934 3.091,1.575 4.2,1.575 1.109,0 1.515,0 0.29,-0.7 -1.225,-0.7 -1.807,-0.875 -1.924,-1.458 -0.117,-0.583 -0.291,-0.933 0.817,-0.583 1.108,0.35 2.39,0.991 3.266,0.525 0.876,-0.466 2.503,-1.517 3.96,-1.517 l 0.35,-0.875 c -2.099,-0.175 -3.436,0.467 -4.019,0.7 -0.583,0.233 -1.633,0.35 -2.74,0.175 -1.107,-0.175 -2.567,-0.291 -2.917,-0.583 -0.35,-0.292 -0.35,-0.525 0.583,-0.7 0.933,-0.175 1.225,-0.817 -0.058,-0.583 -1.283,0.234 -4.72,0.116 -6.527,-0.467 -1.808,-0.579 -2.567,-0.637 -3.325,-0.35 -0.758,0.292 -0.641,1.108 0.467,1.167 1.108,0.059 3.616,0.291 4.49,1.108 0.874,0.817 0.759,0.875 -0.233,0.467 -0.992,-0.408 -2.8,-0.175 -0.933,1.166 z"
       id="path48"
       inkscape:connector-curvature="0"
       style="fill:#00d860" />
    <path
       d="m 498.782,390.224 -0.35,0.875 c 2.158,-0.058 7.407,0.467 9.094,1.517 1.633,-1.283 1.341,-1.692 2.508,-1.458 1.167,0.234 2.624,0.641 3.266,0.291 0.642,-0.35 1.108,-0.291 1.808,-0.175 0.695,0.117 2.211,-0.175 3.086,-0.7 0.875,-0.525 2.683,-1.225 3.733,-1.225 1.05,0 2.328,-0.233 0.408,-0.525 -1.925,-0.291 -4.84,0.292 -5.832,0.642 -0.987,0.35 -3.961,0.583 -5.711,0.583 -1.75,0 -4.136,0.875 -6.12,0.35 -1.984,-0.525 -4.723,-0.175 -5.89,-0.175 z"
       id="path50"
       inkscape:connector-curvature="0"
       style="fill:#00d860" />
    <path
       d="m 525.79,389.192 c -3.495,2.567 -7.695,3.15 -12.706,3.5 -1.458,0.103 -1.009,0.516 0.234,0.642 5.244,0.525 11.31,-1.4 13.288,-3.5 0.574,-0.606 0.511,-1.61 -0.817,-0.642 z"
       id="path52"
       inkscape:connector-curvature="0" />
    <path
       d="m 501.968,395.16 c 1.516,0.058 6.76,1.4 8.452,1.983 1.283,-0.117 1.633,-0.408 1.4,-0.875 -0.233,-0.467 -0.409,-0.992 1.924,-0.875 2.328,0.117 7.694,0.058 8.685,0.058 0.817,-0.35 2.62,-1.75 3.437,-1.808 -2.095,0.117 -10.84,0.583 -11.947,0.467 -1.107,-0.116 -1.691,0 -2.391,0.408 -0.7,0.408 -1.108,0.583 -1.983,0.233 -0.875,-0.35 -2.45,-0.816 -3.32,-0.291 -0.875,0.525 -2.683,0.058 -4.257,0.7 z"
       id="path54"
       inkscape:connector-curvature="0"
       style="fill:#00d860" />
    <path
       d="m 522.425,395.429 c 0.816,-0.35 2.62,-1.75 3.436,-1.808 1.516,-0.117 3.266,0.525 4.083,0.641 0.817,0.116 1.69,-0.058 1.108,-0.7 -0.582,-0.642 -0.059,-1.75 2.332,-1.458 2.387,0.292 3.612,0.7 5.945,0.467 2.333,-0.233 3.382,1.516 7.81,-0.233 -0.35,1.75 0.467,1.866 1.283,1.516 0.816,-0.35 1.75,-0.233 3.15,0.817 1.4,1.05 9.91,1.166 11.892,0.816 1.979,-0.35 3.029,0.7 1.512,1.167 -1.512,0.466 -1.866,1.166 -1.512,1.633 0.346,0.462 0.696,1.045 -1.166,0.812 -1.866,-0.233 -2.216,0.35 -3.15,1.05 -0.934,0.7 -1.166,0.933 -3.732,0.467 -2.561,-0.467 -3.028,-0.117 -4.428,0.116 -1.4,0.233 -1.75,0.234 -3.149,-0.233 -1.399,-0.467 -4.428,-0.933 -6.294,-0.35 -1.866,0.583 -3.266,1.166 -4.9,0.7 -1.634,-0.466 -1.749,-0.233 -0.699,-1.283 1.05,-1.05 1.283,-0.934 3.266,-1.167 1.983,-0.229 3.5,-0.812 2.1,-1.629 -1.4,-0.817 -1.867,-0.7 -3.733,0.234 -1.866,0.934 -2.8,1.512 -4.894,0.35 -2.1,-1.167 -3.15,-0.934 -4.55,-0.584 -1.4,0.35 -3.727,-0.466 -5.71,-1.341 z m 6.998,3.5 c -2.67,0.38 -3.387,-1.337 -6.177,-0.988 -0.934,0.117 -2.508,1.28 -0.35,1.104 2.153,-0.175 4.486,0.992 6.585,0.817 2.099,-0.175 1.167,-1.108 -0.058,-0.933 z m -3.095,2.019 c 1.404,-0.512 4.315,0.466 5.54,0.233 1.225,-0.233 2.391,0.525 1.108,0.933 -1.283,0.408 -4.374,-0.758 -5.774,-0.35 -1.4,0.408 -2.794,-0.117 -0.874,-0.816 z m -27.86,7.537 c 1.925,0.063 8.86,-0.233 11.602,-6.061 0.21,-0.449 0.408,-0.642 1.283,-0.059 0.875,0.583 4.082,2.508 10.085,3.033 1.682,0.148 3.499,0.992 0.116,0.759 -3.383,-0.233 -8.743,-1.167 -10.551,-2.275 -3.033,4.778 -8.48,5.344 -12.535,5.245 -2.445,-0.059 -1.861,-0.7 0,-0.642 z"
       id="path56"
       inkscape:connector-curvature="0"
       style="fill:#00d860" />
    <path
       d="m 513.452,400.544 c -0.933,1.283 -4.14,3.5 -5.599,3.616 -1.453,0.117 -5.827,-0.292 -6.935,-0.7 -1.108,-0.408 -2.45,-0.292 -0.875,0.817 1.575,1.109 5.482,1.866 7.052,1.516 1.575,-0.35 3.383,-0.875 4.608,-0.116 1.225,0.759 3.499,2.211 4.836,1.92 1.341,-0.287 4.082,-0.287 4.957,0.117 0.875,0.408 2.391,1.633 0.117,0.933 -2.274,-0.7 -4.141,-0.117 -5.19,-0.584 1.166,1.634 3.812,4.258 6.064,4.258 0.525,0 0.875,0.934 -0.233,1.459 1.108,0.524 3.67,0.933 5.011,-0.292 -0.35,0.467 -0.175,0.758 0.408,1.05 0.583,0.292 1.284,0.7 0.234,0.816 -1.05,0.116 -3.437,0.409 -4.136,0.117 2.27,1.454 8.16,3.787 14.162,2.62 1.144,-0.22 1.75,-0.695 -0.116,-0.641 -3.85,0.116 -4.078,0.058 -4.778,-0.346 -0.7,-0.413 -0.583,-0.758 0.525,-1.108 1.103,-0.35 3.903,-0.758 5.07,-0.758 1.167,0 2.332,-0.467 -0.059,-0.467 -2.391,0 -5.303,0 -6.47,-0.408 -1.167,-0.408 -2.04,-0.933 -0.816,-1.75 1.224,-0.817 2.508,-0.583 3.091,-1.342 -3.849,-0.058 -8.573,-2.1 -5.948,-3.961 0.61,-0.436 0.408,-0.467 -0.584,-0.584 -0.992,-0.117 -3.903,-0.933 -5.127,-1.633 -1.224,-0.7 -0.409,-1.283 0.583,-1.458 -2.275,0.408 -6.824,-0.816 -9.852,-3.091 z m 34.185,-0.09 c -2.1,1.575 -6.06,2.216 -7.752,2.216 -1.692,0 -1.925,0.584 -0.583,0.759 1.342,0.175 2.8,0.35 3.382,0.175 0.582,-0.175 0.933,-0.234 1.804,0.175 0.875,0.408 2.74,0.641 4.374,0.116 1.634,-0.525 4.311,-0.758 5.42,-0.7 1.109,0.058 2.332,0.117 0.116,-0.525 -2.212,-0.641 -5.828,-0.175 -6.703,0.059 -0.875,0.234 -3.266,0.058 -1.982,-0.35 1.284,-0.408 2.39,-1.05 3.032,-1.575 -0.466,-0.117 -0.758,-0.233 -1.108,-0.35 z m -1.077,4.532 c -1.808,1.341 -4.427,2.62 -7.11,2.736 2.45,0.875 4.49,3.383 6.06,3.267 -0.758,0.466 -1.686,1.166 -2.678,1.283 1.517,0.408 4.078,-0.058 6.178,-1.225 3.5,0.992 8.044,0.35 9.56,-0.933 -2.275,0 -5.011,-0.817 -6.236,-1.867 1.108,0 2.154,-0.7 2.678,-1.337 -2.62,0.463 -7.11,-0.816 -8.452,-1.924 z"
       id="path58"
       inkscape:connector-curvature="0"
       style="fill:#00d860" />
    <path
       d="m 542.837,412.299 c 0.991,-0.117 1.92,-0.817 2.678,-1.283 -1.92,0.641 -10.318,-0.7 -12.821,-2.917 -2.508,-2.212 -2.508,-0.525 -0.759,1.05 1.749,1.575 4.837,3.966 10.902,3.15 z m 6.146,5.339 c -1.05,0.583 -6.06,0.933 -7.694,0.583 -1.634,-0.35 -2.333,-0.175 -1.924,0.467 0.409,0.642 0.583,1.225 -0.759,1.05 -1.342,-0.175 -3.732,0.117 -4.72,0.466 -0.99,0.35 -2.215,1.225 -0.116,0.875 2.095,-0.35 4.02,-0.758 5.595,-0.35 1.575,0.408 7.168,0.525 8.277,0.059 1.109,-0.466 0.35,-0.467 -0.175,-0.467 -0.525,0 -0.759,-0.35 0,-0.7 0.759,-0.35 1.341,-1.341 1.516,-1.983 z m -48.496,-6.775 c -2.1,0.933 -9.093,2.8 -10.96,2.917 -2.332,1.05 -4.194,1.633 -5.36,1.633 0.816,0.7 3.96,1.395 5.244,1.05 -0.7,0.695 -2.329,1.512 -2.912,1.862 1.862,-0.234 4.078,0.233 5.011,0.35 -2.45,1.4 -5.827,1.866 -7.577,1.633 0.583,0.816 1.4,1.633 2.45,1.633 -2.217,0.583 -4.9,0.583 -6.3,0.116 0.584,1.167 1.167,1.867 1.984,1.984 -1.866,0.233 -4.2,0.583 -6.178,-0.584 1.512,1.983 4.895,2.679 9.91,2.1 5.011,-0.583 9.21,-2.8 10.377,-3.733 -2.1,0.233 -4.899,0.35 -6.299,0.117 2.8,-0.7 8.86,-3.266 9.91,-4.316 -1.166,0 -2.328,-0.35 -3.149,-0.934 1.633,0.234 7.348,-0.462 9.098,-1.162 -2.1,-0.466 -3.383,-1.75 -3.966,-2.566 7.344,2.333 15.518,1.57 19.47,0.583 0.933,-0.233 1.046,-1.418 -0.816,-1.283 -3.266,0.233 -9.56,-0.7 -11.193,-1.516 1.516,1.166 3.382,1.866 4.665,2.1 -3.032,0.816 -7.227,1.4 -13.409,-1.984 z"
       id="path60"
       inkscape:connector-curvature="0"
       style="fill:#00d860" />
    <path
       d="m 486.49,418.356 c 0.583,-0.35 2.212,-1.167 2.912,-1.862 -1.283,0.345 -4.428,-0.35 -5.245,-1.05 1.167,0 3.029,-0.583 5.361,-1.633 -4.194,-0.117 -7.11,-0.117 -8.627,-0.933 -1.517,-0.816 -4.31,-0.584 -5.36,-0.35 -1.05,0.234 -0.7,1.983 3.727,1.516 -1.866,1.283 -6.877,1.75 -8.743,1.283 0.466,1.512 0.816,3.029 0.35,3.846 2.45,1.4 8.86,3.15 12.01,2.916 -2.8,-1.05 -4.316,-2.217 -1.984,-2.45 2.332,-0.233 3.616,-0.7 5.6,-1.283 z"
       id="path62"
       inkscape:connector-curvature="0"
       style="fill:#00d860" />
    <path
       d="m 479.267,425.938 c 5.581,-0.466 13.055,-0.565 19.004,-5.599 1.516,-1.283 2.535,-0.852 1.05,0.467 -3.145,2.8 -10.96,6.644 -18.42,6.761 -3.038,0.05 -4.429,-1.4 -1.634,-1.629 z"
       id="path64"
       inkscape:connector-curvature="0" />
    <path
       d="m 521.079,416.696 c -1.4,0.525 -5.307,1.166 -6.47,0.991 -1.166,-0.175 -2.857,-0.233 -3.79,0.35 -0.933,0.583 -0.992,0.934 0.291,1.05 1.283,0.116 2.916,0.234 3.733,0.175 -1.05,0.584 -1.75,1.4 -1.983,1.75 1.866,-0.467 5.303,0.35 6.294,0.933 -0.758,0.234 -1.633,-0.058 -2.274,-0.408 3.149,3.325 12.476,3.325 13.992,2.741 -0.7,0.525 -1.341,1.05 -2.041,1.225 2.624,0.467 5.653,0.409 8.627,-1.341 -0.992,0.175 -3.961,-0.117 -4.72,-0.175 a 5.597,5.597 0 0 1 2.27,-1.342 c -1.161,-0.233 -4.836,-0.116 -5.71,0.35 0.35,-0.7 0.991,-1.575 1.69,-1.866 -4.607,0 -10.2,-0.059 -12.242,-1.167 3.266,0.35 6.882,-1.575 8.394,-1.575 -2.562,-0.058 -5.361,-0.641 -6.061,-1.691 z m -11.709,2.557 c -2.275,0.467 -5.711,1.4 -6.644,1.925 -0.933,0.525 -1.925,0.817 0.116,0.817 2.041,0 7.578,0.233 8.802,0.408 -3.09,-0.467 -7.285,-0.583 -8.102,-0.583 -0.817,0 -1.75,-0.059 -0.233,-0.525 1.517,-0.466 3.5,-1.517 6.06,-2.042 z m -4.621,5.429 c 0.812,0 4.37,0 5.77,-1.225 1.457,1.109 4.257,2.679 6.06,2.679 1.808,0 1.633,0.467 0.058,0.641 -1.57,0.175 -4.66,-0.753 -6.235,-1.92 -2.1,0.758 -3.845,0.117 -5.653,-0.175 z m -27.007,15.704 c 3.611,1.4 8.394,2.45 11.889,1.283 1.982,1.75 6.065,1.866 8.277,1.4 2.216,-0.467 4.199,-0.7 6.648,0.116 2.445,0.817 7.46,0.875 8.86,2.037 -1.283,0.063 -4.024,0 -4.665,0.18 -0.642,0.17 -0.292,0.579 0.875,1.22 -3.962,-0.233 -10.785,1.458 -12.88,3.266 0.753,-1.808 3.086,-4.257 6.76,-4.257 -2.1,-0.754 -8.802,-0.812 -10.96,0.525 -0.641,-0.7 -1.4,-1.862 -1.457,-2.329 -3.554,2.037 -10.552,-0.875 -13.347,-3.441 z m -9.242,-6.551 c 4.303,-0.615 7.232,-1.983 8.515,-3.266 0.758,0.7 3.903,1.4 7.344,0.35 -0.7,0.525 -0.758,1.516 -0.466,2.041 -2.275,0.058 -6.59,1.167 -8.044,1.925 -1.458,0.754 -5.716,1.279 -7.11,0.52 -1.4,-0.753 -1.459,-1.395 -0.238,-1.57 z"
       id="path66"
       inkscape:connector-curvature="0"
       style="fill:#00d860" />
    <path
       d="m 483.888,432.983 c -2.274,0.058 -6.59,1.166 -8.044,1.924 0.292,0.584 0.467,1.512 0.525,2.154 4.195,-1.516 13.813,-2.445 17.488,-1.862 -1.75,0.117 -5.074,1.92 -6.936,2.154 4.544,-0.35 8.977,0.583 10.139,0.875 1.166,0.291 1.4,1.166 0.525,1.983 -0.875,0.817 -1.279,0.933 0.583,0.991 1.866,0.059 5.715,-0.175 7.465,-1.866 -0.7,-0.758 -2.508,-0.467 -3.033,-0.992 1.225,-0.408 2.625,-1.283 3.15,-1.925 -3.15,-0.058 -4.316,-0.116 -5.366,-0.35 -1.05,-0.228 -1.808,-0.524 -0.525,-1.22 1.283,-0.7 1.866,-1.283 2.275,-1.75 -2.275,0.642 -5.828,1.167 -8.802,-1.166 1.108,0.291 3.728,0.116 4.66,-0.292 -0.99,-0.525 -1.803,-0.933 -2.62,-0.933 2.388,-1.167 7.111,-2.217 12.94,0.116 2.915,-0.233 6.064,-0.116 8.276,0.467 0.933,-0.933 2.916,-3.15 3.966,-3.733 -6.877,0.583 -19.237,-0.7 -19.004,-4.312 -2.216,2.912 -7.344,4.545 -9.56,4.079 -0.233,1.05 0.7,2.333 1.517,3.033 -2.333,0.466 -6.299,0.816 -8.16,0.466 1.049,1.05 3.027,1.984 4.194,1.867 -2.445,0 -3.728,0.467 -5.653,0.292 z"
       id="path68"
       inkscape:connector-curvature="0"
       style="fill:#00d860" />
    <path
       d="m 498.154,441.193 c 1.867,0.059 5.716,-0.175 7.465,-1.866 -0.7,-0.758 -2.507,-0.467 -3.032,-0.992 1.224,-0.408 2.624,-1.283 3.149,-1.925 4.894,-0.403 9.268,-0.17 11.364,-0.812 2.1,-0.641 7.465,-0.291 8.514,-0.583 -4.665,0.754 -5.598,1.162 -5.832,1.92 -0.234,0.758 1.517,1.4 2.625,1.4 -2.1,-0.116 -4.724,2.1 -4.958,2.975 -2.794,-1.633 -4.136,0.292 -4.427,0.933 -1.167,-0.466 -5.016,-0.35 -6.999,1.342 -2.562,-0.759 -4.253,-1.167 -6.819,-0.759 1.575,-0.35 1.283,-1.4 -1.05,-1.633 z m 22.386,-13.639 c 1.575,-0.059 5.012,0.116 6.236,-0.059 -0.816,0.409 -1.862,1.167 -2.095,1.517 3.962,-0.467 9.38,-0.758 10.956,-0.525 -1.92,-0.292 -3.903,0.933 -4.895,1.575 -0.992,0.642 -0.408,1.05 0.933,1.225 1.341,0.175 3.15,1.224 0.7,0.875 -2.45,-0.349 -7.286,-0.35 -8.452,-0.175 -1.166,0.175 -1.808,-0.409 -0.117,-0.642 1.691,-0.233 2.854,-0.817 3.67,-1.283 -1.4,0.35 -4.078,0.35 -4.894,0.116 -0.816,-0.234 -1.342,-0.7 -0.409,-0.933 0.933,-0.233 0.292,-0.583 -0.7,-0.466 -0.992,0.117 -3.499,1.166 -4.898,2.508 1.516,-1.575 2.857,-2.975 3.965,-3.733 z"
       id="path70"
       inkscape:connector-curvature="0"
       style="fill:#00d860" />
    <path
       d="m 502.775,430.2 c 1.925,2.159 4.195,3.384 7.81,3.5 0.759,0.023 2.172,1.041 0.35,1.109 -4.898,0.175 -7.343,-0.992 -9.501,-4.142 -0.444,-0.646 0.377,-1.547 1.341,-0.466 z m 29.205,-40.783 c 2.575,1.216 7.752,2.274 11.777,2.1 0.7,-0.032 2.108,0.717 0.345,0.874 -4.545,0.409 -8.627,-0.228 -12.413,-2.333 -1.05,-0.583 -0.7,-1.108 0.291,-0.641 z"
       id="path72"
       inkscape:connector-curvature="0" />
    <path
       d="m 534.582,389.372 c 3.962,-0.117 6.936,-0.058 8.16,1.108 2.27,-0.7 6.353,-1.108 7.286,-0.933 0.933,0.175 1.983,-0.233 -0.175,-0.758 -2.158,-0.52 -7.169,-0.696 -8.743,-0.404 -1.575,0.287 -6.474,0.462 -8.102,0.287 0.7,0.117 1.162,0.233 1.574,0.7 z m 15.388,1.57 c 1.866,-0.991 7.227,-0.058 8.86,-0.758 -1.166,1.4 3.733,1.516 7.986,0.408 -1.633,1.05 -5.128,1.225 -6.644,1.867 -1.516,0.642 -2.333,0.175 -3.5,-0.35 -1.167,-0.525 -4.136,-1.575 -6.702,-1.167 z"
       id="path74"
       inkscape:connector-curvature="0"
       style="fill:#00d860" />
    <path
       d="m 566.838,390.583 c -4.253,1.108 -9.152,0.992 -7.985,-0.408 -1.633,0.7 -6.994,-0.233 -8.86,0.758 1.924,-1.166 3.382,-0.233 4.777,-2.624 0.875,0.179 2.916,0.296 3.616,-0.638 1.225,0.292 3.383,0.817 4.024,1.454 0.642,0.642 1.629,-0.175 0.812,-1.162 1.925,-0.7 0.704,0.83 5.19,-0.292 0.934,-0.233 3.208,-0.641 3.966,-0.7 -1.516,1.225 -3.324,2.562 -5.54,3.612 z"
       id="path76"
       inkscape:connector-curvature="0"
       style="fill:#00d860" />
    <path
       d="m 373.36,664.19 c -0.017,-1.966 -0.207,-18.422 -0.207,-22.226 0,-0.91 -0.468,-0.728 -0.468,0 v 22.122 c 0.215,0.039 0.505,0.078 0.675,0.104 z m 7.23,-23.42 0.812,23.461 -0.142,0.188 -0.471,0.007 -0.513,-23.656 z m 6.84,19.81 c -0.066,-2.389 -0.366,-13.448 -0.482,-18.9 -0.015,-0.727 -0.448,-0.6 -0.441,0.026 0.047,4.391 0.308,16.672 0.356,18.887 0.17,0 0.463,-0.017 0.567,-0.013 z"
       transform="matrix(4.4862,0,0,4.4867,-1190.9,-2609)"
       id="path78"
       inkscape:connector-curvature="0"
       style="fill:#ffff00;stroke:#000000;stroke-width:0.138" />
    <path
       d="m 376.6,644.67 -6.913,-0.104 c -0.389,1.403 1.352,1.377 2.002,1.013 0.753,0.572 1.325,0.52 1.741,0.052 0.598,0.494 1.351,0.364 1.663,0.052 0.832,0.624 1.689,0 1.507,-1.013 z m 0.52,3.48 -7.069,-0.026 c -1.221,1.169 0.364,1.741 1.716,0.935 0.182,0.39 1.013,0.624 1.663,0.312 0.598,0.468 1.351,0.13 1.741,-0.26 0.728,0.338 1.585,0.442 1.949,-0.961 z m -0.2,4.42 -6.809,-0.052 c -0.13,1.221 1.248,1.065 1.793,0.754 0.52,0.805 1.664,0.623 2.106,0.155 0.649,0.442 1.247,0.338 1.585,-0.078 0.754,0.65 1.377,-0.181 1.325,-0.779 z m 0.34,4.42 -7.614,-0.13 c -0.416,1.299 0.753,1.533 1.299,1.221 0.182,0.754 1.195,0.494 1.455,-0.052 0.39,0.39 0.884,0.182 1.118,-0.078 0.104,0.702 0.987,0.728 1.663,0.13 1.377,0.962 2.677,-0.156 2.079,-1.091 z m 6.75,-1.82 -6.341,-0.052 c 0.286,1.299 0.909,1.637 1.923,0.883 0.754,0.78 2.001,0.494 2.313,0.104 1.377,1.118 2.131,-0.182 2.105,-0.935 z m -0.65,-4.34 -6.133,-0.182 c 0.104,1.559 1.585,1.507 2.339,0.831 0.572,0.728 1.585,0.52 1.949,0 0.78,0.78 2.053,0.312 1.845,-0.649 z m 0.81,-4.89 h -6.601 c 0.078,1.091 1.533,1.715 2.651,0.676 0.311,1.247 1.507,0.857 2.027,0.363 0.753,0.962 2.494,-0.129 1.923,-1.039 z m -0.39,-3.32 -5.899,0.078 c -0.104,0.961 1.299,1.377 1.819,0.597 0.286,0.494 1.273,0.442 1.559,-0.026 0.468,0.728 1.04,0.234 1.221,0 0.676,0.494 1.404,0.26 1.3,-0.649 z m 6.91,2.15 -7.225,-0.078 c -0.026,0.753 0.754,1.065 1.221,0.753 0,0.728 1.014,0.962 1.664,0.39 0.442,0.624 1.741,0.806 2.261,-0.052 1.065,0.884 2.209,0.26 2.079,-1.013 z m -0.1,5.93 -7.069,-0.026 c 0.052,0.987 1.195,1.325 1.845,0.805 0.156,0.832 1.04,0.884 1.559,0.468 0.624,0.702 1.664,0.754 2.235,-0.026 0.858,0.312 1.508,-0.416 1.43,-1.221 z m -0.37,5.33 -5.588,-0.078 c 0,0.988 1.17,1.118 1.69,0.598 0.545,0.65 1.377,0.65 1.845,0.13 0.753,0.65 1.897,0.468 2.053,-0.65 z"
       transform="matrix(4.4862,0,0,4.4867,-1190.9,-2609)"
       id="path80"
       inkscape:connector-curvature="0"
       style="fill:#ffffff;stroke:#000000;stroke-width:0.138" />
    <path
       d="m 381.26,664.42 c -3.014,0.052 -6.081,0.052 -8.16,-0.26 -2.079,-0.312 -2.734,-0.604 -4.158,-1.455 -2.131,-1.273 -2.651,-1.585 -5.665,-3.352 -0.462,-0.271 -0.963,0.065 -0.312,0.493 3.04,2.001 4.192,2.743 5.639,3.691 1.507,0.987 2.479,1.864 3.404,2.91 1.196,1.352 2.079,1.378 2.625,1.17 0.546,-0.208 1.404,-0.494 2.261,-0.286 0.858,0.208 2.001,0.234 2.599,0.13 0.546,0.494 1.793,0.39 2.495,0.234 0.701,-0.156 1.221,-0.234 1.715,-0.13 0.494,0.104 1.247,0.026 1.741,-0.052 0.494,-0.078 1.793,-0.208 2.703,-0.078 0.909,0.13 1.845,0.052 2.443,-0.13 0.597,-0.182 1.689,-0.13 2.053,-0.026 0.519,-0.39 0.779,-0.884 0.909,-1.403 0.611,-0.078 0.814,-0.154 0.949,-0.507 0.247,-0.65 0.48,-1.287 0.559,-1.572 h 0.246 l 0.078,-0.585 -0.506,-0.585 0.182,-1.117 0.545,-0.13 c 0.026,-0.338 -0.13,-0.858 -0.234,-1.066 -3.274,0.13 -6.484,0.234 -8.783,0.286 -0.26,0.208 -0.546,0.754 -0.598,1.092 -1.403,0.233 -2.235,0.337 -2.599,0.415 -0.364,0.078 -0.567,0.107 -0.857,0.494 -0.468,0.624 -0.91,1.351 -1.274,1.819 z"
       transform="matrix(4.4862,0,0,4.4867,-1190.9,-2609)"
       id="path82"
       inkscape:connector-curvature="0"
       style="stroke:#000000;stroke-width:0.138" />
    <path
       d="m 391.78,660.45 c 0.159,-0.551 0.584,-2.035 1.354,-4.84 0.129,-0.468 -0.325,-0.653 -0.493,-0.052 -0.916,3.275 -1.262,4.503 -1.378,4.912 0.176,-0.003 0.428,-0.022 0.517,-0.02 z"
       transform="matrix(4.4862,0,0,4.4867,-1190.9,-2609)"
       id="path84"
       inkscape:connector-curvature="0"
       style="stroke:#000000;stroke-width:0.138" />
    <path
       d="m 396.85,654.96 c -1.105,0.571 -1.638,0.792 -2.144,0.597 -0.466,-0.179 -1.151,-0.28 -1.552,-0.083 a 0.523,0.523 0 0 1 -0.021,0.135 493.286,493.286 0 0 1 -1.048,3.768 c 0.818,0.289 2.227,0.328 2.556,-0.025 0.337,-0.364 1.26,-0.286 1.728,-0.26 0.299,-0.39 0.416,-0.871 0.338,-1.105 -0.078,-0.234 -0.052,-0.649 0.065,-0.974 0.117,-0.325 0.273,-1.378 0.078,-2.053 z"
       transform="matrix(4.4862,0,0,4.4867,-1190.9,-2609)"
       id="path86"
       inkscape:connector-curvature="0"
       style="fill:#ffffff;stroke:#000000;stroke-width:0.138" />
    <path
       d="m 371.69,645.58 c -1.222,3.534 -5.458,11.461 -8.014,14.014 m 1.964,1.156 c 2.901,-2.244 10.236,-9.528 11.483,-12.594 m -7.013,4.364 c -0.337,2.677 -1.11,7.452 -1.526,9.973 m 2.656,-4.013 c -0.987,0.962 -2.387,2.641 -3.427,3.551 m 12.727,-8.891 c -0.831,0.805 -1.78,1.744 -2.611,1.978 m 3.091,-1.848 c 0.731,0.779 1.77,1.659 2.628,1.893 m -3.198,-6.203 c -0.753,0.649 -1.871,1.413 -2.884,1.699 m 3.314,-1.549 c 0.65,0.546 1.342,1.342 2.173,1.706 m -5.333,-4.876 c 0.805,-0.234 2.004,-0.858 2.628,-1.507 m 0.362,-0.123 c 0.705,0.805 2.056,1.455 2.732,1.637 M 377.88,642.7 c 0.831,-0.182 1.861,-0.624 2.407,-1.404 m 0.313,-0.216 c 0.701,0.598 1.933,1.462 2.738,1.54 m 3.192,0.79 c -0.451,0.468 -1.556,1.309 -2.257,1.296 m 2.717,-1.336 c 0.325,0.52 1.144,1.316 1.612,1.381 m -4.802,5.919 c 0.909,-0.312 2.183,-1.056 2.82,-1.823 m 0.5,0.063 c 0.266,0.48 1.28,1.565 1.852,1.786 m -4.092,5.254 c 0.416,-0.09 1.547,-0.652 1.858,-1.315 m 0.522,-0.365 c 0.429,0.533 1.481,1.507 2.131,1.741 m -18.811,0.859 c 1.273,-0.403 3.846,-1.965 5.12,-3.447 m -2.44,1.877 c 1.065,0.753 2.303,1.507 3.251,1.676 m -6.171,-4.456 c 0.702,-0.299 1.624,-0.809 2.339,-1.549 m 0.541,-0.101 c 0.286,0.402 2.388,1.686 3.284,1.699 m -3.824,-5.849 c -0.546,0.441 -1.858,1.234 -2.495,1.403 m 2.995,-1.373 c 0.728,0.506 2.167,1.4 3.154,1.4 m -3.654,-5.49 c -0.585,0.662 -1.572,1.685 -2.391,1.919 m 2.861,-1.769 c 0.455,0.728 1.673,1.712 2.466,1.842 m 8.054,2.528 c 1.822,3.359 5.201,7.465 8.618,9.622 M 378.2,643.46 c 2.767,3.976 8.199,12.695 13.367,15.914 m 0.953,-3.404 a 18.428,18.428 0 0 1 -4.795,4.607 m 4.485,-3.507 c -1.741,-2.78 -2.641,-6.295 -3.943,-10.924 m -14.117,12.364 2.144,5.899 m -2.544,-6.039 1.896,6.017 m -2.306,-6.297 1.76,6.262 m -1.94,-6.162 1.359,6.128 M 374.47,664.1 h 1.699 m -0.219,-0.64 h -1.602 m 1.422,-0.5 h -1.546 m 1.366,-0.5 h -1.475 m 1.275,-0.54 h -1.404 m -0.096,-0.48 h 1.332 M 373.79,661 h 1.264 m -1.374,-0.48 h 1.202 m -1.292,-0.43 h 1.134 m -1.234,-0.44 h 1.078 m -1.168,-0.41 h 1.02 m -1.12,-0.38 h 0.991 m -1.051,-0.32 h 0.923 m -2.593,0.01 -1.208,4.932 m 1.558,-5.022 -1.037,5.21 m 1.317,-5.4 -0.839,5.549 m 1.199,-5.659 -0.609,5.803 m 0.729,-0.333 h -1.923 m 1.923,-0.53 h -2.225 m 2.225,-0.55 h -2.095 m 2.095,-0.52 h -1.965 m 1.965,-0.53 h -1.838 m 1.838,-0.59 h -1.692 m 1.692,-0.51 h -1.569 m 1.569,-0.52 h -1.436 m 1.436,-0.5 h -1.316 m 1.316,-0.44 h -1.212 m 1.212,-0.35 h -1.121 m 1.121,5.5 v -5.88 m 6.47,-1.94 -4.029,8.08 m 4.279,-8.21 -3.43,8.254 m 3.68,-8.344 -2.721,8.383 m 2.891,-8.233 -2.116,8.238 m 0.096,-0.378 h -2.534 M 378,663.32 h -2.359 m 2.469,-0.6 h -2.17 m 2.38,-0.65 h -2.053 m 2.153,-0.52 h -1.897 m 2.077,-0.6 h -1.787 m 1.967,-0.7 h -1.618 m 1.758,-0.53 h -1.488 m 1.638,-0.61 h -1.348 m 1.458,-0.41 h -1.247 m 1.347,-0.39 h -1.143 m 1.243,-0.4 h -1.053 m 1.143,-0.35 h -0.968 m 1.058,-0.35 h -0.887 m 0.987,-0.36 h -0.8 m 0.88,-0.33 h -0.721 m 3.341,-0.12 1.763,5.58 m -1.423,-5.46 2.139,5.355 M 383,656.53 l 2.505,5.237 m 0.605,-0.447 -2.763,-4.888 m 2.763,4.878 h -2.192 m 1.812,-0.66 h -2.019 m 1.649,-0.66 h -1.851 m 1.471,-0.67 h -1.688 m 1.318,-0.66 h -1.529 M 384.23,658 h -1.36 m 0.99,-0.66 h -1.194 m 0.814,-0.67 h -1.032 m 3.292,0.16 -1.725,5.173 m 2.245,-5.403 -1.6,5.303 m 0.74,-0.123 1.174,-4.992 m 0.306,0.172 -0.988,4.75 m -1.672,-0.3 h 1.731 m -1.511,-0.65 h 1.65 m -1.44,-0.64 h 1.572 m -1.362,-0.64 h 1.491 m -1.271,-0.65 h 1.41 m -1.19,-0.64 h 1.329 m -1.119,-0.64 h 1.248 m -1.038,-0.65 h 1.027 m 0.923,0.11 0.846,3.547 m -0.536,-3.717 1.169,3.697 m -0.769,-3.707 1.275,3.702 m -0.755,-3.502 1.277,3.477 M 390.06,660.2 h -1.638 m 1.448,-0.52 h -1.556 m 1.366,-0.52 h -1.491 m 1.301,-0.52 h -1.43 m 1.23,-0.52 h -1.358 m 1.168,-0.52 h -1.284 m 1.094,-0.52 h -1.218"
       transform="matrix(4.4862,0,0,4.4867,-1190.9,-2609)"
       id="path88"
       inkscape:connector-curvature="0"
       style="fill:none;stroke:#000000;stroke-width:0.138" />
    <path
       d="m 479.626,380.309 c 3.616,-2.329 9.794,-1.862 12.943,0.466 3.732,-2.095 10.493,-1.516 13.643,1.284 4.777,-3.262 8.86,-3.729 13.52,-0.584 3.617,-2.562 9.211,-2.795 13.527,0.234 4.194,-1.984 8.86,-3.612 12.938,0.7 -2.445,-1.75 -7.694,-3.267 -12.938,0.816 -4.083,-4.083 -11.193,-2.566 -13.526,0.233 -3.033,-3.616 -9.444,-4.2 -13.293,0.234 -4.194,-3.5 -10.488,-3.617 -13.871,-0.934 -2.683,-2.1 -6.644,-3.845 -12.943,-2.45 z"
       id="path90"
       inkscape:connector-curvature="0"
       style="fill:#00b800" />
    <path
       d="m 543.33,375.329 c -18.537,3.203 -58.935,0.933 -67.795,-1.284 -3.046,-0.762 -2.216,-1.866 0.35,-1.283 10.21,2.32 32,2.333 44.01,1.75 2.332,-3.091 6.002,-8.336 7.11,-9.795 1.108,-1.459 1.597,-1.592 3.908,-1.983 4.136,-0.7 6.5,-1.076 10.085,-1.691 0.058,0.466 0.058,1.05 0.058,1.4 -0.292,0.233 -0.583,0.641 -0.817,0.758 0,2.391 0.467,8.22 0.933,10.32 0.467,-0.059 1.05,-0.234 1.342,-0.292 0.816,-0.234 1.628,1.866 0.816,2.1 z"
       id="path92"
       inkscape:connector-curvature="0"
       style="fill:#cf6200" />
    <path
       d="m 573.702,376.226 c 0.668,-0.018 2.064,-0.05 2.45,-0.058 0.758,-0.018 1.82,-0.539 2.287,-1.705 0.467,-1.166 1.911,-5.479 2.436,-7.287 l -1.866,-2.813 c 0.408,-2.32 0.933,-5.465 0.992,-6.106 0.933,-0.35 1.92,-0.7 2.386,-0.875 0.117,-0.525 -0.112,-1.952 -0.583,-2.419 -7.985,0.305 -31.883,1.136 -36.257,1.194 -1.05,0 -1.521,-0.045 -1.92,1.458 -2.217,8.278 0.847,19.894 9.21,26.584 0.583,0.466 1.319,0.076 0.345,-0.817 -1.395,-1.283 -3.553,-3.908 -5.011,-6.501 1.633,-0.027 4.944,-0.08 5.935,-0.121 0.476,1.96 1.965,6.097 2.257,6.797 0.292,0.7 1.01,0.799 0.668,-0.247 -0.803,-2.45 -1.225,-5.24 -1.574,-6.582 1.516,-0.036 4.374,-0.009 6.123,-0.107 0.085,2.216 0.319,5.186 0.377,6.003 0.058,0.817 0.758,0.875 0.772,-0.058 0.018,-0.934 0.036,-4.877 0.022,-6.04 1.974,-0.053 4.495,-0.139 5.428,-0.139 -0.13,1.261 -0.372,5.34 -0.462,5.986 -0.134,0.95 0.364,1.4 0.597,0.058 0.233,-1.342 0.7,-4.478 0.83,-6.066 0.79,-0.023 2.867,-0.108 3.741,-0.13 -0.085,1.243 -1.251,5.02 -1.601,6.012 -0.35,0.992 0.215,1.023 0.61,0.085 0.413,-0.96 1.691,-4.751 1.808,-6.106 z"
       id="path94"
       inkscape:connector-curvature="0"
       style="fill:#cf6200" />
    <path
       d="m 547.233,375.284 c -0.641,-1.284 -2.624,-5.847 -2.8,-9.167 1.692,-0.031 5.923,-0.112 7.964,-0.157 0.3,2.504 1.072,7.897 1.48,9.176 -2.386,0.058 -5.302,0.134 -6.644,0.148 z m 6.55,-9.378 c 0.22,1.912 1.22,8.476 1.382,9.234 1.732,-0.103 5.742,-0.117 6.438,-0.175 -0.072,-1.75 -0.355,-8.314 -0.386,-9.247 -1.813,0.05 -6.523,0.166 -7.434,0.188 z m -9.017,-8.12 c -0.323,1.678 -0.381,5.262 -0.292,6.792 2.042,0.04 7.066,-0.08 7.761,-0.139 -0.17,-1.74 -0.444,-4.89 -0.619,-6.855 -1.664,0.071 -5.742,0.17 -6.85,0.202 z m 8.344,-0.225 c 0.059,1.633 0.422,5.626 0.539,6.847 1.763,-0.05 6.078,-0.14 7.536,-0.189 -0.076,-1.494 -0.314,-6.308 -0.34,-6.891 -2.342,0.063 -6.25,0.21 -7.735,0.233 z m 9.242,-0.269 c 0.072,1.516 0.265,5.797 0.206,6.905 1.87,-0.05 5.446,-0.085 6.555,-0.175 0.085,-1.521 0.332,-5.869 0.215,-6.977 -2.1,0.081 -5.446,0.193 -6.976,0.247 z m 8.254,-0.314 c 0,1.283 -0.161,5.792 -0.22,7.017 1.853,-0.072 6.061,-0.22 7.156,-0.247 0.292,-1.503 0.875,-5.406 1.05,-7.053 -1.75,0.059 -6.707,0.247 -7.986,0.283 z m 7.224,8.3 c -2.392,0.077 -6.237,0.18 -7.538,0.23 -0.201,2.951 -0.57,8.053 -0.744,9.22 2.104,-0.046 6.357,-0.18 7.29,-0.207 0.7,-1.4 2.216,-5.77 2.566,-7.112 -0.525,-0.816 -0.933,-1.283 -1.575,-2.13 z m -15.209,0.404 c 0,1.05 0.184,8.565 0.229,9.207 1.368,-0.045 4.921,-0.094 5.446,-0.153 0.265,-2.925 0.664,-8.529 0.736,-9.229 -2.423,0.067 -4.8,0.14 -6.411,0.175 z m -30.955,-1.795 -3.037,0.539 c -1.4,2.261 -6.586,9.256 -7.227,10.072 3.611,-0.103 9.26,-0.21 10.619,-0.34 -0.1,-1.876 -0.35,-9.342 -0.355,-10.27 z m 1.346,-0.269 c 0.072,2.392 0.3,8.763 0.359,10.454 1.79,-0.103 5.087,-0.318 6.429,-0.435 -0.31,-3.006 -0.875,-10.185 -0.992,-11.06 -1.503,0.274 -4.455,0.794 -5.796,1.041 z"
       id="path96"
       inkscape:connector-curvature="0" />
    <path
       d="m 377.29,656.93 c 0.091,0.001 0.103,0.079 -0.001,0.078 l -7.678,-0.095 c -0.104,-10e-4 -0.09,-0.079 0.001,-0.078 z m 6.04,-6.15 c 0.091,0.003 0.102,0.081 -0.002,0.078 l -6.083,-0.167 c -0.104,-0.003 -0.089,-0.081 0.002,-0.078 z m -6.42,1.76 c 0.091,0.001 0.103,0.079 -0.001,0.078 l -6.808,-0.05 c -0.104,0 -0.09,-0.078 0,-0.078 z m 0.2,-4.42 c 0.091,0 0.104,0.078 0,0.078 l -7.121,-0.037 c -0.104,0 -0.09,-0.078 0.001,-0.077 z m -0.49,-3.49 c 0.091,10e-4 0.102,0.08 -10e-4,0.078 l -6.919,-0.104 c -0.104,-0.002 -0.09,-0.08 0.001,-0.078 z"
       transform="matrix(4.4862,0,0,4.4867,-1190.9,-2609)"
       id="path98"
       inkscape:connector-curvature="0"
       style="stroke:#000000;stroke-width:0.138" />
    <path
       d="m 383.78,642.59 c 0.091,-10e-4 0.105,0.077 0.001,0.078 l -5.938,0.057 c -0.104,10e-4 -0.092,-0.077 -0.001,-0.078 z"
       transform="matrix(4.4862,0,0,4.4867,-1190.9,-2609)"
       id="path100"
       inkscape:connector-curvature="0"
       style="fill:#ffffff;stroke:#000000;stroke-width:0.138" />
    <path
       d="m 384.15,645.91 c 0.091,0 0.104,0.078 0,0.078 h -6.562 c -0.104,0 -0.091,-0.078 0,-0.078 z m 6.44,4.73 c 0.091,0 0.104,0.078 0,0.078 h -7.072 c -0.104,0 -0.091,-0.078 0,-0.078 z m 0.1,-5.91 c 0.091,10e-4 0.103,0.079 -10e-4,0.078 l -7.225,-0.071 c -0.104,-10e-4 -0.09,-0.079 10e-4,-0.078 z m -6.68,10.39 c 0.091,10e-4 0.103,0.079 -10e-4,0.078 l -6.356,-0.042 c -0.104,-10e-4 -0.09,-0.079 10e-4,-0.078 z m 6.21,0.86 c 0.091,10e-4 0.103,0.079 -0.001,0.078 l -5.587,-0.074 c -0.104,-0.001 -0.089,-0.079 0.002,-0.078 z"
       transform="matrix(4.4862,0,0,4.4867,-1190.9,-2609)"
       id="path102"
       inkscape:connector-curvature="0"
       style="stroke:#000000;stroke-width:0.138" />
    <path
       d="m 395.26,657.05 c 0.157,-0.349 0.179,-1.151 0.089,-1.455 a 1.106,1.106 0 0 1 -0.647,-0.04 2.973,2.973 0 0 0 -0.341,-0.106 c -0.022,0.402 -0.168,1.426 -0.348,1.822 -0.314,0.089 -0.947,-0.015 -1.307,-0.128 l -0.262,0.942 a 3.45,3.45 0 0 0 1.452,-0.009 c -0.035,0.601 -0.114,1.148 -0.439,1.526 0.531,0.012 1.006,-0.066 1.18,-0.252 a 0.403,0.403 0 0 1 0.053,-0.048 c 0.245,-0.41 0.252,-0.944 0.311,-1.304 0.181,0.013 0.415,-0.039 0.519,-0.143 0.104,-0.104 0.273,-0.156 0.442,-0.143 0.154,0.012 0.394,-0.02 0.699,-0.143 0.008,-0.184 0.044,-0.384 0.107,-0.558 0.034,-0.095 0.071,-0.253 0.102,-0.444 -0.387,0.185 -1.25,0.494 -1.61,0.483 z"
       transform="matrix(4.4862,0,0,4.4867,-1190.9,-2609)"
       id="path104"
       inkscape:connector-curvature="0"
       style="fill:#ef072d;stroke:#000000;stroke-width:0.138" />
    <path
       d="m 370.46,623.2 c -0.791,0.023 -2.513,0.039 -2.875,0.242 -0.361,0.204 -0.52,0.294 0.113,0.407 0.633,0.113 1.704,0.414 2.291,0.776 0.587,0.361 1.079,1.001 0.917,1.914 -0.485,2.743 0.949,5.381 3.027,6.376 0.201,0.096 0.249,0.169 0.204,0.542 -0.045,0.373 -0.181,0.995 -0.294,1.153 -0.113,0.159 -0.169,0.419 0.192,0.294 -0.248,0.464 -0.802,1.391 -0.971,1.628 -1.661,-0.203 -3.016,0.023 -3.141,1.763 -0.012,0.17 0.046,0.441 0.305,0.012 0.26,-0.43 0.554,-0.837 1.265,-0.95 -0.418,0.644 -0.553,1.221 -0.485,1.594 0.067,0.373 0.169,0.599 0.35,0.124 0.181,-0.474 0.514,-0.918 0.87,-1.187 0.135,-0.101 0.226,-0.124 0.124,0.17 -0.102,0.294 0.045,0.927 0.249,1.142 0.203,0.214 0.305,0.124 0.248,-0.226 -0.056,-0.351 0.032,-1.084 0.463,-1.312 0.621,-0.327 1.152,-0.158 1.401,0.272 0.248,0.429 0.463,0.022 0.192,-0.464 -0.271,-0.486 -0.554,-0.825 -1.006,-0.859 0.396,-0.701 0.859,-1.549 0.961,-1.718 0.101,-0.17 0.26,-0.249 0.395,-0.147 0.136,0.102 0.226,0.09 0.362,-0.192 0.135,-0.283 0.372,-1.119 0.711,-1.458 0.17,-0.046 0.441,-0.113 0.542,-0.204 0.441,0.644 0.836,1.357 0.938,1.515 0.101,0.158 0.215,0.226 0.113,0.554 -0.102,0.328 -0.452,1.368 -0.508,1.594 -1.232,0.045 -1.796,0.067 -2.192,0.757 -0.173,0.301 0.102,0.418 0.396,0.26 0.293,-0.158 0.711,-0.294 0.926,-0.26 0.214,0.034 0.315,0.144 0.101,0.249 -0.756,0.373 -1.229,0.847 -1.197,1.503 0.011,0.237 0.109,0.355 0.294,0.034 0.26,-0.452 0.734,-0.904 1.31,-1.029 -0.034,0.554 0.091,1.368 0.429,1.538 0.339,0.169 0.363,-0.003 0.237,-0.328 -0.203,-0.52 0.008,-1.043 0.26,-1.323 0.531,-0.588 1.74,0.226 1.966,0.43 0.226,0.203 0.432,0.288 0.305,-0.238 -0.17,-0.7 -1.164,-1.107 -2.011,-1.22 0.237,-1.142 0.87,-3.448 1.209,-4.239 0.497,0.271 0.885,-0.444 1.717,-0.136 1.4,0.52 3.501,1.831 3.863,2.125 0.361,0.294 0.497,0.226 0.678,0.068 0.18,-0.158 0.497,0 0.745,0.045 0.249,0.045 0.475,0.113 0.158,-0.52 -0.316,-0.633 -1.084,-1.741 -2.372,-2.6 0.768,0.068 1.808,0.068 1.808,-0.135 0,-0.204 -1.198,-0.588 -1.695,-0.633 0.475,-0.113 1.198,-0.385 1.536,-0.769 0.201,-0.227 -0.04,-0.28 -0.745,-0.294 -2.169,-0.045 -3.253,-0.028 -4.383,-0.678 -1.807,-1.04 -2.841,-2.135 -3.728,-2.6 -0.474,-0.249 -0.763,-0.823 -0.946,-1.319 -0.587,-1.583 -0.558,-2.295 -1.936,-2.815 -1.378,-0.52 -2.963,0.117 -3.686,0.772 z"
       transform="matrix(4.4862,0,0,4.4867,-1190.9,-2609)"
       id="path106"
       inkscape:connector-curvature="0"
       style="stroke:#000000;stroke-width:0.138" />
    <path
       d="m 370.55,623.56 c -0.351,-0.013 -1.04,-0.096 -1.611,-0.039 -0.13,0.013 -0.286,0.078 0.026,0.117 0.312,0.039 1.156,0.246 1.455,0.35 0.299,0.104 0.169,0.26 -0.091,0.195 -0.26,-0.065 -0.356,0.031 -0.143,0.182 1.105,0.78 1.222,1.079 0.936,3.755 0.208,0.143 0.377,0.247 0.559,0.338 0.182,0.091 0.13,0.221 -0.065,0.169 -0.195,-0.052 -0.377,0.065 -0.065,0.13 0.312,0.065 0.454,0.208 0.156,0.195 -0.299,-0.013 -0.65,0.247 -0.065,0.182 0.584,-0.065 0.818,0.208 0.13,0.221 -0.689,0.013 -0.429,0.234 -0.065,0.234 0.649,0 0.454,0.182 0.286,0.182 -0.169,0 -0.247,0.221 0.182,0.182 0.428,-0.039 0.597,-0.052 0.753,-0.026 0.156,0.026 0.221,0.155 -0.013,0.169 -0.234,0.012 -0.221,0.181 0.13,0.181 0.351,0 0.497,0.106 0.182,0.169 -0.13,0.026 -0.31,0.091 0.065,0.143 0.65,0.091 0.676,0.247 0.468,0.273 -0.208,0.026 -0.234,0.143 0.065,0.169 0.298,0.026 0.558,0.117 0.312,0.182 -0.247,0.065 -0.377,0.208 -0.066,0.234 0.312,0.026 0.572,0.143 0.338,0.221 -0.234,0.078 -0.286,0.221 0.013,0.208 0.299,-0.013 0.416,0.156 0.208,0.272 -0.208,0.117 -0.351,0.195 -0.481,-0.012 -0.129,-0.208 -0.207,-0.273 -0.246,-0.117 -0.039,0.155 -0.13,0.052 -0.234,-0.182 -0.104,-0.234 -0.286,-0.299 -0.234,-0.117 0.052,0.182 -0.182,0.208 -0.403,0.117 0.819,0.831 2.027,1.585 3.95,0.805 0.164,-0.066 0.195,0 0.325,0.273 0.13,0.273 0.494,0.871 0.624,1.092 0.13,0.221 0.233,0.022 0.298,-0.195 0.26,-0.858 0.455,-1.495 0.533,-1.728 0.078,-0.234 0.442,-0.468 0.325,0.35 0.286,-0.195 1.553,-0.379 2.534,-0.013 1.078,0.403 2.162,1.028 2.716,1.443 a 0.624,0.624 0 0 0 0.493,0.143 c 0.26,-0.026 0.325,-0.065 -0.169,-0.52 -0.493,-0.455 -0.285,-0.676 0.026,-0.455 0.312,0.221 0.481,0.091 0.247,-0.182 -0.234,-0.273 -0.792,-0.805 -0.974,-0.935 -0.182,-0.13 -0.208,-0.182 -0.624,-0.208 -0.416,-0.026 -1.299,-0.026 -1.559,-0.026 -0.26,0 -0.338,0.026 0.234,0.234 0.571,0.207 1.741,0.961 2.001,1.143 0.26,0.182 0.442,0.598 -0.13,0.234 -0.572,-0.364 -2.365,-1.481 -3.56,-1.897 -2.729,0.182 -4.886,0.546 -6.497,-1.221 -0.772,-0.846 -0.806,-2.781 0.493,-3.587 -0.26,-0.221 -0.221,-0.351 -0.117,-0.403 0.104,-0.052 0.143,-0.104 0.039,-0.234 -0.103,-0.13 -0.091,-0.246 0,-0.298 -0.285,-0.156 -0.415,-0.338 -0.402,-0.533 -0.351,-0.078 -0.507,-0.494 -0.975,-0.364 -0.468,0.13 -0.702,0.026 -0.844,-0.091 -0.144,-0.117 -0.26,-0.169 -0.52,-0.143 -0.26,0.026 -0.468,-0.078 -0.481,-0.208 -0.013,-0.13 0.22,-0.193 0.572,-0.039 0.74,0.325 1.338,0.481 1.793,-0.13 0.455,-0.61 -0.13,-1.182 -1.001,-1.351 -0.87,-0.169 -1.507,0.468 -1.832,0.767 z"
       transform="matrix(4.4862,0,0,4.4867,-1190.9,-2609)"
       id="path108"
       inkscape:connector-curvature="0"
       style="fill:#ffffff;stroke:#000000;stroke-width:0.138" />
    <path
       d="m 374.92,623.33 c -0.262,-0.284 -0.728,-0.546 -0.961,-0.624 -0.234,-0.078 -0.26,0.156 -0.13,0.273 -0.104,0.156 -0.143,0.533 0.039,0.637 0.182,0.104 0.184,0.252 0.013,0.337 -0.26,0.13 -0.172,0.82 0.22,0.624 0.13,-0.065 0.234,-0.039 0.208,0.065 -0.026,0.104 0.026,0.234 0.143,0.26 0.117,0.026 0.104,0.195 0.078,0.26 -0.026,0.065 0.013,0.091 0.143,0.104 0.13,0.013 0.143,0.325 -0.091,0.429 0.286,0 0.364,-0.052 0.442,0.182 0.078,0.233 0.39,0.285 0.39,0.571 0,0.286 -0.052,0.338 -0.39,0.286 -0.338,-0.052 -0.468,0.052 -0.572,0.182 -0.104,0.13 -0.13,0.26 0.13,0.273 0.26,0.013 0.312,0.13 0.052,0.247 -0.26,0.117 -0.688,0.039 -0.753,0.286 -0.065,0.246 0,0.363 0.194,0.272 0.195,-0.09 0.598,-0.259 0.754,-0.35 0.156,-0.091 0.299,-0.104 0.429,0.104 0.13,0.208 0.026,0.441 -0.195,0.26 -0.221,-0.182 -0.325,-0.014 -0.455,0.09 -0.13,0.104 -0.325,0.169 -0.533,0.169 -0.207,0 -0.35,0.027 -0.324,0.494 0.078,1.404 1.169,2.443 3.17,2.417 2.001,-0.026 2.989,-0.052 3.288,-0.013 -0.663,-0.364 -1.079,-0.559 -1.313,-0.533 -0.234,0.026 -0.429,0.065 -0.325,-0.117 0.104,-0.182 -0.013,-0.182 -0.117,-0.26 -0.104,-0.078 -0.233,-0.182 -0.441,0.039 -0.208,0.221 -0.702,0.468 -0.949,0.52 -0.247,0.052 -0.546,0.039 -0.312,-0.195 0.234,-0.234 0.754,-0.312 0.91,-0.416 0.156,-0.104 0.156,-0.168 0.156,-0.246 0,-0.078 -0.039,-0.299 0.26,-0.13 0.597,0.338 1.533,0.844 1.78,0.831 0.247,-0.013 0.416,-0.117 0.195,-0.26 -0.221,-0.143 -0.286,-0.35 -0.221,-0.428 0.065,-0.078 0.104,-0.156 0.494,0.065 0.389,0.22 1.026,0.506 1.26,0.61 0.234,0.104 0.546,0.065 0.065,-0.286 -0.481,-0.35 -1.975,-1.338 -2.391,-1.65 -0.416,-0.312 -0.234,0.065 -0.195,0.182 0.039,0.117 -0.286,0.26 -0.455,0.117 -0.169,-0.143 -0.286,-0.299 -0.052,-0.429 0.234,-0.13 0.286,-0.143 -0.065,-0.455 -0.35,-0.311 -0.454,-0.285 -0.376,-0.026 0.078,0.26 0.104,0.546 -0.26,0.403 -0.364,-0.143 -0.546,-0.312 -0.312,-0.455 0.234,-0.142 0.533,-0.22 0.143,-0.545 -0.39,-0.325 -0.273,0 -0.364,0.182 -0.091,0.182 -0.39,0.182 -0.559,0.039 -0.169,-0.143 -0.247,-0.286 -0.13,-0.403 0.117,-0.117 0.104,-0.182 0.273,-0.091 0.169,0.091 0.429,0.039 0.117,-0.234 -0.312,-0.273 -0.429,-0.156 -0.364,0 0.065,0.156 -0.182,0.429 -0.571,0.065 -0.185,-0.172 -0.182,-0.403 0.013,-0.442 0.194,-0.039 0.213,-0.14 0.077,-0.338 -0.792,-1.156 -0.467,-2.092 -1.26,-2.949 z"
       transform="matrix(4.4862,0,0,4.4867,-1190.9,-2609)"
       id="path110"
       inkscape:connector-curvature="0"
       style="fill:#ffffff;stroke:#000000;stroke-width:0.138" />
    <path
       d="m 491.65,188.413 c -0.306,0.457 -0.418,0.44 -0.983,0.816 -0.696,0.462 -0.853,1.786 0.314,1.629 0.807,-0.108 1.278,-0.588 1.597,-0.978 -0.256,-0.494 -0.56,-0.983 -0.929,-1.467 z m -3.635,-2.917 c -0.897,0.87 -1.054,1.261 -0.596,1.261 0.543,0 0.31,0.076 -0.08,0.7 -0.387,0.624 0.78,0.933 1.246,0.467 0.466,-0.466 0.543,-0.624 0.776,0 0.189,0.507 0.956,0.026 1.44,-0.463 -0.794,-0.767 -1.861,-1.476 -2.786,-1.965 z m -1.615,5.025 c -1.166,0.584 -0.771,3.68 0.987,2.8 0.584,-0.292 1.05,-0.175 0.934,0.292 -0.063,0.246 -0.023,0.53 0.107,0.753 a 5.405,5.405 0 0 0 1.934,-1.395 c 1.09,-1.243 0.076,-1.166 -1.552,-1.166 -1.633,0 -2.1,-0.31 -0.548,-1.243 1.391,-0.835 0.485,-1.414 -1.44,-1.144 0.278,0.394 0.14,0.825 -0.422,1.103 z m 6.685,6.865 c -0.857,-0.933 -0.314,-1.4 0.619,-1.866 a 1.21,1.21 0 0 0 0.498,-0.427 c -0.265,-1.027 -0.476,-2.014 -0.754,-2.974 -0.489,0.139 -1.058,1.229 -1.22,1.767 -0.233,0.777 -0.467,1.243 -1.243,1.01 -0.69,-0.207 -1.381,0.57 -1.525,1.4 0.108,0.045 0.274,0.076 0.494,0.098 0.323,0.032 0.484,0.472 0.385,0.938 2.104,-0.067 2.463,1.387 2.822,2.383 0.39,1.09 0.857,0.933 1.167,0.314 0.31,-0.624 -0.39,-1.71 -1.243,-2.643 z"
       id="path112"
       inkscape:connector-curvature="0"
       style="fill:#cf6200" />
    <path
       d="m 493.668,209.59 c -0.381,0.861 -0.39,0.776 -1.633,0.852 -1.243,0.081 -2.808,0.292 -3.495,1.014 -0.372,0.386 -2.52,0.49 -2.525,1.436 -0.01,0.951 0,1.75 0.933,1.808 0.928,0.058 1.045,0.175 0.7,0.875 -0.355,0.7 -0.584,1.867 1.045,1.983 1.633,0.117 2.8,-0.408 3.208,0.52 0.408,0.934 -0.032,2.423 0.291,2.975 0.323,0.552 1.427,0.907 3.136,1.436 1.14,0.355 5.442,0.556 6.765,0.404 1.32,-0.157 0.826,-0.947 -0.498,-1.063 -1.319,-0.117 -2.292,-0.31 -2.602,-1.28 -0.31,-0.973 -0.583,-1.48 0.157,-2.292 0.736,-0.816 1.476,-1.44 1.05,-2.8 -0.43,-1.36 -1.13,-2.956 -2.683,-3.383 -1.556,-0.426 -1.063,-2.552 -2.606,-2.759 -0.583,-0.076 -1.086,-0.076 -1.243,0.274 z"
       id="path114"
       inkscape:connector-curvature="0"
       style="fill:#ffff00" />
    <path
       d="m 486.131,222.242 c 1.337,0.117 2.504,0.525 1.4,0.817 -1.108,0.292 -1.691,0.933 -0.296,1.05 1.4,0.116 2.566,0.641 1.516,0.991 -1.05,0.35 -1.283,0.992 0.059,0.934 1.342,-0.058 1.866,0.7 0.933,1.22 -0.933,0.525 -1.575,0.875 -2.158,-0.054 -0.579,-0.933 -0.929,-1.225 -1.104,-0.525 -0.175,0.696 -0.583,0.233 -1.05,-0.816 -0.467,-1.049 -1.283,-1.342 -1.05,-0.525 0.233,0.817 -0.816,0.933 -1.807,0.525 0.978,0.991 2.077,1.956 3.328,2.772 1.432,-0.489 3.01,-0.09 3.55,-0.036 0.582,0.059 2.39,0.467 3.382,0.992 0.992,0.525 1.633,-0.408 1.224,-1.458 -0.408,-1.046 -0.466,-0.696 -0.991,-0.117 -0.525,0.583 -0.642,-0.233 -0.583,-1.453 0.05,-1.032 -0.642,-0.759 -0.875,-0.117 -0.233,0.642 -0.758,-0.408 -0.467,-1.05 0.291,-0.642 -0.058,-0.875 -0.583,-0.7 -0.525,0.175 -0.583,0 -0.641,-1.167 -0.058,-1.167 -0.584,-0.991 -0.759,-0.524 -0.175,0.467 -0.641,-0.175 -1.34,-1.109 -0.611,-0.816 -1.315,-0.336 -2.536,0.148 0.153,0.09 0.431,0.166 0.848,0.202 z"
       id="path116"
       inkscape:connector-curvature="0"
       style="fill:#cf6200" />
    <path
       d="m 500.308,229.466 c -6.37,2.584 -10.965,1.436 -14.423,-0.857 1.43,-0.49 3.041,-0.072 3.58,-0.018 0.583,0.058 2.39,0.467 3.382,0.992 0.992,0.525 1.633,-0.409 1.225,-1.459 0.875,1.109 1.516,1.867 2.561,1.809 1.05,-0.059 2.8,-0.234 3.675,-0.467 z m -13.594,-29.343 c -0.39,-1.32 -0.776,-1.633 -1.475,-1.553 -0.7,0.077 -1.01,-0.08 -1.79,-0.39 -0.777,-0.31 -1.786,0.076 -1.943,1.476 -0.157,1.4 -1.01,2.1 -2.176,2.953 -1.166,0.856 -1.866,1.556 -1.866,2.956 0,1.4 -0.31,1.786 -1.086,2.8 -0.345,0.449 -0.834,0.96 -1.292,1.498 0.503,0.315 0.974,0.588 1.467,0.83 0.817,0.409 0.583,0.992 -0.291,0.759 -0.874,-0.233 -1.692,0.291 -0.292,0.583 1.4,0.292 2.037,0.933 0.7,0.875 -1.341,-0.058 -2.916,1.108 -0.292,0.817 2.62,-0.292 3.67,0.933 0.583,0.991 -3.09,0.058 -1.924,1.05 -0.291,1.05 2.911,0 2.037,0.817 1.283,0.817 -0.758,0 -1.108,0.991 0.816,0.816 0.027,-0.004 0.05,-0.009 0.081,-0.009 0.278,-0.287 0.485,-0.646 0.637,-1.1 0.31,-0.932 0.62,-3.656 1.71,-4.432 1.085,-0.776 1.632,-1.866 1.632,-2.643 0,-0.777 1.629,-4.195 2.72,-5.052 1.091,-0.857 1.556,-2.719 1.165,-4.042 z"
       id="path118"
       inkscape:connector-curvature="0"
       style="fill:#ffff00" />
    <path
       d="m 484.427,200.168 c -1.104,-0.736 -2.176,-0.31 -2.176,1.09 0,1.4 -0.7,1.786 -1.633,2.252 -0.929,0.467 -1.786,1.633 -1.943,2.724 -0.152,1.086 0.157,1.785 -0.619,2.642 -0.78,0.853 -0.857,1.553 -0.31,2.02 0.543,0.466 0.543,0.547 0.777,1.242 0.233,0.7 1.552,-0.076 1.552,-0.852 0,-0.776 0.314,-0.776 1.166,-1.243 0.857,-0.467 2.257,-2.723 1.943,-3.343 -0.31,-0.623 -1.086,-1.166 -0.076,-2.023 1.009,-0.853 2.1,-0.933 2.1,-1.786 0,-0.857 0.309,-1.166 0.618,-1.476 0.314,-0.314 -0.7,-0.78 -1.4,-1.247 z"
       id="path120"
       inkscape:connector-curvature="0"
       style="fill:#cf6200" />
    <path
       d="m 484.427,199.046 c -0.727,-0.283 -1.162,1.243 -0.153,1.476 1.009,0.233 1.166,-1.09 0.153,-1.476 z m -0.18,1.974 c -0.772,0.094 -1.633,1.108 -0.35,0.933 1.283,-0.175 1.808,-1.108 0.35,-0.933 z m -1.525,1.885 c -0.794,0.399 -0.642,1.458 0.525,0.7 1.167,-0.758 1.458,-1.692 -0.525,-0.7 z m -1.256,1.615 c -0.799,0.395 -0.642,1.454 0.525,0.7 1.166,-0.758 1.458,-1.692 -0.525,-0.7 z"
       id="path122"
       inkscape:connector-curvature="0" />
    <path
       d="m 479.85,205.283 c -0.793,0.399 -0.291,1.458 0.875,0.7 1.166,-0.758 1.109,-1.692 -0.874,-0.7 z m 0.988,0.987 c -0.794,0.399 -0.292,1.458 0.874,0.7 1.166,-0.758 1.108,-1.692 -0.874,-0.7 z"
       id="path124"
       inkscape:connector-curvature="0" />
    <path
       d="m 479.447,206.673 c -0.794,0.4 -0.292,1.459 0.875,0.7 1.167,-0.759 1.108,-1.691 -0.875,-0.7 z m 0.897,1.122 c -0.798,0.4 -0.292,1.458 0.87,0.7 1.167,-0.758 1.109,-1.691 -0.87,-0.7 z"
       id="path126"
       inkscape:connector-curvature="0" />
    <path
       d="m 478.998,208.468 c -0.794,0.395 -0.291,1.454 0.875,0.696 1.166,-0.758 1.108,-1.687 -0.875,-0.696 z"
       id="path128"
       inkscape:connector-curvature="0" />
    <path
       d="m 479.088,209.5 c -0.794,0.4 -0.292,1.458 0.875,0.7 1.167,-0.758 1.108,-1.691 -0.875,-0.7 z"
       id="path130"
       inkscape:connector-curvature="0" />
    <path
       d="m 478.46,219.326 c -0.803,0.103 -1.32,1.247 -0.31,1.48 1.01,0.233 1.243,0.31 1.243,1.086 0,0.776 0.314,1.867 1.4,1.943 1.09,0.08 2.023,-1.166 1.09,-1.552 -0.933,-0.39 -1.79,-0.7 -1.866,-1.557 -0.077,-0.853 -0.934,-1.476 -1.557,-1.4 z"
       id="path132"
       inkscape:connector-curvature="0"
       style="fill:#cf6200" />
    <path
       d="m 507.082,212.64 c 0.143,0.18 0.323,0.378 0.53,0.553 0.757,0.641 2.215,0 2.04,-0.525 -0.175,-0.525 -0.991,-2.217 0.875,-0.817 1.866,1.4 8.569,5.833 10.727,7.403 2.158,1.575 0.758,1.75 -0.292,1.283 -1.05,-0.467 -3.907,-1.75 -5.652,-2.737 -1.75,-0.991 -1.925,-0.641 -2.217,-0.291 -0.246,0.291 -0.049,0.996 0.593,1.593 -1.041,0.152 -2.733,-0.077 -3.217,-1.185 -0.583,-1.341 -1.983,-2.975 -2.974,-4.258 -0.368,-0.475 -0.476,-0.771 -0.413,-1.018 z"
       id="path134"
       inkscape:connector-curvature="0"
       style="fill:#ffff00" />
    <path
       d="m 564.909,403.64 c -1.454,0.991 -3.378,2.741 -2.1,5.186 0.153,-0.08 0.297,-0.175 0.445,-0.26 5.702,-6.9 10.582,-14.156 14.764,-21.693 0.049,-0.26 0.094,-0.507 0.125,-0.723 -1.633,1.4 -4.199,2.796 -5.249,3.146 0.7,1.866 -2.561,4.316 -4.31,5.016 0.699,1.166 0.466,2.916 -1.05,3.266 0.35,1.045 -0.817,1.045 -2.217,1.629 -1.4,0.584 -2.1,1.05 -2.561,1.75 0.753,-0.409 1.803,-0.759 2.386,-0.584 0.583,0.175 0.7,1.05 -0.35,1.283 -1.05,0.233 -1.745,0.817 -2.1,1.284 1.517,-0.584 3.675,-0.292 2.217,0.7 z"
       id="path136"
       inkscape:connector-curvature="0"
       style="fill:#00d860" />
    <path
       d="m 375.97,628.41 c -0.384,-0.335 -0.481,-0.13 -0.325,0.078 0.156,0.208 0.039,0.312 -0.299,0.364 -0.338,0.052 -0.845,0.117 -1.053,0.117 -0.208,0 -0.454,0.286 0.039,0.26 0.494,-0.026 1.326,-0.195 1.547,-0.286 0.221,-0.091 0.402,-0.26 0.091,-0.533 z m 0.75,0.59 c -0.317,-0.285 -0.429,-0.208 -0.351,0 0.078,0.208 -0.065,0.247 -0.272,0.312 -0.208,0.065 -1.027,0.338 -1.378,0.377 -0.351,0.039 -0.429,0.286 0.091,0.273 0.52,-0.013 1.52,-0.429 1.637,-0.507 0.117,-0.078 0.156,-0.234 0.286,-0.156 0.13,0.078 0.247,-0.065 -0.013,-0.299 z m 0.24,0.83 c -0.23,0.137 -0.805,0.389 -1.039,0.454 -0.234,0.065 -0.429,0.325 0.065,0.286 0.493,-0.039 1.078,-0.494 1.234,-0.584 0.156,-0.091 0.234,-0.156 0.364,-0.143 0.13,0.013 0.364,-0.169 -0.065,-0.403 -0.429,-0.234 -0.689,-0.117 -0.481,0.065 0.208,0.182 0.052,0.247 -0.078,0.325 z"
       transform="matrix(4.4862,0,0,4.4867,-1190.9,-2609)"
       id="path138"
       inkscape:connector-curvature="0"
       style="stroke:#000000;stroke-width:0.138" />
    <path
       d="m 482.049,187.515 c -2.849,-1.87 -6.101,2.05 -2.952,4.2 2.759,1.884 5.675,-2.41 2.952,-4.2 z"
       id="path140"
       inkscape:connector-curvature="0" />
    <path
       d="m 478.505,189.22 0.843,0.059 c -0.175,0.87 0.7,2.185 2.041,1.861 -1.076,0.817 -3.176,-0.116 -2.884,-1.92 z m 11.035,42.49 c 0.862,0.25 3.854,0.556 4.868,0.605 -0.507,1.068 -0.964,1.777 -1.27,2.54 -0.304,0.758 -0.452,0.812 -0.506,-0.355 -0.05,-1.171 -0.709,-1.93 -1.315,-0.713 -0.61,1.22 -0.915,1.673 -1.215,2.18 -0.305,0.507 -0.763,0.714 -0.61,-0.556 0.153,-1.27 0.103,-2.59 0.049,-3.702 z"
       id="path142"
       inkscape:connector-curvature="0"
       style="fill:#ffffff" />
    <path
       d="m 399.67,640.77 c -0.046,16.332 -2.623,33.927 -23.764,42.308 -21.142,-8.381 -23.719,-25.976 -23.765,-42.308 z m 0,0 c 0.018,-6.152 -0.324,-12.125 -0.168,-17.359 -7.9,-3.535 -18.295,-4.262 -23.596,-4.262 -5.302,0 -15.697,0.727 -23.597,4.262 0.156,5.234 -0.185,11.207 -0.168,17.359 z"
       transform="matrix(4.4862,0,0,4.4867,-1190.9,-2609)"
       id="path144"
       inkscape:connector-curvature="0"
       style="fill:none;stroke:#000000;stroke-width:0.27500001" />
  </g>
</svg>
