<?xml version="1.0" encoding="UTF-8" standalone="no"?>
<svg
   xmlns:dc="http://purl.org/dc/elements/1.1/"
   xmlns:cc="http://creativecommons.org/ns#"
   xmlns:rdf="http://www.w3.org/1999/02/22-rdf-syntax-ns#"
   xmlns:svg="http://www.w3.org/2000/svg"
   xmlns="http://www.w3.org/2000/svg"
   xmlns:sodipodi="http://sodipodi.sourceforge.net/DTD/sodipodi-0.dtd"
   xmlns:inkscape="http://www.inkscape.org/namespaces/inkscape"
   height="16"
   width="21.333437"
   viewBox="0 0 21.333437 16"
   version="1.1"
   id="svg103"
   sodipodi:docname="sx.svg"
   inkscape:version="0.92.1 r">
  <metadata
     id="metadata107">
    <rdf:RDF>
      <cc:Work
         rdf:about="">
        <dc:format>image/svg+xml</dc:format>
        <dc:type
           rdf:resource="http://purl.org/dc/dcmitype/StillImage" />
        <dc:title></dc:title>
      </cc:Work>
    </rdf:RDF>
  </metadata>
  <sodipodi:namedview
     pagecolor="#ffffff"
     bordercolor="#666666"
     borderopacity="1"
     objecttolerance="10"
     gridtolerance="10"
     guidetolerance="10"
     inkscape:pageopacity="0"
     inkscape:pageshadow="2"
     inkscape:window-width="1920"
     inkscape:window-height="1024"
     id="namedview105"
     showgrid="false"
     fit-margin-top="0"
     fit-margin-left="0"
     fit-margin-right="0"
     fit-margin-bottom="0"
     inkscape:zoom="0.49166667"
     inkscape:cx="320"
     inkscape:cy="240"
     inkscape:window-x="0"
     inkscape:window-y="0"
     inkscape:window-maximized="1"
     inkscape:current-layer="svg103" />
  <defs
     id="defs5">
    <clipPath
       id="a">
      <path
         d="M 0,0 H 682.67 V 512 H 0 Z"
         id="path2"
         inkscape:connector-curvature="0"
         style="fill-opacity:0.67000002" />
    </clipPath>
  </defs>
  <g
     clip-path="url(#a)"
     transform="scale(0.03125)"
     id="g101">
    <path
       d="M 0,0 H 768 V 256 H 341.33 Z"
       id="path7"
       inkscape:connector-curvature="0"
       style="fill:#ed2939;fill-rule:evenodd" />
    <path
       d="M 0,512 H 768 V 256 H 341.33 Z"
       id="path9"
       inkscape:connector-curvature="0"
       style="fill:#002395;fill-rule:evenodd" />
    <path
       d="M 0,0 341.33,256 0,512 Z"
       id="path11"
       inkscape:connector-curvature="0"
       style="fill:#ffffff;fill-rule:evenodd" />
    <path
       d="m 172.318,193.168 0.104,-3.963 c 0,0 -2.128,-3.39 0.342,-7.033 0,0 -5.248,-2.776 -4.026,-7.123 0,0 -4.746,-1.213 -4.397,-6.432 0,0 -5.122,-0.355 -5.652,-4.716 0,0 -5.123,0.844 -7.377,-3.405 0,0 -4.996,0.977 -6.406,-2.526 0,0 -4.857,1.683 -7.74,-2.435 0,0 -5.128,2.073 -7.278,-1.813 -2.121,3.872 -7.25,1.813 -7.25,1.813 -2.848,4.103 -7.74,2.4 -7.74,2.4 -1.36,3.517 -6.343,2.519 -6.343,2.519 -2.247,4.25 -7.363,3.405 -7.363,3.405 -0.502,4.347 -5.617,4.702 -5.617,4.702 0.404,5.232 -4.334,6.42 -4.334,6.42 1.25,4.346 -3.992,7.115 -3.992,7.115 2.533,3.663 0.426,7.026 0.426,7.026 l -0.119,3.655 84.775,0.392"
       id="path13"
       inkscape:connector-curvature="0"
       style="fill:#ffff00" />
    <path
       d="m 377.17,843.11 0.091,-3.458 c 0,0 -1.856,-2.958 0.299,-6.136 0,0 -4.578,-2.422 -3.513,-6.215 0,0 -4.14,-1.059 -3.835,-5.613 0,0 -4.468,-0.31 -4.93,-4.114 0,0 -4.469,0.736 -6.435,-2.971 0,0 -4.358,0.852 -5.588,-2.204 0,0 -4.237,1.468 -6.751,-2.125 0,0 -4.474,1.808 -6.35,-1.582 -1.85,3.379 -6.324,1.582 -6.324,1.582 -2.484,3.58 -6.75,2.094 -6.75,2.094 -1.188,3.068 -5.534,2.198 -5.534,2.198 -1.96,3.708 -6.422,2.97 -6.422,2.97 -0.439,3.794 -4.9,4.103 -4.9,4.103 0.352,4.566 -3.78,5.601 -3.78,5.601 1.089,3.793 -3.483,6.209 -3.483,6.209 2.21,3.196 0.372,6.13 0.372,6.13 l -0.104,3.19 73.949,0.341 z"
       transform="matrix(1.1464,0,0,1.1461,-260.07,-773.12)"
       id="path15"
       inkscape:connector-curvature="0"
       style="fill:none;stroke:#000000;stroke-width:0.289" />
    <path
       d="m 170.346,188.217 c -13.316,-1.332 -28.648,-4.493 -40.483,2.17 -7.935,-4.674 -18.982,-4.388 -28.388,-3.474 -5.108,0.914 -11.117,0.914 -16.456,1.786 l -0.837,0.118 c -9.686,0.643 -18.472,-2.218 -26.889,-5.979 2.673,15.168 5.639,30.712 7.097,46.592 3.176,23.518 -11.13,43.263 -5.262,66.495 3.504,11.148 15.765,17.63 26.987,18.914 10.865,0.641 22.108,2.421 32.164,4.604 1.912,0.398 4.18,1.285 5.5,1.856 2.77,1.158 4.8,2.861 6.58,4.682 6.071,-6.322 14.969,-8.08 23.748,-9.008 15.82,-1.849 35.325,-0.843 45.01,-15.173 v -0.81 c 5.263,-7.925 4.565,-20.015 2.283,-28.995 -0.154,-3.133 -0.991,-5.895 -1.445,-8.88 -9.665,-25.522 -1.389,-54.224 2.77,-79.948 -5.08,2.777 -10.746,4.088 -16.399,5.477 -4.508,0.6 -9.532,0.328 -14.096,0.083 l -1.89,-0.509"
       id="path17"
       inkscape:connector-curvature="0"
       style="fill:#ff0000" />
    <path
       d="m 190.224,261.464 c -0.062,1.681 0.845,3 1.173,4.556 1.85,11.155 3.636,25.932 -7.851,32.854 -12.708,8.078 -29.373,4.618 -44.077,8.894 -2.938,0.817 -6.985,3.517 -9.051,5.428 -1.326,-0.872 -2.659,-2.211 -4.369,-3 -12.1,-6.432 -27.83,-4.277 -41.487,-7.751 -6.86,-2.17 -14.012,-7.513 -15.75,-14.533 -4.466,-18.417 6.232,-34.116 4.969,-52.387 -0.817,-13.953 -3.162,-27.348 -6.386,-40.43 10.677,4.974 23.036,5.805 35.04,3.42 8.89,-1.243 19.24,-1.27 27.572,2.49 4.592,-1.975 9.965,-2.861 14.914,-3.405 9.407,0.914 19.518,2.616 29.205,2.547 6.47,-0.336 12.346,-2.206 17.97,-4.696 -3.336,21.62 -9.742,44.268 -1.877,66.014"
       id="path19"
       inkscape:connector-curvature="0"
       style="fill:#80cfe1" />
    <path
       d="m 171.022,265.774 -0.104,-20.33 h 2.505 L 142.34,225.37 142.284,214.94 h 3 l -15.541,-11.127 -15.465,11.121 h 2.994 l 0.056,10.423 -30.915,20.045 2.47,0.013 0.105,20.317 82.026,0.056"
       id="path21"
       inkscape:connector-curvature="0"
       style="fill:#ffffff" />
    <path
       d="m 376.04,906.46 -0.091,-17.739 h 2.185 l -27.113,-17.513 -0.049,-9.1 h 2.618 l -13.557,-9.71 -13.49,9.704 h 2.611 l 0.05,9.094 -26.968,17.49 2.155,0.011 0.091,17.727 71.551,0.05 0.006,-0.014 z"
       transform="matrix(1.1464,0,0,1.1461,-260.07,-773.12)"
       id="path23"
       inkscape:connector-curvature="0"
       style="fill:none;stroke:#000000;stroke-width:1.24199998" />
    <path
       d="m 180.583,292.478 0.007,6.362 -100.134,-0.112 -0.042,-6.335 100.177,0.085"
       id="path25"
       inkscape:connector-curvature="0"
       style="fill:#ffffff" />
    <path
       d="m 384.38,929.76 0.006,5.551 -87.347,-0.097 -0.036,-5.528 87.384,0.074 h -0.006 z"
       transform="matrix(1.1464,0,0,1.1461,-260.07,-773.12)"
       id="path27"
       inkscape:connector-curvature="0"
       style="fill:none;stroke:#000000;stroke-width:1.24199998" />
    <path
       d="m 87.106,292.1 -0.084,-21.53 4.054,-0.009 -0.223,21.782 0.244,-21.607 -5.84,-0.167 v -4.62 l 89.492,0.1 0.042,4.576 h -5.52 l 0.104,21.802 -0.195,-21.802 h 4.11 l 0.091,21.557"
       id="path29"
       inkscape:connector-curvature="0"
       style="fill:#ffffff" />
    <path
       d="m 302.84,929.43 -0.073,-18.786 3.536,-0.007 -0.194,19.005 0.213,-18.852 -5.095,-0.146 v -4.03 l 78.064,0.085 0.036,3.994 h -4.815 l 0.091,19.023 -0.17,-19.023 h 3.585 l 0.08,18.809"
       transform="matrix(1.1464,0,0,1.1461,-260.07,-773.12)"
       id="path31"
       inkscape:connector-curvature="0"
       style="fill:none;stroke:#000000;stroke-width:1.24199998" />
    <path
       d="m 319.62,924.8 -0.055,-13.1 h -10.482 l 0.061,13.087 10.476,0.013"
       transform="matrix(1.1464,0,0,1.1461,-260.07,-773.12)"
       id="path33"
       inkscape:connector-curvature="0"
       style="fill:none;stroke:#000000;stroke-width:1.24199998" />
    <path
       d="m 311.94,914.43 0.03,7.61 h 4.797 l -0.024,-7.61 h -4.803 m 58.92,10.41 -0.06,-13.087 -10.447,-0.012 0.049,13.099 h 10.458"
       transform="matrix(1.1464,0,0,1.1461,-260.07,-773.12)"
       id="path35"
       inkscape:connector-curvature="0"
       style="fill:none;stroke:#000000;stroke-width:1.24199998" />
    <path
       d="m 363.18,914.48 0.055,7.585 h 4.79 l -0.042,-7.585 h -4.803 m 7.6,-10.97 -0.06,-13.101 h -10.46 l 0.037,13.101 h 10.488 -0.006 z"
       transform="matrix(1.1464,0,0,1.1461,-260.07,-773.12)"
       id="path37"
       inkscape:connector-curvature="0"
       style="fill:none;stroke:#000000;stroke-width:1.24199998" />
    <path
       d="m 363.1,893.16 0.03,7.597 h 4.791 l -0.006,-7.597 H 363.1 m -43.57,10.3 -0.073,-13.076 -10.464,-0.013 0.049,13.082 h 10.488 z"
       transform="matrix(1.1464,0,0,1.1461,-260.07,-773.12)"
       id="path39"
       inkscape:connector-curvature="0"
       style="fill:none;stroke:#000000;stroke-width:1.24199998" />
    <path
       d="m 311.85,893.11 0.024,7.585 4.803,0.012 -0.036,-7.597 h -4.791 m 26.65,10.37 -0.049,-13.076 -10.47,-0.012 0.043,13.087 H 338.5"
       transform="matrix(1.1464,0,0,1.1461,-260.07,-773.12)"
       id="path41"
       inkscape:connector-curvature="0"
       style="fill:none;stroke:#000000;stroke-width:1.24199998" />
    <path
       d="m 330.83,893.13 0.024,7.585 4.797,0.024 -0.03,-7.609 h -4.791 m 22.29,10.38 -0.073,-13.101 -10.464,-0.012 0.049,13.087 10.488,0.025"
       transform="matrix(1.1464,0,0,1.1461,-260.07,-773.12)"
       id="path43"
       inkscape:connector-curvature="0"
       style="fill:none;stroke:#000000;stroke-width:1.24199998" />
    <path
       d="m 345.44,893.14 0.036,7.61 h 4.797 l -0.024,-7.61 h -4.809"
       transform="matrix(1.1464,0,0,1.1461,-260.07,-773.12)"
       id="path45"
       inkscape:connector-curvature="0"
       style="fill:none;stroke:#000000;stroke-width:1.24199998" />
    <path
       d="m 147.727,257.785 0.133,34.612 -34.774,-0.056 -0.125,-34.583 34.76,0.027"
       id="path47"
       inkscape:connector-curvature="0"
       style="fill:#ffffff" />
    <path
       d="m 355.72,899.49 0.116,30.199 -30.333,-0.049 -0.11,-30.174 30.321,0.024 z m -30.51,8.62 30.54,0.024 m -26.73,21.546 -0.103,-21.342 m 23.223,21.352 -0.103,-21.329 m 14.753,-21.731 -17.081,-12.474 -19.193,-0.024 -16.947,12.449 53.222,0.048 M 331.99,863.8 l 0.03,7.61 16.144,0.011 -0.03,-7.609 -16.144,-0.012"
       transform="matrix(1.1464,0,0,1.1461,-260.07,-773.12)"
       id="path49"
       inkscape:connector-curvature="0"
       style="fill:none;stroke:#000000;stroke-width:1.24199998" />
    <path
       d="m 336.37,865.69 0.024,3.792 h 7.415 l -0.025,-3.792 h -7.414 m 3.67,-10.55 8.979,6.348 -17.891,-0.023 8.912,-6.325"
       transform="matrix(1.1464,0,0,1.1461,-260.07,-773.12)"
       id="path51"
       inkscape:connector-curvature="0"
       style="fill:none;stroke:#000000;stroke-width:1.24199998" />
    <path
       d="m 171.366,202.028 c 2.924,-0.07 3.678,12.042 3.685,18.042 2.512,0.704 8.08,4.207 10.544,7.374 l -28.25,-0.042 c 2.43,-3.125 7.956,-6.642 10.448,-7.346 0,-6.007 0.614,-18.111 3.573,-18.042"
       id="path53"
       inkscape:connector-curvature="0"
       style="fill:#ffffff" />
    <path
       d="m 376.34,850.84 c 2.55,-0.06 3.208,10.507 3.214,15.742 2.191,0.615 7.05,3.671 9.198,6.434 L 364.11,872.98 c 2.118,-2.727 6.94,-5.795 9.113,-6.41 0,-5.241 0.536,-15.803 3.117,-15.742 m -49.53,49.502 h 2.21 l -0.646,1.186 c 0,0 1.066,1.37 0.019,2.94 l 0.578,1.09 h -2.13 l 0.578,-1.035 c 0,0 -1.09,-1.82 0.048,-2.995 l -0.657,-1.186 m 4.5,0 h 2.21 l -0.64,1.186 c 0,0 1.066,1.334 0.007,2.94 l 0.572,1.09 h -2.125 l 0.572,-1.035 c 0,0 -1.065,-1.82 0.055,-2.995 l -0.651,-1.186 m 4.92,0 h 2.204 l -0.658,1.186 c 0,0 1.078,1.37 0.018,2.94 l 0.579,1.115 -2.113,-0.024 0.567,-1.036 c 0,0 -1.078,-1.807 0.042,-2.995 l -0.645,-1.186 z m 5.54,0.02 h 2.222 l -0.651,1.2 c 0,0 1.065,1.345 0.006,2.921 l 0.596,1.108 H 341.8 l 0.573,-1.035 c 0,0 -1.066,-1.832 0.073,-2.995 l -0.67,-1.199 z m 4.93,0 h 2.204 l -0.652,1.2 c 0,0 1.072,1.345 0.012,2.915 l 0.585,1.114 h -2.125 l 0.554,-1.035 c 0,0 -1.071,-1.82 0.085,-2.995 L 346.7,900.35 m 4.9,0.01 2.204,-0.012 -0.652,1.199 c 0,0 1.09,1.346 0.03,2.922 l 0.555,1.108 h -2.131 l 0.572,-1.035 c 0,0 -1.065,-1.82 0.073,-2.995 L 351.6,900.36"
       transform="matrix(1.1464,0,0,1.1461,-260.07,-773.12)"
       id="path55"
       inkscape:connector-curvature="0"
       style="fill:none;stroke:#000000;stroke-width:1.24199998" />
    <path
       d="m 130.508,336.763 c 13.022,0.042 29.038,-2.616 36.54,-6.494 l 16.476,-1.46 0.328,20.101 c -13.958,7.695 -46.184,9.348 -53.275,9.292 -7.097,0.056 -39.721,-1.625 -53.742,-9.348 l 0.182,-20.114 16.511,1.486 c 7.502,3.859 24.006,6.537 37.014,6.537 h -0.035"
       id="path57"
       inkscape:connector-curvature="0"
       style="fill:#ffff00" />
    <path
       d="m 340.7,968.4 c 11.359,0.036 25.329,-2.283 31.873,-5.667 l 14.372,-1.273 0.286,17.538 c -12.175,6.714 -40.286,8.157 -46.47,8.108 -6.192,0.049 -34.65,-1.418 -46.88,-8.156 l 0.158,-17.55 14.403,1.296 c 6.544,3.367 20.94,5.704 32.287,5.704 h -0.03"
       transform="matrix(1.1464,0,0,1.1461,-260.07,-773.12)"
       id="path59"
       inkscape:connector-curvature="0"
       style="fill:none;stroke:#000000;stroke-width:0.289" />
    <path
       d="m 34.417,251.023 14.516,4.62 -4.39,23.498 -13.74,2.134 c 0,0 -2.317,-12.356 3.614,-30.265"
       id="path61"
       inkscape:connector-curvature="0"
       style="fill:#ffff00" />
    <path
       d="m 256.88,893.59 12.662,4.03 -3.829,20.503 -11.986,1.862 c 0,0 -2.021,-10.781 3.153,-26.407 z"
       transform="matrix(1.1464,0,0,1.1461,-260.07,-773.12)"
       id="path63"
       inkscape:connector-curvature="0"
       style="fill:none;stroke:#000000;stroke-width:0.289" />
    <path
       d="m 44.54,278.885 -13.734,2.393 8.688,-12.356 5.046,9.963"
       id="path65"
       inkscape:connector-curvature="0"
       style="fill:#7e7e7e" />
    <path
       d="m 265.71,917.9 -11.98,2.088 7.579,-10.781 4.401,8.693"
       transform="matrix(1.1464,0,0,1.1461,-260.07,-773.12)"
       id="path67"
       inkscape:connector-curvature="0"
       style="fill:none;stroke:#000000;stroke-width:0.289" />
    <path
       d="m 25.739,267.951 13.992,1.011 c 0.314,11.854 1.751,57.091 55.779,59.547 l -1.682,16.458 C 28.063,345.65 23.066,289.481 25.739,267.951"
       id="path69"
       inkscape:connector-curvature="0"
       style="fill:#ffff00" />
    <path
       d="m 249.31,908.36 12.205,0.882 c 0.274,10.343 1.528,49.813 48.656,51.956 l -1.467,14.36 c -57.367,0.596 -61.726,-48.413 -59.394,-67.198 z m 44.8,70.14 14.384,-3.141"
       transform="matrix(1.1464,0,0,1.1461,-260.07,-773.12)"
       id="path71"
       inkscape:connector-curvature="0"
       style="fill:none;stroke:#000000;stroke-width:0.289" />
    <path
       d="m 225.453,251.195 -14.46,4.577 4.586,23.463 13.768,2.211 c 0,0 2.212,-12.348 -3.894,-30.264"
       id="path73"
       inkscape:connector-curvature="0"
       style="fill:#ffff00" />
    <path
       d="m 423.52,893.74 -12.613,3.993 4,20.472 12.01,1.93 c 0,0 1.93,-10.775 -3.397,-26.407 z"
       transform="matrix(1.1464,0,0,1.1461,-260.07,-773.12)"
       id="path75"
       inkscape:connector-curvature="0"
       style="fill:none;stroke:#000000;stroke-width:0.289" />
    <path
       d="m 215.571,278.988 13.769,2.47 -8.807,-12.362 -4.962,9.892"
       id="path77"
       inkscape:connector-curvature="0"
       style="fill:#7e7e7e" />
    <path
       d="m 414.9,917.99 12.01,2.155 -7.682,-10.786 -4.328,8.631"
       transform="matrix(1.1464,0,0,1.1461,-260.07,-773.12)"
       id="path79"
       inkscape:connector-curvature="0"
       style="fill:none;stroke:#000000;stroke-width:0.289" />
    <path
       d="m 234.292,268.135 -14.012,0.956 c -0.203,11.84 -1.236,57.097 -55.264,59.497 l 1.836,16.444 c 65.751,0.76 70.274,-55.382 67.44,-76.905"
       id="path81"
       inkscape:connector-curvature="0"
       style="fill:#ffff00" />
    <path
       d="m 431.23,908.52 -12.223,0.835 c -0.177,10.33 -1.077,49.818 -48.206,51.912 l 1.601,14.348 c 57.355,0.662 61.3,-48.322 58.828,-67.101 v 0.005 z m -44.19,70.05 -14.42,-3.15"
       transform="matrix(1.1464,0,0,1.1461,-260.07,-773.12)"
       id="path83"
       inkscape:connector-curvature="0"
       style="fill:none;stroke:#000000;stroke-width:0.289" />
    <path
       d="m 121.761,346.666 c -0.37,0.237 -0.872,0.3 -1.451,0.272 l -2.61,-0.133 0.223,-3.257 2.59,0.138 c 0.509,0.035 0.913,0.134 1.165,0.287 0.523,0.272 0.753,0.775 0.704,1.472 -0.034,0.6 -0.244,0.991 -0.628,1.22 m -4.382,5.13 0.258,-3.971 3.043,0.21 c 0.984,0.076 1.716,-0.182 2.212,-0.685 0.516,-0.488 0.782,-1.13 0.816,-1.855 0.063,-0.845 -0.153,-1.535 -0.656,-2.045 -0.481,-0.488 -1.165,-0.746 -2.023,-0.83 l -4.348,-0.271 -0.6,9.348 1.291,0.084 m 9.475,-7.808 3.182,0.035 c 0.46,0.042 0.824,0.098 1.089,0.223 0.488,0.23 0.719,0.691 0.719,1.36 0,0.63 -0.182,1.048 -0.538,1.3 -0.342,0.229 -0.837,0.333 -1.43,0.333 l -3.057,-0.035 0.028,-3.216 m -0.049,8.282 0.028,-3.991 2.987,0.042 c 0.53,0 0.92,0.042 1.193,0.174 0.44,0.202 0.656,0.629 0.677,1.214 l 0.077,1.57 c 0.02,0.376 0.028,0.607 0.049,0.76 0.041,0.112 0.062,0.23 0.118,0.315 h 1.605 l -0.028,-0.203 c -0.181,-0.098 -0.328,-0.286 -0.39,-0.572 -0.056,-0.182 -0.084,-0.454 -0.098,-0.796 l -0.028,-1.248 c -0.02,-0.566 -0.119,-0.956 -0.335,-1.173 a 1.673,1.673 0 0 0 -0.844,-0.6 c 0.446,-0.236 0.781,-0.508 1.026,-0.844 0.23,-0.37 0.349,-0.837 0.349,-1.408 0,-1.075 -0.44,-1.808 -1.333,-2.205 -0.482,-0.216 -1.096,-0.328 -1.822,-0.342 l -4.487,-0.042 -0.035,9.376 h 1.291 m 9.961,-1.982 c -0.572,-0.697 -0.88,-1.57 -0.95,-2.602 -0.062,-1.298 0.19,-2.288 0.782,-2.959 0.6,-0.725 1.375,-1.073 2.387,-1.13 1.019,-0.055 1.856,0.273 2.477,0.914 0.636,0.629 0.998,1.5 1.061,2.589 0.035,1.046 -0.146,1.974 -0.628,2.79 -0.474,0.83 -1.263,1.298 -2.428,1.326 -1.215,0.063 -2.122,-0.223 -2.701,-0.928 m -1.535,-5.903 c -0.6,0.928 -0.845,2.003 -0.782,3.301 0.09,1.402 0.523,2.56 1.34,3.433 0.907,0.872 2.108,1.31 3.587,1.227 1.584,-0.07 2.777,-0.67 3.587,-1.772 0.656,-0.997 0.97,-2.156 0.9,-3.586 -0.09,-1.277 -0.46,-2.317 -1.151,-3.091 -0.873,-1.04 -2.15,-1.5 -3.88,-1.43 -1.633,0.104 -2.834,0.704 -3.608,1.918 m 44.073,-13.489 c 0.9,-0.154 1.682,-0.111 2.394,0.132 1.047,0.328 1.752,1.103 2.191,2.289 l -1.29,0.18 c -0.28,-0.64 -0.678,-1.08 -1.215,-1.325 -0.523,-0.23 -1.18,-0.286 -1.933,-0.173 a 3.01,3.01 0 0 0 -2.08,1.276 c -0.488,0.753 -0.635,1.758 -0.418,3.042 0.181,1.06 0.572,1.96 1.214,2.56 0.593,0.614 1.465,0.83 2.603,0.67 0.851,-0.14 1.535,-0.48 2.017,-1.068 0.502,-0.557 0.649,-1.402 0.481,-2.49 l -3.008,0.46 -0.153,-1.032 4.187,-0.642 0.816,4.96 -0.83,0.126 -0.516,-1.144 c -0.35,0.517 -0.698,0.914 -1.005,1.144 -0.517,0.405 -1.215,0.663 -2.087,0.789 -1.13,0.174 -2.163,-0.029 -3.098,-0.629 -1.026,-0.76 -1.69,-1.89 -1.94,-3.46 -0.273,-1.541 -0.028,-2.86 0.684,-3.9 0.676,-1.004 1.66,-1.59 2.986,-1.78 m 9.47,-0.707 3,-1.089 c 0.412,-0.153 0.768,-0.202 1.075,-0.166 0.551,0.04 0.956,0.369 1.186,1.024 0.217,0.559 0.217,1.047 -0.027,1.39 -0.259,0.355 -0.663,0.613 -1.25,0.829 l -2.819,1.012 -1.165,-3 m 3,7.751 -1.465,-3.76 2.791,-1.005 c 0.524,-0.168 0.887,-0.259 1.159,-0.23 0.495,0.062 0.872,0.363 1.123,0.934 l 0.635,1.431 c 0.14,0.355 0.252,0.571 0.342,0.67 0.042,0.125 0.133,0.202 0.203,0.285 l 1.514,-0.557 -0.084,-0.203 c -0.223,0 -0.44,-0.125 -0.6,-0.37 -0.118,-0.174 -0.23,-0.425 -0.39,-0.718 l -0.496,-1.173 c -0.223,-0.509 -0.454,-0.822 -0.719,-1.011 a 2.395,2.395 0 0 0 -0.998,-0.272 c 0.307,-0.356 0.53,-0.712 0.614,-1.13 0.091,-0.426 0.05,-0.9 -0.153,-1.43 -0.384,-0.998 -1.089,-1.542 -2.08,-1.612 -0.523,-0.042 -1.123,0.07 -1.814,0.313 l -4.215,1.501 3.405,8.818 1.235,-0.454 m 10.967,-4.673 -5.352,-7.807 5.876,-3.747 0.649,0.943 -4.816,3.076 1.647,2.386 4.446,-2.86 0.607,0.914 -4.446,2.86 1.815,2.63 4.899,-3.132 0.649,0.921 -5.98,3.817 m 4.695,-13.811 1.535,-1.688 c 0.712,-0.754 1.466,-1.096 2.29,-0.998 0.823,0.07 1.66,0.502 2.553,1.284 0.245,0.188 0.46,0.432 0.684,0.704 0.391,0.51 0.621,0.957 0.768,1.403 0.125,0.559 0.098,1.068 -0.098,1.556 -0.118,0.244 -0.328,0.53 -0.642,0.872 l -1.542,1.675 -5.548,-4.821 m 8.11,3.676 c 1.088,-1.2 1.325,-2.49 0.69,-3.948 a 6.668,6.668 0 0 0 -1.717,-2.226 c -0.984,-0.873 -2.01,-1.319 -3.091,-1.402 -1.2,-0.091 -2.22,0.342 -3.106,1.31 l -2.617,2.805 7.216,6.294 2.617,-2.819 m 5.597,-7.287 -8.304,-4.877 0.677,-1.074 8.318,4.85 -0.684,1.115 m 3.249,-5.676 -8.967,-3.587 2.645,-6.307 1.088,0.419 -2.156,5.198 2.7,1.06 2.017,-4.786 1.033,0.426 -1.996,4.78 3.022,1.227 2.212,-5.26 1.089,0.41 -2.694,6.42 m 4.123,-11.014 -9.435,-2.086 0.314,-1.458 8.716,-2.944 -7.655,-1.689 0.279,-1.144 9.435,2.03 -0.3,1.416 -8.73,3.008 7.655,1.653 -0.272,1.214 m -0.752,-11.977 0.118,-1.186 c 0.545,0.015 1.005,-0.07 1.354,-0.257 0.684,-0.37 1.082,-1.074 1.186,-2.115 0.042,-0.487 0.021,-0.914 -0.09,-1.318 -0.203,-0.781 -0.642,-1.214 -1.347,-1.284 -0.523,-0.056 -0.9,0.07 -1.173,0.356 -0.244,0.328 -0.502,0.802 -0.697,1.472 l -0.433,1.235 c -0.28,0.809 -0.537,1.367 -0.817,1.681 -0.446,0.587 -1.074,0.79 -1.877,0.733 -0.858,-0.09 -1.556,-0.432 -2.051,-1.088 -0.51,-0.6 -0.72,-1.458 -0.594,-2.52 0.084,-0.968 0.405,-1.785 0.977,-2.44 0.53,-0.6 1.354,-0.887 2.408,-0.776 l -0.098,1.186 c -0.516,0 -0.928,0.091 -1.228,0.3 -0.544,0.3 -0.844,0.935 -0.935,1.863 -0.077,0.768 0.028,1.284 0.32,1.675 0.294,0.328 0.664,0.537 1.096,0.572 0.461,0.041 0.824,-0.105 1.075,-0.46 0.182,-0.245 0.398,-0.775 0.691,-1.633 l 0.426,-1.298 c 0.21,-0.6 0.46,-1.06 0.753,-1.388 0.524,-0.544 1.208,-0.775 2.066,-0.711 1.047,0.11 1.794,0.544 2.177,1.34 0.377,0.802 0.524,1.688 0.433,2.692 -0.119,1.137 -0.488,2.03 -1.172,2.63 -0.684,0.614 -1.536,0.823 -2.568,0.74 m -195.588,-0.574 0.217,1.172 c -0.524,0.104 -0.942,0.314 -1.25,0.586 -0.55,0.516 -0.74,1.291 -0.55,2.345 0.083,0.446 0.244,0.885 0.446,1.235 0.419,0.711 0.963,0.997 1.654,0.885 0.51,-0.09 0.844,-0.285 1.005,-0.648 0.153,-0.357 0.265,-0.9 0.3,-1.598 l 0.063,-1.32 c 0.041,-0.815 0.132,-1.456 0.314,-1.813 0.286,-0.642 0.823,-1.04 1.626,-1.171 0.858,-0.155 1.612,0.04 2.26,0.53 0.657,0.453 1.09,1.241 1.25,2.287 0.202,0.957 0.112,1.815 -0.265,2.589 -0.363,0.754 -1.061,1.214 -2.129,1.409 l -0.21,-1.185 c 0.496,-0.182 0.866,-0.357 1.11,-0.6 0.42,-0.468 0.545,-1.145 0.384,-2.072 -0.125,-0.755 -0.384,-1.243 -0.774,-1.486 -0.384,-0.287 -0.768,-0.399 -1.187,-0.328 -0.467,0.07 -0.774,0.328 -0.92,0.746 -0.091,0.279 -0.161,0.858 -0.224,1.744 l -0.063,1.367 c -0.035,0.642 -0.132,1.173 -0.349,1.536 -0.342,0.669 -0.921,1.08 -1.765,1.213 -1.068,0.181 -1.892,-0.063 -2.478,-0.747 -0.6,-0.67 -0.97,-1.472 -1.158,-2.47 -0.21,-1.185 -0.056,-2.106 0.419,-2.845 0.481,-0.76 1.242,-1.2 2.275,-1.347 m -0.597,12.352 9.226,-2.776 2.15,6.495 -1.124,0.355 -1.759,-5.337 -2.805,0.845 1.626,4.932 -1.075,0.342 -1.612,-4.946 -3.126,0.934 1.786,5.456 -1.102,0.315 -2.185,-6.614 m 4.093,11.266 8.486,-4.5 0.907,1.584 -5.834,6.167 8.52,-1.458 0.88,1.57 -8.465,4.472 -0.6,-1.04 4.996,-2.63 c 0.182,-0.105 0.461,-0.258 0.866,-0.474 0.397,-0.181 0.844,-0.426 1.29,-0.656 l -8.485,1.444 -0.621,-1.102 5.792,-6.147 -0.28,0.14 c -0.18,0.104 -0.495,0.258 -0.92,0.502 a 6.979,6.979 0 0 1 -0.935,0.502 l -4.983,2.672 -0.614,-1.06 m 15.809,12.507 c -0.426,-0.098 -0.845,-0.342 -1.256,-0.768 l -1.794,-1.849 2.415,-2.212 1.807,1.843 c 0.35,0.342 0.572,0.676 0.691,0.963 0.168,0.55 0,1.053 -0.51,1.527 -0.46,0.426 -0.92,0.6 -1.353,0.495 m -6.818,0.858 2.959,-2.714 2.1,2.128 c 0.677,0.691 1.368,1.005 2.094,0.992 a 2.953,2.953 0 0 0 1.933,-0.845 c 0.628,-0.558 0.928,-1.214 0.928,-1.918 -0.007,-0.684 -0.321,-1.326 -0.9,-1.926 l -3.015,-3.077 -7.02,6.446 0.907,0.914 m 8.483,7.532 5.087,-7.975 6.015,3.656 -0.628,0.95 -4.94,-2.958 -1.529,2.414 4.543,2.754 -0.586,0.914 -4.55,-2.741 -1.73,2.699 5.003,3.008 -0.6,0.941 -6.085,-3.663 m 15.052,-1.535 3.056,0.97 c 0.433,0.132 0.747,0.3 0.956,0.489 0.391,0.37 0.496,0.9 0.266,1.541 -0.189,0.558 -0.475,0.921 -0.921,1.075 -0.398,0.07 -0.9,0.07 -1.487,-0.112 l -2.882,-0.92 1.012,-3.043 m -2.638,7.835 1.27,-3.802 2.847,0.928 c 0.51,0.133 0.88,0.314 1.061,0.502 0.349,0.314 0.454,0.781 0.28,1.36 l -0.427,1.514 c -0.097,0.37 -0.146,0.614 -0.188,0.726 0,0.119 0,0.245 0.021,0.328 l 1.5,0.488 0.091,-0.216 c -0.16,-0.126 -0.251,-0.355 -0.244,-0.641 0.035,-0.176 0.084,-0.454 0.181,-0.776 l 0.363,-1.214 c 0.147,-0.53 0.203,-0.927 0.07,-1.213 -0.112,-0.3 -0.3,-0.573 -0.614,-0.83 0.474,-0.084 0.886,-0.23 1.235,-0.49 0.328,-0.285 0.607,-0.683 0.775,-1.24 0.342,-1.013 0.153,-1.857 -0.6,-2.499 -0.377,-0.334 -0.915,-0.62 -1.62,-0.886 l -4.27,-1.318 -2.987,8.895 1.249,0.384"
       id="path85"
       inkscape:connector-curvature="0"
       style="fill:#009fc5" />
    <path
       d="m 78.485,175.576 c 1.102,-2.66 11.32,-9.908 44.844,-6.733 0,0 5.666,3.46 8.995,3.014 1.898,-0.245 -1.117,0.118 -3.594,-1.94 -2.526,-2.058 -3.064,-6.278 2.708,-6.167 5.743,0.147 27.244,1.36 27.649,3.292 0.376,1.954 -11.369,2.77 -15.737,2.659 -4.39,-0.118 -3.88,2.1 0.488,1.933 13.65,-0.489 28.55,-5.296 44.286,5.832 1.877,1.353 -4.746,1.57 -9.868,-0.607 0,0 -13.88,0.719 -19.882,-0.265 0,0 -4.613,3.753 -10.621,3.384 0.781,1.946 -2.22,9.21 -21.11,3.746 -3.12,0.956 -14.487,2.86 -13.245,-0.516 -2.994,0 -8.242,0.963 -9.024,-0.74 -0.753,-1.674 9.24,-4.207 10.992,-6.02 0,0 -21.139,0.202 -25.144,-1.257 0,0 -12.47,2.798 -11.738,0.37"
       id="path87"
       inkscape:connector-curvature="0"
       style="fill:#bc715f" />
    <path
       d="m 85.26,205.168 c 0.454,-0.613 0.635,-1.716 1.598,-1.688 2.094,0.558 3.517,4.388 6.092,1.904 0.915,-0.202 1.263,1.04 2.017,1.187 0.482,2.128 2.191,-0.433 3.468,-0.287 2.73,-1.214 6.107,-1.5 9.338,-0.9 0.097,2.086 -1.536,4.389 -3.587,5.575 0.042,2.1 1.947,3.447 1.912,5.56 -0.328,0.79 -0.056,2.03 -1.25,2.288 -1.514,-0.272 -3.007,-0.432 -4.263,-1.276 -0.154,-0.154 -0.28,-0.454 -0.6,-0.356 -0.154,0.704 0.949,1.403 1.381,2.12 -0.76,1.298 -2.023,0.112 -3.084,0.126 -0.314,0.747 -0.014,1.689 -0.782,2.17 -1.34,-0.042 -1.612,-1.5 -2.435,-2.225 -0.845,0.913 0.593,1.458 0.795,2.183 -0.516,2.749 -0.446,5.435 -3.196,7.235 l -1.842,0.915 c -0.503,-1.382 -0.189,-3.475 -0.524,-4.92 -1.088,1.773 -1.94,3.322 -3.538,4.821 -1.87,-0.614 -2.959,-2.818 -3.37,-4.646 -0.782,-2.128 -0.335,-4.675 1.347,-6.216 -0.573,-1.117 -2.534,-0.858 -2.813,-2.448 -2.938,-1.913 -4.564,3.348 -6.462,0.613 -0.614,-2.553 0.119,-5.728 1.968,-7.633 -0.412,-1.046 -1.78,-0.773 -2.59,-1.373 -1.848,-1.571 -4.514,-3.23 -4.382,-6.064 5.06,-1.91 11.11,-0.509 14.788,3.335"
       id="path89"
       inkscape:connector-curvature="0"
       style="fill:#008737" />
    <path
       d="m 87.885,204.882 c -0.118,2.315 1.564,0.627 2.813,2.029 -0.977,-0.384 -1.69,1.688 -2.645,0.502 l -0.6,0.573 c 0.349,0.795 1.026,0.9 0.32,1.772 -1.046,0.397 -1.255,-0.914 -1.744,-1.43 -0.084,-0.23 0.16,-0.663 -0.223,-0.817 -0.593,0.502 -1.214,0.684 -2.031,0.6 -0.223,-0.446 -0.656,-1.032 -0.216,-1.374 0.802,-1.082 2.044,0.39 2.652,-0.37 0.097,-0.67 -0.489,-1.485 0.272,-1.947 0.523,0.091 1.193,-0.194 1.41,0.462 m 6.252,1.902 c 0.062,0.447 -0.23,1.074 0.356,1.39 0.76,-0.413 1.57,-0.1 2.01,0.655 -0.007,0.404 0.118,0.934 -0.412,1.13 l -1.187,-0.223 c 0.084,-0.231 -0.293,-0.377 -0.44,-0.6 -0.523,-0.16 -0.83,0.264 -1.22,0.522 0.293,0.447 0.97,0.691 0.809,1.264 -0.698,0.697 -1.04,-0.6 -1.807,-0.273 -0.524,-0.202 0.188,-1.29 -0.635,-1.618 -0.977,0 -0.328,1.604 -1.578,0.977 -0.446,-0.503 -0.886,-1.18 -0.404,-1.744 0.523,-0.35 1.41,-0.26 1.856,0.194 0.76,-0.843 0.837,-4.101 2.659,-1.674 m -7.802,3.358 c 0.509,0.733 -0.113,1.73 0.536,2.547 1.02,-1.904 2.003,0.411 3.218,0.23 0.37,0.453 0.125,1.082 0.195,1.598 -1.5,0.397 -3.308,0.872 -4.634,-0.328 l -0.37,0.425 c 0.789,0.733 1.536,1.563 0.908,2.79 -1.124,0.245 -2.862,0.273 -3.427,-0.885 -0.293,-0.955 0.684,-1.646 -0.349,-2.414 -0.746,0.928 -0.712,2.17 -2.268,1.325 -0.963,-0.53 -1.249,-1.624 -0.767,-2.546 1.004,-1.584 2.763,0.05 3.852,-0.726 0.153,-1.36 -0.35,-2.546 0.9,-3.299 1.068,-0.189 1.563,0.613 2.212,1.283"
       id="path91"
       inkscape:connector-curvature="0"
       style="fill:#ffff00" />
    <path
       d="m 90.602,210.979 c -0.502,2.316 -2.247,-0.119 -3.063,-0.217 1.088,-1.931 1.772,0.63 3.063,0.217 m 5.434,2.521 c -1.214,0.341 -1.026,-1.173 -1.626,-1.766 l 0.468,-0.425 c 0.44,0.53 0.774,1.487 1.158,2.191"
       id="path93"
       inkscape:connector-curvature="0"
       style="fill:#ffffff" />
    <path
       d="m 94.397,213.03 c 0.349,0.803 -0.789,1.445 0.181,2.03 0.307,-0.257 0.684,-0.613 0.845,-0.76 0.83,0.245 1.793,0.391 2.372,1.214 0.622,1.703 -1.102,1.66 -2.08,2.135 l -0.97,-0.042 c 0.231,-0.474 -0.418,-0.677 -0.578,-1.004 -0.447,-0.112 -0.817,0.027 -1.068,0.404 0.216,1.082 1.535,1.926 0.174,2.888 -1.151,-0.076 -2.938,0.37 -2.833,-1.22 -0.433,-0.9 1.172,-2.289 -0.544,-2.344 -0.566,1.214 -1.187,2.385 -2.66,1.235 l 0.182,-1.73 c 1.41,0.04 3.078,0.285 3.713,-1.291 0.405,-1.144 -0.705,-2.198 0.286,-3.105 1.438,-0.328 2.247,0.635 2.98,1.59"
       id="path95"
       inkscape:connector-curvature="0"
       style="fill:#ffff00" />
    <path
       d="m 93.365,215.632 c 0.363,0.859 -0.614,0.915 -1.075,1.34 -0.62,0.049 -1.053,-0.196 -1.43,-0.614 -0.28,-1.04 0.495,-1.145 1.088,-1.556 0.691,-0.286 0.977,0.516 1.417,0.83"
       id="path97"
       inkscape:connector-curvature="0" />
    <path
       d="m 92.517,216.194 c -0.154,0.202 -0.37,0.14 -0.6,0.195 L 91.7,215.35 c 0.46,0.041 1.061,0.188 0.817,0.844"
       id="path99"
       inkscape:connector-curvature="0"
       style="fill:#ffffff" />
  </g>
</svg>
