<?xml version="1.0" encoding="UTF-8" standalone="no"?>
<svg
   xmlns:dc="http://purl.org/dc/elements/1.1/"
   xmlns:cc="http://creativecommons.org/ns#"
   xmlns:rdf="http://www.w3.org/1999/02/22-rdf-syntax-ns#"
   xmlns:svg="http://www.w3.org/2000/svg"
   xmlns="http://www.w3.org/2000/svg"
   xmlns:sodipodi="http://sodipodi.sourceforge.net/DTD/sodipodi-0.dtd"
   xmlns:inkscape="http://www.inkscape.org/namespaces/inkscape"
   height="16"
   width="21.333437"
   viewBox="0 0 21.333437 16"
   version="1.1"
   id="svg73"
   sodipodi:docname="sz.svg"
   inkscape:version="0.92.1 r">
  <metadata
     id="metadata77">
    <rdf:RDF>
      <cc:Work
         rdf:about="">
        <dc:format>image/svg+xml</dc:format>
        <dc:type
           rdf:resource="http://purl.org/dc/dcmitype/StillImage" />
        <dc:title></dc:title>
      </cc:Work>
    </rdf:RDF>
  </metadata>
  <sodipodi:namedview
     pagecolor="#ffffff"
     bordercolor="#666666"
     borderopacity="1"
     objecttolerance="10"
     gridtolerance="10"
     guidetolerance="10"
     inkscape:pageopacity="0"
     inkscape:pageshadow="2"
     inkscape:window-width="1920"
     inkscape:window-height="1024"
     id="namedview75"
     showgrid="false"
     fit-margin-top="0"
     fit-margin-left="0"
     fit-margin-right="0"
     fit-margin-bottom="0"
     inkscape:zoom="0.49166667"
     inkscape:cx="319.99969"
     inkscape:cy="240"
     inkscape:window-x="0"
     inkscape:window-y="0"
     inkscape:window-maximized="1"
     inkscape:current-layer="svg73" />
  <defs
     id="defs5">
    <clipPath
       id="a">
      <path
         d="m -85.333,0 h 682.67 v 512 h -682.67 z"
         id="path2"
         inkscape:connector-curvature="0"
         style="fill-opacity:0.67000002" />
    </clipPath>
  </defs>
  <g
     clip-path="url(#a)"
     transform="matrix(0.03125,0,0,0.03125,2.6666563,0)"
     id="g71">
    <path
       d="M -128,0 H 640 V 512 H -128 Z"
       id="path7"
       inkscape:connector-curvature="0"
       style="fill:#3e5eb9;fill-rule:evenodd" />
    <path
       d="m -128,91.429 h 768 v 329.14 h -768 z"
       id="path9"
       inkscape:connector-curvature="0"
       style="fill:#ffd900;fill-rule:evenodd" />
    <path
       d="M -128,128 H 640 V 384 H -128 Z"
       id="path11"
       inkscape:connector-curvature="0"
       style="fill:#b10c0c;fill-rule:evenodd" />
    <rect
       rx="5.7670002"
       ry="5.8509998"
       height="10.971"
       width="621.71002"
       y="250.50999"
       x="-51.438999"
       id="rect13"
       style="fill:#ffd900;fill-rule:evenodd;stroke:#000000;stroke-width:1.47399998" />
    <g
       transform="matrix(1.0321,0,0,1.0321,-757.03,-25.6)"
       id="g25"
       style="stroke:#000000">
      <path
         d="m -106.3,265.75 -88.583,35.433 88.583,35.433 88.582,-35.433 z"
         transform="matrix(0.34,0,0,0.3,1256.8,136.42)"
         id="path15"
         inkscape:connector-curvature="0"
         style="fill:#ffffff;fill-rule:evenodd;stroke-width:4.17500019" />
      <rect
         rx="4.1079998"
         ry="3.78"
         height="7.0869999"
         width="442.91"
         y="223.23"
         x="761.81"
         id="rect17"
         style="fill:#ffd900;fill-rule:evenodd;stroke-width:1.33299994" />
      <path
         d="m 1224.4,279.92 c -3.54,0 -7.09,-3.544 -7.09,-7.087 0,-3.543 3.55,-7.087 7.09,-7.087"
         transform="matrix(-0.50001,0,0,0.5,1806.3,90.354)"
         id="path19"
         inkscape:connector-curvature="0"
         style="fill:none;stroke-width:2.66700006" />
      <path
         d="m 1224.4,279.92 c -3.54,0 -7.09,-3.544 -7.09,-7.087 0,-3.543 3.55,-7.087 7.09,-7.087"
         transform="matrix(-0.50001,0,0,0.5,1802.8,90.354)"
         id="path21"
         inkscape:connector-curvature="0"
         style="fill:none;stroke-width:2.66700006" />
      <path
         d="m 1224.4,279.92 c -3.54,0 -7.09,-3.544 -7.09,-7.087 0,-3.543 3.55,-7.087 7.09,-7.087"
         transform="matrix(-0.50001,0,0,0.5,1799.2,90.355)"
         id="path23"
         inkscape:connector-curvature="0"
         style="fill:none;stroke-width:2.66700006" />
    </g>
    <g
       transform="matrix(1.0321,0,0,1.0321,-786.29,-3.657)"
       id="g37"
       style="stroke:#000000">
      <path
         d="m -106.3,265.75 -88.583,35.433 88.583,35.433 88.582,-35.433 z"
         transform="matrix(0.34,0,0,0.3,1256.8,136.42)"
         id="path27"
         inkscape:connector-curvature="0"
         style="fill:#ffffff;fill-rule:evenodd;stroke-width:4.17500019" />
      <rect
         rx="4.1079998"
         ry="3.78"
         height="7.0869999"
         width="442.91"
         y="223.23"
         x="761.81"
         id="rect29"
         style="fill:#ffd900;fill-rule:evenodd;stroke-width:1.33299994" />
      <path
         d="m 1224.4,279.92 c -3.54,0 -7.09,-3.544 -7.09,-7.087 0,-3.543 3.55,-7.087 7.09,-7.087"
         transform="matrix(-0.50001,0,0,0.5,1806.3,90.354)"
         id="path31"
         inkscape:connector-curvature="0"
         style="fill:none;stroke-width:2.66700006" />
      <path
         d="m 1224.4,279.92 c -3.54,0 -7.09,-3.544 -7.09,-7.087 0,-3.543 3.55,-7.087 7.09,-7.087"
         transform="matrix(-0.50001,0,0,0.5,1802.8,90.354)"
         id="path33"
         inkscape:connector-curvature="0"
         style="fill:none;stroke-width:2.66700006" />
      <path
         d="m 1224.4,279.92 c -3.54,0 -7.09,-3.544 -7.09,-7.087 0,-3.543 3.55,-7.087 7.09,-7.087"
         transform="matrix(-0.50001,0,0,0.5,1799.2,90.355)"
         id="path35"
         inkscape:connector-curvature="0"
         style="fill:none;stroke-width:2.66700006" />
    </g>
    <g
       id="g43"
       style="fill-rule:evenodd">
      <path
         d="m 338.07,-0.416 c -5.571,12.442 4.275,-4.138 28.299,16.69 4.452,3.87 8.342,14.09 8.342,21.178 -1.13,-0.975 -1.969,-3.145 -3.214,-4.553 -1.743,2.253 1.664,12.577 2.162,17.457 -3.756,-2.71 -3.394,-3.993 -4.642,-7.324 0.249,4.026 -0.645,15.116 0.849,19.386 -2.96,-1.09 -2.764,-4.163 -4.31,-4.78 1.052,4.834 -0.916,10.094 -0.394,15.528 -1.73,-2.208 -3.573,-3.937 -4.376,-4.829 -0.135,2.588 -3.327,9.388 -3.4,11.835 -1.468,-1.143 -1.866,-2.926 -2.111,-4.126 -1.824,2.955 -8.308,13.872 -8.724,17.202 -4.996,-5.69 -17.793,-19.545 -19.459,-26.9 -1.473,4.176 -3.604,5.584 -7.817,8.632 -1.665,-11.656 -7.891,-24.756 -4.561,-34.747 -2.359,1.804 -4.302,3.608 -6.66,5.828 2.234,-16.88 13.628,-36.674 30.016,-46.477 z"
         transform="matrix(0.9944,0,0,0.77118,190.368,251.963)"
         id="path39"
         inkscape:connector-curvature="0"
         style="fill:#3d5da7;stroke:#000000;stroke-width:1.42200005" />
      <path
         d="m 505.878,299.164 c 2.3,-4.597 4.419,-6.056 5.905,-9.016 2.626,-5.203 3,-9.343 5.288,-8.736 2.288,0.607 2.285,2.737 -0.678,7.854 -2.964,5.116 -4.372,6.209 -10.515,9.898 z m 15.56,10.951 c -0.295,-3.5 0.72,-4.963 0.534,-7.217 -0.316,-3.967 -1.938,-6.69 0.171,-6.883 2.11,-0.194 3.096,1.159 3.102,5.156 0.006,3.998 -0.612,5.048 -3.807,8.944 z m 11.805,6.864 c -0.922,-4.887 -0.233,-7.055 -0.822,-10.203 -1.027,-5.54 -3.058,-9.187 -1.103,-9.693 1.955,-0.507 3.134,1.284 3.874,6.902 0.74,5.618 0.35,7.162 -1.95,12.994 z m 12.272,-34.245 c -2.882,-2.188 -4.565,-2.334 -6.424,-3.74 -3.274,-2.468 -4.931,-5.108 -5.984,-3.797 -1.053,1.311 -0.306,2.745 3.125,5.02 3.431,2.276 4.593,2.456 9.283,2.517 z m -2.031,16.228 c -1.52,-3.155 -3.119,-3.955 -4.101,-5.986 -1.738,-3.567 -1.74,-6.653 -3.625,-5.862 -1.884,0.791 -2.036,2.407 -0.02,5.86 2.015,3.452 3.07,4.077 7.746,5.988 z"
         id="path41"
         inkscape:connector-curvature="0"
         style="fill:#a70000" />
    </g>
    <g
       id="g49"
       style="fill-rule:evenodd">
      <path
         d="m 329.6,20.703 c -0.272,-2.662 0.253,-2.98 -1.258,-4.989 2.2,0.997 2.284,3.649 4.959,1.767 0.983,-0.551 1.411,-0.569 0.217,-3.526 2.79,0.14 11.927,3.535 13.39,3.614 3.842,0.191 10.855,-4.373 15.723,1.24 4.672,5.117 3.112,10.428 3.112,17.515 -1.877,-0.975 -0.973,-1.455 -2.965,-3.989 1.494,6.195 -0.08,17.364 -0.08,23.934 -0.767,-1.584 -0.654,-0.896 -1.404,-2.537 -1.992,5.997 -4.38,7.231 -4.38,14.318 -0.719,-2.78 -0.025,-2.191 -0.825,-3.653 -1.936,4.552 -14.925,8.443 -9.92,13.033 -4.518,-2.87 -6.499,-2.57 -8.548,-5.15 -0.882,0.617 -1.584,1.785 -2.404,3.386 -7.943,-3.96 -5.103,-12.5 -11.326,-18.206 -1.077,2.393 -0.586,2.045 -1.75,5.939 -1.26,-5.408 -1.604,-8.844 -3.021,-12.82 -1.223,2.204 -1.113,1.36 -3.333,4.69 -0.918,-6.587 -2.413,-8.142 -1.822,-12.501 -2.359,1.804 -0.815,1.073 -3.173,3.293 2.234,-16.88 11.884,-29.352 18.808,-25.358 z"
         transform="matrix(1.1372,0,0,1.0495,-399.418,239.16)"
         id="path45"
         inkscape:connector-curvature="0"
         style="fill:#3d5da7;stroke:#000000;stroke-width:1.42200005" />
      <path
         d="m -35.707,289.802 c 2.327,-5.704 4.425,-7.495 5.929,-11.167 2.655,-6.454 3.088,-11.613 5.32,-10.826 2.23,0.787 2.194,3.444 -0.79,9.786 -2.985,6.342 -4.383,7.686 -10.459,12.207 z m 8.814,14.27 c 0.932,-5.114 2.405,-6.976 3.01,-10.27 1.075,-5.79 0.476,-10.102 2.549,-9.875 2.073,0.227 2.543,2.412 1.163,8.173 -1.38,5.76 -2.332,7.125 -6.722,11.972 z m 10.539,9.921 c 0.263,-4.957 1.424,-6.893 1.598,-10.086 0.315,-5.616 -0.767,-9.637 1.211,-9.66 1.978,-0.023 2.682,1.997 2.076,7.62 -0.606,5.622 -1.338,7.025 -4.885,12.126 z M 6.28,281.574 c -4.328,-4.312 -6.945,-5.116 -9.736,-7.89 -4.917,-4.87 -7.294,-9.44 -9.044,-7.82 -1.75,1.62 -0.698,4.05 4.48,8.684 5.177,4.634 6.978,5.309 14.3,7.026 z M 3.647,298.24 c -2.819,-4.33 -4.887,-5.451 -6.707,-8.237 -3.21,-4.895 -4.312,-9.1 -6.132,-8.06 -1.82,1.042 -1.413,3.24 2.065,7.985 3.478,4.744 4.878,5.617 10.774,8.311 z"
         id="path47"
         inkscape:connector-curvature="0"
         style="fill:#a70000" />
    </g>
    <g
       id="g63"
       style="fill-rule:evenodd">
      <path
         d="M 637.8,230.32 C 584.65,289.37 513.78,407.48 372.05,407.48 248.03,407.48 159.45,289.37 106.3,230.32 159.45,171.26 248.03,53.15 372.05,53.15 c 141.73,0 212.6,118.11 265.75,177.17 z"
         transform="matrix(0.68807,0,0,0.61926,0.001,113.366)"
         id="path51"
         inkscape:connector-curvature="0"
         style="fill:#ffffff;stroke:#000000;stroke-width:2.10800004" />
      <path
         d="m 243.234,184.445 c 9.73,10.943 1.605,15.354 11.903,16.073 10.86,0.797 4.705,11.562 13.84,11.936 6.387,0.28 -0.638,25.794 5.511,34.213 6.263,8.777 11.508,2.571 11.618,8.913 0.109,6.558 -17.045,5.896 -17.346,26.099 -0.503,11.642 -14.476,12.388 -15.143,19.879 -0.83,7.046 27.528,11.002 27.15,17.31 -0.388,6.288 -30.62,5.303 -31.936,12.475 -0.675,6.442 41.531,11.721 44.925,30.352 -6.298,2.06 -24.216,3.998 -37.76,4.009 -85.327,0.068 -146.283,-73.14 -182.854,-109.708 36.571,-36.574 97.52,-109.714 182.855,-109.714 0,0 -25.33,23.144 -12.763,38.163 z"
         id="path53"
         inkscape:connector-curvature="0" />
      <g
         id="g57"
         style="fill:#ffffff;stroke-width:1.00000003pt">
        <path
           d="m 141.408,216.989 h 8.866 v 29.256 h -8.866 z m 0,48.761 h 8.866 v 29.256 h -8.866 z m 17.73,-48.761 h 8.866 v 29.256 h -8.866 z m 0,48.761 h 8.866 v 29.256 h -8.866 z m 17.73,-48.761 h 8.866 v 29.256 h -8.866 z m 0,48.761 h 8.866 v 29.256 h -8.866 z m 17.734,-48.761 h 8.866 v 29.256 h -8.866 z m 0,48.761 h 8.866 v 29.256 h -8.866 z m 17.73,-48.761 h 8.866 v 29.256 h -8.866 z m 0,48.761 h 8.866 v 29.256 h -8.866 z m 17.73,-48.761 h 8.865 v 29.256 h -8.865 z m 0,48.761 h 8.865 v 29.256 h -8.865 z"
           id="path55"
           inkscape:connector-curvature="0" />
      </g>
      <g
         id="g61"
         style="stroke-width:1.00000003pt">
        <path
           d="m 275.499,216.989 h 8.866 v 29.256 h -8.866 z m 0,48.761 h 8.866 v 29.256 h -8.866 z m 17.729,-48.761 h 8.866 v 29.256 h -8.866 z m 0,48.761 h 8.866 v 29.256 h -8.866 z m 17.73,-48.761 h 8.866 v 29.256 h -8.866 z m 0,48.761 h 8.866 v 29.256 h -8.866 z m 17.735,-48.761 h 8.866 v 29.256 h -8.866 z m 0,48.761 h 8.866 v 29.256 h -8.866 z m 17.729,-48.761 h 8.866 v 29.256 h -8.866 z m 0,48.761 h 8.866 v 29.256 h -8.866 z m 17.73,-48.761 h 8.866 v 29.256 h -8.866 z m 0,48.761 h 8.866 v 29.256 h -8.866 z"
           id="path59"
           inkscape:connector-curvature="0" />
      </g>
    </g>
    <g
       id="g69"
       style="fill-rule:evenodd">
      <path
         d="m 338.07,-0.416 c -5.571,12.442 9.754,-4.138 33.778,16.69 4.452,3.87 10.833,19.16 10.833,26.246 -5.115,-1.257 -14.173,-7.087 -14.173,-7.087 0,0 10.63,12.295 10.63,26.468 -3.756,-2.71 -5.635,-2.304 -6.883,-5.634 0,4.588 3.34,7.512 3.34,14.599 -2.711,-2.498 -5.006,-4.163 -7.3,-5.625 3.543,7.086 -6.457,20.834 -1.452,25.423 -8.752,-1.462 -17.707,-7.92 -21.25,-15.006 -1.878,1.462 -2.082,3.756 -2.155,6.203 0.276,0.264 -13.322,-11.656 -12.073,-16.235 -1.824,2.955 -2.081,4.579 -2.497,7.909 -4.996,-5.69 -9.574,-11.378 -11.24,-18.733 -2.22,3.33 -2.359,3.33 -4.579,6.66 -1.665,-11.655 -1.665,-11.24 1.665,-21.23 -2.359,1.804 -4.302,3.608 -6.66,5.828 2.234,-16.88 13.628,-36.674 30.016,-46.477 z"
         transform="matrix(0.9094,0,0,0.78749,-110.58,166.096)"
         id="path65"
         inkscape:connector-curvature="0"
         style="fill:#3d5da7;stroke:#000000;stroke-width:1.42200005" />
      <path
         d="m 184.375,213.644 c 0.81,-6.752 2.576,-9.295 3.103,-13.643 0.94,-7.648 -0.175,-13.237 2.534,-13.095 2.71,0.141 3.49,2.962 2.151,10.593 -1.34,7.63 -2.468,9.484 -7.788,16.145 z m 14.145,12.363 c -0.55,-5.697 0.503,-8.122 0.154,-11.791 -0.602,-6.457 -2.596,-10.83 -0.234,-11.233 2.362,-0.402 3.556,1.764 3.81,8.283 0.256,6.519 -0.375,8.256 -3.73,14.74 z m 22.082,10.085 c -2.401,-4.929 -4.464,-6.4 -6.015,-9.572 -2.739,-5.576 -3.31,-10.129 -5.422,-9.304 -2.112,0.825 -1.996,3.18 1.054,8.639 3.05,5.458 4.429,6.57 10.383,10.237 z m 7.633,-44.146 c -6.116,-3.22 -9.257,-3.26 -13.199,-5.329 -6.94,-3.627 -10.98,-7.725 -12.414,-5.47 -1.434,2.256 0.48,4.499 7.635,7.796 7.155,3.298 9.354,3.454 17.978,3.003 z m 2.245,18.436 c -4.455,-3.705 -7.088,-4.25 -9.96,-6.633 -5.06,-4.182 -7.578,-8.288 -9.268,-6.624 -1.69,1.665 -0.56,3.864 4.75,7.804 5.31,3.94 7.127,4.43 14.477,5.453 z"
         id="path67"
         inkscape:connector-curvature="0"
         style="fill:#a70000" />
    </g>
  </g>
</svg>
