<?xml version="1.0" encoding="UTF-8" standalone="no"?>
<svg
   xmlns:dc="http://purl.org/dc/elements/1.1/"
   xmlns:cc="http://creativecommons.org/ns#"
   xmlns:rdf="http://www.w3.org/1999/02/22-rdf-syntax-ns#"
   xmlns:svg="http://www.w3.org/2000/svg"
   xmlns="http://www.w3.org/2000/svg"
   xmlns:sodipodi="http://sodipodi.sourceforge.net/DTD/sodipodi-0.dtd"
   xmlns:inkscape="http://www.inkscape.org/namespaces/inkscape"
   height="16"
   width="21.333332"
   viewBox="0 0 21.333332 16"
   version="1.1"
   id="svg130"
   sodipodi:docname="tc.svg"
   inkscape:version="0.92.1 r">
  <metadata
     id="metadata136">
    <rdf:RDF>
      <cc:Work
         rdf:about="">
        <dc:format>image/svg+xml</dc:format>
        <dc:type
           rdf:resource="http://purl.org/dc/dcmitype/StillImage" />
        <dc:title></dc:title>
      </cc:Work>
    </rdf:RDF>
  </metadata>
  <defs
     id="defs134" />
  <sodipodi:namedview
     pagecolor="#ffffff"
     bordercolor="#666666"
     borderopacity="1"
     objecttolerance="10"
     gridtolerance="10"
     guidetolerance="10"
     inkscape:pageopacity="0"
     inkscape:pageshadow="2"
     inkscape:window-width="1920"
     inkscape:window-height="1024"
     id="namedview132"
     showgrid="false"
     fit-margin-top="0"
     fit-margin-left="0"
     fit-margin-right="0"
     fit-margin-bottom="0"
     inkscape:zoom="0.49166667"
     inkscape:cx="320"
     inkscape:cy="240"
     inkscape:window-x="0"
     inkscape:window-y="0"
     inkscape:window-maximized="1"
     inkscape:current-layer="svg130" />
  <path
     d="M 21.333333,16 V 0 H 0 v 16 z"
     id="path2"
     inkscape:connector-curvature="0"
     style="fill:#000066;stroke-width:0.03333334" />
  <path
     d="M 0,0 H 12.456 V 7.73893 H 0 Z"
     id="path4"
     inkscape:connector-curvature="0"
     style="fill:#000066;fill-rule:evenodd;stroke-width:0.03333334" />
  <g
     id="g12"
     transform="scale(0.03333333)"
     style="stroke-width:1.00000003pt">
    <path
       d="m 0,0 v 25.957 l 331.901,206.21 h 41.778 V 206.211 L 41.777,0.001 H 0 Z M 373.679,0 V 25.956 L 41.777,232.166 H 0 V 206.21 L 331.901,0 Z"
       id="path6"
       inkscape:connector-curvature="0"
       style="fill:#ffffff" />
    <path
       d="m 155.7,0 v 232.167 h 62.28 V 0 Z M 0,77.389 v 77.389 H 373.679 V 77.388 H 0 Z"
       id="path8"
       inkscape:connector-curvature="0"
       style="fill:#ffffff" />
    <path
       d="M 0,92.867 V 139.3 H 373.679 V 92.867 Z M 168.155,0 v 232.167 h 37.368 V 0 Z M 0,232.167 124.56,154.777 h 27.851 l -124.56,77.39 H 0 Z M 0,0 124.56,77.389 H 96.708 L 0,17.305 Z M 221.267,77.389 345.827,0 h 27.852 L 249.119,77.389 Z M 373.68,232.167 249.12,154.777 h 27.852 l 96.708,60.085 z"
       id="path10"
       inkscape:connector-curvature="0"
       style="fill:#cc0000" />
  </g>
  <g
     id="g128"
     transform="scale(0.03333333)">
    <path
       d="m 612.54,212.442 v 79.91 c 0,65.607 -25.77,125.663 -102.217,162.169 -76.416,-36.506 -102.189,-96.56 -102.189,-162.168 v -79.911 h 204.444 z"
       id="path14"
       inkscape:connector-curvature="0"
       style="fill:#ffffff;fill-opacity:0.99599998" />
    <path
       d="m 605.691,220.585 v 74.535 c 0,61.192 -24.036,117.209 -95.34,151.256 -71.307,-34.048 -95.34,-90.063 -95.34,-151.256 v -74.535 h 190.69 z"
       id="path16"
       inkscape:connector-curvature="0"
       style="fill:#fdc300;fill-opacity:0.99599998" />
    <g
       id="g26"
       style="stroke:#000000;stroke-width:0.091">
      <path
         d="m 205.96,52.847 a 2.085,2.085 0 0 0 -1.265,-0.441 c 0.117,-1.295 -0.824,-1.854 -1.501,-2.09 -0.676,-0.235 -0.912,-0.5 -1.029,-1.03 -0.118,-0.529 -0.471,-0.852 -1.089,-1.029 -0.618,-0.176 -1.148,-0.794 -1.383,-1.088 -0.235,-0.295 -0.324,-0.236 -0.5,0.264 -0.177,0.5 -0.883,1.442 -0.236,1.472 -0.47,0.382 -0.735,0.823 -0.441,1.412 -0.324,0.265 -0.559,0.647 -0.118,0.794 0.442,0.147 0.559,0.265 0.589,0.383 -0.397,0 -0.5,0.794 0.441,0.97 -0.206,0.03 -0.294,0.677 0.089,0.677 -0.53,0 -0.972,0.795 -1.648,0.795 -0.677,0 -1.03,0.147 -1.059,0.441 -0.03,0.294 -0.383,0.647 -0.559,0.794 0.5,0.06 0.823,0 1.088,-0.206 0.265,-0.206 0.706,-0.264 1.001,-0.029 0.294,0.235 0.912,0.353 1.206,0.294 -0.647,0.442 -1.118,1.03 -1.177,1.589 -0.059,0.56 -0.441,1.206 -0.883,1.383 -0.441,0.176 -1.029,0.647 -1.235,1.206 0.559,1.383 1.352,1.725 2.147,2.09 1.413,0.646 2.295,1.117 2.884,1.764 0.588,0.648 0.824,0.177 1.706,1.295 0.883,1.118 1.707,3.236 2.589,3.59 0.883,0.353 2.001,0.117 2.648,-1 0.648,-1.119 1.06,-12.417 -2.265,-14.3 z"
         transform="matrix(3.909,0,0,3.9094,-339.132,46.653)"
         id="path18"
         inkscape:connector-curvature="0"
         style="fill:#ff9e3d" />
      <path
         d="m 207.46,48.139 c -0.824,0.883 -1.884,1.765 -1.707,3.354 0.177,1.589 0.353,4.178 -1.118,5.06 -1.471,0.884 -2.177,3.12 -0.412,4.414 1.765,1.295 1.824,2.884 2.118,4.355 0.295,1.47 1.06,2.648 2.237,1.647 1.176,0.177 1.824,-0.294 1.824,-1.235 0,-0.941 0.059,-1.471 0.941,-1.766 0.883,-0.294 1.118,-0.588 1.53,-1.383 0.412,-0.794 0.647,-1.147 0.412,-1.618 -0.235,-0.47 -0.324,-1.441 -0.147,-2.148 0.177,-0.706 -0.235,-1.088 -0.471,-1.53 -0.235,-0.44 -0.323,-0.823 -0.206,-1.412 0.118,-0.588 -0.176,-0.97 -0.588,-1.265 -0.412,-0.294 -0.589,-0.588 -0.5,-1.06 0.088,-0.47 -0.295,-0.764 -0.736,-1.117 -0.441,-0.353 -0.765,-0.824 -0.765,-1.53 0,-0.706 -1.353,-2.354 -2.412,-2.766 z"
         transform="matrix(3.909,0,0,3.9094,-339.132,46.653)"
         id="path20"
         inkscape:connector-curvature="0"
         style="fill:#ff927f" />
      <path
         d="m 207.79,67.352 c 1.971,-0.5 1.795,-3.737 1.501,-5.09 -0.295,-1.353 -1.051,-3.292 -0.471,-4.825 0.824,-2.177 -1.001,-4.237 -0.53,-5.06 0.471,-0.825 0.412,-1.266 0.353,-1.53 -0.058,-0.266 -0.5,-0.472 -0.529,0.087 -0.03,0.56 -0.177,0.765 -0.53,1.118 -0.353,0.353 -0.265,1.118 0,1.972 0.265,0.853 0.824,2.148 -0.059,3.854 -0.882,1.706 -0.519,2.467 -0.176,3.266 0.529,1.236 1.795,5.531 0.441,6.208 z"
         transform="matrix(3.909,0,0,3.9094,-339.132,46.653)"
         id="path22"
         inkscape:connector-curvature="0"
         style="fill:#ff9ee1" />
      <path
         d="m 198.96,48.904 c 0.221,0 0.648,-0.088 0.648,0.206 m -1.088,1.206 c 0.265,-0.191 0.736,0.03 1.206,-0.25 m -0.736,1.427 c 0.353,0 0.824,-0.015 1.265,-0.368 m -0.825,1.339 c 0.324,0 0.927,-0.206 1.074,-0.632 m -0.984,1.309 c 0.632,-0.03 1.471,0.206 1.588,-0.015 m -1.558,2.104 c 0.441,-0.412 1.486,-0.691 1.721,-1.118 m -0.601,-5.443 c 0.735,0.235 0.431,0.69 0.794,0.971 0.648,0.5 0.059,1.06 0.589,1.206 0.529,0.147 0.52,0.237 0.382,0.824 -0.162,0.692 0.5,0.72 0.265,1.177 m 2,-0.441 c -0.294,0 -1.162,0.03 -1.53,0.81 m -4.75,7.678 c 0.339,0.059 0.508,-0.134 0.603,-0.324 0.103,-0.206 0.147,-0.353 0.456,-0.367 0.309,-0.015 0.78,-0.103 0.883,-0.339 0.103,-0.235 0.471,-0.015 0.78,-0.632 0.309,-0.618 0.515,-1.354 1.338,-1.619"
         transform="matrix(3.909,0,0,3.9094,-339.132,46.653)"
         id="path24"
         inkscape:connector-curvature="0"
         style="fill:none" />
    </g>
    <g
       id="g44"
       style="stroke:#000000;stroke-width:0.091">
      <path
         d="m 221.76,73.75 c 0.333,0.484 -0.012,1.007 0.553,1.216 0.662,0.245 0.084,1.116 0.865,1.422 0.692,0.273 0.005,1.105 0.753,1.479 0.669,0.334 -0.112,1.115 0.781,1.562 0.892,0.446 -0.168,1.45 0.502,1.84 0.669,0.391 -0.223,1.395 0.558,1.786 0.781,0.39 -0.335,1.171 0.39,1.729 0.725,0.558 -0.167,1.394 0.558,1.896 0.725,0.502 -0.445,1.173 0.279,1.897 0.558,0.558 -0.201,1.104 0.223,1.953 0.279,0.557 -0.279,2.789 -1.841,2.566 -0.558,0.948 -2.733,1.785 -3.514,1.506 -0.781,0.558 -3.291,1.339 -4.575,0.111 -1.282,1.228 -3.793,0.447 -4.574,-0.111 -0.781,0.279 -2.956,-0.558 -3.514,-1.506 -1.562,0.223 -2.12,-2.009 -1.841,-2.566 0.424,-0.849 -0.335,-1.395 0.223,-1.953 0.724,-0.724 -0.446,-1.394 0.279,-1.897 0.725,-0.503 -0.167,-1.338 0.558,-1.896 0.725,-0.558 -0.391,-1.339 0.39,-1.73 0.781,-0.39 -0.111,-1.394 0.558,-1.785 0.67,-0.39 -0.39,-1.394 0.502,-1.84 0.893,-0.447 0.112,-1.228 0.781,-1.562 0.748,-0.374 0.061,-1.206 0.753,-1.479 0.781,-0.306 0.203,-1.177 0.865,-1.422 0.574,-0.212 0.208,-0.749 0.57,-1.24 1.661,0.654 6.803,1.123 8.918,0.024 z"
         transform="matrix(3.909,0,0,3.9094,-339.132,46.653)"
         id="path28"
         inkscape:connector-curvature="0"
         style="fill:#00a728" />
      <g
         id="g32"
         style="fill:#fdc300;fill-opacity:0.99599998">
        <path
           d="m 213.51,76.668 c 0.001,0.25 -0.005,0.5 -0.237,0.809 -0.502,0.67 0.223,1.004 -0.335,1.73 -0.557,0.724 0.112,1.17 -0.502,1.784 -0.613,0.614 0.112,1.172 -0.502,1.841 -0.613,0.67 0.112,1.116 -0.502,1.73 -0.613,0.613 0.112,1.283 -0.502,1.896 -0.613,0.614 0.112,1.395 -0.558,2.12 -0.669,0.725 0.112,1.283 -0.446,1.84 -0.558,0.559 -0.056,1.116 -0.446,1.507 0.669,-0.502 0.669,-1.283 1.171,-1.674 0.502,-0.39 -0.167,-0.948 0.112,-1.227 0.279,-0.279 0.056,-1.45 0.558,-2.008 0.502,-0.558 0.056,-1.674 0.502,-2.064 0.446,-0.39 0.111,-1.562 0.669,-1.952 0.558,-0.39 0,-1.34 0.446,-1.841 0.447,-0.502 0,-1.283 0.447,-1.897 0.446,-0.614 0.02,-1.17 0.334,-1.673 0.14,-0.224 0.14,-1.841 -0.209,-0.921 z m 1.61,0.697 c -0.39,0.725 0.279,0.892 -0.223,1.618 -0.502,0.726 0.279,1.283 -0.279,2.008 -0.558,0.725 0.279,1.115 -0.223,1.84 -0.502,0.726 0.223,1.116 -0.223,1.674 -0.447,0.558 0.334,1.116 -0.223,1.785 -0.558,0.67 0.223,1.172 -0.224,1.785 -0.446,0.614 0.168,1.283 -0.223,1.785 -0.39,0.502 0.279,1.228 -0.279,1.897 -0.558,0.669 0.112,1.116 -0.223,1.562 0.67,-0.223 0.419,-1.144 0.67,-1.339 0.251,-0.195 -0.084,-1.478 0.306,-1.813 0.391,-0.334 -0.251,-1.367 0.112,-1.813 0.614,-0.753 0.084,-1.255 0.446,-1.84 0.363,-0.586 -0.138,-1.338 0.14,-1.73 0.474,-0.67 -0.21,-1.273 0.139,-1.757 0.502,-0.697 -0.097,-1.272 0.251,-1.73 0.53,-0.697 -0.056,-1.394 0.168,-1.757 0.223,-0.362 0.585,-1.924 -0.112,-2.175 z m 2.17,0.609 c -0.39,0.972 0.279,1.36 0.056,2.138 -0.223,0.778 0.279,1.361 -0.056,2.203 -0.334,0.843 0.447,1.49 0,2.592 -0.446,1.102 0.288,1.376 0,2.463 -0.334,1.263 0.558,1.933 0,2.825 -0.557,0.893 0.639,1.188 0.056,2.12 -0.279,0.446 0.028,1.59 0.474,0.223 0.447,-1.366 -0.334,-1.534 0.056,-2.092 0.391,-0.558 -0.139,-2.036 0.028,-2.817 0.168,-0.78 -0.39,-1.84 -0.028,-2.677 0.363,-0.837 -0.558,-1.73 -0.195,-2.455 0.363,-0.725 -0.167,-1.618 0.167,-2.203 0.335,-0.586 -0.251,-1.367 -0.111,-1.702 0.139,-0.334 -0.14,-1.57 -0.447,-0.618 z"
           transform="matrix(3.909,0,0,3.9094,-339.132,46.653)"
           id="path30"
           inkscape:connector-curvature="0" />
      </g>
      <path
         d="m 221.47,74.408 c 0,-6.303 -0.892,-8.479 -4.184,-8.479 -3.291,0 -4.183,2.175 -4.183,8.479 z"
         transform="matrix(3.909,0,0,3.9094,-339.132,46.653)"
         id="path34"
         inkscape:connector-curvature="0"
         style="fill:#ef072d" />
      <g
         id="g38"
         style="fill:none">
        <path
           d="m 214.33,73.906 c -0.614,0.614 0.112,1.06 -0.502,1.785 -0.614,0.725 -0.056,1.116 -0.558,1.785 -0.502,0.669 0.223,1.004 -0.335,1.73 -0.557,0.725 0.112,1.17 -0.502,1.784 -0.613,0.614 0.112,1.172 -0.502,1.841 -0.613,0.67 0.112,1.116 -0.502,1.73 -0.613,0.613 0.112,1.283 -0.502,1.896 -0.613,0.614 0.112,1.395 -0.558,2.12 -0.669,0.725 0.112,1.283 -0.446,1.84 -0.558,0.559 -0.056,1.117 -0.446,1.507 -0.391,0.39 -0.446,0.935 -0.279,1.172 M 215.5,74.129 c -0.557,0.725 0.279,1.06 -0.223,1.673 -0.502,0.614 0.223,0.837 -0.167,1.563 -0.39,0.726 0.279,0.892 -0.223,1.617 -0.502,0.725 0.279,1.283 -0.279,2.008 -0.558,0.725 0.279,1.116 -0.223,1.841 -0.502,0.725 0.223,1.116 -0.223,1.674 -0.447,0.558 0.334,1.115 -0.223,1.785 -0.558,0.67 0.223,1.171 -0.224,1.785 -0.446,0.614 0.168,1.283 -0.223,1.785 -0.39,0.502 0.279,1.227 -0.279,1.897 -0.558,0.67 0.112,1.115 -0.223,1.562 -0.335,0.446 -0.599,1.101 -0.279,1.283 m 4.579,-19.803 c -0.278,1.166 0.391,2.203 0,3.175 -0.39,0.972 0.279,1.36 0.056,2.138 -0.223,0.778 0.279,1.361 -0.056,2.203 -0.334,0.843 0.447,1.49 0,2.592 -0.446,1.102 0.288,1.376 0,2.463 -0.334,1.263 0.558,1.933 0,2.825 -0.557,0.893 0.503,1.116 0.056,2.12 -0.446,1.004 0.279,1.395 -0.056,2.399 m 2.96,-20.808 c 0.614,0.614 -0.112,1.06 0.502,1.785 0.614,0.725 0.056,1.116 0.558,1.785 0.502,0.669 -0.223,1.004 0.335,1.73 0.557,0.725 -0.112,1.17 0.502,1.784 0.613,0.614 -0.112,1.172 0.502,1.841 0.613,0.67 -0.112,1.116 0.502,1.73 0.613,0.613 -0.112,1.283 0.502,1.896 0.613,0.614 -0.112,1.395 0.558,2.12 0.669,0.725 -0.112,1.283 0.446,1.84 0.558,0.559 0.056,1.117 0.446,1.507 0.391,0.39 0.447,0.935 0.279,1.172 M 219.08,74.129 c 0.557,0.725 -0.279,1.06 0.223,1.673 0.502,0.614 -0.223,0.837 0.167,1.563 0.391,0.725 -0.279,0.892 0.223,1.617 0.502,0.725 -0.279,1.283 0.279,2.008 0.558,0.725 -0.279,1.116 0.223,1.841 0.502,0.725 -0.223,1.116 0.223,1.674 0.447,0.558 -0.334,1.115 0.224,1.785 0.557,0.67 -0.224,1.171 0.223,1.785 0.446,0.614 -0.168,1.283 0.223,1.785 0.39,0.502 -0.279,1.227 0.279,1.897 0.558,0.67 -0.112,1.115 0.223,1.562 0.335,0.446 0.6,1.101 0.279,1.283"
           transform="matrix(3.909,0,0,3.9094,-339.132,46.653)"
           id="path36"
           inkscape:connector-curvature="0" />
      </g>
      <path
         d="m 213.11,74.408 c 0,-6.303 0.892,-8.479 4.183,-8.479 -1.506,0 -2.426,1.171 -2.677,1.952 -0.251,0.781 -0.112,0.725 0.223,0.419 0.335,-0.306 0.167,0.362 -0.111,0.725 -0.279,0.362 -0.558,1.394 -0.168,1.06 0.391,-0.335 0.697,0.056 0.279,0.641 -0.418,0.585 -0.781,1.953 -0.363,1.479 0.419,-0.475 0.502,0.306 0.252,0.697 -0.252,0.39 -0.224,0.725 0,0.558 0.223,-0.168 0.195,0.641 -0.028,0.948 z m 7.72,-0.362 c 0,-4.937 -0.613,-6.415 -1.84,-6.917 -0.695,-0.285 -0.715,-0.223 -0.383,0.223 0.332,0.446 0.281,1.088 -0.026,0.641 -0.306,-0.446 -0.408,-0.53 -0.536,-0.334 -0.128,0.195 0.357,1.115 0.715,1.952 0.288,0.673 0.102,1.004 -0.332,0.335 -0.434,-0.669 -0.434,-0.063 -0.053,0.502 0.489,0.725 0.474,2.929 0.474,3.849 z"
         transform="matrix(3.909,0,0,3.9094,-339.132,46.653)"
         id="path40"
         inkscape:connector-curvature="0" />
      <path
         d="m 217.29,75.329 c 1.311,0 2.746,-0.234 3.71,-0.608 1.144,-0.444 1.205,-0.834 0.809,-1.332 -0.279,-0.351 -0.893,-0.14 -1.478,0.117 -0.586,0.257 -2.204,0.42 -3.041,0.42 -0.836,0 -2.454,-0.163 -3.04,-0.42 -0.585,-0.258 -1.199,-0.468 -1.478,-0.117 -0.396,0.498 -0.335,0.888 0.809,1.332 0.963,0.374 2.399,0.608 3.709,0.608 z"
         transform="matrix(3.909,0,0,3.9094,-339.132,46.653)"
         id="path42"
         inkscape:connector-curvature="0"
         style="fill:#ef072d" />
    </g>
    <g
       id="g126"
       style="fill:#b95a1e;fill-rule:evenodd">
      <path
         d="m 779.41,912.6 c 0,0 -0.12,103.6 0,179.24 0.12,75.63 19.822,104.91 54.262,103.59 34.44,-1.33 41.108,-58.83 34.531,-92.08 -6.577,-33.26 -53.24,-198.97 -53.24,-198.97 l -35.553,8.222 z"
         transform="matrix(0.053,-0.03423,0.03246,0.0559,489.023,284.185)"
         id="path46"
         inkscape:connector-curvature="0"
         style="stroke:#000000;stroke-width:6.37699986" />
      <path
         d="m 779.41,912.6 c 0,0 -0.12,103.6 0,179.24 0.12,75.63 19.822,104.91 54.262,103.59 34.44,-1.33 41.108,-58.83 34.531,-92.08 -6.577,-33.26 -53.24,-198.97 -53.24,-198.97 l -35.553,8.222 z"
         transform="matrix(0.0608,-0.01361,0.0129,0.06412,499.988,261.06)"
         id="path48"
         inkscape:connector-curvature="0"
         style="stroke:#000000;stroke-width:6.37699986" />
      <path
         d="m 779.41,912.6 c 0,0 -0.12,103.6 0,179.24 0.12,75.63 19.822,104.91 54.262,103.59 34.44,-1.33 41.108,-58.83 34.531,-92.08 -6.577,-33.26 -53.24,-198.97 -53.24,-198.97 l -35.553,8.222 z"
         transform="matrix(0.06216,0,0,0.06555,509.298,249.353)"
         id="path50"
         inkscape:connector-curvature="0"
         style="stroke:#000000;stroke-width:6.37699986" />
      <path
         d="m 779.53,255.12 c 159.57,-1.394 177.16,-35.432 177.16,-35.432 0,0 35.43,-70.866 17.716,-88.584 -17.717,-17.716 -194.88,-17.716 -194.88,-17.716 v 141.73 z"
         transform="matrix(0.03857,0,0,0.06555,527.683,292.32)"
         id="path52"
         inkscape:connector-curvature="0"
         style="stroke:#000000;stroke-width:8.09500027" />
      <path
         d="m 779.53,255.12 c 106.3,0 124.02,-35.432 124.02,-35.432 0,0 35.43,-70.866 17.716,-88.584 -17.717,-17.716 -141.73,-17.716 -141.73,-17.716 v 141.73 z"
         transform="matrix(0.06216,0,0,0.06555,509.298,287.673)"
         id="path54"
         inkscape:connector-curvature="0"
         style="stroke:#000000;stroke-width:6.37699986" />
      <path
         d="m 779.53,255.12 c 88.583,0 141.73,-35.433 141.73,-35.433 0,0 35.43,-70.866 17.716,-88.584 -17.72,-17.72 -159.45,-17.71 -159.45,-17.71 v 141.73 z"
         transform="matrix(0.06216,0,0,0.06555,509.298,283.026)"
         id="path56"
         inkscape:connector-curvature="0"
         style="stroke:#000000;stroke-width:6.37699986" />
      <path
         d="m 832.68,113.39 c 0,0 70.866,-88.583 194.88,-177.17 124.01,-88.582 213.73,-156.72 230.31,-141.73 0,17.717 -106.3,106.3 -194.88,177.17 C 974.4,42.52 868.1,148.82 868.1,148.82 l -35.433,-35.433 z"
         transform="matrix(0.07714,0,0,0.06555,497.232,249.488)"
         id="path58"
         inkscape:connector-curvature="0"
         style="stroke:#000000;stroke-width:5.72399998" />
      <path
         d="m 832.68,113.39 c 0,0 70.05,-52.025 204.38,-124.02 132.23,-63.918 318.89,-53.15 318.89,-35.433 -17.71,17.716 -177.16,17.716 -283.46,70.866 C 971.01,75.532 868.1,148.813 868.1,148.813 L 832.667,113.38 Z"
         transform="matrix(0.07714,0,0,0.06555,497.87,254.135)"
         id="path60"
         inkscape:connector-curvature="0"
         style="stroke:#000000;stroke-width:5.72399998" />
      <path
         d="m 832.68,113.39 c 0,0 61.675,-35.068 204.38,-88.583 141.72,-53.15 329.87,-17.717 329.87,0 -17.7,17.713 -170.4,6.944 -276.7,35.429 C 980.24,87.994 868.14,148.82 868.14,148.82 l -35.433,-35.433 z"
         transform="matrix(0.07714,0,0,0.06555,497.93,262.135)"
         id="path62"
         inkscape:connector-curvature="0"
         style="stroke:#000000;stroke-width:5.72399998" />
      <path
         d="m 832.68,113.39 c 0,0 71.079,-70.976 222.47,-88.583 152.3,-17.72 276.3,88.583 276.3,106.29 -17.7,17.72 -159.5,-77.972 -265.7,-64.286 -112.67,13.654 -197.69,82.006 -197.69,82.006 l -35.433,-35.433 z"
         transform="matrix(0.07714,0,0,0.06555,498.45,270.253)"
         id="path64"
         inkscape:connector-curvature="0"
         style="stroke:#000000;stroke-width:5.72399998" />
      <path
         d="m 779.53,255.12 c 159.57,-1.394 159.45,-45.508 159.45,-45.508 0,0 35.43,-70.866 17.716,-88.584 -17.717,-17.716 -177.16,-7.64 -177.16,-7.64 v 141.73 z"
         transform="matrix(0.06216,0,0,0.06555,509.298,277.227)"
         id="path66"
         inkscape:connector-curvature="0"
         style="stroke:#000000;stroke-width:6.37699986" />
      <path
         d="m 779.53,255.12 c 159.57,-1.394 177.16,-35.432 177.16,-35.432 0,0 35.43,-70.866 17.716,-88.584 -17.717,-17.716 -194.88,-17.716 -194.88,-17.716 v 141.73 z"
         transform="matrix(0.06216,0,0,0.06555,509.298,272.58)"
         id="path68"
         inkscape:connector-curvature="0"
         style="stroke:#000000;stroke-width:6.37699986" />
      <path
         d="m 779.53,255.12 c 159.57,-1.394 194.88,-35.433 194.88,-35.433 0,0 35.43,-70.866 17.716,-88.583 -17.717,-17.716 -212.6,-17.716 -212.6,-17.716 v 141.73 z"
         transform="matrix(0.06216,0,0,0.06555,509.298,266.774)"
         id="path70"
         inkscape:connector-curvature="0"
         style="stroke:#000000;stroke-width:6.37699986" />
      <path
         d="m 779.53,255.12 c 159.57,-1.394 212.6,-35.433 212.6,-35.433 0,0 17.714,-70.866 0,-88.583 -17.717,-17.716 -212.6,-17.716 -212.6,-17.716 v 141.73 z"
         transform="matrix(0.06216,0,0,0.06555,509.298,260.967)"
         id="path72"
         inkscape:connector-curvature="0"
         style="stroke:#000000;stroke-width:6.37699986" />
      <path
         d="m 832.68,113.39 c 0,0 114.21,-88.583 114.21,-159.45 0,-70.866 -50.349,-141.73 -64.625,-177.17 28.552,0 93.176,106.3 93.176,177.17 0,77.444 -107.32,194.88 -107.32,194.88 l -35.433,-35.433 z"
         transform="matrix(0.07714,0,0,0.06555,495.728,244.706)"
         id="path74"
         inkscape:connector-curvature="0"
         style="stroke:#000000;stroke-width:5.72399998" />
      <path
         d="m 832.68,113.39 c 0,0 -14.276,-53.15 -14.276,-159.45 0,-124.02 63.001,-202.89 85.654,-230.32 5.898,27.422 -57.102,124.02 -57.102,230.32 0,77.444 21.157,194.88 21.157,194.88 L 832.68,113.387 Z"
         transform="matrix(0.07714,0,0,0.06555,495.728,244.706)"
         id="path76"
         inkscape:connector-curvature="0"
         style="stroke:#000000;stroke-width:5.72399998" />
      <path
         d="m 779.53,255.12 c 159.57,-1.394 212.6,-35.433 212.6,-35.433 0,0 0,-70.866 -17.716,-88.583 -17.717,-17.716 -194.88,-17.716 -194.88,-17.716 v 141.73 z"
         transform="matrix(0.06216,0,0,0.06555,509.298,255.16)"
         id="path78"
         inkscape:connector-curvature="0"
         style="stroke:#000000;stroke-width:6.37699986" />
      <path
         d="m 779.53,255.12 c 159.57,-1.394 194.88,-35.433 194.88,-35.433 0,0 0,-70.866 -17.716,-88.583 -17.717,-17.716 -177.16,-17.716 -177.16,-17.716 v 141.73 z"
         transform="matrix(0.06216,0,0,0.06555,509.298,249.353)"
         id="path80"
         inkscape:connector-curvature="0"
         style="stroke:#000000;stroke-width:6.37699986" />
      <path
         d="m 318.9,1318.1 c 55.065,-122.32 70.866,-336.61 70.866,-372.05 0,-99.782 -32.948,-585.11 -35.433,-779.53 -2.485,-194.42 124.02,-301.18 248.03,-301.18 106.3,0 177.17,70.866 177.17,177.17 h -53.15 c 0,-70.866 -53.15,-124.02 -124.02,-124.02 -106.3,0 -187.99,83.739 -194.88,248.03 -7.605,189.89 21.316,682.94 17.717,814.96 -3.599,132.02 -51.234,249.72 -106.3,336.61 z"
         transform="matrix(-0.06216,0,0,0.06555,606.204,249.353)"
         id="path82"
         inkscape:connector-curvature="0"
         style="stroke:#fdc301;stroke-width:16.07099915" />
      <path
         d="m 779.41,912.6 c 0,0 -0.12,103.6 0,179.24 0.12,75.63 19.822,104.91 54.262,103.59 34.44,-1.33 41.108,-58.83 34.531,-92.08 -6.577,-33.26 -53.24,-198.97 -53.24,-198.97 l -35.553,8.222 z"
         transform="matrix(-0.053,-0.03423,-0.03246,0.0559,626.48,284.185)"
         id="path84"
         inkscape:connector-curvature="0"
         style="stroke:#000000;stroke-width:6.37699986" />
      <path
         d="m 779.53,32.884 c 124.13,0.141 177.77,102.39 177.46,100.31 l -35.734,33.347 c -18.985,17.717 -141.73,17.717 -140.21,17.626 l -1.52,-151.29 z"
         transform="matrix(0.06216,0,0,0.06555,509.298,249.353)"
         id="path86"
         inkscape:connector-curvature="0"
         style="stroke:#000000;stroke-width:6.37699986" />
      <path
         d="m 779.41,912.6 c 0,0 -0.12,103.6 0,179.24 0.12,75.63 19.822,104.91 54.262,103.59 34.44,-1.33 41.108,-58.83 34.531,-92.08 -6.577,-33.26 -53.24,-198.97 -53.24,-198.97 l -35.553,8.222 z"
         transform="matrix(-0.0608,-0.01361,-0.0129,0.06412,615.506,261.06)"
         id="path88"
         inkscape:connector-curvature="0"
         style="stroke:#000000;stroke-width:6.37699986" />
      <path
         d="m 779.41,912.6 c 0,0 -0.12,103.6 0,179.24 0.12,75.63 19.822,104.91 54.262,103.59 34.44,-1.33 41.108,-58.83 34.531,-92.08 -6.577,-33.26 -53.24,-198.97 -53.24,-198.97 l -35.553,8.222 z"
         transform="matrix(-0.06216,0,0,0.06555,606.196,249.353)"
         id="path90"
         inkscape:connector-curvature="0"
         style="stroke:#000000;stroke-width:6.37699986" />
      <path
         d="m 779.53,255.12 c 159.57,-1.394 177.16,-35.432 177.16,-35.432 0,0 35.43,-70.866 17.716,-88.584 -17.717,-17.716 -194.88,-17.716 -194.88,-17.716 v 141.73 z"
         transform="matrix(-0.03857,0,0,0.06555,587.811,292.32)"
         id="path92"
         inkscape:connector-curvature="0"
         style="stroke:#000000;stroke-width:8.09500027" />
      <path
         d="m 779.53,255.12 c 106.3,0 124.02,-35.432 124.02,-35.432 0,0 35.43,-70.866 17.716,-88.584 -17.717,-17.716 -141.73,-17.716 -141.73,-17.716 v 141.73 z"
         transform="matrix(-0.06216,0,0,0.06555,606.196,287.673)"
         id="path94"
         inkscape:connector-curvature="0"
         style="stroke:#000000;stroke-width:6.37699986" />
      <path
         d="m 779.53,255.12 c 88.583,0 141.73,-35.433 141.73,-35.433 0,0 35.43,-70.866 17.716,-88.584 -17.72,-17.72 -159.45,-17.71 -159.45,-17.71 v 141.73 z"
         transform="matrix(-0.06216,0,0,0.06555,606.196,283.026)"
         id="path96"
         inkscape:connector-curvature="0"
         style="stroke:#000000;stroke-width:6.37699986" />
      <path
         d="m 832.68,113.39 c 0,0 70.866,-88.583 194.88,-177.17 124.01,-88.582 213.73,-156.72 230.31,-141.73 0,17.717 -106.3,106.3 -194.88,177.17 C 974.4,42.52 868.1,148.82 868.1,148.82 l -35.433,-35.433 z"
         transform="matrix(-0.07714,0,0,0.06555,618.262,249.488)"
         id="path98"
         inkscape:connector-curvature="0"
         style="stroke:#000000;stroke-width:5.72399998" />
      <path
         d="m 832.68,113.39 c 0,0 70.05,-52.025 204.38,-124.02 132.23,-63.918 318.89,-53.15 318.89,-35.433 -17.71,17.716 -177.16,17.716 -283.46,70.866 C 971.01,75.532 868.1,148.813 868.1,148.813 L 832.667,113.38 Z"
         transform="matrix(-0.07714,0,0,0.06555,617.632,254.135)"
         id="path100"
         inkscape:connector-curvature="0"
         style="stroke:#000000;stroke-width:5.72399998" />
      <path
         d="m 832.68,113.39 c 0,0 61.675,-35.068 204.38,-88.583 141.72,-53.15 329.87,-17.717 329.87,0 -17.7,17.713 -170.4,6.944 -276.7,35.429 C 980.24,87.994 868.14,148.82 868.14,148.82 l -35.433,-35.433 z"
         transform="matrix(-0.07714,0,0,0.06555,617.573,262.135)"
         id="path102"
         inkscape:connector-curvature="0"
         style="stroke:#000000;stroke-width:5.72399998" />
      <path
         d="m 832.68,113.39 c 0,0 71.079,-70.976 222.47,-88.583 152.3,-17.72 276.3,88.583 276.3,106.29 -17.7,17.72 -159.5,-77.972 -265.7,-64.286 -112.67,13.654 -197.69,82.006 -197.69,82.006 l -35.433,-35.433 z"
         transform="matrix(-0.07714,0,0,0.06555,617.052,270.253)"
         id="path104"
         inkscape:connector-curvature="0"
         style="stroke:#000000;stroke-width:5.72399998" />
      <path
         d="m 779.53,255.12 c 159.57,-1.394 159.45,-45.508 159.45,-45.508 0,0 35.43,-70.866 17.716,-88.584 -17.717,-17.716 -177.16,-7.64 -177.16,-7.64 v 141.73 z"
         transform="matrix(-0.06216,0,0,0.06555,606.196,277.227)"
         id="path106"
         inkscape:connector-curvature="0"
         style="stroke:#000000;stroke-width:6.37699986" />
      <path
         d="m 779.53,255.12 c 159.57,-1.394 177.16,-35.432 177.16,-35.432 0,0 35.43,-70.866 17.716,-88.584 -17.717,-17.716 -194.88,-17.716 -194.88,-17.716 v 141.73 z"
         transform="matrix(-0.06216,0,0,0.06555,606.196,272.58)"
         id="path108"
         inkscape:connector-curvature="0"
         style="stroke:#000000;stroke-width:6.37699986" />
      <path
         d="m 779.53,255.12 c 159.57,-1.394 194.88,-35.433 194.88,-35.433 0,0 35.43,-70.866 17.716,-88.583 -17.717,-17.716 -212.6,-17.716 -212.6,-17.716 v 141.73 z"
         transform="matrix(-0.06216,0,0,0.06555,606.196,266.774)"
         id="path110"
         inkscape:connector-curvature="0"
         style="stroke:#000000;stroke-width:6.37699986" />
      <path
         d="m 779.53,255.12 c 159.57,-1.394 212.6,-35.433 212.6,-35.433 0,0 17.714,-70.866 0,-88.583 -17.717,-17.716 -212.6,-17.716 -212.6,-17.716 v 141.73 z"
         transform="matrix(-0.06216,0,0,0.06555,606.196,260.967)"
         id="path112"
         inkscape:connector-curvature="0"
         style="stroke:#000000;stroke-width:6.37699986" />
      <path
         d="m 832.68,113.39 c 0,0 114.21,-88.583 114.21,-159.45 0,-70.866 -50.349,-141.73 -64.625,-177.17 28.552,0 93.176,106.3 93.176,177.17 0,77.444 -107.32,194.88 -107.32,194.88 l -35.433,-35.433 z"
         transform="matrix(-0.07714,0,0,0.06555,619.775,244.706)"
         id="path114"
         inkscape:connector-curvature="0"
         style="stroke:#000000;stroke-width:5.72399998" />
      <path
         d="m 832.68,113.39 c 0,0 -14.276,-53.15 -14.276,-159.45 0,-124.02 63.001,-202.89 85.654,-230.32 5.898,27.422 -57.102,124.02 -57.102,230.32 0,77.444 21.157,194.88 21.157,194.88 L 832.68,113.387 Z"
         transform="matrix(-0.07714,0,0,0.06555,619.775,244.706)"
         id="path116"
         inkscape:connector-curvature="0"
         style="stroke:#000000;stroke-width:5.72399998" />
      <path
         d="m 779.53,255.12 c 159.57,-1.394 212.6,-35.433 212.6,-35.433 0,0 0,-70.866 -17.716,-88.583 -17.717,-17.716 -194.88,-17.716 -194.88,-17.716 v 141.73 z"
         transform="matrix(-0.06216,0,0,0.06555,606.196,255.16)"
         id="path118"
         inkscape:connector-curvature="0"
         style="stroke:#000000;stroke-width:6.37699986" />
      <path
         d="m 779.53,255.12 c 159.57,-1.394 194.88,-35.433 194.88,-35.433 0,0 0,-70.866 -17.716,-88.583 -17.717,-17.716 -177.16,-17.716 -177.16,-17.716 v 141.73 z"
         transform="matrix(-0.06216,0,0,0.06555,606.196,249.353)"
         id="path120"
         inkscape:connector-curvature="0"
         style="stroke:#000000;stroke-width:6.37699986" />
      <path
         d="m 318.9,1318.1 c 55.065,-122.32 70.866,-336.61 70.866,-372.05 0,-99.782 -32.948,-585.11 -35.433,-779.53 -2.485,-194.42 124.02,-301.18 248.03,-301.18 106.3,0 177.17,70.866 177.17,177.17 h -53.15 c 0,-70.866 -53.15,-124.02 -124.02,-124.02 -106.3,0 -187.99,83.739 -194.88,248.03 -7.605,189.89 21.316,682.94 17.717,814.96 -3.599,132.02 -51.234,249.72 -106.3,336.61 z"
         transform="matrix(0.06216,0,0,0.06555,509.29,249.353)"
         id="path122"
         inkscape:connector-curvature="0"
         style="stroke:#fdc301;stroke-width:16.07099915" />
      <path
         d="m 779.53,32.884 c 124.13,0.141 177.77,102.39 177.46,100.31 l -35.734,33.347 c -18.985,17.717 -141.73,17.717 -140.21,17.626 l -1.52,-151.29 z"
         transform="matrix(-0.06216,0,0,0.06555,606.196,249.353)"
         id="path124"
         inkscape:connector-curvature="0"
         style="stroke:#000000;stroke-width:6.37699986" />
    </g>
  </g>
</svg>
