<?xml version="1.0" encoding="UTF-8" standalone="no"?>
<svg
   xmlns:dc="http://purl.org/dc/elements/1.1/"
   xmlns:cc="http://creativecommons.org/ns#"
   xmlns:rdf="http://www.w3.org/1999/02/22-rdf-syntax-ns#"
   xmlns:svg="http://www.w3.org/2000/svg"
   xmlns="http://www.w3.org/2000/svg"
   xmlns:xlink="http://www.w3.org/1999/xlink"
   xmlns:sodipodi="http://sodipodi.sourceforge.net/DTD/sodipodi-0.dtd"
   xmlns:inkscape="http://www.inkscape.org/namespaces/inkscape"
   height="16"
   width="21.333332"
   version="1.1"
   id="svg34"
   sodipodi:docname="tj.svg"
   inkscape:version="0.92.1 r">
  <metadata
     id="metadata40">
    <rdf:RDF>
      <cc:Work
         rdf:about="">
        <dc:format>image/svg+xml</dc:format>
        <dc:type
           rdf:resource="http://purl.org/dc/dcmitype/StillImage" />
        <dc:title></dc:title>
      </cc:Work>
    </rdf:RDF>
  </metadata>
  <defs
     id="defs38" />
  <sodipodi:namedview
     pagecolor="#ffffff"
     bordercolor="#666666"
     borderopacity="1"
     objecttolerance="10"
     gridtolerance="10"
     guidetolerance="10"
     inkscape:pageopacity="0"
     inkscape:pageshadow="2"
     inkscape:window-width="1920"
     inkscape:window-height="1024"
     id="namedview36"
     showgrid="false"
     fit-margin-top="0"
     fit-margin-left="0"
     fit-margin-right="0"
     fit-margin-bottom="0"
     inkscape:zoom="0.49166667"
     inkscape:cx="320"
     inkscape:cy="240"
     inkscape:window-x="0"
     inkscape:window-y="0"
     inkscape:window-maximized="1"
     inkscape:current-layer="svg34" />
  <path
     d="M 0,0 H 21.333333 V 16 H 0 Z"
     id="path2"
     inkscape:connector-curvature="0"
     style="fill:#006600;stroke-width:0.03333334" />
  <path
     d="M 0,0 H 21.333333 V 11.42857 H 0 Z"
     id="path4"
     inkscape:connector-curvature="0"
     style="fill:#ffffff;stroke-width:0.03333334" />
  <path
     d="M 0,0 H 21.333333 V 4.57143 H 0 Z"
     id="path6"
     inkscape:connector-curvature="0"
     style="fill:#cc0000;stroke-width:0.03333334" />
  <path
     d="M 10.026667,7.78743 A 0.2857,0.2857 0 0 1 10.559233,7.9223 V 9.06513 H 10.7741 v -1.1428 a 0.2857,0.2857 0 0 1 0.532567,-0.13486 0.6743,0.6743 0 1 0 -1.28,0"
     id="path8"
     inkscape:connector-curvature="0"
     style="fill:#f8c300;stroke-width:0.03333334" />
  <path
     d="m 10.1798,7.48913 a 0.45713333,0.45713333 0 0 1 0.486867,0.2183 0.45713333,0.45713333 0 0 1 0.486866,-0.2183 0.49143333,0.49143333 0 0 0 -0.973733,0"
     id="path10"
     inkscape:connector-curvature="0"
     style="fill:#ffffff;stroke-width:0.03333334" />
  <path
     d="M 10.559233,8.60863 A 0.86856667,0.86856667 0 0 1 9.0999,9.1644 0.90286667,0.90286667 0 0 1 7.7345667,9.56367 c 0.083433,0.8326 1.3314666,0.6626 1.4244666,-0.14697 0.3921,0.68833 1.2542337,0.4912 1.5064997,-0.352 z"
     id="a"
     inkscape:connector-curvature="0"
     style="fill:#f8c300;stroke-width:0.03333334" />
  <use
     transform="matrix(-1,0,0,1,21.333333,0)"
     xlink:href="#a"
     width="100%"
     height="100%"
     id="use13"
     style="fill:#f8c300"
     x="0"
     y="0" />
  <path
     d="m 9.7258667,10.0871 c -0.1741334,0.3759 -0.5221667,0.44047 -0.8266,0.137 0,0 0.1223666,-0.0864 0.2534,-0.1103 -0.024567,-0.10453 0.0258,-0.24917 0.0968,-0.3274 0.074467,0.0509 0.1783666,0.1529 0.2048,0.2714 0.1835,-0.0237 0.2716,0.0293 0.2716,0.0293 z"
     id="b"
     inkscape:connector-curvature="0"
     style="fill:#f8c300;stroke-width:0.03333334" />
  <use
     transform="rotate(9.37,10.666661,18.37713)"
     xlink:href="#b"
     width="100%"
     height="100%"
     id="use16"
     style="fill:#f8c300"
     x="0"
     y="0" />
  <use
     transform="rotate(18.74,10.666668,18.37713)"
     xlink:href="#b"
     width="100%"
     height="100%"
     id="use18"
     style="fill:#f8c300"
     x="0"
     y="0" />
  <path
     d="m 8.4495333,10.9257 a 7.7714333,7.7714333 0 0 1 4.4342667,0"
     id="path20"
     inkscape:connector-curvature="0"
     style="fill:none;stroke:#f8c300;stroke-width:0.36569998" />
  <g
     transform="matrix(0.022857,0,0,0.022857,10.666667,5.4857)"
     id="g23"
     style="fill:#f8c300">
    <path
       id="c"
       transform="matrix(5e-5,0,0,5e-5,0,0)"
       d="M 301930,415571 -488533,-158734 H 488533 L -301930,415571 0,-513674 Z"
       inkscape:connector-curvature="0" />
  </g>
  <g
     id="d"
     transform="matrix(0.022857,0,0,0.022857,10.666667,8.6857)"
     style="fill:#f8c300">
    <use
       height="100%"
       width="100%"
       xlink:href="#c"
       transform="translate(-70,-121.244)"
       id="use25"
       x="0"
       y="0" />
    <use
       height="100%"
       width="100%"
       xlink:href="#c"
       transform="translate(-121.244,-70)"
       id="use27"
       x="0"
       y="0" />
    <use
       height="100%"
       width="100%"
       xlink:href="#c"
       transform="translate(-140)"
       id="use29"
       x="0"
       y="0" />
  </g>
  <use
     height="100%"
     width="100%"
     xlink:href="#d"
     transform="matrix(-1,0,0,1,21.333333,0)"
     id="use32"
     style="fill:#f8c300"
     x="0"
     y="0" />
</svg>
