<?xml version="1.0" encoding="UTF-8" standalone="no"?>
<svg
   xmlns:dc="http://purl.org/dc/elements/1.1/"
   xmlns:cc="http://creativecommons.org/ns#"
   xmlns:rdf="http://www.w3.org/1999/02/22-rdf-syntax-ns#"
   xmlns:svg="http://www.w3.org/2000/svg"
   xmlns="http://www.w3.org/2000/svg"
   xmlns:sodipodi="http://sodipodi.sourceforge.net/DTD/sodipodi-0.dtd"
   xmlns:inkscape="http://www.inkscape.org/namespaces/inkscape"
   height="16"
   width="21.333332"
   viewBox="0 0 21.333332 16"
   version="1.1"
   id="svg8"
   sodipodi:docname="tk.svg"
   inkscape:version="0.92.1 r">
  <metadata
     id="metadata14">
    <rdf:RDF>
      <cc:Work
         rdf:about="">
        <dc:format>image/svg+xml</dc:format>
        <dc:type
           rdf:resource="http://purl.org/dc/dcmitype/StillImage" />
        <dc:title></dc:title>
      </cc:Work>
    </rdf:RDF>
  </metadata>
  <defs
     id="defs12" />
  <sodipodi:namedview
     pagecolor="#ffffff"
     bordercolor="#666666"
     borderopacity="1"
     objecttolerance="10"
     gridtolerance="10"
     guidetolerance="10"
     inkscape:pageopacity="0"
     inkscape:pageshadow="2"
     inkscape:window-width="1920"
     inkscape:window-height="1024"
     id="namedview10"
     showgrid="false"
     fit-margin-top="0"
     fit-margin-left="0"
     fit-margin-right="0"
     fit-margin-bottom="0"
     inkscape:zoom="0.49166667"
     inkscape:cx="320"
     inkscape:cy="240"
     inkscape:window-x="0"
     inkscape:window-y="0"
     inkscape:window-maximized="1"
     inkscape:current-layer="svg8" />
  <path
     d="M 0,0 H 21.333333 V 16 H 0 Z"
     id="path2"
     inkscape:connector-curvature="0"
     style="fill:#00247d;stroke-width:0.03333334" />
  <path
     d="m 3.6033333,11.82 c -0.2233333,-0.003 2.0933334,-1.23333 4.03,-2.81333 2.5399997,-2.07 8.0099997,-5.38 9.6199997,-5.92 0.166667,-0.0567 -0.343333,0.28666 -0.41,0.39666 -1.716666,2.03334 -0.346666,5.86667 1.8,7.79667 0.646667,0.49333 0.613334,0.52 1.81,0.56667 V 11.96 Z m -0.14,0.22333 C 3.4633333,12.04333 3.3,12.16 3.3,12.24667 3.3,12.34337 3.4833333,12.47 3.4833333,12.47 L 20.1,12.65333 20.406667,12.45 19.98,12.18667 Z"
     id="path4"
     inkscape:connector-curvature="0"
     style="fill:#fed100;stroke-width:0.03333334" />
  <path
     d="m 3.56,3.63667 -0.1333333,0.40666 0.3466666,-0.25 0.3433334,0.25 -0.13,-0.40666 L 4.33,3.38667 H 3.9033333 L 3.7733333,2.98 3.64,3.38667 H 3.2133333 Z M 6.1633333,5.55 6.45,5.34 H 6.0933333 l -0.11,-0.33667 -0.11,0.33667 H 5.52 l 0.2866667,0.21 -0.11,0.33667 0.2866666,-0.21 0.29,0.21 z m -4.84,0.43333 L 1.19,5.57667 1.06,5.98333 H 0.63333333 l 0.34333334,0.25 -0.13,0.40667 L 1.19,6.39 1.5366667,6.64 1.4033333,6.23333 1.75,5.98333 Z M 3.9266667,10.06 3.7733333,9.58667 3.62,10.06 H 3.12 L 3.5233333,10.35 3.37,10.82667 3.7733333,10.53333 4.1766667,10.82667 4.02,10.35 4.4233333,10.06 Z"
     id="path6"
     inkscape:connector-curvature="0"
     style="fill:#ffffff;stroke-width:0.03333334" />
</svg>
