<?xml version="1.0" encoding="UTF-8" standalone="no"?>
<svg
   xmlns:dc="http://purl.org/dc/elements/1.1/"
   xmlns:cc="http://creativecommons.org/ns#"
   xmlns:rdf="http://www.w3.org/1999/02/22-rdf-syntax-ns#"
   xmlns:svg="http://www.w3.org/2000/svg"
   xmlns="http://www.w3.org/2000/svg"
   xmlns:sodipodi="http://sodipodi.sourceforge.net/DTD/sodipodi-0.dtd"
   xmlns:inkscape="http://www.inkscape.org/namespaces/inkscape"
   height="16"
   width="21.333437"
   viewBox="0 0 21.333437 16"
   version="1.1"
   id="svg399"
   sodipodi:docname="tm.svg"
   inkscape:version="0.92.1 r">
  <metadata
     id="metadata403">
    <rdf:RDF>
      <cc:Work
         rdf:about="">
        <dc:format>image/svg+xml</dc:format>
        <dc:type
           rdf:resource="http://purl.org/dc/dcmitype/StillImage" />
        <dc:title></dc:title>
      </cc:Work>
    </rdf:RDF>
  </metadata>
  <sodipodi:namedview
     pagecolor="#ffffff"
     bordercolor="#666666"
     borderopacity="1"
     objecttolerance="10"
     gridtolerance="10"
     guidetolerance="10"
     inkscape:pageopacity="0"
     inkscape:pageshadow="2"
     inkscape:window-width="1920"
     inkscape:window-height="1024"
     id="namedview401"
     showgrid="false"
     fit-margin-top="0"
     fit-margin-left="0"
     fit-margin-right="0"
     fit-margin-bottom="0"
     inkscape:zoom="0.49166667"
     inkscape:cx="320.00063"
     inkscape:cy="240"
     inkscape:window-x="0"
     inkscape:window-y="0"
     inkscape:window-maximized="1"
     inkscape:current-layer="svg399" />
  <defs
     id="defs5">
    <clipPath
       id="a">
      <path
         d="m 42.666,0 h 682.67 V 512 H 42.666 Z"
         id="path2"
         inkscape:connector-curvature="0"
         style="fill-opacity:0.67000002" />
    </clipPath>
  </defs>
  <g
     clip-path="url(#a)"
     transform="matrix(0.03125,0,0,0.03125,-1.3333125,0)"
     id="g397"
     style="fill-rule:evenodd">
    <path
       d="M 0,0 H 768 V 512 H 0 Z"
       id="path7"
       inkscape:connector-curvature="0"
       style="fill:#28ae66" />
    <g
       id="g13"
       style="stroke-width:1.00000003pt">
      <path
         d="m 263.306,137.494 c 27.9,13.453 61.12,-0.064 73.139,-18.637 12.323,-17.332 13.836,-46.437 -7.468,-73.14 33.07,27.425 40.379,58.513 23.927,84.113 -21.944,29.254 -70.627,28.407 -89.598,7.664 z"
         id="path9"
         inkscape:connector-curvature="0"
         style="fill:#ffffff" />
      <path
         d="m 312.835,69.431 5.614,0.072 -4.443,3.528 1.666,5.52 -4.633,-3.263 -4.587,3.339 1.583,-5.543 -4.499,-3.453 5.61,-0.167 1.8,-5.473 z m -27.712,34.742 5.615,0.071 -4.444,3.529 1.666,5.519 -4.633,-3.262 -4.587,3.338 1.583,-5.543 -4.499,-3.452 5.61,-0.167 1.8,-5.474 z m 1.827,-27.42 5.614,0.071 -4.443,3.529 1.666,5.52 -4.633,-3.263 -4.587,3.338 1.583,-5.543 -4.499,-3.452 5.61,-0.167 1.8,-5.474 z m 0,-27.436 5.614,0.072 -4.443,3.528 1.666,5.52 -4.633,-3.263 -4.587,3.339 1.583,-5.543 -4.499,-3.453 5.61,-0.166 1.8,-5.474 z m -30.798,34.749 5.615,0.072 -4.444,3.528 1.666,5.52 -4.633,-3.262 -4.587,3.338 1.583,-5.543 -4.499,-3.453 5.61,-0.166 1.8,-5.474 z"
         id="path11"
         inkscape:connector-curvature="0"
         style="fill:#ffffff" />
    </g>
    <path
       d="M 47.542,0 H 212.11 V 511.984 H 47.542 Z"
       id="path15"
       inkscape:connector-curvature="0"
       style="fill:#ca3745" />
    <g
       id="g21"
       style="fill:#faae29;stroke-width:1.00000003pt">
      <path
         d="m 47.542,133.481 v -3.657 l 6.803,-9.143 -1.371,-1.828 4.114,-5.486 -1.371,-1.828 -2.743,3.657 -1.372,-1.829 9.6,-12.8 1.371,1.83 -1.37,1.828 2.826,3.694 6.773,-9.18 -6.887,-8.896 -2.713,3.41 1.371,1.83 -1.37,1.828 -9.6,-12.8 1.37,-1.828 2.744,3.657 1.37,-1.829 -4.113,-5.486 1.371,-1.828 -6.803,-9.142 v -3.658 l 9.546,12.8 -1.371,1.828 4.114,5.486 -2.743,3.657 2.743,3.657 4.114,-5.485 9.654,13.017 -9.654,12.582 -4.114,-5.486 -2.743,3.658 2.743,3.656 -4.114,5.486 1.37,1.828 z"
         id="path17"
         inkscape:connector-curvature="0" />
      <path
         d="m 47.541,87.77 1.372,3.656 v 5.486 h 4.114 l 2.743,1.828 -2.743,1.829 h -4.114 v 5.485 l -1.372,3.658 V 87.769 Z"
         id="path19"
         inkscape:connector-curvature="0" />
    </g>
    <g
       id="g27"
       style="fill:#faae29;stroke-width:1.00000003pt">
      <path
         d="m 47.542,221.25 v -3.657 l 6.803,-9.143 -1.371,-1.828 4.114,-5.486 -1.371,-1.828 -2.743,3.657 -1.372,-1.829 9.6,-12.8 1.371,1.829 -1.37,1.829 2.826,3.694 6.773,-9.18 -6.887,-8.896 -2.713,3.41 1.371,1.829 -1.37,1.828 -9.6,-12.8 1.37,-1.828 2.744,3.658 1.37,-1.83 -4.113,-5.485 1.371,-1.828 -6.803,-9.143 v -3.657 l 9.546,12.8 -1.371,1.828 4.114,5.486 -2.743,3.657 2.743,3.657 4.114,-5.485 9.654,13.017 -9.654,12.582 -4.114,-5.486 -2.743,3.657 2.743,3.657 -4.114,5.486 1.37,1.828 z"
         id="path23"
         inkscape:connector-curvature="0" />
      <path
         d="m 47.541,175.538 1.372,3.657 v 5.485 h 4.114 l 2.743,1.83 -2.743,1.828 h -4.114 v 5.485 l -1.372,3.657 z"
         id="path25"
         inkscape:connector-curvature="0" />
    </g>
    <g
       id="g33"
       style="fill:#faae29;stroke-width:1.00000003pt">
      <path
         d="m 47.543,309.02 v -3.657 l 6.803,-9.143 -1.371,-1.828 4.114,-5.486 -1.371,-1.828 -2.743,3.656 -1.372,-1.828 9.6,-12.8 1.371,1.829 -1.37,1.829 2.826,3.694 6.773,-9.18 -6.887,-8.897 -2.713,3.411 1.371,1.829 -1.37,1.828 -9.6,-12.8 1.37,-1.828 2.744,3.657 1.37,-1.828 -4.113,-5.486 1.371,-1.828 -6.803,-9.143 v -3.657 l 9.546,12.8 -1.371,1.828 4.114,5.486 -2.743,3.657 2.743,3.657 4.114,-5.486 9.654,13.018 -9.654,12.582 -4.114,-5.486 -2.743,3.657 2.743,3.657 -4.114,5.486 1.37,1.828 z"
         id="path29"
         inkscape:connector-curvature="0" />
      <path
         d="m 47.542,263.308 1.372,3.657 v 5.485 h 4.114 l 2.743,1.829 -2.743,1.828 h -4.114 v 5.486 l -1.372,3.657 z"
         id="path31"
         inkscape:connector-curvature="0" />
    </g>
    <g
       id="g39"
       style="fill:#faae29;stroke-width:1.00000003pt">
      <path
         d="m 47.543,391.3 v -3.657 l 6.803,-9.143 -1.371,-1.828 4.114,-5.486 -1.371,-1.828 -2.743,3.656 -1.372,-1.828 9.6,-12.8 1.371,1.829 -1.37,1.829 2.826,3.694 6.773,-9.18 -6.887,-8.897 -2.713,3.411 1.371,1.829 -1.37,1.828 -9.6,-12.8 1.37,-1.828 2.744,3.657 1.37,-1.828 -4.113,-5.486 1.371,-1.828 -6.803,-9.143 v -3.657 l 9.546,12.8 -1.371,1.828 4.114,5.486 -2.743,3.657 2.743,3.657 4.114,-5.486 9.654,13.018 -9.654,12.582 -4.114,-5.486 -2.743,3.657 2.743,3.657 -4.114,5.486 1.37,1.828 z"
         id="path35"
         inkscape:connector-curvature="0" />
      <path
         d="m 47.542,345.588 1.372,3.657 v 5.485 h 4.114 l 2.743,1.83 -2.743,1.827 h -4.114 v 5.486 l -1.372,3.657 z"
         id="path37"
         inkscape:connector-curvature="0" />
    </g>
    <g
       id="g45"
       style="fill:#faae29;stroke-width:1.00000003pt">
      <path
         d="m 212.106,133.481 v -3.657 l -6.803,-9.143 1.372,-1.828 -4.114,-5.486 1.37,-1.828 2.744,3.657 1.371,-1.829 -9.6,-12.8 -1.37,1.83 1.37,1.828 -2.827,3.694 -6.772,-9.18 6.886,-8.896 2.713,3.41 -1.37,1.83 1.37,1.828 9.6,-12.8 -1.371,-1.828 -2.743,3.657 -1.371,-1.829 4.114,-5.486 -1.372,-1.828 6.803,-9.142 v -3.658 l -9.545,12.8 1.37,1.828 -4.113,5.486 2.743,3.657 -2.743,3.657 -4.115,-5.485 -9.653,13.017 9.653,12.582 4.115,-5.486 2.743,3.658 -2.743,3.656 4.114,5.486 -1.371,1.828 z"
         id="path41"
         inkscape:connector-curvature="0" />
      <path
         d="m 212.107,87.77 -1.371,3.656 v 5.486 h -4.114 l -2.743,1.828 2.743,1.829 h 4.114 v 5.485 l 1.371,3.658 V 87.769 Z"
         id="path43"
         inkscape:connector-curvature="0" />
    </g>
    <g
       id="g51"
       style="fill:#faae29;stroke-width:1.00000003pt">
      <path
         d="m 212.56,221.25 v -3.656 l -6.803,-9.143 1.372,-1.828 -4.114,-5.486 1.371,-1.828 2.743,3.657 1.371,-1.829 -9.6,-12.8 -1.37,1.829 1.37,1.829 -2.826,3.694 -6.773,-9.18 6.886,-8.896 2.714,3.41 -1.372,1.829 1.372,1.828 9.6,-12.8 -1.372,-1.828 -2.743,3.658 -1.371,-1.83 4.114,-5.485 -1.372,-1.828 6.803,-9.143 v -3.657 l -9.545,12.8 1.371,1.828 -4.114,5.486 2.743,3.657 -2.743,3.657 -4.114,-5.485 -9.654,13.017 9.654,12.582 4.114,-5.486 2.743,3.657 -2.743,3.657 4.114,5.486 -1.371,1.828 9.545,12.8 z"
         id="path47"
         inkscape:connector-curvature="0" />
      <path
         d="m 212.561,175.54 -1.371,3.656 v 5.485 h -4.114 l -2.743,1.83 2.743,1.828 h 4.114 v 5.485 l 1.371,3.658 v -21.943 z"
         id="path49"
         inkscape:connector-curvature="0" />
    </g>
    <g
       id="g57"
       style="fill:#faae29;stroke-width:1.00000003pt">
      <path
         d="m 212.106,309.02 v -3.657 l -6.803,-9.143 1.372,-1.828 -4.114,-5.486 1.37,-1.828 2.744,3.656 1.371,-1.828 -9.6,-12.8 -1.37,1.829 1.37,1.829 -2.827,3.694 -6.772,-9.18 6.886,-8.897 2.713,3.411 -1.37,1.829 1.37,1.828 9.6,-12.8 -1.371,-1.828 -2.743,3.657 -1.371,-1.828 4.114,-5.486 -1.372,-1.828 6.803,-9.143 v -3.657 l -9.545,12.8 1.37,1.828 -4.113,5.486 2.743,3.657 -2.743,3.657 -4.115,-5.486 -9.653,13.018 9.653,12.582 4.115,-5.486 2.743,3.657 -2.743,3.657 4.114,5.486 -1.371,1.828 z"
         id="path53"
         inkscape:connector-curvature="0" />
      <path
         d="m 212.107,263.308 -1.371,3.657 v 5.485 h -4.114 l -2.743,1.829 2.743,1.828 h 4.114 v 5.486 l 1.371,3.657 z"
         id="path55"
         inkscape:connector-curvature="0" />
    </g>
    <g
       id="g63"
       style="fill:#faae29;stroke-width:1.00000003pt">
      <path
         d="m 212.106,391.3 v -3.657 l -6.803,-9.143 1.372,-1.828 -4.114,-5.486 1.37,-1.828 2.744,3.656 1.371,-1.828 -9.6,-12.8 -1.37,1.829 1.37,1.829 -2.827,3.694 -6.772,-9.18 6.886,-8.897 2.713,3.411 -1.37,1.829 1.37,1.828 9.6,-12.8 -1.371,-1.828 -2.743,3.657 -1.371,-1.828 4.114,-5.486 -1.372,-1.828 6.803,-9.143 v -3.657 l -9.545,12.8 1.37,1.828 -4.113,5.486 2.743,3.657 -2.743,3.657 -4.115,-5.486 -9.653,13.018 9.653,12.582 4.115,-5.486 2.743,3.657 -2.743,3.657 4.114,5.486 -1.371,1.828 z"
         id="path59"
         inkscape:connector-curvature="0" />
      <path
         d="m 212.107,345.588 -1.371,3.657 v 5.485 h -4.114 l -2.743,1.83 2.743,1.827 h 4.114 v 5.486 l 1.371,3.657 z"
         id="path61"
         inkscape:connector-curvature="0" />
    </g>
    <g
       id="g67"
       style="fill:#faae29;stroke-width:1.00000003pt">
      <path
         d="m 47.545,34.74 v -3.656 l 6.803,-9.143 -1.371,-1.828 4.114,-5.486 -1.371,-1.827 -2.743,3.657 -1.371,-1.829 9.6,-12.8 1.37,1.829 -1.37,1.829 L 64.032,9.18 70.805,0 h 2.797 l -9.654,12.8 -4.114,-5.486 -2.743,3.657 2.743,3.657 -4.114,5.486 1.371,1.828 -9.546,12.8 z m 0,-34.74 h 8.229 L 53.03,1.83 h -4.114 v 5.485 l -1.372,3.657 V 0.001 Z"
         id="path65"
         inkscape:connector-curvature="0" />
    </g>
    <g
       id="g71"
       style="fill:#faae29;stroke-width:1.00000003pt">
      <path
         d="m 212.103,34.74 v -3.656 l -6.803,-9.143 1.372,-1.828 -4.115,-5.486 1.372,-1.828 2.743,3.657 1.371,-1.829 -9.6,-12.8 -1.371,1.829 1.371,1.829 -2.827,3.694 L 188.844,0 h -2.798 l 9.654,12.8 4.115,-5.486 2.742,3.657 -2.742,3.657 4.114,5.486 -1.372,1.828 9.546,12.8 z m 0,-34.74 h -8.228 l 2.742,1.829 h 4.114 v 5.485 l 1.372,3.657 V 0.001 Z"
         id="path69"
         inkscape:connector-curvature="0" />
    </g>
    <path
       d="m 116.122,504.693 c 0,0 5.904,-10.366 20.782,-13.507 14.879,-3.142 17.477,6.91 25.978,6.91 8.502,0 21.964,-6.91 21.964,-6.91 0,0 -13.462,13.193 -23.853,12.879 -10.391,-0.314 -13.934,-6.91 -24.561,-5.968 -10.628,0.942 -20.31,6.91 -20.31,6.596 z"
       id="path73"
       inkscape:connector-curvature="0"
       style="fill:#faae29" />
    <path
       d="m 144.845,504.693 c 0,0 -5.904,-10.366 -20.783,-13.507 -14.878,-3.142 -17.476,6.91 -25.978,6.91 -8.502,0 -21.963,-6.91 -21.963,-6.91 0,0 13.461,13.193 23.852,12.879 10.392,-0.314 13.934,-6.91 24.561,-5.968 10.628,0.942 20.31,6.91 20.31,6.596 z"
       id="path75"
       inkscape:connector-curvature="0"
       style="fill:#faae29" />
    <g
       id="g89"
       style="fill:#faae29;stroke-width:1.00000003pt">
      <path
         d="m 96.193,487.544 c -1.31,-2.743 -4.585,-14.71 -2.839,-16.206 2.62,-0.996 9.607,11.22 8.952,22.19 -4.585,2.493 -20.086,-0.998 -19.868,-4.24 1.092,-4.487 9.825,-2.99 13.755,-1.744 z"
         id="path77"
         inkscape:connector-curvature="0" />
      <path
         d="m 86.824,477.085 c -0.857,-3.044 -2.208,-15.654 -0.268,-16.638 2.718,-0.254 7.663,13.622 5.324,24.176 -4.872,1.177 -19.5,-6.505 -18.784,-9.616 1.763,-4.09 10.076,-0.223 13.728,2.078 z"
         id="path79"
         inkscape:connector-curvature="0" />
      <path
         d="m 79.212,465.383 c -0.58,-3.158 -0.8,-15.893 1.214,-16.562 2.722,0.178 6.397,14.738 3.135,24.847 -4.943,0.398 -18.782,-9.544 -17.796,-12.52 2.115,-3.783 10.026,1.373 13.447,4.235 z"
         id="path81"
         inkscape:connector-curvature="0" />
      <path
         d="m 73.21,452.922 c -0.206,-3.24 1.057,-15.867 3.125,-16.112 2.668,0.738 4.605,15.882 0.208,25.195 -4.929,-0.628 -17.446,-13.31 -16.125,-16.047 2.529,-3.3 9.744,3.429 12.792,6.964 z"
         id="path83"
         inkscape:connector-curvature="0" />
      <path
         d="m 69.036,439.868 c 0.145,-3.246 2.755,-15.5 4.827,-15.346 2.561,1.241 2.848,16.6 -2.507,24.973 -4.81,-1.565 -15.832,-16.513 -14.23,-18.968 2.858,-2.781 9.274,5.259 11.91,9.341 z"
         id="path85"
         inkscape:connector-curvature="0" />
      <path
         d="m 70.2,425.014 c -0.354,12.998 -2.716,13.15 -7.029,3.543 -1.908,-3.63 -2.144,-18.704 -0.424,-19.266 2.486,-0.051 7.386,10.699 7.454,15.723 z"
         id="path87"
         inkscape:connector-curvature="0" />
    </g>
    <g
       id="g103"
       style="fill:#faae29;stroke-width:1.00000003pt">
      <path
         d="m 164.034,488.912 c 1.31,-2.742 4.585,-14.71 2.838,-16.205 -2.62,-0.997 -9.606,11.22 -8.952,22.19 4.585,2.492 20.086,-0.998 19.869,-4.24 -1.092,-4.487 -9.825,-2.991 -13.755,-1.745 z"
         id="path91"
         inkscape:connector-curvature="0" />
      <path
         d="m 173.402,478.453 c 0.857,-3.044 2.209,-15.654 0.269,-16.637 -2.719,-0.254 -7.663,13.622 -5.324,24.175 4.872,1.177 19.499,-6.504 18.784,-9.616 -1.763,-4.09 -10.077,-0.223 -13.729,2.078 z"
         id="path93"
         inkscape:connector-curvature="0" />
      <path
         d="m 181.014,466.752 c 0.58,-3.158 0.8,-15.893 -1.214,-16.562 -2.722,0.177 -6.396,14.737 -3.135,24.846 4.943,0.398 18.783,-9.543 17.796,-12.52 -2.115,-3.782 -10.025,1.373 -13.447,4.236 z"
         id="path95"
         inkscape:connector-curvature="0" />
      <path
         d="m 187.016,454.29 c 0.207,-3.24 -1.057,-15.866 -3.124,-16.111 -2.668,0.738 -4.606,15.882 -0.209,25.194 4.93,-0.628 17.446,-13.31 16.125,-16.046 -2.528,-3.3 -9.744,3.428 -12.792,6.963 z"
         id="path97"
         inkscape:connector-curvature="0" />
      <path
         d="m 191.19,441.236 c -0.144,-3.245 -2.754,-15.499 -4.827,-15.345 -2.56,1.24 -2.847,16.599 2.508,24.973 4.81,-1.566 15.831,-16.513 14.229,-18.968 -2.858,-2.782 -9.274,5.258 -11.91,9.34 z"
         id="path99"
         inkscape:connector-curvature="0" />
      <path
         d="m 190.026,426.383 c 0.354,12.998 2.717,13.15 7.029,3.542 1.909,-3.63 2.144,-18.703 0.424,-19.265 -2.485,-0.052 -7.385,10.698 -7.453,15.723 z"
         id="path101"
         inkscape:connector-curvature="0" />
    </g>
    <g
       transform="matrix(0.99985,0,0,1.26515,188.276,-77.035)"
       id="g183">
      <path
         d="m -3.543,290.55 h -5.315 v 3.543 h -5.315 v 3.543 h -21.26 l -3.543,3.544 1.771,1.771 h 8.858 l 1.772,-1.771 h -8.858 l 1.772,-1.772 h 12.402 l -5.315,5.315 h -12.402 l -3.544,-1.772 -3.543,1.771 -12.402,0.001 -5.315,-5.317 12.402,0.002 1.771,1.772 -8.858,-0.002 1.772,1.773 h 8.858 l 1.772,-1.771 -3.544,-3.544 h -19.488 v -3.543 h -5.315 v -3.543 h -5.315 v -15.945 h 5.315 v -3.543 h 5.315 v -3.543 h 19.488 l 3.544,-3.544 -1.772,-1.771 h -8.858 l -1.772,1.773 8.858,-0.002 -1.771,1.772 -12.402,0.002 5.315,-5.317 12.402,10e-4 3.543,1.771 3.544,-1.772 h 12.402 l 5.315,5.315 h -12.402 l -1.772,-1.772 h 8.858 l -1.772,-1.771 h -8.858 l -1.771,1.771 3.543,3.544 h 21.26 v 3.543 h 5.315 v 3.543 h 5.315 z"
         transform="matrix(1.4884,0,0,1.24,3.502,-39.474)"
         id="path105"
         inkscape:connector-curvature="0"
         style="fill:#ca3745;stroke:#000000;stroke-width:0.133" />
      <path
         d="m 375.59,499.67 v 24.803 h 10.629 v 7.019 h 10.63 v 7.087 h 35.433 l 14.174,10.63 14.173,-10.63 h 38.976 v -7.019 l 10.63,-0.068 v -7.087 h 10.63 v -24.803 h -10.63 v -7.086 l -10.63,0.068 v -7.155 h -38.976 l -14.173,-10.63 -14.174,10.63 h -35.433 v 7.155 h -10.63 v 7.086 z"
         transform="matrix(0.74419,0,0,0.62,-392.03,-6.521)"
         id="path107"
         inkscape:connector-curvature="0"
         style="fill:#28ae66;stroke:#faae29;stroke-width:1.42200005" />
      <path
         d="m -75.6,296.644 -15.822,10.984 v -10.984 z m 31.63,0 15.822,10.985 v -10.985 z m -31.63,28.564 -15.822,-10.984 v 10.984 z m 31.635,0 15.82,-10.985 v 10.985 z m 5.276,-21.975 -5.273,4.394 h 10.547 z m -42.188,0 -5.273,4.394 h 10.547 z m 0,15.389 -5.273,-4.394 h 10.547 z m 42.19,0 -5.273,-4.394 h 10.547 z"
         id="path109"
         inkscape:connector-curvature="0"
         style="fill:#ca3745" />
      <path
         d="m -59.787,329.602 -5.273,-4.394 h 10.547 z m 0,-21.97 -5.273,-4.394 h 10.547 z m 0,-15.383 -5.273,4.394 h 10.547 z m 0,21.968 -5.273,4.394 h 10.547 z"
         id="path111"
         inkscape:connector-curvature="0"
         style="fill:#faae29" />
      <path
         transform="matrix(0.74419,0,0,0.62,-392.03,-6.521)"
         d="m 467.72,506.69 h 14.173 v 3.543 H 467.72 Z"
         id="path113"
         inkscape:connector-curvature="0"
         style="fill:#faae29;stroke:#000000;stroke-width:0.133" />
      <path
         transform="matrix(0.74419,0,0,0.62,-392.03,-6.521)"
         d="m 414.57,510.24 h 7.087 v 3.543 h -7.087 z m 56.69,0 h 7.087 v 3.543 h -7.087 z"
         id="path115"
         inkscape:connector-curvature="0"
         style="fill:#cc0000;stroke:#000000;stroke-width:0.133" />
      <path
         transform="matrix(0.74419,0,0,0.62,-392.03,-6.521)"
         d="m 439.37,488.98 h 14.173 v 3.543 H 439.37 Z m 0,7.08 h 14.173 v 3.543 H 439.37 Z"
         id="path117"
         inkscape:connector-curvature="0"
         style="fill:#990000;stroke:#000000;stroke-width:0.133" />
      <path
         transform="matrix(0.74419,0,0,0.62,-392.03,-6.521)"
         d="m 435.83,492.52 h 21.26 v 3.543 h -21.26 z m 3.54,31.89 h 14.173 v 3.543 H 439.37 Z m 0,7.09 h 14.173 v 3.543 H 439.37 Z"
         id="path119"
         inkscape:connector-curvature="0"
         style="fill:#990000;stroke:#000000;stroke-width:0.133" />
      <path
         transform="matrix(0.74419,0,0,0.62,-392.03,-6.521)"
         d="m 435.83,527.95 h 21.26 v 3.543 h -21.26 z"
         id="path121"
         inkscape:connector-curvature="0"
         style="fill:#990000;stroke:#000000;stroke-width:0.133" />
      <path
         transform="matrix(0.74419,0,0,0.62,-392.03,-6.521)"
         d="m 467.72,513.78 h 14.173 v 3.543 H 467.72 Z m -56.7,-7.09 h 14.173 v 3.543 H 411.02 Z m 0,7.09 h 14.173 v 3.543 H 411.02 Z"
         id="path123"
         inkscape:connector-curvature="0"
         style="fill:#faae29;stroke:#000000;stroke-width:0.133" />
      <path
         transform="matrix(0.74419,0,0,0.62,-392.03,-6.521)"
         d="m 407.48,510.24 h 7.087 v 3.543 h -7.087 z m 14.17,0 h 7.087 v 3.543 h -7.087 z m 42.52,0 h 7.087 v 3.543 h -7.087 z m 14.18,0 h 7.087 v 3.543 h -7.087 z"
         id="path125"
         inkscape:connector-curvature="0"
         style="fill:#faae29;stroke:#000000;stroke-width:0.133" />
      <circle
         transform="matrix(0.74419,0,0,0.62,-374.14,-38.912)"
         cx="413.67999"
         cy="581.98999"
         id="ellipse127"
         r="0.88599998"
         style="fill:#ffffff" />
      <circle
         transform="matrix(0.74419,0,0,0.62,-367.57,-38.912)"
         cx="413.67999"
         cy="581.98999"
         id="ellipse129"
         r="0.88599998"
         style="fill:#ffffff" />
      <circle
         transform="matrix(0.74419,0,0,0.62,-361,-38.958)"
         cx="413.67999"
         cy="581.98999"
         id="ellipse131"
         r="0.88599998"
         style="fill:#ffffff" />
      <circle
         transform="matrix(0.74419,0,0,0.62,-371.51,-41.102)"
         cx="413.67999"
         cy="581.98999"
         id="ellipse133"
         r="0.88599998"
         style="fill:#ffffff" />
      <circle
         transform="matrix(0.74419,0,0,0.62,-363.68,-41.148)"
         cx="413.67999"
         cy="581.98999"
         id="ellipse135"
         r="0.88599998"
         style="fill:#ffffff" />
      <circle
         transform="matrix(0.74419,0,0,0.62,-371.57,-36.768)"
         cx="413.67999"
         cy="581.98999"
         id="ellipse137"
         r="0.88599998"
         style="fill:#ffffff" />
      <circle
         transform="matrix(0.74419,0,0,0.62,-363.68,-36.677)"
         cx="413.67999"
         cy="581.98999"
         id="ellipse139"
         r="0.88599998"
         style="fill:#ffffff" />
      <circle
         transform="matrix(0.74419,0,0,0.62,-353.17,-49.999)"
         cx="413.67999"
         cy="581.98999"
         id="ellipse141"
         r="0.88599998"
         style="fill:#ffffff" />
      <circle
         transform="matrix(0.74419,0,0,0.62,-346.59,-49.999)"
         cx="413.67999"
         cy="581.98999"
         id="ellipse143"
         r="0.88599998"
         style="fill:#ffffff" />
      <circle
         transform="matrix(0.74419,0,0,0.62,-340.02,-50.045)"
         cx="413.67999"
         cy="581.98999"
         id="ellipse145"
         r="0.88599998"
         style="fill:#ffffff" />
      <circle
         transform="matrix(0.74419,0,0,0.62,-350.54,-52.189)"
         cx="413.67999"
         cy="581.98999"
         id="ellipse147"
         r="0.88599998"
         style="fill:#ffffff" />
      <circle
         transform="matrix(0.74419,0,0,0.62,-342.71,-52.235)"
         cx="413.67999"
         cy="581.98999"
         id="ellipse149"
         r="0.88599998"
         style="fill:#ffffff" />
      <circle
         transform="matrix(0.74419,0,0,0.62,-350.59,-47.855)"
         cx="413.67999"
         cy="581.98999"
         id="ellipse151"
         r="0.88599998"
         style="fill:#ffffff" />
      <circle
         transform="matrix(0.74419,0,0,0.62,-342.71,-47.764)"
         cx="413.67999"
         cy="581.98999"
         id="ellipse153"
         r="0.88599998"
         style="fill:#ffffff" />
      <circle
         transform="matrix(0.74419,0,0,0.62,-374.2,-60.904)"
         cx="413.67999"
         cy="581.98999"
         id="ellipse155"
         r="0.88599998"
         style="fill:#ffffff" />
      <circle
         transform="matrix(0.74419,0,0,0.62,-367.62,-60.904)"
         cx="413.67999"
         cy="581.98999"
         id="ellipse157"
         r="0.88599998"
         style="fill:#ffffff" />
      <circle
         transform="matrix(0.74419,0,0,0.62,-361.05,-60.949)"
         cx="413.67999"
         cy="581.98999"
         id="ellipse159"
         r="0.88599998"
         style="fill:#ffffff" />
      <circle
         transform="matrix(0.74419,0,0,0.62,-371.57,-63.094)"
         cx="413.67999"
         cy="581.98999"
         id="ellipse161"
         r="0.88599998"
         style="fill:#ffffff" />
      <circle
         transform="matrix(0.74419,0,0,0.62,-363.74,-63.139)"
         cx="413.67999"
         cy="581.98999"
         id="ellipse163"
         r="0.88599998"
         style="fill:#ffffff" />
      <circle
         transform="matrix(0.74419,0,0,0.62,-371.62,-58.759)"
         cx="413.67999"
         cy="581.98999"
         id="ellipse165"
         r="0.88599998"
         style="fill:#ffffff" />
      <circle
         transform="matrix(0.74419,0,0,0.62,-363.74,-58.668)"
         cx="413.67999"
         cy="581.98999"
         id="ellipse167"
         r="0.88599998"
         style="fill:#ffffff" />
      <circle
         transform="matrix(0.74419,0,0,0.62,-395.28,-49.817)"
         cx="413.67999"
         cy="581.98999"
         id="ellipse169"
         r="0.88599998"
         style="fill:#ffffff" />
      <circle
         transform="matrix(0.74419,0,0,0.62,-388.71,-49.817)"
         cx="413.67999"
         cy="581.98999"
         id="ellipse171"
         r="0.88599998"
         style="fill:#ffffff" />
      <circle
         transform="matrix(0.74419,0,0,0.62,-382.14,-49.862)"
         cx="413.67999"
         cy="581.98999"
         id="ellipse173"
         r="0.88599998"
         style="fill:#ffffff" />
      <circle
         transform="matrix(0.74419,0,0,0.62,-392.65,-52.007)"
         cx="413.67999"
         cy="581.98999"
         id="ellipse175"
         r="0.88599998"
         style="fill:#ffffff" />
      <circle
         transform="matrix(0.74419,0,0,0.62,-384.82,-52.052)"
         cx="413.67999"
         cy="581.98999"
         id="ellipse177"
         r="0.88599998"
         style="fill:#ffffff" />
      <circle
         transform="matrix(0.74419,0,0,0.62,-392.71,-47.672)"
         cx="413.67999"
         cy="581.98999"
         id="ellipse179"
         r="0.88599998"
         style="fill:#ffffff" />
      <circle
         transform="matrix(0.74419,0,0,0.62,-384.82,-47.581)"
         cx="413.67999"
         cy="581.98999"
         id="ellipse181"
         r="0.88599998"
         style="fill:#ffffff" />
    </g>
    <path
       d="m 138.895,255.755 4.535,-2.125 4.535,2.125 z m -13.604,0 4.535,-2.125 4.534,2.125 z m -13.604,0 4.535,-2.125 4.534,2.125 h -9.07 z m 27.208,-48.87 4.535,2.125 4.535,-2.125 z m -13.604,0 4.535,2.125 4.534,-2.125 z m -13.604,0 4.535,2.125 4.534,-2.125 h -9.07 z"
       id="path185"
       inkscape:connector-curvature="0"
       style="fill:#ffffff" />
    <path
       d="m 135.115,262.133 -5.29,4.25 -5.292,-4.25 -5.29,4.25 -5.29,-4.25 v 2.124 l 3.526,2.127 -1.763,2.124 v 2.125 h 1.763 l 1.764,-2.125 1.763,2.125 h 1.764 v -2.125 l -1.764,-2.124 3.527,-2.126 3.528,2.126 -1.764,2.124 v 2.125 h 1.764 l 1.763,-2.125 1.763,2.125 h 1.764 v -2.125 l -1.764,-2.124 3.528,-2.126 3.527,2.125 -1.764,2.125 v 2.125 h 1.764 l 1.763,-2.125 1.764,2.125 h 1.764 v -2.125 l -1.764,-2.125 3.527,-2.126 v -2.124 l -5.29,4.25 z m 0.001,-61.636 -5.29,-4.25 -5.292,4.25 -5.29,-4.25 -5.29,4.25 v -2.124 l 3.527,-2.127 -1.764,-2.124 v -2.125 h 1.764 l 1.763,2.125 1.763,-2.125 h 1.764 v 2.125 l -1.764,2.124 3.527,2.126 3.528,-2.126 -1.764,-2.124 v -2.125 h 1.764 l 1.763,2.125 1.763,-2.125 h 1.764 v 2.125 l -1.764,2.124 3.528,2.126 3.527,-2.125 -1.764,-2.125 v -2.125 h 1.764 l 1.764,2.125 1.763,-2.125 h 1.764 v 2.125 l -1.764,2.125 3.527,2.126 v 2.124 l -5.29,-4.25 z m 40.071,35.423 5.669,-4.604 -5.67,-4.605 5.67,-4.604 -5.67,-4.604 h 2.834 l 2.836,3.07 2.833,-1.536 h 2.834 v 1.535 l -2.834,1.535 2.834,1.535 v 1.535 h -2.834 l -2.833,-1.535 -2.835,3.07 2.835,3.07 2.833,-1.536 h 2.834 v 1.535 l -2.834,1.535 2.834,1.535 v 1.535 h -2.834 l -2.833,-1.535 -2.835,3.07 2.833,3.07 2.835,-1.536 h 2.834 v 1.536 l -2.834,1.534 2.834,1.535 v 1.535 h -2.834 l -2.835,-1.535 -2.834,3.07 h -2.833 l 5.667,-4.605 -5.667,-4.604 z m -90.717,0 -5.67,-4.604 5.67,-4.605 -5.67,-4.604 5.67,-4.604 h -2.834 l -2.836,3.07 -2.833,-1.536 h -2.835 v 1.535 l 2.835,1.535 -2.835,1.535 v 1.535 h 2.835 l 2.833,-1.535 2.835,3.07 -2.835,3.07 -2.833,-1.536 h -2.835 v 1.535 l 2.835,1.535 -2.835,1.535 v 1.535 h 2.835 l 2.833,-1.535 2.835,3.07 -2.833,3.07 -2.835,-1.536 h -2.835 v 1.536 l 2.835,1.534 -2.835,1.535 v 1.535 h 2.835 l 2.835,-1.535 2.834,3.07 h 2.833 l -5.667,-4.605 5.667,-4.604 z"
       id="path187"
       inkscape:connector-curvature="0"
       style="fill:#28ae66" />
    <path
       transform="matrix(1.2798,0,0,1.1995,211.45,-5.633)"
       d="m -26.575,214.37 h 1.772 v 1.772 h -1.772 z"
       id="path189"
       inkscape:connector-curvature="0"
       style="fill:#28ae66;stroke:#000000;stroke-width:0.26699999" />
    <path
       transform="matrix(1.2798,0,0,1.1995,211.45,-5.633)"
       d="m -28.346,216.14 h 1.772 v 1.772 h -1.772 z m -8.859,8.86 h 1.772 v 1.772 h -1.772 z m 1.772,-1.77 h 1.772 v 1.772 h -1.772 z m -58.465,0 h 1.772 v 1.772 h -1.772 z m -8.862,-8.86 h 1.772 v 1.772 h -1.772 z m 1.78,1.77 h 1.772 v 1.772 h -1.772 z m 0,-38.97 h 1.772 v 1.772 h -1.772 z m -1.78,1.77 h 1.772 v 1.772 h -1.772 z m 10.634,-10.63 h 1.772 v 1.772 h -1.772 z"
       id="path191"
       inkscape:connector-curvature="0"
       style="fill:#28ae66;stroke:#000000;stroke-width:0.26699999" />
    <path
       transform="matrix(1.2798,0,0,1.1995,211.45,-5.633)"
       d="m -93.898,170.08 h 1.772 v 1.772 h -1.772 z m 56.693,-1.77 h 1.772 v 1.772 h -1.772 z m 1.772,1.77 h 1.772 v 1.772 h -1.772 z m 7.087,7.09 h 1.772 v 1.772 h -1.772 z"
       id="path193"
       inkscape:connector-curvature="0"
       style="fill:#28ae66;stroke:#000000;stroke-width:0.26699999" />
    <path
       transform="matrix(1.2798,0,0,1.1995,211.45,-5.633)"
       d="m -26.575,178.94 h 1.772 v 1.772 h -1.772 z M -92.126,225 h 1.772 v 1.772 h -1.772 z"
       id="path195"
       inkscape:connector-curvature="0"
       style="fill:#28ae66;stroke:#000000;stroke-width:0.26699999" />
    <path
       d="m 122.907,231.314 -6.683,-0.001 -0.001,-4.177 4.456,0.003 v -3.917 h 4.457 v -3.596 h 4.456 v 4.495 c -3.69,0 -6.685,3.046 -6.685,7.193 z"
       id="path197"
       inkscape:connector-curvature="0"
       style="fill:#ffffff" />
    <path
       d="m 136.274,231.314 6.683,-0.001 0.001,-4.177 -4.456,0.003 v -3.917 h -4.457 v -3.596 h -4.456 v 4.495 c 3.69,0 6.685,3.046 6.685,7.193 z"
       id="path199"
       inkscape:connector-curvature="0"
       style="fill:#faae29" />
    <path
       d="m 136.274,231.314 h 6.683 l 0.001,4.177 -4.456,-0.002 v 3.916 h -4.457 v 3.597 h -4.456 v -4.496 c 3.69,0 6.685,-3.045 6.685,-7.192 z"
       id="path201"
       inkscape:connector-curvature="0"
       style="fill:#ffffff" />
    <path
       d="m 122.907,231.314 h -6.683 l -0.001,4.177 4.456,-0.002 v 3.916 h 4.457 v 3.597 h 4.456 v -4.496 c -3.69,0 -6.685,-3.045 -6.685,-7.192 z"
       id="path203"
       inkscape:connector-curvature="0"
       style="fill:#faae29" />
    <path
       d="m 136.273,231.317 h -6.684 v -7.193 c 3.69,0 6.684,3.223 6.684,7.193 z"
       id="path205"
       inkscape:connector-curvature="0"
       style="fill:#28ae66" />
    <path
       d="m 136.273,231.31 h -6.684 v 7.193 c 3.69,0 6.684,-3.222 6.684,-7.192 z"
       id="path207"
       inkscape:connector-curvature="0"
       style="fill:#ca3745" />
    <path
       d="m 122.908,231.31 h 6.684 v 7.193 c -3.69,0 -6.684,-3.222 -6.684,-7.192 z"
       id="path209"
       inkscape:connector-curvature="0"
       style="fill:#28ae66" />
    <path
       d="m 122.908,231.317 h 6.684 v -7.193 c -3.69,0 -6.684,3.223 -6.684,7.193 z"
       id="path211"
       inkscape:connector-curvature="0"
       style="fill:#ca3745" />
    <path
       d="m 136.627,257.876 -6.802,-4.251 -6.802,4.25 -6.802,-4.25 -6.802,4.25 v -2.124 l 4.535,-2.126 -2.268,-2.125 v -2.125 h 2.268 l 2.267,2.125 2.267,-2.125 h 2.268 v 2.125 l -2.268,2.125 4.535,2.125 4.535,-2.125 -2.268,-2.125 v -2.125 h 2.268 l 2.267,2.125 2.267,-2.125 h 2.268 v 2.125 l -2.268,2.125 4.535,2.125 4.535,-2.124 -2.267,-2.126 v -2.125 h 2.267 l 2.267,2.125 2.267,-2.125 h 2.268 v 2.125 l -2.268,2.126 4.535,2.125 v 2.125 l -6.802,-4.25 z m 0,-53.119 -6.802,4.25 -6.802,-4.25 -6.802,4.25 -6.802,-4.25 v 2.124 l 4.535,2.127 -2.268,2.124 v 2.126 h 2.268 l 2.267,-2.126 2.267,2.126 h 2.268 v -2.126 l -2.268,-2.124 4.535,-2.126 4.535,2.126 -2.268,2.124 v 2.126 h 2.268 l 2.267,-2.126 2.267,2.126 h 2.268 v -2.126 l -2.268,-2.124 4.535,-2.126 4.535,2.125 -2.267,2.125 v 2.126 h 2.267 l 2.267,-2.126 2.267,2.126 h 2.268 v -2.126 l -2.268,-2.125 4.535,-2.126 v -2.124 l -6.802,4.25 z m 24.935,31.869 -3.402,-5.313 3.402,-5.313 -3.402,-5.313 3.402,-5.312 h -1.7 l -1.702,3.542 -1.7,-1.772 h -1.701 v 1.772 l 1.7,1.77 -1.7,1.771 v 1.771 h 1.7 l 1.7,-1.77 1.702,3.541 -1.701,3.542 -1.7,-1.77 h -1.701 v 1.77 l 1.7,1.771 -1.7,1.77 v 1.772 h 1.7 l 1.7,-1.771 1.702,3.542 -1.7,3.542 -1.701,-1.771 h -1.701 v 1.771 l 1.7,1.771 -1.7,1.77 v 1.772 h 1.7 l 1.702,-1.771 1.7,3.542 h 1.7 l -3.4,-5.313 3.4,-5.313 z"
       id="path213"
       inkscape:connector-curvature="0"
       style="fill:#28ae66" />
    <path
       d="m -100.98,177.17 -7.087,7.086 v 26.575 l 7.087,7.087 h 31.889 l 7.087,-7.087 v -26.575 l -7.087,-7.086 z m -1.772,-5.316 -17.717,17.716 v 15.945 l 17.717,17.717 h 35.433 l 17.716,-17.717 V 189.57 l -17.716,-17.716 z"
       transform="matrix(1.2798,0,0,1.1995,238.66,-5.632)"
       id="path215"
       inkscape:connector-curvature="0"
       style="fill:#28ae66;stroke:#000000;stroke-width:0.42699999" />
    <path
       d="m -93.898,147.05 3.543,5.315 3.544,-5.315 z"
       transform="matrix(1.02384,0,0,0.79966,215.078,140.295)"
       id="path217"
       inkscape:connector-curvature="0"
       style="fill:#faae29;stroke:#000000;stroke-width:0.26699999" />
    <path
       d="m -93.898,147.05 3.543,5.315 3.544,-5.315 z"
       transform="matrix(1.02384,0,0,-0.79966,215.078,322.344)"
       id="path219"
       inkscape:connector-curvature="0"
       style="fill:#faae29;stroke:#000000;stroke-width:0.26699999" />
    <path
       d="m -93.898,147.05 3.543,5.315 3.544,-5.315 z"
       transform="matrix(1.02384,0,0,-0.79966,229.59,322.344)"
       id="path221"
       inkscape:connector-curvature="0"
       style="fill:#faae29;stroke:#000000;stroke-width:0.26699999" />
    <path
       d="m -93.898,147.05 3.543,5.315 3.544,-5.315 z"
       transform="matrix(1.02384,0,0,0.79966,229.59,140.295)"
       id="path223"
       inkscape:connector-curvature="0"
       style="fill:#faae29;stroke:#000000;stroke-width:0.26699999" />
    <path
       d="m -93.898,147.05 3.543,5.315 3.544,-5.315 z"
       transform="matrix(1.02384,0,0,-0.79966,207.823,322.344)"
       id="path225"
       inkscape:connector-curvature="0"
       style="fill:#ca3745;stroke:#000000;stroke-width:0.26699999" />
    <path
       d="m -93.898,147.05 3.543,5.315 3.544,-5.315 z"
       transform="matrix(1.02384,0,0,-0.79966,222.334,322.344)"
       id="path227"
       inkscape:connector-curvature="0"
       style="fill:#ca3745;stroke:#000000;stroke-width:0.26699999" />
    <path
       d="m -93.898,147.05 3.543,5.315 3.544,-5.315 z"
       transform="matrix(1.02384,0,0,-0.79966,236.845,322.344)"
       id="path229"
       inkscape:connector-curvature="0"
       style="fill:#ca3745;stroke:#000000;stroke-width:0.26699999" />
    <path
       d="m -104.53,180.71 3.544,-3.544 h -3.544 z"
       transform="matrix(1.9196,0,0,-1.7991,303.262,576.628)"
       id="path231"
       inkscape:connector-curvature="0"
       style="fill:#ca3745;stroke:#000000;stroke-width:0.26699999" />
    <path
       d="m 98.084,236.626 3.402,-5.313 -3.402,-5.313 3.402,-5.313 -3.402,-5.312 h 1.7 l 1.702,3.542 1.7,-1.772 h 1.7 v 1.772 l -1.7,1.77 1.7,1.771 v 1.771 h -1.7 l -1.7,-1.77 -1.701,3.541 1.7,3.542 1.7,-1.77 h 1.701 v 1.77 l -1.7,1.771 1.7,1.77 v 1.772 h -1.7 l -1.7,-1.771 -1.701,3.542 1.7,3.542 1.7,-1.771 h 1.701 v 1.771 l -1.7,1.771 1.7,1.77 v 1.772 h -1.7 l -1.701,-1.771 -1.701,3.542 h -1.7 l 3.4,-5.313 z"
       id="path233"
       inkscape:connector-curvature="0"
       style="fill:#28ae66" />
    <path
       d="m -76.181,154.13 h 7.087 l 1.771,1.772 -1.771,1.771 h -7.087 z"
       transform="matrix(1.2798,0,0,1.07958,261.333,59.18)"
       id="path235"
       inkscape:connector-curvature="0"
       style="fill:#ca3745;stroke:#000000;stroke-width:0.26699999" />
    <path
       d="m -99.213,180.71 -3.543,3.544 v 26.575 l 3.543,3.543 h -5.316 l 10e-4,-33.662 z"
       transform="matrix(1.2798,0,0,1.1995,229.59,-5.632)"
       id="path237"
       inkscape:connector-curvature="0"
       style="fill:#ca3745;stroke:#000000;stroke-width:0.40000001" />
    <path
       d="m -93.898,147.05 3.543,5.315 3.544,-5.315 z"
       transform="matrix(1.02384,0,0,0.79966,207.823,140.295)"
       id="path239"
       inkscape:connector-curvature="0"
       style="fill:#ca3745;stroke:#000000;stroke-width:0.26699999" />
    <path
       d="m -93.898,147.05 3.543,5.315 3.544,-5.315 z"
       transform="matrix(1.02384,0,0,0.79966,222.334,140.295)"
       id="path241"
       inkscape:connector-curvature="0"
       style="fill:#ca3745;stroke:#000000;stroke-width:0.26699999" />
    <path
       d="m -93.898,147.05 3.543,5.315 3.544,-5.315 z"
       transform="matrix(1.02384,0,0,0.79966,236.845,140.295)"
       id="path243"
       inkscape:connector-curvature="0"
       style="fill:#ca3745;stroke:#000000;stroke-width:0.26699999" />
    <path
       d="m -99.212,180.71 -3.544,3.544 v 26.575 l 3.544,3.543 h -5.315 V 180.71 Z"
       transform="matrix(-1.2798,0,0,1.1995,30.065,-5.632)"
       id="path245"
       inkscape:connector-curvature="0"
       style="fill:#ca3745;stroke:#000000;stroke-width:0.40000001" />
    <path
       d="m -104.53,180.71 3.544,-3.544 h -3.544 z"
       transform="matrix(-1.9196,0,0,-1.7991,-43.617,576.628)"
       id="path247"
       inkscape:connector-curvature="0"
       style="fill:#ca3745;stroke:#000000;stroke-width:0.26699999" />
    <path
       d="m -104.53,180.71 3.544,-3.544 h -3.544 z"
       transform="matrix(-1.9196,0,0,1.7991,-43.617,-113.993)"
       id="path249"
       inkscape:connector-curvature="0"
       style="fill:#ca3745;stroke:#000000;stroke-width:0.26699999" />
    <path
       d="m -104.53,180.71 3.544,-3.544 h -3.544 z"
       transform="matrix(1.9196,0,0,1.7991,303.262,-113.993)"
       id="path251"
       inkscape:connector-curvature="0"
       style="fill:#ca3745;stroke:#000000;stroke-width:0.26699999" />
    <path
       d="m -100.98,177.17 -7.087,7.086 v 26.575 l 7.087,7.087 h 31.889 l 7.087,-7.087 v -26.575 l -7.087,-7.086 z m -10e-4,-1.773 -8.858,8.858 v 26.575 l 8.859,8.858 h 31.889 l 8.858,-8.858 v -26.575 l -8.859,-8.858 z"
       transform="matrix(1.2798,0,0,1.1995,238.66,-5.632)"
       id="path253"
       inkscape:connector-curvature="0"
       style="fill:#28ae66;stroke:#000000;stroke-width:0.42699999" />
    <path
       d="m -76.181,154.13 h 7.087 l 1.771,1.772 -1.771,1.771 h -7.087 z"
       transform="matrix(1.2798,0,0,1.07965,261.332,62.992)"
       id="path255"
       inkscape:connector-curvature="0"
       style="fill:#faae29;stroke:#000000;stroke-width:0.26699999" />
    <path
       d="m -76.181,154.13 h 7.087 l 1.771,1.772 -1.771,1.771 h -7.087 z"
       transform="matrix(1.2798,0,0,1.07958,261.333,66.83)"
       id="path257"
       inkscape:connector-curvature="0"
       style="fill:#ca3745;stroke:#000000;stroke-width:0.26699999" />
    <path
       d="m -76.181,154.13 h 7.087 l 1.771,1.772 -1.771,1.771 h -7.087 z"
       transform="matrix(1.2798,0,0,1.07965,261.333,70.642)"
       id="path259"
       inkscape:connector-curvature="0"
       style="fill:#faae29;stroke:#000000;stroke-width:0.26699999" />
    <path
       d="m -76.181,154.13 h 7.087 l 1.771,1.772 -1.771,1.771 h -7.087 z"
       transform="matrix(1.2798,0,0,1.07965,261.333,55.341)"
       id="path261"
       inkscape:connector-curvature="0"
       style="fill:#faae29;stroke:#000000;stroke-width:0.26699999" />
    <path
       d="m -76.181,154.13 h 7.087 l 1.771,1.772 -1.771,1.771 h -7.087 z"
       transform="matrix(-1.2798,0,0,1.07958,-1.682,59.18)"
       id="path263"
       inkscape:connector-curvature="0"
       style="fill:#ca3745;stroke:#000000;stroke-width:0.26699999" />
    <path
       d="m -76.181,154.13 h 7.087 l 1.771,1.772 -1.771,1.771 h -7.087 z"
       transform="matrix(-1.2798,0,0,1.07965,-1.682,62.993)"
       id="path265"
       inkscape:connector-curvature="0"
       style="fill:#faae29;stroke:#000000;stroke-width:0.26699999" />
    <path
       d="m -76.181,154.13 h 7.087 l 1.771,1.772 -1.771,1.771 h -7.087 z"
       transform="matrix(-1.2798,0,0,1.07958,-1.682,66.83)"
       id="path267"
       inkscape:connector-curvature="0"
       style="fill:#ca3745;stroke:#000000;stroke-width:0.26699999" />
    <path
       d="m -76.181,154.13 h 7.087 l 1.771,1.772 -1.771,1.771 h -7.087 z"
       transform="matrix(-1.2798,0,0,1.07965,-1.682,70.643)"
       id="path269"
       inkscape:connector-curvature="0"
       style="fill:#faae29;stroke:#000000;stroke-width:0.26699999" />
    <path
       d="m -76.181,154.13 h 7.087 l 1.771,1.772 -1.771,1.771 h -7.087 z"
       transform="matrix(-1.2798,0,0,1.07965,-1.682,55.343)"
       id="path271"
       inkscape:connector-curvature="0"
       style="fill:#faae29;stroke:#000000;stroke-width:0.26699999" />
    <path
       d="m -100.98,178.94 v 37.205 h 8.858 v 8.858 h 56.693 v -8.858 h 8.858 V 178.94 h -8.858 v -8.858 h -56.693 v 8.858 z m 1.771,1.772 v 33.661 h 8.859 v 8.858 h 53.15 v -8.858 h 8.858 V 180.712 H -37.2 v -8.859 h -53.15 v 8.859 z"
       transform="matrix(1.2798,0,0,1.1995,211.45,-5.633)"
       id="path273"
       inkscape:connector-curvature="0"
       style="fill:#970000;stroke:#000000;stroke-width:0.26699999" />
    <g
       id="g335">
      <path
         d="m -28.347,69.094 -5.315,-7.087 v -5.315 l -5.315,-5.314 h -10.63 l -8.858,-5.315 h -28.346 l -8.859,5.315 h -10.63 l -5.315,5.315 v 5.315 l -5.315,7.086 v 14.173 l 5.315,7.087 v 5.315 l 5.315,5.315 h 10.63 l 8.859,5.315 h 28.346 l 8.858,-5.316 h 10.63 l 5.315,-5.314 v -5.315 l 5.315,-7.087 V 69.093 Z"
         transform="matrix(1.2798,0,0,1.1535,222.785,-36.677)"
         id="path275"
         inkscape:connector-curvature="0"
         style="fill:#ca3745;stroke:#000000;stroke-width:0.26699999" />
      <path
         d="m 75.427,51.199 v 6.13 l 6.802,8.174 v 6.13 l 6.802,6.131 h 13.604 l 11.337,6.131 h 15.872 l -0.002,-32.696 z"
         id="path277"
         inkscape:connector-curvature="0"
         style="fill:#faae29" />
      <path
         d="m 110.69,65.498 -8.281,5.255 h -4.947 l 1.65,1.751 -3.298,3.504 1.648,1.751 4.947,-1.751 1.649,1.751 0.762,-4.68 9.131,-5.54 -3.26,-2.041 z"
         id="path279"
         inkscape:connector-curvature="0"
         style="fill:#ca3745" />
      <path
         d="m 101.625,61.411 -8.281,5.255 h -4.947 l 1.65,1.751 -3.298,3.504 1.648,1.752 4.947,-1.752 1.649,1.752 0.762,-4.68 9.132,-5.541 -3.262,-2.04 z m -4.538,-8.17 -8.282,5.255 H 83.86 l 1.649,1.751 -3.298,3.504 1.649,1.752 4.946,-1.752 1.65,1.752 0.761,-4.68 9.132,-5.541 -3.26,-2.04 z"
         id="path281"
         inkscape:connector-curvature="0"
         style="fill:#ca3745" />
      <path
         d="m 184.224,51.199 v -6.131 l -6.802,-8.174 v -6.13 l -6.802,-6.131 h -13.604 l -11.337,-6.13 h -15.872 l 0.002,32.696 z"
         id="path283"
         inkscape:connector-curvature="0"
         style="fill:#faae29" />
      <path
         d="m 129.83,83.894 h -4.198 l -4.87,-4.087 h -7.726 l -4.199,-2.044 2.1,-2.043 4.198,2.043 h 4.199 l 4.198,-6.13 6.298,2.043 v 4.087 h -6.298 l 6.298,6.13 z"
         id="path285"
         inkscape:connector-curvature="0"
         style="fill:#ca3745" />
      <path
         d="m 75.427,51.199 v -6.131 l 6.802,-8.174 v -6.13 l 6.802,-6.131 h 13.604 l 11.337,-6.13 h 15.872 l -0.002,32.696 z"
         id="path287"
         inkscape:connector-curvature="0"
         style="fill:#ffffff" />
      <path
         d="m 129.83,18.499 h -4.198 l -4.87,4.087 h -7.726 l -4.199,2.043 2.1,2.044 4.198,-2.044 h 4.199 l 4.198,6.131 6.298,-2.044 V 24.63 h -6.298 l 6.298,-6.13 z"
         id="path289"
         inkscape:connector-curvature="0"
         style="fill:#ca3745" />
      <path
         d="m 129.826,18.499 h 4.199 l 4.87,4.087 h 7.726 l 4.198,2.043 -2.099,2.044 -4.199,-2.044 h -4.198 l -4.199,6.131 -6.298,-2.044 V 24.63 h 6.298 l -6.298,-6.13 z"
         id="path291"
         inkscape:connector-curvature="0"
         style="fill:#ca3745" />
      <path
         d="m 184.224,51.199 v 6.13 l -6.802,8.174 v 6.13 l -6.802,6.131 h -13.604 l -11.337,6.131 h -15.872 l 0.002,-32.696 z"
         id="path293"
         inkscape:connector-curvature="0"
         style="fill:#ffffff" />
      <path
         d="m 129.826,83.894 h 4.199 l 4.87,-4.087 h 7.726 l 4.198,-2.044 -2.099,-2.043 -4.199,2.043 h -4.198 l -4.199,-6.13 -6.298,2.043 v 4.087 h 6.298 l -6.298,6.13 z M 101.625,40.978 93.344,35.723 h -4.947 l 1.65,-1.751 -3.298,-3.504 1.648,-1.752 4.947,1.752 1.649,-1.752 0.762,4.68 9.132,5.541 -3.262,2.04 z m 47.335,-4.083 8.282,-5.256 h 4.947 l -1.65,-1.75 3.298,-3.504 -1.648,-1.752 -4.947,1.752 -1.649,-1.752 -0.762,4.68 -9.131,5.54 z"
         id="path295"
         inkscape:connector-curvature="0"
         style="fill:#ca3745" />
      <path
         d="m 110.69,36.895 -8.281,-5.256 h -4.947 l 1.65,-1.75 -3.298,-3.504 1.648,-1.752 4.947,1.752 1.649,-1.752 0.762,4.68 9.131,5.54 -3.26,2.042 z M 97.087,49.156 88.805,43.901 H 83.86 l 1.649,-1.751 -3.298,-3.504 1.649,-1.752 4.946,1.752 1.65,-1.752 0.761,4.681 9.132,5.54 -3.26,2.041 z"
         id="path297"
         inkscape:connector-curvature="0"
         style="fill:#ca3745" />
      <path
         d="m 79.453,51.209 h 2.1 l 2.1,2.043 2.1,-2.043 44.085,-0.002 V 79.82 h -2.099 l 2.1,2.044 v 2.043 l -6.298,-6.13 v -2.044 h 2.099 v 2.044 h 2.1 V 75.733 L 110.693,66.707 H 96.333 V 57.85 l -6.382,-4.597 h -4.199 l -2.1,2.043 2.1,2.045 h -2.1 L 79.453,51.21 Z"
         id="path299"
         inkscape:connector-curvature="0"
         style="fill:#ffffff" />
      <path
         d="m 79.453,51.188 h 2.1 l 2.1,-2.043 2.1,2.043 44.085,0.002 V 22.578 h -2.099 l 2.1,-2.044 V 18.49 l -6.298,6.13 v 2.044 h 2.099 v -2.043 h 2.1 v 2.043 l -17.047,9.026 h -14.36 v 8.857 l -6.382,4.597 h -4.199 l -2.1,-2.043 2.1,-2.044 h -2.1 l -4.199,6.13 z"
         id="path301"
         inkscape:connector-curvature="0"
         style="fill:#faae29" />
      <path
         d="m 89.025,51.187 h 40.811 V 75.71 L 111.698,65.492 H 98.095 v -8.174 z"
         id="path303"
         inkscape:connector-curvature="0"
         style="fill:#28ae66" />
      <path
         d="m 158.026,40.978 8.281,-5.255 h 4.947 l -1.65,-1.751 3.298,-3.504 -1.648,-1.752 -4.947,1.752 -1.649,-1.752 -0.762,4.68 -9.132,5.541 3.262,2.04 z m 4.538,8.178 8.282,-5.255 h 4.946 l -1.649,-1.751 3.298,-3.504 -1.649,-1.752 -4.946,1.752 -1.65,-1.752 -0.761,4.681 -9.132,5.54 3.26,2.041 z"
         id="path305"
         inkscape:connector-curvature="0"
         style="fill:#ca3745" />
      <path
         d="m 180.198,51.188 h -2.1 l -2.1,-2.043 -2.1,2.043 -44.085,0.002 V 22.578 h 2.099 l -2.1,-2.044 V 18.49 l 6.298,6.13 v 2.044 h -2.099 v -2.043 h -2.1 v 2.043 l 17.047,9.026 h 14.36 v 8.857 l 6.382,4.597 h 4.199 l 2.1,-2.043 -2.1,-2.044 h 2.1 l 4.199,6.13 z"
         id="path307"
         inkscape:connector-curvature="0"
         style="fill:#ffffff" />
      <path
         d="M 170.626,51.21 H 129.815 V 26.687 l 18.138,10.218 h 13.603 v 8.174 z"
         id="path309"
         inkscape:connector-curvature="0"
         style="fill:#28ae66" />
      <path
         d="m 148.96,65.498 8.282,5.255 h 4.947 l -1.65,1.751 3.298,3.504 -1.648,1.751 -4.947,-1.751 -1.649,1.751 -0.762,-4.68 -9.131,-5.54 z"
         id="path311"
         inkscape:connector-curvature="0"
         style="fill:#ca3745" />
      <path
         d="m 158.026,61.411 8.281,5.255 h 4.947 l -1.65,1.751 3.298,3.504 -1.648,1.752 -4.947,-1.752 -1.649,1.752 -0.762,-4.68 -9.132,-5.541 3.262,-2.04 z m 4.538,-8.17 8.282,5.255 h 4.946 l -1.649,1.751 3.298,3.504 -1.649,1.752 -4.946,-1.752 -1.65,1.752 -0.761,-4.68 -9.132,-5.541 3.26,-2.04 z"
         id="path313"
         inkscape:connector-curvature="0"
         style="fill:#ca3745" />
      <path
         d="m 180.198,51.209 h -2.1 l -2.1,2.043 -2.1,-2.043 -44.085,-0.002 V 79.82 h 2.099 l -2.1,2.044 v 2.043 l 6.298,-6.13 v -2.044 h -2.099 v 2.044 h -2.1 v -2.044 l 17.047,-9.026 h 14.36 V 57.85 l 6.382,-4.597 h 4.199 l 2.1,2.043 -2.1,2.045 h 2.1 l 4.199,-6.131 z"
         id="path315"
         inkscape:connector-curvature="0"
         style="fill:#faae29" />
      <path
         d="M 170.626,51.187 H 129.815 V 75.71 l 18.138,-10.218 h 13.603 v -8.174 z"
         id="path317"
         inkscape:connector-curvature="0"
         style="fill:#ca3745" />
      <path
         d="m 89.025,51.21 h 40.811 V 26.687 L 111.698,36.905 H 98.095 v 8.174 z"
         id="path319"
         inkscape:connector-curvature="0"
         style="fill:#ca3745" />
      <path
         d="m 134.305,51.198 11.388,-6.131 h 6.802 l -2.268,-2.043 4.535,-4.088 -2.267,-2.043 -6.802,2.043 -2.268,-2.043 -1.047,5.46 -12.557,6.464 z m -8.959,-0.011 -11.388,6.132 h -6.802 l 2.268,2.043 -4.535,4.087 2.267,2.044 6.802,-2.044 2.268,2.044 1.047,-5.46 12.557,-6.465 -4.484,-2.38 z"
         id="path321"
         inkscape:connector-curvature="0"
         style="fill:#ca3745" />
      <path
         d="m 125.346,51.198 -11.388,-6.131 h -6.802 l 2.268,-2.043 -4.535,-4.088 2.267,-2.043 6.802,2.043 2.268,-2.043 1.047,5.46 12.557,6.464 z m 8.959,-0.011 11.388,6.132 h 6.802 l -2.268,2.043 4.535,4.087 -2.267,2.044 -6.802,-2.044 -2.268,2.044 -1.047,-5.46 -12.557,-6.465 4.484,-2.38 z"
         id="path323"
         inkscape:connector-curvature="0"
         style="fill:#28ae66" />
      <path
         d="M 116.223,51.2 129.826,40.981 143.431,51.2 129.826,61.418 Z"
         id="path325"
         inkscape:connector-curvature="0"
         style="fill:#ffffff" />
      <path
         d="m 85.742,55.282 2.1,2.043 -2.1,2.044 h -2.1 l -6.298,-8.174 h 2.1 l 4.198,6.13 h 2.1 l -2.1,-2.043 2.1,-2.044 h 4.198 v 2.044 z"
         id="path327"
         inkscape:connector-curvature="0"
         style="fill:#ca3745" />
      <path
         d="m 85.742,47.109 2.1,-2.043 -2.1,-2.044 h -2.1 l -6.298,8.174 h 2.1 l 4.198,-6.13 h 2.1 l -2.1,2.043 2.1,2.044 h 4.198 v -2.044 z m 88.171,8.173 -2.1,2.043 2.1,2.044 h 2.1 l 6.297,-8.174 h -2.1 l -4.198,6.13 h -2.1 l 2.1,-2.043 -2.1,-2.044 h -4.198 v 2.044 z"
         id="path329"
         inkscape:connector-curvature="0"
         style="fill:#ca3745" />
      <path
         d="m 173.913,47.109 -2.1,-2.043 2.1,-2.044 h 2.1 l 6.297,8.174 h -2.1 l -4.198,-6.13 h -2.1 l 2.1,2.043 -2.1,2.044 h -4.198 v -2.044 z m -46.186,-4.087 h 4.198 V 59.37 h -4.198 z"
         id="path331"
         inkscape:connector-curvature="0"
         style="fill:#ca3745" />
      <path
         d="m 121.429,47.11 h 16.794 v 8.174 H 121.43 Z"
         id="path333"
         inkscape:connector-curvature="0"
         style="fill:#ca3745" />
    </g>
    <g
       id="g363">
      <path
         d="m 333.07,170.08 -10.63,5.315 v 8.858 l 10.63,5.315 h 10.63 l 10.63,-5.315 v -8.858 L 343.7,170.08 Z"
         transform="matrix(3.555,0,0,3.847,-1073.157,-292.234)"
         id="path337"
         inkscape:connector-curvature="0"
         style="fill:#28ae66;stroke:#000000;stroke-width:0.07" />
      <path
         d="m 87.169,396.271 h 2.285 v -4.19 h 4.572 v 4.19 h 2.285 v -9.778 h -2.285 v 4.19 h -4.572 v -4.19 h -2.285 z m 57.901,32.594 h 2.285 v -4.191 h 4.572 v 4.19 h 2.285 v -9.778 h -2.285 v 4.191 h -4.572 v -4.19 h -2.285 z m -36.568,-48.891 h 2.285 v -4.19 h 4.573 v 4.19 h 2.285 v -9.778 h -2.285 v 4.19 h -4.573 v -4.19 h -2.285 z m 33.523,0 h 2.285 v -4.19 h 4.573 v 4.19 h 2.285 v -9.778 h -2.285 v 4.19 h -4.573 v -4.19 h -2.285 z m 21.323,16.297 h 2.285 v -4.19 h 4.573 v 4.19 h 2.285 v -9.778 h -2.285 v 4.19 h -4.573 v -4.19 h -2.285 z m 0,16.297 h 2.285 v -4.191 h 4.573 v 4.191 h 2.285 v -9.779 h -2.285 v 4.191 h -4.573 v -4.19 h -2.285 z"
         id="path339"
         inkscape:connector-curvature="0"
         style="fill:#cc0000" />
      <path
         d="m 129.827,435.389 v -35.855 h 54.856 v 16.298 l -36.57,19.557 z m 0.001,-71.716 v 35.856 H 74.972 V 383.23 l 36.57,-19.558 h 18.286 z"
         id="path341"
         inkscape:connector-curvature="0"
         style="fill:#faae29" />
      <path
         d="m 129.827,363.673 v 35.856 h 54.856 V 383.23 l -36.57,-19.558 h -18.286 z m 0.001,71.716 -0.001,-35.854 -54.855,-0.001 v 16.298 l 36.57,19.557 z"
         id="path343"
         inkscape:connector-curvature="0"
         style="fill:#ffffff" />
      <path
         d="m -177.16,368.5 h 21.259 l -21.259,-10.63 z m 24.803,-1.772 -0.001,17.717 h -33.661 v -14.173 h -7.086 l -8.858,-5.315 v -12.402 l 5.314,-5.315 h -7.086 v 17.717 h -1.772 v -19.489 h 17.717 z"
         transform="matrix(1.0321,0,0,0.92,341.934,45.873)"
         id="path345"
         inkscape:connector-curvature="0"
         style="fill:#faae29;stroke:#000000;stroke-width:0.133" />
      <path
         d="m 111.51,388.116 v 22.814 h 5.484 l 12.802,6.52 12.8,-6.52 h 5.485 v -22.814 h -5.484 l -12.801,-6.52 -12.802,6.52 z"
         id="path347"
         inkscape:connector-curvature="0"
         style="fill:#ca3745" />
      <path
         d="m -177.16,368.5 h 21.259 l -21.259,-10.63 z m 24.803,-1.772 -0.001,17.717 h -33.661 v -14.173 h -7.086 l -8.858,-5.315 v -12.402 l 5.314,-5.315 h -7.086 v 17.717 h -1.772 v -19.489 h 17.717 z"
         transform="matrix(-1.0321,0,0,-0.92,-82.279,753.19)"
         id="path349"
         inkscape:connector-curvature="0"
         style="fill:#faae29;stroke:#000000;stroke-width:0.133" />
      <path
         d="m -177.16,368.5 h 21.259 l -21.259,-10.63 z m 24.803,-1.772 -0.001,17.717 h -33.661 v -14.173 h -7.086 l -8.858,-5.315 v -12.402 l 5.314,-5.315 h -7.086 v 17.717 h -1.772 v -19.489 h 17.717 z"
         transform="matrix(-1.0321,0,0,0.92,-82.279,45.873)"
         id="path351"
         inkscape:connector-curvature="0"
         style="fill:#ffffff;stroke:#000000;stroke-width:0.133" />
      <path
         d="m -177.16,368.5 h 21.259 l -21.259,-10.63 z m 24.803,-1.772 -0.001,17.717 h -33.661 v -14.173 h -7.086 l -8.858,-5.315 v -12.402 l 5.314,-5.315 h -7.086 v 17.717 h -1.772 v -19.489 h 17.717 z"
         transform="matrix(1.0321,0,0,-0.92,341.935,753.19)"
         id="path353"
         inkscape:connector-curvature="0"
         style="fill:#ffffff;stroke:#000000;stroke-width:0.133" />
      <path
         d="m 85.951,412.578 h 2.285 v -4.89 h 4.573 v 4.89 h 2.285 V 401.17 h -2.285 v 4.89 h -4.573 v -4.89 h -2.285 z m 21.932,16.297 h 2.285 v -4.89 h 4.573 v 4.89 h 2.285 v -11.409 h -2.285 v 4.89 h -4.573 v -4.89 h -2.285 z M 85.951,386.497 h 2.285 v 4.89 h 4.573 v -4.89 h 2.285 v 11.408 h -2.285 v -4.89 h -4.573 v 4.89 h -2.285 z m 21.932,-16.299 h 2.285 v 4.89 h 4.573 v -4.89 h 2.285 v 11.408 h -2.285 v -4.89 h -4.573 v 4.89 h -2.285 z m 34.751,58.677 h 2.285 v -4.89 h 4.573 v 4.89 h 2.285 v -11.409 h -2.285 v 4.89 h -4.573 v -4.89 h -2.285 z m 21.942,-30.973 h 2.285 v -4.89 h 4.573 v 4.89 h 2.285 v -11.409 h -2.285 v 4.89 h -4.573 v -4.89 h -2.285 z"
         id="path355"
         inkscape:connector-curvature="0"
         style="fill:#ca3745" />
      <path
         d="m 142.634,428.875 h 2.285 v -4.89 h 4.573 v 4.89 h 2.285 v -11.409 h -2.285 v 4.89 h -4.573 v -4.89 h -2.285 z"
         id="path357"
         inkscape:connector-curvature="0"
         style="fill:#ca3745" />
      <path
         d="m 142.634,428.875 h 2.285 v -4.89 h 4.573 v 4.89 h 2.285 v -11.409 h -2.285 v 4.89 h -4.573 v -4.89 h -2.285 z m 21.942,-16.307 h 2.285 v -4.89 h 4.573 v 4.89 h 2.285 v -11.409 h -2.285 v 4.89 h -4.573 v -4.89 h -2.285 z m -21.942,-30.963 h 2.285 v -4.89 h 4.573 v 4.89 h 2.285 v -11.409 h -2.285 v 4.89 h -4.573 v -4.89 h -2.285 z"
         id="path359"
         inkscape:connector-curvature="0"
         style="fill:#ca3745" />
      <path
         d="m 131.658,399.532 7.314,-5.944 h 3.657 v 2.971 h -3.657 v 1.486 h 5.485 v -5.942 h -5.485 v -4.457 h -7.314 v 4.456 h 1.829 v -2.972 h 3.656 v 2.972 l -7.313,5.943 -7.315,-5.942 v -2.97 h 3.657 v 2.97 h 1.829 v -4.457 l -7.314,10e-4 v 4.456 H 115.2 v 5.944 h 5.486 v -1.486 h -3.658 v -2.972 h 3.658 l 7.314,5.942 -7.314,5.942 h -3.657 v -2.97 h 3.657 v -1.487 h -5.485 v 5.943 h 5.485 v 4.456 l 7.314,0.002 v -4.458 h -1.828 v 2.972 h -3.657 v -2.972 l 7.313,-5.942 7.315,5.944 v 2.97 h -3.656 v -2.97 h -1.83 v 4.456 h 7.314 v -4.456 l 5.486,-0.002 v -5.942 h -5.486 v 1.486 h 3.658 v 2.972 h -3.658 l -7.314,-5.943 z"
         id="path361"
         inkscape:connector-curvature="0"
         style="fill:#ffffff" />
    </g>
    <g
       transform="matrix(1.0321,0,0,0.95838,204.8,18.155)"
       id="g395">
      <path
         d="m -122.352,134.285 3.43,-3.73 h 20.573 l 15.43,-16.784 h 20.574 l 15.43,16.784 h 20.575 l 3.429,3.729 -3.429,3.73 h -20.574 l -15.43,16.784 H -82.92 l -15.43,-16.784 h -20.574 l -3.43,-3.729 z"
         id="path365"
         inkscape:connector-curvature="0"
         style="fill:#ca3745" />
      <path
         d="m 372.05,391.54 1.903,-1.949 h 22.834 l 17.126,-19.489 h 19.029 l 17.126,19.489 h 22.835 l 1.903,1.949 -1.903,1.948 h -22.835 l -15.223,17.54 h -22.834 l -15.224,-17.54 h -22.834 z"
         transform="matrix(0.93104,0,0,0.90908,-466.86,-221.29)"
         id="path367"
         inkscape:connector-curvature="0"
         style="fill:#ca3745;stroke:#000000;stroke-width:0.28999999" />
      <path
         d="m -64.071,136.148 6.858,7.458 -3.428,3.73 -1.715,-1.865 h -1.714 v 1.865 l 1.714,1.865 h 3.43 l 3.428,-3.73 v -3.73 l -6.857,-7.458 6.857,-7.46 v -3.73 l -3.429,-3.729 h -3.428 l -1.715,1.864 v 1.865 h 1.715 l 1.714,-1.865 3.428,3.73 -6.857,7.46 -6.859,-7.46 6.859,-7.46 v -1.863 h -1.715 l -6.857,7.458 -6.859,-7.46 h -1.715 v 1.865 l 6.859,7.46 -6.859,7.46 -6.858,-7.46 3.429,-3.73 1.715,1.865 h 1.714 v -1.865 l -1.714,-1.864 h -3.43 l -3.429,3.73 v 3.729 l 6.859,7.46 -6.859,7.46 v 3.729 l 3.43,3.73 h 3.429 l 1.714,-1.865 v -1.865 h -1.714 l -1.715,1.865 -3.429,-3.73 6.858,-7.46 6.858,7.46 -6.858,7.46 v 1.864 h 1.714 l 6.859,-7.46 6.858,7.46 h 1.714 v -1.865 l -6.858,-7.46 z m -8.572,-9.325 -6.859,7.46 6.859,7.46 6.858,-7.46 z m -10.274,27.967 v 14.918 l 1.715,-1.865 1.715,1.865 1.714,-1.865 1.714,1.865 1.715,-1.865 1.714,1.865 1.715,-1.865 1.715,1.865 1.714,-1.865 1.715,1.865 1.713,-1.865 1.715,1.865 V 154.79 Z m 20.564,-41 V 98.872 l -1.715,1.865 -1.715,-1.865 -1.714,1.865 -1.714,-1.865 -1.715,1.865 -1.714,-1.865 -1.715,1.865 -1.715,-1.865 -1.714,1.865 -1.715,-1.865 -1.713,1.865 -1.715,-1.865 v 14.918 z m 29.148,16.79 v -14.918 l -1.715,1.865 -1.713,-1.865 -1.715,1.865 -1.715,-1.865 -1.714,1.865 -1.715,-1.865 -1.714,1.865 -1.714,-1.865 v 14.918 z m -65.15,0 v -14.918 l -1.715,1.865 -1.713,-1.865 -1.715,1.865 -1.715,-1.865 -1.714,1.865 -1.715,-1.865 -1.714,1.865 -1.714,-1.865 v 14.918 z m 65.15,7.43 v 14.918 l -1.715,-1.865 -1.713,1.865 -1.715,-1.865 -1.715,1.865 -1.714,-1.865 -1.715,1.865 -1.714,-1.865 -1.714,1.865 V 138.01 Z m -65.15,0 v 14.918 l -1.715,-1.865 -1.713,1.865 -1.715,-1.865 -1.715,1.865 -1.714,-1.865 -1.715,1.865 -1.714,-1.865 -1.714,1.865 V 138.01 Z"
         id="path369"
         inkscape:connector-curvature="0"
         style="fill:#faae29" />
      <path
         d="m -62.347,154.79 v 9.324 l 1.714,-1.866 1.715,1.866 1.714,-1.866 1.714,1.866 1.715,-1.866 1.714,1.866 1.715,-1.866 1.714,1.866 1.715,-1.866 v -24.242 z m -20.586,0 v 9.325 l -1.715,-1.866 -1.715,1.866 -1.714,-1.866 -1.714,1.866 -1.715,-1.866 -1.714,1.866 -1.715,-1.866 -1.714,1.866 -1.715,-1.866 0.001,-24.243 z m 0,-41 v -9.324 l -1.714,1.866 -1.715,-1.866 -1.714,1.866 -1.714,-1.866 -1.715,1.866 -1.714,-1.866 -1.715,1.866 -1.714,-1.866 -1.715,1.866 v 24.242 z m 20.586,0 v -9.324 l 1.714,1.866 1.715,-1.866 1.714,1.866 1.714,-1.866 1.715,1.866 1.714,-1.866 1.715,1.866 1.714,-1.866 1.715,1.866 v 24.242 z m -49.731,35.416 -1.715,-1.865 -1.713,1.865 -1.714,-1.865 -1.715,1.865 -1.715,-1.865 -1.715,1.865 -1.713,-1.865 -1.715,1.865 v -29.838 l 1.714,1.866 1.714,-1.866 1.715,1.866 1.714,-1.866 1.715,1.866 1.714,-1.866 1.714,1.866 1.715,-1.866 v 11.19 h -6.857 l -3.43,3.73 3.43,3.73 h 6.857 z m 78.876,0 1.715,-1.865 1.713,1.865 1.714,-1.865 1.715,1.865 1.715,-1.865 1.715,1.865 1.713,-1.865 1.715,1.865 v -29.838 l -1.714,1.866 -1.714,-1.866 -1.715,1.866 -1.714,-1.866 -1.715,1.866 -1.714,-1.866 -1.714,1.866 -1.715,-1.866 v 11.19 h 6.857 l 3.43,3.73 -3.43,3.73 h -6.857 z"
         id="path371"
         inkscape:connector-curvature="0"
         style="fill:#28ae66" />
      <path
         d="m -91.36,155.978 c 0,0 -1.428,1.474 -1.428,2.21 -0.028,0.687 1.524,2.227 2.143,2.211 0.81,0.016 2.143,-1.474 2.143,-2.21 0,-0.737 -1.43,-2.211 -1.43,-2.211 v -2.948 c 0,0 3.104,5.068 3.104,2.857 0,-1.586 -3.103,-4.331 -3.103,-4.331 h -1.429 c 0,0 -3.103,3.214 -3.103,4.33 0,2.212 3.103,-2.856 3.103,-2.856 z"
         id="path373"
         inkscape:connector-curvature="0"
         style="fill:#ffffff" />
      <path
         d="m -73.497,161.669 c 0,0 -1.715,2.063 -1.715,3.095 -0.034,0.962 1.829,3.118 2.572,3.095 0.971,0.023 2.572,-2.063 2.572,-3.095 0,-1.032 -1.715,-3.095 -1.715,-3.095 v -4.127 c 0,0 3.037,6.751 3.037,3.656 0,-2.001 -3.037,-5.72 -3.037,-5.72 h -1.714 c 0,0 -3.506,4.656 -3.037,5.72 0,3.095 3.037,-3.656 3.037,-3.656 z"
         id="path375"
         inkscape:connector-curvature="0"
         style="fill:#ca3745" />
      <ellipse
         transform="matrix(0.96774,0,0,1.0526,-482.4,-277.85)"
         cx="403.94"
         rx="3.543"
         cy="391.54001"
         ry="1.772"
         id="ellipse377"
         style="fill:#28ae66" />
      <ellipse
         transform="matrix(0.96774,0,0,1.0526,-463.54,-277.85)"
         cx="403.94"
         rx="3.543"
         cy="391.54001"
         ry="1.772"
         id="ellipse379"
         style="fill:#28ae66" />
      <ellipse
         transform="matrix(0.96774,0,0,1.0526,-444.69,-277.85)"
         cx="403.94"
         rx="3.543"
         cy="391.54001"
         ry="1.772"
         id="ellipse381"
         style="fill:#28ae66" />
      <path
         d="m -91.72,112.76 c 0,0 -1.428,-1.474 -1.428,-2.21 -0.028,-0.688 1.524,-2.228 2.143,-2.211 0.81,-0.017 2.143,1.473 2.143,2.21 0,0.737 -1.43,2.211 -1.43,2.211 v 2.948 c 0,0 3.104,-5.068 3.104,-2.857 0,1.586 -3.103,4.33 -3.103,4.33 h -1.429 c 0,0 -3.103,-3.213 -3.103,-4.33 0,-2.21 3.103,2.857 3.103,2.857 z"
         id="path383"
         inkscape:connector-curvature="0"
         style="fill:#ffffff" />
      <path
         d="m -73.857,107.062 c 0,0 -1.715,-2.063 -1.715,-3.095 -0.034,-0.962 1.829,-3.118 2.572,-3.095 0.971,-0.023 2.572,2.063 2.572,3.095 0,1.032 -1.715,3.095 -1.715,3.095 v 4.127 c 0,0 3.037,-6.751 3.037,-3.656 0,2.001 -3.037,5.72 -3.037,5.72 h -1.714 c 0,0 -3.506,-4.656 -3.037,-5.72 0,-3.095 3.037,3.656 3.037,3.656 z"
         id="path385"
         inkscape:connector-curvature="0"
         style="fill:#ca3745" />
      <path
         d="m -54.86,155.978 c 0,0 -1.428,1.474 -1.428,2.21 -0.028,0.687 1.524,2.227 2.143,2.211 0.81,0.016 2.143,-1.474 2.143,-2.21 0,-0.737 -1.43,-2.211 -1.43,-2.211 v -2.948 c 0,0 3.104,5.068 3.104,2.857 0,-1.586 -3.103,-4.331 -3.103,-4.331 h -1.429 c 0,0 -3.103,3.214 -3.103,4.33 0,2.212 3.103,-2.856 3.103,-2.856 z m -0.36,-43.218 c 0,0 -1.428,-1.474 -1.428,-2.21 -0.028,-0.688 1.524,-2.228 2.143,-2.211 0.81,-0.017 2.143,1.473 2.143,2.21 0,0.737 -1.43,2.211 -1.43,2.211 v 2.948 c 0,0 3.104,-5.068 3.104,-2.857 0,1.586 -3.103,4.33 -3.103,4.33 h -1.429 c 0,0 -3.103,-3.213 -3.103,-4.33 0,-2.21 3.103,2.857 3.103,2.857 z"
         id="path387"
         inkscape:connector-curvature="0"
         style="fill:#ffffff" />
      <path
         d="m -106.273,145.593 c 0,0 -1.9,1.383 -1.9,2.074 -0.037,0.644 2.026,2.089 2.85,2.074 1.076,0.015 2.85,-1.383 2.85,-2.074 0,-0.691 -1.9,-2.074 -1.9,-2.074 v -2.765 c 0,0 3.364,4.523 3.364,2.45 0,-1.342 -3.365,-3.833 -3.365,-3.833 h -1.9 c 0,0 -3.882,3.119 -3.363,3.832 0,2.074 3.364,-2.45 3.364,-2.45 z m -0.4,-21.122 c 0,0 -1.9,-1.383 -1.9,-2.074 -0.037,-0.644 2.026,-2.09 2.85,-2.074 1.076,-0.015 2.85,1.383 2.85,2.074 0,0.691 -1.9,2.074 -1.9,2.074 v 2.765 c 0,0 3.364,-4.524 3.364,-2.45 0,1.342 -3.365,3.833 -3.365,3.833 h -1.9 c 0,0 -3.882,-3.12 -3.363,-3.832 0,-2.074 3.364,2.45 3.364,2.45 z m 66.25,20.679 c 0,0 -1.9,1.384 -1.9,2.075 -0.037,0.644 2.026,2.089 2.85,2.074 1.076,0.015 2.85,-1.383 2.85,-2.074 0,-0.691 -1.9,-2.074 -1.9,-2.074 v -2.765 c 0,0 3.364,4.523 3.364,2.45 0,-1.342 -3.365,-3.833 -3.365,-3.833 h -1.9 c 0,0 -3.882,3.119 -3.363,3.832 0,2.074 3.364,-2.45 3.364,-2.45 v 2.766 z m -0.4,-21.119 c 0,0 -1.9,-1.383 -1.9,-2.074 -0.037,-0.644 2.026,-2.09 2.85,-2.074 1.076,-0.015 2.85,1.383 2.85,2.074 0,0.691 -1.9,2.074 -1.9,2.074 v 2.765 c 0,0 3.364,-4.524 3.364,-2.45 0,1.342 -3.365,3.833 -3.365,3.833 h -1.9 c 0,0 -3.882,-3.12 -3.363,-3.832 0,-2.074 3.364,2.45 3.364,2.45 z"
         id="path389"
         inkscape:connector-curvature="0"
         style="fill:#ca3745" />
      <path
         d="m -120.285,145.363 c -0.615,-1.277 -0.453,-1.86 -0.453,-2.597 -0.028,-0.687 1.716,-2.025 2.336,-2.009 0.809,-0.016 2.143,1.474 2.143,2.21 0,0.737 0.034,1.374 -0.298,2.644 l -0.893,-2.154 c -1.084,3.056 -1.143,3.127 -1.787,-0.074 z m 0.06,-21.433 c -0.615,1.278 -0.453,1.862 -0.453,2.598 -0.028,0.687 1.716,2.025 2.336,2.009 0.809,0.016 2.143,-1.474 2.143,-2.21 0,-0.737 0.034,-1.374 -0.298,-2.644 l -0.893,2.154 c -1.084,-3.056 -1.143,-3.127 -1.787,0.074 l -1.048,-1.98 z m 92.42,21.163 c -0.615,-1.277 -0.453,-1.86 -0.453,-2.597 -0.028,-0.687 1.716,-2.025 2.336,-2.009 0.809,-0.016 2.143,1.474 2.143,2.21 0,0.737 0.034,1.374 -0.298,2.644 l -0.893,-2.154 c -1.084,3.056 -1.143,3.127 -1.787,-0.074 z m 0.05,-21.438 c -0.615,1.277 -0.453,1.86 -0.453,2.597 -0.028,0.687 1.716,2.025 2.336,2.009 0.809,0.016 2.143,-1.474 2.143,-2.21 0,-0.737 0.034,-1.374 -0.298,-2.644 l -0.893,2.154 c -1.084,-3.056 -1.143,-3.127 -1.787,0.074 z"
         id="path391"
         inkscape:connector-curvature="0"
         style="fill:#ffffff" />
      <path
         d="m 115.16,177.16 v -5.315 H 99.216 v -10.63 H 85.043 v -3.543 H 72.641 v -31.89 h 12.402 v -3.543 h 14.173 v -10.63 h 15.944 v -5.315 h 21.26 v 5.315 h 15.945 v 10.63 h 14.173 v 3.543 h 12.402 v 31.89 h -12.402 v 3.543 h -14.173 v 10.63 H 136.42 v 5.315 z m -1.772,1.772 v -5.315 H 97.444 v -10.63 H 83.271 v -3.543 H 70.869 v -35.433 h 12.402 v -3.544 h 14.173 v -10.63 h 15.945 v -5.315 h 24.803 v 5.315 h 15.945 v 10.63 h 14.173 v 3.544 h 12.402 v 35.433 H 168.31 v 3.543 h -14.173 v 10.63 h -15.945 v 5.315 z"
         transform="matrix(1,0,0,0.99999,-198.43,-7.085)"
         id="path393"
         inkscape:connector-curvature="0"
         style="fill:#ca3745;stroke:#000000;stroke-width:0.133" />
    </g>
  </g>
</svg>
