<?xml version="1.0" encoding="UTF-8" standalone="no"?>
<svg
   xmlns:dc="http://purl.org/dc/elements/1.1/"
   xmlns:cc="http://creativecommons.org/ns#"
   xmlns:rdf="http://www.w3.org/1999/02/22-rdf-syntax-ns#"
   xmlns:svg="http://www.w3.org/2000/svg"
   xmlns="http://www.w3.org/2000/svg"
   xmlns:sodipodi="http://sodipodi.sourceforge.net/DTD/sodipodi-0.dtd"
   xmlns:inkscape="http://www.inkscape.org/namespaces/inkscape"
   height="15.999998"
   width="21.333332"
   viewBox="0 0 21.333332 15.999998"
   version="1.1"
   id="svg12"
   sodipodi:docname="tr.svg"
   inkscape:version="0.92.1 r">
  <metadata
     id="metadata18">
    <rdf:RDF>
      <cc:Work
         rdf:about="">
        <dc:format>image/svg+xml</dc:format>
        <dc:type
           rdf:resource="http://purl.org/dc/dcmitype/StillImage" />
        <dc:title></dc:title>
      </cc:Work>
    </rdf:RDF>
  </metadata>
  <defs
     id="defs16" />
  <sodipodi:namedview
     pagecolor="#ffffff"
     bordercolor="#666666"
     borderopacity="1"
     objecttolerance="10"
     gridtolerance="10"
     guidetolerance="10"
     inkscape:pageopacity="0"
     inkscape:pageshadow="2"
     inkscape:window-width="1920"
     inkscape:window-height="1024"
     id="namedview14"
     showgrid="false"
     fit-margin-top="0"
     fit-margin-left="0"
     fit-margin-right="0"
     fit-margin-bottom="0"
     inkscape:zoom="0.49166667"
     inkscape:cx="320"
     inkscape:cy="240"
     inkscape:window-x="0"
     inkscape:window-y="0"
     inkscape:window-maximized="1"
     inkscape:current-layer="svg12" />
  <g
     id="g10"
     transform="scale(0.03333333)"
     style="fill-rule:evenodd">
    <path
       d="M 0,0 H 640 V 480 H 0 Z"
       id="path2"
       inkscape:connector-curvature="0"
       style="fill:#f31930" />
    <path
       d="m 406.977,247.473 c 0,66.215 -54.606,119.89 -121.97,119.89 -67.364,0 -121.967,-53.677 -121.967,-119.891 0,-66.214 54.606,-119.89 121.968,-119.89 67.362,0 121.97,53.677 121.97,119.89 z"
       id="path4"
       inkscape:connector-curvature="0"
       style="fill:#ffffff" />
    <path
       d="m 413.077,247.467 c 0,52.97 -43.686,95.91 -97.575,95.91 -53.889,0 -97.574,-42.94 -97.574,-95.91 0,-52.97 43.686,-95.91 97.574,-95.91 53.888,0 97.575,42.94 97.575,95.91 z"
       id="path6"
       inkscape:connector-curvature="0"
       style="fill:#f31830" />
    <path
       d="m 430.726,191.465 -0.985,44.318 -41.345,11.225 40.756,14.514 -0.984,40.642 26.58,-31.738 40.164,13.934 -23.233,-34.06 28.352,-33.868 -43.513,11.998 -25.793,-36.964 z"
       id="path8"
       inkscape:connector-curvature="0"
       style="fill:#ffffff" />
  </g>
</svg>
