<?xml version="1.0" encoding="UTF-8" standalone="no"?>
<svg
   xmlns:dc="http://purl.org/dc/elements/1.1/"
   xmlns:cc="http://creativecommons.org/ns#"
   xmlns:rdf="http://www.w3.org/1999/02/22-rdf-syntax-ns#"
   xmlns:svg="http://www.w3.org/2000/svg"
   xmlns="http://www.w3.org/2000/svg"
   xmlns:sodipodi="http://sodipodi.sourceforge.net/DTD/sodipodi-0.dtd"
   xmlns:inkscape="http://www.inkscape.org/namespaces/inkscape"
   height="16"
   width="21.333437"
   viewBox="0 0 21.333437 16"
   version="1.1"
   id="svg19"
   sodipodi:docname="tw.svg"
   inkscape:version="0.92.1 r">
  <metadata
     id="metadata23">
    <rdf:RDF>
      <cc:Work
         rdf:about="">
        <dc:format>image/svg+xml</dc:format>
        <dc:type
           rdf:resource="http://purl.org/dc/dcmitype/StillImage" />
        <dc:title></dc:title>
      </cc:Work>
    </rdf:RDF>
  </metadata>
  <sodipodi:namedview
     pagecolor="#ffffff"
     bordercolor="#666666"
     borderopacity="1"
     objecttolerance="10"
     gridtolerance="10"
     guidetolerance="10"
     inkscape:pageopacity="0"
     inkscape:pageshadow="2"
     inkscape:window-width="1920"
     inkscape:window-height="1024"
     id="namedview21"
     showgrid="false"
     fit-margin-top="0"
     fit-margin-left="0"
     fit-margin-right="0"
     fit-margin-bottom="0"
     inkscape:zoom="0.49166667"
     inkscape:cx="320"
     inkscape:cy="240"
     inkscape:window-x="0"
     inkscape:window-y="0"
     inkscape:window-maximized="1"
     inkscape:current-layer="svg19" />
  <defs
     id="defs5">
    <clipPath
       id="a">
      <path
         d="M 0,0 H 682.67 V 512 H 0 Z"
         id="path2"
         inkscape:connector-curvature="0"
         style="fill-opacity:0.67000002" />
    </clipPath>
  </defs>
  <g
     clip-path="url(#a)"
     transform="scale(0.03125)"
     id="g17"
     style="fill-rule:evenodd;stroke-width:1.00000003pt">
    <path
       d="M 0,0 H 768 V 512 H 0 Z"
       id="path7"
       inkscape:connector-curvature="0"
       style="fill:#de2110" />
    <path
       d="M 0,0 H 385.69 V 256 H 0 Z"
       id="path9"
       inkscape:connector-curvature="0"
       style="fill:#08399c" />
    <path
       d="m 282.098,178.555 -47.332,-9.733 10.083,47.26 -36.133,-32.088 -14.904,45.97 -15.244,-45.867 -35.886,32.367 9.733,-47.332 -47.26,10.073 32.088,-36.123 -45.969,-14.904 45.855,-15.244 -32.356,-35.89 47.332,9.73 -10.073,-47.262 36.123,32.093 14.904,-45.97 15.244,45.859 35.886,-32.36 -9.733,47.335 47.26,-10.08 -32.088,36.132 45.97,14.893 -45.856,15.244 z"
       id="path11"
       inkscape:connector-curvature="0"
       style="fill:#ffffff" />
    <path
       d="m 238.47,174.924 -14.935,7.932 -14.57,8.608 -16.918,-0.583 -16.919,0.198 -14.36,-8.941 -14.759,-8.275 -7.953,-14.906 -8.631,-14.52 0.574,-16.874 -0.188,-16.883 8.965,-14.32 8.298,-14.716 14.935,-7.934 14.57,-8.607 16.919,0.58 16.928,-0.193 14.362,8.94 14.747,8.275 7.953,14.901 8.632,14.52 -0.574,16.874 0.187,16.883 -8.965,14.323 z"
       id="path13"
       inkscape:connector-curvature="0"
       style="fill:#005387" />
    <path
       d="m 244.637,128.28 c 0,28.646 -23.222,51.867 -51.866,51.867 -28.644,0 -51.867,-23.221 -51.867,-51.866 0,-28.645 23.222,-51.866 51.867,-51.866 28.645,0 51.866,23.221 51.866,51.866 z"
       id="path15"
       inkscape:connector-curvature="0"
       style="fill:#ffffff" />
  </g>
</svg>
