<?xml version="1.0" encoding="UTF-8" standalone="no"?>
<svg
   xmlns:dc="http://purl.org/dc/elements/1.1/"
   xmlns:cc="http://creativecommons.org/ns#"
   xmlns:rdf="http://www.w3.org/1999/02/22-rdf-syntax-ns#"
   xmlns:svg="http://www.w3.org/2000/svg"
   xmlns="http://www.w3.org/2000/svg"
   xmlns:sodipodi="http://sodipodi.sourceforge.net/DTD/sodipodi-0.dtd"
   xmlns:inkscape="http://www.inkscape.org/namespaces/inkscape"
   height="16"
   width="21.333437"
   viewBox="0 0 21.333437 16"
   version="1.1"
   id="svg51"
   sodipodi:docname="ug.svg"
   inkscape:version="0.92.1 r">
  <metadata
     id="metadata55">
    <rdf:RDF>
      <cc:Work
         rdf:about="">
        <dc:format>image/svg+xml</dc:format>
        <dc:type
           rdf:resource="http://purl.org/dc/dcmitype/StillImage" />
        <dc:title></dc:title>
      </cc:Work>
    </rdf:RDF>
  </metadata>
  <sodipodi:namedview
     pagecolor="#ffffff"
     bordercolor="#666666"
     borderopacity="1"
     objecttolerance="10"
     gridtolerance="10"
     guidetolerance="10"
     inkscape:pageopacity="0"
     inkscape:pageshadow="2"
     inkscape:window-width="1920"
     inkscape:window-height="1024"
     id="namedview53"
     showgrid="false"
     fit-margin-top="0"
     fit-margin-left="0"
     fit-margin-right="0"
     fit-margin-bottom="0"
     inkscape:zoom="0.49166667"
     inkscape:cx="319.99969"
     inkscape:cy="240"
     inkscape:window-x="0"
     inkscape:window-y="0"
     inkscape:window-maximized="1"
     inkscape:current-layer="svg51" />
  <defs
     id="defs5">
    <clipPath
       id="a">
      <path
         d="m -85.333,0 h 682.67 v 512 h -682.67 z"
         id="path2"
         inkscape:connector-curvature="0"
         style="fill-opacity:0.67000002" />
    </clipPath>
  </defs>
  <g
     clip-path="url(#a)"
     transform="matrix(0.03125,0,0,0.03125,2.6666563,0)"
     id="g49">
    <path
       d="m -128,341.36 h 768 v 85.321 h -768 z"
       id="path7"
       inkscape:connector-curvature="0"
       style="fill:#ffe700;fill-rule:evenodd" />
    <path
       d="m -128,256 h 768 v 85.321 h -768 z"
       id="path9"
       inkscape:connector-curvature="0"
       style="fill-rule:evenodd" />
    <path
       d="m -128,170.68 h 768 v 85.321 h -768 z"
       id="path11"
       inkscape:connector-curvature="0"
       style="fill:#de3908;fill-rule:evenodd" />
    <path
       d="m -128,85.358 h 768 v 85.321 h -768 z"
       id="path13"
       inkscape:connector-curvature="0"
       style="fill:#ffe700;fill-rule:evenodd" />
    <path
       d="M -128,0 H 640 V 85.321 H -128 Z"
       id="path15"
       inkscape:connector-curvature="0"
       style="fill-rule:evenodd" />
    <path
       d="m 335.71,255.997 c 0,44.023 -35.688,79.71 -79.71,79.71 -44.022,0 -79.71,-35.687 -79.71,-79.71 0,-44.023 35.687,-79.71 79.71,-79.71 44.023,0 79.71,35.687 79.71,79.71 z"
       id="path17"
       inkscape:connector-curvature="0"
       style="fill:#fffdff;fill-rule:evenodd;stroke:#000000;stroke-width:0.98563087" />
    <path
       d="m 241.936,194.89 -5.175,-9.531 c 1.997,-1.997 5.356,-3.54 10.712,-3.54 0,0.363 -0.545,10.44 -0.545,10.44 l -4.992,2.632 z"
       id="path19"
       inkscape:connector-curvature="0"
       style="fill:#de3108;fill-rule:evenodd;stroke:#000000;stroke-width:0.98563087" />
    <path
       d="m 246.926,192.354 0.727,-10.53 c 0,0 10.712,-0.636 16.522,6.354 0.09,-0.09 -5.72,8.17 -5.72,8.17 z"
       id="path21"
       inkscape:connector-curvature="0"
       style="fill:#ffe700;fill-rule:evenodd;stroke:#000000;stroke-width:0.98563087" />
    <path
       d="m 258.64,196.256 5.265,-8.17 c 3.54,3.723 4.993,6.355 5.538,10.35 0.09,0.09 -8.352,2.087 -8.352,1.996 0,-0.091 -2.36,-4.085 -2.45,-4.176 z"
       id="path23"
       inkscape:connector-curvature="0"
       style="fill:#de3108;fill-rule:evenodd;stroke:#000000;stroke-width:0.98563087" />
    <path
       d="m 244.57,331.153 c 0,0 9.895,-11.348 29.14,-8.896 -2.905,-4.72 -12.255,-4.176 -12.255,-4.176 0,0 -2.905,-22.06 -0.636,-23.15 2.269,-1.09 11.892,0.092 11.892,0.092 1.27,0 3.45,-3.45 1.726,-5.629 -1.726,-2.179 -6.809,-10.53 -4.721,-12.165 2.088,-1.634 13.435,0.908 13.435,0.908 l -32.045,-41.032 c 0,0 -3.268,-15.433 3.268,-22.877 7.898,-6.536 7.081,-13.617 6.809,-13.527 -1.09,-7.171 -11.983,-12.346 -19.337,-5.719 -4.357,5.265 -1.452,9.26 -1.452,9.26 0,0 -11.439,3.086 -11.893,5.083 -0.454,1.998 12.891,-0.362 12.891,-0.362 l -1.27,9.169 c 0,0 -25.964,23.602 -6.083,44.028 0.182,-0.091 0.636,-0.908 0.636,-0.908 0,0 6.99,8.624 14.342,10.53 6.9,7.082 6.265,5.992 6.265,5.992 0,0 1.361,11.166 0.09,13.345 -1.724,-0.545 -19.335,-1.18 -21.969,-0.182 -2.36,0.727 -11.438,0.273 -9.168,15.07 1.724,-3.994 3.268,-7.535 3.268,-7.535 0,0 -0.273,5.356 1.906,7.263 -0.363,-5.63 2.088,-9.441 2.088,-9.441 0,0 0.454,6.173 1.816,7.08 1.362,0.908 1.362,-9.986 8.897,-9.078 7.534,0.908 12.981,0.636 12.981,0.636 0,0 2.542,21.333 1.725,23.33 -5.448,-1.27 -18.429,0.545 -19.246,3.813 7.625,-0.454 11.167,0.454 11.167,0.454 0,0 -6.173,5.447 -4.267,8.624 z"
       id="path25"
       inkscape:connector-curvature="0"
       style="fill-rule:evenodd;stroke:#000000;stroke-width:0.92394227;stroke-linecap:round;stroke-linejoin:round" />
    <path
       d="m 247.626,214.749 c 0,0 -18.892,20.823 -10.741,36.757 0.434,-2.222 0.245,-3.618 0.517,-3.527 -0.454,-0.272 2.343,1.917 2.13,1.491 0.06,-1.152 -0.852,-3.62 -0.852,-3.62 l 2.556,0.638 -1.491,-2.769 3.621,0.426 c 0,0 -1.278,-3.408 -0.851,-3.408 0.425,0 2.981,0.212 2.981,0.212 -5.372,-9.641 -0.304,-17.648 2.13,-26.2 z"
       id="path27"
       inkscape:connector-curvature="0"
       style="fill:#9ca69c;fill-rule:evenodd;stroke:#9ca69c;stroke-width:0.92394227;stroke-linecap:round;stroke-linejoin:round" />
    <path
       d="m 254.19,196.887 c 0,0 1,7.172 -2.905,9.26 -0.635,0.454 -3.086,1.27 -2.723,2.724 0.454,1.997 1.543,1.633 3.087,1.27 4.084,-0.726 8.805,-9.441 2.541,-13.254 z"
       id="path29"
       inkscape:connector-curvature="0"
       style="fill:#9ca69c;fill-rule:evenodd;stroke:#9ca69c;stroke-width:0.98563087" />
    <path
       d="m 247.204,203.063 a 1.5435,1.5435 0 1 1 -3.087,0 1.5435,1.5435 0 0 1 3.087,0 z"
       id="path31"
       inkscape:connector-curvature="0"
       style="fill:#ffffff;fill-rule:evenodd" />
    <path
       d="m 241.118,209.052 c -0.999,0.817 -6.264,6.264 -1.09,8.26 5.357,-1.452 3.904,-2.45 5.084,-3.63 0.03,-2.451 -2.663,-3.087 -3.994,-4.63 z"
       id="path33"
       inkscape:connector-curvature="0"
       style="fill:#de3108;fill-rule:evenodd;stroke:#000000;stroke-width:0.98563087" />
    <path
       d="m 252.554,260.53 c -0.272,1.18 -1.452,5.538 0.182,8.897 4.54,-1.907 6.627,-1.362 8.17,-0.364 -3.72,-2.995 -5.174,-4.267 -8.352,-8.533 z"
       id="path35"
       inkscape:connector-curvature="0"
       style="fill:#9ca69c;fill-rule:evenodd;stroke:#9ca69c;stroke-width:0.92394227;stroke-linecap:round;stroke-linejoin:round" />
    <path
       d="m 260.366,281.137 0.272,10.168 c 0,0 3.541,0.635 5.175,0 1.634,-0.636 -0.091,-7.081 -5.447,-10.168 z"
       id="path37"
       inkscape:connector-curvature="0"
       style="fill:#ffffff;fill-rule:evenodd;stroke:#ffffff;stroke-width:0.92394227;stroke-linecap:round;stroke-linejoin:round" />
    <path
       d="m 286.053,282.405 c 0,0 -6.536,-15.795 -23.24,-19.79 -16.704,-3.995 -14.525,-21.787 -13.163,-22.877 0.727,-1.543 1.271,-3.903 6.082,-1.633 4.812,2.27 26.963,13.435 30.14,13.98 3.177,0.545 0.454,30.684 0.181,30.32 z"
       id="path39"
       inkscape:connector-curvature="0"
       style="fill:#9ca69c;fill-rule:evenodd;stroke:#000000;stroke-width:0.98563087" />
    <path
       d="m 270.167,262.526 c -0.272,0.182 22.332,13.345 15.523,24.693 6.446,-4.267 4.358,-11.71 4.358,-11.71 0,0 5.265,13.707 -7.535,20.425 1.362,1.18 2.27,0.907 2.27,0.907 l -2.18,2.18 c 0,0 -0.998,1.633 7.627,-2.543 -2.361,1.907 -2.542,3.268 -2.542,3.268 0,0 0.635,1.816 6.264,-3.086 -4.54,4.902 -5.538,7.444 -5.538,7.353 12.255,-1.09 38.944,-40.942 -8.443,-52.744 2.543,2.634 2.179,2.27 2.179,2.27 z"
       id="path41"
       inkscape:connector-curvature="0"
       style="fill:#de3108;fill-rule:evenodd;stroke:#000000;stroke-width:0.92394227;stroke-linejoin:round" />
    <path
       d="m 271.165,258.624 c 3.087,2.179 4.175,2.905 4.539,3.995 -2.814,-0.635 -5.356,-0.454 -5.356,-0.454 0,0 -6.082,-5.81 -7.172,-6.264 -0.817,0 -5.537,-2.996 -5.537,-2.996 -2.36,-1.18 -4.539,-9.35 4.176,-6.99 8.986,4.266 10.257,4.63 10.257,4.63 l 10.713,3.359 6.173,6.9 c 0,0 -10.984,-5.448 -12.346,-5.539 2.995,2.451 4.72,5.81 4.72,5.81 -3.48,-0.999 -6.505,-1.906 -10.167,-2.45 z"
       id="path43"
       inkscape:connector-curvature="0"
       style="fill:#ffffff;fill-rule:evenodd;stroke:#000000;stroke-width:0.92394227;stroke-linecap:round;stroke-linejoin:round" />
    <path
       d="m 228.413,209.87 c 0,0 10.53,-2.542 11.801,-2.18"
       id="path45"
       inkscape:connector-curvature="0"
       style="fill:none;stroke:#ffffff;stroke-width:0.92394227;stroke-linecap:round" />
    <path
       d="m -128,426.68 h 768 v 85.321 h -768 z"
       id="path47"
       inkscape:connector-curvature="0"
       style="fill:#de3908;fill-rule:evenodd" />
  </g>
</svg>
