<?xml version="1.0" encoding="UTF-8" standalone="no"?>
<svg
   xmlns:dc="http://purl.org/dc/elements/1.1/"
   xmlns:cc="http://creativecommons.org/ns#"
   xmlns:rdf="http://www.w3.org/1999/02/22-rdf-syntax-ns#"
   xmlns:svg="http://www.w3.org/2000/svg"
   xmlns="http://www.w3.org/2000/svg"
   xmlns:sodipodi="http://sodipodi.sourceforge.net/DTD/sodipodi-0.dtd"
   xmlns:inkscape="http://www.inkscape.org/namespaces/inkscape"
   height="16"
   width="21.333437"
   viewBox="0 0 21.333437 16"
   version="1.1"
   id="svg57"
   sodipodi:docname="um.svg"
   inkscape:version="0.92.1 r">
  <metadata
     id="metadata61">
    <rdf:RDF>
      <cc:Work
         rdf:about="">
        <dc:format>image/svg+xml</dc:format>
        <dc:type
           rdf:resource="http://purl.org/dc/dcmitype/StillImage" />
        <dc:title></dc:title>
      </cc:Work>
    </rdf:RDF>
  </metadata>
  <sodipodi:namedview
     pagecolor="#ffffff"
     bordercolor="#666666"
     borderopacity="1"
     objecttolerance="10"
     gridtolerance="10"
     guidetolerance="10"
     inkscape:pageopacity="0"
     inkscape:pageshadow="2"
     inkscape:window-width="1920"
     inkscape:window-height="1024"
     id="namedview59"
     showgrid="false"
     fit-margin-top="0"
     fit-margin-left="0"
     fit-margin-right="0"
     fit-margin-bottom="0"
     inkscape:zoom="0.49166667"
     inkscape:cx="320"
     inkscape:cy="240"
     inkscape:window-x="0"
     inkscape:window-y="0"
     inkscape:window-maximized="1"
     inkscape:current-layer="svg57" />
  <defs
     id="defs5">
    <clipPath
       id="a">
      <path
         d="M 0,0 H 682.67 V 512 H 0 Z"
         id="path2"
         inkscape:connector-curvature="0"
         style="fill-opacity:0.67000002" />
    </clipPath>
  </defs>
  <g
     clip-path="url(#a)"
     transform="scale(0.03125)"
     id="g55"
     style="fill-rule:evenodd">
    <g
       id="g15"
       style="stroke-width:1.00000003pt">
      <g
         id="g9"
         style="fill:#bd3d44">
        <path
           d="M 0,0 H 972.81 V 39.385 H 0 Z m 0,78.77 h 972.81 v 39.385 H 0 Z m 0,78.77 h 972.81 v 39.385 H 0 Z m 0,78.77 h 972.81 v 39.385 H 0 Z m 0,78.77 h 972.81 v 39.385 H 0 Z m 0,78.77 h 972.81 v 39.385 H 0 Z m 0,78.77 h 972.81 v 39.385 H 0 Z"
           id="path7"
           inkscape:connector-curvature="0" />
      </g>
      <g
         id="g13"
         style="fill:#ffffff">
        <path
           d="M 0,39.385 H 972.81 V 78.77 H 0 Z m 0,78.77 H 972.81 V 157.54 H 0 Z m 0,78.77 H 972.81 V 236.31 H 0 Z m 0,78.77 H 972.81 V 315.08 H 0 Z m 0,78.77 H 972.81 V 393.85 H 0 Z m 0,78.77 H 972.81 V 472.62 H 0 Z"
           id="path11"
           inkscape:connector-curvature="0" />
      </g>
    </g>
    <path
       d="M 0,0 H 389.12 V 275.69 H 0 Z"
       id="path17"
       inkscape:connector-curvature="0"
       style="fill:#192f5d" />
    <g
       id="g53"
       style="fill:#ffffff">
      <path
         d="m 32.427,11.8 3.54,10.896 h 11.458 l -9.27,6.735 3.541,10.896 -9.27,-6.734 -9.268,6.734 3.54,-10.896 -9.269,-6.735 h 11.457 z m 64.853,0 3.541,10.896 h 11.458 l -9.27,6.735 3.541,10.896 -9.27,-6.734 -9.268,6.734 3.54,-10.896 -9.269,-6.735 H 93.74 Z m 64.856,0 3.54,10.896 h 11.458 l -9.27,6.735 3.541,10.896 -9.269,-6.734 -9.269,6.734 3.54,-10.896 -9.269,-6.735 h 11.458 z m 64.852,0 3.54,10.896 h 11.457 l -9.269,6.735 3.54,10.896 -9.268,-6.734 -9.27,6.734 3.541,-10.896 -9.27,-6.735 h 11.458 z m 64.855,0 3.54,10.896 h 11.458 l -9.27,6.735 3.541,10.896 -9.27,-6.734 -9.268,6.734 3.54,-10.896 -9.269,-6.735 h 11.457 z m 64.855,0 3.54,10.896 h 11.458 l -9.27,6.735 3.541,10.896 -9.269,-6.734 -9.27,6.734 3.542,-10.896 -9.27,-6.735 h 11.458 z"
         id="path19"
         inkscape:connector-curvature="0" />
      <g
         id="g23">
        <path
           d="m 64.855,39.37 3.54,10.896 H 79.853 L 70.583,57 74.125,67.897 64.855,61.163 55.586,67.897 59.126,57 49.857,50.266 h 11.458 z m 64.852,0 3.54,10.896 h 11.457 l -9.269,6.734 3.54,10.897 -9.268,-6.734 -9.27,6.734 3.541,-10.897 -9.27,-6.734 h 11.458 z m 64.855,0 3.54,10.896 h 11.458 l -9.27,6.734 3.541,10.897 -9.27,-6.734 -9.268,6.734 3.54,-10.897 -9.269,-6.734 h 11.457 z m 64.855,0 3.54,10.896 h 11.458 l -9.27,6.734 3.541,10.897 -9.269,-6.734 -9.27,6.734 L 253.69,57 244.42,50.266 h 11.458 z m 64.852,0 3.54,10.896 h 11.457 l -9.269,6.734 3.54,10.897 -9.268,-6.734 -9.27,6.734 L 318.54,57 309.27,50.266 h 11.458 z"
           id="path21"
           inkscape:connector-curvature="0" />
      </g>
      <g
         id="g31">
        <path
           d="m 32.427,66.939 3.54,10.896 h 11.458 l -9.27,6.735 3.541,10.896 -9.27,-6.734 -9.268,6.734 3.54,-10.896 -9.269,-6.735 h 11.457 z m 64.853,0 3.541,10.896 h 11.458 l -9.27,6.735 3.541,10.896 -9.27,-6.734 -9.268,6.734 3.54,-10.896 -9.269,-6.735 H 93.74 Z m 64.856,0 3.54,10.896 h 11.458 l -9.27,6.735 3.541,10.896 -9.269,-6.734 -9.269,6.734 3.54,-10.896 -9.269,-6.735 h 11.458 z m 64.852,0 3.54,10.896 h 11.457 l -9.269,6.735 3.54,10.896 -9.268,-6.734 -9.27,6.734 3.541,-10.896 -9.27,-6.735 h 11.458 z m 64.855,0 3.54,10.896 h 11.458 l -9.27,6.735 3.541,10.896 -9.27,-6.734 -9.268,6.734 3.54,-10.896 -9.269,-6.735 h 11.457 z m 64.855,0 3.54,10.896 h 11.458 l -9.27,6.735 3.541,10.896 -9.269,-6.734 -9.27,6.734 3.542,-10.896 -9.27,-6.735 h 11.458 z"
           id="path25"
           inkscape:connector-curvature="0" />
        <g
           id="g29">
          <path
             d="m 64.855,94.508 3.54,10.897 h 11.458 l -9.27,6.734 3.542,10.897 -9.27,-6.734 -9.269,6.734 3.54,-10.897 -9.269,-6.734 h 11.458 z m 64.852,0 3.54,10.897 h 11.457 l -9.269,6.734 3.54,10.897 -9.268,-6.734 -9.27,6.734 3.541,-10.897 -9.27,-6.734 h 11.458 z m 64.855,0 3.54,10.897 h 11.458 l -9.27,6.734 3.541,10.897 -9.27,-6.734 -9.268,6.734 3.54,-10.897 -9.269,-6.734 h 11.457 z m 64.855,0 3.54,10.897 h 11.458 l -9.27,6.734 3.541,10.897 -9.269,-6.734 -9.27,6.734 3.542,-10.897 -9.27,-6.734 h 11.458 z m 64.852,0 3.54,10.897 h 11.457 l -9.269,6.734 3.54,10.897 -9.268,-6.734 -9.27,6.734 3.541,-10.897 -9.27,-6.734 h 11.458 z"
             id="path27"
             inkscape:connector-curvature="0" />
        </g>
      </g>
      <g
         id="g39">
        <path
           d="m 32.427,122.078 3.54,10.896 h 11.458 l -9.27,6.735 3.541,10.896 -9.27,-6.734 -9.268,6.734 3.54,-10.896 -9.269,-6.735 h 11.457 z m 64.853,0 3.541,10.896 h 11.458 l -9.27,6.735 3.541,10.896 -9.27,-6.734 -9.268,6.734 3.54,-10.896 -9.269,-6.735 H 93.74 Z m 64.856,0 3.54,10.896 h 11.458 l -9.27,6.735 3.541,10.896 -9.269,-6.734 -9.269,6.734 3.54,-10.896 -9.269,-6.735 h 11.458 z m 64.852,0 3.54,10.896 h 11.457 l -9.269,6.735 3.54,10.896 -9.268,-6.734 -9.27,6.734 3.541,-10.896 -9.27,-6.735 h 11.458 z m 64.855,0 3.54,10.896 h 11.458 l -9.27,6.735 3.541,10.896 -9.27,-6.734 -9.268,6.734 3.54,-10.896 -9.269,-6.735 h 11.457 z m 64.855,0 3.54,10.896 h 11.458 l -9.27,6.735 3.541,10.896 -9.269,-6.734 -9.27,6.734 3.542,-10.896 -9.27,-6.735 h 11.458 z"
           id="path33"
           inkscape:connector-curvature="0" />
        <g
           id="g37">
          <path
             d="m 64.855,149.647 3.54,10.897 h 11.458 l -9.27,6.734 3.542,10.897 -9.27,-6.734 -9.269,6.734 3.54,-10.897 -9.269,-6.734 h 11.458 z m 64.852,0 3.54,10.897 h 11.457 l -9.269,6.734 3.54,10.897 -9.268,-6.734 -9.27,6.734 3.541,-10.897 -9.27,-6.734 h 11.458 z m 64.855,0 3.54,10.897 h 11.458 l -9.27,6.734 3.541,10.897 -9.27,-6.734 -9.268,6.734 3.54,-10.897 -9.269,-6.734 h 11.457 z m 64.855,0 3.54,10.897 h 11.458 l -9.27,6.734 3.541,10.897 -9.269,-6.734 -9.27,6.734 3.542,-10.897 -9.27,-6.734 h 11.458 z m 64.852,0 3.54,10.897 h 11.457 l -9.269,6.734 3.54,10.897 -9.268,-6.734 -9.27,6.734 3.541,-10.897 -9.27,-6.734 h 11.458 z"
             id="path35"
             inkscape:connector-curvature="0" />
        </g>
      </g>
      <g
         id="g47">
        <path
           d="m 32.427,177.217 3.54,10.896 h 11.458 l -9.27,6.735 3.541,10.896 -9.27,-6.734 -9.268,6.734 3.54,-10.896 -9.269,-6.735 h 11.457 z m 64.853,0 3.541,10.896 h 11.458 l -9.27,6.735 3.541,10.896 -9.27,-6.734 -9.268,6.734 3.54,-10.896 -9.269,-6.735 H 93.74 Z m 64.856,0 3.54,10.896 h 11.458 l -9.27,6.735 3.541,10.896 -9.269,-6.734 -9.269,6.734 3.54,-10.896 -9.269,-6.735 h 11.458 z m 64.852,0 3.54,10.896 h 11.457 l -9.269,6.735 3.54,10.896 -9.268,-6.734 -9.27,6.734 3.541,-10.896 -9.27,-6.735 h 11.458 z m 64.855,0 3.54,10.896 h 11.458 l -9.27,6.735 3.541,10.896 -9.27,-6.734 -9.268,6.734 3.54,-10.896 -9.269,-6.735 h 11.457 z m 64.855,0 3.54,10.896 h 11.458 l -9.27,6.735 3.541,10.896 -9.269,-6.734 -9.27,6.734 3.542,-10.896 -9.27,-6.735 h 11.458 z"
           id="path41"
           inkscape:connector-curvature="0" />
        <g
           id="g45">
          <path
             d="m 64.855,204.786 3.54,10.897 h 11.458 l -9.27,6.734 3.542,10.897 -9.27,-6.734 -9.269,6.734 3.54,-10.897 -9.269,-6.734 h 11.458 z m 64.852,0 3.54,10.897 h 11.457 l -9.269,6.734 3.54,10.897 -9.268,-6.734 -9.27,6.734 3.541,-10.897 -9.27,-6.734 h 11.458 z m 64.855,0 3.54,10.897 h 11.458 l -9.27,6.734 3.541,10.897 -9.27,-6.734 -9.268,6.734 3.54,-10.897 -9.269,-6.734 h 11.457 z m 64.855,0 3.54,10.897 h 11.458 l -9.27,6.734 3.541,10.897 -9.269,-6.734 -9.27,6.734 3.542,-10.897 -9.27,-6.734 h 11.458 z m 64.852,0 3.54,10.897 h 11.457 l -9.269,6.734 3.54,10.897 -9.268,-6.734 -9.27,6.734 3.541,-10.897 -9.27,-6.734 h 11.458 z"
             id="path43"
             inkscape:connector-curvature="0" />
        </g>
      </g>
      <g
         id="g51">
        <path
           d="m 32.427,232.356 3.54,10.896 h 11.458 l -9.27,6.735 3.541,10.896 -9.27,-6.734 -9.268,6.734 3.54,-10.896 -9.269,-6.735 h 11.457 z m 64.853,0 3.541,10.896 h 11.458 l -9.27,6.735 3.541,10.896 -9.27,-6.734 -9.268,6.734 3.54,-10.896 -9.269,-6.735 H 93.74 Z m 64.856,0 3.54,10.896 h 11.458 l -9.27,6.735 3.541,10.896 -9.269,-6.734 -9.269,6.734 3.54,-10.896 -9.269,-6.735 h 11.458 z m 64.852,0 3.54,10.896 h 11.457 l -9.269,6.735 3.54,10.896 -9.268,-6.734 -9.27,6.734 3.541,-10.896 -9.27,-6.735 h 11.458 z m 64.855,0 3.54,10.896 h 11.458 l -9.27,6.735 3.541,10.896 -9.27,-6.734 -9.268,6.734 3.54,-10.896 -9.269,-6.735 h 11.457 z m 64.855,0 3.54,10.896 h 11.458 l -9.27,6.735 3.541,10.896 -9.269,-6.734 -9.27,6.734 3.542,-10.896 -9.27,-6.735 h 11.458 z"
           id="path49"
           inkscape:connector-curvature="0" />
      </g>
    </g>
  </g>
</svg>
