<?xml version="1.0" encoding="UTF-8" standalone="no"?>
<svg
   xmlns:dc="http://purl.org/dc/elements/1.1/"
   xmlns:cc="http://creativecommons.org/ns#"
   xmlns:rdf="http://www.w3.org/1999/02/22-rdf-syntax-ns#"
   xmlns:svg="http://www.w3.org/2000/svg"
   xmlns="http://www.w3.org/2000/svg"
   xmlns:xlink="http://www.w3.org/1999/xlink"
   xmlns:sodipodi="http://sodipodi.sourceforge.net/DTD/sodipodi-0.dtd"
   xmlns:inkscape="http://www.inkscape.org/namespaces/inkscape"
   height="16"
   width="21.333332"
   viewBox="0 0 21.333332 16"
   version="1.1"
   id="svg27"
   sodipodi:docname="un.svg"
   inkscape:version="0.92.1 r">
  <metadata
     id="metadata33">
    <rdf:RDF>
      <cc:Work
         rdf:about="">
        <dc:format>image/svg+xml</dc:format>
        <dc:type
           rdf:resource="http://purl.org/dc/dcmitype/StillImage" />
        <dc:title></dc:title>
      </cc:Work>
    </rdf:RDF>
  </metadata>
  <defs
     id="defs31" />
  <sodipodi:namedview
     pagecolor="#ffffff"
     bordercolor="#666666"
     borderopacity="1"
     objecttolerance="10"
     gridtolerance="10"
     guidetolerance="10"
     inkscape:pageopacity="0"
     inkscape:pageshadow="2"
     inkscape:window-width="1920"
     inkscape:window-height="1024"
     id="namedview29"
     showgrid="false"
     fit-margin-top="0"
     fit-margin-left="0"
     fit-margin-right="0"
     fit-margin-bottom="0"
     inkscape:zoom="0.49166667"
     inkscape:cx="320"
     inkscape:cy="240"
     inkscape:window-x="0"
     inkscape:window-y="0"
     inkscape:window-maximized="1"
     inkscape:current-layer="svg27" />
  <path
     d="M 0,0 H 21.333333 V 16 H 0 Z"
     id="path2"
     inkscape:connector-curvature="0"
     style="fill:#4b92db;fill-rule:evenodd;stroke-width:0.03333334" />
  <g
     transform="matrix(0.02,0,0,0.02,-1.355,0)"
     id="g7">
    <path
       d="m 663.853,587.03 c -2.694,3.08 -6.18,5.956 -9.466,8.608 -21.233,-21.943 -46.16,-46.262 -69.854,-46.262 -14.69,0 -25.27,11.182 -37.613,19.072 -17.13,10.95 -40.626,17.115 -60.76,9.08 -10.832,-4.113 -21.324,-10.17 -29.166,-20.01 15.848,10.93 39.58,12.4 57.472,4.977 19.776,-8.205 39.904,-19.1 62.44,-19.1 33.223,0 64.797,22.474 86.947,43.636 z M 418.31,518.017 c 21.997,25.04 57.872,16.983 87.235,23.237 4.087,0.87 7.926,2.227 12.313,1.554 -3.49,-2.214 -8.118,-2.463 -12.15,-3.982 -22.783,-8.583 -26.335,-32.967 -38.804,-49.748 15.926,10.587 29.12,25.082 44.012,38.703 10.364,9.48 23.277,13.537 36.67,16.262 -3.218,1.176 -7.428,0.9 -10.894,1.758 -24.056,5.968 -50.727,15.388 -76.324,6.94 -16.52,-5.45 -33.71,-18.36 -42.057,-34.724 z m -35.257,-57.95 c 13.72,31.063 48.19,33.496 71.11,52.552 4.36,3.624 8.68,6.96 13.467,9.19 l 0.247,-0.25 c -5.29,-4.784 -11.012,-10.487 -15.11,-16.44 -13.1,-19.034 -8.74,-45.05 -18.84,-65.23 9.177,10.987 17.784,22.3 23.068,34.882 8.503,20.246 11.392,43.342 30.463,58.726 -20.64,-6.81 -44.452,-5.454 -63.04,-17.628 -19.536,-12.797 -37.643,-32.996 -41.365,-55.802 z m -14.697,-62.846 c 1.984,27.368 31.12,41.987 45.014,64.484 2.967,4.805 6.02,9.765 10.33,13.645 -0.672,-2.914 -3.07,-5.496 -4.39,-8.355 -4.455,-9.653 -6.472,-20.823 -5.36,-32.31 1.354,-13.975 7.18,-26.953 4.944,-41.655 11.975,25.848 8.112,58.162 15.033,86.11 1.53,6.183 5.296,11.594 7.616,17.45 -11.766,-8.95 -27.185,-16.896 -40.1,-27.076 -12.49,-9.845 -23.332,-21.384 -28.967,-36.4 -4.06,-10.818 -5.117,-23.723 -4.12,-35.894 z m 0.814,-50.426 c 1.405,-6.108 2.48,-12.43 5.138,-18.033 -5.03,25.818 12.144,44.467 18.008,66.803 2.21,8.417 2.966,17.36 6.37,25.215 0.317,0.17 0.592,-0.16 0.788,-0.414 -8.473,-23.77 3.948,-45.74 16.05,-64.477 3.18,-4.925 4.71,-10.66 6.196,-16.458 1.308,10.76 -0.982,23.217 -2.973,34.32 -2.563,14.297 -7.45,27.696 -11.332,41.49 -2.557,8.616 -1.883,18.34 -0.57,27.37 l -1.235,-0.985 c -9.01,-16.632 -26.784,-29.625 -32.152,-47.778 -4.29,-14.508 -7.258,-31.27 -4.288,-47.053 z m 9.502,-27.77 c 0,-19.538 7.607,-35.475 19.018,-50.025 0.33,-0.166 0.567,-0.498 0.994,-0.42 -12.56,19.108 -1.128,43.228 -2.742,64.9 l -1.657,22.245 c 0.246,0.162 0.246,0.83 0.83,0.574 0.742,-2.48 0.967,-5.12 1.4,-7.68 3.023,-17.932 18.77,-30.414 32.124,-43.074 a 28.528,28.528 0 0 0 6.96,-10.342 c -1.11,8.933 -3.602,18.09 -7.612,26.208 -10.28,20.81 -30.132,37.608 -33.703,61.257 -1.73,-22.666 -15.613,-39.515 -15.613,-63.647 z m 33.112,-65.904 c 6.316,-7.004 13.396,-12.46 21.824,-14.617 -16.366,11.253 -15.477,31.366 -20.488,48.183 -1.832,6.15 -4.525,11.91 -5.957,18.265 l 0.415,0.332 c 2.722,-7.185 7.394,-14.09 13.48,-19.834 11.512,-10.86 28.82,-17.434 34.515,-33.32 -0.26,22.076 -19.08,38.858 -36.266,51.84 -7.71,5.824 -14.26,13.642 -18.258,21.838 0.667,-6.1 0.97,-11.175 0.426,-17.13 -1.764,-19.284 -2.91,-40.903 10.308,-55.556 z m 66.428,-37.117 c -12.146,10.658 -20.25,24.377 -29.582,36.71 -7.76,10.256 -18.41,16.61 -27.567,25.218 4.943,-10.255 5.856,-22.007 12.134,-31.93 10.735,-16.966 28.478,-23.55 45.015,-29.997 z"
       id="a"
       inkscape:connector-curvature="0"
       style="fill:#ffffff" />
    <use
       height="100%"
       width="100%"
       xlink:href="#a"
       transform="matrix(-1,0,0,1,1202.2,0)"
       id="use5"
       x="0"
       y="0" />
  </g>
  <path
     d="M 13.633733,8.7336 13.562003,8.6944 A 3.2301,3.2301 0 0 1 12.96747,9.54057 L 12.5483,9.12143 C 12.753633,8.90977 12.9192,8.6696 13.041167,8.41 l -0.0714,-0.039 a 2.5512,2.5512 0 0 1 -0.4785,0.6934 L 12.111533,8.68473 A 2.0013333,2.0013333 0 0 0 12.4972,8.1129 L 12.42637,8.0742 A 1.9308,1.9308 0 0 1 12.054703,8.62794 L 11.635036,8.20827 A 1.325,1.325 0 0 0 11.90317,7.78834 L 11.8323,7.74964 A 1.2540667,1.2540667 0 0 1 11.578633,8.15171 L 11.197767,7.77091 A 0.70676667,0.70676667 0 0 0 11.3781,7.33557 h 0.5391 a 1.2427667,1.2427667 0 0 1 -0.08487,0.4141 l 0.07093,0.0387 A 1.3274,1.3274 0 0 0 11.99659,7.3356 h 0.594333 a 1.9124333,1.9124333 0 0 1 -0.1645,0.7386 l 0.07087,0.0387 a 1.9973333,1.9973333 0 0 0 0.173,-0.77733 h 0.538133 A 2.5255,2.5255 0 0 1 12.96976,8.3709 L 13.04109,8.41 c 0.156333,-0.33247 0.2412,-0.6969 0.2468,-1.07434 h 0.594267 a 3.1956,3.1956 0 0 1 -0.320234,1.35877 l 0.07173,0.0392 c 0.214866,-0.44257 0.328933,-0.93127 0.328933,-1.43767 0,-0.43067 -0.0825,-0.84847 -0.239333,-1.23607 l -0.0736,0.0317 c 0.147666,0.36573 0.227666,0.75907 0.2326,1.16467 h -0.594334 a 2.617,2.617 0 0 0 -0.184666,-0.9298 l -0.07313,0.0313 a 2.5357333,2.5357333 0 0 1 0.178334,0.89847 H 12.670323 A 2.0004333,2.0004333 0 0 0 12.53539,6.57043 l -0.0731,0.0314 a 1.9216667,1.9216667 0 0 1 0.128667,0.6544 h -0.5943 a 1.329,1.329 0 0 0 -0.08053,-0.41967 l -0.0731,0.0313 a 1.2486667,1.2486667 0 0 1 0.07427,0.38834 h -0.5391 A 0.70666667,0.70666667 0 0 0 11.197864,6.82086 L 11.57913,6.4397 a 1.2437333,1.2437333 0 0 1 0.264,0.42826 l 0.073,-0.0313 a 1.3245,1.3245 0 0 0 -0.2809,-0.45307 l 0.420234,-0.4202 c 0.179333,0.18667 0.316233,0.40334 0.407,0.63847 l 0.073,-0.0314 a 1.996,1.996 0 0 0 -0.4238,-0.66323 l 0.380466,-0.3806 c 0.235667,0.24306 0.416734,0.52506 0.538067,0.83116 l 0.0731,-0.0313 c -0.1254,-0.31523 -0.312133,-0.60567 -0.555,-0.8559 l 0.420167,-0.42033 c 0.2972,0.3045 0.526433,0.65773 0.681233,1.04133 l 0.07367,-0.0316 C 13.559767,5.65519 13.315233,5.28342 12.9972,4.96542 12.678033,4.64619 12.3046,4.40109 11.898067,4.23752 l -0.02927,0.0745 c 0.384467,0.15483 0.7385,0.38433 1.0435,0.68206 l -0.4202,0.42027 c -0.246,-0.2384 -0.531,-0.4232 -0.8404,-0.5484 l -0.029,0.0739 c 0.299167,0.12133 0.575,0.30013 0.813267,0.53127 l -0.3805,0.38053 a 1.9986667,1.9986667 0 0 0 -0.6295,-0.41077 l -0.02907,0.0739 a 1.9192,1.9192 0 0 1 0.6024,0.393 l -0.4202,0.4202 a 1.3279,1.3279 0 0 0 -0.3994,-0.25983 l -0.02907,0.074 a 1.2472333,1.2472333 0 0 1 0.372334,0.242 L 11.141724,6.76538 A 0.7066,0.7066 0 0 0 10.7064,6.585 V 6.046 a 1.2455,1.2455 0 0 1 0.444233,0.0962 l 0.02907,-0.074 A 1.3268333,1.3268333 0 0 0 10.70637,5.9666 V 5.37226 a 1.9193333,1.9193333 0 0 1 0.690566,0.14257 l 0.029,-0.0739 a 1.9985333,1.9985333 0 0 0 -0.7196,-0.148 V 4.7545 c 0.3191,0.005 0.628534,0.0685 0.916334,0.18516 l 0.029,-0.0739 c -0.297,-0.12027 -0.6161,-0.1858 -0.945334,-0.19067 V 4.08073 c 0.404767,0.005 0.7974,0.0847 1.162467,0.23166 l 0.02927,-0.0745 C 11.511806,4.08239 11.095573,4.00042 10.666639,4.00042 A 3.275,3.275 0 0 0 9.1921,4.34987 l 0.0362,0.0693 C 9.6579667,4.20384 10.1333,4.0866 10.626967,4.08064 v 0.5944 A 2.604,2.604 0 0 0 9.5046333,4.9472 l 0.0361,0.0691 C 9.875,4.85086 10.243967,4.7602 10.626967,4.75436 v 0.5382 A 1.9912,1.9912 0 0 0 9.7907667,5.49423 l 0.036333,0.0694 A 1.9156667,1.9156667 0 0 1 10.626967,5.37196 V 5.9663 a 1.3225667,1.3225667 0 0 0 -0.5239,0.12483 l 0.0365,0.0697 a 1.2452333,1.2452333 0 0 1 0.4874,-0.11516 v 0.53916 a 0.71066667,0.71066667 0 0 0 -0.2369,0.0547 l 0.03643,0.0697 a 0.6326,0.6326 0 0 1 0.240167,-0.047 c 0.1694,0 0.328566,0.0659 0.448333,0.18567 a 0.6299,0.6299 0 0 1 0.185667,0.44833 c 0,0.34957 -0.284334,0.634 -0.634,0.634 A 0.63,0.63 0 0 1 10.21833,7.74457 0.63,0.63 0 0 1 10.032664,7.29623 c 0,-0.16933 0.066,-0.32866 0.185666,-0.44833 a 0.63346667,0.63346667 0 0 1 0.208167,-0.13867 l -0.03643,-0.0697 a 0.71266667,0.71266667 0 0 0 -0.1982,0.12566 L 9.8104664,6.38379 A 1.2488667,1.2488667 0 0 1 10.139567,6.16073 l -0.0365,-0.0697 A 1.3348333,1.3348333 0 0 0 9.7546667,6.3282 L 9.334,5.90753 A 1.9253333,1.9253333 0 0 1 9.8271,5.56363 L 9.790767,5.49413 a 2.0127667,2.0127667 0 0 0 -0.5122,0.3578 l -0.3812,-0.38117 a 2.5416667,2.5416667 0 0 1 0.6434,-0.4545 l -0.0361,-0.0691 A 2.6339333,2.6339333 0 0 0 8.842,5.4155 L 8.4209333,4.99443 A 3.219,3.219 0 0 1 9.2282667,4.41917 L 9.1921,4.34983 C 8.5503333,4.67233 8.0279,5.1979 7.7097667,5.84217 l 0.069,0.0373 a 3.2191333,3.2191333 0 0 1 0.586,-0.8289 L 8.7859333,5.47171 A 2.6305333,2.6305333 0 0 0 8.3031,6.1628 L 8.3719,6.2 A 2.5436,2.5436 0 0 1 8.8411667,5.527 L 9.2224,5.90813 a 2.0111667,2.0111667 0 0 0 -0.375,0.54874 l 0.068933,0.0372 A 1.9209,1.9209 0 0 1 9.2779,5.96363 L 9.6985667,6.3843 A 1.3345333,1.3345333 0 0 0 9.4412333,6.77777 l 0.069567,0.0376 A 1.2468,1.2468 0 0 1 9.7542336,6.44003 L 10.135667,6.82137 A 0.70966667,0.70966667 0 0 0 9.9552333,7.2565 H 9.416 A 1.2482667,1.2482667 0 0 1 9.510767,6.81533 l -0.0695,-0.0376 A 1.3229333,1.3229333 0 0 0 9.3366,7.25653 H 8.7422667 a 1.9157667,1.9157667 0 0 1 0.174,-0.76246 L 8.8473337,6.45687 A 1.9907333,1.9907333 0 0 0 8.663,7.25653 H 8.1247333 C 8.1304033,6.88487 8.2156333,6.5263 8.3719,6.19987 L 8.3031,6.16277 A 2.6044,2.6044 0 0 0 8.0454333,7.25657 H 7.451 C 7.45687,6.77113 7.5703333,6.3034 7.7787667,5.87947 L 7.7097,5.8422 a 3.2754667,3.2754667 0 0 0 -0.339,1.45407 3.307,3.307 0 0 0 0.1326667,0.929 L 7.5812,8.2056 A 3.2260667,3.2260667 0 0 1 7.4510667,7.336 H 8.0454 a 2.6274333,2.6274333 0 0 0 0.1124333,0.72447 l 0.077067,-0.0194 a 2.5476667,2.5476667 0 0 1 -0.1101,-0.705 H 8.662967 a 2.0097333,2.0097333 0 0 0 0.095,0.57324 L 8.8352,7.8898 A 1.927,1.927 0 0 1 8.7424,7.33603 h 0.5943333 a 1.3311667,1.3311667 0 0 0 0.076433,0.40824 l 0.077233,-0.0195 A 1.2519,1.2519 0 0 1 9.4160663,7.3361 H 9.9552329 A 0.70666667,0.70666667 0 0 0 10.135567,7.77137 L 9.7543,8.1526 A 1.2462,1.2462 0 0 1 9.4904,7.72477 l -0.077233,0.0195 a 1.324,1.324 0 0 0 0.285,0.46446 L 9.277967,8.629 A 1.9155667,1.9155667 0 0 1 8.835367,7.89 L 8.758134,7.9095 c 0.092,0.28773 0.2488667,0.5524 0.4638,0.7758 L 8.8413674,9.0659 C 8.5567667,8.7724 8.3512,8.4223 8.2350333,8.0412 l -0.077,0.0195 C 8.2777,8.4554 8.4903667,8.8182 8.7852,9.122 L 8.3649667,9.54223 C 7.9930667,9.16117 7.7274333,8.70377 7.5813667,8.2059 l -0.077833,0.0195 c 0.1531667,0.52427 0.4358,1.00477 0.8327667,1.40167 0.2688,0.26887 0.5760667,0.48533 0.9091667,0.64477 l 0.039433,-0.07 C 8.9696668,10.05164 8.6780334,9.84917 8.4211334,9.59834 l 0.4202,-0.42017 A 2.6220667,2.6220667 0 0 0 9.578,9.68237 L 9.617233,9.61277 A 2.5420667,2.5420667 0 0 1 8.8975,9.12213 l 0.3805667,-0.3806 a 1.9989,1.9989 0 0 0 0.6049,0.40034 L 9.9221,9.07243 A 1.9201,1.9201 0 0 1 9.3343,8.6856 L 9.7545667,8.26533 a 1.3237667,1.3237667 0 0 0 0.4626663,0.2844 l 0.03967,-0.0703 A 1.2456667,1.2456667 0 0 1 9.8107363,8.2092 L 10.19197,7.82796 A 0.70606667,0.70606667 0 0 0 10.627303,8.0083 V 8.5475 A 1.251,1.251 0 0 1 10.25697,8.4794 l -0.03973,0.0703 a 1.3280667,1.3280667 0 0 0 0.41,0.0771 V 9.22107 A 1.9181667,1.9181667 0 0 1 9.9222403,9.07267 l -0.039133,0.0694 a 1.997,1.997 0 0 0 0.7441667,0.15847 v 0.5382 C 10.273107,9.83374 9.9311073,9.75544 9.6173406,9.61307 l -0.0392,0.0695 c 0.3256667,0.14883 0.6811334,0.23 1.0490994,0.23553 v 0.59423 C 10.155174,10.50633 9.699574,10.39967 9.284974,10.2021 l -0.039433,0.07 c 0.4381334,0.20967 0.921167,0.3206 1.421334,0.3206 0.524666,0 1.0302,-0.12257 1.4852,-0.35277 l -0.03757,-0.0729 a 3.1948,3.1948 0 0 1 -1.408,0.34534 V 9.918 c 0.4012,-0.006 0.787333,-0.1021 1.136333,-0.2776 L 11.805708,9.5685 A 2.5245667,2.5245667 0 0 1 10.706541,9.83856 V 9.3004 c 0.301,-0.006 0.590734,-0.078 0.853167,-0.20894 l -0.03687,-0.0716 A 1.9116,1.9116 0 0 1 10.706505,9.22092 V 8.62666 a 1.3228,1.3228 0 0 0 0.544233,-0.134 l -0.03667,-0.0711 a 1.2440667,1.2440667 0 0 1 -0.507567,0.12566 v -0.5391 a 0.7065,0.7065 0 0 0 0.435333,-0.18033 l 0.380867,0.3808 a 1.257,1.257 0 0 1 -0.3086,0.213 l 0.03667,0.0711 a 1.3319,1.3319 0 0 0 0.328466,-0.22753 l 0.419567,0.41957 a 1.9293333,1.9293333 0 0 1 -0.476067,0.33513 l 0.03687,0.0715 a 2.0053333,2.0053333 0 0 0 0.496,-0.34983 l 0.379667,0.37967 a 2.5503333,2.5503333 0 0 1 -0.6296,0.44726 l 0.0371,0.0719 A 2.6218,2.6218 0 0 0 12.49224,9.17823 l 0.4192,0.41923 a 3.2289,3.2289 0 0 1 -0.797,0.56944 l 0.03753,0.0729 a 3.3026667,3.3026667 0 0 0 0.8454,-0.6126 3.2986,3.2986 0 0 0 0.6365,-0.89294 z"
     id="path9"
     inkscape:connector-curvature="0"
     style="fill:#ffffff;stroke-width:0.03333334" />
  <path
     d="m 10.855333,6.53313 -0.0199,8e-4 10e-4,0.0238 0.02,-9.4e-4 z m -0.04907,-0.0317 h 0.02657 v 0.0202 h -0.02657 z m -0.04793,-0.007 0.02333,0.004 0.0029,-0.02 -0.02333,-0.003 z m -0.01967,-0.007 -0.0232,-0.003 0.0028,-0.0201 0.02313,0.003 z m -0.1916,-0.0267 h 0.02657 v 0.0203 h -0.0266 z m -0.0579,0.0404 0.0232,0.003 0.0028,-0.02 -0.02317,-0.003 z m 0.0024,0.0306 -0.02667,-0.007 0.0049,-0.0197 0.02667,0.007 z m -0.04753,0.0249 -0.0033,-0.0203 0.01967,-0.003 0.0033,0.0203 z M 7.8240997,8.61006 V 8.59326 H 7.8074 v 0.0337 h 0.026667 v 0.0439 H 7.854134 L 7.8507,8.6203 Z M 8.0735,8.91033 8.037,8.87667 8.0103333,8.8396 7.997,8.8092 7.973667,8.7485 8.023534,8.772 8.040301,8.8192 8.063434,8.8362 8.086767,8.8868 Z m 0.6881667,0.90434 -0.00327,-0.0303 -0.026667,-0.0405 0.04,0.007 0.043067,0.037 0.016767,0.0439 -0.023333,0.0135 -0.013333,-0.0202 z M 10.563667,6.751 H 10.5271 l -0.0067,-0.0742 0.02,-0.0136 V 6.6261 H 10.424 l -0.0033,-0.0371 0.01667,-0.0101 -0.0266,-0.0101 -0.02,0.027 -0.0066,0.0303 -0.03323,0.007 V 6.65 H 10.3277 v 0.0438 l -0.09313,0.0776 -0.186134,-0.007 c -0.01333,0.0303 -0.04667,-0.003 -0.04667,-0.003 -0.00657,-0.0202 -0.053067,0 -0.053067,0 0,0.0372 -0.0632,-0.0168 -0.0632,-0.0168 L 9.7691657,6.6603 C 9.7026327,6.5995 9.602899,6.6772 9.599599,6.694 9.602929,6.7413 9.523132,6.7042 9.523132,6.7042 c 0,0 -0.066467,-0.0202 -0.076467,0.007 -0.01,0.027 -0.053267,0.0203 -0.053267,0.0203 L 9.386728,6.745 9.353461,6.752 9.346861,6.7722 9.306928,6.7792 9.406661,6.7762 c 0.0266,-0.003 -0.01,0.0574 -0.026567,0.054 L 9.333561,6.8332 9.316894,6.85 H 9.2737 L 9.2538,6.877 9.190667,6.874 c 0,0 -0.036667,0.0303 -0.033267,0.0405 0.00333,0.0101 -0.00667,0.0405 -0.016667,0.0405 -0.01,0 -0.029933,0.0303 -0.023267,0.0405 0.00667,0.0101 -0.019933,0.0439 -0.019933,0.0439 l -0.00667,0.0338 -0.0199,0.007 v 0.0912 l -0.04,0.027 V 7.2389 L 8.97113,7.303 8.9778,7.357 8.927967,7.411 l 0.0066,0.054 -0.0299,0.0101 -0.00657,0.0236 -0.013333,0.0709 0.033267,0.003 c 0.0166,-0.007 0.013333,0.0438 0,0.0505 -0.013333,0.007 -0.0499,0.0202 -0.0299,0.0337 0.02,0.0136 -0.0532,0.0102 -0.0532,-0.0101 0,-0.0202 -0.0399,-0.0371 -0.049867,-0.0303 -0.00993,0.007 -0.0266,-0.0303 -0.0266,-0.0303 -0.036533,-0.0371 -0.1496,0.003 -0.1496,0.003 L 8.592197,7.6431 C 8.555664,7.6501 8.532397,7.7106 8.532397,7.7106 8.502497,7.7207 8.47923,7.7578 8.489197,7.7679 8.499127,7.7781 8.47253,7.7814 8.47253,7.7814 v 0.0743 l -0.0166,0.0237 0.00333,0.0809 c 0.019933,0 0.016667,0.0372 0.016667,0.0372 C 8.442594,8.0005 8.44926,8.0447 8.44926,8.0447 L 8.37946,8.0683 8.366127,8.0885 8.279727,8.0855 8.25646,8.1092 8.233127,8.0855 H 8.0669 L 8.06033,8.0687 8.027063,8.0617 8.023733,8.0246 l -0.049867,0.003 -0.01,0.0203 -0.0532,0.003 c 0.00333,0.0338 -0.0532,0.0844 -0.0598,0.0709 C 7.844136,8.1083 7.807599,8.0711 7.824266,8.0645 7.840933,8.0575 7.884133,8.0509 7.884133,8.0509 V 8.0273 l -0.1230666,-0.003 -0.013233,0.0202 -0.049933,0.003 v 0.054 l -0.023267,0.007 c -0.016667,0.0101 0.00333,0.0473 0.00333,0.0473 0.023233,0.0236 -0.00333,0.0607 -0.00333,0.0607 -0.02,0.0203 0.0166,0.0574 0.0166,0.0574 0.026667,0.007 -0.0166,0.027 -0.0166,0.027 0.0066,0.0337 0.0266,0.0438 0.0266,0.0438 -0.02,0.0337 0.013333,0.0506 0.013333,0.0506 l 0.00333,0.0574 0.023233,0.0135 v 0.037 l 0.013333,0.0237 H 7.8076 L 7.80427,8.4426 c -0.046533,-0.054 0.0399,-0.0675 0.043267,-0.0473 0.00333,0.0203 0.0399,0.0304 0.0399,0.0304 0.00667,0.0507 0.063233,0.0809 0.079833,0.0304 0.016667,-0.0507 0.0299,-0.0203 0.0399,0.003 0.01,0.0237 0.073067,0.081 0.073067,0.081 h 0.0499 l 0.00673,0.0472 c 0.0565,-0.003 0.073067,0.003 0.096333,0.081 0.023333,0.0775 0.086467,0.0978 0.086467,0.0978 l 0.046567,-0.003 c 0,-0.0404 0.046567,0.007 0.046567,0.0271 0,0.0202 0.089733,0.0978 0.089733,0.0978 L 8.592267,8.9082 8.6755,8.9758 8.738633,8.9688 H 8.7653 C 8.781867,8.9114 8.8617,8.9718 8.8683,8.9924 8.87497,9.0127 8.928167,9.0464 8.934767,9.0295 8.941437,9.0127 8.978,9.0225 8.9847,9.0734 8.9913,9.1241 9.014533,9.114 9.014533,9.114 L 9.204133,9.111 9.2706,9.0535 9.4402,9.0505 C 9.526633,9.0475 9.473433,8.929 9.456867,8.929 9.426934,8.9054 9.466767,8.80757 9.466767,8.80757 L 9.2241,8.57973 c -0.056533,0 -0.00667,-0.081 -0.00667,-0.081 0.0432,-0.027 -0.01,-0.0708 -0.01,-0.0708 C 9.2141,8.38743 9.184163,8.34013 9.184163,8.34013 9.1243333,8.29963 9.1409,8.222 9.1409,8.222 V 8.168 C 9.091067,8.1209 9.1609,8.114 9.1609,8.114 9.1841,8.0737 9.144233,8.0432 9.144233,8.0432 L 9.140903,7.9993 9.087703,7.9923 9.081103,7.8337 8.9614363,7.6617 c -0.023333,-0.007 -0.00667,-0.0473 -0.00667,-0.0473 0.0299,-0.0169 -0.00673,-0.0573 -0.00673,-0.0573 l -0.00333,-0.0742 0.069833,-0.007 0.016667,-0.0269 h 0.033233 l -0.00333,-0.0878 c 0.016667,-0.0439 0.056533,-0.0203 0.056533,-0.0203 l 0.046533,0.003 0.0266,-0.0507 0.0066,-0.0405 -0.036533,-0.003 c -0.0399,-0.0237 -0.02,-0.11133 -0.02,-0.11133 0.063233,-0.0946 0.1363334,-0.0406 0.1363334,-0.0406 l 0.046567,-0.003 c 0.0698,0.0472 0.0066,0.13493 0.0066,0.13493 -0.013267,0.0203 -0.0066,0.0844 -0.0066,0.0844 l 0.0166,0.10793 -0.0432,0.0372 c -0.0366,0.0203 -0.0366,0.0675 0.00333,0.0776 0.026533,0.003 0.016567,0.0675 -0.023333,0.0236 -0.0598,0 0.033333,0.054 0.00667,0.0405 0.0599,0.0304 0.046533,-0.027 0.046533,-0.027 L 9.4102,7.5101 c 0.0299,-0.0236 0.083133,0.0507 0.083133,0.0608 0,0.0101 0.133,0.003 0.133,0.003 0.0365,0.0237 0.0498,0.0843 0.0498,0.0843 0.0366,-0.0472 0.113,-0.003 0.056533,0.0237 0.053167,0.0337 0.053167,0.0641 0.053167,0.0641 0.043333,-0.0135 0.043333,0.0203 0.043333,0.0304 0,0.0101 0.013267,-0.0507 0.013267,-0.0507 C 9.792533,7.6886 9.9089,7.6751 9.8757,7.7426 l -0.02,0.0304 0.033267,0.0269 0.00333,0.0777 C 9.96543,7.8706 9.945464,7.7797 9.945464,7.7797 l 0.033233,-0.007 c 0,-0.0304 0.023233,-0.0136 0.023233,-0.0136 -0.023233,-0.11473 0.05323,-0.13493 0.05323,-0.13493 0.04323,-0.0101 0.04653,-0.10133 0.04653,-0.10133 -0.02987,-0.0134 -0.01333,-0.0607 0.02,-0.0201 0.0332,0.0405 -0.02,-0.081 -0.02,-0.081 l -0.02657,-0.0236 -0.0366,-0.003 -0.0033,-0.0372 H 9.9754 l -0.01,0.0473 -0.023267,0.007 -0.00667,-0.0135 -0.01,0.0371 h -0.0598 L 9.862333,7.39534 9.8989,7.38524 9.912233,7.36504 9.922163,7.31104 H 9.96543 l 0.0565,-0.0169 c 0.0033,-0.0573 0.03327,-0.0438 0.03327,-0.0438 l 0.02,0.0168 0.0299,0.0237 0.0033,0.0202 -0.02,0.0101 -0.0033,0.027 0.0099,0.0371 h 0.02657 c 0.01,-0.054 0.07983,-0.054 0.09977,-0.0203 l 0.02,-0.0473 c -0.04657,-0.0236 -9e-4,-0.0607 0.0124,-0.0439 0.01333,0.0169 0.04407,-0.0439 0.04407,-0.0439 0,0 0.02327,0.0304 0,-0.0101 -0.02327,-0.0405 0.0166,-0.0607 0.0166,-0.0607 -0.0066,-0.0405 0.04323,-0.0338 0.04323,-0.0338 l 0.0033,-0.0539 -0.04657,-0.003 c -0.0099,0.0473 -0.04983,0.007 -0.02987,-0.003 0.02,-0.0101 0.03983,-0.0303 0.03983,-0.0303 v -0.0338 l 0.01993,-0.007 0.0033,-0.0338 h 0.0499 l 0.0432,-0.0202 0.01,-0.0169 0.04653,-0.003 0.0665,-0.0608 -0.0066,-0.027 c -0.03993,0 0,-0.0303 0,-0.0303 l 0.0066,-0.0505 z"
     id="path11"
     inkscape:connector-curvature="0"
     style="fill:#ffffff;stroke-width:0.03333334" />
  <path
     d="m 9.2238667,7.419 -0.059867,-0.007 0.00333,0.0236 H 9.184 c 0.026533,0.0473 0.00333,0.162 0.00333,0.162 0,0 -0.0399,0.003 -0.0466,-0.0169 -0.0066,-0.0203 -0.023267,0.0438 -0.01,0.054 0.013333,0.01 0.0599,0 0.0632,0.0371 C 9.19726,7.7089 9.223863,7.6481 9.223863,7.6481 V 7.41867 Z"
     id="path13"
     inkscape:connector-curvature="0"
     style="fill:#ffffff;stroke-width:0.03333334" />
  <path
     d="m 9.2237667,7.70593 0.02,-0.004 0.00333,-0.0237 -0.05,0.0338 -0.0332,-0.0202 v 0.0809 l 0.053267,0.0708 0.0199,-0.0472 0.00673,-0.0303 -0.023333,-0.01 z m 0.026633,0.2124 v -0.0337 l -0.0232,0.003 -0.00343,0.027 z M 9.2204667,8.0804 V 8.0567 l -0.0282,0.003 v 0.0237 z m 0.0392,-0.1038 c 0.0078,0 0.014067,-0.006 0.014067,-0.0143 0,-0.008 -0.00627,-0.0143 -0.014067,-0.0143 a 0.0142,0.0142 0 0 0 -0.0141,0.0143 c 0,0.008 0.00633,0.0143 0.0141,0.0143 z"
     id="path15"
     inkscape:connector-curvature="0"
     style="fill:#ffffff;stroke-width:0.03333334" />
  <ellipse
     cy="8.0332031"
     cx="9.2828331"
     rx="0.0141"
     ry="0.0143"
     id="ellipse17"
     style="fill:#ffffff;stroke-width:0.03333334" />
  <ellipse
     cy="7.6477051"
     cx="9.2835999"
     rx="0.0141"
     ry="0.0143"
     id="ellipse19"
     style="fill:#ffffff;stroke-width:0.03333334" />
  <path
     d="m 10.4141,7.149 -0.03667,-0.003 -0.0066,0.0169 h -0.0166 l -0.0035,0.027 h 0.02007 l 0.0033,0.0202 -0.01333,0.0135 -0.0066,0.0168 -0.02667,0.007 -0.05983,0.0574 -0.0033,0.0269 -0.01657,0.0237 -0.0199,0.0506 -0.06993,0.003 -0.01333,0.0607 0.0099,0.0506 0.05983,0.0237 0.0067,-0.0337 0.0199,-0.0102 0.0034,-0.0337 0.01317,-0.0237 0.02007,-0.0236 0.0066,-0.027 0.03327,-0.0202 0.03993,-0.007 0.01667,-0.0202 0.0067,-0.0403 0.0023,-0.0304 0.01433,-0.0203 0.03977,-0.0169 V 7.1727 h -0.01993 z m 0.09297,0.2296 V 7.3314 l -0.0067,-0.0439 -0.04983,-0.0236 -0.03657,0.0338 -0.0067,0.0472 v 0.0303 l -0.03323,0.007 -0.0067,0.0911 -0.0266,0.0102 0.0033,0.0337 -0.03657,0.0101 -0.03657,0.0101 -0.0066,0.0439 -0.02657,0.0169 -0.0134,0.0405 -0.01657,0.0978 c 0,0 0.02993,0.0573 0.04653,0.0303 0.01667,-0.0269 0.04323,-0.0303 0.04323,-0.0303 l 0.0099,-0.0237 0.08977,0.003 c 0.0067,-0.0371 0.0499,-0.0236 0.0499,-0.007 0,0.0169 0.03327,0.003 0.03327,0.003 l 0.02327,-0.0371 h 0.03653 l 0.0033,-0.0405 0.0166,-0.0101 V 7.5633 c 0.05323,-0.0169 0.0465,-0.0675 0.0465,-0.0675 L 10.61996,7.479 10.61326,7.4554 C 10.58659,7.4452 10.59993,7.4216 10.61656,7.4283 10.63323,7.4353 10.59329,7.398 10.59329,7.398 10.57336,7.4149 10.55679,7.3777 10.55679,7.3777 Z m 0.0532,0.4082 c -0.0033,0.0405 -0.0532,0.054 -0.0532,0.054 L 10.4705,7.8307 10.45057,7.8138 l -0.0033,-0.0473 0.0299,-0.003 0.0067,0.0203 z m 0.1796,-0.2158 c 0.0072,0.0294 0.0066,-0.0473 0.0199,-0.0439 0.01333,0.003 0.0033,-0.0472 0.0033,-0.0472 l -0.05983,0.0438 c 0.0299,0.003 0.0332,0.0338 0.0366,0.0473 z m 0.1762,-0.1756 c 0.01333,0.0304 0.01,0.0743 0.0598,0.108 0.01683,0.0113 -0.01,0.0338 -0.02667,0.0236 C 10.93263,7.5169 10.88613,7.4427 10.88613,7.4427 V 7.3988 c 0.01,-0.027 0.02417,-0.0164 0.02993,-0.003 z m 0.0099,1.0358 0.0099,0.0169 0.02333,-0.037 -0.01987,-0.007 -0.0232,0.017 z m -0.09313,-0.064 v 0.0406 m 0.4808,-0.0895 0.02667,-0.0169 -0.01067,-0.017 -0.0265,0.0167 z m 0.9622,0.70347 0.03,0.0135 0.0032,0.0573 c 0.03993,0.0405 0.1696,0.007 0.1696,-0.003 0,-0.0102 -0.0067,-0.12487 -0.0067,-0.12487 L 12.45527,8.9478 12.45197,8.8634 c 0.01327,-0.0438 -0.0632,-0.108 -0.06983,-0.0944 -0.0067,0.0135 -0.04987,0.003 -0.04987,0.0169 0,0.0135 -0.02653,0.081 -0.01327,0.1046 0.01333,0.0237 -0.01,0.0237 -0.01327,0.0472 -0.0033,0.0237 -0.0366,0.0642 -0.02993,0.0845 z m -0.0732,-0.135 c -0.0063,0.0256 -0.02987,0.0405 -0.04317,0.0303 -0.01333,-0.0101 0.01653,0.0168 0.02327,0.0304 0.0066,0.0135 0.02653,0.0135 0.03323,0 0.0066,-0.0136 0.0033,-0.0438 0.01,-0.0573 0.0066,-0.0135 -0.02,-0.0169 -0.02333,-0.003 z m -0.1546,-0.619 h 0.02323 v 0.0641 H 12.048 Z m 0.3442,-0.6496 c -0.0145,-0.0197 0.06647,-0.054 0.07977,-0.0135 0.01333,0.0405 0,0.0338 -0.01327,0.0304 -0.01333,-0.003 -0.0465,0.0101 -0.06647,-0.0169 z m 0.07147,-0.452 -0.0034,0.0199 0.03647,0.007 0.0036,-0.0199 z m -0.149933,0.0521 0.02667,0.0169 0.005,0.003 0.005,-0.003 0.02007,-0.0113 0.0025,0.006 0.0185,-0.007 -0.0067,-0.0169 -0.0042,-0.0107 -0.0099,0.006 -0.02473,0.014 -0.02167,-0.0137 z m 0.181467,-0.81493 h -0.0499 c 0,0 0.01667,0.007 -0.02983,-0.0371 -0.0466,-0.0439 -0.07647,0.0101 -0.07647,0.0101 l -0.05317,0.007 v 0.054 l -0.02667,0.0101 0.0034,0.0338 0.03653,-0.003 c 0,0 0,0.0405 0.01,0.0236 0.01,-0.0169 0.0931,0.003 0.08643,0.0439 -0.0027,0.0167 0.08317,0.0607 0.07317,0.11467 0.04327,0.007 0.03333,0.0507 0.03333,0.0507 l 0.05643,0.007 0.01667,-0.0337 0.0166,0.003 v -0.0202 l -0.0366,-0.0101 -0.0066,-0.108 -0.02327,-0.0169 0.0067,-0.027 -0.0266,-0.0101 0.01333,-0.0439 -0.02333,-0.0472 z m 0.1462,0.3442 -0.02657,-0.003 -0.05993,0.0101 -0.0332,0.0641 c 0,0 0.0166,0.0101 0.02987,0.0338 0.01327,0.0237 0.02,0.16193 -0.01993,0.18556 -0.03987,0.0237 0.0033,0.0101 0.0033,0.0101 l -0.0067,0.0742 c 0.01,0.0338 0.02657,0.0169 0.03653,0 0.01007,-0.0168 0.02,-0.0202 0.03333,-0.0371 0.01333,-0.0169 0.03323,-0.0473 0.03657,-0.0709 0.0033,-0.0236 0.01993,-0.0607 0.0099,-0.0708 -0.0099,-0.0101 0.01,-0.0573 0.01,-0.0573 0,0 0.01333,-0.027 0,-0.054 -0.01327,-0.027 0.0033,-0.0573 0.01333,-0.0709 l -0.02667,-0.0135 z m 0.0402,0.13767 0.0034,-0.027 0.01983,0.003 -0.0034,0.027 z m -0.0012,0.0932 -0.0178,-0.009 0.01,-0.0202 0.0178,0.009 z m -0.029,-0.2679 -0.01333,-0.0304 c 0,0 0,-0.0269 0.0067,-0.0405 0.0067,-0.0134 -0.01333,-0.0269 -0.02327,-0.0303 -0.01,-0.003 -0.0067,-0.0303 -0.01,-0.0438 -0.0033,-0.0135 -0.02653,-0.0236 -0.02653,-0.0236 0,0 -0.0067,-0.0507 -0.0067,-0.0607 0,-0.0101 -0.03,-0.0237 -0.02,-0.0338 0.01,-0.0101 0.01667,-0.0236 0.02667,-0.0303 0.01,-0.007 -0.01,-0.054 0.0066,-0.0439 0.01667,0.0101 0.01667,0.027 0.02333,0.0405 0.0066,0.0135 -0.0033,0.0607 0.01327,0.0709 0.0166,0.0101 -0.0033,0.0438 0.02327,0.0438 0.02657,0 0.01,0.0642 0.01,0.0642 0,0 -0.0067,0.0472 0.0099,0.0506 0.01667,0.003 0.0067,0.0843 0.0067,0.0843 l -0.0266,-0.0168 z m -0.216,-0.5468 c 0.0099,0.0135 0.0299,0.0236 0.0299,0.0371 0,0.0135 -0.0066,0.0236 0.01333,0.027 0.01993,0.003 0.03327,-0.003 0.0399,0.0135 0.0067,0.0169 0.0067,0.0439 0.0033,0.0573 -0.0033,0.0135 0.0033,0.0338 0.01993,0.0338 0.01667,0 0.02,0.003 0.02,0.0135 0,0.0101 0.01993,-0.0371 0.01993,-0.0371 -0.01667,-0.0135 -0.03,-0.0439 -0.03,-0.0439 0,0 -0.01657,-0.0472 -0.01657,-0.054 0,-0.007 -0.02327,-0.0135 -0.03323,-0.0168 -0.01,-0.003 -0.02667,-0.0337 -0.02667,-0.0337 z m 0.0332,-0.0302 c -0.01,-0.0135 -0.02,-0.0237 -0.03327,-0.0303 -0.01327,-0.007 -0.02323,-0.0135 -0.0366,-0.0135 a 0.02183333,0.02183333 0 0 1 -0.01993,-0.0303 c 0.0067,-0.0169 -0.01,-0.0237 -0.01,-0.0372 0,-0.0135 0.01,-0.0135 0.02667,-0.003 0.01667,0.0101 0.01323,0.0134 0.0266,0.0303 0.01327,0.0169 0.0199,0.0337 0.03317,0.0303 0.01333,-0.003 0.02333,0.0304 0.0366,0.0203 0.01327,-0.0101 0.01,0.0237 0.01,0.0237 l -0.03327,0.0101 z m -0.389,0.3812 c 0.01833,0.0187 -0.09967,0.0135 -0.09967,0 0,-0.0135 0.0099,-0.0607 0.0398,-0.0507 0.02993,0.0102 0.03323,-0.0607 0.03323,-0.0607 0,0 -0.02653,0.003 -0.0033,-0.0101 0.02327,-0.0135 0,-0.0338 -0.01,-0.0439 -0.0099,-0.0101 -0.01993,-0.027 -0.01993,-0.027 h 0.0466 c 0.02,-0.0135 0.02657,-0.0776 0.02657,-0.0776 0.03983,0.0135 0.05977,-0.0135 0.05977,-0.0135 0,0 0.0068,0.0203 0.02,0.0372 0.01333,0.0168 -0.03327,0.0236 -0.01667,0.0337 0.01667,0.0101 0.02333,0.0405 0.01667,0.0506 -0.0067,0.0101 -0.04327,0.003 -0.04327,-0.0101 0,-0.0135 -0.01333,0.0169 0,0.0338 0.01327,0.0169 -0.0166,0.0405 -0.02327,0.0405 -0.0067,0 -0.0498,0.007 -0.01333,0.027 0.0366,0.0202 0.07657,0.0102 0.07657,0.0102 0,0 0.0299,-0.003 0.03987,0.0135 0.01,0.0169 -0.0033,0.0203 -0.01993,0.0203 -0.0166,0 -0.09643,-0.007 -0.09643,-0.007 0,0 -0.02333,0.0237 -0.01333,0.0338 z m -0.2128,0.0304 c 0.01667,-0.003 0.0565,-0.007 0.06317,0.003 0.0067,0.0101 -0.02323,0.0237 -0.02323,0.0237 l -0.0399,0.007 c -0.01333,-0.0169 -0.0166,-0.0303 0,-0.0337 z m 0.429,-0.2834 c 0.02657,-0.0135 0.08307,-0.0135 0.07977,-0.0337 -0.0033,-0.0203 0.0332,-0.027 0.0332,-0.027 l 0.01,0.0405 0.0299,0.0203 0.0033,0.0371 c 0,0 0.01,-0.007 -0.02657,0.003 -0.0366,0.0101 -0.01327,0.0269 -0.01327,0.0269 l -0.07983,0.003 -0.01,-0.0337 -0.02657,-0.0371 z m -0.1298,-0.1822 c 0.0202,0 -0.0066,0.0776 0.04653,0.0709 0.0532,-0.007 0.0033,0.0236 0.04323,0.027 0.0399,0.003 0.02993,-0.0304 0.0432,-0.054 0.0134,-0.0236 0.0067,-0.0371 -0.01653,-0.0439 -0.02333,-0.007 -0.02333,-0.007 -0.02993,-0.0338 -0.0067,-0.027 -0.03327,-0.0338 -0.03327,-0.0338 l -0.01,-0.0404 -0.0432,0.0269 -0.0432,0.0573 c 0,0.0439 0.02323,0.0237 0.0432,0.0237 z m 0.088,0.28513 0.01,-0.0202 0.0179,0.009 -0.01,0.0202 z m -0.0348,-0.0321 h 0.02 v 0.0236 h -0.02 z m 0.01673,-0.4496 0.0033,0.0303 -0.0198,0.002 -0.0033,-0.0303 z m -0.05653,0.3146 h 0.02 v 0.0169 h -0.02 z m -0.05237,-3.3e-4 -0.0019,-0.0202 0.03323,-0.003 0.0019,0.0202 z m -0.274267,0.3245 -0.01833,-0.008 0.01,-0.0236 0.01833,0.008 z m -0.104333,-0.0614 -0.002,-0.0201 0.03333,-0.003 0.002,0.0201 z m -0.576967,-0.006 -0.073,0.003 9.34e-4,0.0202 0.073,-0.003 z m -0.121966,0.0292 -0.0067,-0.0303 0.01957,-0.004 0.0066,0.0303 z m -0.014,0.021 -0.0063,-0.0192 0.01,-0.003 0.0063,0.0192 z m 0.1663,-0.0569 -0.0033,0.0236 0.03657,0.003 c 0,0 0.01657,0.0135 0.01657,0.0236 0,0.0101 0.02333,0.0202 0.03667,0.0202 0.01323,0 0.0498,-0.027 0.0498,-0.027 0,0 0.01667,-0.0472 0.0033,-0.0439 -0.01333,0.003 -0.0399,0.0237 -0.04317,0.003 -0.0034,-0.0203 -0.04327,-0.0101 -0.04327,-0.0101 l -0.0532,0.007 z m 0.1662,-0.0372 c 0,0.0101 -0.0066,0.0236 0.01333,0.027 0.02,0.003 0.05653,-0.0135 0.05983,0.007 0.0033,0.0202 0.0033,0.0338 0.02993,0.0439 0.02657,0.0101 0.04323,0.0135 0.06317,0.0135 0.0199,0 0.0632,-0.007 0.0632,-0.007 0,0 0.047,0.007 0.0565,0.0169 0.03657,0.0371 0.05983,0.0472 0.0698,0.0303 0.01,-0.0168 -0.0033,-0.0539 -0.0066,-0.0674 -0.0033,-0.0135 -0.0499,-0.0777 -0.06653,-0.0641 -0.0166,0.0135 -0.0199,0 -0.04987,0.0101 -0.02993,0.0101 -0.0931,0.003 -0.0964,-0.0101 -0.0033,-0.0135 -0.04983,-0.0202 -0.04983,-0.0337 0,-0.0135 -0.03323,-0.0303 -0.02993,-0.0101 0.0033,0.0202 -0.02333,0.0303 -0.03,0.0237 -0.0067,-0.007 -0.0266,0.0202 -0.0266,0.0202 z m 0.7648,-0.432 0.02333,-0.0742 c -0.03323,-0.007 -0.02667,-0.0438 -0.02667,-0.0438 -0.0033,-0.0304 -0.0498,-0.0641 -0.06647,-0.054 -0.01657,0.0101 -0.01,-0.0709 -0.01,-0.0709 0,0 0.03,-0.0202 0.04327,-0.0101 0.01333,0.0101 -0.113,-0.16867 -0.139666,-0.15184 -0.02657,0.0169 -0.08633,-0.0169 -0.08307,-0.0472 0.0033,-0.0303 -0.119667,-0.1316 -0.119667,-0.1316 0,0 -0.03993,-0.027 -0.04653,-0.007 -0.0067,0.0202 -0.02,0.0338 0,0.0438 0.0199,0.0102 0.01657,-0.0168 0.03983,0.007 0.02327,0.0237 0.06653,0.054 0.0499,0.0743 -0.01667,0.0203 -0.0366,0.027 -0.0366,0.027 l 0.02333,0.027 h 0.03653 l 0.0067,0.0573 c 0,0 0.03987,0.0203 0.04987,0.0439 0.01,0.0236 0.01,0.0371 0,0.0507 -0.01,0.0134 -0.02987,0.0371 -0.0266,0.0607 0.0033,0.0236 0.02993,0.0337 0.02993,0.0337 l 0.02657,0.003 0.02,0.0102 v 0.0439 c 0.02653,-0.007 0.06973,0.0303 0.06647,0.0539 -0.0033,0.0237 0.0066,0.0101 0.0398,0.0338 0.03333,0.0237 0.02333,0.027 0.0466,0.0439 0.02327,0.0168 0.04323,0.007 0.05313,-0.0237 z"
     id="path21"
     inkscape:connector-curvature="0"
     style="fill:#ffffff;stroke-width:0.03333334" />
  <path
     d="m 11.584267,5.5194 c -0.0033,-0.0135 -0.01,-0.0608 0.01,-0.0574 0.0199,0.003 0.0067,0 0.0299,0.0101 0.02327,0.0102 0.02657,-0.0169 0.02657,-0.0169 h 0.03667 l 0.04647,0.0371 -0.0067,0.0304 -0.03323,0.003 c -0.01667,-0.027 -0.0499,-0.0168 -0.04323,0.007 0.0067,0.0236 -0.0166,0.0675 -0.02987,0.0708 -0.01333,0.003 -0.0566,0.003 -0.05323,-0.0168 0.0033,-0.0202 0.0166,-0.0675 0.0166,-0.0675 z m -0.0266,-0.0912 v -0.027 c 0,0 -0.0034,-0.027 -0.02,-0.027 -0.01653,0 -0.04647,-0.0202 -0.0399,-0.0337 0.0067,-0.0136 -0.05647,-0.027 -0.05647,-0.027 0,0 -0.05653,-0.054 -0.0366,-0.0472 0.02,0.007 0.01,-0.0237 0.01,-0.0237 0,0 -0.03993,0.007 -0.0499,0.003 -0.01,-0.003 -0.0067,-0.0337 -0.0067,-0.0337 0,0 -0.03987,-0.0101 -0.03987,0 0,0.0101 0.01327,0.0101 0.01987,0.0303 0.0067,0.0203 0.0033,0.054 0.03333,0.0608 0.02993,0.007 0.0365,0.0135 0.0399,0.027 0.0033,0.0135 0.03987,0.0169 0.03987,0.0169 l 0.02657,0.0135 0.07977,0.0675 z m -0.359,-0.34407 -0.0099,-0.027 -0.02667,-0.007 v 0.0303 z m -0.01,-0.14173 c -0.03477,-0.0263 0.0465,0.0203 0.0465,0.0203 0.02657,0 0.04323,0.0202 0.04323,0.0303 0,0.0102 0.03657,0.007 0.03657,0.007 l 0.0033,-0.0237 -0.02667,-0.0337 -0.0232,-0.0168 c 0,0 -0.03657,-0.003 -0.03657,-0.0135 0,-0.0101 -0.02993,0.0405 -0.04323,0.0303 z m 0.6116,0.0202 c -0.0097,0.0295 -0.01333,0.0709 -0.02993,0.0709 -0.0166,0 -0.01,0.0439 -0.01,0.0439 0,0 0.04333,0 0.0566,0.003 0.01327,0.003 0.01327,0.0371 0.01327,0.0371 0.0499,-0.003 0.06987,0.0641 0.06317,0.081 -0.0067,0.0169 0.02,0.0169 0.02,0.0169 0,0 0,0.054 -0.0067,0.0675 -0.0067,0.0135 0.04323,0.0237 0.0565,0.0439 0.01333,0.0203 -0.0067,0.0877 -0.01667,0.0911 -0.0099,0.003 0.0266,0.0135 0.02333,0.0303 -0.0034,0.0169 0.01,0 0.01327,0.027 0.0033,0.027 0.01,0.0843 0.01,0.0843 l 0.0465,0.003 c 0.0067,-0.0439 0.0924,-0.0455 0.1064,-0.0405 0.05653,0.0202 0.0998,0.108 0.0998,0.1282 0,0.0202 -0.0366,0.0237 -0.0366,0.0237 l 0.0067,0.0978 c 0.0565,0.0169 0.103,0.0979 0.09643,0.11134 -0.0067,0.0135 0.0398,0.0102 0.0398,0.0102 0.0067,-0.0608 0.0632,-0.0405 0.06647,-0.0202 0.0034,0.0202 0.01333,0.0641 0.01333,0.0641 l 0.01667,0.0303 0.02323,0.0237 0.03653,-0.003 0.01,0.0203 0.04327,0.007 c 0,0 0.0366,0.0404 0.0399,0.0506 0.0033,0.0101 0.0532,0.007 0.06647,0.0101 0.01327,0.003 0.03323,0.0135 0.03653,0.0303 0.0033,0.0169 0.02333,0.0439 0.02333,0.0439 0,0 0.03987,0.0102 0.0432,0.0237 0.0033,0.0134 0.02,0.0438 0.02,0.0438 l 0.03313,0.027 0.0033,0.0304 0.0366,0.003 0.01,0.0405 0.05977,-0.003 0.03333,-0.0236 c 0.0432,-0.0236 0.07313,-0.054 0.07647,-0.0675 0.0033,-0.0135 0.01,-0.0641 0.04327,-0.054 0.0332,0.0102 0.01,-0.0742 0.01,-0.0742 0,0 -0.04657,-0.0337 -0.04327,-0.0507 0.0033,-0.0168 -0.04653,-0.0505 -0.04323,-0.0641 0.0033,-0.0135 -0.0432,-0.0405 -0.0399,-0.054 0.0033,-0.0135 -0.02327,-0.0506 -0.02327,-0.0506 l -0.0499,-0.0472 -0.0067,-0.0303 -0.03983,-0.003 -0.07977,-0.0979 0.0033,-0.027 -0.02333,-0.003 v -0.0371 l -0.0232,-0.0135 -0.0366,-0.003 -0.07313,-0.081 -0.0067,-0.0371 H 12.575 l 0.0067,-0.0709 c 0.02327,-0.0303 0.0099,-0.0877 0.0099,-0.0877 0,0 -0.0466,0.0236 -0.0698,0.0135 -0.02333,-0.0101 0.0099,-0.0337 0.0099,-0.0337 v -0.027 l -0.0199,-0.0202 c 0,0 -0.05657,0.007 -0.05987,-0.003 -0.0033,-0.0101 -0.01333,-0.054 -0.01333,-0.054 l -0.0033,-0.0574 -0.0232,-0.0101 -0.0033,-0.0203 -0.03653,0.003 v -0.0405 l -0.02,-0.007 -0.0199,-0.0101 -0.0033,-0.0405 -0.07313,-0.003 -0.02327,-0.0338 -0.0266,-0.0405 -0.0831,-0.007 -0.02,-0.0202 -0.0332,-0.007 -0.02327,-0.0101 -0.01,0.0169 -0.06317,0.003 -0.0033,0.0203 c -0.0332,0.0169 -0.166166,0.003 -0.169566,0.0135 z m 0.3492,-0.0876 c -0.0053,-0.0267 0.06653,-0.0506 0.08313,-0.0304 0.01667,0.0203 0.06317,0.0237 0.06983,0.1249 0.0023,0.0362 -0.05983,-0.0371 -0.05983,-0.0371 l -0.04993,-0.0169 c -0.02657,-0.007 -0.0399,-0.0236 -0.0432,-0.0405 z m -0.975134,0.0412 -0.01817,-0.008 0.01333,-0.0303 0.01817,0.008 z m -0.171866,-0.33143 -0.04333,-0.0439 v -0.0371 l -0.01327,-0.0135 -0.01327,-0.0472 -0.04323,-0.0135 -0.04317,0.0169 -0.04657,0.0303 -0.04983,0.007 -0.02667,0.0303 0.106434,0.0101 0.0199,0.0338 0.07657,0.007 0.0498,0.0506 c 0.04333,0.0135 0.05323,-0.007 0.02667,-0.0303 z m -0.0066,-0.1654 c -0.0073,-0.0297 -0.0499,0.0371 -0.0066,0.0506 0.04323,0.0135 0.08633,0 0.08633,0 l 0.01,-0.0203 0.1662,0.003 c 0.0134,-0.0135 0.02,-0.0338 0.02,-0.0338 0,0 0.0399,-0.0135 0.05647,-0.007 0.01667,0.007 0.0034,-0.0472 -0.01327,-0.0405 -0.0166,0.007 -0.04983,0.003 -0.04983,0.003 H 11.2053 c -0.0033,-0.0236 -0.05653,-0.0135 -0.05987,0 -0.0033,0.0135 -0.02323,0.0169 -0.02323,0.0169 l -0.07647,0.007 c -0.0067,0.0203 -0.04653,0.0337 -0.0499,0.0203 z m -0.3292,0.5694 c 0.05113,0.0162 0.0698,0.004 0.07317,-0.009 0.0033,-0.0135 0.0066,-0.0169 0.02657,-0.0202 0.01993,-0.003 -0.0033,-0.0439 -0.02327,-0.0406 -0.02,0.003 -0.0399,-0.007 -0.0432,-0.0236 -0.0034,-0.0169 -0.03667,-0.0607 -0.03993,-0.027 -0.0033,0.0338 -0.02327,0.0338 -0.02,0.0574 0.0034,0.0236 0.01333,0.059 0.02667,0.0632 z m -0.3822,0.038 c -0.0024,-0.0119 0.06647,-0.0135 0.07647,-0.003 0.01,0.0101 0.0033,0.027 0.03323,0.027 0.0299,0 0.01667,0.0203 0.01333,0.0304 -0.0033,0.0101 -0.03657,0.007 -0.04,-0.003 -0.0032,-0.0102 -0.05317,-0.0136 -0.05317,-0.0136 0,0 -0.02657,-0.0203 -0.02987,-0.0371 z m 1.130733,-0.7233 -0.02633,0.0213 -0.01693,-0.0172 -0.0141,0.0143 0.0232,0.0236 0.0065,0.006 0.0069,-0.006 0.0334,-0.027 z m -0.183333,-0.0614 -0.02133,-0.0135 -0.01047,0.0172 0.02667,0.0168 0.0051,0.003 0.0053,-0.003 0.03667,-0.0237 -0.01067,-0.017 z m -0.1072,0.69413 -0.0048,-4.6e-4 -0.03323,-0.003 -0.002,0.0202 0.0285,0.003 0.02067,0.0329 0.01677,-0.0108 -0.02317,-0.0371 z m -1.0996,0.94077 0.0034,0.0371 h 0.0498 c 0.02,0 -0.01657,-0.0236 -0.01657,-0.0236 0,0 -0.0399,0.003 -0.0366,-0.0135 z m 0.0634,0.001 0.01273,-0.0156 0.02,0.0168 -0.01277,0.0156 z M 9.4827333,5.2467 l 0.0141,-0.0143 0.019933,0.0203 -0.014133,0.0143 z m 0.9656997,4.34284 -0.03323,-0.0168 -0.0089,0.0181 0.02083,0.0105 -0.0069,0.007 0.01423,0.0143 0.01667,-0.0169 0.0097,-0.01 z m -0.257433,-0.243 -0.01267,-0.0155 -0.0201,0.0168 -0.0099,0.008 0.01053,0.008 0.02333,0.0168 0.0116,-0.0164 -0.01283,-0.009 z m 2.472267,-0.64007 c -0.0044,-0.0172 -0.0238,-0.0243 -0.026,-0.025 l -0.0063,0.0193 v -1.4e-4 c 0.0016,6e-4 0.0039,0.002 0.0062,0.003 l 0.0041,0.0175 c -0.0015,0.002 -0.0031,0.004 -0.0044,0.006 l 0.01467,0.0137 c 0.01067,-0.0118 0.0146,-0.0233 0.0118,-0.0345 z m 0.03067,-0.0637 -0.03243,-0.002 0.0025,-0.0304 0.03243,0.005 z M 13.464471,8.3797 c 0.0142,-0.009 0.0324,-0.0253 0.02993,0.0127 -0.0025,0.0379 -0.01747,0.0253 -0.02993,0.0379 -0.01247,0.0127 -0.01993,-0.0379 0,-0.0506 z m 0.1692,-0.1432 a 0.02776667,0.02776667 0 0 1 -6e-4,-0.005 0.05513333,0.05513333 0 0 0 -0.0051,-0.0212 l -0.01787,0.009 c 0.0022,0.005 0.0027,0.009 0.003,0.0139 5.33e-4,0.006 0.0012,0.0127 0.0069,0.017 0.0036,0.003 0.0081,0.003 0.01343,0.002 l -0.0038,-0.0196 c 0.0015,2.4e-4 0.0035,0.002 0.004,0.003 z m -0.0444,0.0166 c 0.0051,0.0205 0.01247,0.0407 0.0128,0.0416 l 0.01867,-0.007 a 0.39566667,0.39566667 0 0 1 -0.01213,-0.0394 z m -0.0726,0.0796 -0.01987,-0.002 c -0.0016,0.0159 0.0022,0.0356 0.018,0.0388 l 0.0039,-0.0198 c 1.33e-4,0 3.33e-4,1.3e-4 3.33e-4,1.3e-4 -0.0016,-0.001 -0.0031,-0.01 -0.0023,-0.0171 z m -0.0874,-0.4026 a 0.0182,0.0182 0 0 0 -0.0109,-0.0142 c -0.01473,-0.006 -0.0396,0.004 -0.0518,0.0125 l 0.011,0.0169 c 0.01267,-0.009 0.02923,-0.0127 0.03293,-0.0108 a 0.00186667,0.00186667 0 0 1 -9e-4,-10e-4 l 0.01967,-0.003 z m -0.9208,-1.078 c -0.01333,0.0135 -0.0432,0.0203 -0.0432,0.0203 l -0.01,0.0371 -0.0166,0.0135 c 0,0 0.0033,0.0101 0,0.0337 -0.0033,0.0236 -0.03327,0.0371 -0.03327,0.0371 l -0.01327,0.0169 c 0,0 -0.08017,0.004 -0.08977,0 -0.0299,-0.0135 -0.0099,-0.054 0.01,-0.0507 0.01993,0.003 -0.0033,-0.0573 -0.0033,-0.0573 l 0.02667,-0.003 c 0,0 0.0032,-0.0608 0.01323,-0.0608 0.01,0 -0.0033,-0.0202 -0.01667,-0.0303 -0.01327,-0.0101 -0.02987,-0.0438 -0.04323,-0.0405 -0.01327,0.003 -0.06647,0 -0.06647,0 l -0.01,0.0202 -0.03657,0.007 c 0,0 0.0031,0.0261 -0.0033,0.0338 -0.02,0.0236 -0.09647,0.0742 -0.06327,-0.0101 l 0.01,-0.0202 V 6.7684 l -0.0598,-0.003 c 0,0 -0.02993,-0.0101 -0.02993,-0.0237 0,-0.0135 -0.0033,-0.0303 -0.0033,-0.0303 l -0.06983,-0.0776 -0.0831,-0.0101 -0.0067,-0.0169 -0.04983,-0.007 c -0.0599,-0.0303 -0.113134,-0.003 -0.103134,0.0473 0.01,0.0507 0.02657,0.0709 -0.0067,0.0709 -0.03327,0 -0.03987,-0.027 -0.03987,-0.027 0,0 -0.02657,-0.0102 -0.02657,0.003 0,0.0135 -0.01,0.0405 0,0.054 0.0099,0.0135 -0.01333,0.0337 -0.02333,0.0236 -0.0099,-0.0101 -0.03653,-0.0405 -0.02987,-0.0506 0.0067,-0.0101 -0.0466,-0.0742 0.0067,-0.0843 0.05317,-0.0102 -0.0033,-0.0405 0.01667,-0.0472 l 0.0265,-0.0135 h 0.0266 l 0.01667,-0.0135 -0.04327,-0.007 -0.02653,-0.003 -0.04993,-0.003 c -0.04983,0.0337 -0.05977,0.0742 -0.05977,0.0742 -0.02667,0.0506 -0.08977,-0.0203 -0.0665,-0.0472 0.02323,-0.027 -0.07317,-0.003 -0.0898,0.0101 -0.01667,0.0135 -0.06653,0.007 -0.06653,0.007 -0.0099,0.0303 -0.05647,-0.003 -0.0432,-0.0236 0.01333,-0.0203 0.01333,-0.0338 0.01333,-0.0338 l -0.01667,-0.003 -0.0199,0.0371 c -0.04653,0 -0.05987,0.027 -0.0499,0.0439 0.01,0.0169 -0.01333,-0.003 -0.02,0.0203 -0.0066,0.0237 0.0034,0.0237 0.02333,0.0338 0.02,0.0101 -0.01,0.0101 0.0033,0.027 0.01333,0.0169 0.0532,0 0.02993,0.0237 -0.02327,0.0236 -0.06987,0.0135 -0.06987,0.0135 -0.0033,0.0303 -0.06647,0.0236 -0.07307,0.0135 -0.0067,-0.0102 -0.05653,-0.0709 -0.05653,-0.0709 l -0.06323,-0.003 c -0.0066,-0.0473 0.03,-0.0237 0.04323,-0.0608 0.01333,-0.0371 0.02,-0.0978 0.02,-0.0978 0,0 -0.05323,-0.003 -0.05653,0.0135 -0.0033,0.0169 -0.03657,0.027 -0.03657,0.027 0,0 -0.0266,0.0101 -0.0166,0.0236 0.01,0.0135 -0.02,0.0202 -0.02,0.0202 0,0 0.0052,0.0218 -0.0033,0.0303 -0.02657,0.0271 -0.09313,0.003 -0.103066,-0.007 l -0.0399,-0.0169 -0.03993,-0.027 -0.0465,0.0202 -0.01333,0.0135 h -0.04987 l -0.0033,0.0404 0.0898,0.0101 0.0067,0.0835 -0.0366,-0.0126 H 10.6068 L 10.5968,6.712 10.57687,6.709 v 0.0742 l 0.02,0.0169 0.01667,0.0168 0.0332,0.003 0.0067,0.0405 0.08307,0.003 0.01,0.0169 0.0499,0.003 0.09643,0.0979 -0.0067,0.0303 -0.01667,0.0102 c 0.0067,0.0237 -0.04313,0.0101 -0.04313,0.0101 v 0.0203 l 0.02317,0.003 0.02333,0.0135 0.0332,-0.0573 c 0.0366,-0.0237 0.0532,0.0101 0.05657,0.0303 0.0033,0.0203 -0.01667,0.0169 -0.01667,0.0169 v 0.0473 l 0.02,0.007 C 10.99921,7.1533 10.95261,7.177 10.95261,7.177 l -0.01,0.0337 c -0.01,0.0304 -0.04653,0.0236 -0.04653,0.0236 l -0.0132,0.0203 -0.04,0.0102 0.079,0.0101 c 0.0075,-0.027 0.02733,-0.0337 0.03733,-0.0202 0.01,0.0136 0.01,0.0372 0.01,0.0372 l 0.02,0.003 -0.0033,0.0371 0.02,0.007 v 0.108 l 0.02323,0.027 c 0.03993,-0.0169 0.03993,0.0101 0.02,0.0236 -0.02,0.0134 -0.0067,0.0742 -0.0067,0.0742 l -0.01667,0.0168 v 0.027 l -0.01993,0.0135 v 0.0371 c -0.03327,-0.0169 -0.07317,-0.0101 -0.08317,0 -0.02987,-0.0203 -0.093,-0.0135 -0.093,0.003 0.01987,0.027 -0.02327,0.0337 -0.02327,0.0337 l -0.02333,0.027 c 0.01667,0.0338 -0.0166,0.0371 -0.0166,0.0371 v 0.0641 l -0.03993,0.0371 0.0033,0.0877 c 0,0.0237 0.04987,0.027 0.0598,0.0135 0.01,-0.0135 0.04993,0.0271 0.04993,0.0271 h 0.02987 l 0.0067,-0.0608 -0.02,-0.0102 V 7.8276 l 0.03333,-0.0372 c 0.03987,-0.0135 0.0266,0.0878 0.0266,0.0979 0.0033,0.0371 0.01987,0.0337 0.03653,0.027 0.03323,-0.0135 0.0066,0.0371 -0.01993,0.0337 -0.0266,-0.003 -0.01,0.0338 -0.01,0.0338 l 0.01667,0.007 -0.03,0.0236 -0.0265,0.0304 -0.03333,-0.0102 -0.03983,-0.003 -0.01333,-0.0237 -0.02333,-0.003 -0.0033,0.0472 -0.0166,0.0202 -0.0399,0.0406 c 0.05323,0 -0.0067,0.037 -0.02,0.037 0.03,0.0102 -0.0033,0.0406 -0.07973,0.017 v 0.0235 l -0.02667,0.003 0.02333,0.0269 0.0266,0.003 -0.01,0.0573 c 0,0.0439 -0.109667,0.0135 -0.119667,0.003 l -0.0033,0.0607 -0.0199,0.003 0.0033,0.0405 -0.0033,0.0573 0.03653,-0.007 v 0.0236 l 0.0898,0.003 0.129667,-0.13833 0.07643,-0.0169 c 0.0067,-0.0338 0.03983,0.007 0.03983,0.007 0.03327,-0.003 0.03993,0.0202 0.03993,0.0202 l 0.04323,0.007 c 0.03653,0.0102 0.01447,0.0137 0.0166,0.027 0.0033,0.0203 0.01993,0.0135 0.01993,0.0135 l 0.0067,-0.0438 0.02,0.003 -0.02,-0.0236 -0.0366,-0.0169 -0.03987,-0.0168 c -0.02667,-0.0371 0.0067,-0.0303 0.03323,-0.027 h 0.04323 c 0,0 0.0499,0.0675 0.0499,0.0843 0,0.017 0.02333,0.0203 0.02333,0.0203 l 0.02983,-0.003 0.01,0.0236 h 0.0299 l 0.01,0.0202 h 0.05987 l 0.0033,-0.0303 -0.0566,-0.0101 -0.0033,-0.0338 -0.03983,-0.0101 c -0.01333,-0.0573 0.0099,-0.0742 0.02657,-0.0472 l 0.01993,0.003 -0.0067,-0.0507 0.02327,-0.007 -0.0067,-0.0709 -0.0199,-0.007 v -0.0237 l 0.08313,0.003 c -0.0066,-0.0439 0.0033,-0.0641 0.0033,-0.0641 h 0.02327 l 0.0033,0.0169 0.101667,0.01 0.072,-0.0825 c -0.0037,-0.006 0.0072,-0.0102 -7.34e-4,-0.0182 -0.01,-0.0101 -0.02333,0 -0.04,-0.0101 -0.01657,-0.01 0,-0.0674 -0.0033,-0.0809 -0.0033,-0.0135 0.05667,-0.0338 0.04667,-0.003 -0.01,0.0304 0,0.0439 0,0.0439 0.0432,-0.0405 0.07977,0.003 0.07647,0.0135 -0.0034,0.0101 0.02323,0.0202 0.0398,0.0101 0.01667,-0.0101 0.03667,0.0303 0.03,0.0506 -0.0067,0.0202 -0.0665,0.0169 -0.0698,-0.003 -0.0034,-0.0203 -0.0134,-0.0135 -0.02,-0.003 -0.0067,0.0101 -0.03653,0.0168 -0.0532,0.007 a 0.01586667,0.01586667 0 0 1 -0.0059,-0.005 l -0.0719,0.0825 0.0047,4.6e-4 c 0.03987,0.0237 0.02,0.054 0.0067,0.0608 -0.01333,0.007 -0.0366,0.007 -0.0366,0.007 l -0.0066,0.0135 -0.08643,0.007 -0.0067,0.0338 c -0.04323,-0.007 -0.05983,0.0405 -0.04987,0.0641 0.01,0.0236 0,0.0439 0,0.0439 l 0.03657,0.0169 0.0465,-0.0134 c 0.0067,-0.0338 0.03657,-0.0405 0.0632,-0.0607 0.02657,-0.0203 0.06983,0.037 0.0565,0.0641 -0.01327,0.027 -0.01327,0.0371 -0.01327,0.0371 l 0.0033,0.0304 -0.03327,0.0135 -0.02657,0.0135 -0.0033,0.0169 H 11.2153 l -0.0166,0.0168 -0.04327,0.003 -0.01333,0.0202 -0.02987,0.003 c 0,0 -0.0499,0.0236 -0.02993,0.0506 0.02,0.027 -0.0831,0.0237 -0.106433,-0.0135 -0.0066,0.0337 -0.04317,0.003 -0.04317,0.003 l -0.03657,-0.0101 -0.0033,-0.0505 c -0.0067,-0.0338 -0.0698,-0.0338 -0.06643,-0.0101 0.0033,0.0237 -0.119767,0.0101 -0.119767,0.0101 l -0.03983,0.0193 -0.03667,0.0211 -0.0033,0.0169 -0.0599,0.007 -0.02657,0.0135 -0.01,-0.0203 h -0.02653 l -0.02667,0.0371 c -0.06977,0.003 -0.136234,0.0439 -0.129667,0.0608 0.0067,0.0168 -0.0265,0.0338 -0.0265,0.0338 l -0.03,0.01 -0.01987,0.0303 -0.03993,0.0135 -0.0067,0.0709 -0.01993,0.0135 v 0.0304 l -0.02333,0.007 v 0.0169 l -0.0332,0.003 0.0199,0.0507 0.02667,0.0135 c 0.04653,0.007 0.02657,0.0641 0.02657,0.0641 l 0.02657,0.003 0.01333,0.0371 0.02653,0.0539 c 0.01,0.0406 0.03993,0.0304 0.05323,0.027 0.01327,-0.003 0.02653,0.0405 0.02653,0.0405 l 0.132933,0.003 c 0,0 -0.0066,0.0135 0.01667,0.0203 0.02327,0.007 0.1762,0.0135 0.1829,0.003 -0.0067,-0.0303 0.083,-0.0371 0.119667,-0.0101 0.03653,0.027 0.08643,0.0101 0.08643,0.0101 l 0.04983,0.0607 0.03333,0.0743 0.05647,0.0169 0.03987,0.0101 0.01333,0.0573 0.0299,0.003 0.01,0.0372 c 0.0366,0.0269 -0.01,0.0843 -0.01,0.0843 v 0.0742 l 0.0266,0.0135 -0.0033,0.0271 0.04327,0.0438 0.04983,0.003 0.1264,0.1349 0.09967,0.0303 0.01667,0.054 0.02667,-0.003 0.0199,-0.0169 0.07973,-0.003 0.0399,-0.0372 0.0432,-0.007 0.369,-0.31383 -0.03327,-0.0203 V 9.4047 c 0.05987,-0.0439 0.06317,-0.1215 0.0067,-0.12823 -0.04287,-0.005 -0.02323,-0.0507 0.01667,-0.0573 l 0.02323,-0.0101 v -0.0304 l 0.07647,-0.0708 v -0.054 l -0.1662,-0.1384 c -0.0732,-0.0269 0,-0.18893 0.0498,-0.18557 0.0499,0.003 -0.0033,-0.24966 -0.0033,-0.24966 l -0.0266,-0.0135 0.0067,-0.081 H 11.9798 l -0.05987,0.0777 -0.0166,0.0539 c -0.0067,0.0709 -0.2128,0.0573 -0.2228,0.0472 -0.01,-0.0102 -0.07977,-0.0405 -0.07977,-0.0405 0,0 -0.0532,-0.0439 -0.06317,-0.0303 -0.01,0.0135 -0.0565,-0.0169 -0.0565,-0.007 0,0.0101 -0.0432,-0.0236 -0.0432,-0.0236 l -0.0665,-0.0237 0.04993,-0.0101 -0.01,-0.0405 0.08633,0.0439 c 0.01,0.0135 0.05323,0.0101 0.05323,0.0101 l 0.01333,0.0169 c 0,0 0.0266,-0.003 0.04327,0.0168 0.0166,0.0203 0.103,0.003 0.103,0.003 l 0.02327,0.0202 0.03657,0.0135 0.1031,0.003 0.0033,-0.064 0.01993,-0.0203 -0.0033,-0.0405 0.02333,-0.0202 v -0.0337 l 0.01993,-0.007 0.0033,-0.0742 0.01657,-0.003 v -0.162 l -0.04987,-0.0473 c -0.0033,0.0169 -0.05653,0.0169 -0.05653,0.0169 0,0 -0.01327,0.0236 -0.02327,0.0236 -0.0099,0 0.01333,0.0303 0.0067,0.0506 -0.0067,0.0202 -0.03327,0.0202 -0.03327,0.0202 l -0.0499,0.0135 -0.01327,0.0169 h -0.0532 l -0.0066,-0.0439 0.05977,-0.0169 0.03333,-0.0168 0.01667,-0.0338 c 0.0032,-0.0337 0.04317,-0.0303 0.04317,-0.0303 0,0 0.07647,-0.0641 0.07977,-0.0945 0.0034,-0.0304 0.03,-0.11477 0.07647,-0.11477 h 0.08647 c 0.03323,-0.0135 0.02327,-0.0574 0.02327,-0.0574 l 0.04323,-0.007 0.0067,0.0236 c 0,0 0.0599,0.007 0.0665,-0.003 0.0067,-0.01 0.02,-0.0337 0.03667,-0.0236 0.01657,0.0101 0.06977,-0.0237 0.06977,-0.0237 0.0033,-0.0236 0.0864,-0.0135 0.0864,-0.0135 l 0.01,-0.0304 c 0,0 -0.0565,-0.0776 -0.06647,-0.0776 -0.01,0 -0.06317,-0.0473 -0.06987,-0.0303 -0.05313,-0.0135 -0.04983,-0.0878 -0.04983,-0.0878 l -0.02,-0.0472 c 0,-0.027 -0.04977,-0.0843 -0.0598,-0.0776 -0.04987,-0.0371 -0.01327,-0.081 0,-0.0843 0.01333,-0.003 0.0466,-0.0507 0.0466,-0.0507 l 0.0166,-0.0472 0.0565,-0.0168 0.0067,-0.0439 -0.02983,-0.003 c 0,0 0.0332,-0.0608 0.04987,-0.0608 0.01667,0 0.1264,0 0.136333,-0.007 0.0099,-0.007 0.02987,-0.0607 0.02987,-0.0708 0,-0.0101 0.02667,-0.0135 0.03657,-0.0169 0.01,-0.003 0.03327,-0.0303 0.0399,-0.0438 0.0067,-0.0136 -0.01653,-0.098 -0.02987,-0.0845 z"
     id="path23"
     inkscape:connector-curvature="0"
     style="fill:#ffffff;stroke-width:0.03333334" />
  <path
     d="m 10.666667,8.0686 c 0.005,-0.005 0.01,0.0152 0.02,0.0127 0.0099,-0.003 0.0149,0.0177 0.005,0.0177 -0.01,0 -0.01,0.0127 -0.01,0.0177 0,0.005 0,0.0177 -0.0075,0.0253 -0.0075,0.008 -0.015,0.002 -0.025,-0.003 -0.0099,-0.005 -0.01487,-0.005 -0.0274,-0.005 -0.01243,0 -0.0025,0.0203 -0.0025,0.0203 0,0 -0.05233,-0.002 -0.04233,-0.0101 0.0099,-0.008 0.0199,-0.0101 0.01247,-0.0152 -0.0075,-0.005 0,-0.0101 0,-0.0202 0,-0.0101 0.025,-0.005 0.01743,-0.0127 -0.0074,-0.008 1.67e-4,-0.037 0.01247,-0.0203 l 0.0075,-0.0177 c -0.0075,-0.008 -0.0025,-0.0101 -0.01743,-0.0151 -0.015,-0.005 -0.0026,-0.0355 -0.0026,-0.0355 l 0.0025,-0.0202 c 0.005,-0.0253 0.0548,-0.0279 0.05733,-0.005 0.0024,0.0228 0,0.038 0,0.038 l 0.015,0.005 c 0,0 -0.0026,0.0153 -0.015,0.0153 -0.01253,0 0,0.007 -0.0075,0.0151 l 0.0075,0.0126 z m -0.1646,0.0254 c 0.0075,-0.0152 0.02493,-0.081 0.0449,-0.0607 0.01987,0.0202 0.03233,0 0.03233,0 0,0 0.01,0.0101 0.005,0.0304 -0.005,0.0202 -0.01,0.0405 -0.0225,0.043 -0.0124,0.003 -0.0224,0.0101 -0.03733,0.0127 -0.0149,0.003 -0.02243,-0.0253 -0.02243,-0.0253 z"
     id="path25"
     inkscape:connector-curvature="0"
     style="fill:#ffffff;stroke-width:0.03333334" />
</svg>
