<?xml version="1.0" encoding="UTF-8" standalone="no"?>
<svg
   xmlns:dc="http://purl.org/dc/elements/1.1/"
   xmlns:cc="http://creativecommons.org/ns#"
   xmlns:rdf="http://www.w3.org/1999/02/22-rdf-syntax-ns#"
   xmlns:svg="http://www.w3.org/2000/svg"
   xmlns="http://www.w3.org/2000/svg"
   xmlns:xlink="http://www.w3.org/1999/xlink"
   xmlns:sodipodi="http://sodipodi.sourceforge.net/DTD/sodipodi-0.dtd"
   xmlns:inkscape="http://www.inkscape.org/namespaces/inkscape"
   height="15.999998"
   width="21.333332"
   viewBox="0 0 21.333332 15.999998"
   version="1.1"
   id="svg242"
   sodipodi:docname="vg.svg"
   inkscape:version="0.92.1 r">
  <metadata
     id="metadata246">
    <rdf:RDF>
      <cc:Work
         rdf:about="">
        <dc:format>image/svg+xml</dc:format>
        <dc:type
           rdf:resource="http://purl.org/dc/dcmitype/StillImage" />
        <dc:title></dc:title>
      </cc:Work>
    </rdf:RDF>
  </metadata>
  <sodipodi:namedview
     pagecolor="#ffffff"
     bordercolor="#666666"
     borderopacity="1"
     objecttolerance="10"
     gridtolerance="10"
     guidetolerance="10"
     inkscape:pageopacity="0"
     inkscape:pageshadow="2"
     inkscape:window-width="1920"
     inkscape:window-height="1024"
     id="namedview244"
     showgrid="false"
     fit-margin-top="0"
     fit-margin-left="0"
     fit-margin-right="0"
     fit-margin-bottom="0"
     inkscape:zoom="0.49166667"
     inkscape:cx="320"
     inkscape:cy="240"
     inkscape:window-x="0"
     inkscape:window-y="0"
     inkscape:window-maximized="1"
     inkscape:current-layer="svg242" />
  <defs
     id="defs22">
    <linearGradient
       id="a">
      <stop
         stop-color="red"
         offset="0"
         id="stop2" />
      <stop
         stop-color="#ff0"
         offset="1"
         id="stop4" />
    </linearGradient>
    <linearGradient
       id="c"
       y2="107.76"
       xlink:href="#a"
       gradientUnits="userSpaceOnUse"
       y1="111.28"
       gradientTransform="matrix(0.64274,0,0,1.4534,-94.683,29.21)"
       x2="92.551003"
       x1="103.08" />
    <linearGradient
       id="d"
       y2="107.76"
       xlink:href="#a"
       gradientUnits="userSpaceOnUse"
       y1="111.28"
       gradientTransform="matrix(0.64274,0,0,1.4534,-94.666,30.155)"
       x2="92.551003"
       x1="103.08" />
    <linearGradient
       id="e"
       y2="107.76"
       xlink:href="#a"
       gradientUnits="userSpaceOnUse"
       y1="111.28"
       gradientTransform="matrix(0.64274,0,0,1.4534,-97.986,31.014)"
       x2="92.551003"
       x1="103.08" />
    <linearGradient
       id="f"
       y2="107.76"
       xlink:href="#a"
       gradientUnits="userSpaceOnUse"
       y1="111.28"
       gradientTransform="matrix(0.64274,0,0,1.4534,-94.743,31.932)"
       x2="92.551003"
       x1="103.08" />
    <linearGradient
       id="g"
       y2="107.76"
       xlink:href="#a"
       gradientUnits="userSpaceOnUse"
       y1="111.28"
       gradientTransform="matrix(0.64274,0,0,1.4534,-94.75,32.835)"
       x2="92.551003"
       x1="103.08" />
    <linearGradient
       id="h"
       y2="107.76"
       xlink:href="#a"
       gradientUnits="userSpaceOnUse"
       y1="111.28"
       gradientTransform="matrix(0.64274,0,0,1.4534,-94.767,33.751)"
       x2="92.551003"
       x1="103.08" />
    <linearGradient
       id="i"
       y2="107.76"
       xlink:href="#a"
       gradientUnits="userSpaceOnUse"
       y1="111.28"
       gradientTransform="matrix(0.64274,0,0,1.4534,-98.011,33.736)"
       x2="92.551003"
       x1="103.08" />
    <linearGradient
       id="j"
       y2="107.76"
       xlink:href="#a"
       gradientUnits="userSpaceOnUse"
       y1="111.28"
       gradientTransform="matrix(0.64274,0,0,1.4534,-97.981,32.837)"
       x2="92.551003"
       x1="103.08" />
    <linearGradient
       id="k"
       y2="107.76"
       xlink:href="#a"
       gradientUnits="userSpaceOnUse"
       y1="111.28"
       gradientTransform="matrix(0.64274,0,0,1.4534,-97.942,31.918)"
       x2="92.551003"
       x1="103.08" />
    <linearGradient
       id="l"
       y2="107.76"
       xlink:href="#a"
       gradientUnits="userSpaceOnUse"
       y1="111.28"
       gradientTransform="matrix(0.8281,0,0,1.8726,602.82,148.17)"
       x2="92.551003"
       x1="103.08" />
    <linearGradient
       id="m"
       y2="107.76"
       xlink:href="#a"
       gradientUnits="userSpaceOnUse"
       y1="111.28"
       gradientTransform="matrix(0.64274,0,0,1.4534,-97.976,30.11)"
       x2="92.551003"
       x1="103.08" />
    <linearGradient
       id="n"
       y2="107.76"
       xlink:href="#a"
       gradientUnits="userSpaceOnUse"
       y1="111.28"
       gradientTransform="matrix(0.64274,0,0,1.4534,-95.336,30.955)"
       x2="92.551003"
       x1="103.08" />
    <clipPath
       id="b">
      <path
         d="M 0,0 H 640 V 480 H 0 Z"
         id="path19"
         inkscape:connector-curvature="0"
         style="fill-opacity:0.67000002" />
    </clipPath>
  </defs>
  <g
     clip-path="url(#b)"
     id="g240"
     transform="scale(0.03333333)">
    <path
       d="M 0,0 H 960 V 480 H 0 Z"
       id="path24"
       inkscape:connector-curvature="0"
       style="fill:#000066" />
    <path
       d="M 0,0 H 350.002 V 175 H 0 Z"
       id="path26"
       inkscape:connector-curvature="0"
       style="fill:#000066;fill-rule:evenodd" />
    <g
       id="g34"
       style="stroke-width:1.00000003pt">
      <path
         d="M 0,0 V 19.566 L 310.871,175 h 39.13 V 155.435 L 39.132,0.001 H 0 Z M 350.002,0 V 19.565 L 39.13,175.001 H 0 V 155.436 L 310.871,0 h 39.13 z"
         id="path28"
         inkscape:connector-curvature="0"
         style="fill:#ffffff" />
      <path
         d="m 145.834,0 v 175 h 58.334 V 0 Z M 0,58.334 v 58.333 H 350.002 V 58.334 Z"
         id="path30"
         inkscape:connector-curvature="0"
         style="fill:#ffffff" />
      <path
         d="m 0,70 v 35 H 350.002 V 70 Z M 157.5,0 v 175 h 35 V 0 Z M 0,175 116.667,116.667 h 26.087 L 26.087,175.001 H 0 Z M 0,0 116.667,58.334 H 90.58 L 0,13.044 Z M 207.248,58.334 323.915,0 h 26.087 L 233.334,58.334 Z M 350.002,175 233.334,116.666 h 26.087 l 90.58,45.29 V 175 Z"
         id="path32"
         inkscape:connector-curvature="0"
         style="fill:#cc0000" />
    </g>
    <g
       id="g238">
      <path
         d="m 378.474,154.457 219.342,-0.814 -0.407,195.333 c 0,0 7.732,29.706 -91.967,74.876 35.81,-3.663 74.876,-41.914 74.876,-41.914 0,0 15.87,-20.347 23.603,-8.953 7.731,11.394 15.056,17.091 20.753,21.568 5.697,4.476 10.174,16.685 1.628,25.637 -8.546,8.952 -21.974,10.173 -25.637,-0.814 -5.697,2.849 -40.693,45.17 -112.31,47.205 -72.84,-1.221 -112.72,-47.612 -112.72,-47.612 0,0 -9.766,15.464 -23.602,3.256 -13.428,-15.87 -3.255,-26.044 -3.255,-26.044 0,0 11.394,-6.511 14.65,-10.988 5.29,-6.104 6.917,-14.243 15.87,-14.243 10.58,0.814 14.65,9.36 14.65,9.36 0,0 36.624,38.659 76.096,43.542 -89.12,-42.728 -92.375,-69.18 -91.968,-75.69 l 0.407,-193.7 z"
         id="path36"
         inkscape:connector-curvature="0"
         style="fill:#ffffff;fill-rule:evenodd" />
      <path
         d="m 383.76,159.743 209.16,-1.22 v 188.003 c 0.407,24.416 -40.694,49.24 -104.99,80.98 -66.323,-34.183 -104.57,-54.939 -104.98,-81.381 l 0.813,-186.372 z"
         id="path38"
         inkscape:connector-curvature="0"
         style="fill:#006129;fill-rule:evenodd;stroke:#000000;stroke-width:1.71733451" />
      <path
         d="m 408.912,366.902 12.346,-18.133 12.407,18.172"
         id="path40"
         inkscape:connector-curvature="0"
         style="fill:none;stroke:#f7c600;stroke-width:1.71797943" />
      <path
         d="m 423.739,360.115 a 2.4520002,2.4520002 0 1 1 -4.904,0.002 2.4520002,2.4520002 0 0 1 4.904,-0.002 z"
         id="path42"
         inkscape:connector-curvature="0"
         style="fill:#f7c600;fill-rule:evenodd;stroke:#000000;stroke-width:0.80505598" />
      <path
         d="m 411.233,380.3 19.141,0.054 c 0,0 0.3,-2.484 -2,-3.994 10.026,-1.378 7.422,-10.222 15.818,-10.723 1.63,0.25 -4.386,3.76 -4.386,3.76 0,0 -5.062,3.572 -2.757,5.388 1.83,1.442 2.632,-0.877 2.883,-2.631 0.25,-1.755 8.145,-2.883 7.018,-7.895 -1.88,-4.136 -12.908,2.757 -12.908,2.757 l -7.868,-0.044 c -0.49,-0.883 -2.66,-4.424 -4.898,-4.44 -2.657,0.096 -4.528,4.484 -4.528,4.484 h -17.796 c 0,0 -0.61,4.566 8.413,5.443 2.032,2.653 3.607,3.394 5.373,4.081 -1.178,0.981 -1.51,2.168 -1.504,3.76 z"
         id="path44"
         inkscape:connector-curvature="0"
         style="fill:#f7c600;fill-rule:evenodd;stroke:#000000;stroke-width:0.80542684" />
      <path
         d="m 412.611,376.411 15.943,-0.054 m -23.244,-9.349 c 0,0 1.275,7.457 7.161,9.223"
         id="path46"
         inkscape:connector-curvature="0"
         style="fill:none;stroke:#000000;stroke-width:0.80542684" />
      <path
         d="m 66.32,170.54 c 0.445,-2.151 1.261,-2.522 2.151,-5.267 0.149,-2.67 -2.151,-2.374 -1.483,-4.08 1.187,-1.855 0.593,-3.635 -1.632,-5.045 0.445,2.448 -2.894,4.748 -2.894,6.751 0,2.003 1.707,1.558 1.484,4.6 0.148,1.78 -0.445,1.335 -0.593,3.041 z"
         transform="matrix(1.3225,0,0,1.3225,316.617,141.369)"
         id="path48"
         style="fill:url(#c);fill-rule:evenodd;stroke:#000000;stroke-width:0.60900003"
         inkscape:connector-curvature="0" />
      <path
         d="m 423.542,349.227 a 2.2560001,2.2560001 0 1 1 -4.512,0.001 2.2560001,2.2560001 0 0 1 4.512,-0.001 z"
         id="path50"
         inkscape:connector-curvature="0"
         style="fill:#f7c600;fill-rule:evenodd;stroke:#000000;stroke-width:0.80542684" />
      <path
         d="m 408.214,329.58 12.346,-18.134 12.407,18.172"
         id="path52"
         inkscape:connector-curvature="0"
         style="fill:none;stroke:#f7c600;stroke-width:1.71797943" />
      <path
         d="m 423.04,322.793 a 2.452,2.452 0 1 1 -4.903,10e-4 2.4520001,2.4520001 0 0 1 4.904,-10e-4 z"
         id="path54"
         inkscape:connector-curvature="0"
         style="fill:#f7c600;fill-rule:evenodd;stroke:#000000;stroke-width:0.80505598" />
      <path
         d="m 410.535,342.977 19.141,0.055 c 0,0 0.3,-2.485 -2,-3.994 10.026,-1.379 7.422,-10.222 15.818,-10.723 1.63,0.25 -4.386,3.76 -4.386,3.76 0,0 -5.062,3.572 -2.757,5.388 1.83,1.442 2.632,-0.877 2.883,-2.632 0.25,-1.754 8.145,-2.882 7.018,-7.895 -1.88,-4.135 -12.908,2.757 -12.908,2.757 l -7.868,-0.044 c -0.49,-0.883 -2.66,-4.424 -4.898,-4.44 -2.657,0.097 -4.528,4.484 -4.528,4.484 h -17.796 c 0,0 -0.61,4.566 8.413,5.443 2.032,2.653 3.607,3.395 5.372,4.081 -1.177,0.982 -1.508,2.169 -1.503,3.76 z"
         id="path56"
         inkscape:connector-curvature="0"
         style="fill:#f7c600;fill-rule:evenodd;stroke:#000000;stroke-width:0.80542684" />
      <path
         d="m 411.913,339.089 15.943,-0.055 m -23.245,-9.348 c 0,0 1.276,7.456 7.162,9.222"
         id="path58"
         inkscape:connector-curvature="0"
         style="fill:none;stroke:#000000;stroke-width:0.80542684" />
      <path
         d="m 66.32,170.54 c 0.445,-2.151 1.261,-2.522 2.151,-5.267 0.149,-2.67 -2.151,-2.374 -1.483,-4.08 1.187,-1.855 0.593,-3.635 -1.632,-5.045 0.445,2.448 -2.894,4.748 -2.894,6.751 0,2.003 1.707,1.558 1.484,4.6 0.148,1.78 -0.445,1.335 -0.593,3.041 z"
         transform="matrix(1.3225,0,0,1.3225,315.919,104.047)"
         id="path60"
         style="fill:url(#d);fill-rule:evenodd;stroke:#000000;stroke-width:0.60900003"
         inkscape:connector-curvature="0" />
      <path
         d="m 422.844,311.904 a 2.2560001,2.2560001 0 1 1 -4.512,10e-4 2.2560001,2.2560001 0 0 1 4.512,-10e-4 z"
         id="path62"
         inkscape:connector-curvature="0"
         style="fill:#f7c600;fill-rule:evenodd;stroke:#000000;stroke-width:0.80542684" />
      <path
         d="m 539.38,295.652 12.347,-18.134 12.406,18.172"
         id="path64"
         inkscape:connector-curvature="0"
         style="fill:none;stroke:#f7c600;stroke-width:1.71797943" />
      <path
         d="m 554.207,288.865 a 2.4520002,2.4520002 0 1 1 -4.904,0.002 2.4520002,2.4520002 0 0 1 4.904,-0.002 z"
         id="path66"
         inkscape:connector-curvature="0"
         style="fill:#f7c600;fill-rule:evenodd;stroke:#000000;stroke-width:0.80505598" />
      <path
         d="m 541.701,309.05 19.141,0.054 c 0,0 0.3,-2.484 -1.999,-3.994 10.026,-1.379 7.421,-10.222 15.818,-10.723 1.629,0.25 -4.387,3.76 -4.387,3.76 0,0 -5.062,3.572 -2.757,5.388 1.83,1.442 2.632,-0.877 2.883,-2.632 0.25,-1.754 8.146,-2.882 7.018,-7.895 -1.88,-4.135 -12.908,2.757 -12.908,2.757 l -7.868,-0.043 c -0.49,-0.884 -2.66,-4.425 -4.898,-4.441 -2.657,0.097 -4.528,4.484 -4.528,4.484 H 529.42 c 0,0 -0.61,4.566 8.413,5.443 2.032,2.654 3.607,3.395 5.373,4.082 -1.178,0.98 -1.51,2.168 -1.504,3.76 z"
         id="path68"
         inkscape:connector-curvature="0"
         style="fill:#f7c600;fill-rule:evenodd;stroke:#000000;stroke-width:0.80542684" />
      <path
         d="m 543.08,305.16 15.942,-0.053 m -23.245,-9.349 c 0,0 1.276,7.456 7.163,9.222"
         id="path70"
         inkscape:connector-curvature="0"
         style="fill:none;stroke:#000000;stroke-width:0.80542684" />
      <path
         d="m 66.32,170.54 c 0.445,-2.151 1.261,-2.522 2.151,-5.267 0.149,-2.67 -2.151,-2.374 -1.483,-4.08 1.187,-1.855 0.593,-3.635 -1.632,-5.045 0.445,2.448 -2.894,4.748 -2.894,6.751 0,2.003 1.707,1.558 1.484,4.6 0.148,1.78 -0.445,1.335 -0.593,3.041 z"
         transform="matrix(1.3225,0,0,1.3225,447.085,70.119)"
         id="path72"
         style="fill:url(#e);fill-rule:evenodd;stroke:#000000;stroke-width:0.60900003"
         inkscape:connector-curvature="0" />
      <path
         d="m 554.01,277.976 a 2.2560002,2.2560002 0 1 1 -4.512,0.002 2.2560002,2.2560002 0 0 1 4.512,-0.002 z"
         id="path74"
         inkscape:connector-curvature="0"
         style="fill:#f7c600;fill-rule:evenodd;stroke:#000000;stroke-width:0.80542684" />
      <path
         d="m 411.273,259.372 12.346,-18.134 12.407,18.172"
         id="path76"
         inkscape:connector-curvature="0"
         style="fill:none;stroke:#f7c600;stroke-width:1.71797943" />
      <path
         d="m 426.1,252.585 a 2.4520001,2.4520001 0 1 1 -4.904,0.001 2.4520001,2.4520001 0 0 1 4.904,-0.001 z"
         id="path78"
         inkscape:connector-curvature="0"
         style="fill:#f7c600;fill-rule:evenodd;stroke:#000000;stroke-width:0.80505598" />
      <path
         d="m 413.594,272.769 19.141,0.054 c 0,0 0.3,-2.484 -2,-3.994 10.026,-1.378 7.422,-10.221 15.818,-10.723 1.63,0.251 -4.386,3.76 -4.386,3.76 0,0 -5.062,3.572 -2.757,5.389 1.83,1.442 2.632,-0.877 2.883,-2.632 0.25,-1.754 8.145,-2.882 7.018,-7.895 -1.88,-4.136 -12.908,2.757 -12.908,2.757 l -7.868,-0.044 c -0.49,-0.883 -2.66,-4.424 -4.898,-4.44 -2.657,0.097 -4.528,4.484 -4.528,4.484 h -17.796 c 0,0 -0.61,4.566 8.413,5.443 2.032,2.653 3.606,3.394 5.372,4.081 -1.177,0.981 -1.508,2.168 -1.503,3.76 z"
         id="path80"
         inkscape:connector-curvature="0"
         style="fill:#f7c600;fill-rule:evenodd;stroke:#000000;stroke-width:0.80542684" />
      <path
         d="m 414.972,268.88 15.943,-0.054 m -23.245,-9.349 c 0,0 1.276,7.457 7.162,9.223"
         id="path82"
         inkscape:connector-curvature="0"
         style="fill:none;stroke:#000000;stroke-width:0.80542684" />
      <path
         d="m 66.32,170.54 c 0.445,-2.151 1.261,-2.522 2.151,-5.267 0.149,-2.67 -2.151,-2.374 -1.483,-4.08 1.187,-1.855 0.593,-3.635 -1.632,-5.045 0.445,2.448 -2.894,4.748 -2.894,6.751 0,2.003 1.707,1.558 1.484,4.6 0.148,1.78 -0.445,1.335 -0.593,3.041 z"
         transform="matrix(1.3225,0,0,1.3225,318.978,33.838)"
         id="path84"
         style="fill:url(#f);fill-rule:evenodd;stroke:#000000;stroke-width:0.60900003"
         inkscape:connector-curvature="0" />
      <path
         d="m 425.903,241.696 a 2.2560001,2.2560001 0 1 1 -4.512,0.001 2.2560001,2.2560001 0 0 1 4.512,-0.001 z"
         id="path86"
         inkscape:connector-curvature="0"
         style="fill:#f7c600;fill-rule:evenodd;stroke:#000000;stroke-width:0.80542684" />
      <g
         id="g100">
        <path
           d="m 411.55,223.713 12.347,-18.134 12.406,18.172"
           id="path88"
           inkscape:connector-curvature="0"
           style="fill:none;stroke:#f7c600;stroke-width:1.71797943" />
        <path
           d="m 426.377,216.926 a 2.4520001,2.4520001 0 1 1 -4.904,0.001 2.4520001,2.4520001 0 0 1 4.904,-0.001 z"
           id="path90"
           inkscape:connector-curvature="0"
           style="fill:#f7c600;fill-rule:evenodd;stroke:#000000;stroke-width:0.80505598" />
        <path
           d="m 413.871,237.11 19.141,0.055 c 0,0 0.3,-2.485 -1.999,-3.994 10.026,-1.38 7.421,-10.222 15.818,-10.723 1.629,0.25 -4.387,3.76 -4.387,3.76 0,0 -5.062,3.572 -2.757,5.388 1.83,1.442 2.632,-0.877 2.883,-2.632 0.25,-1.754 8.146,-2.882 7.018,-7.895 -1.88,-4.135 -12.908,2.757 -12.908,2.757 l -7.868,-0.044 c -0.49,-0.883 -2.66,-4.424 -4.898,-4.44 -2.657,0.097 -4.528,4.484 -4.528,4.484 H 401.59 c 0,0 -0.61,4.566 8.413,5.443 2.032,2.653 3.607,3.395 5.373,4.081 -1.178,0.982 -1.51,2.169 -1.504,3.76 z"
           id="path92"
           inkscape:connector-curvature="0"
           style="fill:#f7c600;fill-rule:evenodd;stroke:#000000;stroke-width:0.80542684" />
        <path
           d="m 415.25,233.222 15.942,-0.055 m -23.245,-9.349 c 0,0 1.276,7.457 7.163,9.223"
           id="path94"
           inkscape:connector-curvature="0"
           style="fill:none;stroke:#000000;stroke-width:0.80542684" />
        <path
           d="m 66.32,170.54 c 0.445,-2.151 1.261,-2.522 2.151,-5.267 0.149,-2.67 -2.151,-2.374 -1.483,-4.08 1.187,-1.855 0.593,-3.635 -1.632,-5.045 0.445,2.448 -2.894,4.748 -2.894,6.751 0,2.003 1.707,1.558 1.484,4.6 0.148,1.78 -0.445,1.335 -0.593,3.041 z"
           transform="matrix(1.3225,0,0,1.3225,319.255,-1.82)"
           id="path96"
           style="fill:url(#g);fill-rule:evenodd;stroke:#000000;stroke-width:0.60900003"
           inkscape:connector-curvature="0" />
        <path
           d="m 426.18,206.037 a 2.2560001,2.2560001 0 1 1 -4.512,0.001 2.2560001,2.2560001 0 0 1 4.512,-0.001 z"
           id="path98"
           inkscape:connector-curvature="0"
           style="fill:#f7c600;fill-rule:evenodd;stroke:#000000;stroke-width:0.80542684" />
      </g>
      <g
         id="g114">
        <path
           d="m 412.228,187.533 12.346,-18.134 12.407,18.172"
           id="path102"
           inkscape:connector-curvature="0"
           style="fill:none;stroke:#f7c600;stroke-width:1.71797943" />
        <path
           d="m 427.054,180.746 a 2.452,2.452 0 1 1 -4.903,0.001 2.452,2.452 0 0 1 4.903,-0.001 z"
           id="path104"
           inkscape:connector-curvature="0"
           style="fill:#f7c600;fill-rule:evenodd;stroke:#000000;stroke-width:0.80505598" />
        <path
           d="m 414.549,200.93 19.14,0.054 c 0,0 0.3,-2.484 -1.999,-3.993 10.026,-1.38 7.422,-10.222 15.818,-10.724 1.63,0.251 -4.386,3.76 -4.386,3.76 0,0 -5.062,3.573 -2.757,5.389 1.83,1.442 2.632,-0.877 2.882,-2.632 0.25,-1.754 8.146,-2.882 7.018,-7.895 -1.88,-4.135 -12.908,2.757 -12.908,2.757 l -7.868,-0.044 c -0.49,-0.883 -2.659,-4.424 -4.898,-4.44 -2.657,0.097 -4.528,4.484 -4.528,4.484 h -17.795 c 0,0 -0.61,4.566 8.413,5.443 2.031,2.653 3.606,3.395 5.372,4.081 -1.177,0.982 -1.509,2.169 -1.504,3.76 z"
           id="path106"
           inkscape:connector-curvature="0"
           style="fill:#f7c600;fill-rule:evenodd;stroke:#000000;stroke-width:0.80542684" />
        <path
           d="m 415.927,197.042 15.943,-0.055 m -23.245,-9.349 c 0,0 1.275,7.457 7.162,9.223"
           id="path108"
           inkscape:connector-curvature="0"
           style="fill:none;stroke:#000000;stroke-width:0.80542684" />
        <path
           d="m 66.32,170.54 c 0.445,-2.151 1.261,-2.522 2.151,-5.267 0.149,-2.67 -2.151,-2.374 -1.483,-4.08 1.187,-1.855 0.593,-3.635 -1.632,-5.045 0.445,2.448 -2.894,4.748 -2.894,6.751 0,2.003 1.707,1.558 1.484,4.6 0.148,1.78 -0.445,1.335 -0.593,3.041 z"
           transform="matrix(1.3225,0,0,1.3225,319.933,-38)"
           id="path110"
           style="fill:url(#h);fill-rule:evenodd;stroke:#000000;stroke-width:0.60900003"
           inkscape:connector-curvature="0" />
        <path
           d="m 426.857,169.857 a 2.256,2.256 0 1 1 -4.511,0.001 2.256,2.256 0 0 1 4.511,-0.001 z"
           id="path112"
           inkscape:connector-curvature="0"
           style="fill:#f7c600;fill-rule:evenodd;stroke:#000000;stroke-width:0.80542684" />
      </g>
      <g
         id="g128">
        <path
           d="m 540.355,188.122 12.347,-18.134 12.406,18.172"
           id="path116"
           inkscape:connector-curvature="0"
           style="fill:none;stroke:#f7c600;stroke-width:1.71797943" />
        <path
           d="m 555.182,181.335 a 2.4520002,2.4520002 0 1 1 -4.904,0.002 2.4520002,2.4520002 0 0 1 4.904,-0.002 z"
           id="path118"
           inkscape:connector-curvature="0"
           style="fill:#f7c600;fill-rule:evenodd;stroke:#000000;stroke-width:0.80505598" />
        <path
           d="m 542.676,201.52 19.141,0.054 c 0,0 0.3,-2.484 -1.999,-3.994 10.026,-1.379 7.421,-10.222 15.818,-10.723 1.629,0.25 -4.386,3.76 -4.386,3.76 0,0 -5.063,3.572 -2.757,5.388 1.83,1.442 2.631,-0.877 2.882,-2.632 0.25,-1.754 8.146,-2.882 7.018,-7.895 -1.88,-4.135 -12.908,2.757 -12.908,2.757 l -7.868,-0.043 c -0.49,-0.884 -2.659,-4.425 -4.898,-4.441 -2.657,0.097 -4.528,4.484 -4.528,4.484 h -17.795 c 0,0 -0.61,4.566 8.413,5.443 2.031,2.654 3.606,3.395 5.372,4.082 -1.177,0.98 -1.509,2.168 -1.504,3.76 z"
           id="path120"
           inkscape:connector-curvature="0"
           style="fill:#f7c600;fill-rule:evenodd;stroke:#000000;stroke-width:0.80542684" />
        <path
           d="m 544.054,197.63 15.944,-0.053 m -23.245,-9.349 c 0,0 1.275,7.456 7.162,9.222"
           id="path122"
           inkscape:connector-curvature="0"
           style="fill:none;stroke:#000000;stroke-width:0.80542684" />
        <path
           d="m 66.32,170.54 c 0.445,-2.151 1.261,-2.522 2.151,-5.267 0.149,-2.67 -2.151,-2.374 -1.483,-4.08 1.187,-1.855 0.593,-3.635 -1.632,-5.045 0.445,2.448 -2.894,4.748 -2.894,6.751 0,2.003 1.707,1.558 1.484,4.6 0.148,1.78 -0.445,1.335 -0.593,3.041 z"
           transform="matrix(1.3225,0,0,1.3225,448.06,-37.411)"
           id="path124"
           style="fill:url(#i);fill-rule:evenodd;stroke:#000000;stroke-width:0.60900003"
           inkscape:connector-curvature="0" />
        <path
           d="m 554.985,170.446 a 2.256,2.256 0 1 1 -4.511,0.002 2.256,2.256 0 0 1 4.511,-0.002 z"
           id="path126"
           inkscape:connector-curvature="0"
           style="fill:#f7c600;fill-rule:evenodd;stroke:#000000;stroke-width:0.80542684" />
      </g>
      <g
         id="g142">
        <path
           d="m 539.185,223.638 12.347,-18.134 12.406,18.172"
           id="path130"
           inkscape:connector-curvature="0"
           style="fill:none;stroke:#f7c600;stroke-width:1.71797943" />
        <path
           d="m 554.012,216.85 a 2.4520002,2.4520002 0 1 1 -4.904,0.002 2.4520001,2.4520001 0 0 1 4.904,-0.001 z"
           id="path132"
           inkscape:connector-curvature="0"
           style="fill:#f7c600;fill-rule:evenodd;stroke:#000000;stroke-width:0.80505598" />
        <path
           d="m 541.506,237.035 19.141,0.055 c 0,0 0.3,-2.485 -1.999,-3.994 10.026,-1.379 7.421,-10.222 15.818,-10.723 1.629,0.25 -4.387,3.76 -4.387,3.76 0,0 -5.062,3.572 -2.757,5.388 1.83,1.442 2.632,-0.877 2.883,-2.632 0.25,-1.754 8.146,-2.882 7.018,-7.895 -1.88,-4.135 -12.908,2.757 -12.908,2.757 l -7.868,-0.044 c -0.49,-0.883 -2.66,-4.424 -4.898,-4.44 -2.657,0.097 -4.528,4.484 -4.528,4.484 h -17.796 c 0,0 -0.61,4.566 8.413,5.443 2.032,2.653 3.607,3.395 5.373,4.081 -1.178,0.982 -1.51,2.169 -1.504,3.76 z"
           id="path134"
           inkscape:connector-curvature="0"
           style="fill:#f7c600;fill-rule:evenodd;stroke:#000000;stroke-width:0.80542684" />
        <path
           d="m 542.884,233.147 15.943,-0.055 m -23.245,-9.348 c 0,0 1.276,7.456 7.163,9.222"
           id="path136"
           inkscape:connector-curvature="0"
           style="fill:none;stroke:#000000;stroke-width:0.80542684" />
        <path
           d="m 66.32,170.54 c 0.445,-2.151 1.261,-2.522 2.151,-5.267 0.149,-2.67 -2.151,-2.374 -1.483,-4.08 1.187,-1.855 0.593,-3.635 -1.632,-5.045 0.445,2.448 -2.894,4.748 -2.894,6.751 0,2.003 1.707,1.558 1.484,4.6 0.148,1.78 -0.445,1.335 -0.593,3.041 z"
           transform="matrix(1.3225,0,0,1.3225,446.89,-1.895)"
           id="path138"
           style="fill:url(#j);fill-rule:evenodd;stroke:#000000;stroke-width:0.60900003"
           inkscape:connector-curvature="0" />
        <path
           d="m 553.815,205.962 a 2.2560001,2.2560001 0 1 1 -4.512,0.001 2.2560001,2.2560001 0 0 1 4.512,-0.001 z"
           id="path140"
           inkscape:connector-curvature="0"
           style="fill:#f7c600;fill-rule:evenodd;stroke:#000000;stroke-width:0.80542684" />
      </g>
      <g
         id="g156">
        <path
           d="m 537.615,259.94 12.346,-18.134 12.407,18.172"
           id="path144"
           inkscape:connector-curvature="0"
           style="fill:none;stroke:#f7c600;stroke-width:1.71797943" />
        <path
           d="m 552.441,253.152 a 2.452,2.452 0 1 1 -4.903,0.002 2.452,2.452 0 0 1 4.903,-0.002 z"
           id="path146"
           inkscape:connector-curvature="0"
           style="fill:#f7c600;fill-rule:evenodd;stroke:#000000;stroke-width:0.80505598" />
        <path
           d="m 539.936,273.337 19.14,0.054 c 0,0 0.3,-2.484 -1.999,-3.994 10.026,-1.379 7.421,-10.222 15.818,-10.723 1.63,0.25 -4.386,3.76 -4.386,3.76 0,0 -5.062,3.572 -2.757,5.388 1.83,1.442 2.632,-0.877 2.882,-2.631 0.25,-1.755 8.146,-2.883 7.018,-7.895 -1.88,-4.136 -12.908,2.757 -12.908,2.757 l -7.868,-0.044 c -0.49,-0.883 -2.659,-4.424 -4.898,-4.44 -2.657,0.096 -4.528,4.484 -4.528,4.484 h -17.795 c 0,0 -0.61,4.565 8.413,5.443 2.031,2.653 3.606,3.394 5.372,4.08 -1.177,0.982 -1.509,2.17 -1.504,3.76 z"
           id="path148"
           inkscape:connector-curvature="0"
           style="fill:#f7c600;fill-rule:evenodd;stroke:#000000;stroke-width:0.80542684" />
        <path
           d="m 541.314,269.448 15.943,-0.054 m -23.245,-9.349 c 0,0 1.275,7.457 7.162,9.223"
           id="path150"
           inkscape:connector-curvature="0"
           style="fill:none;stroke:#000000;stroke-width:0.80542684" />
        <path
           d="m 66.32,170.54 c 0.445,-2.151 1.261,-2.522 2.151,-5.267 0.149,-2.67 -2.151,-2.374 -1.483,-4.08 1.187,-1.855 0.593,-3.635 -1.632,-5.045 0.445,2.448 -2.894,4.748 -2.894,6.751 0,2.003 1.707,1.558 1.484,4.6 0.148,1.78 -0.445,1.335 -0.593,3.041 z"
           transform="matrix(1.3225,0,0,1.3225,445.32,34.406)"
           id="path152"
           style="fill:url(#k);fill-rule:evenodd;stroke:#000000;stroke-width:0.60900003"
           inkscape:connector-curvature="0" />
        <path
           d="m 552.244,242.263 a 2.256,2.256 0 1 1 -4.511,0.002 2.256,2.256 0 0 1 4.511,-0.002 z"
           id="path154"
           inkscape:connector-curvature="0"
           style="fill:#f7c600;fill-rule:evenodd;stroke:#000000;stroke-width:0.80542684" />
      </g>
      <path
         d="m 539.183,367.27 12.346,-18.132 12.407,18.17"
         id="path158"
         inkscape:connector-curvature="0"
         style="fill:none;stroke:#f7c600;stroke-width:1.28825748" />
      <path
         d="m 554.005,360.496 a 2.452,2.452 0 1 1 -4.903,0.002 2.452,2.452 0 0 1 4.903,-0.002 z"
         id="path160"
         inkscape:connector-curvature="0"
         style="fill:#f7c600;fill-rule:evenodd;stroke:#000000;stroke-width:0.80477601" />
      <path
         d="m 541.503,380.667 19.14,0.054 c 0,0 0.3,-2.484 -1.999,-3.994 10.026,-1.378 7.422,-10.222 15.818,-10.723 1.629,0.251 -4.386,3.76 -4.386,3.76 0,0 -5.063,3.572 -2.757,5.389 1.83,1.442 2.631,-0.877 2.882,-2.632 0.25,-1.754 8.146,-2.882 7.018,-7.895 -1.88,-4.136 -12.908,2.757 -12.908,2.757 l -7.868,-0.044 c -0.49,-0.883 -2.66,-4.424 -4.898,-4.44 -2.657,0.097 -4.528,4.484 -4.528,4.484 H 529.22 c 0,0 -0.61,4.566 8.413,5.443 2.031,2.653 3.606,3.394 5.372,4.081 -1.177,0.981 -1.509,2.168 -1.504,3.76 z"
         id="path162"
         inkscape:connector-curvature="0"
         style="fill:#f7c600;fill-rule:evenodd;stroke:#000000;stroke-width:0.80477601" />
      <path
         d="m 542.878,376.776 15.943,-0.054 m -23.241,-9.338 c 0,0 1.275,7.456 7.162,9.222"
         id="path164"
         inkscape:connector-curvature="0"
         style="fill:none;stroke:#000000;stroke-width:0.80477601" />
      <path
         d="m 814.5,330.27 c 0.573,-2.772 1.625,-3.25 2.772,-6.786 0.191,-3.44 -2.772,-3.059 -1.912,-5.257 1.53,-2.39 0.765,-4.683 -2.103,-6.5 0.574,3.155 -3.727,6.118 -3.727,8.698 0,2.581 2.198,2.008 1.911,5.926 0.192,2.294 -0.573,1.72 -0.764,3.92 h 3.823 z"
         transform="matrix(1.0265,0,0,1.0265,-301.49,28.259)"
         id="path166"
         style="fill:url(#l);fill-rule:evenodd;stroke:#000000;stroke-width:0.78399998"
         inkscape:connector-curvature="0" />
      <path
         d="m 553.81,349.605 a 2.256,2.256 0 1 1 -4.511,10e-4 2.256,2.256 0 0 1 4.511,-10e-4 z"
         id="path168"
         inkscape:connector-curvature="0"
         style="fill:#f7c600;fill-rule:evenodd;stroke:#000000;stroke-width:0.80477601" />
      <g
         id="g182">
        <path
           d="m 538.99,331.364 12.346,-18.134 12.407,18.172"
           id="path170"
           inkscape:connector-curvature="0"
           style="fill:none;stroke:#f7c600;stroke-width:1.71797943" />
        <path
           d="m 553.817,324.577 a 2.4520002,2.4520002 0 1 1 -4.904,0.002 2.4520002,2.4520002 0 0 1 4.904,-0.002 z"
           id="path172"
           inkscape:connector-curvature="0"
           style="fill:#f7c600;fill-rule:evenodd;stroke:#000000;stroke-width:0.80505598" />
        <path
           d="m 541.311,344.761 19.141,0.055 c 0,0 0.3,-2.485 -2,-3.994 10.026,-1.379 7.422,-10.222 15.819,-10.723 1.629,0.25 -4.387,3.76 -4.387,3.76 0,0 -5.062,3.572 -2.757,5.388 1.83,1.442 2.632,-0.877 2.883,-2.632 0.25,-1.754 8.146,-2.882 7.018,-7.895 -1.88,-4.135 -12.908,2.757 -12.908,2.757 l -7.868,-0.044 c -0.49,-0.883 -2.66,-4.424 -4.898,-4.44 -2.657,0.097 -4.528,4.484 -4.528,4.484 H 529.03 c 0,0 -0.61,4.566 8.413,5.443 2.032,2.653 3.607,3.395 5.373,4.082 -1.178,0.98 -1.51,2.168 -1.504,3.76 z"
           id="path174"
           inkscape:connector-curvature="0"
           style="fill:#f7c600;fill-rule:evenodd;stroke:#000000;stroke-width:0.80542684" />
        <path
           d="m 542.69,340.873 15.942,-0.055 m -23.245,-9.348 c 0,0 1.276,7.456 7.163,9.222"
           id="path176"
           inkscape:connector-curvature="0"
           style="fill:none;stroke:#000000;stroke-width:0.80542684" />
        <path
           d="m 66.32,170.54 c 0.445,-2.151 1.261,-2.522 2.151,-5.267 0.149,-2.67 -2.151,-2.374 -1.483,-4.08 1.187,-1.855 0.593,-3.635 -1.632,-5.045 0.445,2.448 -2.894,4.748 -2.894,6.751 0,2.003 1.707,1.558 1.484,4.6 0.148,1.78 -0.445,1.335 -0.593,3.041 z"
           transform="matrix(1.3225,0,0,1.3225,446.695,105.83)"
           id="path178"
           style="fill:url(#m);fill-rule:evenodd;stroke:#000000;stroke-width:0.60900003"
           inkscape:connector-curvature="0" />
        <path
           d="m 553.62,313.688 a 2.2560002,2.2560002 0 1 1 -4.512,0.002 2.2560002,2.2560002 0 0 1 4.512,-0.002 z"
           id="path180"
           inkscape:connector-curvature="0"
           style="fill:#f7c600;fill-rule:evenodd;stroke:#000000;stroke-width:0.80542684" />
      </g>
      <g
         id="g196">
        <path
           d="m 434.677,297.99 12.347,-18.134 12.406,18.172"
           id="path184"
           inkscape:connector-curvature="0"
           style="fill:none;stroke:#f7c600;stroke-width:1.71797943" />
        <path
           d="m 449.504,291.202 a 2.4520002,2.4520002 0 1 1 -4.904,0.002 2.4520002,2.4520002 0 0 1 4.904,-0.002 z"
           id="path186"
           inkscape:connector-curvature="0"
           style="fill:#f7c600;fill-rule:evenodd;stroke:#000000;stroke-width:0.80505598" />
        <path
           d="m 436.998,311.387 19.141,0.054 c 0,0 0.3,-2.484 -1.999,-3.994 10.026,-1.379 7.421,-10.222 15.818,-10.723 1.629,0.25 -4.387,3.76 -4.387,3.76 0,0 -5.062,3.572 -2.757,5.388 1.83,1.442 2.632,-0.877 2.883,-2.631 0.25,-1.755 8.146,-2.883 7.018,-7.895 -1.88,-4.136 -12.908,2.757 -12.908,2.757 l -7.868,-0.044 c -0.49,-0.883 -2.66,-4.424 -4.898,-4.44 -2.657,0.096 -4.528,4.484 -4.528,4.484 h -17.796 c 0,0 -0.61,4.565 8.413,5.443 2.032,2.653 3.607,3.394 5.373,4.08 -1.178,0.982 -1.51,2.17 -1.504,3.76 z"
           id="path188"
           inkscape:connector-curvature="0"
           style="fill:#f7c600;fill-rule:evenodd;stroke:#000000;stroke-width:0.80542684" />
        <path
           d="m 438.376,307.498 15.943,-0.054 m -23.245,-9.349 c 0,0 1.276,7.457 7.163,9.223"
           id="path190"
           inkscape:connector-curvature="0"
           style="fill:none;stroke:#000000;stroke-width:0.80542684" />
        <path
           d="m 66.32,170.54 c 0.445,-2.151 1.261,-2.522 2.151,-5.267 0.149,-2.67 -2.151,-2.374 -1.483,-4.08 1.187,-1.855 0.593,-3.635 -1.632,-5.045 0.445,2.448 -2.894,4.748 -2.894,6.751 0,2.003 1.707,1.558 1.484,4.6 0.148,1.78 -0.445,1.335 -0.593,3.041 z"
           transform="matrix(1.3225,0,0,1.3225,342.382,72.456)"
           id="path192"
           style="fill:url(#n);fill-rule:evenodd;stroke:#000000;stroke-width:0.60900003"
           inkscape:connector-curvature="0" />
        <path
           d="m 449.307,280.313 a 2.2560002,2.2560002 0 1 1 -4.512,0.002 2.2560002,2.2560002 0 0 1 4.512,-0.002 z"
           id="path194"
           inkscape:connector-curvature="0"
           style="fill:#f7c600;fill-rule:evenodd;stroke:#000000;stroke-width:0.80542684" />
      </g>
      <g
         id="g224"
         style="stroke:#000000">
        <path
           d="m 500.741,384.174 c 0,0 4.995,11.516 10.684,4.44 5.689,-7.076 3.608,-10.129 3.608,-10.129 l -12.765,-6.937 -3.747,7.909 z"
           id="path198"
           inkscape:connector-curvature="0"
           style="fill:#f7c600;fill-rule:evenodd;stroke-width:0.80542684" />
        <path
           d="m 511.705,382.653 c 0,0 0.833,0.139 1.526,-1.11 0.693,-1.249 -1.526,-1.804 -2.497,-3.191 l -1.11,2.22 z m -28.871,-3.055 -11.239,6.105 c 0,0 -5.55,1.11 -5.966,0 -0.416,-1.11 0.139,-2.081 3.052,-2.22 2.914,-0.139 10.823,-7.354 10.823,-7.354 z m 0.146,-199.664 c 0,0 0.277,2.636 0.416,4.023 0.139,1.387 -2.22,4.302 -2.359,4.163 -0.139,-0.139 -1.249,0.139 -1.11,0.971 0.139,0.832 1.804,1.11 1.804,1.11 0,0 -0.694,2.914 0,3.053 0.694,0.139 -1.804,3.746 0,4.717 1.804,0.971 4.856,2.22 6.244,1.943 1.387,-0.278 0,5.411 0,5.411 l -3.885,8.325 21.367,-2.22 -4.44,-7.076 c 0,0 -2.082,-1.388 -1.527,-5.412 0.555,-4.023 -0.277,-22.2 -0.277,-22.2 l -15.262,-2.081 -0.972,5.273 z m -3.889,31.635 c 0,0 -6.937,3.191 -6.66,11.794 -1.803,8.325 -2.775,16.65 -2.775,16.65 0,0 -8.186,9.295 -10.683,12.626 -2.498,3.33 -6.244,10.128 -7.632,11.932 -1.388,1.804 -6.799,7.77 -6.66,9.99 0.139,2.22 -1.249,12.072 4.163,13.181 1.387,0.555 5.827,-11.377 5.827,-11.377 0,0 0.278,-5.134 -1.248,-6.105 -1.526,-0.971 3.33,-4.301 3.33,-4.301 0,0 9.296,-6.8 11.377,-8.464 2.081,-1.664 7.77,-8.048 7.77,-8.048 l 3.191,-37.879 z"
           id="path200"
           inkscape:connector-curvature="0"
           style="fill:#ffc6b5;fill-rule:evenodd;stroke-width:0.80542684" />
        <path
           d="m 487,205.048 c 0,0 1.804,4.856 5.828,4.023 4.023,-0.832 8.741,-4.579 8.741,-4.579 0,0 3.746,-0.138 4.301,0.417 0.555,0.555 10.129,9.85 9.852,12.765 -0.278,2.914 -4.44,2.08 -5.967,4.023 -1.527,1.943 -4.024,6.8 -3.33,10.407 0.694,3.607 2.775,8.325 2.498,10.129 -0.277,1.804 -1.804,2.358 -1.804,3.33 0,0.97 1.249,2.636 1.249,4.44 0,1.804 -1.665,4.44 -1.388,6.243 0.278,1.804 0.417,7.076 0.417,7.076 l -0.417,24.421 c 0,0 1.388,0.833 1.527,2.22 0.138,1.388 9.435,41.763 9.435,41.763 0,0 -0.417,1.25 -1.388,1.11 -0.971,-0.14 3.746,6.244 3.885,8.048 0.139,1.804 4.856,15.957 4.718,17.9 -0.14,1.942 -0.833,6.243 -1.25,6.382 -0.415,0.139 3.053,8.88 2.498,10.267 -0.555,1.388 -6.243,1.25 -6.243,1.25 l -1.527,-0.278 c 0,0 0.14,1.803 -0.97,1.942 -1.11,0.139 -9.297,-0.416 -9.297,-0.416 0,0 -2.359,3.607 -3.746,3.469 -1.388,-0.14 -3.192,-2.637 -3.608,-2.22 -0.416,0.416 1.249,2.775 0.832,3.468 -0.416,0.694 -7.492,2.22 -8.88,-1.11 -1.387,-3.33 0.833,-2.497 0.417,-3.19 -0.417,-0.695 -3.608,-2.498 -4.579,-1.943 -0.971,0.555 2.497,1.387 2.359,2.775 -0.139,1.387 -3.053,3.468 -4.163,3.468 -1.11,0 -3.746,-5.133 -7.631,-4.578 -3.885,0.555 -6.383,1.526 -6.383,1.526 0,0 -4.578,1.942 -6.521,1.526 -1.942,-0.416 -2.775,-1.942 -2.775,-2.775 0,-0.832 1.388,-4.44 1.249,-5.55 -0.139,-1.11 -1.249,-2.22 -1.249,-3.885 0,-1.665 3.191,-7.354 3.191,-7.354 l -0.138,-25.53 c 0,0 -2.914,0 -3.053,-1.804 -0.139,-1.804 4.44,-40.376 5.134,-42.874 0.694,-2.498 2.497,-11.378 2.497,-11.378 0,0 -2.08,0.972 -2.22,0 -0.14,-0.972 6.244,-23.032 6.244,-23.032 0,0 1.11,-10.961 1.11,-13.875 0,-2.913 -0.555,-6.937 -0.555,-6.937 0,0 -5.696,-2.412 -5.827,-6.105 -0.521,-5.877 5.41,-9.158 6.105,-11.1 l 2.775,-7.77 c 0,0 3.052,-5.273 8.047,-6.105 z"
           id="path202"
           inkscape:connector-curvature="0"
           style="fill:#ffffff;fill-rule:evenodd;stroke-width:0.80542684" />
        <path
           d="m 484.924,381.264 c 0,0 -13.458,7.077 -15.401,7.632 -1.943,0.555 -3.192,-2.359 -1.249,-2.914 1.943,-0.555 4.995,-0.833 4.995,-0.833 0,0 -4.579,-3.607 -4.44,-3.746 0.139,-0.139 6.244,-2.358 6.383,-2.358 0.139,0 1.942,3.607 3.19,3.33 1.248,-0.277 4.857,-3.053 4.857,-3.053 0,0 1.943,2.22 1.665,1.942 z"
           id="path204"
           inkscape:connector-curvature="0"
           style="fill:#f7c600;fill-rule:evenodd;stroke-width:0.80542684" />
        <path
           d="m 503.889,385.14 c 1.273,1.64 1.77,4.487 4.684,2.822 2.914,-1.665 -1.493,-4.755 -1.493,-4.755 l -3.191,1.932 z m 5.317,-0.278 c 0,0 1.387,1.11 2.636,-0.139 1.249,-1.249 -2.498,-3.885 -2.498,-3.885 l -1.803,2.081 z"
           id="path206"
           inkscape:connector-curvature="0"
           style="fill:#ffc6b5;fill-rule:evenodd;stroke-width:0.80542684" />
        <path
           d="m 505.04,210.458 c 0,0 -12.35,7.909 -12.072,10.684 m 14.849,-9.297 c 0,0 -2.775,3.053 -2.914,3.053 m 6.657,0.278 c 0,0 -6.105,4.995 -5.134,8.186 m -23.724,-13.597 c 0,0 -1.804,3.746 -1.388,4.995 0.417,1.249 3.47,5.966 3.885,8.88 0.417,2.914 0,4.995 0,4.995 m -5.684,-11.933 c 0,0 0.554,4.44 1.387,5.272 0.833,0.833 3.053,4.58 3.33,6.105 m -5.828,7.076 c 0,0 3.607,1.804 6.937,-5.134 m 5.402,-4.855 c -0.139,0 -2.636,6.799 1.804,9.296 4.44,2.497 7.77,2.22 9.712,1.527 1.943,-0.694 4.024,-1.943 4.024,-1.943 m -17.471,-0.555 c 0,0 0.277,9.158 13.736,18.177 m -13.181,-9.575 c 0,0 -0.138,8.048 5.134,11.655 m -7.911,-21.09 c 0,0 -4.024,11.933 -7.215,13.182 m 5.959,-4.44 c 0,0 -0.139,8.603 -1.249,11.655 m -1.105,2.081 c 0,0 2.775,3.469 5.827,3.191 3.053,-0.277 4.301,-3.885 6.383,-3.33 2.08,0.556 4.023,2.22 8.88,1.804 m -6.94,3.607 c 0,0 0,7.076 1.25,7.77 1.25,0.694 0.693,7.215 0.693,7.215 m -18.871,-18.314 c 0,0 -0.138,6.66 -0.971,9.019 -0.832,2.358 -2.497,6.382 -2.22,9.851 m -5.273,3.89 c 0.694,-0.278 3.053,-2.359 3.053,-2.359 m 1.245,1.525 c 0,0 -5.966,25.53 -4.301,40.793 m 5.69,-39.549 c 0,0 -3.053,19.147 -1.665,22.755 m 0.144,-23.311 c 0.139,0 11.655,0.833 11.655,0.833 m 1.663,-1.521 c 0,0 3.191,1.666 7.631,1.388 m -9.02,7.91 c 0,0 -0.555,32.745 -1.387,39.96 m 18.461,-32.475 c 0,0 3.608,28.722 5.69,31.358 m -12.633,-27.747 c 0,0 2.22,25.392 3.469,27.612 m -34.959,8.877 c 0,0 4.301,-1.388 8.186,-5.55 4.44,5.966 11.24,0.278 11.24,0.278 0,0 10.544,7.215 15.261,-0.833 7.215,4.718 10.823,-0.694 10.823,-0.694 0,0 2.636,4.024 4.579,3.608 m -11.523,2.781 c 0,0 5.41,25.391 13.458,32.606 m -41.351,-35.251 c 0,0 0.694,21.23 1.943,36.214 m -2.908,-12.21 c 0,0 -0.694,13.875 -1.527,14.847 m -6.66,1.394 c 0,0 1.526,5.966 9.158,0.416 7.631,-5.55 7.77,2.082 8.047,2.914 0.278,0.832 1.527,6.799 4.44,1.804 m 6.102,-8.189 c 0,0 -1.249,12.348 9.713,3.33 10.961,-9.019 12.765,-0.139 13.042,2.636"
           id="path208"
           inkscape:connector-curvature="0"
           style="fill:none;stroke-width:0.80542684" />
        <path
           d="m 482.556,179.1 c 0,0 3.053,0.417 4.718,-0.554 1.665,-0.972 3.608,-1.388 4.995,0.555 1.387,1.943 2.359,1.803 2.359,1.803 0,0 -2.082,5.134 0,5.689 2.081,0.555 3.052,0.555 3.191,1.249 0.139,0.694 -1.804,2.22 -1.249,2.913 0.555,0.694 1.527,1.527 1.665,2.082 0.139,0.555 -1.248,2.913 -0.832,3.469 0.416,0.555 1.665,2.775 2.497,2.775 0.833,0 0.278,3.468 2.775,2.636 2.497,-0.832 2.36,-3.053 2.36,-3.053 0,0 2.635,-0.416 3.33,-2.775 0.693,-2.358 2.358,-2.913 2.358,-2.913 0,0 3.33,-1.804 -1.11,-4.58 0,-19.425 -12.765,-17.343 -12.765,-17.343 0,0 -1.527,-3.469 -4.024,-3.053 -2.498,0.417 -2.636,3.33 -4.44,3.053 -1.804,-0.278 -2.22,-1.526 -2.359,-1.387 -0.139,0.138 -1.665,2.913 -1.665,3.607 0,0.694 -4.856,-0.971 -4.44,2.636 0.416,3.607 2.775,3.469 2.636,3.192 z"
           id="path210"
           inkscape:connector-curvature="0"
           style="fill:#9c5100;fill-rule:evenodd;stroke-width:0.80542684" />
        <path
           d="m 495.888,174.383 c 0,0 -0.972,6.105 5.55,5.55 -0.833,3.33 1.665,4.44 1.665,4.44 m 4.847,3.746 c 0.138,0 2.913,1.804 -0.14,4.024 m -9.29,0.832 c 0,0 1.387,1.665 2.913,1.25 1.526,-0.417 4.024,1.525 4.024,1.525 0,0 2.081,0.694 2.359,0.278 m -17.761,2.22 c 0,0 4.718,1.804 7.77,-5.688 m -16.512,-2.22 2.775,0.138"
           id="path212"
           inkscape:connector-curvature="0"
           style="fill:none;stroke-width:0.80542684" />
        <path
           d="m 481.736,193.114 h 2.498 l -2.22,0.972"
           id="path214"
           inkscape:connector-curvature="0"
           style="fill:none;stroke-width:0.80542684;stroke-linejoin:round" />
        <path
           d="m 485.201,185.344 c 0.417,0 1.943,-0.555 2.22,-0.138 0.278,0.416 -1.665,0.693 -2.22,0.138 z"
           id="path216"
           inkscape:connector-curvature="0"
           style="fill:none;stroke-width:1.4495039;stroke-linejoin:round" />
        <path
           d="m 515.17,218.31 c 0.139,0 4.58,13.736 5.134,17.205 0.555,3.469 2.359,17.344 1.665,19.287 -0.694,1.942 -7.77,11.238 -8.603,13.597 -0.832,2.358 -5.827,11.377 -5.827,11.377 0,0 -1.249,8.88 -1.804,9.297 -0.555,0.416 1.433,2.596 1.249,3.33 -0.275,0.826 -4.024,4.717 -5.689,4.301 -1.665,-0.416 -4.301,-2.359 -4.44,-4.163 -0.139,-1.804 0.139,-7.77 1.388,-9.296 1.249,-1.526 7.77,-16.927 8.186,-17.9 0.416,-0.97 5.966,-13.042 6.105,-15.122 0.139,-2.082 -1.727,-6.894 -3.689,-8.66 -4.367,-12.853 -2.65,-20.604 6.325,-23.253 z"
           id="path218"
           inkscape:connector-curvature="0"
           style="fill:#ffc6b5;fill-rule:evenodd;stroke-width:0.80542684" />
        <path
           d="m 450.524,277.842 0.218,6.08 m -5.915,-6.53 c 0,0 3.898,6.52 3.573,9.994"
           id="path220"
           inkscape:connector-curvature="0"
           style="fill:none;stroke-width:0.80542684" />
        <path
           d="m 497.078,291.014 c 0,0 2.915,-0.306 2.823,4.56 1.861,-6.045 5.646,-6.189 5.646,-6.189"
           id="path222"
           inkscape:connector-curvature="0"
           style="fill:none;stroke-width:0.80542684;stroke-linejoin:round" />
      </g>
      <path
         d="m 487.119,429.949 c 58.598,-1.628 96.443,-43.949 96.036,-44.356 -0.407,-0.407 7.732,-11.8 14.243,-10.173 6.51,1.627 15.87,20.753 27.264,24.822 5.697,8.953 -1.627,17.092 -4.069,18.72 -2.442,1.627 -13.429,6.104 -15.057,-0.407 -1.627,-6.511 -4.883,-5.29 -4.883,-5.29 0,0 -52.088,50.867 -112.31,48.832 -62.257,0.41 -113.53,-48.83 -113.53,-48.83 l -4.477,4.883 c 0,0 -4.883,5.29 -7.324,4.883 -2.442,-0.407 -13.023,-7.325 -13.837,-14.243 -0.813,-6.918 6.511,-11.394 6.511,-11.394 0,0 17.906,-13.836 19.94,-21.16 4.07,-4.07 11.8,2.848 11.8,2.848 0,0 47.205,54.123 99.7,50.868 z"
         id="path226"
         inkscape:connector-curvature="0"
         style="fill:#f7c600;fill-rule:evenodd;stroke:#000000;stroke-width:1.71733451" />
      <path
         d="m 354.464,398.476 c 0,0 4.842,-1.29 6.618,0.727 1.775,2.017 13.961,13.961 13.961,13.961"
         id="path228"
         inkscape:connector-curvature="0"
         style="fill:none;stroke:#000000;stroke-width:1.71733451" />
      <path
         d="m 365.52,404.122 -4.843,3.632 c 0,0 12.186,2.42 9.442,10.41 m 250.178,-20.098 c 0,0 -2.421,-1.291 -6.214,1.533 -3.793,2.825 -13.397,13.558 -13.397,13.558"
         id="path230"
         inkscape:connector-curvature="0"
         style="fill:none;stroke:#000000;stroke-width:1.71733451" />
      <path
         d="m 609.406,403.804 5.245,4.035 c 0,0 -10.975,0.726 -8.554,11.137"
         id="path232"
         inkscape:connector-curvature="0"
         style="fill:none;stroke:#000000;stroke-width:1.71733451" />
      <path
         d="m 416.495,411.39 -0.352,0.495 c -0.736,-0.364 -1.576,-0.431 -2.519,-0.203 -0.692,0.179 -1.996,0.83 -3.912,1.95 l -16.125,9.4 -0.44,-0.314 4.061,-18.85 c 0.491,-2.272 0.715,-3.652 0.673,-4.14 -0.033,-0.48 -0.374,-1.013 -1.02,-1.595 l 0.352,-0.495 8.692,6.199 -0.353,0.495 -0.294,-0.21 c -0.785,-0.56 -1.39,-0.843 -1.815,-0.85 -0.3,-0.013 -0.542,0.11 -0.727,0.369 -0.114,0.16 -0.215,0.377 -0.303,0.65 -0.081,0.266 -0.257,1.021 -0.527,2.268 l -2.572,11.782 9.315,-5.481 c 1.12,-0.667 1.847,-1.13 2.18,-1.39 0.334,-0.26 0.583,-0.505 0.749,-0.737 0.19,-0.268 0.287,-0.555 0.291,-0.862 0.003,-0.306 -0.095,-0.612 -0.295,-0.916 -0.275,-0.425 -0.729,-0.863 -1.362,-1.314 l 0.353,-0.495 5.95,4.244 m 5.79,28.018 -0.29,0.533 -10.218,-5.587 0.292,-0.533 0.648,0.354 c 0.567,0.31 1.079,0.459 1.535,0.446 0.323,0.002 0.641,-0.123 0.955,-0.376 0.231,-0.173 0.615,-0.75 1.151,-1.73 l 7.03,-12.853 c 0.546,-0.999 0.834,-1.652 0.865,-1.96 0.031,-0.307 -0.067,-0.642 -0.293,-1.003 -0.212,-0.365 -0.592,-0.698 -1.14,-0.997 l -0.648,-0.355 0.291,-0.533 10.217,5.587 -0.292,0.533 -0.648,-0.354 c -0.567,-0.31 -1.078,-0.46 -1.534,-0.446 -0.324,-0.003 -0.647,0.12 -0.97,0.368 -0.231,0.173 -0.615,0.75 -1.15,1.729 l -7.03,12.854 c -0.547,0.999 -0.835,1.652 -0.866,1.96 -0.022,0.313 0.074,0.652 0.286,1.017 0.226,0.362 0.614,0.692 1.161,0.991 l 0.649,0.355 m 37.323,-8.754 -2.634,7.395 -0.572,-0.204 c 0.029,-2.267 -0.46,-4.174 -1.468,-5.718 -1.008,-1.544 -2.331,-2.609 -3.971,-3.193 -1.568,-0.558 -3.03,-0.58 -4.388,-0.063 -1.355,0.505 -2.53,1.47 -3.525,2.894 a 19.392,19.392 0 0 0 -2.38,4.627 c -0.716,2.01 -1.107,3.86 -1.173,5.544 -0.066,1.684 0.301,3.072 1.1,4.158 0.809,1.09 1.94,1.894 3.395,2.412 0.505,0.18 1.04,0.312 1.602,0.397 0.577,0.077 1.18,0.112 1.81,0.104 l 1.555,-4.363 c 0.294,-0.825 0.426,-1.377 0.397,-1.654 -0.025,-0.288 -0.183,-0.594 -0.475,-0.919 -0.28,-0.32 -0.674,-0.571 -1.179,-0.751 l -0.542,-0.193 0.204,-0.573 10.196,3.632 -0.204,0.572 c -0.792,-0.224 -1.372,-0.308 -1.74,-0.253 -0.354,0.048 -0.68,0.228 -0.977,0.54 -0.163,0.164 -0.38,0.627 -0.652,1.39 l -1.554,4.363 c -1.554,0.12 -3.111,0.071 -4.672,-0.147 a 22.752,22.752 0 0 1 -4.668,-1.14 c -1.99,-0.709 -3.55,-1.567 -4.68,-2.573 a 13.566,13.566 0 0 1 -2.72,-3.375 c -0.685,-1.244 -1.114,-2.518 -1.289,-3.824 -0.215,-1.68 -0.008,-3.403 0.62,-5.167 1.125,-3.156 3.183,-5.427 6.176,-6.814 2.993,-1.386 6.17,-1.48 9.533,-0.283 1.042,0.371 1.95,0.788 2.728,1.25 0.424,0.245 1.072,0.743 1.943,1.495 0.885,0.745 1.42,1.15 1.606,1.217 0.29,0.103 0.594,0.095 0.915,-0.023 0.325,-0.128 0.695,-0.45 1.11,-0.964 l 0.573,0.204 m 15.724,25.238 -0.09,0.601 -11.514,-1.744 0.09,-0.6 0.732,0.11 c 0.638,0.097 1.17,0.06 1.594,-0.107 0.304,-0.11 0.56,-0.336 0.768,-0.682 0.158,-0.241 0.32,-0.914 0.488,-2.019 l 2.194,-14.485 c 0.171,-1.125 0.218,-1.838 0.142,-2.138 -0.077,-0.3 -0.284,-0.58 -0.62,-0.841 -0.325,-0.27 -0.796,-0.453 -1.413,-0.546 l -0.73,-0.11 0.09,-0.602 11.514,1.744 -0.091,0.601 -0.731,-0.11 c -0.639,-0.097 -1.17,-0.062 -1.594,0.107 -0.305,0.109 -0.566,0.335 -0.784,0.678 -0.159,0.242 -0.322,0.915 -0.489,2.02 l -2.194,14.484 c -0.17,1.126 -0.218,1.839 -0.141,2.138 0.087,0.302 0.293,0.587 0.617,0.858 0.337,0.262 0.814,0.439 1.431,0.532 l 0.731,0.111 m 29.886,-7.26 -0.439,7.851 -19.748,1.008 -0.031,-0.607 0.738,-0.038 c 0.645,-0.033 1.158,-0.174 1.54,-0.424 0.277,-0.167 0.482,-0.441 0.616,-0.82 0.107,-0.27 0.132,-0.961 0.075,-2.077 l -0.746,-14.63 c -0.058,-1.138 -0.155,-1.845 -0.29,-2.123 -0.134,-0.279 -0.393,-0.512 -0.775,-0.7 -0.372,-0.201 -0.87,-0.285 -1.493,-0.254 l -0.738,0.038 -0.031,-0.607 11.859,-0.605 0.03,0.607 -0.967,0.05 c -0.645,0.032 -1.159,0.174 -1.54,0.423 -0.277,0.168 -0.488,0.442 -0.633,0.822 -0.107,0.269 -0.132,0.96 -0.075,2.076 l 0.723,14.172 c 0.058,1.137 0.16,1.86 0.308,2.171 0.147,0.3 0.416,0.516 0.806,0.65 0.279,0.084 0.943,0.1 1.993,0.046 l 1.853,-0.094 c 1.181,-0.06 2.155,-0.319 2.92,-0.774 0.767,-0.456 1.411,-1.147 1.934,-2.072 0.534,-0.927 1.013,-2.278 1.438,-4.054 l 0.673,-0.034 m 21.602,-3.748 -7.538,2.252 -0.276,2.345 c -0.087,0.78 -0.063,1.396 0.072,1.847 0.178,0.598 0.551,0.967 1.118,1.106 0.334,0.083 1.07,0 2.206,-0.248 l 0.174,0.583 -7.097,2.12 -0.174,-0.582 c 0.731,-0.345 1.267,-0.847 1.606,-1.509 0.337,-0.672 0.624,-1.929 0.862,-3.771 l 2.546,-19.308 0.299,-0.089 12.922,15.2 c 1.23,1.439 2.145,2.302 2.746,2.592 0.453,0.218 1.013,0.257 1.68,0.115 l 0.174,0.582 -10.324,3.084 -0.174,-0.582 0.425,-0.127 c 0.829,-0.248 1.377,-0.537 1.643,-0.868 0.181,-0.237 0.224,-0.513 0.13,-0.828 a 2.014,2.014 0 0 0 -0.268,-0.554 c -0.05,-0.088 -0.324,-0.434 -0.825,-1.039 l -1.927,-2.32 m -0.883,-1.006 -5.375,-6.399 -1.077,8.327 6.452,-1.927 m 28.46,-29.002 2.855,5.309 -0.521,0.28 c -0.967,-1.06 -1.781,-1.753 -2.443,-2.08 -0.666,-0.339 -1.413,-0.49 -2.24,-0.456 -0.46,0.023 -1.147,0.281 -2.064,0.774 l -1.46,0.785 8.135,15.132 c 0.539,1.003 0.929,1.601 1.17,1.795 0.25,0.189 0.587,0.294 1.009,0.316 0.426,0.007 0.919,-0.14 1.478,-0.441 l 0.651,-0.35 0.288,0.535 -10.271,5.522 -0.288,-0.535 0.651,-0.35 c 0.569,-0.306 0.973,-0.654 1.21,-1.043 0.18,-0.27 0.252,-0.607 0.22,-1.013 -0.018,-0.289 -0.291,-0.925 -0.82,-1.908 l -8.135,-15.132 -1.418,0.762 c -1.321,0.71 -2.13,1.506 -2.428,2.387 -0.419,1.232 -0.35,2.631 0.206,4.197 l -0.55,0.296 -2.854,-5.31 17.619,-9.472 m 13.359,-7.92 5.46,7.237 0.353,-0.267 c 1.128,-0.85 1.678,-1.82 1.651,-2.911 -0.027,-1.091 -0.492,-2.38 -1.394,-3.866 l 0.499,-0.376 7.022,9.31 -0.498,0.375 c -0.87,-0.934 -1.72,-1.597 -2.548,-1.986 -0.82,-0.397 -1.536,-0.536 -2.146,-0.418 -0.618,0.109 -1.35,0.483 -2.198,1.123 l 3.778,5.008 c 0.739,0.98 1.23,1.549 1.473,1.708 0.252,0.152 0.545,0.213 0.878,0.181 0.333,-0.031 0.752,-0.238 1.26,-0.62 l 1.061,-0.802 c 1.661,-1.253 2.7,-2.64 3.116,-4.16 0.425,-1.528 0.263,-3.243 -0.487,-5.146 l 0.485,-0.366 3.463,6.254 -15.368,11.591 -0.366,-0.485 0.59,-0.445 c 0.516,-0.389 0.862,-0.794 1.038,-1.215 0.135,-0.294 0.152,-0.635 0.05,-1.025 -0.062,-0.282 -0.43,-0.87 -1.102,-1.76 l -8.822,-11.697 c -0.607,-0.804 -1.001,-1.281 -1.183,-1.432 a 1.572,1.572 0 0 0 -1.02,-0.342 c -0.516,0.006 -1.063,0.226 -1.64,0.662 l -0.59,0.445 -0.366,-0.485 14.882,-11.226 3.966,5.258 -0.498,0.376 c -1.223,-1.094 -2.277,-1.746 -3.162,-1.956 -0.877,-0.217 -1.834,-0.14 -2.87,0.231 -0.609,0.212 -1.586,0.826 -2.932,1.841 l -1.836,1.385"
         id="path234"
         inkscape:connector-curvature="0" />
      <path
         d="m 380.537,413.063 c 72.788,59.04 144.131,60.122 213.933,0"
         id="path236"
         inkscape:connector-curvature="0"
         style="fill:none" />
    </g>
  </g>
</svg>
