<?xml version="1.0" encoding="UTF-8" standalone="no"?>
<svg
   xmlns:dc="http://purl.org/dc/elements/1.1/"
   xmlns:cc="http://creativecommons.org/ns#"
   xmlns:rdf="http://www.w3.org/1999/02/22-rdf-syntax-ns#"
   xmlns:svg="http://www.w3.org/2000/svg"
   xmlns="http://www.w3.org/2000/svg"
   xmlns:xlink="http://www.w3.org/1999/xlink"
   xmlns:sodipodi="http://sodipodi.sourceforge.net/DTD/sodipodi-0.dtd"
   xmlns:inkscape="http://www.inkscape.org/namespaces/inkscape"
   height="16"
   width="21.333332"
   viewBox="0 0 21.333332 16"
   version="1.1"
   id="svg55"
   sodipodi:docname="vi.svg"
   inkscape:version="0.92.1 r">
  <metadata
     id="metadata61">
    <rdf:RDF>
      <cc:Work
         rdf:about="">
        <dc:format>image/svg+xml</dc:format>
        <dc:type
           rdf:resource="http://purl.org/dc/dcmitype/StillImage" />
        <dc:title></dc:title>
      </cc:Work>
    </rdf:RDF>
  </metadata>
  <defs
     id="defs59" />
  <sodipodi:namedview
     pagecolor="#ffffff"
     bordercolor="#666666"
     borderopacity="1"
     objecttolerance="10"
     gridtolerance="10"
     guidetolerance="10"
     inkscape:pageopacity="0"
     inkscape:pageshadow="2"
     inkscape:window-width="1920"
     inkscape:window-height="1024"
     id="namedview57"
     showgrid="false"
     fit-margin-top="0"
     fit-margin-left="0"
     fit-margin-right="0"
     fit-margin-bottom="0"
     inkscape:zoom="0.49166667"
     inkscape:cx="320"
     inkscape:cy="240"
     inkscape:window-x="0"
     inkscape:window-y="0"
     inkscape:window-maximized="1"
     inkscape:current-layer="svg55" />
  <path
     d="M 0,0 H 21.333333 V 16 H 0 Z"
     id="path2"
     inkscape:connector-curvature="0"
     style="fill:#ffffff;stroke-width:0.03333334" />
  <path
     d="m 6.8116,10.49773 c 0,0 -0.017267,-0.11693 0.2048,-0.20266 0.222,-0.0858 0.2393333,-0.4054 0.1949,-0.61847 0,0 -0.116,0.20267 -0.2566667,0.27023 0,0 -0.2294333,0.11954 -0.2399333,0.34787 0,0 -0.00183,0.0835 -0.0191,0.14847 C 6.68613,10.47877 6.5845333,10.15737 6.777,9.9183 6.9756,9.67163 7.0311333,9.47137 6.8732,9.08163 c 0,0 -0.0148,0.23644 -0.1702333,0.37154 C 6.5475667,9.5883 6.5278,9.5987 6.5303,9.9209 c 0,0 0.00247,0.11173 -0.056767,0.1481 0,0 -0.1209,-0.17673 -0.153,-0.29367 -0.032,-0.1169 -0.046833,-0.16633 0.091333,-0.3014 0,0 0.4426666,-0.286 0.1233333,-0.91206 0,0 -0.00983,0.21566 -0.1628,0.343 -0.153,0.12733 -0.1406667,0.21306 -0.1480667,0.43393 -0.00733,0.22087 -0.022167,0.20533 -0.039433,0.23647 0,0 -0.2812667,-0.5171 -0.064133,-0.79254 0.2171,-0.27543 0.338,-0.3326 0.098667,-0.8445 0,0 0.010667,0.26247 -0.181,0.39234 -0.1915666,0.13 -0.1471333,0.434 -0.1471333,0.434 0,0 0.012333,0.11433 -0.027167,0.19746 0,0 -0.271,-0.5286 -0.012333,-0.81326 0.2195667,-0.24167 0.2344,-0.41057 0.116,-0.75357 0,0 -0.014867,0.1585 -0.1357333,0.24427 -0.1209,0.0857 -0.2171334,0.1715 -0.1949334,0.5015 0,0 0.00987,0.23123 -0.019733,0.2962 0,0 -0.1135,-0.21047 -0.1455667,-0.34817 -0.032067,-0.13777 -0.044433,-0.21833 0.039467,-0.356 0.0839,-0.13773 0.417,-0.53267 0.019733,-1.10177 0,0 -0.012333,0.1845 -0.1135,0.3508 -0.1011666,0.16634 -0.054267,0.3638 -0.032067,0.5145 0.0222,0.15074 -0.0518,0.29624 -0.0518,0.29624 0,0 -0.1726667,-0.317 -0.1356667,-0.6808 0.037,-0.36377 -0.111,-0.6626 -0.4466,-0.87827 0,0 -0.2442667,0.56647 0.088833,0.8549 0,0 0.2837334,0.28067 0.3553334,0.621 0,0 -0.2146667,-0.0208 -0.4096667,-0.40013 -0.1948667,-0.37934 -0.5995,-0.31967 -0.6266667,-0.32224 0,0 0.066667,0.58727 0.6884,0.75357 0,0 0.3972,0.0676 0.4712,0.35857 0,0 0.066667,0.2001 0.093767,0.30666 0,0 -0.1258667,-0.0494 -0.2418333,-0.2209 -0.116,-0.1715 -0.1011667,-0.19233 -0.4934667,-0.23126 0,0 -0.1578667,-0.0182 -0.2417667,-0.12994 0,0 0.1653334,0.621 0.5896667,0.61584 0,0 0.3874,-0.0416 0.6045333,0.46773 0,0 -0.042,-0.026 -0.098667,-0.065 -0.0568,-0.0389 -0.1999,-0.11167 -0.4836667,-0.0779 -0.2836667,0.0338 -0.3626667,-0.013 -0.4342,-0.0363 0,0 0.2862,0.52487 0.6908333,0.369 0.4046667,-0.156 0.6001,0.41257 0.6045,0.4235 0,0 -0.054267,-0.0415 -0.1258333,-0.11166 -0.071567,-0.0702 -0.2201,-0.15667 -0.5008667,-0.0676 0,0 -0.2023333,0.078 -0.4071,0.0156 0,0 0.1973334,0.382 0.6587667,0.317 0.4614,-0.065 0.5773333,0.3404 0.5773333,0.3404 0,0 -0.061667,-0.0363 -0.1036,-0.0702 -0.042,-0.0338 -0.1974,-0.12213 -0.5304666,-0.0233 -0.3331,0.0987 -0.454,-0.0157 -0.454,-0.0157 0,0 0.185,0.33783 0.5403333,0.3768 0,0 0.1974,-0.003 0.2812667,-0.0337 0.0839,-0.0312 0.306,-0.0806 0.4589333,0.14033 0,0 -0.041933,0.008 -0.1061,-0.0208 0,0 -0.2368667,-0.0858 -0.417,0.0649 0,0 -0.1603333,0.16367 -0.3873333,0.13254 0,0 0.2936,0.28583 0.7599333,0.0442 0,0 0.1579,-0.11433 0.2738667,-0.026 0.116,0.0884 0.3849333,-0.0857 0.3849333,-0.0857 z"
     stroke-miterlimit="10"
     id="path4"
     inkscape:connector-curvature="0"
     style="fill:#369443;stroke:#010002;stroke-width:0.0502;stroke-miterlimit:10" />
  <g
     stroke-miterlimit="10"
     id="g14"
     transform="scale(0.03333333)"
     style="fill:#f4c53d;stroke:#010002;stroke-width:10;stroke-miterlimit:10">
    <path
       d="m 282.21,103.676 c 0,0 -1.624,-14.507 9.968,-15.902 12.09,-1.455 18.06,1.091 18.06,1.091 l 5.429,10.654 -1.875,7.171 -7.5,3.43 c 0,0 1.282,-11.017 -8.817,-11.246 -2.559,-0.058 -4.063,0.957 -8.11,0.315 -4.07,-0.647 -6.247,3.826 -7.154,4.487 z"
       id="path6"
       inkscape:connector-curvature="0"
       style="stroke-width:1.50549996" />
    <path
       d="m 363.778,139.586 c -1.727,2.234 -8.635,3.014 -8.635,3.014 0,0 7.106,5.457 10.165,13.252 3.06,7.795 -82.357,0.052 -82.357,0.052 0,0 3.702,-2.65 6.22,-7.64 0,0 -3.776,1.404 -7.55,-2.338 0,0 2.81,0.935 6.512,-4.677 0,0 5.478,-7.017 9.327,-8.888 0,0 -1.778,1.092 -6.07,-1.247 0,0 7.4,-0.935 10.066,-13.564 0,0 0.444,-2.805 3.256,-6.858 2.813,-4.054 2.22,0.78 7.402,-5.457 0,0 2.37,-4.417 0.296,-7.12 -2.072,-2.702 -4.293,-1.714 -8.635,-4.313 -4.343,-2.598 -6.267,-4.053 -4.787,-8.055 1.48,-4 5.33,-3.378 5.872,-3.378 0.543,0 0.84,-3.483 5.577,-5.873 4.737,-2.39 17.32,-1.35 19.195,-0.312 1.875,1.04 9.474,3.274 13.915,14.5 4.44,11.224 -1.184,15.434 10.906,32.375 0,0 -4.836,1.04 -7.945,0.104 0,0 6.266,11.12 17.27,16.422 z"
       id="path8"
       inkscape:connector-curvature="0"
       style="stroke-width:1.505" />
    <path
       d="m 310.93,92.217 c -9.845,-0.468 -6.07,-9.848 -6.07,-9.848"
       id="path10"
       inkscape:connector-curvature="0"
       style="fill:none;stroke-width:1.505" />
    <path
       d="m 328.028,93.503 c 0,0 -1.74,-0.818 -3.21,-2.767 -2.066,-2.735 -6.672,-4.053 -9.15,-1.48 0,0 -2.518,2.805 -4.74,2.96 0,0 2.518,0.78 4.258,2.38 1.74,1.597 3.552,2.766 6.143,2.415 2.59,-0.35 2.997,-1.714 4.218,-2.532 1.22,-0.82 2.48,-0.975 2.48,-0.975 z"
       id="path12"
       inkscape:connector-curvature="0"
       style="stroke-width:1.505" />
  </g>
  <path
     d="m 6.7604333,11.2152 c 0,0 -0.0074,-0.21047 0.2590667,-0.22607 l 0.7845667,1.09134 c 0,0 -0.0296,0.0701 -0.3849,0.0623 0,0 -0.0376,-2.7e-4 -0.057333,0.0413 -0.030333,0.0638 -0.6014,-0.96893 -0.6014,-0.96893 z"
     stroke-miterlimit="10"
     id="path16"
     inkscape:connector-curvature="0"
     style="fill:#369443;stroke:#010002;stroke-width:0.0502;stroke-miterlimit:10" />
  <g
     id="a"
     transform="matrix(0.00501833,0,0,0.00501833,0.1199,0.87233)"
     style="fill:#f4c53d;stroke:#010002;stroke-width:10">
    <path
       d="m 1494.918,1807.886 c 0,0 -49.82,85.606 -110.13,86.987 0,0 -103.74,-12.628 -133.073,14.498 -20.454,18.916 -41.3,34.52 -49.82,82.846 -8.523,48.326 16.387,58.682 22.287,60.753 0,0 4.59,34.518 38.676,25.543 0,0 1.967,35.9 62.276,18.64 60.31,-17.26 85.22,-11.736 97.02,-71.8 11.8,-60.06 22.693,-59.078 33.43,-66.275 14.423,-9.665 41.518,-18.8 61.62,-30.376 18.062,-10.4 87.187,-45.565 110.786,-48.326 23.6,-2.76 18.355,-82.154 18.355,-82.154 h -60.964 l -29.498,-43.493 -60.964,53.156 z m 192.01,-429.409 c 0,0 -60.965,49.707 -112.096,0 0,0 -20.65,24.853 -61.948,17.604 -41.3,-7.248 -48.182,-28.995 -52.115,-41.42 0,0 -35.728,20.84 -65.882,4.38 -30.155,-16.463 -30.155,-41.316 -30.155,-41.316 0,0 -52.443,10.338 -79.32,-25.207 -26.876,-35.545 -10.488,-70.754 3.934,-74.897 0,0 -56.7,14.854 -72.11,-33.828 -13.11,-41.422 16.39,-62.824 16.39,-62.824 0,0 -119.47,-0.574 -168.473,-37.97 0,0 -40.643,-25.544 -16.388,-52.468 0,0 -107.507,-17.26 -134.384,-60.062 0,0 -11.8,-11.736 -7.866,-32.448 0,0 0.656,-11.736 12.455,-12.427 0,0 -122.6,-18.937 -157.982,-59.372 0,0 -17.044,-18.64 -8.522,-43.492 0,0 1.803,-6.56 4.753,-10.96 0,0 -111.605,-23.56 -166.67,-73.266 0,0 -31.787,-28.32 -15.4,-66.29 0,0 -186.505,-51.073 -143.24,-133.228 0,0 -87.185,-28.305 -59.653,-107.008 0,0 -72.11,-36.59 -40.643,-94.58 30.114,-55.5 122.585,9.664 232.08,39.96 0,0 296.28,93.28 442.188,118.106 l 414.573,617.222 241.892,93.2 24.58,172.593 z"
       id="path18"
       inkscape:connector-curvature="0" />
    <path
       d="m 1689.878,923.866 c 0,0 -38.857,-29.17 -108.163,5.178 0,0 -23.333,16.068 -41.687,-1.536 -15.336,-14.71 -16.775,-41.83 4.322,-57.49 51.623,-38.316 70.798,-153.263 -7.866,-200.898 0,0 -114.063,-67.656 -532.32,-174.095 0,0 -35.044,-9.717 -53.727,-5.057 -20.572,5.13 -34.743,22.782 -37.65,37.886 0,0 -18.715,53.188 44.206,83.62 0,0 28.408,13 57.687,21.402 0,0 -32.16,-6.952 -45.887,24.853 -13.11,30.375 5.9,61.442 64.898,81.463 0,0 15.958,6.21 38.677,11.736 0,0 -50.476,14.497 -26.22,55.23 0,0 21.632,42.802 98,50.396 0,0 -57.03,6.213 -16.715,60.408 0,0 17.7,29.686 73.42,40.732 0,0 -42.282,1.38 -20.977,39.35 21.305,37.972 71.44,59.373 120.775,62.825 0,0 26.72,1.382 45.403,-2.76 0,0 -46.87,23.473 -19.338,62.824 0,0 20.32,27.96 71.125,26.58 0,0 -13.187,43.944 24.09,60.58 29.008,12.943 53.1,-7.768 53.1,-7.768 0,0 -9.834,47.118 32.448,63.687 0,0 21.14,10.873 52.606,0 0,0 24.09,53.85 109.638,16.05 85.545,-37.798 20.156,-355.197 20.156,-355.197 z m 5.074,489.39 c 0,0 -12.552,67.393 -112.09,152.22 0,0 -76.8,67.745 -74.834,145.757 2.003,79.44 -13.766,88.368 -43.92,115.292 0,0 62.275,4.833 92.43,-36.59 0,0 -1.312,69.037 -10.49,75.25 0,0 19.532,1.246 47.854,-29.685 0,0 17.044,-17.95 32.777,-24.853 0,0 -18.356,47.636 -3.934,91.82 0,0 4.59,-17.26 28.843,-24.854 0,0 43.92,-8.975 60.964,-72.49 0,0 11.144,-42.112 79.975,-79.392 0,0 78.007,-29.42 76.04,-67.87 -1.965,-38.447 -173.618,-244.604 -173.618,-244.604 z"
       id="path20"
       inkscape:connector-curvature="0" />
    <path
       d="m 2056.524,2282.172 c 0,0 -17.87,78.856 -79.975,72.49 0,0 -43.922,-4.143 -40.644,-77.323 0,0 -64.898,34.518 -75.386,-51.088 0,0 -58.998,13.807 -58.342,-66.276 0,0 -55.065,9.665 -48.51,-61.443 0,0 -59.653,15.88 -59.653,-51.088 0,0 -139.628,-23.157 151.428,-288.576 l 259.59,154.642 -48.51,368.66 z"
       stroke-miterlimit="10"
       id="path22"
       inkscape:connector-curvature="0"
       style="stroke-miterlimit:10" />
    <path
       d="m 2085.368,1928.287 c 0,0 -43.265,38.385 -74.075,-18.915 0,0 -41.954,-2.07 -48.51,-33.828 0,0 -34.087,-3.452 -40.642,-35.9 0,0 -46.542,-4.832 -45.23,-44.183 0,0 -84.62,-6.53 -0.028,-102.333 84.59,-95.802 228.153,158.945 228.153,158.945 l -19.667,76.215 z m 48.275,-23.747 c 41.94,0 89.463,261.995 77.13,419.84 -4.48,57.328 -35.19,104.152 -77.13,104.152 -41.94,0 -72.65,-46.824 -77.13,-104.15 -12.333,-157.846 35.19,-419.843 77.13,-419.843"
       id="path24"
       inkscape:connector-curvature="0" />
    <ellipse
       ry="85.950996"
       rx="58.032001"
       cy="1902.468"
       cx="2133.6431"
       id="ellipse26" />
    <path
       d="m 1935.906,2277.34 c 0,0 6.555,-138.765 126.824,-337.594 m -202.21,286.506 c 0,0 -18.683,-80.083 150.773,-316.88 0,0 -19.666,-56.612 40.643,-92.856 m -249.76,343.46 c 0,0 -5.243,-86.642 160.607,-284.433 0,0 -14.65,-51.088 45.445,-91.82 m -254.56,314.81 c 0,0 6.228,-87.677 168.472,-258.89 0,0 -8.117,-52.468 50.023,-84.916 m -278.15,292.72 c 0,0 11.8,-100.105 182.895,-251.987 0,0 -5.9,-39.35 51.132,-79.393"
       stroke-miterlimit="10"
       id="path28"
       inkscape:connector-curvature="0"
       style="fill:none;stroke-miterlimit:10" />
    <path
       d="m 372.257,431.976 c 0,0 134.384,77.806 552.895,155.612 M 431.91,538.984 c 0,0 363.717,118.646 533.1,133.226 m -389.86,0 c 0,0 213.37,66.98 463.238,109.247 m -281.17,30.31 c 0,0 241.072,57.905 356.164,67.515 m -194.41,46.31 c 0,0 203.908,42.526 255.572,47.64 m -125.777,57.297 c 0,0 148.806,22.61 208.03,21.4 m -23.17,69.038 c 0,0 60.166,-2.826 89.08,-7.626 m -33.36,104.278 c 0,0 51.132,-13.807 81.286,-33.138 m -5.9,133.242 c 0,0 39.333,-15.188 58.343,-56.61 m 37.693,93.545 c 0,0 30.48,-27.27 32.448,-57.647 m 81.614,81.464 c 0,0 -11.413,-9.845 -3.605,-52.64 m -11.145,-62.825 c 0,0 -5.9,-12.254 -3.933,-31.585 M 1345.066,650.132 c 0,0 68.83,27.615 91.775,65.585 22.944,37.97 7.833,74.873 0,96.047 -3.936,10.64 -52.443,104.16 4.59,171.816 m -95.382,73.525 c 0,0 0.33,-0.345 24.584,-7.94 m -169.784,-91.473 c 0,0 41.026,8.26 81.286,8.63 m -137.99,-109.77 c 0,0 48.183,4.833 93.414,4.142 m -165.194,-109.77 c 0,0 69.486,13.808 106.852,14.5 m -164.54,-132.553 c 0,0 85.7,24.46 149.463,33.138 m 141.596,50.397 c 0,0 -61.62,57.3 12.455,110.46 0,0 -30.81,48.325 30.81,98.722 m -16.388,23.82 c 0,0 -9.177,92.154 103.574,92.16 0,0 -21.633,82.157 87.186,79.396 0,0 12.455,65.585 91.12,52.468 m -173.327,721.441 c 0,0 -17.84,3.97 -56.54,0 m -108.818,48.326 c 0,0 -54.41,-8.286 -51.787,109.768 m 84.565,-82.845 c 0,0 -49.165,-6.213 -45.887,108.388 m 520.654,-384.536 c 0,0 -23.6,4.833 -39.988,23.473 -16.39,18.64 -47.854,15.188 -47.854,15.188 0,0 17.044,-13.807 22.944,-48.326 5.9,-34.52 24.91,-44.875 24.91,-44.875 m -56.3,-32.688 c 0,0 -23.598,4.833 -39.986,23.473 -16.388,18.64 -47.854,15.188 -47.854,15.188 0,0 17.044,-13.807 22.944,-48.326 5.9,-34.52 24.91,-44.874 24.91,-44.874 m 23.76,188.537 c 0,0 -20.604,4.22 -34.913,20.495 -14.31,16.275 -41.783,13.26 -41.783,13.26 0,0 14.882,-12.055 20.033,-42.194 5.15,-30.14 21.75,-39.18 21.75,-39.18"
       id="path30"
       inkscape:connector-curvature="0"
       style="fill:none" />
  </g>
  <use
     transform="matrix(-1,0,0,1,21.573167,0)"
     xlink:href="#a"
     width="100%"
     height="100%"
     id="use33"
     style="stroke:#010002;stroke-width:10"
     x="0"
     y="0" />
  <path
     stroke-miterlimit="10"
     d="M 15.535,8.53097 15.057667,10.59147 14.860733,10.45 15.3254,8.47593 l -0.324,0.006 0.769033,-1.40827 0.05127,1.62367 z m 1.232333,0.435 -1.432633,1.6928 -0.155133,-0.17367 1.4272,-1.67133 -0.2887,-0.15497 1.306833,-0.8632 -0.678567,1.459 z"
     id="path35"
     inkscape:connector-curvature="0"
     style="fill:#0081c6;stroke:#010002;stroke-width:0.05018333;stroke-miterlimit:10" />
  <path
     stroke-miterlimit="10"
     d="m 16.420333,8.06817 -1.2822,2.4655 -0.1976,-0.11534 L 16.2314,7.9579 15.917,7.8753 17.005933,6.72464 16.6564,8.30697 Z"
     id="path37"
     inkscape:connector-curvature="0"
     style="fill:#0081c6;stroke:#010002;stroke-width:0.05018333;stroke-miterlimit:10" />
  <path
     d="m 14.820833,11.28567 -0.096,0.39266 0.2629,0.262 -0.371666,1.56974 -0.3305,-0.444 -0.4898,0.2286 0.371666,-1.56977 0.344534,-0.096 0.0894,-0.392 c 0,0 0.104233,-0.0408 0.219433,0.0488 z"
     stroke-miterlimit="10"
     id="path39"
     inkscape:connector-curvature="0"
     style="fill:#0081c6;stroke:#010002;stroke-width:0.0502;stroke-miterlimit:10" />
  <path
     d="m 14.908867,11.02673 -0.189267,0.35314 0.1896,0.32466 -0.744733,1.415 -0.2102,-0.519 -0.529267,0.0873 0.744767,-1.415 0.3564,10e-4 0.182766,-0.35423 c 0,0 0.132934,-2.7e-4 0.199934,0.107 z"
     stroke-miterlimit="10"
     id="path41"
     inkscape:connector-curvature="0"
     style="fill:#0081c6;stroke:#010002;stroke-width:0.0502;stroke-miterlimit:10" />
  <path
     d="m 14.940833,11.12943 -0.5035,0.63957 0.115434,0.36133 -1.0279,1.20227 -0.09393,-0.55547 -0.534333,-0.0403 1.0279,-1.20227 0.347,0.0855 0.534,-0.679 c 0,0 0.143267,0.0711 0.135333,0.18833 z M 2.1841333,9.62993 C 2.3041333,9.58093 2.3905667,9.53363 2.3902,9.4056 2.3901333,9.3751 2.3732,9.3075 2.3391,9.20293 L 1.5332,6.73993 C 1.4854667,6.5936 1.4494,6.5066 1.4326333,6.47453 1.3964,6.4052 1.3253,6.37693 1.2295,6.33703 h 1.0243 c -0.1112667,0.0526 -0.2127333,0.0943 -0.2117667,0.21234 3.334e-4,0.045 0.013,0.10853 0.039167,0.19056 l 0.6173333,1.93277 0.6168,-1.93277 C 3.3415006,6.65793 3.3550006,6.5944 3.3545666,6.54933 3.3533666,6.42807 3.2477332,6.38433 3.1438999,6.337 h 0.9927667 c -0.0908,0.0364 -0.1647667,0.0649 -0.2027667,0.13753 -0.016767,0.032 -0.052833,0.119 -0.1005333,0.26534 L 3.0275,9.203 C 2.9934,9.30757 2.981067,9.37627 2.976367,9.40807 c 0,0 -0.037067,0.15576 0.2061,0.22193 H 2.1841333 Z M 19.3585,9.37667 V 6.5879 c 0,-0.0482 -0.0079,-0.0852 -0.02383,-0.111 C 19.31877,6.4512 19.24954,6.3771 19.150736,6.33703 H 20.0737 c -0.09877,0.0327 -0.168,0.1122 -0.1839,0.13874 -0.0159,0.0265 -0.02383,0.0639 -0.02383,0.1122 v 2.78866 c 0,0.0499 0.0082,0.0881 0.02467,0.11467 0.01647,0.0265 0.08433,0.0913 0.1831,0.13867 h -0.922966 c 0.0988,-0.0449 0.168,-0.11417 0.183933,-0.1399 0.0159,-0.0257 0.02383,-0.0635 0.02383,-0.11334 z"
     stroke-miterlimit="10"
     id="path43"
     inkscape:connector-curvature="0"
     style="fill:#0081c6;stroke:#010002;stroke-width:0.0502;stroke-miterlimit:10" />
  <path
     d="m 10.827433,10.32557 c 0,0 2.470067,-1.0946 2.476234,-3.62677 H 8.3512 c 0.00617,2.53217 2.476233,3.62677 2.476233,3.62677 z"
     id="path45"
     inkscape:connector-curvature="0"
     style="fill:#ffffff;stroke:#010002;stroke-width:0.0502" />
  <g
     id="g51"
     transform="scale(0.03333333)"
     style="fill:#a60032;stroke:#010002;stroke-width:10">
    <path
       d="m 261.96,200.96 v 48.537 c 0,0 5.675,11.257 11.428,18.317 V 200.96 Z"
       id="path47"
       inkscape:connector-curvature="0"
       style="stroke-width:1.50549996" />
    <path
       d="m 284.817,200.96 v 80.01 c 0,0 7.147,7.008 11.428,10.386 V 200.96 Z m 22.857,0 v 98.9 c 0,0 8.154,5.265 11.43,6.993 V 200.96 Z m 80,0 v 48.537 c 0,0 -5.676,11.257 -11.43,18.317 V 200.96 Z m -22.857,0 v 80.01 c 0,0 -7.147,7.008 -11.43,10.386 V 200.96 Z m -22.857,0 v 98.9 c 0,0 -8.154,5.265 -11.43,6.993 V 200.96 Z"
       id="path49"
       inkscape:connector-curvature="0"
       style="stroke-width:1.505" />
  </g>
  <path
     d="m 13.303667,4.8591 c 0,0 -1.212,0.634 -2.476234,-0.052 C 9.5632333,5.4931 8.3512,4.8591 8.3512,4.8591 v 1.83967 h 4.952467 z"
     stroke-miterlimit="10"
     id="path53"
     inkscape:connector-curvature="0"
     style="fill:#162667;stroke:#010002;stroke-width:0.0502;stroke-miterlimit:10" />
</svg>
