<?xml version="1.0" encoding="UTF-8" standalone="no"?>
<svg
   xmlns:dc="http://purl.org/dc/elements/1.1/"
   xmlns:cc="http://creativecommons.org/ns#"
   xmlns:rdf="http://www.w3.org/1999/02/22-rdf-syntax-ns#"
   xmlns:svg="http://www.w3.org/2000/svg"
   xmlns="http://www.w3.org/2000/svg"
   xmlns:sodipodi="http://sodipodi.sourceforge.net/DTD/sodipodi-0.dtd"
   xmlns:inkscape="http://www.inkscape.org/namespaces/inkscape"
   height="16.000002"
   width="21.334106"
   viewBox="0 0 21.334106 16.000002"
   version="1.1"
   id="svg25"
   sodipodi:docname="vu.svg"
   inkscape:version="0.92.1 r">
  <metadata
     id="metadata29">
    <rdf:RDF>
      <cc:Work
         rdf:about="">
        <dc:format>image/svg+xml</dc:format>
        <dc:type
           rdf:resource="http://purl.org/dc/dcmitype/StillImage" />
        <dc:title></dc:title>
      </cc:Work>
    </rdf:RDF>
  </metadata>
  <sodipodi:namedview
     pagecolor="#ffffff"
     bordercolor="#666666"
     borderopacity="1"
     objecttolerance="10"
     gridtolerance="10"
     guidetolerance="10"
     inkscape:pageopacity="0"
     inkscape:pageshadow="2"
     inkscape:window-width="1920"
     inkscape:window-height="1024"
     id="namedview27"
     showgrid="false"
     fit-margin-top="0"
     fit-margin-left="0"
     fit-margin-right="0"
     fit-margin-bottom="0"
     inkscape:zoom="0.49166667"
     inkscape:cx="320"
     inkscape:cy="239.985"
     inkscape:window-x="0"
     inkscape:window-y="0"
     inkscape:window-maximized="1"
     inkscape:current-layer="svg25" />
  <defs
     id="defs5">
    <clipPath
       id="a">
      <path
         d="M 0,0 H 682.67 V 512 H 0 Z"
         id="path2"
         inkscape:connector-curvature="0"
         style="fill-opacity:0.67000002" />
    </clipPath>
  </defs>
  <g
     clip-path="url(#a)"
     transform="scale(0.03125098)"
     id="g23">
    <g
       id="g21"
       style="fill-rule:evenodd">
      <path
         d="m 0,0 347.415,219.424 h 420.56 v 73.142 H 347.415 L 0,511.98 V -0.003 Z"
         id="path7"
         inkscape:connector-curvature="0" />
      <path
         d="M 0,493.705 354.733,266.973 H 767.975 V 245.032 H 354.733 L 0,18.29 V 51.2 L 332.79,255.989 0,460.789 V 493.7 Z"
         id="path9"
         inkscape:connector-curvature="0"
         style="fill:#ffff00" />
      <path
         d="M 0,511.984 354.733,285.252 h 413.242 v 226.732 z"
         id="path11"
         inkscape:connector-curvature="0"
         style="fill:#40aa40" />
      <path
         d="M 0,0 354.733,226.732 H 767.975 V 0 Z"
         id="path13"
         inkscape:connector-curvature="0"
         style="fill:#ce0000" />
      <path
         d="m 95.806,266.623 c 1.227,0.27 1.55,0.62 2.766,-1.162 0.261,-0.897 1.023,-2.152 1.686,-3.264 0.887,-1.456 1.276,-2.04 2.11,-0.933 0.54,0.633 2.69,-0.534 3.582,0.078 1.379,0.917 0.55,0.784 1.68,-0.207 0.867,-1.848 0.103,-1.63 -1.12,-2.47 -0.859,-0.59 -3.052,0.626 -3.91,0.037 0.3,-1.846 0.888,-2.044 1.95,-2.403 0.804,0.552 3.146,-0.42 3.87,-0.404 1.022,0.214 1.932,0.327 2.254,-1.174 0.505,-1.063 0.285,-0.33 -0.12,-1.103 -0.858,-0.589 -3.051,0.627 -3.91,0.037 -1.115,-0.844 -0.931,-1.158 -0.28,-2.573 0.872,-0.479 1.521,-0.247 2.599,0.423 1.109,0.762 2.856,-0.718 3.829,-0.772 0.875,-0.995 1.907,-1.327 1.255,-2.54 -0.365,-0.921 -0.639,-1.025 -1.84,-1.263 -1.227,-0.842 -2.826,0.7 -3.293,-0.56 0.974,-1.395 1.337,-1.097 2.518,-0.312 0.76,0.26 3.054,-1.1 3.79,-1.14 1.092,-0.316 0.563,0.913 1.334,-1.805 -0.267,-1.178 -2.243,0.723 -3.358,0.416 -1.07,0.143 -1.922,-0.236 -2.023,-1.389 0.016,-1.55 0.785,-1.656 1.887,-1.426 0.97,0.174 3.159,-1.031 3.973,-1.014 1.159,0.616 1.526,0.386 2.438,-1.047 0.673,-1.692 -0.073,-0.993 -1.223,-1.86 -0.858,-0.59 -3.051,0.626 -3.91,0.037 0.15,-0.625 0.422,-1.385 1.007,-1.69 0.846,0.167 1.574,0.129 2.639,0.791 1.047,0.458 2.772,-1.565 3.669,-2.243 -0.17,-0.964 -1.884,0.408 -2.926,-0.308 -0.66,-0.453 -1.488,-0.929 -1.695,-1.504 0.591,-1.688 0.303,-1.604 1.926,-1.058 0.864,-0.225 2.328,-0.212 1.335,-1.805 -0.158,-0.257 -1.013,-0.166 -1.759,-0.527 -0.9,-0.618 -1.765,-1.24 -2.718,-1.527 -0.688,-0.106 -1.687,-0.328 -2.231,-0.17 -0.058,1.003 0.195,1.64 0.136,2.814 0.448,0.732 1.295,0.75 1.472,1.01 -0.9,0.79 -1.386,0.386 -2.335,0.438 -1.13,-0.775 -0.482,-3.18 -1.815,-2.606 0.307,0.706 0.196,3.375 0.768,3.928 0.604,0.415 1.373,0.82 1.511,1.378 -0.96,1.478 -1.324,1.395 -2.478,0.68 -0.964,-0.662 -0.66,-2.833 -1.487,-2.722 -1.016,0.767 -1.033,0.732 -0.823,1.816 0.054,1.417 -0.512,3.39 0.624,4.17 1.367,0.969 1.54,0.854 0.464,2.7 -0.741,0.898 -1.157,0.734 -2.007,0.323 -0.914,-0.628 -0.716,-2.942 -1.423,-3.7 -1.34,-0.8 -0.564,-0.77 -1.68,0.209 -0.344,1.256 -0.094,1.587 0.465,2.7 0.454,0.69 0.425,3.051 1.2,3.204 1.25,0.716 1.295,0.572 -0.128,1.954 -1.117,0.044 -1.597,0.35 -2.454,-0.665 -1.04,-0.784 -0.39,-3.202 -1.712,-3.216 -1.224,0.1 -1.49,0.132 -1.334,1.805 0.211,1.472 -0.336,3.788 0.848,4.664 1.108,0.506 1.778,0.473 2.167,1.147 -0.345,0.303 -0.995,1.24 -1.375,1.438 -0.776,0.055 -1.576,-0.482 -2.455,-0.665 -1.044,-0.481 -0.572,-1.413 -1.407,-1.987 -0.966,0.313 -0.983,-1.037 -1.495,0.334 0.198,1.126 -0.183,2.596 0.872,3.32 0.858,0.59 1.613,1.788 2.47,2.377 0.985,1.165 0.599,1.368 -0.007,3.056 -0.821,0.023 -1.784,-0.545 -2.678,-1.159 -0.858,-0.589 -0.71,-2.868 -1.568,-3.457 -0.742,-0.73 -0.527,-1.353 -1.679,0.208 -0.108,1.107 0.099,1.187 0.384,1.964 0.033,1.131 -0.27,3.216 0.769,3.93 1.05,0.211 2.182,0.76 3.006,1.043 0.79,0.926 0.103,0.745 -0.783,2.183 -0.557,1.44 -0.563,1.695 -1.439,2.414 -0.76,1.013 -1.06,1.458 -0.375,2.804 z"
         id="path15"
         inkscape:connector-curvature="0"
         style="fill:#ffff00" />
      <path
         d="m 120.918,267.849 c 0.736,-1.195 1.187,-1.398 0.034,-3.402 -0.72,-0.636 -1.568,-1.946 -2.325,-3.096 -0.984,-1.523 -1.366,-2.17 -0.016,-2.613 0.796,-0.321 0.58,-3.07 1.497,-3.773 1.39,-1.098 0.938,-0.27 0.477,-1.866 -1.35,-1.66 -1.454,-0.762 -2.712,0.202 -0.883,0.676 -0.64,3.49 -1.522,4.167 -1.576,-1.057 -1.523,-1.76 -1.43,-3.032 0.827,-0.633 0.866,-3.508 1.169,-4.27 0.603,-1.001 1.07,-1.922 -0.18,-2.864 -0.775,-0.96 -0.19,-0.434 -1.06,-0.313 -0.883,0.676 -0.64,3.49 -1.522,4.167 -1.22,0.847 -1.435,0.526 -2.475,-0.731 -0.092,-1.118 0.38,-1.714 1.423,-2.59 1.141,-0.874 0.478,-3.32 0.815,-4.376 -0.565,-1.327 -0.46,-2.555 -1.832,-2.347 -0.991,0.018 -1.195,0.268 -1.891,1.448 -1.262,0.967 -0.482,3.281 -1.826,3.274 -0.893,-1.592 -0.475,-1.859 0.716,-2.8 0.541,-0.701 0.207,-3.682 0.462,-4.479 0.144,-1.287 1.062,-0.233 -1.126,-2.139 -1.188,-0.187 -0.23,2.671 -0.955,3.732 -0.294,1.194 -0.982,1.948 -2.08,1.594 -1.416,-0.637 -1.208,-1.496 -0.558,-2.574 0.546,-0.96 0.31,-3.767 0.65,-4.624 1.027,-0.985 0.962,-1.467 0.01,-3.008 -1.286,-1.391 -0.941,-0.319 -2.195,0.555 -0.883,0.676 -0.64,3.491 -1.522,4.167 -0.514,-0.41 -1.104,-1.001 -1.15,-1.745 0.49,-0.831 0.744,-1.62 1.776,-2.486 0.837,-0.929 -0.333,-3.57 -0.599,-4.793 -0.953,-0.204 -0.376,2.164 -1.447,2.985 -0.68,0.52 -1.445,1.209 -2.056,1.199 -1.314,-1.303 -1.352,-0.964 -0.205,-2.47 0.138,-1.006 0.732,-2.556 -1.125,-2.138 -0.3,0.065 -0.556,1.01 -1.184,1.657 -0.926,0.709 -1.842,1.38 -2.484,2.277 -0.37,0.688 -0.973,1.66 -1.044,2.3 0.898,0.463 1.583,0.45 2.638,0.98 0.85,-0.182 1.203,-1.074 1.513,-1.158 0.367,1.272 -0.198,1.626 -0.527,2.654 -1.162,0.89 -3.11,-0.759 -3.116,0.886 0.771,-0.044 3.177,1.142 3.913,0.755 0.62,-0.475 1.298,-1.131 1.866,-1.055 0.975,1.612 0.753,1.965 -0.362,2.904 -0.992,0.76 -2.864,-0.43 -3.091,0.492 0.3,1.385 0.261,1.39 1.34,1.6 1.322,0.509 2.908,1.898 4.076,1.003 1.434,-1.064 1.398,-1.294 2.663,0.586 0.53,1.147 0.214,1.523 -0.502,2.26 -0.94,0.721 -2.985,-0.414 -3.962,0.034 -1.268,1.103 -0.932,0.29 -0.477,1.866 1.016,0.869 1.42,0.735 2.663,0.586 0.815,-0.206 2.97,0.769 3.42,0.007 1.155,-1.042 1.04,-1.146 1.742,0.916 -0.404,1.205 -0.314,1.837 -1.587,2.341 -1.134,0.79 -3.095,-0.865 -3.634,0.532 -0.395,1.34 -0.471,1.635 1.126,2.14 1.436,0.363 3.344,1.87 4.62,0.962 0.905,-0.974 1.141,-1.699 1.915,-1.842 0.141,0.487 0.742,1.552 0.772,2.034 -0.257,0.847 -1.069,1.482 -1.587,2.341 -0.857,0.918 -1.525,0.043 -2.384,0.701 -0.097,1.15 -1.343,0.63 -0.288,1.721 1.113,0.24 2.31,1.232 3.395,0.4 0.882,-0.675 2.283,-0.997 3.165,-1.673 1.462,-0.58 1.494,-0.088 2.803,1.23 -0.306,0.88 -1.21,1.676 -2.13,2.38 -0.882,0.677 -2.915,-0.392 -3.798,0.284 -0.966,0.496 -1.451,0.02 -0.477,1.866 0.973,0.557 1.13,0.37 1.956,0.377 1.052,0.417 2.845,1.572 3.913,0.754 0.612,-1.03 1.567,-2.013 2.154,-2.775 1.165,-0.47 0.725,0.189 1.693,1.704 1.1,1.166 1.332,1.275 1.644,2.493 0.627,1.21 0.916,1.708 2.424,1.519 z"
         id="path17"
         inkscape:connector-curvature="0"
         style="fill:#ffff00" />
      <path
         d="m 98.007,314.504 c 0,-5.32 -0.825,-10.639 0,-10.639 46.81,0 58.511,-31.916 58.511,-53.195 0,-21.277 -16.26,-42.554 -46.809,-42.554 -35.108,0 -46.81,20.787 -46.81,42.554 0,21.278 17.555,37.237 35.108,37.237 23.406,0 29.257,-5.32 46.81,-26.597 -5.851,26.597 -35.108,37.237 -46.81,37.237 -23.405,0 -46.809,-15.958 -46.809,-47.875 0,-26.596 17.554,-53.192 58.514,-53.192 35.108,0 58.511,26.597 58.511,53.192 0,37.237 -29.256,63.833 -70.216,63.833 z"
         id="path19"
         inkscape:connector-curvature="0"
         style="fill:#ffff00" />
    </g>
  </g>
</svg>
