<?xml version="1.0" encoding="UTF-8" standalone="no"?>
<svg
   xmlns:dc="http://purl.org/dc/elements/1.1/"
   xmlns:cc="http://creativecommons.org/ns#"
   xmlns:rdf="http://www.w3.org/1999/02/22-rdf-syntax-ns#"
   xmlns:svg="http://www.w3.org/2000/svg"
   xmlns="http://www.w3.org/2000/svg"
   xmlns:sodipodi="http://sodipodi.sourceforge.net/DTD/sodipodi-0.dtd"
   xmlns:inkscape="http://www.inkscape.org/namespaces/inkscape"
   height="15.999998"
   width="21.333332"
   viewBox="0 0 21.333332 15.999998"
   version="1.1"
   id="svg12"
   sodipodi:docname="ws.svg"
   inkscape:version="0.92.1 r">
  <metadata
     id="metadata18">
    <rdf:RDF>
      <cc:Work
         rdf:about="">
        <dc:format>image/svg+xml</dc:format>
        <dc:type
           rdf:resource="http://purl.org/dc/dcmitype/StillImage" />
        <dc:title></dc:title>
      </cc:Work>
    </rdf:RDF>
  </metadata>
  <defs
     id="defs16" />
  <sodipodi:namedview
     pagecolor="#ffffff"
     bordercolor="#666666"
     borderopacity="1"
     objecttolerance="10"
     gridtolerance="10"
     guidetolerance="10"
     inkscape:pageopacity="0"
     inkscape:pageshadow="2"
     inkscape:window-width="1920"
     inkscape:window-height="1024"
     id="namedview14"
     showgrid="false"
     fit-margin-top="0"
     fit-margin-left="0"
     fit-margin-right="0"
     fit-margin-bottom="0"
     inkscape:zoom="0.49166667"
     inkscape:cx="320"
     inkscape:cy="240"
     inkscape:window-x="0"
     inkscape:window-y="0"
     inkscape:window-maximized="1"
     inkscape:current-layer="svg12" />
  <g
     id="g10"
     transform="scale(0.03333333)"
     style="fill-rule:evenodd;stroke-width:1.00000003pt">
    <path
       d="M 0,0 H 640 V 480 H 0 Z"
       id="path2"
       inkscape:connector-curvature="0"
       style="fill:#ff0000" />
    <path
       d="M 0,0 H 314.407 V 157.21 H 0 Z"
       id="path4"
       inkscape:connector-curvature="0"
       style="fill:#00006b" />
    <g
       id="g8"
       style="fill:#ffffff">
      <path
         d="m 162.77,144.4 -12.468,-8.415 -11.95,8.555 3.795,-15.007 -11.471,-9.25 14.817,-0.858 4.862,-14.274 5.357,14.477 14.477,0.427 -11.504,9.81 z m -2.136,-99.826 -9.975,-6.41 -9.795,6.362 2.72,-11.953 -8.781,-7.817 11.66,-0.977 4.357,-11.192 4.49,11.349 11.48,0.9 -8.888,7.99 z m -44.083,35.922 -9.708,-6.66 -9.922,6.658 3.089,-11.673 -9.147,-7.768 11.607,-0.554 4.273,-11.46 4.091,11.33 11.781,0.687 -9.08,7.556 z m 88.383,-8.026 -9.315,-6.01 -9.064,6.083 2.608,-11.083 -8.35,-7.096 10.926,-0.841 3.899,-10.468 4.143,10.564 10.763,0.625 -8.362,7.37 z m -26.052,26.247 -6.21,-3.868 -6.188,3.907 1.613,-7.347 -5.482,-4.924 7.208,-0.673 2.804,-6.95 2.841,6.93 7.213,0.63 -5.453,4.956 z"
         id="path6"
         inkscape:connector-curvature="0" />
    </g>
  </g>
</svg>
