<?xml version="1.0" encoding="UTF-8" standalone="no"?>
<!-- Created with Inkscape (http://www.inkscape.org/) -->

<svg
   xmlns:dc="http://purl.org/dc/elements/1.1/"
   xmlns:cc="http://creativecommons.org/ns#"
   xmlns:rdf="http://www.w3.org/1999/02/22-rdf-syntax-ns#"
   xmlns:svg="http://www.w3.org/2000/svg"
   xmlns="http://www.w3.org/2000/svg"
   xmlns:sodipodi="http://sodipodi.sourceforge.net/DTD/sodipodi-0.dtd"
   xmlns:inkscape="http://www.inkscape.org/namespaces/inkscape"
   id="svg2"
   version="1.1"
   inkscape:version="0.92.0 r"
   xml:space="preserve"
   width="300"
   height="58.451"
   viewBox="0 0 281.24999 54.797816"
   sodipodi:docname="doctales-logo.svg"><metadata
     id="metadata8"><rdf:RDF><cc:Work
         rdf:about=""><dc:format>image/svg+xml</dc:format><dc:type
           rdf:resource="http://purl.org/dc/dcmitype/StillImage" /><dc:title></dc:title></cc:Work></rdf:RDF></metadata><defs
     id="defs6" /><sodipodi:namedview
     pagecolor="#ffffff"
     bordercolor="#666666"
     borderopacity="1"
     objecttolerance="10"
     gridtolerance="10"
     guidetolerance="10"
     inkscape:pageopacity="0"
     inkscape:pageshadow="2"
     inkscape:window-width="1920"
     inkscape:window-height="1028"
     id="namedview4"
     showgrid="false"
     inkscape:zoom="0.83961113"
     inkscape:cx="318.42381"
     inkscape:cy="41.375324"
     inkscape:window-x="0"
     inkscape:window-y="0"
     inkscape:window-maximized="1"
     inkscape:current-layer="g10"
     fit-margin-top="0"
     fit-margin-left="0"
     fit-margin-right="0"
     fit-margin-bottom="0" /><g
     id="g10"
     inkscape:groupmode="layer"
     inkscape:label="doctales-logo-2"
     transform="matrix(1.25,0,0,-1.25,0.00146662,54.889063)"><g
       id="g12"
       transform="matrix(0.66145309,0,0,0.66145309,-3.9721639e-4,0.02471392)"><path
         d="M 19.211,57.495 H 320.109 V 10.179 H 19.211 Z"
         style="fill:#5fbcd3;fill-opacity:1;fill-rule:nonzero;stroke:#004455;stroke-width:1.52570999;stroke-linecap:butt;stroke-linejoin:miter;stroke-miterlimit:4;stroke-dasharray:none;stroke-opacity:1"
         id="path14"
         inkscape:connector-curvature="0" /><path
         d="m 50.793,63.12 c -3.77,0 -7.559,-0.441 -11.375,-1.328 L 36.285,49.159 c 0.703,0.18 1.395,0.352 2.078,0.512 0.703,0.156 1.383,0.34 2.043,0.543 -2.113,-4.223 -4.133,-8.399 -6.062,-12.532 -1.93,-4.109 -3.782,-8.207 -5.551,-12.293 -1.773,-4.085 -3.484,-8.175 -5.145,-12.261 -1.632,-4.063 -3.21,-8.16 -4.73,-12.293 6.605,0.406 10.559,0.679 11.852,0.816 9.105,0.75 17.992,4.379 26.664,10.899 8.652,6.402 14.691,13.906 18.117,22.511 1.41,3.543 2.113,6.754 2.113,9.637 0,6.356 -3.055,11.191 -9.164,14.508 -4.812,2.609 -10.715,3.914 -17.707,3.914 z M 49.977,50.624 c 3.632,-0.453 6.605,-1.43 8.921,-2.93 2.93,-1.953 4.395,-4.551 4.395,-7.797 0,-1.386 -0.398,-3.203 -1.191,-5.449 -1.774,-4.633 -4.985,-8.777 -9.641,-12.43 -4.606,-3.679 -9.387,-6.031 -14.336,-7.05 2.496,6.992 4.949,13.179 7.355,18.558 2.43,5.406 4.836,10.149 7.219,14.235 z"
         style="fill:#004455;fill-opacity:1;fill-rule:nonzero;stroke:#ffffff;stroke-width:1.52559996;stroke-linecap:butt;stroke-linejoin:miter;stroke-miterlimit:1;stroke-dasharray:none;stroke-opacity:1"
         id="path16"
         inkscape:connector-curvature="0" /><path
         d="m 108.402,48.444 c -0.703,2.473 -2.632,3.711 -5.789,3.711 h -0.785 C 97.789,51.792 93.93,48.999 90.25,43.78 86.82,38.827 85.109,34.21 85.109,29.917 c 0,-3.27 1.371,-4.903 4.121,-4.903 3.473,0 6.981,2.055 10.524,6.165 3.496,3.925 5.242,7.64 5.242,11.136 0,1.293 -0.238,2.438 -0.715,3.438 z m 8.004,2.996 c 0.52,-1.703 0.782,-3.258 0.782,-4.664 0,-2.25 -0.668,-5.086 -2.008,-8.515 -2.633,-6.2 -6.711,-11.614 -12.227,-16.243 -6.152,-5.199 -12.281,-7.8 -18.391,-7.8 -7.355,0 -11.035,3.929 -11.035,11.785 0,5.332 1.727,11.054 5.18,17.164 1.656,2.972 3.539,5.664 5.652,8.07 2.11,2.406 4.473,4.574 7.082,6.504 5.7,4.133 11.215,6.199 16.551,6.199 7.176,0 11.262,-3.304 12.262,-9.91 z"
         style="fill:#004455;fill-opacity:1;fill-rule:nonzero;stroke:#fefefe;stroke-width:1.52570999;stroke-linecap:butt;stroke-linejoin:miter;stroke-miterlimit:4;stroke-dasharray:none;stroke-opacity:1"
         id="path18"
         inkscape:connector-curvature="0" /><path
         d="m 145.875,45.745 c -0.137,3.902 -2.133,5.855 -5.992,5.855 -4.246,0 -8.332,-2.746 -12.262,-8.242 -3.586,-5.129 -5.379,-9.941 -5.379,-14.437 0,-3.02 1.348,-4.532 4.051,-4.532 2.18,0 4.406,0.797 6.676,2.387 1.883,1.27 3.586,2.985 5.109,5.141 l 9.602,-2.352 c -3.2,-4.586 -6.957,-8.285 -11.274,-11.101 -4.949,-3.246 -9.91,-4.867 -14.879,-4.867 -7.199,0 -10.797,3.878 -10.797,11.644 0,5.383 1.727,11.125 5.176,17.234 3.36,5.926 7.606,10.805 12.739,14.645 5.562,4.129 11.078,6.195 16.55,6.195 7.172,0 11.262,-3.301 12.258,-9.91 z"
         style="fill:#004455;fill-opacity:1;fill-rule:nonzero;stroke:#fefefe;stroke-width:1.52570999;stroke-linecap:butt;stroke-linejoin:miter;stroke-miterlimit:4;stroke-dasharray:none;stroke-opacity:1"
         id="path20"
         inkscape:connector-curvature="0" /><path
         d="m 203.984,50.577 -18.523,-0.273 4.461,-2.215 C 185.969,39.667 182.383,31.651 179.16,24.046 175.957,16.44 173.074,9.061 170.508,1.909 l -14.063,0.477 c 1.383,4.043 2.825,8.05 4.325,12.023 1.496,3.996 3.062,7.969 4.699,11.918 1.633,3.953 3.336,7.902 5.109,11.852 1.793,3.953 3.676,7.925 5.652,11.921 l -13.589,-0.207 6.199,13.524 41.445,0.715 z"
         style="fill:#004455;fill-opacity:1;fill-rule:nonzero;stroke:#fefefe;stroke-width:1.52570999;stroke-linecap:butt;stroke-linejoin:miter;stroke-miterlimit:4;stroke-dasharray:none;stroke-opacity:1"
         id="path22"
         inkscape:connector-curvature="0" /><path
         d="m 212.75,47.714 c -1.156,-1.703 -2.543,-3.86 -4.152,-6.469 -1.59,-2.613 -3.508,-5.676 -5.758,-9.195 0.476,0.047 1,0.078 1.566,0.101 0.59,0.024 1.215,0.035 1.875,0.035 0.633,0 1.227,-0.011 1.77,-0.035 0.566,-0.023 1.09,-0.054 1.566,-0.101 0.317,1.746 0.738,3.918 1.262,6.504 0.519,2.589 1.144,5.64 1.871,9.16 z m 14.918,16.418 c -3.949,-14.125 -7.152,-30.141 -9.606,-48.055 l -11.988,-0.781 1.297,6.707 c -1.613,0.273 -3.351,0.41 -5.211,0.41 -0.797,0 -1.601,-0.024 -2.418,-0.07 -0.816,-0.043 -1.613,-0.114 -2.383,-0.204 l -4.191,-7.765 -12.156,-0.75 c 1.972,3.406 4.097,6.984 6.367,10.73 2.293,3.766 4.746,7.743 7.355,11.918 2.633,4.176 5.438,8.571 8.414,13.18 2.973,4.633 6.153,9.5 9.536,14.609 z"
         style="fill:#004455;fill-opacity:1;fill-rule:nonzero;stroke:#fefefe;stroke-width:1.52570999;stroke-linecap:butt;stroke-linejoin:miter;stroke-miterlimit:4;stroke-dasharray:none;stroke-opacity:1"
         id="path24"
         inkscape:connector-curvature="0" /><path
         d="m 249.312,63.62 c -3.359,-7.106 -6.367,-13.781 -9.023,-20.027 -2.633,-6.219 -4.996,-12.055 -7.086,-17.504 h 1.09 c 1.863,-0.043 3.852,0.035 5.961,0.238 2.113,0.227 4.43,0.523 6.949,0.887 l -5.586,-11.649 c -4.066,-0.543 -7.98,-0.965 -11.75,-1.258 -3.769,-0.273 -7.492,-0.386 -11.172,-0.343 h -1.597 c 5.879,17.187 12.714,33.718 20.5,49.586 z"
         style="fill:#004455;fill-opacity:1;fill-rule:nonzero;stroke:#fefefe;stroke-width:1.52570999;stroke-linecap:butt;stroke-linejoin:miter;stroke-miterlimit:4;stroke-dasharray:none;stroke-opacity:1"
         id="path26"
         inkscape:connector-curvature="0" /><path
         d="m 287.09,54.491 c -3.203,-0.066 -6.27,-0.191 -9.195,-0.375 -2.907,-0.156 -5.7,-0.383 -8.379,-0.68 -0.524,-1.089 -1.055,-2.328 -1.602,-3.711 -0.523,-1.363 -1.078,-2.863 -1.668,-4.496 2.656,0.317 5.258,0.543 7.797,0.68 2.566,0.137 5.121,0.227 7.664,0.273 l -4.527,-11 h -1.739 c -2.246,0.047 -4.507,-0.023 -6.777,-0.203 -2.246,-0.16 -4.598,-0.422 -7.051,-0.785 -0.703,-1.293 -1.34,-2.633 -1.906,-4.019 -0.543,-1.36 -1.043,-2.789 -1.5,-4.289 2.953,0.339 5.895,0.601 8.824,0.781 2.926,0.183 5.891,0.297 8.887,0.344 l -4.531,-11.036 c -4.813,-0.089 -9.66,-0.296 -14.539,-0.613 -4.883,-0.316 -9.934,-0.785 -15.157,-1.398 2.497,6.836 5.063,13.465 7.696,19.89 2.636,6.45 5.418,12.883 8.343,19.309 l -4.121,-0.066 4.055,10.32 c 6.266,0.133 12.238,0.371 17.914,0.715 5.676,0.363 11.18,0.804 16.516,1.328 z"
         style="fill:#004455;fill-opacity:1;fill-rule:nonzero;stroke:#fefefe;stroke-width:1.52570999;stroke-linecap:butt;stroke-linejoin:miter;stroke-miterlimit:4;stroke-dasharray:none;stroke-opacity:1"
         id="path28"
         inkscape:connector-curvature="0" /><path
         d="m 311.988,52.757 c -4.289,-0.137 -6.527,-0.227 -6.707,-0.274 -3.109,-0.476 -4.664,-1.625 -4.664,-3.441 0,-0.18 0.043,-0.68 0.133,-1.496 0.094,-0.797 0.23,-1.942 0.41,-3.442 0.34,-2.406 0.578,-4.3 0.715,-5.687 0.137,-1.383 0.203,-2.281 0.203,-2.688 0,-1.953 -0.394,-4.019 -1.191,-6.199 -0.727,-1.887 -1.485,-3.328 -2.282,-4.324 -2.632,-3.453 -6.753,-6.199 -12.363,-8.242 -2.269,-0.797 -4.629,-1.453 -7.082,-1.977 -2.453,-0.5 -5.019,-0.84 -7.695,-1.023 l 3.609,12.5 c 2.043,0.226 3.848,0.5 5.414,0.816 1.567,0.32 2.907,0.672 4.02,1.059 1.34,0.453 2.246,1.019 2.722,1.703 0.5,0.656 0.75,1.691 0.75,3.097 0,0.614 -0.011,1.192 -0.035,1.739 -0.019,0.566 -0.054,1.109 -0.101,1.633 -0.114,0.886 -0.387,2.484 -0.817,4.8 -0.433,1.953 -0.648,3.578 -0.648,4.871 0,3.407 1.555,6.801 4.668,10.184 2.656,2.93 5.777,5.141 9.363,6.641 2.746,1.156 6.371,1.738 10.863,1.738 1.09,0 2.161,-0.035 3.204,-0.106 1.043,-0.066 2.054,-0.144 3.031,-0.238 z"
         style="fill:#004455;fill-opacity:1;fill-rule:nonzero;stroke:#fefefe;stroke-width:1.52570999;stroke-linecap:butt;stroke-linejoin:miter;stroke-miterlimit:4;stroke-dasharray:none;stroke-opacity:1"
         id="path30"
         inkscape:connector-curvature="0" /><path
         d="M 15.277,36.561 16.875,14.511 2.242,13.284 0.777,36.054 17.219,60.089 31.785,60.175 Z"
         style="fill:#004455;fill-opacity:1;fill-rule:nonzero;stroke:#fefefe;stroke-width:1.52570999;stroke-linecap:butt;stroke-linejoin:miter;stroke-miterlimit:4;stroke-dasharray:none;stroke-opacity:1"
         id="path32"
         inkscape:connector-curvature="0" /><path
         d="m 320.609,17.409 -16.574,-1.266 19.07,23.969 -1.472,21.735 16.344,1.222 1.402,-21.82 z"
         style="fill:#004455;fill-opacity:1;fill-rule:nonzero;stroke:#fefefe;stroke-width:1.52570999;stroke-linecap:butt;stroke-linejoin:miter;stroke-miterlimit:4;stroke-dasharray:none;stroke-opacity:1"
         id="path34"
         inkscape:connector-curvature="0" /><path
         d="m 50.793,63.886 c -3.828,0 -7.68,-0.45 -11.547,-1.348 l -0.57,-0.559 -3.133,-12.636 0.934,-0.922 c 0.695,0.179 1.378,0.347 2.054,0.504 l 0.004,0.004 c 0.16,0.035 0.305,0.082 0.461,0.121 C 37.156,45.339 35.355,41.647 33.652,38.007 31.719,33.889 29.867,29.784 28.09,25.69 26.32,21.6 24.602,17.507 22.941,13.417 V 13.413 C 21.305,9.343 19.727,5.237 18.199,1.097 l 0.766,-1.024 c 6.597,0.406 10.512,0.676 11.867,0.82 h 0.004 c 9.262,0.762 18.293,4.461 27.055,11.043 8.742,6.469 14.882,14.094 18.371,22.84 v 0.004 c 1.433,3.606 2.164,6.91 2.164,9.918 0,6.602 -3.274,11.766 -9.559,15.18 -4.953,2.683 -10.984,4.008 -18.074,4.008 z m 0,-1.528 c 6.898,0 12.668,-1.285 17.344,-3.824 5.929,-3.215 8.761,-7.723 8.761,-13.836 0,-2.758 -0.675,-5.879 -2.054,-9.355 C 71.473,26.882 65.539,19.495 56.98,13.159 H 56.977 C 48.395,6.71 39.648,3.147 30.707,2.413 L 30.688,2.409 C 29.574,2.292 25.523,2.022 20.059,1.679 c 1.39,3.746 2.812,7.472 4.296,11.164 1.657,4.082 3.368,8.16 5.137,12.242 1.766,4.078 3.613,8.172 5.543,12.273 v 0.004 c 1.926,4.125 3.945,8.297 6.055,12.512 l -0.91,1.07 c -0.637,-0.199 -1.301,-0.375 -1.985,-0.531 h -0.007 c -0.282,-0.066 -0.571,-0.141 -0.856,-0.211 l 2.707,10.926 c 3.609,0.804 7.191,1.23 10.754,1.23 z M 50.07,51.382 49.422,50.097 51.766,47.636 C 49.453,43.632 47.129,39.057 44.785,33.839 42.367,28.436 39.91,22.229 37.406,15.222 l 0.871,-1 c 5.078,1.046 9.973,3.457 14.657,7.195 l 0.004,0.004 c 4.738,3.722 8.046,7.976 9.874,12.754 l 0.008,0.015 c 0.813,2.297 1.235,4.176 1.235,5.707 0,3.477 -1.641,6.371 -4.735,8.434 l -0.008,0.004 c -2.437,1.578 -5.527,2.582 -9.242,3.047 z m 2.164,-2.024 c 2.426,-0.519 4.594,-1.23 6.25,-2.304 2.762,-1.844 4.043,-4.145 4.043,-7.157 0,-1.238 -0.367,-2.988 -1.144,-5.183 -1.715,-4.485 -4.824,-8.512 -9.391,-12.098 l -0.004,-0.004 c -4.082,-3.254 -8.281,-5.379 -12.593,-6.504 2.296,6.336 4.566,12.153 6.781,17.106 v 0.004 c 2.422,5.382 4.816,10.101 7.183,14.16 l -0.105,0.91 z"
         style="fill:#ffffff;fill-opacity:1;fill-rule:nonzero;stroke:none"
         id="path36"
         inkscape:connector-curvature="0" /></g></g></svg>