<?xml version="1.0" encoding="UTF-8" standalone="no"?>
<!-- Created with Inkscape (http://www.inkscape.org/) -->

<svg
   xmlns:dc="http://purl.org/dc/elements/1.1/"
   xmlns:cc="http://creativecommons.org/ns#"
   xmlns:rdf="http://www.w3.org/1999/02/22-rdf-syntax-ns#"
   xmlns:svg="http://www.w3.org/2000/svg"
   xmlns="http://www.w3.org/2000/svg"
   xmlns:sodipodi="http://sodipodi.sourceforge.net/DTD/sodipodi-0.dtd"
   xmlns:inkscape="http://www.inkscape.org/namespaces/inkscape"
   width="5.6444459mm"
   height="5.6445608mm"
   viewBox="0 0 20.000005 20.000412"
   id="svg3981"
   version="1.1"
   inkscape:version="0.91 r13725"
   sodipodi:docname="delete.svg">
  <defs
     id="defs3983" />
  <sodipodi:namedview
     id="base"
     pagecolor="#ffffff"
     bordercolor="#666666"
     borderopacity="1.0"
     inkscape:pageopacity="0.0"
     inkscape:pageshadow="2"
     inkscape:zoom="11.2"
     inkscape:cx="16.370479"
     inkscape:cy="2.9629058"
     inkscape:document-units="px"
     inkscape:current-layer="layer1"
     showgrid="false"
     fit-margin-top="0"
     fit-margin-left="0"
     fit-margin-right="0"
     fit-margin-bottom="0"
     inkscape:window-width="1920"
     inkscape:window-height="1028"
     inkscape:window-x="0"
     inkscape:window-y="0"
     inkscape:window-maximized="1" />
  <metadata
     id="metadata3986">
    <rdf:RDF>
      <cc:Work
         rdf:about="">
        <dc:format>image/svg+xml</dc:format>
        <dc:type
           rdf:resource="http://purl.org/dc/dcmitype/StillImage" />
        <dc:title></dc:title>
      </cc:Work>
    </rdf:RDF>
  </metadata>
  <g
     inkscape:label="Ebene 1"
     inkscape:groupmode="layer"
     id="layer1"
     transform="translate(-122.28121,-561.50969)">
    <path
       inkscape:connector-curvature="0"
       style="fill:#1d1d1b"
       d="m 141.53982,577.20022 -5.69703,-5.69619 5.6962,-5.69454 c 0.98963,-0.98879 0.98963,-2.58319 0,-3.55783 -0.98963,-0.98963 -2.58153,-0.98963 -3.55783,0.002 l -5.70287,5.69619 -5.69703,-5.69786 c -0.98713,-0.98963 -2.5782,-0.98963 -3.55783,0.002 -0.98963,0.98296 -0.98963,2.57903 0,3.55783 l 5.69703,5.6962 -5.69703,5.70286 c -0.98963,0.98546 -0.98963,2.58153 0,3.55783 0.49315,0.49398 1.13124,0.74139 1.78683,0.74139 0.64226,0 1.29285,-0.24741 1.78766,-0.74139 l 5.69703,-5.69786 5.69704,5.6962 c 0.49148,0.49564 1.1354,0.74138 1.78516,0.74138 0.64226,0 1.29451,-0.24574 1.78766,-0.74138 0.95048,-0.98547 0.95048,-2.57987 -0.025,-3.56617 z"
       id="path436" />
  </g>
</svg>
