<?xml version="1.0" encoding="UTF-8" standalone="no"?>
<!-- Created with Inkscape (http://www.inkscape.org/) -->

<svg
   xmlns:dc="http://purl.org/dc/elements/1.1/"
   xmlns:cc="http://creativecommons.org/ns#"
   xmlns:rdf="http://www.w3.org/1999/02/22-rdf-syntax-ns#"
   xmlns:svg="http://www.w3.org/2000/svg"
   xmlns="http://www.w3.org/2000/svg"
   xmlns:sodipodi="http://sodipodi.sourceforge.net/DTD/sodipodi-0.dtd"
   xmlns:inkscape="http://www.inkscape.org/namespaces/inkscape"
   width="5.6461525mm"
   height="5.6444445mm"
   viewBox="0 0 20.006052 20"
   id="svg4023"
   version="1.1"
   inkscape:version="0.91 r13725"
   sodipodi:docname="add.svg"
   inkscape:export-filename="/home/stefan/workspace/org.doctales.terminology/framework/icons/add_20.png"
   inkscape:export-xdpi="89.972771"
   inkscape:export-ydpi="89.972771">
  <defs
     id="defs4025" />
  <sodipodi:namedview
     id="base"
     pagecolor="#ffffff"
     bordercolor="#666666"
     borderopacity="1.0"
     inkscape:pageopacity="0.0"
     inkscape:pageshadow="2"
     inkscape:zoom="15.839192"
     inkscape:cx="-8.3437482"
     inkscape:cy="-2.9676059"
     inkscape:document-units="px"
     inkscape:current-layer="layer1"
     showgrid="false"
     fit-margin-top="0"
     fit-margin-left="0"
     fit-margin-right="0"
     fit-margin-bottom="0"
     inkscape:window-width="1920"
     inkscape:window-height="1028"
     inkscape:window-x="0"
     inkscape:window-y="0"
     inkscape:window-maximized="1" />
  <metadata
     id="metadata4028">
    <rdf:RDF>
      <cc:Work
         rdf:about="">
        <dc:format>image/svg+xml</dc:format>
        <dc:type
           rdf:resource="http://purl.org/dc/dcmitype/StillImage" />
        <dc:title />
      </cc:Work>
    </rdf:RDF>
  </metadata>
  <g
     inkscape:label="Ebene 1"
     inkscape:groupmode="layer"
     id="layer1"
     transform="translate(857.85919,381.21172)">
    <path
       inkscape:connector-curvature="0"
       style="fill:#1d1d1b"
       d="m -838.97869,-373.69181 -6.39975,0 0,-6.39441 c 0,-0.62475 -0.50475,-1.1255 -1.12551,-1.1255 l -2.70848,0 c -0.62276,0 -1.12551,0.50541 -1.12551,1.1255 l 0,6.39441 -6.39436,0 c -0.62548,0 -1.12689,0.50475 -1.12689,1.12619 l 0,2.70646 c 0,0.62544 0.50475,1.12619 1.12689,1.12619 l 6.39436,0 0,6.39574 c 0,0.62276 0.50541,1.12551 1.12551,1.12551 l 2.70848,0 c 0.62276,0 1.12551,-0.50675 1.12551,-1.12551 l 0,-6.39574 6.39975,0 c 0.62541,0 1.1255,-0.50475 1.1255,-1.12619 l 0,-2.70646 c 0.006,-0.6221 -0.50009,-1.12619 -1.1255,-1.12619 z"
       id="path206"
       inkscape:export-xdpi="73"
       inkscape:export-ydpi="73" />
  </g>
</svg>
