<?xml version="1.0" encoding="UTF-8" standalone="no"?>
<svg
   width="24"
   height="24"
   viewBox="0 0 24 24"
   version="1.1"
   id="svg151"
   sodipodi:docname="extract-logo.svg"
   inkscape:version="1.2.2 (b0a8486541, 2022-12-01)"
   inkscape:export-filename="extract-icon-16.png"
   inkscape:export-xdpi="64"
   inkscape:export-ydpi="64"
   xmlns:inkscape="http://www.inkscape.org/namespaces/inkscape"
   xmlns:sodipodi="http://sodipodi.sourceforge.net/DTD/sodipodi-0.dtd"
   xmlns="http://www.w3.org/2000/svg"
   xmlns:svg="http://www.w3.org/2000/svg">
  <defs
     id="defs155" />
  <sodipodi:namedview
     id="namedview153"
     pagecolor="#ffffff"
     bordercolor="#000000"
     borderopacity="0.25"
     inkscape:showpageshadow="2"
     inkscape:pageopacity="0.0"
     inkscape:pagecheckerboard="0"
     inkscape:deskcolor="#d1d1d1"
     showgrid="false"
     showguides="true"
     inkscape:zoom="8.0764487"
     inkscape:cx="75.590154"
     inkscape:cy="49.526718"
     inkscape:window-width="1866"
     inkscape:window-height="1009"
     inkscape:window-x="0"
     inkscape:window-y="0"
     inkscape:window-maximized="1"
     inkscape:current-layer="svg151">
    <sodipodi:guide
       position="78.678598,18.204884"
       orientation="0,-1"
       id="guide1297"
       inkscape:locked="false" />
    <sodipodi:guide
       position="131.36402,-2.7669851"
       orientation="0,-1"
       id="guide1299"
       inkscape:locked="false" />
    <sodipodi:guide
       position="83.253412,9.0577238"
       orientation="1,0"
       id="guide1415"
       inkscape:locked="false" />
  </sodipodi:namedview>
  <!-- Background circle for a clean, modern look -->
  <!-- A magnifying glass symbolizing search/extraction -->
  <!-- Simple, modern font for the app name -->
  <g
     id="g1484"
     transform="matrix(0.47054058,0,0,0.47055878,-10.035739,5.7)">
    <g
       aria-label="extractor"
       id="text425"
       style="font-size:37.3333px;font-family:'DejaVu Sans';-inkscape-font-specification:'DejaVu Sans';fill:#000000;fill-opacity:1;stroke-width:30;stroke-linecap:round;stroke-linejoin:round"
       transform="translate(-13.393013,-81.161404)">
      <path
         d="m 54.135165,86.958274 -7.382806,9.934888 7.765618,10.481758 h -3.955725 l -5.942704,-8.020823 -5.942703,8.020823 H 34.721119 L 42.6508,96.692641 35.395598,86.958274 h 3.955726 l 5.414058,7.273432 5.414057,-7.273432 z"
         style="fill:#000000;fill-opacity:1"
         id="path1321" />
      <path
         d="m 62.575262,81.161404 v 5.79687 h 6.908848 v 2.606769 h -6.908848 v 11.083327 q 0,2.49739 0.674479,3.20833 0.692707,0.71093 2.78906,0.71093 h 3.445309 v 2.80729 h -3.445309 q -3.88281,0 -5.359371,-1.4401 -1.476561,-1.45833 -1.476561,-5.28645 V 89.565043 h -2.460935 v -2.606769 h 2.460935 v -5.79687 z"
         style="fill:#000000;fill-opacity:1"
         id="path1323" />
      <path
         d="m 85.726284,90.093688 q -0.565104,-0.328124 -1.239583,-0.473958 -0.656249,-0.164062 -1.458332,-0.164062 -2.843747,0 -4.374996,1.859374 -1.51302,1.841144 -1.51302,5.304683 V 107.37492 H 73.767961 V 86.958274 h 3.372392 v 3.171873 q 1.057291,-1.859374 2.752602,-2.752602 1.695311,-0.911458 4.119788,-0.911458 0.346354,0 0.765625,0.05469 0.41927,0.03646 0.929687,0.127604 z"
         style="fill:#000000;fill-opacity:1"
         id="path1325" />
    </g>
  </g>
</svg>
