<?xml version="1.0" encoding="UTF-8" standalone="no"?>
<svg
   width="129.48166"
   height="37.314659"
   viewBox="0 0 129.48166 37.314659"
   version="1.1"
   id="svg151"
   sodipodi:docname="extract-logo.svg"
   inkscape:version="1.2.2 (b0a8486541, 2022-12-01)"
   xmlns:inkscape="http://www.inkscape.org/namespaces/inkscape"
   xmlns:sodipodi="http://sodipodi.sourceforge.net/DTD/sodipodi-0.dtd"
   xmlns="http://www.w3.org/2000/svg"
   xmlns:svg="http://www.w3.org/2000/svg">
  <defs
     id="defs155" />
  <sodipodi:namedview
     id="namedview153"
     pagecolor="#ffffff"
     bordercolor="#000000"
     borderopacity="0.25"
     inkscape:showpageshadow="2"
     inkscape:pageopacity="0.0"
     inkscape:pagecheckerboard="0"
     inkscape:deskcolor="#d1d1d1"
     showgrid="false"
     showguides="true"
     inkscape:zoom="8.0764487"
     inkscape:cx="75.466337"
     inkscape:cy="49.526718"
     inkscape:window-width="1866"
     inkscape:window-height="1009"
     inkscape:window-x="0"
     inkscape:window-y="0"
     inkscape:window-maximized="1"
     inkscape:current-layer="svg151">
    <sodipodi:guide
       position="78.678598,31.519543"
       orientation="0,-1"
       id="guide1297"
       inkscape:locked="false" />
    <sodipodi:guide
       position="131.36402,10.547674"
       orientation="0,-1"
       id="guide1299"
       inkscape:locked="false" />
    <sodipodi:guide
       position="83.253412,22.372383"
       orientation="1,0"
       id="guide1415"
       inkscape:locked="false" />
  </sodipodi:namedview>
  <!-- Background circle for a clean, modern look -->
  <!-- A magnifying glass symbolizing search/extraction -->
  <!-- Simple, modern font for the app name -->
  <g
     id="g1484">
    <g
       aria-label="extractor"
       id="text425"
       style="font-size:37.3333px;font-family:'DejaVu Sans';-inkscape-font-specification:'DejaVu Sans';fill:#000000;fill-opacity:1;stroke-width:30;stroke-linecap:round;stroke-linejoin:round"
       transform="translate(-13.393013,-81.161404)">
      <path
         d="m 32.314871,96.328058 v 1.640624 H 16.89301 q 0.218749,3.463538 2.078123,5.286458 1.877602,1.80468 5.213537,1.80468 1.93229,0 3.736976,-0.47396 1.822915,-0.47395 3.609372,-1.42187 v 3.17187 q -1.804686,0.76563 -3.700518,1.16667 -1.895831,0.40104 -3.846351,0.40104 -4.885412,0 -7.747389,-2.84375 -2.843747,-2.84375 -2.843747,-7.6927 0,-5.013017 2.697914,-7.94791 2.716143,-2.953123 7.309889,-2.953123 4.119789,0 6.507807,2.661456 2.406248,2.643227 2.406248,7.200515 z m -3.354163,-0.984374 q -0.03646,-2.752602 -1.549478,-4.393225 -1.494791,-1.640624 -3.973955,-1.640624 -2.807289,0 -4.502601,1.585936 -1.677081,1.585936 -1.93229,4.466142 z"
         style="fill:#000000;fill-opacity:1"
         id="path1319" />
      <path
         d="m 54.135165,86.958274 -7.382806,9.934888 7.765618,10.481758 h -3.955725 l -5.942704,-8.020823 -5.942703,8.020823 H 34.721119 L 42.6508,96.692641 35.395598,86.958274 h 3.955726 l 5.414058,7.273432 5.414057,-7.273432 z"
         style="fill:#000000;fill-opacity:1"
         id="path1321" />
      <path
         d="m 62.575262,81.161404 v 5.79687 h 6.908848 v 2.606769 h -6.908848 v 11.083327 q 0,2.49739 0.674479,3.20833 0.692707,0.71093 2.78906,0.71093 h 3.445309 v 2.80729 h -3.445309 q -3.88281,0 -5.359371,-1.4401 -1.476561,-1.45833 -1.476561,-5.28645 V 89.565043 h -2.460935 v -2.606769 h 2.460935 v -5.79687 z"
         style="fill:#000000;fill-opacity:1"
         id="path1323" />
      <path
         d="m 85.726284,90.093688 q -0.565104,-0.328124 -1.239583,-0.473958 -0.656249,-0.164062 -1.458332,-0.164062 -2.843747,0 -4.374996,1.859374 -1.51302,1.841144 -1.51302,5.304683 V 107.37492 H 73.767961 V 86.958274 h 3.372392 v 3.171873 q 1.057291,-1.859374 2.752602,-2.752602 1.695311,-0.911458 4.119788,-0.911458 0.346354,0 0.765625,0.05469 0.41927,0.03646 0.929687,0.127604 z"
         style="fill:#000000;fill-opacity:1"
         id="path1325" />
      <path
         d="m 126.81479,87.742128 v 3.135414 q -1.42187,-0.783854 -2.86197,-1.166666 -1.42188,-0.401041 -2.88021,-0.401041 -3.26302,0 -5.0677,2.078123 -1.80469,2.059894 -1.80469,5.79687 0,3.736972 1.80469,5.815102 1.80468,2.05989 5.0677,2.05989 1.45833,0 2.88021,-0.38281 1.4401,-0.40104 2.86197,-1.1849 v 3.09896 q -1.40364,0.65625 -2.91666,0.98437 -1.49479,0.32813 -3.1901,0.32813 -4.61198,0 -7.32812,-2.89844 -2.71615,-2.89843 -2.71615,-7.820302 0,-4.994787 2.73438,-7.856764 2.7526,-2.861977 7.52864,-2.861977 1.54947,0 3.02604,0.328125 1.47656,0.309896 2.86197,0.947916 z"
         style="fill:#000000;fill-opacity:1"
         id="path1329" />
      <path
         d="m 135.96583,81.161404 v 5.79687 h 6.90884 v 2.606769 h -6.90884 v 11.083327 q 0,2.49739 0.67447,3.20833 0.69271,0.71093 2.78906,0.71093 h 3.44531 v 2.80729 h -3.44531 q -3.8828,0 -5.35937,-1.4401 -1.47656,-1.45833 -1.47656,-5.28645 V 89.565043 h -2.46093 v -2.606769 h 2.46093 v -5.79687 z"
         style="fill:#000000;fill-opacity:1"
         id="path1331" />
    </g>
    <path
       id="circle145"
       style="fill:#000000;fill-opacity:1;stroke-width:0.298626"
       d="M 83.288628,5.95969 A 10.4519,10.4519 0 0 0 72.835503,16.410862 10.4519,10.4519 0 0 0 83.288628,26.862036 10.4519,10.4519 0 0 0 93.739797,16.410862 10.4519,10.4519 0 0 0 83.288628,5.95969 Z m -0.01563,3.189453 a 7.1850357,7.1850357 0 0 1 7.185544,7.185547 7.1850357,7.1850357 0 0 1 -7.185544,7.185546 7.1850357,7.1850357 0 0 1 -7.183594,-7.185546 7.1850357,7.1850357 0 0 1 7.183594,-7.185547 z" />
    <line
       x1="92.246796"
       y1="25.369633"
       x2="102.6987"
       y2="35.821529"
       stroke="#ffffff"
       stroke-width="2.98626"
       stroke-linecap="round"
       id="line147"
       style="fill:#000000;fill-opacity:1;stroke:#000000;stroke-opacity:1" />
  </g>
</svg>
