<?xml version="1.0" encoding="UTF-8" standalone="no"?>
<!-- Created with Inkscape (http://www.inkscape.org/) -->

<svg
   xmlns:dc="http://purl.org/dc/elements/1.1/"
   xmlns:cc="http://creativecommons.org/ns#"
   xmlns:rdf="http://www.w3.org/1999/02/22-rdf-syntax-ns#"
   xmlns:svg="http://www.w3.org/2000/svg"
   xmlns="http://www.w3.org/2000/svg"
   xmlns:sodipodi="http://sodipodi.sourceforge.net/DTD/sodipodi-0.dtd"
   xmlns:inkscape="http://www.inkscape.org/namespaces/inkscape"
   width="3.6688888mm"
   height="3.6688888mm"
   viewBox="0 0 13 13"
   id="svg4087"
   version="1.1"
   inkscape:version="0.91 r13725"
   sodipodi:docname="git.svg"
   inkscape:export-filename="/home/stefan/workspace/org.doctales.terminology/framework/icons/git.png"
   inkscape:export-xdpi="90"
   inkscape:export-ydpi="90">
  <defs
     id="defs4089" />
  <sodipodi:namedview
     id="base"
     pagecolor="#ffffff"
     bordercolor="#666666"
     borderopacity="1.0"
     inkscape:pageopacity="0.0"
     inkscape:pageshadow="2"
     inkscape:zoom="2.8"
     inkscape:cx="3.0886158"
     inkscape:cy="58.264405"
     inkscape:document-units="px"
     inkscape:current-layer="layer1"
     showgrid="false"
     fit-margin-top="0"
     fit-margin-left="0"
     fit-margin-right="0"
     fit-margin-bottom="0"
     inkscape:window-width="1920"
     inkscape:window-height="1028"
     inkscape:window-x="0"
     inkscape:window-y="0"
     inkscape:window-maximized="1" />
  <metadata
     id="metadata4092">
    <rdf:RDF>
      <cc:Work
         rdf:about="">
        <dc:format>image/svg+xml</dc:format>
        <dc:type
           rdf:resource="http://purl.org/dc/dcmitype/StillImage" />
        <dc:title></dc:title>
      </cc:Work>
    </rdf:RDF>
  </metadata>
  <g
     inkscape:label="Ebene 1"
     inkscape:groupmode="layer"
     id="layer1"
     transform="translate(-146.85714,-469.64792)">
    <path
       inkscape:connector-curvature="0"
       style="fill:#1d1d1b"
       d="m 158.77326,476.14792 c 0,-1.46412 -0.6179,-2.86853 -1.58275,-3.83419 -0.96484,-0.96728 -2.36965,-1.58275 -3.83418,-1.58275 -1.46413,0 -2.86082,0.61791 -3.82566,1.58275 -0.96484,0.96485 -1.59087,2.37007 -1.59087,3.83419 0,2.36113 1.54862,4.46022 3.79153,5.16303 l 0,-1.43041 c -0.30469,0.0423 -0.49928,0.0593 -0.58419,0.0593 -0.61791,0 -1.04934,-0.2795 -1.29513,-0.84663 -0.0845,-0.21165 -0.18606,-0.38797 -0.30468,-0.53259 -0.0252,-0.0333 -0.0845,-0.0841 -0.17794,-0.16088 -0.0934,-0.0764 -0.16941,-0.14381 -0.23684,-0.20312 -0.0764,-0.0593 -0.1101,-0.1101 -0.1101,-0.13569 0,-0.0674 0.0764,-0.10156 0.23725,-0.10156 0.32988,0 0.58419,0.18647 0.76172,0.41478 0.169,0.23441 0.32988,0.48831 0.60938,0.65163 0.13528,0.0849 0.29615,0.12675 0.47368,0.12675 0.23725,0 0.46557,-0.0423 0.68575,-0.12107 0.093,-0.32134 0.27097,-0.57525 0.533,-0.75318 -1.87037,-0.17794 -2.75884,-0.83769 -2.75884,-2.60651 0,-0.66868 0.20313,-1.22728 0.61791,-1.67578 -0.0764,-0.23725 -0.11863,-0.4745 -0.11863,-0.71093 0,-0.32988 0.0764,-0.63457 0.22831,-0.9226 0.6435,0 1.06641,0.21166 1.70991,0.67966 0.43144,-0.10156 0.90553,-0.15234 1.43041,-0.15234 0.4485,0 0.88034,0.0423 1.29512,0.13284 0.64309,-0.4485 1.05788,-0.66016 1.69285,-0.66016 0.15234,0.28803 0.22831,0.59272 0.22831,0.9226 0,0.24537 -0.0422,0.47368 -0.11863,0.7024 0.41478,0.46556 0.61791,1.02416 0.61791,1.68431 0,1.76882 -0.88888,2.44604 -2.75072,2.61544 0.38919,0.26244 0.58419,0.63456 0.58419,1.10866 l 0,1.91303 c 2.24331,-0.69834 3.79193,-2.79825 3.79193,-5.161 z m 0.21207,-3.26666 c 0.58418,0.99897 0.87181,2.09057 0.87181,3.26666 0,2.36113 -1.24394,4.46875 -3.23294,5.62819 -0.99897,0.58418 -2.09056,0.87181 -3.26706,0.87181 -2.36113,0 -4.46875,-1.24353 -5.62819,-3.24147 -0.58419,-0.99044 -0.87181,-2.08203 -0.87181,-3.25853 0,-2.36072 1.24394,-4.46875 3.24147,-5.62819 0.99044,-0.58418 2.08203,-0.87181 3.25853,-0.87181 2.36112,0 4.46834,1.24556 5.62819,3.23334 z"
       id="path70" />
  </g>
</svg>
