<?xml version="1.0" encoding="UTF-8" standalone="no"?>
<!-- Created with Inkscape (http://www.inkscape.org/) -->

<svg
   version="1.1"
   id="svg1"
   width="500"
   height="500"
   viewBox="0 0 500 500.00001"
   sodipodi:docname="rename.svg"
   inkscape:version="1.3 (0e150ed6c4, 2023-07-21)"
   inkscape:export-filename="rename-16.png"
   inkscape:export-xdpi="3.072"
   inkscape:export-ydpi="3.072"
   xmlns:inkscape="http://www.inkscape.org/namespaces/inkscape"
   xmlns:sodipodi="http://sodipodi.sourceforge.net/DTD/sodipodi-0.dtd"
   xmlns="http://www.w3.org/2000/svg"
   xmlns:svg="http://www.w3.org/2000/svg">
  <defs
     id="defs1" />
  <sodipodi:namedview
     id="namedview1"
     pagecolor="#ffffff"
     bordercolor="#000000"
     borderopacity="0.25"
     inkscape:showpageshadow="2"
     inkscape:pageopacity="0.0"
     inkscape:pagecheckerboard="0"
     inkscape:deskcolor="#d1d1d1"
     inkscape:zoom="0.79101563"
     inkscape:cx="306.5679"
     inkscape:cy="355.23951"
     inkscape:window-width="1920"
     inkscape:window-height="1017"
     inkscape:window-x="-8"
     inkscape:window-y="-8"
     inkscape:window-maximized="1"
     inkscape:current-layer="g1" />
  <g
     inkscape:groupmode="layer"
     inkscape:label="Image"
     id="g1"
     transform="translate(-135.13465,-32.917571)">
    <path
       style="fill:#000000;stroke-width:0.97607"
       d="m 477.73131,498.22171 c -4.4574,-3.02888 -7.06899,-9.11472 -6.17698,-14.3944 1.14814,-6.79581 8.79931,-12.47302 16.83632,-12.49266 3.30767,-0.008 9.10787,-2.68328 12.29261,-5.66963 5.29215,-4.96252 6.42022,-9.05431 6.44395,-23.37391 l 0.0215,-12.93293 H 345.30026 c -111.25231,0 -163.65894,-0.32823 -167.64006,-1.04995 -19.64426,-3.56128 -36.84616,-20.27451 -40.99036,-39.82591 -2.08729,-9.84741 -2.02749,-202.81473 0.0656,-211.69232 4.58168,-19.43246 21.55466,-35.69133 40.92476,-39.20291 3.98112,-0.72172 56.38775,-1.04996 167.64006,-1.04996 h 161.8484 v -12.72026 c 0,-13.91471 -0.96824,-17.8039 -5.66419,-22.75168 -3.35348,-3.533318 -9.09467,-6.497517 -12.59824,-6.504521 -8.58866,-0.01717 -16.15157,-5.506347 -17.34862,-12.591682 -0.88342,-5.22887 2.12784,-12.033543 6.50656,-14.703157 8.4213,-5.134294 29.21681,-0.239442 39.86931,9.384443 l 3.86223,3.4893 3.38446,-2.971591 c 11.72197,-10.29202 32.42308,-15.237342 40.5532,-9.687816 11.84276,8.08375 7.07805,24.685552 -7.63655,26.608145 -7.5731,0.989493 -12.61946,3.301043 -16.11062,7.379679 -4.52402,5.2853 -5.53544,9.52899 -5.53544,23.22552 v 11.84362 l 25.62184,0.017 c 18.21466,0.012 27.49044,0.41302 32.08538,1.38698 19.20222,4.07019 35.40176,20.26972 39.47194,39.47194 2.05161,9.67908 2.02419,201.5187 -0.0302,211.21359 -4.00983,18.92286 -20.43297,35.29847 -39.44175,39.32766 -4.59495,0.97396 -13.87073,1.37493 -32.08538,1.38699 l -25.62187,0.0169 v 11.84362 c 0,13.69653 1.01142,17.94023 5.53544,23.22552 3.49116,4.07864 8.53752,6.39019 16.11062,7.37969 11.30545,1.47715 17.54192,11.8264 12.66124,21.01096 -2.88218,5.42375 -7.20561,7.79334 -14.21931,7.79334 -10.93671,0 -23.05327,-4.59182 -31.35858,-11.88398 l -3.38446,-2.97159 -3.86223,3.4893 c -11.04396,9.97755 -31.8643,14.62881 -40.18216,8.97667 z M 507.14865,282.94766 V 165.81924 l -162.27167,0.01 -162.27166,0.01 -4.88036,2.30146 c -5.81572,2.74256 -8.46661,5.44142 -11.14278,11.34445 -1.96241,4.32862 -1.99129,5.82915 -1.99129,103.46344 0,97.63429 0.0289,99.13482 1.99129,103.46344 2.67617,5.90302 5.32706,8.60189 11.14278,11.34445 l 4.88036,2.30146 162.27166,0.01 162.27167,0.009 z m -210.53758,95.57662 c -4.2913,-2.12417 -8.10214,-8.00924 -8.10214,-12.51213 0,-1.21734 -0.32942,-2.04398 -0.73205,-1.83699 -15.19982,7.81437 -23.94174,9.95034 -37.82272,9.24147 -26.68195,-1.36261 -48.36544,-17.7761 -57.47039,-43.50267 -2.68482,-7.5861 -2.97723,-9.56092 -2.97979,-20.12437 -0.003,-13.27947 1.408,-19.38183 6.91456,-29.8996 6.5198,-12.45311 16.46474,-22.05708 29.13386,-28.135 10.35202,-4.96631 16.57478,-6.35747 28.30604,-6.32812 10.84293,0.0271 20.4456,2.37492 29.41805,7.19256 l 5.01629,2.69343 0.52463,-3.91138 c 0.99838,-7.44348 7.31646,-12.73322 15.06864,-12.61602 4.75647,0.0719 8.00053,1.91254 11.4045,6.47076 1.97484,2.64449 2.01742,3.82428 2.27813,63.13665 0.25996,59.14026 0.22289,60.52567 -1.72126,64.33653 -2.18278,4.27861 -7.81085,7.8258 -12.41453,7.8245 -1.4977,-4.2e-4 -4.56751,-0.91374 -6.82182,-2.02962 z m -28.0475,-37.48905 c 7.07585,-3.46188 13.12921,-9.57442 16.71682,-16.88025 2.3869,-4.86068 2.7405,-6.71423 2.7405,-14.36539 0,-7.61949 -0.37278,-9.59174 -2.81061,-14.86976 -3.40471,-7.37136 -10.16391,-14.00625 -17.96204,-17.63171 -4.6627,-2.16775 -6.94667,-2.59479 -13.87784,-2.59479 -6.91584,0 -9.21847,0.42864 -13.83594,2.57561 -7.73819,3.598 -13.87507,9.59887 -17.64239,17.25139 -2.82652,5.74149 -3.17216,7.34982 -3.17216,14.7607 0,12.70728 4.73387,22.03464 14.64893,28.8634 7.16612,4.9355 12.20738,6.33337 21.57132,5.98147 6.33462,-0.23805 9.05371,-0.85492 13.62341,-3.09067 z m 81.73136,37.48905 c -2.92675,-1.44872 -4.67109,-3.21118 -6.10044,-6.16381 -1.97139,-4.07237 -2.0017,-5.42602 -2.0017,-89.41281 0,-84.11232 0.0275,-85.33461 2.01081,-89.43162 2.18224,-4.50789 8.00387,-8.1754 12.97729,-8.1754 4.52416,0 10.17958,3.57012 12.32873,7.78281 1.83376,3.59447 1.96527,5.71642 1.96527,31.70915 0,15.32128 0.21302,27.85688 0.47338,27.85688 0.26035,0 2.56631,-1.284 5.12437,-2.85334 22.04691,-13.52559 51.39007,-12.8214 73.66624,1.76789 13.51028,8.84827 23.63889,22.17419 28.89278,38.01346 2.16742,6.53427 2.48189,9.1541 2.47998,20.66013 -0.002,11.63138 -0.30535,14.09285 -2.58672,20.98551 -10.62063,32.08813 -42.26056,52.69609 -74.62593,48.60591 -10.41191,-1.3158 -19.34825,-4.19472 -26.96368,-8.68657 -3.15727,-1.86226 -5.84847,-3.26055 -5.98046,-3.1073 -0.13201,0.15324 -1.19822,2.17837 -2.36938,4.50029 -1.55933,3.0915 -3.22457,4.71888 -6.22042,6.079 -5.27196,2.39349 -8.02719,2.36605 -13.07012,-0.13018 z m 76.81596,-30.07866 c 19.89697,-7.55901 30.69332,-29.76937 24.39034,-50.17605 -10.85825,-35.15493 -59.54596,-39.01944 -75.69679,-6.00833 -11.22726,22.94769 1.24737,50.61634 25.92863,57.50957 7.00436,1.95624 18.29183,1.36683 25.37782,-1.32519 z m 165.4439,49.30993 c 5.81573,-2.74256 8.46661,-5.44142 11.14279,-11.34445 1.9624,-4.32862 1.99129,-5.82915 1.99129,-103.46344 0,-97.63429 -0.0289,-99.13482 -1.99129,-103.46344 -2.67618,-5.90303 -5.32706,-8.60189 -11.14279,-11.34445 -4.73859,-2.23461 -5.62464,-2.30174 -30.5022,-2.311 l -25.62184,-0.01 v 117.12842 117.12842 l 25.62184,-0.01 c 24.87756,-0.009 25.76361,-0.0764 30.5022,-2.31099 z"
       id="path1" />
  </g>
</svg>
