<?xml version="1.0" encoding="UTF-8" standalone="no"?>
<!-- Created with Inkscape (http://www.inkscape.org/) -->

<svg
   width="24"
   height="24"
   viewBox="0 0 6.3499997 6.3500002"
   version="1.1"
   id="svg1"
   xml:space="preserve"
   inkscape:version="1.3 (0e150ed6c4, 2023-07-21)"
   sodipodi:docname="replace.svg"
   inkscape:export-filename="replace-16.png"
   inkscape:export-xdpi="64"
   inkscape:export-ydpi="64"
   xmlns:inkscape="http://www.inkscape.org/namespaces/inkscape"
   xmlns:sodipodi="http://sodipodi.sourceforge.net/DTD/sodipodi-0.dtd"
   xmlns="http://www.w3.org/2000/svg"
   xmlns:svg="http://www.w3.org/2000/svg"><sodipodi:namedview
     id="namedview1"
     pagecolor="#ffffff"
     bordercolor="#000000"
     borderopacity="0.25"
     inkscape:showpageshadow="2"
     inkscape:pageopacity="0.0"
     inkscape:pagecheckerboard="0"
     inkscape:deskcolor="#d1d1d1"
     inkscape:document-units="mm"
     inkscape:zoom="11.545455"
     inkscape:cx="1.6023622"
     inkscape:cy="5.8031496"
     inkscape:window-width="1920"
     inkscape:window-height="1017"
     inkscape:window-x="1912"
     inkscape:window-y="-8"
     inkscape:window-maximized="1"
     inkscape:current-layer="layer1" /><defs
     id="defs1" /><g
     inkscape:label="Layer 1"
     inkscape:groupmode="layer"
     id="layer1"><g
       id="g1"
       transform="translate(0.52916815,0.72879945)"><path
         d="M 0.62480211,2.5161683 C 0.57499942,2.1704697 0.80286209,1.8445102 1.1609407,1.749216 1.2232397,1.732637 1.4304074,1.729401 2.4383292,1.729266 L 3.6413591,1.7291112 V 1.973377 c 0,0.1343462 0.00381,0.2541964 0.00847,0.2663333 0.01357,0.035364 0.080427,0.063798 0.1168622,0.049701 C 3.8106633,2.2723991 5.2298675,1.1905393 5.2278387,1.1755769 5.2263835,1.164766 4.8860869,0.90300813 4.0435038,0.26455074 3.9010485,0.15660677 3.775293,0.06704205 3.7640464,0.06551673 3.7203855,0.05959801 3.6948432,0.06702485 3.6686217,0.09323945 3.6433276,0.11853357 3.6413578,0.13868023 3.6413578,0.37212164 v 0.25161747 l -1.1485021,0.004715 C 1.2501358,0.63355513 1.3020279,0.6305971 1.0921606,0.70803202 0.79683621,0.81698167 0.52367379,1.0680909 0.40255732,1.3419598 0.33003493,1.505949 0.30888392,1.6131566 0.31003962,1.810904 c 0.001296,0.220937 0.0288144,0.3398709 0.12145645,0.5248423 0.0536346,0.1070891 0.19140951,0.3034027 0.20405524,0.2907565 0.002461,-0.00246 -0.002355,-0.05212 -0.01075,-0.1103276 z"
         style="fill:#00af00;fill-opacity:1;stroke:#006300;stroke-width:0.128808;stroke-dasharray:none;stroke-opacity:1"
         id="path1-0"
         sodipodi:nodetypes="ssccscscscsscscssssss" /><path
         d="M 4.6668649,2.3762317 C 4.7166676,2.7219307 4.4888049,3.0478901 4.1307262,3.1431844 4.0684275,3.1597632 3.86126,3.162999 2.8533383,3.163134 L 1.650308,3.1632887 V 2.919023 c 0,-0.1343465 -0.00381,-0.2541967 -0.00847,-0.2663336 -0.01357,-0.035364 -0.080427,-0.063797 -0.1168625,-0.049701 -0.043975,0.017013 -1.46317931,1.0988728 -1.46115049,1.1138355 0.0014552,0.010811 0.34175151,0.2725687 1.18433439,0.9110261 0.1424554,0.107944 0.2682113,0.197509 0.2794577,0.1990341 0.043661,0.00592 0.069203,-0.00151 0.095425,-0.027723 0.025294,-0.025294 0.027264,-0.04544 0.027264,-0.278882 V 4.268661 L 2.7988082,4.263951 C 4.0415311,4.258845 3.989639,4.261803 4.1995061,4.1843681 4.4948305,4.0754184 4.767993,3.8243092 4.8891097,3.5504401 4.9616322,3.3864508 4.9827832,3.2792432 4.9816269,3.0814959 4.9803305,2.8605589 4.9528128,2.7416252 4.8601707,2.5566537 4.8065361,2.4495646 4.6687612,2.2532505 4.6561155,2.265897 c -0.00246,0.00246 0.00235,0.05212 0.01075,0.1103279 z"
         style="fill:#eaa900;fill-opacity:1;stroke:#d68200;stroke-width:0.128808;stroke-dasharray:none;stroke-opacity:1"
         id="path1-0-8"
         sodipodi:nodetypes="ssccscscscsscscssssss" /></g></g></svg>
