<?xml version="1.0" encoding="UTF-8" standalone="no"?>
<!-- Generator: Adobe Illustrator 19.0.0, SVG Export Plug-In . SVG Version: 6.00 Build 0)  -->

<svg
   xmlns:dc="http://purl.org/dc/elements/1.1/"
   xmlns:cc="http://creativecommons.org/ns#"
   xmlns:rdf="http://www.w3.org/1999/02/22-rdf-syntax-ns#"
   xmlns:svg="http://www.w3.org/2000/svg"
   xmlns="http://www.w3.org/2000/svg"
   xmlns:sodipodi="http://sodipodi.sourceforge.net/DTD/sodipodi-0.dtd"
   xmlns:inkscape="http://www.inkscape.org/namespaces/inkscape"
   version="1.1"
   id="Capa_1"
   x="0px"
   y="0px"
   viewBox="0 0 49.951733 49.951729"
   xml:space="preserve"
   sodipodi:docname="semantic-net-icon.svg"
   width="49.951733"
   height="49.951729"
   inkscape:version="0.92.0 r"><metadata
     id="metadata45"><rdf:RDF><cc:Work
         rdf:about=""><dc:format>image/svg+xml</dc:format><dc:type
           rdf:resource="http://purl.org/dc/dcmitype/StillImage" /><dc:title></dc:title></cc:Work></rdf:RDF></metadata><defs
     id="defs43" /><sodipodi:namedview
     pagecolor="#ffffff"
     bordercolor="#666666"
     borderopacity="1"
     objecttolerance="10"
     gridtolerance="10"
     guidetolerance="10"
     inkscape:pageopacity="0"
     inkscape:pageshadow="2"
     inkscape:window-width="1920"
     inkscape:window-height="1028"
     id="namedview41"
     showgrid="false"
     fit-margin-top="0"
     fit-margin-left="0"
     fit-margin-right="0"
     fit-margin-bottom="0"
     inkscape:zoom="1"
     inkscape:cx="87.665208"
     inkscape:cy="-69.386939"
     inkscape:window-x="0"
     inkscape:window-y="0"
     inkscape:window-maximized="1"
     inkscape:current-layer="Capa_1" /><g
     id="g10"
     style="stroke-width:0.69999999;stroke-miterlimit:4;stroke-dasharray:none"
     transform="translate(30.951931,-407.93174)" /><g
     id="g12"
     style="stroke-width:0.69999999;stroke-miterlimit:4;stroke-dasharray:none"
     transform="translate(30.951931,-407.93174)" /><g
     id="g14"
     style="stroke-width:0.69999999;stroke-miterlimit:4;stroke-dasharray:none"
     transform="translate(30.951931,-407.93174)" /><g
     id="g16"
     style="stroke-width:0.69999999;stroke-miterlimit:4;stroke-dasharray:none"
     transform="translate(30.951931,-407.93174)" /><g
     id="g18"
     style="stroke-width:0.69999999;stroke-miterlimit:4;stroke-dasharray:none"
     transform="translate(30.951931,-407.93174)" /><g
     id="g20"
     style="stroke-width:0.69999999;stroke-miterlimit:4;stroke-dasharray:none"
     transform="translate(30.951931,-407.93174)" /><g
     id="g22"
     style="stroke-width:0.69999999;stroke-miterlimit:4;stroke-dasharray:none"
     transform="translate(30.951931,-407.93174)" /><g
     id="g24"
     style="stroke-width:0.69999999;stroke-miterlimit:4;stroke-dasharray:none"
     transform="translate(30.951931,-407.93174)" /><g
     id="g26"
     style="stroke-width:0.69999999;stroke-miterlimit:4;stroke-dasharray:none"
     transform="translate(30.951931,-407.93174)" /><g
     id="g28"
     style="stroke-width:0.69999999;stroke-miterlimit:4;stroke-dasharray:none"
     transform="translate(30.951931,-407.93174)" /><g
     id="g30"
     style="stroke-width:0.69999999;stroke-miterlimit:4;stroke-dasharray:none"
     transform="translate(30.951931,-407.93174)" /><g
     id="g32"
     style="stroke-width:0.69999999;stroke-miterlimit:4;stroke-dasharray:none"
     transform="translate(30.951931,-407.93174)" /><g
     id="g34"
     style="stroke-width:0.69999999;stroke-miterlimit:4;stroke-dasharray:none"
     transform="translate(30.951931,-407.93174)" /><g
     id="g36"
     style="stroke-width:0.69999999;stroke-miterlimit:4;stroke-dasharray:none"
     transform="translate(30.951931,-407.93174)" /><g
     id="g38"
     style="stroke-width:0.69999999;stroke-miterlimit:4;stroke-dasharray:none"
     transform="translate(30.951931,-407.93174)" /><path
     inkscape:connector-curvature="0"
     d="m 46.250908,42.90011 c -0.635273,0 -1.229803,0.17775 -1.736576,0.48602 L 30.955321,29.82701 c -0.02361,-0.0236 -0.04861,-0.0448 -0.07425,-0.0648 1.062369,-1.3081 1.700621,-2.97383 1.700621,-4.78636 0,-1.81018 -0.636657,-3.47378 -1.696472,-4.78114 l 9.24273,-9.24272 c 0.992267,0.75569 2.229305,1.20566 3.569952,1.20566 3.255401,0 5.903825,-2.64843 5.903825,-5.90383 0,-3.2554 -2.648424,-5.90382001 -5.903825,-5.90382001 -3.255401,0 -5.903824,2.64842001 -5.903824,5.90382001 0,1.34065 0.449967,2.57768 1.205656,3.56985 l -9.24273,9.24272 c -1.307352,-1.0597 -2.970954,-1.69636 -4.781141,-1.69636 -1.810187,0 -3.473789,0.63666 -4.78114,1.69647 l -4.268093,-4.26809 c 0.308275,-0.50677 0.486028,-1.1013 0.486028,-1.73657 0,-1.84764 -1.503189,-3.35082 -3.35082,-3.35082 -1.847631,0 -3.35082,1.50318 -3.35082,3.35082 0,1.84763 1.503189,3.35081 3.35082,3.35081 0.635273,0 1.229804,-0.17775 1.736576,-0.48603 l 4.268093,4.2681 c -1.059816,1.30735 -1.696472,2.97095 -1.696472,4.78114 0,1.02673 0.205623,2.00602 0.576022,2.90043 L 7.797436,33.37344 C 7.026215,32.43595 5.857683,31.83706 4.551821,31.83706 c -2.316852,0 -4.20182101,1.88497 -4.20182101,4.20182 0,2.31686 1.88496901,4.20182 4.20182101,4.20182 2.316853,0 4.201822,-1.88496 4.201822,-4.20182 0,-0.44007 -0.06829,-0.8644 -0.194348,-1.26331 l 10.149048,-5.49736 c 1.372665,1.99336 3.669519,3.30348 6.267521,3.30348 0.291468,0 0.578681,-0.0181 0.861746,-0.0502 l 1.057689,4.75955 c -1.104707,0.54837 -1.866247,1.68807 -1.866247,3.00287 0,1.84762 1.503188,3.35082 3.350819,3.35082 1.847631,0 3.35082,-1.5032 3.35082,-3.35082 0,-1.82318 -1.46383,-3.30988 -3.27774,-3.34902 l -1.057795,-4.75997 c 0.869511,-0.29253 1.669346,-0.73718 2.367168,-1.30384 0.02,0.0256 0.04116,0.0506 0.06479,0.0743 l 13.559011,13.55896 c -0.308276,0.50677 -0.486028,1.1013 -0.486028,1.73658 0,1.84763 1.503187,3.35081 3.350819,3.35081 1.847631,0 3.350819,-1.50318 3.350819,-3.35081 0,-1.84764 -1.503188,-3.35082 -3.350819,-3.35082 z"
     id="path2-6"
     style="fill:#5fbcd3;fill-opacity:1;stroke:#282828;stroke-width:0.69999999;stroke-miterlimit:4;stroke-dasharray:none;stroke-opacity:1"
     sodipodi:nodetypes="scccsccssssccsccssssccsccssssccsccssscccscssss" /></svg>