<?xml version="1.0" encoding="UTF-8" standalone="no"?>
<svg
   viewBox="0 0 24 24"
   version="1.1"
   id="svg1"
   sodipodi:docname="sort.svg"
   width="24"
   height="24"
   inkscape:version="1.4 (86a8ad7, 2024-10-11)"
   inkscape:export-filename="sort-16.png"
   inkscape:export-xdpi="64"
   inkscape:export-ydpi="64"
   xmlns:inkscape="http://www.inkscape.org/namespaces/inkscape"
   xmlns:sodipodi="http://sodipodi.sourceforge.net/DTD/sodipodi-0.dtd"
   xmlns="http://www.w3.org/2000/svg"
   xmlns:svg="http://www.w3.org/2000/svg">
  <defs
     id="defs1" />
  <sodipodi:namedview
     id="namedview1"
     pagecolor="#ffffff"
     bordercolor="#000000"
     borderopacity="0.25"
     inkscape:showpageshadow="2"
     inkscape:pageopacity="0.0"
     inkscape:pagecheckerboard="0"
     inkscape:deskcolor="#d1d1d1"
     inkscape:zoom="5.0270873"
     inkscape:cx="-44.856989"
     inkscape:cy="94.687037"
     inkscape:window-width="2560"
     inkscape:window-height="1377"
     inkscape:window-x="-8"
     inkscape:window-y="-8"
     inkscape:window-maximized="1"
     inkscape:current-layer="svg1" />
  <path
     d="m 6.0677442,21.025282 c -0.257744,0.278871 -0.616897,0.439433 -0.997175,0.439433 -0.380279,0 -0.739431,-0.160561 -0.997176,-0.439433 L 0.35511243,16.968975 c -0.5028131,-0.549291 -0.4690105,-1.407031 0.0845063,-1.909844 0.5535169,-0.502812 1.40703137,-0.469011 1.90984447,0.08451 l 1.369003,1.491538 V 3.8873865 c 0,-0.747881 0.604221,-1.352102 1.352103,-1.352102 0.747881,0 1.352102,0.604221 1.352102,1.352102 V 16.635175 l 1.369003,-1.495763 c 0.502813,-0.549292 1.360553,-0.587319 1.909845,-0.08451 0.5492908,0.502813 0.5873188,1.360552 0.08451,1.909844 l -3.718281,4.056307 z M 13.183182,2.5352845 h 1.352102 c 0.747882,0 1.352102,0.604221 1.352102,1.352102 0,0.747882 -0.60422,1.352102 -1.352102,1.352102 h -1.352102 c -0.747882,0 -1.352102,-0.60422 -1.352102,-1.352102 0,-0.747881 0.60422,-1.352102 1.352102,-1.352102 z m 0,5.408409 h 4.056307 c 0.747881,0 1.352102,0.604221 1.352102,1.352102 0,0.7478815 -0.604221,1.3521015 -1.352102,1.3521015 h -4.056307 c -0.747882,0 -1.352102,-0.60422 -1.352102,-1.3521015 0,-0.747881 0.60422,-1.352102 1.352102,-1.352102 z m 0,5.4084085 h 6.760511 c 0.747882,0 1.352102,0.60422 1.352102,1.352102 0,0.747883 -0.60422,1.352102 -1.352102,1.352102 h -6.760511 c -0.747882,0 -1.352102,-0.604219 -1.352102,-1.352102 0,-0.747882 0.60422,-1.352102 1.352102,-1.352102 z m 0,5.408409 h 9.464716 c 0.747881,0 1.352102,0.604221 1.352102,1.352102 0,0.747881 -0.604221,1.352102 -1.352102,1.352102 h -9.464716 c -0.747882,0 -1.352102,-0.604221 -1.352102,-1.352102 0,-0.747882 0.60422,-1.352102 1.352102,-1.352102 z"
     id="path1"
     style="stroke-width:0.0422532" />
</svg>
