<?xml version="1.0" encoding="UTF-8" standalone="no"?>
<!-- Created with Inkscape (http://www.inkscape.org/) -->

<svg
   xmlns:dc="http://purl.org/dc/elements/1.1/"
   xmlns:cc="http://creativecommons.org/ns#"
   xmlns:rdf="http://www.w3.org/1999/02/22-rdf-syntax-ns#"
   xmlns:svg="http://www.w3.org/2000/svg"
   xmlns="http://www.w3.org/2000/svg"
   xmlns:sodipodi="http://sodipodi.sourceforge.net/DTD/sodipodi-0.dtd"
   xmlns:inkscape="http://www.inkscape.org/namespaces/inkscape"
   width="79.375mm"
   height="14.182345mm"
   viewBox="0 0 79.374999 14.182345"
   version="1.1"
   id="svg8"
   inkscape:version="0.92.4 (5da689c313, 2019-01-14)"
   sodipodi:docname="stefan-jung-logo.svg">
  <defs
     id="defs2" />
  <sodipodi:namedview
     id="base"
     pagecolor="#ffffff"
     bordercolor="#666666"
     borderopacity="1.0"
     inkscape:pageopacity="0.0"
     inkscape:pageshadow="2"
     inkscape:zoom="0.7"
     inkscape:cx="11.065901"
     inkscape:cy="277.82953"
     inkscape:document-units="mm"
     inkscape:current-layer="layer1"
     showgrid="false"
     inkscape:window-width="1920"
     inkscape:window-height="1009"
     inkscape:window-x="-8"
     inkscape:window-y="-8"
     inkscape:window-maximized="1" />
  <metadata
     id="metadata5">
    <rdf:RDF>
      <cc:Work
         rdf:about="">
        <dc:format>image/svg+xml</dc:format>
        <dc:type
           rdf:resource="http://purl.org/dc/dcmitype/StillImage" />
        <dc:title></dc:title>
      </cc:Work>
    </rdf:RDF>
  </metadata>
  <g
     inkscape:label="Ebene 1"
     inkscape:groupmode="layer"
     id="layer1"
     transform="translate(-3.4312801,-148.73903)">
    <g
       id="g3742"
       transform="matrix(0.33648592,0,0,0.33648592,8.254335,130.35777)">
      <path
         style="fill:#efa59e;stroke-width:0.26458332"
         d="m 204.3638,96.409868 c -2.27088,-0.510987 -4.22004,-1.173107 -4.42376,-1.502727 -0.0917,-0.1484 0.33957,-1.455595 0.95841,-2.904879 0.9054,-2.120384 1.20867,-2.598822 1.5527,-2.449515 3.26992,1.419101 7.93731,1.854324 9.97262,0.929923 1.2608,-0.572635 1.9643,-1.799817 1.9643,-3.426539 v -1.069853 l -1.52135,0.712964 c -1.37627,0.644975 -1.81213,0.712968 -4.57034,0.712968 -2.93905,0 -3.11555,-0.03277 -4.89479,-0.908942 -7.27032,-3.580167 -8.96209,-13.174481 -3.31876,-18.821114 3.40047,-3.402457 8.89423,-4.52137 13.08899,-2.665832 1.19639,0.529222 1.21625,0.529609 1.21625,0.02372 0,-0.483933 0.21083,-0.514289 3.57188,-0.514289 h 3.57187 V 76.55127 c 0,7.655423 -0.10445,12.512567 -0.28743,13.365763 -0.56622,2.640211 -2.7244,4.947129 -5.72329,6.117751 -1.299,0.507064 -2.1289,0.609132 -5.49865,0.676267 -2.75195,0.05483 -4.48687,-0.03751 -5.65865,-0.301183 z m 8.70136,-15.566326 1.19062,-0.605856 0.0727,-4.276333 0.0727,-4.276332 -1.39558,-0.715044 c -2.91747,-1.494802 -6.53499,-0.742974 -8.26433,1.717572 -0.6445,0.917018 -0.80538,1.444876 -0.88265,2.895959 -0.0789,1.481631 0.0105,1.971059 0.54147,2.96516 0.70038,1.311206 2.28728,2.575412 3.67066,2.924225 1.35047,0.340514 3.66056,0.04942 4.99448,-0.629351 z M -4.1418278,87.687823 c -1.0826461,-0.205904 -2.5113961,-0.576151 -3.1749999,-0.822769 -1.8758039,-0.697116 -5.1015483,-2.417291 -6.1068913,-3.256589 l -0.909882,-0.759603 1.95716,-2.558698 c 1.076438,-1.407282 2.035309,-2.606995 2.130824,-2.666026 0.09551,-0.05903 0.7602173,0.31727 1.4771164,0.836225 4.0137193,2.905488 8.91078701,3.925922 12.2739782,2.557611 1.4573469,-0.59292 1.8617665,-1.099465 1.8617665,-2.331901 0,-1.234576 -0.646044,-2.048016 -1.9957571,-2.512875 -0.4303024,-0.148201 -2.98502405,-0.670425 -5.6771594,-1.160497 -6.5563679,-1.193511 -8.3316096,-2.081762 -9.9307706,-4.968917 -0.715629,-1.29201 -0.784837,-1.638688 -0.784656,-3.930532 1.58e-4,-2.008811 0.113714,-2.759128 0.565501,-3.736553 1.301166,-2.815019 4.3489947,-4.902432 8.0758865,-5.531054 3.1757485,-0.535659 7.2787053,-0.22433 10.2761222,0.779744 2.2110752,0.740666 5.8377953,2.581483 6.1814473,3.137523 0.06726,0.108837 -0.647216,1.267891 -1.587733,2.575675 C 9.5496093,64.646372 8.6841175,65.879434 8.5668111,66.078725 8.3989409,66.36392 7.9692076,66.20928 6.5485959,65.352469 3.8376122,63.717398 2.119834,63.143417 -0.48838658,63.001119 -3.9467656,62.812438 -6.009839,63.702426 -6.009839,65.383017 c 0,1.912951 0.7649462,2.301502 6.38133262,3.241367 6.29742998,1.053834 8.19888718,1.718818 10.11139738,3.536191 1.797198,1.707794 2.160395,2.692775 2.160395,5.858927 0,2.497481 -0.07111,2.912837 -0.703924,4.111664 -1.317078,2.495111 -3.9684862,4.400693 -7.3379105,5.273799 -2.3400799,0.606375 -6.3586506,0.736383 -8.7432793,0.282858 z m 42.6882968,-0.0072 c -5.563941,-1.210498 -9.617286,-6.117532 -9.628168,-11.655999 -0.01127,-5.735453 3.992194,-10.587509 9.716968,-11.776614 7.318843,-1.520214 13.840105,4.111904 13.934641,12.034715 l 0.02546,2.133701 -8.135938,0.06997 c -5.265065,0.04528 -8.135937,0.164439 -8.135937,0.337693 0,0.573135 2.362531,2.605058 3.346638,2.878317 1.911265,0.530704 3.868102,0.359466 5.459706,-0.477766 l 1.451748,-0.763664 2.301239,2.014606 2.301243,2.014606 -0.749559,0.60873 c -1.25348,1.017973 -3.821557,2.162738 -5.77664,2.575036 -2.238449,0.472053 -3.963625,0.473937 -6.111399,0.0067 z M 45.58391,73.296129 c 0,-0.482864 -1.246894,-2.040344 -2.086385,-2.606076 -2.273343,-1.532006 -5.236456,-0.887162 -6.837006,1.487893 -0.330885,0.491 -0.601609,0.994182 -0.601609,1.118183 0,0.124001 2.143125,0.225456 4.7625,0.225456 2.619375,0 4.7625,-0.101455 4.7625,-0.225456 z m 29.104165,14.409636 c -3.953335,-0.878994 -6.067181,-3.335443 -6.079606,-7.064962 -0.01021,-3.068153 1.638446,-5.149277 4.90932,-6.197074 1.696815,-0.543561 5.703461,-0.697901 8.24789,-0.317718 l 1.389063,0.20755 v -1.140867 c 0,-3.557927 -4.286258,-4.187583 -10.991268,-1.614629 -0.182287,0.06995 -0.741913,-0.743535 -1.337804,-1.944675 l -1.024427,-2.06493 -0.08395,1.389063 -0.08395,1.389062 h -3.028881 -3.028881 v 8.598958 8.598958 h -3.571875 -3.571875 v -8.598958 -8.598958 h -2.513542 -2.513541 v -2.910416 -2.910417 h 2.482717 2.482721 l 0.178178,-1.785937 c 0.368456,-3.693157 1.620856,-5.803318 4.190481,-7.060518 2.041935,-0.999026 5.638059,-1.340312 8.32684,-0.79025 0.573331,0.11729 0.595312,0.227861 0.595312,2.994582 v 2.872795 l -2.242039,-0.03357 c -2.076072,-0.03108 -2.292345,0.01667 -2.921611,0.645102 -0.4982,0.497536 -0.69424,0.991842 -0.734523,1.852083 l -0.05495,1.173416 2.976563,0.07481 2.976562,0.07481 v 0.881928 0.881928 L 72.24068,65.42647 c 3.277833,-1.118752 5.951923,-1.5304 8.797395,-1.354269 4.212016,0.260719 6.884361,1.718069 8.329676,4.542545 l 0.798449,1.560353 0.08254,8.684701 0.08253,8.684701 H 86.743008 83.154742 V 86.9235 86.3025 l -1.256771,0.612431 c -1.164831,0.567629 -3.992517,1.181576 -5.225521,1.134565 -0.291041,-0.01109 -1.18401,-0.165775 -1.984375,-0.343731 z m 7.408334,-5.320009 c 0.909828,-0.310803 0.92742,-0.344847 1.004813,-1.944423 0.04332,-0.895445 -0.01622,-1.631977 -0.132292,-1.636738 -0.116086,-0.0048 -1.041709,-0.115627 -2.056942,-0.246367 -2.424726,-0.312254 -4.309234,0.03155 -5.099433,0.930333 -0.756574,0.860536 -0.752589,1.493586 0.01503,2.385983 0.978781,1.137899 3.768376,1.365385 6.268836,0.511212 z m 48.698891,5.2763 c -3.9016,-0.846013 -6.94483,-3.259222 -8.65717,-6.864916 -0.54597,-1.14967 -0.85616,-2.109535 -0.72191,-2.233939 0.12947,-0.11997 1.69582,-0.756217 3.48079,-1.413881 l 3.2454,-1.195754 0.66532,1.406391 c 1.3354,2.822802 3.72175,4.168859 6.41184,3.616702 1.67835,-0.34449 2.72042,-1.040127 3.54516,-2.366579 0.60826,-0.978274 0.6152,-1.083374 0.74626,-11.306203 l 0.13229,-10.31875 3.77031,-0.07341 3.77032,-0.07341 v 10.270426 c 0,11.184944 -0.0904,12.054002 -1.53006,14.711911 -2.5675,4.740063 -8.74239,7.167629 -14.85855,5.841412 z m 24.66244,0.0042 c -2.71633,-0.731586 -4.87782,-2.693678 -5.94043,-5.392407 -0.54386,-1.381289 -0.58817,-1.999305 -0.68913,-9.61214 l -0.1079,-8.135937 h 3.57851 3.5785 l 0.0851,7.209896 c 0.0921,7.808208 0.19324,8.381589 1.64562,9.333229 1.70829,1.119312 4.45032,0.975363 5.98273,-0.314079 l 0.7911,-0.66567 V 72.30744 64.525752 h 3.57188 3.57187 v 11.509375 11.509374 h -3.57187 -3.57188 v -0.661458 c 0,-0.797004 -0.0962,-0.808654 -1.17459,-0.1422 -1.10998,0.686006 -3.66657,1.337132 -5.16485,1.315413 -0.66065,-0.0096 -1.82374,-0.185087 -2.58464,-0.39002 z M 21.063433,87.445687 c -2.42852,-0.79775 -3.966258,-2.325743 -4.560289,-4.531394 -0.162227,-0.60235 -0.285668,-3.537744 -0.286507,-6.813021 l -0.0015,-5.754687 h -2.38125 -2.381249 v -2.910416 -2.910417 h 2.381249 2.38125 v -3.042708 c 0,-1.67349 0.06155,-3.042709 0.136785,-3.042709 0.07523,0 1.513509,-0.297656 3.196169,-0.661458 1.68266,-0.363802 3.228448,-0.661458 3.435088,-0.661458 0.306665,0 0.375708,0.680715 0.375708,3.704166 v 3.704167 h 3.175 3.175 v 2.910417 2.910416 h -3.175 -3.175 v 5.012329 c 0,4.82671 0.0222,5.038136 0.599427,5.709204 0.499126,0.580268 0.842232,0.704485 2.050521,0.742357 0.798102,0.025 1.957109,-0.04522 2.575573,-0.15608 L 29.70891,81.45283 v 2.787801 2.787801 l -0.727604,0.288353 c -1.170382,0.463828 -6.627826,0.552675 -7.917873,0.128902 z M 92.150575,76.035127 V 64.525752 h 3.571875 3.571875 v 0.683507 c 0,0.375929 0.0893,0.63811 0.198437,0.582626 3.234098,-1.644146 3.302988,-1.663126 6.019268,-1.658576 2.37292,0.004 2.79594,0.08107 4.10104,0.747398 1.69569,0.865742 2.4239,1.492297 3.44001,2.959767 1.44251,2.083293 1.58708,3.159471 1.58708,11.814549 v 7.889478 h -3.57188 -3.57187 l -5.3e-4,-7.209895 c -2.7e-4,-6.341295 -0.0562,-7.319193 -0.46302,-8.11713 -0.76962,-1.509546 -1.69186,-2.003183 -3.74236,-2.003183 -1.5075,0 -1.95812,0.113996 -2.89102,0.731359 l -1.105155,0.731358 v 7.933746 7.933745 H 95.72245 92.150575 Z m 81.227085,0 V 64.525752 h 3.57187 3.57188 v 0.687593 0.687593 l 0.93116,-0.549398 c 2.67164,-1.576307 6.801,-1.770724 9.50551,-0.447534 1.66694,0.81556 3.40674,2.610237 4.20513,4.337766 0.54244,1.173716 0.57582,1.674321 0.65146,9.769917 l 0.0797,8.532812 h -3.58545 -3.58545 v -7.369206 c 0,-7.220886 -0.0121,-7.387299 -0.60059,-8.268228 -1.46732,-2.19645 -4.90484,-2.414112 -7.00257,-0.4434 -0.59577,0.559696 -0.59892,0.603523 -0.59892,8.321746 v 7.759088 h -3.57188 -3.57187 z"
         id="path3754"
         inkscape:connector-curvature="0" />
      <path
         style="fill:#fd8a58;stroke-width:0.26458332"
         d="m 205.32965,96.547695 c -1.72494,-0.312528 -5.2208,-1.367414 -5.3788,-1.623068 -0.0713,-0.115355 0.37534,-1.409348 0.99252,-2.875542 0.87791,-2.085578 1.21065,-2.62673 1.52874,-2.486284 4.93327,2.178201 9.97854,2.082242 11.38001,-0.21644 0.51523,-0.845079 0.79021,-3.561167 0.33751,-3.333784 -4.07133,2.044962 -8.18817,2.047846 -11.6686,0.0082 -4.0291,-2.361208 -6.32722,-7.257089 -5.58559,-11.899485 0.72242,-4.522192 3.55411,-7.852097 7.94191,-9.339238 2.26012,-0.766016 6.29984,-0.654546 8.28758,0.228684 1.56431,0.695075 1.48772,0.692799 1.48772,0.04421 0,-0.502142 0.17639,-0.529167 3.45386,-0.529167 h 3.45386 l -0.0824,12.501562 c -0.0714,10.827829 -0.14066,12.654044 -0.51747,13.640493 -0.98939,2.590083 -2.87733,4.371956 -5.70667,5.386054 -1.18895,0.426146 -2.31834,0.566602 -5.09908,0.63414 -1.96453,0.04771 -4.13582,-0.01542 -4.82509,-0.140306 z m 7.76936,-15.651448 1.15677,-0.638111 V 75.897673 71.53721 l -1.32292,-0.661458 c -1.67506,-0.837531 -4.51046,-0.912789 -5.95312,-0.158009 -2.14953,1.124598 -3.25879,2.889564 -3.25879,5.185092 0,2.439387 1.51134,4.591434 3.85116,5.483791 1.34752,0.513919 4.15842,0.26452 5.5269,-0.490379 z M 74.688075,87.705765 c -4.633817,-1.030293 -6.993246,-4.686387 -5.799272,-8.986361 0.385966,-1.390019 2.083615,-3.156378 3.754824,-3.906799 1.244042,-0.55861 1.768438,-0.621432 5.219448,-0.625282 2.110052,-0.0024 4.223412,0.08204 4.696354,0.187543 0.845519,0.188616 0.859896,0.176012 0.859896,-0.753763 0,-1.32202 -0.716333,-2.687259 -1.689322,-3.21964 -0.608896,-0.333162 -1.411745,-0.443693 -3.073178,-0.423094 -2.092163,0.02594 -3.502017,0.367128 -6.369531,1.541444 -0.320942,0.131434 -0.654563,-0.33229 -1.455208,-2.022703 l -1.038802,-2.193233 -0.07935,1.521354 -0.07935,1.521354 h -3.029503 -3.029505 v 8.598958 8.598958 l -3.505729,1.72e-4 -3.505729,1.7e-4 0.0856,-8.599128 0.0856,-8.59913 h -2.532996 -2.532997 v -2.910416 -2.910417 h 2.513542 2.513541 v -1.539478 c 0,-4.854418 2.797834,-7.769833 7.82815,-8.157137 1.176785,-0.09061 2.813894,-0.08049 3.638021,0.02248 l 1.498412,0.187214 v 2.851641 2.851642 l -1.936207,-0.124258 c -2.99389,-0.192137 -4.149209,0.642937 -4.149209,2.999081 v 0.908817 h 3.042708 3.042708 v 0.926042 c 0,0.509323 0.05512,0.926041 0.122497,0.926041 0.06737,0 0.710943,-0.231944 1.430155,-0.515431 4.827365,-1.90277 10.95961,-2.263724 14.189043,-0.835192 1.660038,0.734314 3.416435,2.467198 4.123878,4.068675 0.588092,1.331302 0.615029,1.701895 0.720743,9.915802 l 0.109818,8.532812 h -3.60119 -3.601193 V 86.9235 86.3025 l -1.256771,0.612431 c -1.164831,0.567629 -3.992517,1.181576 -5.225521,1.134565 -0.291041,-0.01109 -1.18401,-0.165775 -1.984375,-0.343731 z m 7.408334,-5.320009 c 0.906637,-0.309713 0.927674,-0.349713 1.003892,-1.909008 0.089,-1.820799 0.225023,-1.733222 -3.2439,-2.088623 -3.607019,-0.369551 -5.750258,1.48514 -4.028829,3.486419 0.978781,1.137899 3.768376,1.365385 6.268837,0.511212 z m 49.741661,5.416026 c -3.44709,-0.415991 -6.22619,-1.975109 -8.21432,-4.608372 -1.40513,-1.861084 -2.49073,-4.423296 -1.99231,-4.702226 0.58954,-0.329926 6.0895,-2.318753 6.37018,-2.303505 0.14552,0.0079 0.62201,0.745228 1.05886,1.638495 1.01697,2.079452 2.3472,3.070251 4.40759,3.282901 2.50895,0.258946 4.42458,-0.742949 5.5915,-2.924418 0.5677,-1.061275 0.58593,-1.36508 0.66446,-11.079218 l 0.0807,-9.98802 h 3.70588 3.70587 l -0.093,10.649479 c -0.0884,10.127604 -0.12087,10.723813 -0.66197,12.166356 -2.13986,5.704803 -7.71133,8.702672 -14.62348,7.868528 z m 24.66655,0.0016 c -2.95504,-0.429207 -5.33795,-2.19546 -6.72605,-4.985465 -0.59357,-1.193045 -0.61247,-1.460333 -0.69001,-9.759452 l -0.0797,-8.532701 h 3.45316 3.45316 l 0.002,6.813021 c 8e-4,3.808912 0.12033,7.240914 0.27101,7.78344 0.78156,2.813905 4.90749,3.732488 7.3884,1.644936 l 0.80567,-0.678021 v -7.7817 -7.781688 h 3.43959 3.43958 v 11.509375 11.509374 h -3.43958 -3.43959 v -0.768302 -0.768302 l -1.38906,0.747659 c -1.88163,1.012783 -4.1773,1.383565 -6.48814,1.047925 z M -5.3483806,87.302524 c -2.6242631,-0.662564 -4.8840544,-1.651018 -7.0183574,-3.069902 -1.014851,-0.674672 -1.845184,-1.279689 -1.845184,-1.344483 0,-0.06479 0.904232,-1.295006 2.009404,-2.733802 l 2.009404,-2.615995 2.0523593,1.397499 c 3.1717471,2.159717 4.6044759,2.627606 8.08404058,2.640028 3.19826362,0.01143 4.08807172,-0.270145 5.15991142,-1.63277 0.4316468,-0.548748 0.5400371,-0.957048 0.4315457,-1.625601 -0.303944,-1.872988 -1.1721443,-2.244231 -8.1049987,-3.4657 -4.5387172,-0.799657 -6.476059,-1.441879 -7.8118823,-2.589612 -1.867409,-1.604469 -2.955172,-4.550608 -2.651334,-7.180971 0.229509,-1.986892 1.502468,-4.563677 2.733389,-5.53306 2.648799,-2.085997 5.2779283,-2.831372 9.84649389,-2.791542 3.81883011,0.03329 6.79198781,0.756838 9.78958311,2.382383 3.041126,1.649151 3.009458,1.471447 0.810988,4.550716 L 8.2491616,66.347875 6.6483473,65.313219 C 2.7130939,62.769742 -1.622078,62.067047 -4.5928548,63.491113 c -2.3768689,1.139372 -1.9895523,3.592578 0.6996824,4.431686 0.509323,0.158921 2.7715104,0.594596 5.0270832,0.968165 2.2555729,0.37357 4.8154166,0.913962 5.6885416,1.200873 2.1384005,0.702681 3.9939386,2.171586 5.0009476,3.958915 0.76032,1.349485 0.819129,1.63782 0.809456,3.96875 -0.01169,2.815997 -0.457005,4.086949 -2.107698,6.015413 -1.1400251,1.331862 -4.1038264,2.896833 -6.4127612,3.386116 -2.4722097,0.523885 -7.1484078,0.465309 -9.4607774,-0.118507 z m 27.2107416,0.231018 c -2.337504,-0.462457 -4.172752,-1.862476 -5.014743,-3.825499 -0.371121,-0.865232 -0.476311,-2.180735 -0.576509,-7.209896 l -0.122563,-6.151562 h -2.215652 -2.21565 v -2.910416 -2.910417 h 2.248958 2.248958 v -2.983873 -2.983874 l 3.108855,-0.630041 c 1.709869,-0.346522 3.254247,-0.682075 3.431952,-0.745672 0.242224,-0.08669 0.341564,0.801328 0.396875,3.547769 l 0.07378,3.663399 3.241145,0.07429 3.241146,0.07429 v 2.902273 2.902273 H 26.376835 23.04476 l 0.107931,4.960938 c 0.05936,2.728515 0.204005,5.173699 0.321429,5.433745 0.495689,1.097735 3.038446,1.595572 5.112057,1.000871 l 0.85815,-0.246116 v 2.859784 2.859785 l -1.995183,0.296747 c -2.248136,0.334367 -3.970843,0.340907 -5.586783,0.02119 z m 16.214674,-0.0028 c -1.759339,-0.439619 -4.591246,-2.102588 -5.822963,-3.419396 -5.951709,-6.362859 -3.282751,-16.775391 4.967899,-19.381498 1.265891,-0.399852 2.187088,-0.48986 4.260897,-0.416319 2.31022,0.08192 2.873219,0.200653 4.438454,0.936 4.070747,1.912443 6.541754,6.107408 6.541754,11.105774 v 1.928786 h -8.208878 -8.208877 l 0.380047,0.727604 c 1.60832,3.079131 6.095794,4.090665 9.173464,2.067814 l 0.940964,-0.618464 2.101744,1.871782 c 1.15596,1.029478 2.101744,1.998181 2.101744,2.152668 0,0.422627 -2.319557,1.887757 -4.038171,2.550679 -1.178835,0.45471 -2.198028,0.604007 -4.560787,0.668083 -1.673489,0.04538 -3.503771,-0.03269 -4.067291,-0.173505 z M 45.58391,73.186129 c 0,-0.722885 -1.361435,-2.281819 -2.455101,-2.811252 -2.309736,-1.118124 -5.063138,-0.477421 -6.399434,1.489118 -1.138852,1.67597 -1.184222,1.65759 4.092035,1.65759 3.669403,0 4.7625,-0.07699 4.7625,-0.335456 z m 46.566665,2.848998 V 64.525752 h 3.571875 3.571875 v 0.683507 c 0,0.375929 0.0893,0.63811 0.198437,0.582626 3.079818,-1.565714 3.351768,-1.641985 5.892158,-1.652542 2.32551,-0.0097 2.6548,0.05651 4.29256,0.862603 1.96175,0.965558 3.25272,2.32051 4.23001,4.439674 0.57742,1.252072 0.60366,1.622984 0.68621,9.702361 l 0.0858,8.40052 h -3.59156 -3.59157 v -7.369206 c 0,-7.220886 -0.0121,-7.387299 -0.60059,-8.268228 -1.16909,-1.750029 -3.70184,-2.323615 -5.8817,-1.332018 -1.814087,0.825208 -1.75241,0.49879 -1.727682,9.143448 l 0.02239,7.826004 H 95.72966 92.150536 Z m 81.227085,0 V 64.525752 h 3.57187 3.57188 v 0.661458 c 0,0.363802 0.0445,0.661459 0.099,0.661459 0.0544,0 0.61998,-0.286651 1.25677,-0.637002 4.16263,-2.290199 9.83443,-1.111326 12.36766,2.570594 1.48212,2.154195 1.62244,3.180995 1.62244,11.872762 v 7.889478 h -3.42092 -3.42091 l -0.0848,-7.389505 c -0.0946,-8.243747 -0.065,-8.109516 -2.09352,-9.50086 -1.26773,-0.869541 -3.67598,-0.73061 -5.2365,0.302091 l -1.08917,0.720783 v 7.933746 7.933745 h -3.57188 -3.57187 z"
         id="path3752"
         inkscape:connector-curvature="0" />
      <path
         style="fill:#d26ba0;stroke-width:0.26458332"
         d="m 205.32965,96.547695 c -1.72494,-0.312528 -5.2208,-1.367414 -5.3788,-1.623068 -0.0713,-0.115355 0.37534,-1.409348 0.99252,-2.875542 0.87791,-2.085578 1.21065,-2.62673 1.52874,-2.486284 4.93327,2.178201 9.97854,2.082242 11.38001,-0.21644 0.51523,-0.845079 0.79021,-3.561167 0.33751,-3.333784 -4.07133,2.044962 -8.18817,2.047846 -11.6686,0.0082 -4.0291,-2.361208 -6.32722,-7.257089 -5.58559,-11.899485 0.72242,-4.522192 3.55411,-7.852097 7.94191,-9.339238 2.26012,-0.766016 6.29984,-0.654546 8.28758,0.228684 1.56431,0.695075 1.48772,0.692799 1.48772,0.04421 0,-0.458725 0.17639,-0.529167 1.32505,-0.529167 h 1.32505 l -0.0683,15.409976 -0.0683,15.409973 -1.7198,0.631208 c -1.43008,0.524881 -2.32148,0.645245 -5.29166,0.714529 -1.96453,0.04583 -4.13582,-0.01887 -4.82509,-0.143743 z m 7.76936,-15.651448 1.15677,-0.638111 V 75.897673 71.53721 l -1.32292,-0.661458 c -1.67506,-0.837531 -4.51046,-0.912789 -5.95312,-0.158009 -2.14953,1.124598 -3.25879,2.889564 -3.25879,5.185092 0,2.439387 1.51134,4.591434 3.85116,5.483791 1.34752,0.513919 4.15842,0.26452 5.5269,-0.490379 z M 74.688075,87.705765 c -1.784312,-0.396727 -3.340483,-1.191382 -4.283881,-2.187554 -0.815719,-0.861348 -1.866662,-3.04691 -1.590175,-3.306953 0.202168,-0.190143 6.205939,-2.117135 6.259404,-2.009042 0.01802,0.03644 0.147047,0.411268 0.286729,0.832967 0.44569,1.345543 1.425694,1.836216 3.616028,1.81049 1.061281,-0.01246 2.405854,-0.192222 2.987937,-0.399462 l 1.058333,-0.376796 0.0783,-1.610048 0.0783,-1.610045 -1.268928,-0.171138 c -0.69791,-0.09413 -1.358141,-0.191538 -1.467178,-0.216472 -0.109038,-0.02493 2.063853,-0.773014 4.828645,-1.662399 l 5.026896,-1.617064 v 6.181125 6.181127 H 86.72661 c -3.571558,0 -3.571875,-5.5e-5 -3.571875,-0.621001 v -0.621 l -1.256771,0.612431 c -1.164831,0.567629 -3.992517,1.181576 -5.225521,1.134565 -0.291041,-0.01109 -1.18401,-0.165775 -1.984375,-0.343731 z m 57.149995,0.09602 c -3.44709,-0.415991 -6.22619,-1.975109 -8.21432,-4.608372 -1.40513,-1.861084 -2.49073,-4.423296 -1.99231,-4.702226 0.58954,-0.329926 6.0895,-2.318753 6.37018,-2.303505 0.14552,0.0079 0.62201,0.745228 1.05886,1.638495 1.01697,2.079452 2.3472,3.070251 4.40759,3.282901 2.50895,0.258946 4.42458,-0.742949 5.5915,-2.924418 0.5677,-1.061275 0.58593,-1.36508 0.66446,-11.079218 l 0.0807,-9.98802 h 3.70588 3.70587 l -0.093,10.649479 c -0.0884,10.127604 -0.12087,10.723813 -0.66197,12.166356 -2.13986,5.704803 -7.71133,8.702672 -14.62348,7.868528 z m 24.66655,0.0016 c -2.95504,-0.429207 -5.33795,-2.19546 -6.72605,-4.985465 -0.59357,-1.193045 -0.61247,-1.460333 -0.69001,-9.759452 l -0.0797,-8.532701 h 3.45316 3.45316 l 0.002,6.813021 c 8e-4,3.808912 0.12033,7.240914 0.27101,7.78344 0.78156,2.813905 4.90749,3.732488 7.3884,1.644936 l 0.80567,-0.678021 V 72.30744 64.525752 h 3.43959 3.43958 v 11.509375 11.509374 h -3.43958 -3.43959 v -0.768302 -0.768302 l -1.38906,0.747659 c -1.88163,1.012783 -4.1773,1.383565 -6.48814,1.047925 z M 56.480398,86.839178 c 0.07482,-0.63028 0.322675,-0.785617 2.332678,-1.461945 1.236927,-0.416203 2.814505,-0.925877 3.505729,-1.13261 l 1.256771,-0.375877 v 1.837822 1.837822 h -3.589449 -3.589448 z m 35.731701,-5.806877 0.07077,-6.512198 3.505729,-1.129074 3.505729,-1.129074 v 7.641274 7.641272 H 95.717828 92.14133 Z m 15.284311,-0.857006 c 0,-7.220886 -0.0121,-7.387299 -0.60059,-8.268228 -1.05847,-1.584441 -3.45538,-2.28178 -5.35738,-1.558639 -0.84161,0.319979 -0.8605,0.306719 -4.638578,-3.257328 l -2.719409,-2.565348 h 2.556936 2.556936 v 0.683507 c 0,0.375929 0.0893,0.63811 0.198437,0.582626 3.079818,-1.565714 3.351768,-1.641985 5.892158,-1.652542 2.32551,-0.0097 2.6548,0.05651 4.29256,0.862603 1.96175,0.965558 3.25272,2.32051 4.23001,4.439674 0.57742,1.252072 0.60366,1.622984 0.68621,9.702361 l 0.0858,8.40052 h -3.59156 -3.59157 z m 65.88125,-4.140168 V 64.525752 h 3.57187 3.57188 v 0.661458 c 0,0.363802 0.0445,0.661459 0.099,0.661459 0.0544,0 0.61998,-0.286651 1.25677,-0.637002 4.16263,-2.290199 9.83443,-1.111326 12.36766,2.570594 1.48212,2.154195 1.62244,3.180995 1.62244,11.872762 v 7.889478 h -3.42092 -3.42091 l -0.0848,-7.389505 c -0.0946,-8.243747 -0.065,-8.109516 -2.09352,-9.50086 -1.26773,-0.869541 -3.67598,-0.73061 -5.2365,0.302091 l -1.08917,0.720783 v 7.933746 7.933745 h -3.57188 -3.57187 z"
         id="path3750"
         inkscape:connector-curvature="0" />
      <path
         style="fill:#4b91bf;stroke-width:0.26458332"
         d="m 205.52453,96.511455 c -1.63837,-0.23627 -4.76512,-1.117293 -5.37057,-1.513266 -0.26759,-0.175008 -0.10709,-0.769691 0.72643,-2.691468 0.58846,-1.356752 1.11884,-2.515738 1.17862,-2.575521 0.0598,-0.05979 1.10211,0.214601 2.31628,0.609746 1.72181,0.560356 2.76066,0.724715 4.72112,0.746937 2.74136,0.03108 3.79716,-0.341294 4.80606,-1.69505 0.55527,-0.745067 0.98947,-3.435832 0.55443,-3.435832 -0.14821,0 -0.92704,0.301049 -1.73074,0.668994 -2.86392,1.311145 -6.78276,1.126363 -9.77423,-0.460875 -1.9915,-1.056674 -3.99718,-3.215095 -5.04702,-5.431382 -0.8066,-1.702819 -0.84705,-1.93978 -0.84705,-4.963195 0,-3.068571 0.0295,-3.233705 0.87917,-4.926304 1.62112,-3.229276 4.69715,-5.608076 8.19089,-6.334294 1.9886,-0.413356 5.12915,-0.17655 6.88088,0.518835 1.70326,0.676143 1.64385,0.675199 1.64385,0.02614 0,-0.458611 0.17639,-0.529167 1.32292,-0.529167 h 1.32292 v 15.313252 15.31325 l -1.27412,0.548113 c -2.39766,1.031444 -6.67867,1.362141 -10.49984,0.811087 z m 6.77222,-15.193605 c 2.26714,-0.799891 2.3559,-1.004115 2.3559,-5.420128 0,-4.365096 0.0302,-4.290249 -2.12142,-5.266195 -1.33912,-0.60742 -3.25937,-0.702605 -4.80885,-0.238371 -2.22717,0.667278 -4.18222,3.249353 -4.18222,5.523546 0,2.033926 1.57985,4.380037 3.57187,5.304298 1.30528,0.605623 3.62014,0.648866 5.18472,0.09685 z M 74.688075,87.705765 c -1.784312,-0.396727 -3.340483,-1.191382 -4.283881,-2.187554 -0.815719,-0.861348 -1.866662,-3.04691 -1.590175,-3.306953 0.202168,-0.190143 6.205939,-2.117135 6.259404,-2.009042 0.01802,0.03644 0.147047,0.411268 0.286729,0.832967 0.44569,1.345543 1.425694,1.836216 3.616028,1.81049 1.061281,-0.01246 2.405854,-0.192222 2.987937,-0.399462 l 1.058333,-0.376796 0.0783,-1.610048 0.0783,-1.610045 -1.268928,-0.171138 c -0.69791,-0.09413 -1.358141,-0.191538 -1.467178,-0.216472 -0.109038,-0.02493 2.063853,-0.773014 4.828645,-1.662399 l 5.026896,-1.617064 v 6.181125 6.181127 H 86.72661 c -3.571558,0 -3.571875,-5.5e-5 -3.571875,-0.621001 v -0.621 l -1.256771,0.612431 c -1.164831,0.567629 -3.992517,1.181576 -5.225521,1.134565 -0.291041,-0.01109 -1.18401,-0.165775 -1.984375,-0.343731 z m 54.705765,-0.426003 c -3.21505,-0.994863 -5.51469,-3.130349 -7.24669,-6.729394 -0.48563,-1.009118 -0.85384,-1.863884 -0.81824,-1.899479 0.0833,-0.08331 6.53076,-2.483471 6.67123,-2.483471 0.0583,0 0.41875,0.625078 0.8011,1.389063 0.38234,0.763984 0.95416,1.672659 1.27069,2.019279 1.34053,1.467929 4.35352,2.062382 6.2979,1.242549 0.49071,-0.206907 1.28554,-0.784707 1.76628,-1.283999 1.54025,-1.599687 1.63946,-2.382373 1.63946,-12.933942 v -9.482949 h 3.70417 3.70417 l -0.008,9.19427 c -0.004,5.056849 -0.12321,10.080716 -0.26381,11.164148 -0.64235,4.94963 -3.93394,8.633395 -8.87769,9.935407 -2.1297,0.560887 -6.62391,0.492498 -8.6404,-0.131482 z m 25.46441,0.102796 c -1.76998,-0.641281 -3.2786,-1.784808 -4.21026,-3.191359 -1.50159,-2.267 -1.612,-3.073525 -1.612,-11.775969 v -7.889478 h 3.42779 3.4278 l 0.0779,7.389503 c 0.0737,6.985187 0.10779,7.429449 0.62345,8.119588 0.30004,0.401548 0.84613,0.954522 1.21353,1.228834 1.43633,1.072375 4.4573,0.815025 5.87611,-0.500571 l 0.69922,-0.648353 v -7.7945 -7.794501 h 3.43959 3.43958 v 11.509375 11.509374 h -3.43958 -3.43959 v -0.774583 -0.774581 l -1.61407,0.832442 c -1.4301,0.737561 -1.90509,0.841177 -4.16719,0.90904 -1.85531,0.05566 -2.87814,-0.04116 -3.74231,-0.354261 z M 56.480398,86.839289 c 0.07482,-0.63028 0.322675,-0.785617 2.332678,-1.461945 1.236927,-0.416203 2.814505,-0.925877 3.505729,-1.13261 l 1.256771,-0.375877 v 1.837822 1.837822 h -3.589449 -3.589448 z m 35.731701,-5.806988 0.07077,-6.512198 3.505729,-1.129074 3.505729,-1.129074 v 7.641274 7.641272 H 95.717828 92.14133 Z m 15.297331,-0.697695 c 0.0253,-4.314688 -0.0644,-7.475511 -0.22334,-7.871354 -0.14607,-0.363802 -0.63875,-1.014979 -1.09484,-1.447061 -0.72301,-0.684957 -1.06538,-0.798945 -2.67246,-0.889753 l -1.84322,-0.104151 v -2.622524 c 0,-2.614186 0.002,-2.623448 0.72761,-2.912767 1.10579,-0.441102 5.03242,-0.354437 6.37915,0.140795 2.34246,0.861395 4.32623,2.837457 5.247,5.226623 0.37275,0.967204 0.4617,2.489767 0.5504,9.421858 l 0.1058,8.268229 h -3.60918 -3.60919 z m 66.13281,-4.299479 V 64.525752 h 3.43958 3.43959 v 0.811766 0.811767 l 0.75919,-0.540593 c 2.51895,-1.793654 7.21865,-1.958033 10.16309,-0.355469 1.58987,0.865315 2.70707,2.112721 3.60305,4.022956 l 0.68821,1.467281 0.0829,8.400521 0.0829,8.40052 h -3.45638 -3.45639 v -7.087687 c 0,-6.829816 -0.0217,-7.129927 -0.59531,-8.248652 -0.72855,-1.420798 -1.95887,-2.12616 -3.70854,-2.12616 -1.3377,0 -2.8983,0.525142 -3.69011,1.241723 -0.43377,0.392555 -0.4727,1.078211 -0.4727,8.324284 v 7.896492 h -3.43959 -3.43958 z"
         id="path3748"
         inkscape:connector-curvature="0" />
      <path
         style="fill:#dc4361;stroke-width:0.26458332"
         d="m 205.52453,96.511455 c -1.63837,-0.23627 -4.76512,-1.117293 -5.37057,-1.513266 -0.26759,-0.175008 -0.10709,-0.769691 0.72643,-2.691468 0.58846,-1.356752 1.11884,-2.515738 1.17862,-2.575521 0.0598,-0.05979 1.10211,0.214601 2.31628,0.609746 1.72181,0.560356 2.76066,0.724715 4.72112,0.746937 2.74136,0.03108 3.79716,-0.341294 4.80606,-1.69505 0.55527,-0.745067 0.98947,-3.435832 0.55443,-3.435832 -0.14821,0 -0.92704,0.301049 -1.73074,0.668994 -2.86392,1.311145 -6.78276,1.126363 -9.77423,-0.460875 -1.9915,-1.056674 -3.99718,-3.215095 -5.04702,-5.431382 -0.8066,-1.702819 -0.84705,-1.93978 -0.84705,-4.963195 0,-3.068571 0.0295,-3.233705 0.87917,-4.926304 1.62112,-3.229276 4.69715,-5.608076 8.19089,-6.334294 1.9886,-0.413356 5.12915,-0.17655 6.88088,0.518835 1.70326,0.676143 1.64385,0.675199 1.64385,0.02614 0,-0.458611 0.17639,-0.529167 1.32292,-0.529167 h 1.32292 v 15.313252 15.31325 l -1.27412,0.548113 c -2.39766,1.031444 -6.67867,1.362141 -10.49984,0.811087 z m 6.77222,-15.193605 c 2.26714,-0.799891 2.3559,-1.004115 2.3559,-5.420128 0,-4.365096 0.0302,-4.290249 -2.12142,-5.266195 -1.33912,-0.60742 -3.25937,-0.702605 -4.80885,-0.238371 -2.22717,0.667278 -4.18222,3.249353 -4.18222,5.523546 0,2.033926 1.57985,4.380037 3.57187,5.304298 1.30528,0.605623 3.62014,0.648866 5.18472,0.09685 z M 74.026617,87.455705 c -1.72511,-0.572845 -2.627916,-1.136013 -3.669712,-2.289157 -0.948206,-1.049552 -1.489663,-2.050682 -1.489663,-2.754328 0,-0.195263 1.188064,-0.703509 2.844271,-1.216763 1.564349,-0.484786 2.993099,-0.934186 3.175,-0.998667 0.204893,-0.07263 0.330729,0.122806 0.330729,0.513656 0,0.93272 0.669928,1.72507 1.763755,2.086065 1.244878,0.410845 4.171595,0.174662 5.462227,-0.440798 0.959467,-0.457536 0.976101,-0.491636 0.976101,-2.000838 v -1.535369 l -1.064196,-0.170173 c -0.585309,-0.09359 -1.110144,-0.244512 -1.166297,-0.335373 -0.05616,-0.09086 1.970545,-0.833168 4.50378,-1.649574 l 4.60588,-1.484373 v 6.182245 6.182243 h -3.439584 -3.439583 v -0.661458 c 0,-0.363802 -0.04514,-0.661458 -0.100319,-0.661458 -0.05517,0 -0.792467,0.316875 -1.63843,0.70417 -1.249029,0.571825 -2.013381,0.720825 -4.066868,0.792779 -1.623793,0.0569 -2.907503,-0.03716 -3.587091,-0.262829 z m 55.987053,-0.06533 c -3.43784,-0.924488 -5.96779,-3.061877 -7.68482,-6.492404 -0.5957,-1.190164 -1.04982,-2.197205 -1.00916,-2.237868 0.0895,-0.08948 6.53013,-2.492686 6.68045,-2.492686 0.0583,0 0.41875,0.625078 0.8011,1.389063 0.38234,0.763984 0.95416,1.672659 1.27069,2.019279 1.34053,1.467929 4.35352,2.062382 6.2979,1.242549 0.49071,-0.206907 1.28554,-0.784707 1.76628,-1.283999 1.54025,-1.599687 1.63946,-2.382373 1.63946,-12.933942 v -9.482949 h 3.70417 3.70417 l -0.008,9.19427 c -0.004,5.056849 -0.12321,10.080716 -0.26381,11.164148 -0.64199,4.946876 -3.94612,8.646357 -8.86714,9.92812 -1.94968,0.507826 -6.1184,0.500777 -8.03111,-0.01357 z m 24.84458,-0.0078 c -1.76998,-0.641268 -3.2786,-1.784795 -4.21026,-3.191346 -1.50159,-2.267 -1.612,-3.073525 -1.612,-11.775969 v -7.889478 h 3.42779 3.4278 l 0.0779,7.389503 c 0.0737,6.985187 0.10779,7.429449 0.62345,8.119588 0.30004,0.401548 0.84613,0.954522 1.21353,1.228834 1.43633,1.072375 4.4573,0.815025 5.87611,-0.500571 l 0.69922,-0.648353 v -7.7945 -7.794501 h 3.43959 3.43958 v 11.509375 11.509374 h -3.43958 -3.43959 v -0.774583 -0.774581 l -1.61407,0.832442 c -1.4301,0.737561 -1.90509,0.841177 -4.16719,0.90904 -1.85531,0.05566 -2.87814,-0.04116 -3.74231,-0.354261 z M 56.696409,86.805287 c 0,-0.695166 0.137957,-0.784378 2.315104,-1.497113 1.273308,-0.416843 2.82112,-0.911939 3.439584,-1.100214 l 1.124479,-0.342315 v 1.839428 1.839428 h -3.439583 -3.439584 z m 35.51569,-5.775867 0.07077,-6.515083 3.175,-1.02039 c 1.74625,-0.561214 3.264296,-1.022708 3.373437,-1.025542 0.109141,-0.0028 0.198437,3.388128 0.198437,7.535472 v 7.540624 H 95.585536 92.14133 Z m 15.548891,-0.114631 c 0,-7.493793 -0.15457,-8.513822 -1.4856,-9.80391 -0.81919,-0.793998 -1.08828,-0.890172 -2.75386,-0.984286 l -1.84596,-0.104306 v -2.622524 c 0,-2.614186 0.002,-2.623448 0.72761,-2.912767 1.10579,-0.441102 5.03242,-0.354437 6.37915,0.140795 2.34246,0.861395 4.32623,2.837457 5.247,5.226623 0.37275,0.967204 0.4617,2.489767 0.5504,9.421858 l 0.1058,8.268229 h -3.46227 -3.46227 z m 65.88125,-4.879662 V 64.525752 h 3.43958 3.43959 v 0.811766 0.811767 l 0.75919,-0.540593 c 2.51895,-1.793654 7.21865,-1.958033 10.16309,-0.355469 1.58987,0.865315 2.70707,2.112721 3.60305,4.022956 l 0.68821,1.467281 0.0829,8.400521 0.0829,8.40052 h -3.45638 -3.45639 v -7.087687 c 0,-6.829816 -0.0217,-7.129927 -0.59531,-8.248652 -0.72855,-1.420798 -1.95887,-2.12616 -3.70854,-2.12616 -1.3377,0 -2.8983,0.525142 -3.69011,1.241723 -0.43377,0.392555 -0.4727,1.078211 -0.4727,8.324284 v 7.896492 h -3.43959 -3.43958 z"
         id="path3746"
         inkscape:connector-curvature="0" />
      <path
         style="fill:#0e6db3;stroke-width:0.26458332"
         d="m 74.026617,87.455705 c -1.72511,-0.572845 -2.627916,-1.136013 -3.669712,-2.289157 -0.948206,-1.049552 -1.489663,-2.050682 -1.489663,-2.754328 0,-0.195263 1.188064,-0.703509 2.844271,-1.216763 1.564349,-0.484786 2.993099,-0.934186 3.175,-0.998667 0.204893,-0.07263 0.330729,0.122806 0.330729,0.513656 0,0.93272 0.669928,1.72507 1.763755,2.086065 1.244878,0.410845 4.171595,0.174662 5.462227,-0.440798 0.959467,-0.457536 0.976101,-0.491636 0.976101,-2.000838 v -1.535369 l -1.064196,-0.170173 c -0.585309,-0.09359 -1.110144,-0.244512 -1.166297,-0.335373 -0.05616,-0.09086 1.970545,-0.833168 4.50378,-1.649574 l 4.60588,-1.484373 v 6.182245 6.182243 h -3.439584 -3.439583 v -0.661458 c 0,-0.363802 -0.04514,-0.661458 -0.100319,-0.661458 -0.05517,0 -0.792467,0.316875 -1.63843,0.70417 -1.249029,0.571825 -2.013381,0.720825 -4.066868,0.792779 -1.623793,0.0569 -2.907503,-0.03716 -3.587091,-0.262829 z M 56.696409,86.805287 c 0,-0.695166 0.137957,-0.784378 2.315104,-1.497113 1.273308,-0.416843 2.82112,-0.911939 3.439584,-1.100214 l 1.124479,-0.342315 v 1.839428 1.839428 h -3.439583 -3.439584 z m 35.51569,-5.775867 0.07077,-6.515083 3.175,-1.02039 c 1.74625,-0.561214 3.264296,-1.022708 3.373437,-1.025542 0.109141,-0.0028 0.198437,3.388128 0.198437,7.535472 v 7.540624 H 95.585536 92.14133 Z m 15.548891,0.167606 v -6.347474 l 1.65365,0.930353 c 0.9095,0.511694 2.45731,1.358743 3.43958,1.882332 l 1.78594,0.951978 v 4.465144 4.465142 h -3.43959 -3.43958 z m 20.82948,5.706647 c -1.29115,-0.530945 -4.42531,-2.596145 -4.42531,-2.915979 0,-0.100726 6.09886,3.217471 6.31978,3.438401 0.26892,0.26892 -0.45669,0.06882 -1.89447,-0.522422 z"
         id="path3744"
         inkscape:connector-curvature="0" />
    </g>
  </g>
</svg>
